<svg xmlns="http://www.w3.org/2000/svg" id="svg4458" width="564.54" height="142.35" version="1.1" viewBox="0 0 149.37 37.66"><g id="layer1" transform="translate(13.45 -84.64)"><g id="g3989" transform="matrix(.35 0 0 -.35 17.91 84.64)"><path id="path3991" d="M0 0h-71.95a17.03 17.03 0 0 1-16.96-17.1v-72.56c0-9.45 7.59-17.1 16.96-17.1H0c9.37 0 16.95 7.65 16.95 17.1v72.56C16.95-7.65 9.37 0 0 0" style="fill:#1677ff;fill-opacity:1;fill-rule:nonzero;stroke:none"/></g><g id="g3993" transform="matrix(.35 0 0 -.35 -3.36 113.6)"><path id="path3995" d="M0 0c-16.47 0-21.34 13.08-13.2 20.24 2.72 2.42 7.68 3.6 10.33 3.87 9.78.97 18.83-2.8 29.52-8.05C19.14 6.17 9.57 0 0 0m58.55 15.06C54.32 16.5 48.63 18.68 42.3 21a86.6 86.6 0 0 1 8.84 22.51H30.27v7.58h25.56v4.23H30.27v12.64H19.84C18 67.95 18 66.12 18 66.12v-10.8H-7.84v-4.24H18V43.5H-3.34v-4.23h41.4a74.78 74.78 0 0 0-5.96-14.7c-13.43 4.47-27.77 8.1-36.77 5.87-5.76-1.43-9.47-3.99-11.65-6.66-10-12.28-2.83-30.92 18.3-30.92 12.48 0 24.51 7.03 33.84 18.6C49.71 4.72 77.25-6.86 77.25-6.86v16.5s-3.46.28-18.7 5.42" style="fill:#fff;fill-opacity:1;fill-rule:nonzero;stroke:none"/></g><g id="g3997" transform="matrix(.35 0 0 -.35 67.64 90.16)"><path id="path3999" d="M0 0c0-5.52 4.04-9.24 9.67-9.24S19.33-5.52 19.33 0c0 5.42-4.03 9.24-9.66 9.24S0 5.42 0 0" style="fill:#1677ff;fill-opacity:1;fill-rule:nonzero;stroke:none"/></g><path id="path4001" d="M58.12 115.08h5.92V87.72h-5.92z" style="fill:#fff;fill-opacity:1;fill-rule:nonzero;stroke:none;stroke-width:.35277775"/><g id="g4003" transform="matrix(.35 0 0 -.35 39.12 105.6)"><path id="path4005" d="m0 0 9.98 34.52h.43L19.86 0Zm24.43 48.01H1.91l-25.17-74.88h15.5l4.25 14.65h26.67l4.03-14.65h19.87z" style="fill:#fff;fill-opacity:1;fill-rule:nonzero;stroke:none"/></g><path id="path4007" d="M68.09 115.08H74V94.99h-5.92z" style="fill:#fff;fill-opacity:1;fill-rule:nonzero;stroke:none;stroke-width:.35277775"/><g id="g4009" transform="matrix(.35 0 0 -.35 135.88 95.03)"><path id="path4011" d="m0 0 .1.1h-15.82l-9.99-34.62h-.53L-37.7.1h-18.8l22.62-57.15-9.45-17.42v-.43h14.77z" style="fill:#fff;fill-opacity:1;fill-rule:nonzero;stroke:none"/></g><g id="g4013" transform="matrix(.35 0 0 -.35 84.99 111.63)"><path id="path4015" d="M0 0c-1.91 0-3.72.21-5.74.85v30.8c3.51 2.45 6.38 3.62 9.99 3.62 6.27 0 11.26-5 11.26-15.62C15.5 6.05 8.18 0 0 0m10.62 48.33c-6.16 0-10.94-2.34-16.36-6.8v5.63h-16.78v-74.99h16.79v18.59a36.2 36.2 0 0 1 9.77-1.28C19-10.52 32.5.53 32.5 20.18c0 17.64-9.78 28.15-21.89 28.15" style="fill:#fff;fill-opacity:1;fill-rule:nonzero;stroke:none"/></g><g id="g4017" transform="matrix(.35 0 0 -.35 108.86 110.2)"><path id="path4019" d="M0 0c-4.46-2.44-7.01-3.4-9.98-3.4-4.04 0-6.59 2.66-6.59 6.9 0 1.6.32 3.2 1.6 4.47 2.01 2.02 5.94 3.5 14.97 5.63zm16.78.42v23.8c0 12.96-7.64 20.07-21.13 20.07-8.6 0-14.56-1.48-25.4-4.78l2.98-13.06c9.88 4.46 14.24 6.37 18.8 6.37 5.53 0 7.97-3.93 7.97-9.98v-.43c-19.23-3.6-25.18-5.63-28.9-9.35-2.75-2.76-3.92-6.69-3.92-11.25 0-10.95 8.5-16.79 16.46-16.79 5.95 0 10.73 2.23 17.21 7.12l1.17-5.95H18.8z" style="fill:#fff;fill-opacity:1;fill-rule:nonzero;stroke:none"/></g></g><style></style></svg>