<svg width="120" height="80" viewBox="0 0 120 80" fill="none" xmlns="http://www.w3.org/2000/svg">
<rect width="120" height="80" fill="#4EBEA9"/>
<path d="M27.2 46.1H35.2L36.9 50.7H40.1L32.4 30.6H29.9L22.2 50.7H25.4L27.2 46.1ZM28.3 43.2L31.2 35.3L34.0 43.2H28.3Z" fill="white"/>
<path d="M45.0 30.6H42.2V50.7H45.0V30.6Z" fill="white"/>
<path d="M51.9 36.4H49.0V50.7H51.9V36.4ZM50.5 34.1C51.4 34.1 52.2 33.3 52.2 32.4C52.2 31.4 51.4 30.6 50.5 30.6C49.5 30.6 48.7 31.4 48.7 32.4C48.7 33.3 49.5 34.1 50.5 34.1Z" fill="white"/>
<path d="M59.9 39.1H63.1V36.4H59.9V32.5H57.5V34.5C57.5 35.6 56.7 36.4 55.6 36.4H54.5V39.1H57.0V45.9C57.0 49.0 58.9 50.9 61.5 50.9C62.4 50.9 63.1 50.5 63.1 50.5V48.0C63.1 48.0 62.6 48.2 62.1 48.2C60.8 48.2 59.9 47.2 59.9 45.9V39.1Z" fill="white"/>
<path d="M76.2 43.5C76.2 46.2 74.3 48.2 72.2 48.2C70.1 48.2 68.2 46.2 68.2 43.5C68.2 40.8 70.1 38.9 72.2 38.9C74.3 38.9 76.2 40.8 76.2 43.5ZM79.0 43.5C79.0 39.2 76.0 36.2 72.2 36.2C68.3 36.2 65.3 39.2 65.3 43.5C65.3 47.8 68.3 50.9 72.2 50.9C76.0 50.9 79.0 47.8 79.0 43.5Z" fill="white"/>
<path d="M92.1 43.5C92.1 46.2 90.2 48.2 88.1 48.2C86.1 48.2 84.1 46.2 84.1 43.5C84.1 40.8 86.1 38.9 88.1 38.9C90.2 38.9 92.1 40.8 92.1 43.5ZM95.0 43.5C95.0 39.2 92.0 36.2 88.1 36.2C84.3 36.2 81.3 39.2 81.3 43.5C81.3 47.8 84.3 50.9 88.1 50.9C92.0 50.9 95.0 47.8 95.0 43.5Z" fill="white"/>
<path d="M101.1 30.6H98.2V50.7H101.1V30.6Z" fill="white"/>
<path d="M104.3 46.1C104.4 49.1 106.2 50.9 109.7 50.9C113.0 50.9 115 49.0 115 46.4C115 41.3 107.3 43.1 107.3 40.5C107.3 39.7 108.1 38.9 109.5 38.9C111.0 38.9 111.8 39.7 111.9 40.7H114.8C114.6 38.0 112.9 36.2 109.5 36.2C106.5 36.2 104.6 38.1 104.6 40.5C104.6 45.6 112.2 43.9 112.2 46.4C112.2 47.4 111.4 48.2 109.7 48.2C108.1 48.2 107.3 47.4 107.1 46.1H104.3Z" fill="white"/>
<path d="M15.5 37.0C15.5 38.4 14.4 39.5 13.0 39.5C11.6 39.5 10.4 38.4 10.4 37.0C10.4 35.6 11.6 34.4 13.0 34.4C14.4 34.4 15.5 35.6 15.5 37.0Z" fill="white"/>
<path fill-rule="evenodd" clip-rule="evenodd" d="M9.9 29.6C11.9 28.7 14.1 28.7 16.0 29.6C17.0 29.9 17.9 30.5 18.6 31.3C20.0 32.6 20.8 34.4 20.9 36.2C21.1 38.1 20.6 40.0 19.4 41.5C18.8 42.4 18.1 43.2 17.4 43.9L17.4 43.9C16.5 45.0 16.3 45.4 16.3 46.9C16.3 47.0 16.2 47.1 16.2 47.2C16.1 47.3 16.0 47.4 15.8 47.4H10.1C10.0 47.4 9.9 47.3 9.9 47.3C9.8 47.3 9.8 47.3 9.7 47.2C9.7 47.2 9.7 47.1 9.6 47.1C9.6 47.0 9.6 47.0 9.6 46.9C9.6 45.4 9.5 45.0 8.5 44.0H8.5C7.8 43.2 7.1 42.4 6.5 41.5C5.7 40.4 5.2 39.1 5.0 37.8C4.8 36.5 5.0 35.1 5.6 33.8L5.6 33.8C6.0 32.9 6.6 32.0 7.3 31.3C8.0 30.5 8.9 29.9 9.9 29.6ZM13.7 32.6C13.6 32.4 13.5 32.3 13.3 32.3H12.6C12.4 32.3 12.3 32.4 12.2 32.6L12.0 33.1C12.0 33.2 11.9 33.3 11.8 33.4C11.6 33.4 11.4 33.5 11.3 33.6C11.1 33.6 11.0 33.6 10.9 33.6L10.4 33.4C10.2 33.3 10.0 33.3 9.9 33.4L9.4 33.9C9.3 34.0 9.3 34.2 9.4 34.4L9.6 34.9C9.6 35.0 9.6 35.1 9.6 35.3C9.5 35.4 9.4 35.6 9.4 35.8C9.3 35.9 9.2 36.0 9.1 36.0L8.6 36.2C8.4 36.3 8.3 36.4 8.3 36.6V37.3C8.3 37.5 8.4 37.6 8.6 37.7L9.1 37.9C9.2 37.9 9.3 38.0 9.4 38.2C9.4 38.3 9.5 38.5 9.6 38.6C9.6 38.8 9.6 38.9 9.6 39.0L9.4 39.5C9.3 39.7 9.3 39.9 9.4 40.0L9.9 40.5C10.0 40.6 10.2 40.6 10.4 40.6L10.9 40.3C11.0 40.3 11.1 40.3 11.3 40.4C11.4 40.4 11.6 40.5 11.8 40.6C11.9 40.6 12.0 40.7 12.0 40.8L12.2 41.3C12.3 41.5 12.4 41.6 12.6 41.6H13.3C13.5 41.6 13.6 41.5 13.7 41.3L13.9 40.8C13.9 40.7 14.0 40.6 14.2 40.6C14.3 40.5 14.5 40.4 14.6 40.4C14.8 40.3 14.9 40.3 15.0 40.3L15.5 40.6C15.7 40.6 15.9 40.6 16.0 40.5L16.5 40.0C16.6 39.9 16.6 39.7 16.6 39.5L16.3 39.0C16.3 38.9 16.3 38.8 16.4 38.6C16.4 38.5 16.5 38.3 16.6 38.2C16.6 38.0 16.7 37.9 16.8 37.9L17.3 37.7C17.5 37.6 17.6 37.5 17.6 37.3V36.6C17.6 36.4 17.5 36.3 17.3 36.2L16.8 36.0C16.7 36.0 16.6 35.9 16.6 35.8C16.5 35.6 16.4 35.4 16.4 35.3C16.3 35.1 16.3 35.0 16.3 34.9L16.6 34.4C16.6 34.2 16.6 34.0 16.5 33.9L16.0 33.4C15.9 33.3 15.7 33.3 15.5 33.4L15.0 33.6C14.9 33.6 14.8 33.6 14.6 33.6C14.5 33.5 14.3 33.4 14.2 33.4C14.0 33.3 13.9 33.2 13.9 33.1L13.7 32.6Z" fill="white"/>
<path d="M10.2 48.7H15.7C15.8 48.7 15.9 48.7 16.0 48.6C16.1 48.5 16.2 48.4 16.2 48.3C16.2 48.1 16.1 48.0 16.0 47.9C15.9 47.9 15.8 47.8 15.7 47.8H10.2C10.1 47.8 10.1 47.8 10.0 47.8C10.0 47.9 9.9 47.9 9.9 47.9C9.8 48.0 9.8 48.0 9.8 48.1C9.7 48.1 9.7 48.2 9.7 48.3C9.7 48.3 9.7 48.4 9.8 48.4C9.8 48.5 9.8 48.5 9.9 48.6C9.9 48.6 10.0 48.6 10.0 48.7C10.1 48.7 10.1 48.7 10.2 48.7Z" fill="white"/>
<path d="M15.6 49.2H10.3C10.3 49.2 10.2 49.2 10.2 49.2C10.1 49.2 10.0 49.3 10.0 49.3C10.0 49.3 9.9 49.4 9.9 49.4C9.9 49.5 9.9 49.6 9.9 49.6C9.9 49.7 9.9 49.7 9.9 49.8C9.9 49.8 10.0 49.9 10.0 49.9C10.0 50.0 10.1 50.0 10.2 50.0C10.2 50.0 10.3 50.1 10.3 50.1H15.6C15.6 50.1 15.7 50.0 15.7 50.0C15.8 50.0 15.9 50.0 15.9 49.9C15.9 49.9 16.0 49.8 16.0 49.8C16.0 49.7 16.0 49.7 16.0 49.6C16.0 49.6 16.0 49.5 16.0 49.4C16.0 49.4 15.9 49.3 15.9 49.3C15.9 49.3 15.8 49.2 15.7 49.2C15.7 49.2 15.6 49.2 15.6 49.2Z" fill="white"/>
<path d="M11.3 50.5C11.0 50.5 10.9 50.7 11.1 50.9L11.4 51.3C11.7 51.5 12.0 51.7 12.3 51.7H13.6C14.0 51.7 14.3 51.5 14.5 51.3L14.8 50.9C15.0 50.7 15.0 50.5 14.6 50.5H11.3Z" fill="white"/>
</svg>
