<svg viewBox="0 0 2048 512" xmlns="http://www.w3.org/2000/svg"><defs><linearGradient x1="164.3" y1="134.6" x2="163.2" y2="228.8" id="gradient19" gradientUnits="userSpaceOnUse"><stop offset="0%" stop-color="rgb(20,30,36)"/><stop offset="100%" stop-color="rgb(233,108,76)"/></linearGradient><linearGradient x1="312.6" y1="140.5" x2="313.8" y2="229.2" id="gradient20" gradientUnits="userSpaceOnUse"><stop offset="0%" stop-color="rgb(20,30,36)"/><stop offset="100%" stop-color="rgb(233,108,76)"/></linearGradient></defs><g><path d="M-34,-22 L2066,-22 L2066,559 L-34,559 L-34,-22 Z" fill="rgb(20,30,36)"/></g><g><g><path d="M210.7,277.2 C267.3,279.8 320.1,297.5 347.0,335.6 C365.7,362.2 370.4,395.4 357.9,423.1 C340.5,461.5 292.7,482.9 234.8,482.9 L67.4,482.9 C38.9,482.9 16.4,462.4 7.8,433.5 C2.7,416.2 3.4,397.2 9.3,379.4 C14.9,362.3 24.3,347.2 38.4,333.7 C76.4,297.1 143.4,274.2 210.7,277.2 Z" fill="rgb(20,30,36)"/><path d="M51.8,325.9 C42.9,336.4 35.6,348.0 29.9,360.4 C22.2,377.2 17.3,395.0 17.5,413.0 C17.7,428.3 21.6,443.4 27.8,457.8 C29.8,462.4 32.0,466.9 34.7,471.1 C29.9,468.4 25.9,464.7 22.3,460.6 C12.1,449.2 5.7,435.2 4.3,420.2 C3.5,412.2 4.1,404.1 5.5,396.1 C8.1,380.7 13.0,365.9 21.5,353.2 C29.1,341.8 39.4,332.5 51.8,325.9 Z" fill="rgb(49,110,125)"/><path d="M178.2,442.6 C181.5,445.3 181.7,451.7 185.1,454.4 C188.3,456.8 193.2,456.3 197.0,453.2 C199.6,451.1 201.2,448.0 201.8,444.4 C202.1,442.5 202.1,440.5 201.6,438.5 C203.3,440.2 204.7,442.4 205.7,444.6 C207.2,447.9 207.8,451.4 210.0,453.2 C211.8,454.6 214.4,454.9 217.0,454.4 C219.7,453.9 222.2,452.6 223.8,450.5 C226.5,447.1 226.8,441.9 225.2,436.6 C228.3,439.6 231.2,442.8 233.6,446.3 C235.1,448.5 236.3,450.8 238.2,452.0 C241.8,454.5 247.1,453.6 249.9,449.7 C252.3,446.4 252.4,441.7 251.1,436.6 C248.4,426.2 240.1,416.1 229.4,410.1 C216.5,402.8 201.1,400.9 185.1,401.3 C177.1,401.6 169.1,402.4 161.5,404.9 C150.8,408.4 141.5,415.1 134.7,424.0 C129.0,431.4 125.5,439.6 127.7,446.3 C130.2,453.8 138.4,457.8 147.2,454.7 C159.5,443.2 172.4,437.9 178.2,442.6 Z" fill="rgb(139,188,199)"/><path d="M163.9,418.5 C168.9,420.5 172.3,425.5 175.1,431.0 C177.0,434.8 178.5,438.8 179.3,443.1 C175.6,444.6 172.0,446.6 168.7,449.0 C166.0,451.0 163.5,453.3 160.5,454.9 C156.0,457.2 150.5,457.9 145.0,457.9 C139.1,457.9 133.3,457.1 129.8,453.7 C126.7,450.7 125.5,446.0 126.3,441.4 C127.3,435.8 131.2,430.9 136.1,426.8 C145.1,419.1 155.9,415.1 163.9,418.5 Z" fill="rgb(49,110,125)"/><path d="M55.1,321.1 L74.1,180.6 C77.9,152.9 81.4,126.0 91.4,101.5 C100.6,79.1 114.7,59.3 133.9,46.4 C155.9,31.6 183.7,26.5 212.2,26.0 C241.4,25.5 270.1,30.0 291.7,44.8 C306.8,55.1 317.9,70.1 325.9,87.1 C338.1,113.1 342.3,142.9 339.6,173.4 L325.9,325.1 C287.7,331.5 249.1,334.4 210.4,334.5 C158.6,334.6 106.7,329.6 55.1,321.1 Z" fill="rgb(20,30,36)"/><path d="M144.5,40.5 C134.9,52.9 127.6,66.7 121.7,81.7 C111.1,108.5 105.7,139.7 96.9,170.2 L56.6,310.0 L75.3,167.4 C80.1,130.6 89.6,95.5 108.1,70.6 C117.8,57.4 129.8,47.1 144.5,40.5 Z" fill="rgb(49,110,125)"/><path d="M240.3,28.3 C216.5,27.4 193.0,34.6 175.9,50.0 C159.5,64.8 150.1,86.6 143.0,109.5 C134.9,135.9 130.8,163.2 129.3,191.1 L188.2,201.7 C200.5,184.8 217.9,175.2 237.3,175.1 C258.2,174.9 276.9,185.6 290.6,203.8 L339.3,186.3 C342.1,161.4 341.2,136.8 335.4,113.0 C330.2,92.2 321.8,72.6 307.8,57.8 C290.5,39.4 266.0,29.2 240.3,28.3 Z" fill="rgb(49,110,125)"/><path d="M252.5,299.3 L252.0,309.0 C251.8,313.1 248.2,315.7 243.8,316.0 C239.2,316.3 235.5,314.0 235.7,310.4 L236.2,300.7 C236.4,295.9 240.0,292.7 244.3,292.4 C249.0,292.1 252.7,295.0 252.5,299.3 Z" fill="rgb(49,110,125)"/><path d="M224.3,299.6 L223.8,309.2 C223.6,313.3 220.1,315.9 215.7,316.2 C211.0,316.5 207.3,314.3 207.5,310.6 L208.0,301.0 C208.3,296.1 211.8,292.9 216.2,292.6 C220.8,292.3 224.6,295.2 224.3,299.6 Z" fill="rgb(49,110,125)"/><path d="M196.2,298.6 L195.7,306.0 C195.4,310.5 191.6,313.4 187.0,313.4 C182.6,313.5 179.1,311.0 179.4,307.3 L179.8,300.0 C180.2,295.2 183.7,291.9 188.0,291.7 C192.7,291.3 196.4,294.2 196.2,298.6 Z" fill="rgb(49,110,125)"/><path d="M279.1,298.5 L278.7,305.9 C278.4,310.4 274.6,313.3 270.0,313.3 C265.6,313.4 262.1,311.0 262.3,307.3 L262.8,299.9 C263.2,295.1 266.6,291.9 271.0,291.6 C275.7,291.2 279.4,294.2 279.1,298.5 Z" fill="rgb(49,110,125)"/><path d="M212.8,159.7 C219.8,156.8 227.2,155.4 234.7,155.3 C242.8,155.2 250.9,156.7 258.6,159.6 C275.5,138.4 300.7,130.6 324.9,134.9 C359.1,141.0 384.1,167.7 385.8,199.8 C387.7,234.4 363.0,264.7 326.8,270.8 C303.3,274.8 278.6,266.5 263.0,247.9 C250.9,233.5 245.7,214.3 250.8,194.5 C247.7,193.1 244.5,192.4 241.2,192.3 C236.8,192.1 232.3,193.0 228.0,194.5 C231.7,218.6 222.8,240.6 206.2,255.4 C185.3,274.1 155.9,279.2 130.0,268.5 C107.2,259.0 90.4,238.5 86.5,214.1 C82.9,191.1 91.2,167.5 108.3,151.0 C125.1,134.6 148.6,127.0 171.4,131.4 C188.1,134.5 203.2,144.1 212.8,159.7 Z" fill="rgb(233,108,76)" opacity="0.2"/><path d="M210.6,166.2 C218.9,162.1 227.8,159.9 236.9,159.7 C246.8,159.4 256.6,161.5 266.0,165.5 C281.1,144.3 305.0,136.0 328.0,140.8 C356.8,146.7 377.7,170.4 379.8,198.6 C382.3,232.2 359.0,261.3 324.4,266.0 C304.1,268.7 283.0,261.3 269.0,245.5 C256.0,230.8 250.9,210.5 256.7,189.7 C251.8,187.2 246.6,185.9 241.2,185.8 C234.5,185.6 227.8,187.2 221.5,190.1 C226.2,214.0 218.3,236.3 201.9,251.1 C183.4,267.7 157.5,272.8 134.4,264.1 C112.9,256.0 97.0,236.9 93.0,214.1 C89.4,192.6 96.8,170.5 112.6,155.3 C127.7,140.9 148.7,134.3 169.2,137.9 C186.0,140.8 201.1,150.5 210.6,166.2 Z" fill="rgb(233,108,76)" opacity="0.2"/><path d="M321.5,146.3 C351.5,148.6 374.9,174.4 373.7,205.3 C372.6,234.0 350.0,257.5 321.5,259.8 C289.7,262.3 262.7,238.5 260.3,207.6 C257.5,172.2 286.2,143.5 321.5,146.3 Z" fill="rgb(255,255,255)"/><path d="M157.6,143.1 C191.0,143.1 217.7,170.5 216.4,204.1 C215.2,235.5 189.4,260.7 157.6,260.7 C125.9,260.7 100.1,235.5 98.9,204.1 C97.6,170.5 124.3,143.1 157.6,143.1 Z" fill="rgb(255,255,255)"/><path d="M239.1,170.3 C251.5,170.3 263.6,173.8 274.5,180.7 L269.6,195.3 C260.8,189.3 250.9,186.1 240.8,185.7 C229.8,185.3 219.0,188.3 209.1,194.1 L202.1,181.9 C213.4,174.5 226.1,170.4 239.1,170.3 Z" fill="rgb(255,255,255)"/><path d="M157.9,158.5 C181.8,158.5 201.5,175.9 203.6,198.0 C206.2,225.8 182.7,248.3 153.8,245.8 C128.9,243.5 109.9,222.4 112.2,198.0 C114.3,175.7 134.1,158.5 157.9,158.5 Z" fill="url(#gradient19)"/><path d="M321.8,162.3 C344.5,164.3 362.1,183.3 360.9,205.7 C359.9,226.1 343.0,242.8 321.8,244.8 C296.6,247.2 275.3,229.1 274.1,205.7 C272.7,180.1 294.9,159.6 321.8,162.3 Z" fill="url(#gradient20)"/><path d="M178.9,180.9 C188.0,180.6 196.6,184.4 203.1,191.8 L188.7,188.4 C188.6,200.0 182.8,208.5 175.1,208.1 C168.3,207.7 163.5,200.3 164.2,190.5 L153.1,195.2 C159.8,186.5 168.8,181.2 178.9,180.9 Z" fill="rgb(20,30,36)" opacity="0.1"/><path d="M294.6,179.5 C303.5,179.4 311.7,183.5 317.7,191.0 L304.3,186.5 C305.0,197.3 299.9,205.6 292.6,205.6 C285.9,205.6 280.8,198.6 281.1,189.1 L268.6,193.9 C275.4,185.0 284.5,179.6 294.6,179.5 Z" fill="rgb(20,30,36)" opacity="0.1"/><path d="M123.0,230.0 L137.6,191.4 C139.2,187.3 142.0,184.8 145.6,184.8 L198.8,184.8 C192.4,171.9 181.2,163.7 168.2,160.8 C150.4,156.9 132.5,162.8 121.7,176.8 C115.3,184.9 112.1,195.1 112.8,205.6 C113.4,214.4 116.7,223.0 123.0,230.0 Z" fill="rgb(20,30,36)" opacity="0.5"/><path d="M284.8,230.4 L298.9,195.5 C300.7,191.3 303.6,188.6 307.3,188.6 L357.1,188.7 C351.8,175.2 340.8,166.6 327.9,163.7 C308.0,159.2 288.6,167.5 279.2,184.6 C271.2,199.0 272.8,216.5 284.8,230.4 Z" fill="rgb(20,30,36)" opacity="0.5"/><path d="M229.1,460.3 L297.4,287.0 C310.5,253.7 340.7,235.1 378.7,235.1 L564.5,235.1 C582.3,235.1 589.0,257.4 579.9,281.1 L515.1,448.5 C512.2,455.9 506.1,460.3 498.4,460.3 L229.1,460.3 Z" fill="rgb(139,188,199)" opacity="0.2"/><path d="M243.1,460.3 L311.4,287.0 C322.5,258.8 346.3,242.2 376.2,242.2 L562.0,242.2 C579.5,242.2 587.6,261.1 579.9,281.1 L515.1,448.5 C512.2,455.9 506.1,460.3 498.4,460.3 L243.1,460.3 Z" fill="rgb(139,188,199)" opacity="0.4"/><path d="M257.2,460.3 L325.5,287.0 C334.0,265.5 352.2,252.8 375.0,252.8 L560.8,252.8 C576.4,252.8 585.5,266.4 579.9,281.1 L515.1,448.5 C512.2,455.9 506.1,460.3 498.4,460.3 L257.2,460.3 Z" fill="rgb(255,255,255)"/><path d="M329.9,308.8 C341.1,280.9 356.7,261.7 378.2,261.6 L563.1,261.1 C577.4,261.0 585.3,274.2 579.9,288.2 L510.4,466.2 C504.7,480.6 484.9,482.8 460.3,482.8 L174.0,482.8 C170.7,482.8 167.9,481.8 166.0,479.8 C163.8,477.4 163.2,473.4 163.2,469.4 C163.3,465.4 163.9,461.6 166.0,458.9 C168.1,456.3 171.6,454.9 175.5,454.9 L271.0,454.9 L329.9,308.8 Z" fill="rgb(20,30,36)"/><path d="M455.0,366.8 C460.1,374.1 468.5,376.7 477.8,374.6 C477.3,377.3 476.0,379.7 474.6,381.9 C468.2,391.9 458.4,398.4 447.3,399.4 C440.0,400.0 432.7,398.3 427.5,393.7 C419.0,386.4 416.7,373.7 421.2,362.3 C425.4,351.7 435.1,344.1 447.1,340.7 C450.2,339.9 453.3,339.4 456.5,339.7 C450.5,348.9 449.5,358.8 455.0,366.8 Z" fill="rgb(49,110,125)"/><path d="M450.2,370.0 C454.3,376.1 461.0,379.6 468.9,379.9 C463.6,388.0 456.1,393.4 447.8,394.5 C441.5,395.3 435.2,393.6 430.7,389.4 C424.1,383.3 422.6,373.1 426.0,363.9 C429.4,354.6 437.5,347.9 448.3,345.8 C445.1,354.4 445.5,363.1 450.2,370.0 Z" fill="rgb(139,188,199)"/></g></g><g><path d="M399,41.7 L399,205.1 L466.9,205.1 C491.3,205.1 513.2,196.1 527.9,179.6 C541.6,164.3 548.2,143.5 548.3,122.1 C548.5,100.4 542.0,79.4 527.9,64.6 C513.0,49.0 490.6,41.7 465.6,41.7 L399,41.7 Z M444.9,80.0 L465.3,80.0 C487.3,80.0 501.8,98.7 502.4,122.1 C503.0,146.8 488.2,166.8 465.3,166.8 L444.9,166.8 L444.9,80.0 Z M602.0,41.7 L548.3,205.1 L598.1,205.1 L605.8,179.6 L667.1,179.6 L674.8,205.1 L723.3,205.1 L668.4,41.7 L602.0,41.7 Z M633.9,77.4 L637.7,77.4 L656.9,146.4 L616.0,146.4 L633.9,77.4 Z M737.3,41.7 L737.3,205.1 L783.3,205.1 L783.3,156.6 L802.5,156.6 L826.7,205.1 L877.1,205.1 L844.6,146.4 C851.0,141.0 856.0,134.4 859.9,127.2 C866.8,114.4 870.0,100.2 868.1,86.3 C866.7,76.4 862.8,67.0 856.1,59.5 C845.4,47.7 828.6,41.7 810.1,41.7 L737.3,41.7 Z M783.3,76.1 L805.0,76.1 C811.7,76.1 817.6,79.0 821.6,83.8 C825.4,88.4 827.1,94.4 826.7,100.4 C826.2,108.4 822.0,115.5 815.2,119.5 C810.5,122.3 804.8,123.4 798.6,123.4 L783.3,123.4 L783.3,76.1 Z M895.7,41.7 L895.7,205.1 L938.4,205.1 L938.4,140.0 L955.0,140.0 L993.3,205.1 L1044.4,205.1 L990.8,119.5 L1039.2,41.7 L992.1,41.7 L952.5,104.2 L938.4,104.2 L938.4,41.7 L895.7,41.7 Z M1277.5,41.7 L1277.5,205.1 L1384.7,205.1 L1384.7,166.8 L1320.9,166.8 L1320.9,142.5 L1378.3,142.5 L1378.3,104.2 L1320.9,104.2 L1320.9,80.0 L1380.9,80.0 L1380.9,41.7 L1277.5,41.7 Z M1894.2,41.7 L1894.2,205.1 L1940.2,205.1 L1940.2,156.6 L1959.3,156.6 L1983.6,205.1 L2034,205.1 L2001.5,146.4 C2007.9,141.0 2012.9,134.4 2016.8,127.2 C2023.7,114.4 2026.9,100.2 2025.0,86.3 C2023.6,76.4 2019.7,67.0 2013.0,59.5 C2002.3,47.7 1985.5,41.7 1967.0,41.7 L1894.2,41.7 Z M1940.2,76.1 L1961.9,76.1 C1968.6,76.1 1974.5,79.0 1978.5,83.8 C1982.3,88.4 1984.0,94.4 1983.6,100.4 C1983.0,108.4 1978.8,115.5 1972.1,119.5 C1967.4,122.3 1961.7,123.4 1955.5,123.4 L1940.2,123.4 L1940.2,76.1 Z M1120.4,41.7 L1120.4,205.1 L1166.4,205.1 L1166.4,156.6 L1185.5,156.6 L1209.8,205.1 L1260.1,205.1 L1227.7,146.4 C1234.1,141.0 1239.1,134.4 1243.0,127.2 C1249.9,114.4 1253.1,100.2 1251.2,86.3 C1249.8,76.4 1245.9,67.0 1239.2,59.5 C1228.5,47.7 1211.7,41.7 1193.2,41.7 L1120.4,41.7 Z M1166.4,76.1 L1188.1,76.1 C1194.8,76.1 1200.7,79.0 1204.7,83.8 C1208.5,88.4 1210.2,94.4 1209.8,100.4 C1209.2,108.4 1205.0,115.5 1198.3,119.5 C1193.6,122.3 1187.9,123.4 1181.7,123.4 L1166.4,123.4 L1166.4,76.1 Z M1448.6,41.7 L1394.9,205.1 L1444.7,205.1 L1452.4,179.6 L1513.7,179.6 L1521.4,205.1 L1569.9,205.1 L1515.0,41.7 L1448.6,41.7 Z M1480.5,77.4 L1484.3,77.4 L1503.5,146.4 L1462.6,146.4 L1480.5,77.4 Z M1586.5,41.7 L1586.5,205.1 L1654.4,205.1 C1678.9,205.1 1700.7,196.1 1715.5,179.6 C1729.1,164.3 1735.7,143.5 1735.9,122.1 C1736.0,100.4 1729.5,79.4 1715.5,64.6 C1700.5,49.0 1678.2,41.7 1653.1,41.7 L1586.5,41.7 Z M1632.5,80.0 L1652.9,80.0 C1674.9,80.0 1689.3,98.7 1689.9,122.1 C1690.6,146.8 1675.8,166.8 1652.9,166.8 L1632.5,166.8 L1632.5,80.0 Z M1760.1,41.7 L1760.1,205.1 L1867.4,205.1 L1867.4,166.8 L1803.6,166.8 L1803.6,142.5 L1861.0,142.5 L1861.0,104.2 L1803.6,104.2 L1803.6,80.0 L1863.6,80.0 L1863.6,41.7 L1760.1,41.7 Z" fill="rgb(233,108,76)"/></g><g><path d="M706.0,432.1 L695.0,432.1 L695.0,285.4 L644,285.4 L644,275.0 L757.1,275.0 L757.1,285.4 L706.0,285.4 L706.0,432.1 Z M788.3,432.1 L777.7,432.1 L777.7,315.3 L788.3,315.3 L788.3,432.1 Z M776.2,282.9 C776.1,279.9 776.4,276.9 778,275 C779.2,273.4 781.0,272.6 783.0,272.6 C785.0,272.6 786.9,273.6 788.2,275.3 C789.7,277.3 790.1,280.0 790.0,282.9 C790.0,285.7 789.6,288.5 788.2,290.5 C786.9,292.3 784.9,293.4 783.0,293.3 C781.0,293.2 779.1,291.8 778,290 C776.7,287.9 776.3,285.4 776.2,282.9 Z M877.4,434.2 C862.6,434.0 848.4,426.8 838.1,414.1 L837.3,414.1 L837.6,423.1 C837.8,428.9 838.1,434.7 838.1,440.5 L838.1,485 L827.4,485 L827.4,315.3 L836.5,315.3 L838.5,332.0 L839.1,332.0 C842.6,326.4 847.4,322.1 853,319 C860.3,314.8 868.9,313.1 877.6,313.1 C890.3,313.1 902.5,316.7 911,325 C922.4,336.1 926.2,354.5 926.0,373.8 C925.9,390.6 922.7,407.0 913.0,418.4 C904.3,428.7 891.0,434.4 877.4,434.2 Z M877.2,424.8 C888.0,424.2 898.3,419.6 904.9,411.5 C912.7,401.9 914.7,388.3 914.8,374.2 C914.8,358.0 912.1,342.4 903,333 C896.5,326.3 887.2,323.1 877.6,322.7 C865.9,322.3 854.7,326.0 847.6,334.0 C840.0,342.6 838.1,355.8 838.1,370.5 L838.1,374.0 C838.1,389.8 839.5,403.8 847.2,413.1 C854.2,421.4 865.5,425.4 877.2,424.8 Z M1030.8,401.7 C1030.7,411.1 1026.2,420.0 1018.9,425.8 C1010.0,432.7 997.7,434.5 985.0,434.2 C972.3,434.0 960.0,431.4 947.8,427.0 L947.8,415.6 C960.0,420.5 972.3,423.9 985.0,424.4 C994.7,424.7 1004.3,423.6 1011.3,418.6 C1016.6,414.9 1020.2,409.2 1020.2,403.3 C1020.3,397.9 1017.5,392.6 1013.1,388.5 C1007.1,382.9 998.4,379.7 989.6,376.7 C981.0,373.7 972.2,370.4 965.0,365.8 C960.6,362.9 956.9,359.6 954.3,355.5 C951.8,351.3 950.5,346.3 950.7,341.4 C951.1,333.3 955.2,325.7 961.8,320.7 C969.9,314.5 981.0,312.9 992.5,313.1 C1004.8,313.3 1016.7,315.9 1028.4,320.2 L1024.4,329.8 C1014.0,325.9 1003.4,323.1 992.5,322.7 C984.2,322.5 976.0,323.3 969.9,327.5 C965.2,330.6 961.9,335.4 961.5,340.6 C961.1,345.8 963.7,351.1 968.0,355.2 C974.3,361.1 983.8,364.2 993.4,367.4 C1001.5,370.2 1009.6,373.3 1016.4,377.7 C1020.8,380.5 1024.6,383.8 1027.2,388.1 C1029.6,392.1 1030.8,396.9 1030.8,401.7 Z M1111.7,392.2 C1111.8,383.3 1114.5,374.5 1119.6,367.0 C1126.3,357.0 1136.8,349.7 1149.0,345.0 L1141.0,336.2 C1136.8,331.5 1133.0,326.7 1130.5,321.2 C1128.2,316.4 1127.1,311.2 1127.0,306.0 C1127.0,296.6 1130.6,287.6 1137.3,281.6 C1144.4,275.2 1154.5,272.5 1164.8,272.6 C1174.8,272.6 1184.4,275.1 1191.2,281.3 C1197.8,287.3 1201.3,296.1 1200.9,305.3 C1200.6,312.7 1197.8,319.8 1193.4,326.0 C1187.0,335.1 1177.3,341.9 1166.2,346.9 L1214.8,396.0 C1219.2,390.8 1222.9,385.1 1226.0,379.1 C1229.5,372.3 1232.1,365.1 1234.0,357.5 L1244.3,357.5 C1241.8,367.1 1238.4,376.3 1234,385 C1230.6,391.5 1226.6,397.6 1221.9,403.3 L1250.5,432.1 L1236.0,432.1 L1215.2,410.9 C1210.0,416.5 1204.1,421.3 1197.6,425.1 C1192.3,428.1 1186.6,430.4 1180.7,431.9 C1173.9,433.6 1166.8,434.3 1159.8,434.2 C1146.4,434.1 1133.5,431.1 1124.5,423.2 C1116.0,415.6 1111.5,404.2 1111.7,392.2 Z M1160.5,424.6 C1169.2,424.7 1177.8,423.1 1185.7,419.9 C1194.2,416.5 1201.8,411.1 1208.2,404.2 L1156.4,352.1 C1148.6,355.6 1141.4,359.8 1135.2,365.2 C1131.3,368.7 1127.9,372.5 1125.8,377.0 C1123.6,381.6 1122.7,386.7 1122.8,391.8 C1123.0,401.2 1126.4,410.0 1132.8,415.9 C1139.8,422.2 1150.0,424.5 1160.5,424.6 Z M1138.5,305.8 C1138.5,311.2 1140.2,316.5 1142.8,321.5 C1146.6,328.7 1152.4,334.8 1159.1,340.1 C1168.8,336.2 1177.2,330.7 1182.9,323.1 C1186.9,317.6 1189.5,311.4 1189.5,304.9 C1189.6,298.7 1187.3,292.6 1182.9,288.5 C1178.3,284.2 1171.7,282.4 1164.8,282.2 C1157.6,282.1 1150.5,283.9 1145.6,288.5 C1140.9,292.8 1138.5,299.1 1138.5,305.8 Z M1375.6,432.1 L1364.5,432.1 L1364.5,285.4 L1313.5,285.4 L1313.5,275.0 L1426.6,275.0 L1426.6,285.4 L1375.6,285.4 L1375.6,432.1 Z M1482.3,313.1 C1487.6,312.8 1492.9,313.3 1498.2,314.6 L1496.1,324.8 C1491.2,322.9 1486.1,322.4 1481.0,323.0 C1471.3,324.0 1462.5,328.4 1456.5,335.6 C1449.6,343.9 1446.9,355.2 1446.9,367.6 L1446.9,432.1 L1436.3,432.1 L1436.3,315.3 L1445.3,315.3 L1446.4,336.4 L1447.1,336.4 C1450.4,328.6 1455.7,322.3 1462.5,318.3 C1468.4,314.9 1475.2,313.4 1482.3,313.1 Z M1532.5,432.1 L1521.9,432.1 L1521.9,315.3 L1532.5,315.3 L1532.5,432.1 Z M1520.4,282.9 C1520.4,277.4 1523.4,273.0 1527.2,272.6 C1529.2,272.4 1531.1,273.5 1532.4,275.3 C1533.9,277.3 1534.3,280.1 1534.3,282.9 C1534.3,285.7 1533.8,288.5 1532.4,290.5 C1531.1,292.3 1529.2,293.5 1527.2,293.3 C1523.4,293.0 1520.3,288.4 1520.4,282.9 Z M1618.3,434.2 C1603.1,433.7 1588.6,428.7 1579.1,418.5 C1568.8,407.4 1564.9,391.2 1564.9,374.4 C1564.9,357.2 1569.0,340.5 1579.6,329.2 C1589.5,318.8 1604.3,313.6 1619.9,313.1 C1629.7,312.7 1639.6,314.3 1648.9,318.3 L1646.0,327.8 C1637.6,323.9 1628.6,322.4 1619.7,322.7 C1606.9,323.3 1594.9,327.4 1587.1,336.0 C1578.6,345.5 1575.9,359.6 1576.0,374.2 C1576.2,388.3 1578.8,401.9 1587.1,411.2 C1594.5,419.5 1606.0,423.8 1618.1,424.6 C1628.1,425.3 1638.2,423.5 1647.6,418.9 L1647.6,428.8 C1638.2,433.0 1628.2,434.6 1618.3,434.2 Z M1686.6,380.9 L1746.2,315.3 L1759.1,315.3 L1713.1,365.2 L1763.1,432.1 L1750.3,432.1 L1705.9,373.1 L1686.8,390.5 L1686.8,432.1 L1676.2,432.1 L1676.2,265 L1686.8,265 L1686.8,348.7 L1686.0,380.9 L1686.6,380.9 Z M1855.0,401.7 C1855.0,411.1 1850.5,420.0 1843.1,425.8 C1834.3,432.7 1822.0,434.5 1809.3,434.2 C1796.6,434.0 1784.2,431.4 1772.1,427.0 L1772.1,415.6 C1784.2,420.5 1796.6,423.9 1809.3,424.4 C1819.0,424.7 1828.5,423.6 1835.5,418.6 C1840.8,414.9 1844.4,409.2 1844.5,403.3 C1844.6,397.9 1841.8,392.6 1837.4,388.5 C1831.3,382.9 1822.7,379.7 1813.9,376.7 C1805.3,373.7 1796.4,370.4 1789.3,365.8 C1784.9,362.9 1781.2,359.6 1778.6,355.5 C1776.0,351.3 1774.8,346.3 1775.0,341.4 C1775.3,333.3 1779.5,325.7 1786.0,320.7 C1794.1,314.5 1805.3,312.9 1816.8,313.1 C1829.0,313.3 1841.0,315.9 1852.7,320.2 L1848.7,329.8 C1838.2,325.9 1827.7,323.1 1816.8,322.7 C1808.5,322.5 1800.3,323.3 1794.1,327.5 C1789.4,330.6 1786.1,335.4 1785.7,340.6 C1785.4,345.8 1787.9,351.1 1792.2,355.2 C1798.5,361.1 1808.1,364.2 1817.6,367.4 C1825.7,370.2 1833.8,373.3 1840.6,377.7 C1845.0,380.5 1848.9,383.8 1851.4,388.1 C1853.9,392.1 1855.0,396.9 1855.0,401.7 Z" fill="rgb(233,108,76)"/></g></svg>