<svg xmlns="http://www.w3.org/2000/svg" viewBox="0 0 2048 512"><defs><linearGradient id="a" x1="164.4" x2="163.3" y1="134.7" y2="228.9" gradientUnits="userSpaceOnUse"><stop offset="0%" stop-color="#141E24"/><stop offset="100%" stop-color="#E96C4C"/></linearGradient><linearGradient id="b" x1="312.7" x2="313.8" y1="140.5" y2="229.2" gradientUnits="userSpaceOnUse"><stop offset="0%" stop-color="#141E24"/><stop offset="100%" stop-color="#E96C4C"/></linearGradient><linearGradient id="c" x1="470.9" x2="305.3" y1="344.5" y2="447.9" gradientUnits="userSpaceOnUse"><stop offset="0%" stop-color="#CD977D"/><stop offset="100%" stop-color="#B7698A"/></linearGradient><linearGradient id="d" x1="479.3" x2="233.6" y1="444.7" y2="446.8" gradientUnits="userSpaceOnUse"><stop offset="0%" stop-color="#B7698A"/><stop offset="100%" stop-color="#316E7D"/></linearGradient><linearGradient id="e" x1="474.1" x2="251.8" y1="382.5" y2="385.6" gradientUnits="userSpaceOnUse"><stop offset="0%" stop-color="#DFC4B7"/><stop offset="100%" stop-color="#B7698A"/></linearGradient><linearGradient id="f" x1="442.4" x2="391.8" y1="299" y2="501.6" gradientUnits="userSpaceOnUse"><stop offset="0%" stop-color="#B7698A"/><stop offset="100%" stop-color="#316E7D"/></linearGradient></defs><path fill="#141E24" d="M-34-22h2100v581H-34V-22Z" class="Curve"/><path fill="#141E24" d="M210.8 277.3c56.5 2.6 109.4 20.3 136.3 58.4 18.7 26.5 23.4 59.7 10.8 87.5-17.4 38.4-65.1 59.7-123 59.7H67.3c-28.4 0-51-20.4-59.5-49.4a91.1 91.1 0 0 1 1.4-54c5.7-17.1 15.1-32.2 29.2-45.8 38-36.6 104.9-59.5 172.3-56.4Z" class="Curve"/><path fill="#316E7D" d="M51.8 326A152.2 152.2 0 0 0 30 360.3 123 123 0 0 0 17.6 413a117 117 0 0 0 17.1 58.2 51.1 51.1 0 0 1-12.4-10.6 71 71 0 0 1-18-40.3c-.7-8-.1-16.1 1.2-24.1a109 109 0 0 1 16-43A83.3 83.3 0 0 1 51.8 326Z" class="Curve"/><path fill="#8BBCC7" d="M176.1 465.3c3.3 2.7 3.5 9.1 7 11.8 3.1 2.5 8 2 11.9-1.2 2.5-2 4.2-5.2 4.7-8.7.4-2 .3-4-.2-6 1.8 1.8 3.1 3.9 4.2 6.1 1.4 3.3 2 6.9 4.2 8.6 1.8 1.4 4.4 1.7 7 1.2 2.7-.5 5.2-1.7 6.9-3.9 2.6-3.4 3-8.6 1.4-14 3 3.1 6 6.4 8.3 9.8 1.5 2.2 2.7 4.5 4.6 5.8 3.7 2.4 9 1.5 11.8-2.4 2.4-3.2 2.5-8 1.2-13a45.3 45.3 0 0 0-21.7-26.6 84.3 84.3 0 0 0-44.3-8.7c-8.1.2-16.1 1-23.6 3.5a55.5 55.5 0 0 0-26.9 19.1c-5.6 7.4-9.2 15.7-7 22.3 2.6 7.5 10.8 11.5 19.6 8.4 12.3-11.5 25.2-16.8 30.9-12Z" class="Curve"/><path fill="#316E7D" d="M161.9 441.2c5 2 8.4 7 11.1 12.5 2 3.8 3.4 7.9 4.3 12.1a50.2 50.2 0 0 0-10.6 5.9c-2.8 2-5.3 4.3-8.3 5.9-4.5 2.4-9.9 3-15.4 3-6 0-11.7-.8-15.2-4.1-3.2-3-4.4-7.7-3.6-12.4 1-5.5 5-10.4 9.8-14.6 9.1-7.7 19.8-11.7 27.9-8.3Z" class="Curve"/><path fill="#141E24" d="m55.1 321.2 19-140.5C78 153 81.6 126 91.6 101.5a120 120 0 0 1 42.4-55c22-14.9 49.9-20 78.4-20.5 29.1-.5 57.9 4 79.5 18.8 15 10.3 26.1 25.4 34.1 42.3a167 167 0 0 1 13.7 86.4L326 325.2a705.6 705.6 0 0 1-115.6 9.3 944 944 0 0 1-155.3-13.3Z" class="Curve"/><path fill="#316E7D" d="M144.5 40.6a168.4 168.4 0 0 0-22.7 41.2c-10.6 26.8-16 58-24.8 88.4L56.6 310l18.7-142.5c4.9-36.9 14.4-72 32.8-96.8a92.5 92.5 0 0 1 36.4-30.1ZM240.4 28.3a91 91 0 0 0-64.5 21.8c-16.4 14.7-25.7 36.5-32.8 59.5a338.7 338.7 0 0 0-13.8 81.5l59 10.6a61 61 0 0 1 49-26.6c21-.2 39.6 10.5 53.4 28.8l48.6-17.6c2.8-24.9 2-49.5-3.9-73.2a122 122 0 0 0-27.6-55.3 97.2 97.2 0 0 0-67.4-29.5ZM252.6 299.4l-.6 9.7c-.2 4-3.7 6.6-8.1 7-4.7.2-8.4-2-8.2-5.7l.5-9.6c.3-4.9 3.8-8.1 8.2-8.4 4.6-.3 8.4 2.6 8.2 7ZM224.4 299.6l-.5 9.7c-.2 4-3.8 6.7-8.2 7-4.6.2-8.3-2-8.1-5.6l.5-9.7c.2-4.8 3.7-8 8.1-8.3 4.7-.3 8.4 2.6 8.2 7ZM196.2 298.7l-.5 7.3c-.3 4.5-4 7.4-8.6 7.5-4.4 0-8-2.4-7.7-6.1l.5-7.4c.3-4.8 3.8-8 8.2-8.3 4.6-.3 8.4 2.6 8.1 7ZM279.2 298.6l-.5 7.3c-.3 4.5-4 7.4-8.7 7.5-4.4 0-7.9-2.4-7.6-6.1l.5-7.3c.3-4.9 3.8-8.1 8.1-8.4 4.7-.3 8.5 2.6 8.2 7Z" class="Curve"/><path fill="#E96C4C" d="M212.8 159.7c7-2.8 14.5-4.3 22-4.3 8-.1 16.1 1.4 23.8 4.3a68 68 0 0 1 66.4-24.8c34.2 6.1 59.1 32.8 60.9 65a68.7 68.7 0 0 1-59 71 68.5 68.5 0 0 1-63.8-23 59.2 59.2 0 0 1-12.3-53.4 26 26 0 0 0-9.5-2.1c-4.4-.2-9 .6-13.3 2.1a67 67 0 0 1-21.7 61A72.5 72.5 0 0 1 86.6 214a72.7 72.7 0 0 1 21.7-63.1 71.7 71.7 0 0 1 63.2-19.6 61.2 61.2 0 0 1 41.3 28.3Z" class="Curve" opacity=".2"/><path fill="#E96C4C" d="M210.6 166.2a62.6 62.6 0 0 1 26.3-6.5c10-.2 19.8 1.8 29.1 5.9a60 60 0 0 1 62-24.8 64.4 64.4 0 0 1 51.8 57.8 62.7 62.7 0 0 1-55.3 67.4 63.1 63.1 0 0 1-55.4-20.4 59 59 0 0 1-12.4-55.8 35 35 0 0 0-15.4-4 44.4 44.4 0 0 0-19.8 4.4 63.8 63.8 0 0 1-19.6 61 65.5 65.5 0 0 1-89.2-95.8c15-14.5 36-21 56.6-17.5a59.9 59.9 0 0 1 41.3 28.3Z" class="Curve" opacity=".2"/><path fill="#FFF" d="M321.6 146.4a57 57 0 1 1-9.4 113.4 57 57 0 0 1 9.4-113.4ZM157.7 143.2a58.8 58.8 0 1 1 0 117.5 58.8 58.8 0 0 1 0-117.5Z" class="Curve"/><path fill="#FFF" d="M239.1 170.4c12.4-.1 24.5 3.4 35.4 10.3l-4.9 14.6c-8.7-6-18.6-9.2-28.8-9.5-11-.4-21.8 2.5-31.6 8.3l-7-12.1a68.2 68.2 0 0 1 37-11.6Z" class="Curve"/><path fill="url(#a)" d="M158 158.6a45 45 0 0 1 45.6 39.4c2.7 27.8-20.8 50.4-49.8 47.8a44.6 44.6 0 0 1-41.5-47.8 45 45 0 0 1 45.7-39.4Z" class="Curve"/><path fill="url(#b)" d="M321.9 162.3c22.7 2 40.2 21 39 43.4-1 20.5-17.9 37.1-39 39.1a42.6 42.6 0 0 1-47.8-39 42.3 42.3 0 0 1 47.8-43.5Z" class="Curve"/><path fill="#141E24" d="M179 181c9-.4 17.6 3.5 24.2 10.8l-14.5-3.3c0 11.6-5.9 20-13.5 19.7-6.8-.4-11.7-7.9-11-17.7l-11 4.8c6.6-8.8 15.7-14 25.7-14.4ZM294.6 179.6c9-.1 17.2 4 23.1 11.5l-13.3-4.5c.6 10.8-4.5 19-11.8 19-6.6.1-11.7-7-11.5-16.5l-12.4 4.9a33 33 0 0 1 26-14.4Z" class="Curve" opacity=".1"/><path fill="#141E24" d="m123 230 14.7-38.6c1.5-4 4.3-6.6 8-6.6h53.1a44.2 44.2 0 0 0-30.6-24 45.8 45.8 0 0 0-46.5 16c-6.3 8.1-9.5 18.4-8.8 28.8.5 8.9 3.9 17.4 10.1 24.4ZM284.8 230.5l14.2-35c1.7-4.2 4.6-6.9 8.3-6.9l49.8.2a40.2 40.2 0 0 0-29.2-25 43.6 43.6 0 0 0-48.6 20.8c-8 14.4-6.5 32 5.5 45.9Z" class="Curve" opacity=".5"/><path fill="url(#c)" d="M309.5 473.2c-7.4-16.5-7.1-42-7.3-67.5-.3-24.3-1.2-48.3 6.6-65.3 4.4-9.6 10.8-16.2 19.4-16.2h249.2c9 0 16.2 6.3 21.1 16 10 20.3 7.7 52.7 6.3 85.5-.7 18.2-1.4 36.6-6.3 49.6-2.2 5.7-5 10.3-9.5 13.7-7.8 5.8-20 7.3-32.7 8.4-34.7 3.2-72.2 3.7-108.6 3.2-25.7-.4-51.4-1.1-77-2.1-17.4-.7-34.6-1.7-46.4-8.5a35.5 35.5 0 0 1-14.8-16.8Z" class="Curve"/><path fill="url(#d)" d="M304.3 434.1a3667.5 3667.5 0 0 0 299.5 0l-1 15.9c-47.1 2.7-94.3 4-141.4 4.2-52 0-104-1.4-156-4.2l-1.1-15.9Z" class="Curve"/><path fill="url(#e)" d="M303.2 376.1a3596.2 3596.2 0 0 0 301.6 0V392c-48.4 2.7-97 4.1-145.5 4.2-52 0-104-1.4-156-4.2V376Z" class="Curve"/><path fill="url(#f)" d="M328.2 315h252c15.7 0 26.3 10.3 27.6 23 2 19-13.5 32.9-27.7 27.8-8.8-3.2-14.4-15.8-24.9-22-9-5.3-20.8-5.5-30.5-1.1-16.3 7.4-25 28-37 30.3-15.6 3-34-25.6-57-25.7-13 0-26.8 9-41.6 16.2-15.1 7.4-30.6 12.4-41.5 6.9-9.2-4.6-14.8-16.7-23.6-19.6-5.2-1.8-11.3-.2-16-2-9.7-4-12.3-17.3-4.1-26.4 4.7-5.4 13.4-7.4 24.3-7.4Z" class="Curve"/><path fill="#B7698A" d="M377 281.2h27.5V315H377v-33.8Z" class="Curve"/><path fill="#CD977D" d="M440.3 281.2h27.4V315h-27.4v-33.8Z" class="Curve"/><path fill="#B7698A" d="M503.6 281.2H531V315h-27.4v-33.8Z" class="Curve"/><path fill="#E96C4C" d="M454 219c-4.3 7.9-8.2 16-11.6 24.3-3.8 9.5-7.1 18.9-4.2 26.3 2.7 6.8 9.6 11.1 16.9 10.6 8-.6 14.2-6.5 14.7-13.7.6-7.8-7-15.6-11.6-25.4A45.6 45.6 0 0 1 454 219Z" class="Curve"/><path fill="#E7B643" d="M455.5 276.8c-3.8-.1-7.4-3.8-9-9-2.7-8.6.9-19.5 8.1-29.8-.4 4.7.6 9.5 2.7 13.5 2 4 5.2 7.1 6.3 10.8 2.4 7.8-2 14.7-8 14.5Z" class="Curve"/><path fill="#E96C4C" d="M515.8 229c3.6 6.6 6.9 13.3 9.7 20.3 3.2 8 6 15.8 3.5 22a14 14 0 0 1-14 8.9c-6.8-.5-12-5.4-12.4-11.5-.5-6.4 5.9-13 9.7-21.1a38 38 0 0 0 3.5-18.6ZM390.7 231.7c3.5 6.2 6.6 12.7 9.3 19.3 3 7.7 5.7 15.1 3.4 21a13.5 13.5 0 0 1-13.5 8.5c-6.4-.5-11.4-5.2-11.8-11-.4-6.1 5.7-12.4 9.3-20.2a36.4 36.4 0 0 0 3.3-17.6Z" class="Curve"/><path fill="#E7B643" d="M515 277.5c3.7 0 7.1-3.7 8.7-8.8 2.7-8.4-.8-19-8-29 .5 4.6-.5 9.2-2.6 13.1-2 3.9-5 7-6.1 10.6-2.4 7.6 2 14.3 8 14.1ZM391 277.7c3-.1 5.6-2.9 6.8-6.8 2-6.4-.7-14.6-6.1-22.4.3 3.6-.5 7.2-2 10.2-1.6 3-4 5.4-4.8 8.1-1.8 6 1.5 11 6.1 10.9Z" class="Curve"/><path fill="#E7B643" d="M311.7 193c2.6 4.8 5 9.7 7 14.8 2.4 5.8 4.4 11.5 2.6 16a10.3 10.3 0 0 1-10.3 6.5c-4.9-.4-8.7-4-9-8.4-.3-4.7 4.3-9.4 7-15.4 2-4.2 3-8.8 2.7-13.5ZM171.1 196a136 136 0 0 1 7.5 15.5c2.4 6.2 4.6 12.2 2.7 17a10.8 10.8 0 0 1-10.8 6.7c-5.1-.4-9.2-4.2-9.5-8.8-.3-5 4.6-10 7.4-16.2 2-4.4 3-9.3 2.7-14.2Z" class="Curve" opacity=".5"/><path fill="#DFC4B7" d="m531 319.2 52.7 1c9 .2 15.8 6.3 18 14.8 1.7 6.7 0 13.7-5.3 19a26.4 26.4 0 0 0-9.5-18 57.4 57.4 0 0 0-23.2-9.4 668.3 668.3 0 0 0-32.7-7.4ZM363 320.2h-41.1c-8.2 0-14.7 4.7-17 11.6-1.3 4.3-.7 8.9 2.2 12.7 2.2-5 6-8.8 10.5-11.6a73 73 0 0 1 23.2-7.4c7.5-1.5 14.8-3.6 22.2-5.3Z" class="Curve"/><path fill="#E96C4C" d="M399 41.7v163.4h68c24.4 0 46.2-9 61-25.5a86.6 86.6 0 0 0 20.4-57.5A81.8 81.8 0 0 0 528 64.7c-15-15.6-37.3-23-62.3-23H399ZM445 80h20.4c22 0 36.4 18.8 37 42.1.7 24.7-14.1 44.7-37 44.7H445V80Zm157-38.3-53.6 163.4h49.8l7.7-25.5h61.3l7.6 25.5h48.5L668.4 41.7H602Zm32 35.8h3.8l19.1 69h-40.8l17.9-69Zm103.4-35.8v163.4h46v-48.5h19.1l24.3 48.5H877l-32.5-58.7c6.4-5.4 11.5-12 15.4-19.1a67 67 0 0 0 8.1-41 50 50 0 0 0-12-26.7 61 61 0 0 0-46-17.9h-72.7Zm46 34.5H805c6.7 0 12.6 2.8 16.6 7.6a23.5 23.5 0 0 1 5 16.6c-.5 8-4.7 15.2-11.4 19.2a32 32 0 0 1-16.6 3.8h-15.4V76.2Zm112.3-34.5v163.4h42.8v-65H955l38.3 65h51l-53.6-85.5 48.5-77.9h-47.2l-39.6 62.6h-14V41.7h-42.8Zm381.8 0v163.4h107.3v-38.3h-63.9v-24.2h57.5v-38.3h-57.5V80h60V41.7h-103.4Zm616.8 0v163.4h46v-48.5h19l24.4 48.5h50.3l-32.5-58.7c6.4-5.4 11.5-12 15.4-19.1a67 67 0 0 0 8.1-41 50 50 0 0 0-12-26.7 61 61 0 0 0-46-17.9h-72.7Zm46 34.5h21.6c6.7 0 12.7 2.8 16.6 7.6a23.5 23.5 0 0 1 5.2 16.6c-.6 8-4.8 15.2-11.5 19.2a32 32 0 0 1-16.6 3.8h-15.4V76.2Zm-819.8-34.5v163.4h46v-48.5h19l24.3 48.5h50.4l-32.5-58.7c6.4-5.4 11.5-12 15.3-19.1a67 67 0 0 0 8.2-41 50 50 0 0 0-12-26.7 61 61 0 0 0-46-17.9h-72.7Zm46 34.5h21.6c6.7 0 12.7 2.8 16.6 7.6a23.5 23.5 0 0 1 5.1 16.6c-.5 8-4.7 15.2-11.4 19.2a32 32 0 0 1-16.6 3.8h-15.4V76.2Zm282.1-34.5L1395 205.1h49.8l7.7-25.5h61.2l7.7 25.5h48.5L1515 41.7h-66.4Zm32 35.8h3.8l19.1 69h-40.8l17.8-69Zm106-35.8v163.4h67.9c24.4 0 46.2-9 61-25.5a86.6 86.6 0 0 0 20.4-57.5 81.8 81.8 0 0 0-20.4-57.4c-15-15.6-37.3-23-62.3-23h-66.7Zm45.9 38.3h20.4c22 0 36.5 18.8 37 42.1.7 24.7-14 44.7-37 44.7h-20.4V80Zm127.7-38.3v163.4h107.3v-38.3h-63.9v-24.2h57.5v-38.3h-57.5V80h60V41.7h-103.4Z" class="Curve"/><g fill="#E96C4C"><path d="M699.2 307.1q0 14.4-7.2 22.6-7.3 8.3-20.3 8.3-13.2 0-20.4-8.1-7.2-8.1-7.2-22.9 0-14.6 7.2-22.7 7.2-8 20.5-8 13 0 20.2 8.2 7.2 8.2 7.2 22.6m-47.7 0q0 12.2 5.2 18.5 5.2 6.3 15 6.3 10 0 15-6.3 5.2-6.3 5.2-18.5 0-12-5-18.3-5.2-6.3-15-6.3-10 0-15.2 6.3-5.2 6.3-5.2 18.3Zm90.8 30v-29q0-5.5-2.5-8.2-2.5-2.7-7.8-2.7-7 0-10.3 3.8-3.3 3.8-3.3 12.6V337h-6.8v-44.9h5.5l1.1 6.2h.4q2-3.4 5.8-5.2 3.8-1.8 8.4-1.8 8.1 0 12.2 4 4.1 3.8 4.1 12.4v29.3h-6.8Zm34.9 15.8q-3.9 0-6-1v-6q2.8.8 6 .8 4 0 6.2-2.5 2-2.4 2-7v-60h7v59.4q0 7.8-3.9 12-4 4.3-11.3 4.3Zm36.5-60.7v29.2q0 5.5 2.5 8.2 2.5 2.7 7.8 2.7 7.1 0 10.4-3.9 3.2-3.8 3.2-12.6v-23.6h6.8v45h-5.6l-1-6h-.4q-2 3.2-5.8 5-3.7 1.8-8.4 1.8-8.2 0-12.3-4-4-3.8-4-12.4v-29.4h6.8Zm52 45h-6.9v-63.8h6.8V337Zm7.2-45h7.3l9.9 25.6q3.2 8.8 4 12.7h.3q.5-2 2.3-7.2l11-31h7.4l-19.3 51q-2.9 7.7-6.7 10.8-3.9 3.2-9.4 3.2-3.2 0-6.2-.7v-5.4q2.3.4 5 .4 7 0 10-7.8l2.6-6.4-18.2-45.2Zm75.7 45 24.9-53.7h-32.7v-6.3h39.9v5.5L956.2 337h-7.6Zm102 0-8.2-26.4q-.8-2.4-2.9-11h-.3q-1.7 7.2-2.9 11l-8.5 26.3h-7.8l-12.3-44.9h7.1l6.6 25.8q2.3 8.9 2.7 12h.3q.4-2.4 1.4-6.1 1-3.7 1.8-5.9l8.2-25.8h7.4l8 25.8q2.3 7 3.1 11.8h.4q.1-1.4.8-4.5l8.6-33h7l-12.4 44.8h-8Zm47.6.8q-10 0-15.7-6.1-5.7-6-5.7-16.9 0-10.8 5.3-17.2 5.4-6.4 14.4-6.4 8.4 0 13.3 5.6 5 5.5 5 14.6v4.3h-31q.2 8 4 12 3.8 4.1 10.7 4.1 7.2 0 14.3-3v6q-3.6 1.6-6.8 2.3-3.2.7-7.8.7m-1.8-40.9q-5.4 0-8.6 3.5-3.3 3.5-3.8 9.8h23.5q0-6.5-3-9.9-2.8-3.4-8.1-3.4ZM1166 338q-9.8 0-15.1-6-5.3-6-5.3-17 0-11.3 5.4-17.5 5.4-6.1 15.5-6.1 3.2 0 6.4.7 3.3.7 5.1 1.6l-2 5.8q-2.3-.9-5-1.5t-4.7-.6q-13.7 0-13.7 17.5 0 8.3 3.3 12.7 3.4 4.4 10 4.4 5.6 0 11.5-2.4v6q-4.6 2.4-11.4 2.4Zm41 0q-10 0-15.7-6.1-5.8-6-5.8-16.9 0-10.8 5.4-17.2 5.3-6.4 14.3-6.4 8.5 0 13.4 5.6 5 5.5 5 14.6v4.3h-31q.2 8 4 12 3.7 4.1 10.6 4.1 7.3 0 14.4-3v6q-3.6 1.6-6.8 2.3-3.3.7-7.8.7m-1.9-40.9q-5.4 0-8.6 3.5-3.2 3.5-3.8 9.8h23.5q0-6.5-2.9-9.9-2.8-3.4-8.2-3.4Zm36.8 40h-6.8v-63.7h6.8V337Zm33.4.9q-10 0-15.7-6.1-5.8-6-5.8-16.9 0-10.8 5.4-17.2 5.3-6.4 14.3-6.4 8.5 0 13.4 5.6 5 5.5 5 14.6v4.3h-31q.2 8 4 12 3.8 4.1 10.7 4.1 7.2 0 14.3-3v6q-3.6 1.6-6.8 2.3-3.2.7-7.8.7m-1.8-40.9q-5.4 0-8.7 3.5-3.2 3.5-3.8 9.8h23.5q0-6.5-2.8-9.9-3-3.4-8.2-3.4Zm50.8-5.6q8.9 0 13.8 6t4.9 17.1q0 11.1-5 17.2-4.9 6.2-13.7 6.2-4.4 0-8-1.7-3.6-1.6-6-5h-.6l-1.4 5.8h-4.9v-63.7h6.8v15.5q0 5.2-.3 9.3h.3q4.8-6.7 14.1-6.7m-1 5.7q-7 0-10 4t-3 13.4q0 9.5 3 13.6 3.2 4 10.2 4 6.3 0 9.4-4.5 3-4.6 3-13.1 0-8.8-3-13.1-3.1-4.3-9.6-4.3Zm52-5.8q3 0 5.4.5l-1 6.3q-2.7-.6-4.8-.6-5.5 0-9.4 4.4-3.8 4.4-3.8 11v24.1h-6.8v-44.9h5.6l.8 8.3h.3q2.5-4.3 6-6.7 3.5-2.4 7.8-2.4Zm39.8 45.7-1.4-6.4h-.3q-3.4 4.3-6.7 5.8-3.4 1.5-8.4 1.5-6.6 0-10.4-3.5-3.8-3.4-3.8-9.8 0-13.6 21.7-14.2l7.7-.3v-2.8q0-5.3-2.3-7.8t-7.3-2.5q-5.6 0-12.7 3.4l-2-5.2q3.2-1.8 7.2-2.8 4-1 8-1 8 0 11.8 3.5 4 3.6 4 11.5V337h-5.1m-15.4-4.8q6.4 0 10-3.4 3.6-3.5 3.6-9.8v-4l-6.8.2q-8.1.3-11.7 2.6-3.6 2.2-3.6 6.9 0 3.7 2.2 5.6 2.3 2 6.3 2Zm49 0 3.4-.2 2.7-.6v5.2q-1.1.6-3.3 1-2.1.3-3.8.3-13 0-13-13.8v-26.7h-6.5v-3.3l6.4-2.8 2.9-9.6h4v10.4h13v5.3h-13V324q0 4.1 1.8 6.3 2 2.1 5.3 2.1Zm34 5.7q-10 0-15.7-6.1-5.7-6-5.7-16.9 0-10.8 5.3-17.2 5.4-6.4 14.4-6.4 8.4 0 13.3 5.6 5 5.5 5 14.6v4.3h-31q.2 8 4 12 3.8 4.1 10.7 4.1 7.2 0 14.3-3v6q-3.6 1.6-6.8 2.3-3.2.7-7.8.7M1481 297q-5.4 0-8.6 3.5-3.3 3.5-3.8 9.8h23.5q0-6.5-3-9.9-2.8-3.4-8.1-3.4Zm73.8 40h-6.6v-42.7q0-5.3.3-10l-1.9 1.8-9.7 8-3.7-4.7 16-12.3h5.6v60Zm62.5-30q0 15.5-4.9 23.2-4.9 7.7-15 7.7-9.6 0-14.6-7.9-5-7.8-5-23 0-15.7 4.8-23.2 4.9-7.6 14.9-7.6 9.7 0 14.8 7.9 5 7.9 5 22.9m-32.7 0q0 13 3 19 3.1 6 9.9 6 6.8 0 9.8-6 3-6 3-19t-3-19q-3-6-9.8-6-6.8 0-9.8 6-3.1 6-3.1 19Zm58.8-14.9h7.3l9.8 25.6q3.3 8.8 4 12.7h.4q.5-2 2.2-7.2l11.1-31h7.3l-19.3 51q-2.8 7.7-6.7 10.8-3.8 3.2-9.4 3.2-3 0-6.1-.7v-5.4q2.2.4 5 .4 7 0 10-7.8l2.5-6.4-18-45.2Zm68.4 45.8q-10 0-15.7-6.1-5.8-6-5.8-16.9 0-10.8 5.4-17.2 5.3-6.4 14.4-6.4 8.4 0 13.3 5.6 5 5.5 5 14.6v4.3h-31q.2 8 4 12 3.8 4.1 10.7 4.1 7.2 0 14.3-3v6q-3.6 1.6-6.8 2.3-3.2.7-7.8.7M1710 297q-5.4 0-8.7 3.5-3.2 3.5-3.7 9.8h23.4q0-6.5-2.8-9.9-2.9-3.4-8.2-3.4Zm57.6 40-1.4-6.4h-.3q-3.4 4.3-6.7 5.8-3.4 1.5-8.4 1.5-6.6 0-10.4-3.5-3.8-3.4-3.8-9.8 0-13.6 21.7-14.2l7.7-.3v-2.8q0-5.3-2.3-7.8t-7.3-2.5q-5.6 0-12.7 3.4l-2-5.2q3.2-1.8 7.2-2.8 4-1 8-1 8 0 11.8 3.5 3.9 3.6 3.9 11.5V337h-5m-15.4-4.8q6.3 0 10-3.4 3.6-3.5 3.6-9.8v-4l-6.8.2q-8.1.3-11.7 2.6-3.6 2.2-3.6 6.9 0 3.7 2.2 5.6 2.3 2 6.3 2Zm54.9-40.9q3 0 5.4.5l-1 6.3q-2.8-.6-4.9-.6-5.4 0-9.3 4.4-3.9 4.4-3.9 11v24.1h-6.8v-44.9h5.6l.8 8.3h.3q2.5-4.3 6-6.7 3.6-2.4 7.8-2.4Zm42.8 33.5q0 6.3-4.7 9.7-4.7 3.4-13.1 3.4-9 0-14-2.9v-6.3q3.3 1.7 7 2.6 3.7 1 7.1 1 5.4 0 8.2-1.8 2.9-1.7 2.9-5.1 0-2.7-2.3-4.5-2.3-1.9-8.9-4.4-6.2-2.4-8.9-4.1-2.6-1.8-3.9-4-1.3-2.2-1.3-5.3 0-5.4 4.5-8.6 4.4-3.2 12.2-3.2 7.3 0 14.2 3l-2.4 5.5q-6.8-2.8-12.3-2.8-4.8 0-7.3 1.5-2.4 1.5-2.4 4.2 0 1.8.9 3 1 1.3 3 2.5 2 1.1 7.8 3.3 8 3 10.8 5.9 2.9 3 2.9 7.4ZM682 436.6q0 8-5.6 12.4-5.8 4.4-15.6 4.4-10.7 0-16.4-2.8V444q3.7 1.6 8 2.5 4.4.9 8.6.9 7 0 10.5-2.7 3.5-2.6 3.5-7.3 0-3.1-1.2-5.1-1.3-2-4.2-3.7-3-1.7-8.9-3.8-8.4-3-12-7.1-3.5-4.1-3.5-10.7 0-7 5.2-11 5.2-4.1 13.7-4.1 9 0 16.5 3.3l-2.2 6q-7.4-3-14.4-3-5.6 0-8.7 2.3-3 2.4-3 6.6 0 3.1 1 5 1.2 2 4 3.7 2.7 1.7 8.3 3.7 9.4 3.4 13 7.2 3.5 3.9 3.5 10Zm25.8 11.2q1.8 0 3.5-.3l2.7-.6v5.3q-1.1.5-3.3.8-2.1.4-3.9.4-13 0-13-13.7v-26.8h-6.4v-3.2l6.4-2.9 2.9-9.6h4v10.4h13v5.3h-13v26.5q0 4 1.8 6.2 2 2.2 5.3 2.2Zm42.8 4.8-1.4-6.4h-.3q-3.4 4.2-6.7 5.7-3.3 1.5-8.3 1.5-6.7 0-10.5-3.5-3.8-3.4-3.8-9.8 0-13.6 21.8-14.2l7.6-.3v-2.8q0-5.2-2.3-7.8-2.3-2.5-7.3-2.5-5.6 0-12.7 3.5l-2-5.2q3.3-1.8 7.2-2.9 4-1 8-1 8 0 11.8 3.6 4 3.5 4 11.4v30.7h-5.1m-15.4-4.8q6.4 0 10-3.5 3.6-3.5 3.6-9.8v-4l-6.8.3q-8.1.2-11.7 2.5-3.6 2.2-3.6 7 0 3.6 2.3 5.5 2.2 2 6.2 2Zm27.3-40.2h7.3l9.8 25.7q3.3 8.7 4 12.6h.4q.5-2 2.2-7.1l11.1-31.2h7.3l-19.3 51.2q-2.8 7.6-6.7 10.8-3.8 3.1-9.4 3.1-3 0-6.1-.7v-5.4q2.2.5 5 .5 7 0 10-7.9l2.5-6.4-18.1-45.2Zm85.7 40.2q1.8 0 3.5-.3l2.7-.6v5.3q-1.1.5-3.3.8-2.1.4-3.8.4-13 0-13-13.7v-26.8h-6.5v-3.2l6.4-2.9 2.9-9.6h4v10.4h13v5.3h-13v26.5q0 4 1.9 6.2t5.2 2.2Zm21.6-40.2v29.2q0 5.5 2.5 8.2 2.5 2.7 7.8 2.7 7 0 10.3-3.9 3.3-3.8 3.3-12.5v-23.7h6.8v45h-5.7l-1-6h-.3q-2.1 3.3-5.8 5-3.7 1.8-8.5 1.8-8.2 0-12.2-4-4.1-3.8-4.1-12.4v-29.4h6.9Zm75.8 45v-29q0-5.6-2.5-8.3-2.5-2.7-7.8-2.7-7 0-10.3 3.8-3.3 3.8-3.3 12.6v23.6h-6.8v-45h5.5l1.1 6.2h.4q2-3.3 5.8-5.2 3.8-1.8 8.4-1.8 8.1 0 12.2 4 4.1 3.9 4.1 12.5v29.3h-6.8Zm39.8.8q-10 0-15.7-6-5.8-6.1-5.8-17 0-10.8 5.3-17.2 5.4-6.4 14.4-6.4 8.5 0 13.4 5.6 4.9 5.5 4.9 14.6v4.3h-31q.3 8 4 12 3.8 4.1 10.7 4.1 7.3 0 14.4-3v6q-3.6 1.6-6.9 2.3-3.2.7-7.7.7m-1.9-40.9q-5.4 0-8.6 3.5-3.2 3.6-3.8 9.8h23.5q0-6.4-2.9-9.9-2.8-3.4-8.2-3.4Zm60.6 34h-.4q-4.7 6.9-14.1 6.9-8.8 0-13.7-6-5-6-5-17.2 0-11 5-17.2 5-6.2 13.7-6.2 9.1 0 14 6.7h.5l-.2-3.3-.2-3.1v-18.3h6.8v63.8h-5.5l-1-6m-13.5 1q7 0 10-3.7 3.2-3.8 3.2-12.2v-1.5q0-9.5-3.2-13.6-3.2-4-10.1-4-6 0-9.2 4.6-3.2 4.6-3.2 13.1 0 8.6 3.2 13t9.3 4.4ZM1107 413h-11.5v39.7h-6.8v-39.7h-8v-3l8-2.5v-2.5q0-16.6 14.5-16.6 3.6 0 8.4 1.5l-1.8 5.4q-4-1.2-6.7-1.2-3.9 0-5.7 2.5-1.9 2.6-1.9 8.2v3h11.5v5.2Zm47 17.2q0 11-5.6 17.1-5.5 6.2-15.3 6.2-6 0-10.7-2.8-4.6-2.9-7.2-8.2-2.5-5.2-2.5-12.3 0-11 5.5-17.1 5.5-6.2 15.2-6.2 9.4 0 15 6.3 5.5 6.3 5.5 17m-34.2 0q0 8.6 3.5 13 3.4 4.6 10 4.6 6.8 0 10.2-4.5 3.5-4.5 3.5-13.1t-3.5-13q-3.4-4.5-10.2-4.5-6.7 0-10 4.4-3.5 4.4-3.5 13Zm66.7-23.3q3 0 5.3.5l-1 6.3q-2.7-.6-4.8-.6-5.5 0-9.4 4.4-3.8 4.5-3.8 11v24.2h-6.8v-45h5.6l.8 8.4h.3q2.5-4.4 6-6.8 3.5-2.4 7.8-2.4Zm63.2 45.8-1.4-6.4h-.3q-3.4 4.2-6.7 5.7-3.4 1.5-8.4 1.5-6.6 0-10.4-3.5-3.8-3.4-3.8-9.8 0-13.6 21.7-14.2l7.7-.3v-2.8q0-5.2-2.3-7.8-2.3-2.5-7.3-2.5-5.6 0-12.7 3.5l-2-5.2q3.2-1.8 7.2-2.9 4-1 8-1 8 0 11.8 3.6 3.9 3.5 3.9 11.4v30.7h-5m-15.4-4.8q6.3 0 10-3.5 3.6-3.5 3.6-9.8v-4l-6.8.3q-8.1.2-11.7 2.5-3.6 2.2-3.6 7 0 3.6 2.2 5.5 2.3 2 6.3 2Zm77.1-40.9q8.9 0 13.8 6 4.9 6.1 4.9 17.2 0 11-5 17.2-4.9 6-13.7 6-4.4 0-8-1.5-3.6-1.7-6-5h-.6l-1.4 5.8h-4.9v-63.8h6.8v15.5q0 5.2-.3 9.3h.3q4.8-6.7 14.1-6.7m-1 5.7q-7 0-10 4t-3 13.5q0 9.4 3 13.5 3.2 4 10.2 4 6.3 0 9.4-4.5 3-4.6 3-13.1 0-8.8-3-13-3.1-4.4-9.6-4.4Zm38.4 40h-6.8v-45h6.8v45m-7.4-57.1q0-2.4 1.1-3.5 1.2-1 2.9-1 1.6 0 2.8 1 1.2 1.2 1.2 3.5t-1.2 3.4q-1.2 1.1-2.8 1.1-1.7 0-2.9-1.1-1.1-1.1-1.1-3.4Zm58.6 12.1v4.3l-8.4 1q1.2 1.5 2 3.8 1 2.3 1 5.2 0 6.6-4.5 10.5-4.5 4-12.4 4-2 0-3.8-.4-4.3 2.3-4.3 5.8 0 1.9 1.5 2.8 1.5.8 5.2.8h8q7.3 0 11.2 3.1 3.9 3 3.9 9 0 7.4-6 11.3-6 4-17.5 4-8.8 0-13.5-3.4-4.8-3.2-4.8-9.2 0-4.1 2.6-7.1t7.4-4q-1.7-.8-3-2.5-1-1.6-1-3.8 0-2.5 1.2-4.3 1.3-1.8 4.2-3.6-3.5-1.4-5.7-4.8-2.2-3.5-2.2-8 0-7.3 4.4-11.3 4.5-4 12.6-4 3.5 0 6.3.8h15.6m-35.9 52.5q0 3.7 3.1 5.5 3 2 8.8 2 8.6 0 12.7-2.6t4.1-7q0-3.6-2.2-5-2.3-1.5-8.5-1.5h-8.2q-4.6 0-7.2 2.3-2.6 2.2-2.6 6.3m3.7-38q0 4.6 2.7 7 2.7 2.5 7.4 2.5 10 0 10-9.7 0-10.1-10.1-10.1-4.8 0-7.4 2.6-2.6 2.5-2.6 7.6Zm92.2 18.2q0 6.3-4.7 9.7-4.7 3.4-13.1 3.4-9 0-14-2.8v-6.4q3.3 1.7 7 2.6 3.7 1 7.1 1 5.4 0 8.2-1.7 2.9-1.7 2.9-5.2 0-2.6-2.3-4.5t-8.8-4.4q-6.3-2.3-9-4-2.6-1.8-3.9-4-1.3-2.3-1.3-5.3 0-5.5 4.5-8.7 4.4-3.2 12.2-3.2 7.3 0 14.2 3l-2.4 5.5q-6.8-2.8-12.3-2.8-4.8 0-7.3 1.5-2.4 1.6-2.4 4.2 0 1.8 1 3 .8 1.4 2.9 2.5 2 1.2 7.8 3.3 8 3 10.8 5.9 2.9 3 2.9 7.4Zm17.4-32.7v29.2q0 5.5 2.5 8.2 2.5 2.7 7.8 2.7 7 0 10.4-3.9 3.2-3.8 3.2-12.5v-23.7h6.8v45h-5.6l-1-6h-.4q-2 3.3-5.8 5-3.7 1.8-8.4 1.8-8.2 0-12.3-4-4-3.8-4-12.4v-29.4h6.8Zm65.6-.8q3 0 5.4.5l-1 6.3q-2.7-.6-4.9-.6-5.4 0-9.3 4.4-3.9 4.5-3.9 11v24.2h-6.8v-45h5.7l.7 8.4h.4q2.5-4.4 6-6.8 3.5-2.4 7.7-2.4Zm34.7 46.6q-4.4 0-8-1.6-3.6-1.7-6-5h-.6q.5 4 .5 7.4v18.5h-6.8v-65h5.5l1 6h.3q2.6-3.6 6.1-5.2 3.5-1.7 8-1.7 9 0 13.8 6.1 4.9 6.1 4.9 17.2 0 11-5 17.2-5 6-13.7 6m-1-40.7q-6.9 0-10 3.8-3 3.8-3 12.1v1.6q0 9.4 3 13.5 3.2 4 10.2 4 5.8 0 9.1-4.6 3.3-4.7 3.3-13 0-8.4-3.3-13-3.3-4.4-9.3-4.4Zm52-5.8q3 0 5.4.5l-1 6.3q-2.7-.6-4.9-.6-5.4 0-9.3 4.4-3.9 4.5-3.9 11v24.2h-6.8v-45h5.7l.7 8.4h.4q2.5-4.4 6-6.8 3.5-2.4 7.7-2.4Zm20.6 45.8h-6.8v-45h6.8v45m-7.4-57.1q0-2.4 1.2-3.5 1.1-1 2.8-1 1.7 0 2.9 1 1.2 1.2 1.2 3.5t-1.2 3.4q-1.2 1.1-2.9 1.1t-2.8-1.1q-1.2-1.1-1.2-3.4Zm50.6 57h-32.6V448l24.5-35h-23v-5.3h30.4v5.3l-24.1 34.4h24.8v5.3Zm29.5.9q-10 0-15.7-6-5.8-6.1-5.8-17 0-10.8 5.3-17.2 5.4-6.4 14.4-6.4 8.5 0 13.4 5.6 4.9 5.5 4.9 14.6v4.3h-31q.2 8 4 12 3.8 4.1 10.7 4.1 7.3 0 14.4-3v6q-3.6 1.6-6.9 2.3-3.2.7-7.7.7m-1.9-40.9q-5.4 0-8.6 3.5-3.2 3.6-3.8 9.8h23.5q0-6.4-2.9-9.9-2.8-3.4-8.2-3.4Zm36.1 23.5h-4.3l-2-43.4h8.4l-2 43.4m-7.2 12.2q0-5.6 5-5.6 2.3 0 3.6 1.5 1.3 1.4 1.3 4.1 0 2.6-1.3 4.1-1.3 1.5-3.7 1.5-2.1 0-3.5-1.3t-1.4-4.3Z" class="Text"/></g></svg>