<svg viewBox="0 0 2048 512" xmlns="http://www.w3.org/2000/svg"><defs><radialGradient cx="224.1789" cy="186.7648" r="325.4425" id="gradient876" gradientUnits="userSpaceOnUse"><stop offset="0%" stop-color="rgb(233,108,76)"/><stop offset="100%" stop-color="rgb(20,30,36)"/></radialGradient><radialGradient cx="149.595" cy="192.1851" r="173.7589" id="gradient878" gradientUnits="userSpaceOnUse"><stop offset="0%" stop-color="rgb(233,108,76)"/><stop offset="100%" stop-color="rgb(20,30,36)"/></radialGradient><radialGradient cx="307.6683" cy="198.1569" r="194.3201" id="gradient879" gradientUnits="userSpaceOnUse"><stop offset="0%" stop-color="rgb(233,108,76)"/><stop offset="100%" stop-color="rgb(20,30,36)"/></radialGradient><linearGradient x1="155.4944" y1="138.3426" x2="154.3716" y2="232.3096" id="gradient890" gradientUnits="userSpaceOnUse"><stop offset="0%" stop-color="rgb(20,30,36)"/><stop offset="100%" stop-color="rgb(233,108,76)"/></linearGradient><linearGradient x1="300.4356" y1="144.1466" x2="301.5618" y2="232.6569" id="gradient891" gradientUnits="userSpaceOnUse"><stop offset="0%" stop-color="rgb(20,30,36)"/><stop offset="100%" stop-color="rgb(233,108,76)"/></linearGradient><radialGradient cx="216.1303" cy="434.0145" r="128.9195" id="gradient902" gradientUnits="userSpaceOnUse"><stop offset="0%" stop-color="rgb(233,108,76)"/><stop offset="100%" stop-color="rgb(20,30,36)"/></radialGradient><linearGradient x1="87.0483" y1="277.7082" x2="111.2759" y2="523.8556" id="gradient903" gradientUnits="userSpaceOnUse"><stop offset="0%" stop-color="rgb(233,108,76)"/><stop offset="100%" stop-color="rgb(20,30,36)"/></linearGradient><linearGradient x1="222.2769" y1="416.7072" x2="146.6017" y2="453.7781" id="gradient916" gradientUnits="userSpaceOnUse"><stop offset="0%" stop-color="rgb(233,108,76)"/><stop offset="100%" stop-color="rgb(20,30,36)"/></linearGradient><linearGradient x1="247.2165" y1="417.6858" x2="173.1472" y2="451.5448" id="gradient917" gradientUnits="userSpaceOnUse"><stop offset="0%" stop-color="rgb(233,108,76)"/><stop offset="100%" stop-color="rgb(20,30,36)"/></linearGradient></defs><g><path d="M-34,-22 L2066,-22 L2066,559 L-34,559 L-34,-22 Z" fill="rgb(20,30,36)" opacity="1"/></g><g><path d="M196.2825,263.4371 C254.4746,261.1426 309.9671,273.5256 339.1642,310.8293 C365.3807,344.3248 368.0007,391.8488 346.0773,429.6026 C324.0068,467.6097 279.3218,489.225 225.7419,489.225 L62.1312,489.225 C44.596,489.225 34.5096,468.6919 27.743,444.3388 C17.6308,407.9441 16.9628,370.0925 33.9185,339.5713 C60.5769,291.5847 125.0812,266.2445 196.2825,263.4371 Z" fill="rgb(20,30,36)" opacity="1"/><path d="M115.2232,339.0292 C120.1157,350.8138 119.5184,365.6128 116.1849,380.021 C113.9893,389.5108 110.6311,398.6536 105.8152,407.0684 C101.5511,414.519 96.1123,421.2125 89.6846,427.0599 C94.5657,423.8157 100.0466,421.9702 105.8152,421.18 C115.0281,419.9181 124.9647,421.5054 134.6199,424.708 L143.9163,465.5063 C131.8242,470.779 119.5678,475.5287 107.0463,479.618 C87.0547,486.1469 67.2064,491.6094 48.8269,487.9905 C24.4289,483.1867 4.9936,464.6295 -2.448,439.9136 C-8.0241,421.3936 -5.786,400.7564 1.0821,381.0644 C5.1956,369.2705 10.9896,358.1915 18.7328,348.6373 C31.4186,332.9846 48.9408,322.195 68.1547,318.6122 C80.0638,316.3915 92.1707,317.0874 101.397,322.5656 C107.6494,326.278 112.3181,332.0316 115.2232,339.0292 Z" fill="rgb(20,30,36)" opacity="1"/><path d="M50.5041,334.2252 C41.4273,344.5162 33.7549,355.764 27.532,367.8533 C19.0392,384.3523 13.1036,401.8154 13.4114,419.4965 C13.6693,434.3073 18.3021,448.84 25.0523,462.6105 C26.6888,465.949 28.4412,469.2323 30.4999,472.3407 C26.3592,470.8323 22.8848,468.3411 19.6046,465.3906 C9.2722,456.0964 2.0652,441.6642 0.4676,426.7026 C-0.3807,418.7582 0.1668,410.675 1.6443,402.6825 C4.4686,387.4048 10.2296,372.9748 19.295,360.6473 C27.4039,349.6205 37.9767,340.6214 50.5041,334.2252 Z" fill="rgb(49,110,125)" opacity="1"/><path d="M276.3748,63.7849 C291.9572,63.972 306.0311,69.1531 318.9353,78.2991 C346.5081,97.8415 366.7632,134.8718 375.3355,174.6747 C387.1077,229.3357 378.0902,284.1399 348.0503,314.1191 C332.4202,329.7177 312.2478,336.8301 289.91,334.163 C268.0241,347.1914 243.671,353.4726 218.885,354.0082 C185.1362,354.7375 151.1608,344.6286 119.3953,327.3651 C91.082,333.5506 65.1303,324.7648 47.8795,303.8069 C20.9188,271.0525 21.1554,216.7903 37.7293,162.9073 C48.7876,126.956 67.3165,93.6495 93.2795,76.1921 C107.8151,66.4184 124.2097,61.7188 141.7136,63.4708 C162.3196,52.8926 184.5395,47.4715 207.0481,47.3148 C230.8438,47.1492 254.3704,52.8633 276.3748,63.7849 Z" fill="url(#gradient876)" opacity="1"/><path d="M153.7235,280.6927 L188.2179,285.6635 L191.1253,298.4386 L211.1234,299.6871 L212.9994,287.3818 L232.5987,288.65 L233.9017,301.1571 L254.6094,300.9727 L255.9375,287.666 L278.5842,285.6565 C270.5747,302.2092 257.3358,314.2368 241.2192,320.5937 C221.9168,328.2072 200.6685,327.4887 182.8664,317.7361 C168.8296,310.0464 158.2447,297.1923 153.7235,280.6927 Z" fill="rgb(20,30,36)" opacity="1"/><path d="M150.9872,81.8712 C128.3097,114.8715 114.1455,151.802 108.8598,190.3585 C103.1909,231.7098 107.8547,273.946 121.8303,314.7381 C118.8224,273.8383 119.7966,232.9526 125.058,192.5628 C129.9543,154.9762 138.5455,117.9155 150.9872,81.8712 Z" fill="url(#gradient878)" opacity="1"/><path d="M281.7871,83.8334 C294.9539,110.6103 303.9891,138.8864 310.0268,168.0667 C319.0511,211.681 321.0384,257.3913 318.6599,303.1601 C333.8184,255.8361 338.4912,207.4843 327.305,163.658 C319.6225,133.559 304.7382,105.9335 281.7871,83.8334 Z" fill="url(#gradient879)" opacity="1"/><path d="M171.4102,67.1777 C181.9208,65.2618 192.4615,65.1696 200.4051,68.3159 C204.4689,69.9254 207.875,72.2996 210.4418,75.7142 C214.23,71.6313 219.0435,69.0542 224.3817,67.7468 C233.0906,65.6137 243.0962,67.0491 252.8191,70.5923 C240.7213,61.1202 226.7422,55.757 212.1146,55.2264 C197.836,54.7086 183.8306,58.8352 171.4102,67.1777 Z" fill="rgb(20,30,36)" opacity="1"/><path d="M46.3653,182.3518 C54.4555,142.9066 71.8155,105.585 97.5215,83.7334 C110.3783,72.8043 124.8852,65.6602 141.4609,63.6283 C126.5254,61.8425 112.5788,65.1068 99.1338,72.9744 C66.6862,91.9618 40.3854,136.0774 30.0191,185.2694 C22.9226,218.9445 23.3046,254.0656 35.1347,281.6521 C40.7964,294.8544 48.8331,306.0824 60.0344,314.7669 C51.9868,298.5288 46.5968,281.3366 43.8026,263.574 C39.5705,236.6708 40.8457,209.2632 46.3653,182.3518 Z" fill="rgb(233,108,76)" opacity="1"/><path d="M197.5777,61.9875 C200.7106,55.3965 201.6939,48.3454 200.1319,41.784 C198.8188,36.2682 195.7289,31.2847 191.4605,27.4491 C186.1023,22.634 179.0695,19.8562 171.3555,18.9356 C173.7353,13.331 177.2522,8.4613 181.7425,4.6033 C186.1906,0.7815 191.4775,-1.9468 197.3183,-3.4406 C204.0889,1.2732 209.0742,7.8887 212.0456,15.2032 C214.993,22.4588 215.5654,30.6349 217.3726,38.5254 C219.1602,46.3303 221.7249,54.0407 225.3743,61.2507 C221.2685,64.1294 216.6179,65.711 211.8062,65.8668 C206.8602,66.0269 201.9903,64.6749 197.5777,61.9875 Z" fill="rgb(49,110,125)" opacity="1"/><path d="M197.8176,63.0471 C201.6998,60.4149 204.3096,56.6355 205.6994,52.3211 C207.8723,45.5755 206.7646,37.8503 203.9547,30.6216 C201.1703,23.4585 196.5658,17.2594 190.5927,12.0607 C199.3433,14.4174 205.9206,20.6485 208.803,28.3521 C211.5192,35.6111 210.4357,44.2596 213.3323,51.466 C215.3164,56.402 218.9493,60.7256 224.0372,63.1689 C220.3808,65.6283 216.2381,66.9061 212.0018,67.0177 C207.0998,67.1469 202.2513,65.7128 197.8176,63.0471 Z" fill="rgb(20,30,36)" opacity="1"/><path d="M271.7227,286.1378 C269.0213,296.2786 263.2325,304.7536 255.4805,311.2483 C243.0148,321.692 226.5583,326.3156 209.6925,325.2524 C197.7307,324.4983 186.2215,320.6003 176.0578,313.4482 C186.3773,322.8286 198.8332,328.4133 212.0581,330.3496 C230.8731,333.1044 249.7053,328.8076 264.7886,317.7407 C275.6263,309.7888 283.7746,298.6657 287.7068,285.1185 L271.7227,286.1378 Z" fill="rgb(233,108,76)" opacity="1"/><path d="M202.8077,163.303 C209.702,160.4768 216.9539,159.0417 224.2602,158.9604 C232.176,158.8722 240.0545,160.3742 247.6133,163.2811 C263.964,142.1537 288.6595,134.3023 312.4476,138.5857 C345.9511,144.6185 370.2156,171.3271 371.9603,203.3157 C373.8499,237.9612 349.8262,268.235 314.3014,274.175 C291.3237,278.017 267.2063,269.6995 251.9356,251.3559 C239.9711,236.9839 234.8111,217.7558 239.955,198.0221 C236.9946,196.6817 233.841,196.0064 230.6424,195.8726 C226.3201,195.6918 221.9391,196.5235 217.6995,198.0439 C221.5681,222.0304 212.8997,244.0185 196.4255,258.8405 C175.9666,277.2478 147.1693,282.3628 121.9669,271.8684 C99.5169,262.5201 83.2393,241.9127 79.419,217.5857 C75.8166,194.6455 83.9048,171.1473 100.693,154.6177 C117.1249,138.4389 140.1384,130.8606 162.3873,135.076 C178.8669,138.1982 193.6539,147.7488 202.8077,163.303 Z" fill="rgb(20,30,36)" opacity="0.2"/><path d="M200.6803,169.8169 C208.7919,165.6987 217.5278,163.535 226.3876,163.303 C236.0692,163.0494 245.7085,165.1057 254.8382,169.161 C269.3893,147.9928 292.9102,139.7403 315.4781,144.4665 C343.6745,150.3714 363.9824,174.0862 366.0767,202.1147 C368.5932,235.7939 345.7683,264.8399 311.948,269.371 C292.1294,272.0262 271.4539,264.5008 257.8192,248.9539 C244.9267,234.2533 239.8551,213.9255 245.7159,193.3182 C241.002,190.7787 235.8576,189.5066 230.6424,189.3587 C224.0912,189.1728 217.5286,190.7784 211.3173,193.7013 C216.2765,217.4305 208.4886,239.6866 192.1708,254.4979 C174.1229,270.8795 148.7036,276.0702 126.2216,267.5258 C105.0868,259.4933 89.6715,240.3806 85.8012,217.5857 C82.1675,196.1836 89.3251,174.165 104.9477,158.9604 C119.6041,144.6962 140.1753,138.087 160.2599,141.5899 C176.7771,144.4706 191.582,154.1479 200.6803,169.8169 Z" fill="rgb(20,30,36)" opacity="0.2"/><path d="M309.1417,150.0073 C338.4593,152.2512 361.3448,177.9816 360.1495,208.8587 C359.0398,237.522 337.0084,260.9668 309.1417,263.1831 C278.099,265.6518 251.6872,241.9573 249.2629,211.1222 C246.4865,175.8093 274.583,147.2182 309.1417,150.0073 Z" fill="rgb(255,255,255)" opacity="1"/><path d="M148.9466,146.8176 C181.5388,146.7707 207.6213,174.0635 206.3861,207.6143 C205.2309,238.9963 179.9644,264.0683 148.9466,264.0683 C117.9288,264.0683 92.6623,238.9963 91.507,207.6143 C90.2719,174.0635 116.3544,146.7707 148.9466,146.8176 Z" fill="rgb(255,255,255)" opacity="1"/><path d="M228.5541,173.9532 C240.6657,173.87 252.5296,177.3808 263.113,184.2617 L258.3545,198.8321 C249.833,192.8762 240.1553,189.6452 230.1777,189.2949 C219.4604,188.9186 208.8759,191.8731 199.2405,197.6571 L192.3545,185.5151 C203.4281,178.0882 215.8181,174.0407 228.5541,173.9532 Z" fill="rgb(255,255,255)" opacity="1"/><path d="M149.1968,162.184 C172.5294,162.2006 191.7675,179.5524 193.8536,201.5473 C196.4826,229.2678 173.4297,251.7224 145.1371,249.1976 C120.7658,247.0227 102.2251,225.9245 104.5401,201.5473 C106.6472,179.36 125.9588,162.1741 149.1968,162.184 Z" fill="url(#gradient890)" opacity="1"/><path d="M309.4276,165.8967 C331.6507,167.9467 348.798,186.8841 347.6344,209.225 C346.5728,229.6066 330.0836,246.2211 309.4276,248.2205 C284.7472,250.6094 263.9452,232.5995 262.7305,209.225 C261.4033,183.6854 283.1229,163.2849 309.4276,165.8967 Z" fill="url(#gradient891)" opacity="1"/><path d="M169.6854,184.4658 C178.6727,184.1611 187.0638,188.0132 193.3964,195.3212 L179.2825,192.0202 C179.2078,203.5615 173.4682,212.0544 166.0436,211.6346 C159.3853,211.2581 154.6605,203.813 155.3321,194.0338 L144.4664,198.7655 C150.9735,190.071 159.7926,184.8011 169.6854,184.4658 Z" fill="rgb(20,30,36)" opacity="0.1"/><path d="M282.7977,183.1125 C291.5637,183.0349 299.5898,187.1211 305.347,194.6199 L292.2993,190.0888 C292.9211,200.8968 287.9206,209.1552 280.831,209.1671 C274.3284,209.1779 269.3771,202.1774 269.6016,192.6628 L257.4297,197.4968 C263.9529,188.5776 272.8494,183.2006 282.7977,183.1125 Z" fill="rgb(20,30,36)" opacity="0.1"/><path d="M115.0616,233.4315 L129.3558,194.9688 C130.8646,190.9091 133.6089,188.3374 137.1527,188.3374 L189.1316,188.3374 C183.1034,175.4763 172.0267,167.2816 159.2437,164.464 C141.9076,160.6427 124.4009,166.5271 113.7622,180.3796 C107.5636,188.4505 104.4374,198.702 105.1091,209.0896 C105.6784,217.8943 108.9688,226.4205 115.0616,233.4315 Z" fill="rgb(20,30,36)" opacity="0.5"/><path d="M273.192,233.9173 L287.0485,199.1 C288.7377,194.8554 291.56,192.1547 295.2016,192.1655 L343.8521,192.3103 C338.9318,178.8496 328.1197,170.2258 315.3163,167.3461 C295.9436,162.989 277.0325,171.3402 267.7566,188.1496 C259.8159,202.5395 261.3591,220.0179 273.192,233.9173 Z" fill="rgb(20,30,36)" opacity="0.5"/><path d="M216.7019,466.6823 L286.9853,293.8142 C300.3986,260.8231 329.7293,242.0714 366.4863,242.0714 L555.7138,242.0714 C573.5288,242.0714 580.1128,264.3942 570.6923,287.9343 L503.8654,454.9226 C500.9241,462.2724 494.9932,466.6823 487.5371,466.6823 L216.7019,466.6823 Z" fill="rgb(139,188,199)" opacity="0.2"/><path d="M230.3304,466.6823 L300.6139,293.8142 C312.0062,265.794 335.0687,249.1272 363.9842,249.1272 L553.2118,249.1272 C570.7108,249.1272 578.6514,268.0459 570.6923,287.9343 L503.8654,454.9226 C500.9241,462.2724 494.9932,466.6823 487.5371,466.6823 L230.3304,466.6823 Z" fill="rgb(139,188,199)" opacity="0.4"/><path d="M244.1567,466.6823 L314.4402,293.8142 C323.1353,272.4278 340.7489,259.711 362.8321,259.711 L552.0596,259.711 C567.5274,259.711 576.5176,273.3779 570.6923,287.9343 L503.8654,454.9226 C500.9241,462.2724 494.9932,466.6823 487.5371,466.6823 L244.1567,466.6823 Z" fill="rgb(255,255,255)" opacity="1"/><path d="M318.7446,315.5145 C330.2585,288.0203 345.0953,268.5346 365.9843,268.4755 L554.364,267.9428 C568.4736,267.9029 576.2919,281.0709 570.6923,294.9902 L499.2566,472.5622 C492.7683,488.6905 475.4075,496.04 452.9714,496.0816 L165.5036,496.6144 C156.3419,496.6314 150.1793,489.833 149.373,481.3267 C148.3332,470.3577 156.124,461.3352 167.808,461.3352 L257.6787,461.3352 L318.7446,315.5145 Z" fill="rgb(20,30,36)" opacity="1"/><path d="M440.9427,373.1807 C445.8497,380.8768 454.4166,382.6624 463.6376,379.3724 C463.0287,381.9898 461.8527,384.3797 460.4863,386.6581 C453.1263,398.9307 442.1162,407.5682 429.5535,409.0859 C421.888,410.012 414.4574,408.379 410.2018,403.4466 C403.9464,396.1966 405.5079,383.5516 411.5932,371.7485 C417.1463,360.9776 426.9521,352.3407 436.6861,349.1599 C439.7652,348.1538 442.7789,347.7012 445.9198,348.1353 C438.2787,355.7262 435.6892,364.9413 440.9427,373.1807 Z" fill="rgb(49,110,125)" opacity="1"/><path d="M436.1729,376.3277 C440.0531,382.6861 446.9401,385.5133 454.9624,384.6387 C448.5753,395.142 439.8273,402.6144 430.1082,404.2065 C423.3589,405.3121 416.8097,403.6087 413.3742,399.141 C408.641,392.9856 410.738,382.787 416.259,373.3601 C421.1552,365.0001 428.5334,358.3569 437.8909,354.2054 C432.9982,361.5258 432.0253,369.5311 436.1729,376.3277 Z" fill="rgb(139,188,199)" opacity="1"/><path d="M115.3782,450.4913 C114.6555,456.111 115.3768,461.237 118.3613,464.4624 C121.8852,468.2708 128.434,468.7794 135.1019,467.6423 C145.2826,465.9062 154.978,460.0964 163.8004,452.343 C164.2052,457.1665 166.4134,461.4937 169.6697,464.6679 C172.8557,467.7737 177.2472,469.5907 181.2519,472.0427 C185.3068,474.5253 189.1539,477.4423 192.5221,480.8628 C192.6249,478.217 191.9479,475.6975 190.6724,473.4843 C189.0535,470.6756 186.5131,468.444 183.4464,466.8364 C186.4875,466.5782 188.8293,464.7671 189.8053,462.2118 C190.8723,459.4179 190.0017,456.0492 188.8976,452.6532 C188.1385,450.3186 187.2106,448.0532 186.1135,445.8478 C189.2727,448.2808 192.1662,451.0628 194.4656,454.1998 C196.0748,456.3953 197.3822,458.7702 199.4149,460.0772 C201.4604,461.3924 204.1927,461.5132 206.4445,462.7491 C209.9967,464.6988 212.3454,469.1397 212.899,474.3502 C213.9442,470.9934 214.1426,467.574 213.2154,464.4476 C212.5022,462.0425 211.144,459.8689 209.1461,458.1983 C210.5579,457.6573 211.6225,456.6685 212.3434,455.2916 C213.8368,452.4394 213.7485,448.0177 212.6341,443.5196 C214.7847,444.6161 216.5029,446.3324 217.7208,448.3156 C219.0865,450.5395 219.7451,453.1954 221.2088,455.2916 C222.8947,457.7062 225.5853,459.4134 226.8038,461.8171 C227.6729,463.5316 227.7379,465.5915 228.6829,467.1275 C229.967,469.2144 232.6261,470.3868 235.601,470.0722 C233.6334,469.354 232.2339,467.9079 231.6046,466.0607 C230.8012,463.7022 231.3657,461.0737 232.9163,458.6716 C234.7207,458.1272 236.0351,456.8938 236.9437,455.1852 C239.2505,450.8471 238.7698,443.102 235.3061,436.1076 C229.237,423.8521 215.9714,413.9699 200.6201,409.0255 C178.6929,401.9631 156.1156,403.8873 138.0688,416.0094 C125.6874,424.326 117.0082,437.815 115.3782,450.4913 Z" fill="url(#gradient902)" opacity="1"/><path d="M116.6032,450.185 C115.2117,455.5955 115.4154,461.1177 118.3613,464.4624 C121.7572,468.3181 128.2782,468.8372 135.1019,467.6423 C145.3121,465.8544 154.9473,460.0357 163.8004,452.343 C161.871,445.3971 158.1658,439.4493 152.8259,435.2679 C148.0917,431.5609 142.3012,429.4316 136.0014,429.238 C131.5087,430.9059 127.5459,433.4767 124.2875,436.8344 C120.6172,440.6166 117.8962,445.1572 116.6032,450.185 Z" fill="url(#gradient903)" opacity="1"/><path d="M1056.932,237.2525 C1077.2284,284.6596 1102.2068,329.564 1132.4872,370.5853 C1157.7198,404.7682 1186.5484,436.2183 1219.1536,463.9183" fill="none" opacity="1" stroke="rgb(49,110,125)" stroke-width="4"/><path d="M1055.77,236.1125 C1122.5193,269.487 1191.4246,298.9104 1260.9498,318.5926 C1301.0572,329.9468 1341.3248,338.3217 1382.5151,342.1277" fill="none" opacity="1" stroke="rgb(49,110,125)" stroke-width="4"/><path d="M1321.9344,234.8476 C1302.5814,235.575 1284.8468,242.3747 1270.3151,253.8297 C1252.8137,267.6257 1240.7945,287.488 1234.4158,310.5278 C1206.3693,306.8189 1179.6034,311.0957 1159.1511,325.3444 C1144.3281,335.6713 1133.5495,350.7218 1129.2328,369.2046 C1118.4417,369.1599 1107.7879,370.5012 1097.5042,373.3161 C1087.9646,375.9273 1078.7916,379.7919 1070.2104,384.916" fill="none" opacity="1" stroke="rgb(49,110,125)" stroke-width="4"/><path d="M1303.5805,328.5363 C1273.4833,333.2414 1246.5462,345.7668 1225.6304,365.7268 C1206.3764,384.101 1193.1571,407.925 1187.5515,435.1669 C1168.2659,430.4225 1148.7066,430.7998 1130.2348,436.0239 C1110.39,441.6362 1092.4364,452.6503 1077.3879,467.9315" fill="none" opacity="1" stroke="rgb(49,110,125)" stroke-width="4"/><path d="M1190.4277,230.041 C1182.2673,232.1432 1175.3635,236.6954 1169.818,242.8405 C1161.0333,252.575 1155.9604,266.2642 1153.8306,281.0715 C1138.6636,280.5375 1124.4786,284.1462 1113.541,292.5566 C1105.0579,299.0796 1098.9162,308.1984 1096.3561,319.1424" fill="rgb(20,30,36)" opacity="1" stroke="rgb(49,110,125)" stroke-width="4"/><path d="M188.1524,285.6437 L194.9386,286.4522 L194.9901,298.6802 L189.5303,298.1503 L188.1524,285.6437 Z" fill="rgb(233,108,76)" opacity="1"/><path d="M239.175,288.7173 L239.0418,300.906 L233.0914,301.012 L231.9255,288.6114 L239.175,288.7173 Z" fill="rgb(233,108,76)" opacity="1"/><path d="M186.2341,446.1409 C184.5756,440.6079 181.792,435.6244 178.0335,431.4327 C174.189,427.1451 169.4126,423.7828 163.9645,421.4794 C172.3857,422.6436 180.2345,425.4486 186.4204,430.1844 C190.8499,433.5754 194.2931,437.9556 195.5948,442.9541 C196.5921,446.7837 196.1624,450.9441 197.0044,454.9214 C197.3415,456.5136 197.8334,458.0983 198.6716,459.5239 C197.746,458.7569 196.8968,457.9066 196.0805,457.0132 C194.1955,454.9497 192.5641,452.5718 190.6674,450.4303 C189.3053,448.8925 187.8387,447.4383 186.2341,446.1409 Z" fill="url(#gradient916)" opacity="1"/><path d="M212.7797,444.2877 C211.8509,440.6455 210.5596,437.1255 208.9269,433.7646 C207.259,430.3312 205.2406,427.0754 202.9017,424.0288 C206.9633,426.5354 210.8411,429.2696 214.4877,432.299 C217.6023,434.8863 220.5096,437.6655 221.9122,441.101 C223.2812,444.4541 223.1151,448.3917 223.6934,452.2512 C224.1046,454.9959 224.8009,457.7295 225.9636,460.2834 C223.8597,459.0484 222.1862,457.2362 220.9328,455.2361 C219.2832,452.6036 218.5108,449.4084 216.7673,447.198 C215.7226,445.8736 214.3918,444.829 212.7797,444.2877 Z" fill="url(#gradient917)" opacity="1"/></g><g><path d="M634,273.7619 L677.6101,273.7619 C694.8362,273.7619 710.2823,275.3931 720.8939,283.7672 C729.9065,290.8795 734.8933,302.1373 734.7056,314.0006 C734.572,322.4423 731.7257,330.7111 726.2772,337.0019 C720.3019,343.901 711.5595,348.1497 701.6446,348.8017 L701.6446,349.4542 C712.8977,349.3931 722.9586,353.7601 729.6485,361.4714 C735.6254,368.3608 738.5213,377.6264 738.6207,387.0828 C738.7587,400.2123 733.602,412.6992 724.0477,420.9051 C713.7556,429.7448 699.0364,432.7592 682.7215,432.7592 L634,432.7592 L634,273.7619 Z M645.0928,344.5603 L680.1114,344.5603 C693.1509,344.5603 704.8026,343.4327 712.683,337.1107 C719.495,331.6458 723.0949,322.865 722.8515,313.7831 C722.607,304.6628 718.5066,296.0369 711.378,290.7274 C702.9052,284.4168 690.7233,283.5497 677.1751,283.5497 L645.0928,283.5497 L645.0928,344.5603 Z M645.0928,354.3481 L645.0928,422.9714 L682.504,422.9714 C709.066,422.9714 727.7964,406.5885 726.6578,387.0828 C725.5821,368.6538 706.4506,354.3481 680.1114,354.3481 L645.0928,354.3481 Z M781.687,432.7592 L770.9204,432.7592 L770.9204,263.5391 L781.687,263.5391 L781.687,432.7592 Z M919.0424,373.4887 C919.1109,390.5978 915.3147,407.1624 905.0133,418.6757 C895.5384,429.2651 881.3098,434.8746 866.2971,434.9343 C856.5841,434.9729 846.9476,432.5977 838.8912,427.4303 C830.9345,422.3268 824.7813,414.6829 820.7294,405.8972 C816.1246,395.9125 814.4081,384.7596 814.4218,373.4887 C814.4425,356.3802 818.1968,339.8763 828.4509,328.4104 C837.9358,317.8047 852.1589,312.1879 866.9496,312.2605 C881.6568,312.3328 895.779,318.0201 905.1764,328.6279 C915.3456,340.107 919.0919,356.546 919.0424,373.4887 Z M825.7321,373.4887 C825.7206,387.8164 828.2698,401.7314 836.4443,411.4979 C843.7863,420.2699 855.0189,425.1487 866.7321,425.1465 C878.4403,425.1443 889.6747,420.268 897.0199,411.4979 C905.2007,401.7303 907.7489,387.814 907.7321,373.4887 C907.7153,359.1585 905.1345,345.2449 896.9111,335.5338 C889.5322,326.8198 878.2571,322.0359 866.5146,322.0483 C854.8387,322.0607 843.6377,326.8152 836.3355,335.4794 C828.1498,345.192 825.6612,359.1361 825.7321,373.4887 Z M1044,314.5444 L1044,322.0483 L1019.5305,323.5709 C1026.0578,331.3444 1029.3095,340.7462 1029.3183,350.3242 C1029.328,360.963 1025.4149,371.097 1017.9536,378.0019 C1010.1994,385.1778 999.1108,388.0985 987.4483,388.6054 C983.6713,388.7695 979.8846,388.6466 976.1379,387.9529 C972.1885,389.8575 968.8144,392.4995 966.3501,395.8918 C964.2142,398.8321 962.8199,402.188 962.9788,405.5709 C963.1329,408.853 964.6547,411.941 967.2745,413.8361 C970.7425,416.3448 975.9058,416.4462 981.6844,416.4462 L1002.3475,416.4462 C1014.006,416.4462 1024.5271,418.1672 1031.8196,424.2221 C1038.4541,429.7306 1042.0674,438.3255 1042.0424,447.2234 C1042.0108,458.5 1036.23,469.1351 1026.8714,476.0974 C1015.5034,484.5546 999.807,486.4964 983.6419,486.2659 C970.6878,486.0811 958.1224,484.4781 949.1127,477.6743 C941.5626,471.9728 936.9954,463.1343 936.878,453.7486 C936.786,446.4004 939.5414,439.1749 944.4363,433.5205 C949.5289,427.6377 956.6929,423.7222 964.9363,422.5364 C961.4009,421.2445 958.4577,418.9934 956.3992,416.0656 C954.4222,413.2538 953.327,409.893 953.191,406.4409 C953.038,402.5582 954.095,398.7171 956.1536,395.3853 C958.8558,391.0119 963.1751,387.753 968.3077,385.5603 C961.4845,382.8454 955.9621,378.1525 952.2122,372.238 C948.3107,366.0843 946.4792,358.7916 946.4483,351.4117 C946.4025,340.4605 950.2084,330.0624 957.7042,322.9727 C965.4109,315.6837 976.4802,312.6167 988.1008,312.2605 C994.1758,312.0744 1000.2526,312.7267 1006.1538,314.5444 L1044,314.5444 Z M948.2971,452.7698 C948.6504,459.0876 951.3665,465.055 956.1536,469.2033 C963.0122,475.1466 973.6082,476.8215 984.5119,477.1306 C999.6298,477.5591 1014.2258,475.339 1022.9888,467.2082 C1028.5893,462.0117 1031.3986,454.8238 1031.0584,447.4409 C1030.7773,441.3425 1028.3129,435.5337 1023.7719,431.9979 C1018.1547,427.6243 1009.6811,427.2128 1000.1724,427.2128 L980.8143,427.2128 C969.2321,427.2128 958.8981,430.4045 953.161,437.282 C949.5433,441.6188 947.9841,447.173 948.2971,452.7698 Z M957.3236,351.4117 C957.4427,359.5823 960.105,367.4446 965.6432,372.673 C971.253,377.969 979.4272,380.1551 987.8833,380.2314 C996.56,380.3096 1004.9677,378.1802 1010.5584,372.7274 C1016.008,367.4122 1018.3851,359.3385 1018.443,350.9767 C1018.5033,342.2602 1016.0443,333.8411 1010.3408,328.3017 C1004.6975,322.8206 996.3064,320.5858 987.6658,320.7433 C979.1811,320.898 971.0113,323.3673 965.4257,328.8454 C959.6902,334.4707 957.0911,342.8135 957.3236,351.4117 Z" fill="rgb(233,108,76)" opacity="1"/><path d="M399,41.7004 L399,205.1459 L466.942,205.1459 C491.3801,205.1459 513.2126,196.1455 527.9687,179.6075 C541.6173,164.3106 548.2642,143.5736 548.3993,122.1462 C548.5362,100.4369 542.0351,79.4138 527.9687,64.6849 C513.0507,49.0644 490.6766,41.7004 465.6601,41.7004 L399,41.7004 Z M444.969,80.008 L465.3997,80.008 C487.3989,80.008 501.8246,98.795 502.4303,122.1462 C503.0703,146.816 488.2723,166.8383 465.3997,166.8383 L444.969,166.8383 L444.969,80.008 Z M602.0299,41.7004 L548.3993,205.1459 L598.1991,205.1459 L605.8606,179.6075 L667.1526,179.6075 L674.8141,205.1459 L723.337,205.1459 L668.4296,41.7004 L602.0299,41.7004 Z M633.9528,77.4541 L637.7835,77.4541 L656.9373,146.4077 L616.0759,146.4077 L633.9528,77.4541 Z M737.3831,41.7004 L737.3831,205.1459 L783.3521,205.1459 L783.3922,156.623 L802.5059,156.623 L826.7673,205.1459 L877.1129,205.1459 L844.6441,146.4077 C851.0455,141.0295 856.087,134.4751 859.9672,127.2539 C866.8391,114.4649 870.0832,100.2797 868.1394,86.3925 C866.7427,76.4142 862.8459,67.0087 856.1364,59.5773 C845.4916,47.7871 828.6955,41.7004 810.1674,41.7004 L737.3831,41.7004 Z M783.3521,76.1772 L805.0597,76.1772 C811.754,76.1772 817.6812,79.0282 821.6596,83.8387 C825.4449,88.4156 827.1917,94.4312 826.7673,100.4386 C826.2047,108.4037 822.007,115.5634 815.275,119.5924 C810.5882,122.3974 804.8719,123.4231 798.6751,123.4231 L783.3471,123.4231 L783.3521,76.1772 Z M895.7208,41.7004 L895.7208,205.1459 L938.475,205.1459 L938.475,140.0231 L955.075,140.0231 L993.3825,205.1459 L1044.4241,205.1459 L990.8286,119.5924 L1039.2964,41.7004 L992.1056,41.7004 L952.5211,104.2694 L938.475,104.2694 L938.475,41.7004 L895.7208,41.7004 Z M1277.5191,41.7004 L1277.5191,205.1459 L1384.7802,205.1459 L1384.7802,166.8383 L1320.9343,166.8383 L1320.9343,142.5769 L1378.3956,142.5769 L1378.3956,104.2694 L1320.9343,104.2694 L1320.9343,80.008 L1380.9344,80.008 L1380.9344,41.7004 L1277.5191,41.7004 Z M1894.2702,41.7004 L1894.2702,205.1459 L1940.2392,205.1459 L1940.2793,156.623 L1959.393,156.623 L1983.6544,205.1459 L2034,205.1459 L2001.5312,146.4077 C2007.9326,141.0295 2012.9741,134.4751 2016.8543,127.2539 C2023.7262,114.4649 2026.9703,100.2797 2025.0265,86.3925 C2023.6298,76.4142 2019.733,67.0087 2013.0235,59.5773 C2002.3787,47.7871 1985.5826,41.7004 1967.0545,41.7004 L1894.2702,41.7004 Z M1940.2392,76.1772 L1961.9468,76.1772 C1968.6411,76.1772 1974.5683,79.0282 1978.5467,83.8387 C1982.332,88.4156 1984.0788,94.4312 1983.6544,100.4386 C1983.0918,108.4037 1978.8941,115.5634 1972.1621,119.5924 C1967.4753,122.3974 1961.759,123.4231 1955.5622,123.4231 L1940.2342,123.4231 L1940.2392,76.1772 Z M1120.4583,41.7004 L1120.4583,205.1459 L1166.4273,205.1459 L1166.4674,156.623 L1185.5811,156.623 L1209.8425,205.1459 L1260.1881,205.1459 L1227.7193,146.4077 C1234.1207,141.0295 1239.1622,134.4751 1243.0424,127.2539 C1249.9143,114.4649 1253.1584,100.2797 1251.2146,86.3925 C1249.8179,76.4142 1245.9211,67.0087 1239.2116,59.5773 C1228.5668,47.7871 1211.7707,41.7004 1193.2426,41.7004 L1120.4583,41.7004 Z M1166.4273,76.1772 L1188.1349,76.1772 C1194.8292,76.1772 1200.7564,79.0282 1204.7348,83.8387 C1208.5201,88.4156 1210.2669,94.4312 1209.8425,100.4386 C1209.2799,108.4037 1205.0822,115.5634 1198.3502,119.5924 C1193.6634,122.3974 1187.9471,123.4231 1181.7503,123.4231 L1166.4223,123.4231 L1166.4273,76.1772 Z M1448.626,41.7004 L1394.9955,205.1459 L1444.7953,205.1459 L1452.4568,179.6075 L1513.7488,179.6075 L1521.4103,205.1459 L1569.9332,205.1459 L1515.0257,41.7004 L1448.626,41.7004 Z M1480.549,77.4541 L1484.3797,77.4541 L1503.5335,146.4077 L1462.6721,146.4077 L1480.549,77.4541 Z M1586.5331,41.7004 L1586.5331,205.1459 L1654.4751,205.1459 C1678.9132,205.1459 1700.7457,196.1455 1715.5018,179.6075 C1729.1504,164.3106 1735.7973,143.5736 1735.9324,122.1462 C1736.0694,100.4369 1729.5682,79.4138 1715.5018,64.6849 C1700.5838,49.0644 1678.2097,41.7004 1653.1932,41.7004 L1586.5331,41.7004 Z M1632.5021,80.008 L1652.9328,80.008 C1674.932,80.008 1689.3577,98.795 1689.9634,122.1462 C1690.6034,146.816 1675.8054,166.8383 1652.9328,166.8383 L1632.5021,166.8383 L1632.5021,80.008 Z M1760.1939,41.7004 L1760.1939,205.1459 L1867.4549,205.1459 L1867.4549,166.8383 L1803.6091,166.8383 L1803.6091,142.5769 L1861.0703,142.5769 L1861.0703,104.2694 L1803.6091,104.2694 L1803.6091,80.008 L1863.6092,80.008 L1863.6092,41.7004 L1760.1939,41.7004 Z" fill="rgb(233,108,76)" opacity="1"/></g></svg>