<svg viewBox="0 0 2048 512" xmlns="http://www.w3.org/2000/svg"><defs><linearGradient x1="157.1361" y1="203.7935" x2="157.0554" y2="250.5033" id="gradient20" gradientUnits="userSpaceOnUse"><stop offset="0%" stop-color="rgb(200,55,55)"/><stop offset="100%" stop-color="rgb(215,155,102)"/></linearGradient><linearGradient x1="302.1998" y1="201.0831" x2="302.5358" y2="245.5257" id="gradient21" gradientUnits="userSpaceOnUse"><stop offset="0%" stop-color="rgb(200,55,55)"/><stop offset="100%" stop-color="rgb(215,155,102)"/></linearGradient></defs><g><path d="M-34,-22 L2066,-22 L2066,559 L-34,559 L-34,-22 Z" fill="rgb(20,30,36)" opacity="1"/></g><g><g><path d="M198.8225,262.7369 C258.5503,260.3479 315.4696,272.4487 345.2006,310.3068 C371.5343,343.8388 374.1767,391.5522 352.2829,429.5256 C329.8782,468.3851 284.0881,490.352 229.1846,490.352 L61.5702,490.352 C43.532,490.352 33.097,469.3064 26.1587,444.317 C16.0046,407.7454 15.3264,369.7209 32.4852,339.1566 C59.6789,290.7178 125.8798,265.6545 198.8225,262.7369 Z" fill="rgb(20,30,36)" opacity="1"/><path d="M115.7796,338.6125 C120.7768,350.4113 120.1788,365.2856 116.7648,379.758 C114.5142,389.2988 111.0615,398.4762 106.1413,406.9068 C101.7624,414.41 96.1894,421.1284 89.616,426.9733 C94.6351,423.7144 100.2445,421.8651 106.1413,421.0714 C115.5835,419.8005 125.7574,421.3976 135.6509,424.6126 L145.1749,465.5639 C132.7842,470.8726 120.2312,475.6517 107.4026,479.7285 C87.1795,486.1552 67.0898,491.487 48.3834,487.9912 C23.1754,483.2803 2.9349,464.829 -4.7712,439.8752 C-10.4923,421.3494 -8.1931,400.5787 -1.1547,380.8053 C3.0671,368.945 9.0233,357.8186 16.9279,348.2566 C29.9757,332.4731 47.8949,321.7242 67.5593,318.1189 C79.7404,315.8856 92.1364,316.5588 101.615,322.0872 C107.9933,325.8072 112.7959,331.5676 115.7796,338.6125 Z" fill="rgb(20,30,36)" opacity="1"/><path d="M49.4767,333.7905 C40.1904,344.0905 32.3289,355.3803 25.9424,367.5447 C17.2578,384.0866 11.162,401.62 11.4763,419.3816 C11.7396,434.2619 16.4963,448.8536 23.402,462.6572 C25.0801,466.0114 26.8759,469.3084 28.983,472.424 C24.752,470.9253 21.1821,468.4141 17.8211,465.4477 C7.2164,456.0885 -0.1369,441.681 -1.7843,426.6146 C-2.6558,418.6442 -2.0932,410.5214 -0.5788,402.5045 C2.3248,387.1341 8.261,372.6543 17.5039,360.3117 C25.8391,349.1812 36.6762,340.152 49.4767,333.7905 Z" fill="rgb(49,110,125)" opacity="1"/><path d="M172.3237,449.0385 C175.6565,451.7591 175.8572,458.1779 179.3091,460.8464 C182.4764,463.295 187.4016,462.7608 191.2098,459.662 C193.7818,457.5692 195.4093,454.3987 195.9905,450.8808 C196.3156,448.9129 196.3007,446.888 195.7643,444.9136 C197.5442,446.6741 198.9011,448.8001 199.914,451.0416 C201.3902,454.3083 201.9861,457.8926 204.194,459.662 C205.966,461.082 208.5875,461.3306 211.1794,460.8464 C213.8994,460.3383 216.3989,459.0804 218.0656,456.9471 C220.7282,453.5391 221.0351,448.3346 219.4608,442.9947 C222.5465,446.0174 225.4656,449.2769 227.8323,452.7614 C229.3204,454.9522 230.5116,457.2104 232.4263,458.4856 C236.1037,460.9348 241.3536,460.0142 244.1985,456.1436 C246.6018,452.8738 246.7117,448.1091 245.3901,443.0264 C242.6826,432.6138 234.3826,422.5531 223.6466,416.485 C210.7392,409.1897 195.2874,407.2565 179.3013,407.7257 C171.2187,407.963 163.2073,408.7891 155.6937,411.2669 C144.9363,414.8144 135.5745,421.4734 128.77,430.4375 C123.1493,437.842 119.5543,446.0835 121.7938,452.7614 C124.3061,460.2529 132.5322,464.2742 141.3272,461.1328 C153.6454,449.6372 166.5892,444.3575 172.3237,449.0385 Z" fill="rgb(139,188,199)" opacity="1"/><path d="M158.0701,424.8565 C163.0667,426.9398 166.5074,431.8984 169.2321,437.4137 C171.1259,441.2474 172.624,445.2776 173.5037,449.515 C169.7779,451.1439 166.2287,453.17 162.8803,455.4169 C160.0602,457.3092 157.4341,459.4532 154.6176,461.3188 C148.5589,465.332 141.9512,468.1038 135.7338,467.2746 C131.0478,466.6496 126.8334,464.0038 123.9299,460.1923 C121.1999,456.6083 119.7859,452.1721 120.3868,447.8582 C121.1594,442.3124 125.237,437.3733 130.1652,433.228 C139.3122,425.5342 150.0462,421.511 158.0701,424.8565 Z" fill="rgb(49,110,125)" opacity="1"/><path d="M18.1334,322.9409 L72.3813,186.7185 C73.7912,172.1549 75.6904,157.6818 78.4089,143.3202 C82.0706,123.9754 86.609,104.9617 95.286,87.8668 C105.0391,68.6518 119.4592,52.1804 137.4788,40.852 C156.0113,29.2012 177.8102,23.3375 200.1652,21.5639 C230.1005,19.1889 259.795,24.1481 283.3453,39.6465 C302.3691,52.1661 316.6439,71.064 325.538,92.6889 C336.5044,119.352 338.7236,149.2024 333.9766,179.4855 L374.9639,312.0914 L348.4033,334.6769 L298.8272,328.5354 C288.7286,344.0939 276.8912,351.8731 262.2353,351.8731 L174.887,351.8731 C158.6989,351.8731 144.8332,344.5033 132.3932,329.7637 L63.9309,337.1335 L18.1334,322.9409 Z" fill="rgb(20,30,36)" opacity="1"/><path d="M143.6827,44.1265 C133.7758,58.9753 126.3374,75.1318 121.2555,92.0302 C115.4216,111.4287 112.9673,131.7556 111.8124,152.2168 C111.0045,166.5309 111.0101,180.8671 111.8124,195.2073 L45.0448,327.3072 L26.1587,319.9374 L78.7617,189.0658 C79.6934,173.7607 81.6172,158.6067 84.6636,143.6187 C89.3988,120.3218 95.8906,97.5305 108.2712,78.5189 C117.3255,64.6154 129.1523,52.755 143.6827,44.1265 Z" fill="rgb(49,110,125)" opacity="1"/><path d="M235.7527,30.6152 C213.3106,29.8116 191.287,37.8045 174.3727,55.1812 C142.1074,88.3284 133.1323,150.6538 142.5024,218.545 L184.9962,213.6318 C194.9372,193.8931 211.2789,181.6355 231.5454,181.1396 C251.2159,180.6582 267.7211,191.4603 278.2465,209.9469 L332.1908,191.6178 L329.0029,169.413 C331.3032,152.0099 330.4532,134.6619 326.6422,117.8245 C321.8593,96.6934 313.1144,76.8277 299.0169,61.3457 C282.3752,43.0696 259.6639,31.4715 235.7527,30.6152 Z" fill="rgb(49,110,125)" opacity="1"/><path d="M249.2652,292.9277 L248.8117,325.4325 C248.7618,329.0085 245.591,331.356 241.6083,331.574 C237.6202,331.7924 234.3601,329.8696 234.4048,326.6608 L234.8584,294.156 C234.9179,289.89 238.0696,286.9798 242.0618,286.7862 C246.0405,286.5932 249.319,289.0765 249.2652,292.9277 Z" fill="rgb(49,110,125)" opacity="1"/><path d="M215.6492,292.9277 L215.1957,325.4325 C215.1458,329.0085 211.9749,331.356 207.9922,331.574 C204.0041,331.7924 200.744,329.8696 200.7888,326.6608 L201.2424,294.156 C201.3019,289.89 204.4536,286.9798 208.4458,286.7862 C212.4244,286.5932 215.703,289.0765 215.6492,292.9277 Z" fill="rgb(49,110,125)" opacity="1"/><path d="M184.4343,309.9003 L184.4343,320.0635 C184.4343,324.0338 181.0395,326.6775 176.7774,326.6521 C173.0648,326.63 170.0275,324.5779 170.0275,321.2918 L170.0275,311.1286 C170.0275,306.8638 173.1974,303.9332 177.2309,303.7588 C181.1719,303.5883 184.4343,306.0496 184.4343,309.9003 Z" fill="rgb(49,110,125)" opacity="1"/><path d="M280.4801,307.4437 L280.4801,317.6069 C280.4801,321.5772 277.0853,324.2209 272.8231,324.1955 C269.1106,324.1734 266.0733,322.1213 266.0733,318.8352 L266.0733,308.672 C266.0733,304.4072 269.2432,301.4766 273.2767,301.3022 C277.2177,301.1318 280.4801,303.593 280.4801,307.4437 Z" fill="rgb(49,110,125)" opacity="1"/><path d="M212.2287,162.2273 C216.9638,159.5888 222.1501,158.228 227.4848,157.8684 C235.3739,157.3365 243.5468,159.0798 251.4094,162.2054 C266.267,141.0628 289.9954,132.9734 312.7893,137.4173 C343.3973,143.3847 365.2484,168.9824 366.7203,199.3903 C368.3039,232.1042 346.596,260.7557 314.4135,266.9533 C291.367,271.3915 266.987,262.2494 251.3642,242.744 C241.3192,230.2027 235.9489,214.1728 238.5227,197.0766 C237.2956,195.782 235.711,195.0626 234.0232,194.9191 C231.7746,194.7278 229.4996,195.5702 227.4848,197.0985 C231.1608,221.2362 222.3141,243.2665 205.6903,258.1231 C184.7722,276.8176 155.3202,281.8905 129.4095,271.1998 C106.5031,261.7487 89.7069,241.149 85.8205,216.7136 C82.1633,193.7186 90.5478,170.103 107.615,153.5095 C124.4734,137.1191 148.0141,129.5743 170.8191,133.8944 C187.5709,137.0679 202.6567,146.6216 212.2287,162.2273 Z" fill="rgb(200,55,55)" opacity="0.2"/><path d="M210.0492,168.7657 C215.9978,164.7344 222.7428,162.5772 229.6643,162.2273 C237.8955,161.8112 246.1267,163.9639 253.7701,168.1073 C266.3542,148.626 287.3511,140.6181 308.0678,143.3192 C338.9314,147.3434 361.3548,171.8428 362.3614,201.5697 C363.3795,231.6355 342.5349,257.7868 312.2341,262.5944 C291.0493,265.9555 268.9473,257.0702 255.0686,239.0396 C245.136,226.1357 240.5838,209.5469 244.4246,192.3551 C241.3965,189.8352 237.7736,188.5118 234.0232,188.3807 C229.4523,188.221 224.947,189.8355 220.9465,192.7396 C225.742,216.6183 217.7796,238.9244 201.3314,253.7642 C182.8778,270.4134 156.8824,275.5514 133.7684,266.8409 C112.1996,258.7128 96.2948,239.6107 92.3589,216.7136 C88.6715,195.2623 96.0963,173.1309 111.9739,157.8684 C127.012,143.4129 148.0582,136.8376 168.6396,140.4328 C185.4292,143.3656 200.531,153.0476 210.0492,168.7657 Z" fill="rgb(200,55,55)" opacity="0.2"/><path d="M306.8958,149.411 C335.6778,151.58 358.1835,176.3796 357.0232,206.0767 C355.9452,233.6671 334.264,256.2152 306.8958,258.3835 C276.3528,260.8034 250.4082,237.9876 248.0507,208.2562 C245.3539,174.2463 272.9123,146.6564 306.8958,149.411 Z" fill="rgb(255,255,255)" opacity="1"/><path d="M157.0495,145.6801 C190.4319,145.6141 217.1465,173.0338 215.8947,206.7048 C214.7232,238.2141 188.832,263.3705 157.0495,263.3705 C125.267,263.3705 99.3758,238.2141 98.2043,206.7048 C96.9525,173.0338 123.667,145.6141 157.0495,145.6801 Z" fill="rgb(255,255,255)" opacity="1"/><path d="M231.3677,175.24 C242.0819,175.01 252.517,178.359 261.7314,184.813 L257.3725,197.8897 C250.4563,191.9098 242.2225,188.5815 233.5472,188.3167 C224.6576,188.0454 216.0408,191.0072 208.5741,196.7103 L202.0358,185.8131 C210.7725,179.1203 220.8651,175.4655 231.3677,175.24 Z" fill="rgb(255,255,255)" opacity="1"/><path d="M157.0495,158.7568 C182.1113,158.7631 202.7909,176.9926 204.9974,200.1664 C207.7712,229.2977 183.0712,252.9905 152.6906,250.2938 C126.5749,247.9756 106.6712,225.7726 109.1016,200.1664 C111.3191,176.8029 132.0746,158.7211 157.0495,158.7568 Z" fill="url(#gradient20)" opacity="1"/><path d="M306.8958,162.4877 C329.6878,164.5708 347.2999,183.6302 346.1259,206.0767 C345.0533,226.585 328.0958,243.2756 306.8958,245.3068 C281.5257,247.7376 260.1776,229.6161 258.9479,206.0767 C257.6052,180.3748 279.8782,159.8117 306.8958,162.4877 Z" fill="url(#gradient21)" opacity="1"/><path d="M178.2958,183.4695 C187.4534,183.1609 196.0395,187.0169 202.5871,194.3656 L188.1277,191.0522 C188.0668,202.659 182.1938,211.1705 174.5648,210.7401 C167.7281,210.3545 162.8939,202.8943 163.5912,193.0734 L152.4597,197.8229 C159.1976,189.0854 168.2256,183.8087 178.2958,183.4695 Z" fill="rgb(20,30,36)" opacity="0.1"/><path d="M282.4138,182.1111 C291.3379,182.0314 299.551,186.1204 305.515,193.6617 L292.1479,189.1135 C292.7998,199.9678 287.683,208.2448 280.399,208.2634 C273.7128,208.2804 268.6476,201.2637 268.8948,191.6972 L256.425,196.5493 C263.1819,187.5859 272.289,182.2015 282.4138,182.1111 Z" fill="rgb(20,30,36)" opacity="0.1"/><path d="M120.3985,233.7081 L135.7462,193.246 C137.3683,188.9696 140.3254,186.2698 144.1177,186.2698 L199.9274,186.2698 C193.2947,172.7357 181.4383,164.1518 167.8368,161.1554 C148.9251,156.9891 129.9833,163.4097 119.0033,177.8983 C107.0625,193.6547 107.4532,215.1834 120.3985,233.7081 Z" fill="rgb(20,30,36)" opacity="0.5"/><path d="M269.6896,230.9176 L283.9173,195.8908 C285.6535,191.6165 288.5642,188.9037 292.2887,188.9146 L342.2423,189.0603 C336.9889,175.5205 325.9485,166.8869 312.9422,163.9459 C293.0045,159.4376 273.5684,167.7813 264.1086,184.8745 C256.0914,199.3612 257.6773,216.9745 269.6896,230.9176 Z" fill="rgb(20,30,36)" opacity="0.5"/><path d="M219.7415,466.7443 L291.7449,293.2279 C305.5408,259.9822 335.6011,241.2911 373.1914,241.2911 L554.9704,241.2911 C573.1255,241.2911 579.9384,263.7664 570.3154,287.326 L501.8532,454.9405 C498.831,462.3395 492.7482,466.7443 485.1253,466.7443 L219.7415,466.7443 Z" fill="rgb(49,110,125)" opacity="0.2"/><path d="M233.7036,466.7443 L305.707,293.2279 C317.4144,265.0151 341.0649,248.3734 370.6281,248.3734 L552.4071,248.3734 C570.2146,248.3734 578.446,267.4201 570.3154,287.326 L501.8532,454.9405 C498.831,462.3395 492.7482,466.7443 485.1253,466.7443 L233.7036,466.7443 Z" fill="rgb(49,110,125)" opacity="0.4"/><path d="M247.8682,466.7443 L319.8716,293.2279 C328.8073,271.6944 346.8699,258.9968 369.4477,258.9968 L551.2267,258.9968 C566.9993,258.9968 576.2695,272.7488 570.3154,287.326 L501.8532,454.9405 C498.831,462.3395 492.7482,466.7443 485.1253,466.7443 L247.8682,466.7443 Z" fill="rgb(255,255,255)" opacity="1"/><path d="M324.2814,315.0096 C336.1133,287.3275 351.4001,267.8572 372.6771,267.7943 L553.5875,267.2595 C567.9685,267.217 576.0381,280.4709 570.3154,294.4083 L497.1316,472.6462 C490.4354,488.9548 472.6425,496.2105 449.7138,496.2539 L167.2904,496.7886 C157.9099,496.8064 151.5767,489.9973 150.765,481.4437 C149.7223,470.4554 157.6999,461.3771 169.6512,461.3771 L261.7211,461.3771 L324.2814,315.0096 Z" fill="rgb(20,30,36)" opacity="1"/><path d="M447.5346,376.7625 C452.5625,384.6873 461.3515,386.4268 470.7849,382.9774 C470.1558,385.61 468.9517,388.0076 467.5565,390.2904 C460.0034,402.6482 448.7349,411.2618 435.8667,412.8024 C428.0136,413.7425 420.3815,412.1415 416.0414,407.1419 C409.7269,399.8681 411.293,387.1546 417.4669,375.3249 C423.1277,364.4783 433.0947,355.8688 443.1738,352.6517 C446.318,351.6481 449.4152,351.1868 452.6335,351.6232 C444.8806,359.169 442.2326,368.4056 447.5346,376.7625 Z" fill="rgb(49,110,125)" opacity="1"/><path d="M442.6481,379.9212 C446.6301,386.4328 453.6949,389.24 461.8974,388.2634 C455.2739,398.784 446.3458,406.2729 436.435,407.9046 C429.5098,409.0448 422.7899,407.358 419.2915,402.8201 C414.5253,396.6379 416.6484,386.3859 422.2468,376.9426 C427.2604,368.4859 434.8338,361.8131 444.4081,357.716 C439.4448,365.0326 438.454,373.063 442.6481,379.9212 Z" fill="rgb(139,188,199)" opacity="1"/></g><path d="M399,41.7004 L399,205.1459 L466.942,205.1459 C491.3801,205.1459 513.2126,196.1455 527.9687,179.6075 C541.6173,164.3106 548.2642,143.5736 548.3993,122.1462 C548.5362,100.4369 542.0351,79.4138 527.9687,64.6849 C513.0507,49.0644 490.6766,41.7004 465.6601,41.7004 L399,41.7004 Z M444.969,80.008 L465.3997,80.008 C487.3989,80.008 501.8246,98.795 502.4303,122.1462 C503.0703,146.816 488.2723,166.8383 465.3997,166.8383 L444.969,166.8383 L444.969,80.008 Z M602.0299,41.7004 L548.3993,205.1459 L598.1991,205.1459 L605.8606,179.6075 L667.1526,179.6075 L674.8141,205.1459 L723.337,205.1459 L668.4296,41.7004 L602.0299,41.7004 Z M633.9528,77.4541 L637.7835,77.4541 L656.9373,146.4077 L616.0759,146.4077 L633.9528,77.4541 Z M737.3831,41.7004 L737.3831,205.1459 L783.3521,205.1459 L783.3922,156.623 L802.5059,156.623 L826.7673,205.1459 L877.1129,205.1459 L844.6441,146.4077 C851.0455,141.0295 856.087,134.4751 859.9672,127.2539 C866.8391,114.4649 870.0832,100.2797 868.1394,86.3925 C866.7427,76.4142 862.8459,67.0087 856.1364,59.5773 C845.4916,47.7871 828.6955,41.7004 810.1674,41.7004 L737.3831,41.7004 Z M783.3521,76.1772 L805.0597,76.1772 C811.754,76.1772 817.6812,79.0282 821.6596,83.8387 C825.4449,88.4156 827.1917,94.4312 826.7673,100.4386 C826.2047,108.4037 822.007,115.5634 815.275,119.5924 C810.5882,122.3974 804.8719,123.4231 798.6751,123.4231 L783.3471,123.4231 L783.3521,76.1772 Z M895.7208,41.7004 L895.7208,205.1459 L938.475,205.1459 L938.475,140.0231 L955.075,140.0231 L993.3825,205.1459 L1044.4241,205.1459 L990.8286,119.5924 L1039.2964,41.7004 L992.1056,41.7004 L952.5211,104.2694 L938.475,104.2694 L938.475,41.7004 L895.7208,41.7004 Z M1277.5191,41.7004 L1277.5191,205.1459 L1384.7802,205.1459 L1384.7802,166.8383 L1320.9343,166.8383 L1320.9343,142.5769 L1378.3956,142.5769 L1378.3956,104.2694 L1320.9343,104.2694 L1320.9343,80.008 L1380.9344,80.008 L1380.9344,41.7004 L1277.5191,41.7004 Z M1894.2702,41.7004 L1894.2702,205.1459 L1940.2392,205.1459 L1940.2793,156.623 L1959.393,156.623 L1983.6544,205.1459 L2034,205.1459 L2001.5312,146.4077 C2007.9326,141.0295 2012.9741,134.4751 2016.8543,127.2539 C2023.7262,114.4649 2026.9703,100.2797 2025.0265,86.3925 C2023.6298,76.4142 2019.733,67.0087 2013.0235,59.5773 C2002.3787,47.7871 1985.5826,41.7004 1967.0545,41.7004 L1894.2702,41.7004 Z M1940.2392,76.1772 L1961.9468,76.1772 C1968.6411,76.1772 1974.5683,79.0282 1978.5467,83.8387 C1982.332,88.4156 1984.0788,94.4312 1983.6544,100.4386 C1983.0918,108.4037 1978.8941,115.5634 1972.1621,119.5924 C1967.4753,122.3974 1961.759,123.4231 1955.5622,123.4231 L1940.2342,123.4231 L1940.2392,76.1772 Z M1120.4583,41.7004 L1120.4583,205.1459 L1166.4273,205.1459 L1166.4674,156.623 L1185.5811,156.623 L1209.8425,205.1459 L1260.1881,205.1459 L1227.7193,146.4077 C1234.1207,141.0295 1239.1622,134.4751 1243.0424,127.2539 C1249.9143,114.4649 1253.1584,100.2797 1251.2146,86.3925 C1249.8179,76.4142 1245.9211,67.0087 1239.2116,59.5773 C1228.5668,47.7871 1211.7707,41.7004 1193.2426,41.7004 L1120.4583,41.7004 Z M1166.4273,76.1772 L1188.1349,76.1772 C1194.8292,76.1772 1200.7564,79.0282 1204.7348,83.8387 C1208.5201,88.4156 1210.2669,94.4312 1209.8425,100.4386 C1209.2799,108.4037 1205.0822,115.5634 1198.3502,119.5924 C1193.6634,122.3974 1187.9471,123.4231 1181.7503,123.4231 L1166.4223,123.4231 L1166.4273,76.1772 Z M1448.626,41.7004 L1394.9955,205.1459 L1444.7953,205.1459 L1452.4568,179.6075 L1513.7488,179.6075 L1521.4103,205.1459 L1569.9332,205.1459 L1515.0257,41.7004 L1448.626,41.7004 Z M1480.549,77.4541 L1484.3797,77.4541 L1503.5335,146.4077 L1462.6721,146.4077 L1480.549,77.4541 Z M1586.5331,41.7004 L1586.5331,205.1459 L1654.4751,205.1459 C1678.9132,205.1459 1700.7457,196.1455 1715.5018,179.6075 C1729.1504,164.3106 1735.7973,143.5736 1735.9324,122.1462 C1736.0694,100.4369 1729.5682,79.4138 1715.5018,64.6849 C1700.5838,49.0644 1678.2097,41.7004 1653.1932,41.7004 L1586.5331,41.7004 Z M1632.5021,80.008 L1652.9328,80.008 C1674.932,80.008 1689.3577,98.795 1689.9634,122.1462 C1690.6034,146.816 1675.8054,166.8383 1652.9328,166.8383 L1632.5021,166.8383 L1632.5021,80.008 Z M1760.1939,41.7004 L1760.1939,205.1459 L1867.4549,205.1459 L1867.4549,166.8383 L1803.6091,166.8383 L1803.6091,142.5769 L1861.0703,142.5769 L1861.0703,104.2694 L1803.6091,104.2694 L1803.6091,80.008 L1863.6092,80.008 L1863.6092,41.7004 L1760.1939,41.7004 Z" fill="rgb(233,108,76)" opacity="1"/><path d="M690.5142,328.4142 C690.5398,342.764 686.7726,356.6151 677.5726,365.7301 C668.5434,374.6759 654.8917,378.3699 639.5526,378.3699 L616.0834,378.3699 L616.0834,280.3359 L642.5701,280.3359 C656.9835,280.3359 669.8077,284.0441 678.2767,292.6069 C686.9877,301.4145 690.4897,314.688 690.5142,328.4142 Z M683.0711,328.6824 C683.0876,316.5104 680.072,304.7399 672.3759,296.999 C664.9502,289.5302 653.6641,286.3709 640.9607,286.3709 L622.923,286.3709 L622.923,372.335 L639.1503,372.335 C652.3984,372.335 664.1846,368.9912 671.9533,361.1507 C679.8619,353.1691 683.0542,341.139 683.0711,328.6824 Z M755.6243,378.3699 L753.9479,366.8365 L753.4115,366.8365 C750.497,371.1873 746.6517,374.6182 742.1128,376.7941 C737.8738,378.8263 733.1622,379.7315 728.4001,379.711 C722.0682,379.6837 715.9486,378.1087 711.7035,374.2125 C707.5701,370.4189 705.4673,364.7516 705.7356,358.9911 C706.0398,352.4609 709.3199,346.3805 714.6203,342.4286 C721.1409,337.567 730.2857,336.4838 740.3358,336.1925 L754.2161,335.7902 L754.2161,330.9622 C754.2161,324.6039 753.304,318.9614 749.9917,315.2714 C746.8343,311.7539 741.7376,310.1998 736.3796,309.9741 C729.2773,309.675 722.1443,311.8735 715.3915,315.6067 L712.9104,309.84 C720.5414,306.107 728.5541,304.0213 736.6478,304.2074 C743.5988,304.3673 750.2987,306.0651 754.5849,310.4435 C758.9859,314.9391 760.5193,321.9558 760.5193,329.8894 L760.5193,378.3699 L755.6243,378.3699 Z M728.8024,373.6761 C735.8305,373.799 742.5617,371.6421 747.2089,367.0041 C751.7621,362.46 753.9479,355.8488 753.9479,348.4635 L753.9479,341.2887 L741.2075,341.8251 C732.497,342.1919 724.6492,342.6677 719.3142,346.6195 C715.285,349.604 712.9054,354.2731 712.7763,359.2593 C712.6715,363.309 714.0991,367.2865 716.9672,369.8875 C719.9553,372.5972 724.3297,373.5978 728.8024,373.6761 Z M812.8219,304.0733 C816.1457,303.9152 819.4752,304.2115 822.746,305.0121 L821.472,311.3823 C818.4157,310.1781 815.1818,309.9124 812.0173,310.2423 C805.9991,310.8697 800.4831,313.6571 796.7288,318.1548 C792.4322,323.3022 790.761,330.3824 790.761,338.1371 L790.761,378.3699 L784.1225,378.3699 L784.1225,305.4814 L789.7551,305.4814 L790.4257,318.6242 L790.8951,318.6242 C792.9324,313.7686 796.2239,309.801 800.4839,307.3255 C804.1457,305.1975 808.4362,304.2819 812.8219,304.0733 Z M844.0694,346.3848 L881.2848,305.4814 L889.3314,305.4814 L860.632,336.5948 L891.8124,378.3699 L883.8329,378.3699 L856.1393,341.5569 L844.2035,352.4197 L844.2035,378.3699 L837.5651,378.3699 L837.5651,274.0328 L844.2035,274.0328 L844.2035,326.3355 L843.7342,346.3848 L844.0694,346.3848 Z M984.482,378.3699 L947.9372,287.8461 L947.4007,287.8461 C947.7584,293.5203 947.9372,299.1971 947.9372,304.878 L947.9372,378.3699 L941.3658,378.3699 L941.3658,280.3359 L951.9605,280.3359 L986.6948,366.5683 L987.0971,366.5683 L1021.8315,280.3359 L1032.1579,280.3359 L1032.1579,378.3699 L1025.2512,378.3699 L1025.2512,304.0733 C1025.2512,298.7005 1025.5195,293.3373 1026.0559,287.9802 L1025.5195,287.9802 L988.8405,378.3699 L984.482,378.3699 Z M1118.4573,341.8251 C1118.4995,352.3742 1116.1588,362.5875 1109.8072,369.6863 C1103.9653,376.2155 1095.1923,379.6742 1085.9358,379.711 C1079.947,379.7348 1074.0053,378.2703 1069.038,375.0842 C1064.132,371.9375 1060.3381,367.2245 1057.8398,361.8074 C1055.0006,355.6511 1053.9422,348.7745 1053.9507,341.8251 C1053.9634,331.2764 1056.2783,321.1005 1062.6007,314.0309 C1068.4489,307.4917 1077.2185,304.0285 1086.3381,304.0733 C1095.4062,304.1179 1104.1136,307.6245 1109.9078,314.165 C1116.1779,321.2428 1118.4878,331.3786 1118.4573,341.8251 Z M1060.9243,341.8251 C1060.9173,350.6593 1062.4891,359.2389 1067.5292,365.2607 C1072.0562,370.6693 1078.9819,373.6774 1086.204,373.6761 C1093.423,373.6747 1100.3498,370.6681 1104.8787,365.2607 C1109.9228,359.2382 1111.494,350.6577 1111.4836,341.8251 C1111.4732,332.9894 1109.882,324.4107 1104.8117,318.423 C1100.262,313.0502 1093.31,310.1006 1086.0699,310.1082 C1078.8708,310.1158 1071.9645,313.0473 1067.4622,318.3895 C1062.415,324.378 1060.8806,332.9756 1060.9243,341.8251 Z M1165.3285,304.0733 C1170.0749,303.9876 1174.8244,304.8408 1179.0077,306.9567 C1183.263,309.109 1186.8698,312.4788 1189.3341,316.8137 L1189.7364,316.8137 C1189.4682,311.2946 1189.3341,305.7741 1189.3341,300.2512 L1189.3341,274.0328 L1195.9055,274.0328 L1195.9055,378.3699 L1191.5469,378.3699 L1189.8705,367.2388 L1189.3341,367.2388 C1183.0979,374.929 1174.5041,379.2867 1165.4626,379.711 C1156.6141,380.1263 1147.9829,376.7862 1142.3958,370.3233 C1136.4142,363.4041 1134.5479,353.357 1134.4163,342.965 C1134.2774,331.9954 1136.0806,321.367 1142.3288,314.0644 C1147.8221,307.6441 1156.3001,304.2363 1165.3285,304.0733 Z M1165.3285,310.1082 C1158.2887,310.3394 1151.6026,313.2322 1147.3914,318.4901 C1142.4603,324.6467 1141.4468,333.6138 1141.39,342.8309 C1141.3404,350.8763 1142.0132,358.7405 1146.0344,364.4507 C1150.2429,370.4272 1157.6209,373.6585 1165.4626,373.8102 C1172.4997,373.9463 1179.3262,371.5846 1183.5674,366.6353 C1188.3512,361.0528 1189.3341,352.5472 1189.3341,342.965 L1189.3341,341.8251 C1189.3341,332.0088 1188.4661,323.2949 1183.668,317.5178 C1179.4064,312.3866 1172.4799,309.8734 1165.3285,310.1082 Z M1249.8174,379.711 C1240.1713,379.3791 1231.0567,376.3048 1225.0407,369.921 C1218.6042,363.0908 1216.1855,352.9629 1216.156,342.4956 C1216.1265,332.0303 1218.5069,321.875 1224.739,314.5674 C1230.4833,307.8317 1238.9953,303.9689 1247.8729,304.0733 C1255.667,304.165 1263.1687,307.3322 1268.1904,313.0586 C1273.5642,319.1866 1275.6335,327.8779 1275.6335,337.4665 L1275.6335,342.8309 L1223.1297,342.8309 C1221.847,351.7404 1224.4276,360.082 1230.1369,365.7636 C1235.1241,370.7267 1242.2694,373.274 1249.8174,373.6761 C1253.4698,373.8706 1257.1489,373.5156 1260.7809,372.8044 C1264.886,372.0005 1268.8722,370.7007 1272.7502,369.0493 L1272.7502,375.0842 C1269.0769,376.7213 1265.2666,377.9577 1261.3509,378.7387 C1257.5408,379.4986 1253.671,379.8436 1249.8174,379.711 Z M1247.8729,309.9741 C1241.5834,309.7576 1235.48,312.3757 1230.9751,316.9143 C1225.9394,321.9876 1223.3696,329.0976 1223.532,336.9301 L1268.5928,336.9301 C1269.5356,329.3402 1267.6528,322.2249 1263.0943,317.1154 C1259.2181,312.7708 1253.6841,310.1741 1247.8729,309.9741 Z M1386.6761,378.3699 L1333.0994,378.3699 L1333.0994,280.3359 L1386.6761,280.3359 L1386.6761,286.6391 L1339.939,286.6391 L1339.939,323.7203 L1384.061,323.7203 L1384.061,330.0235 L1339.939,330.0235 L1339.939,372.0668 L1386.6761,372.0668 L1386.6761,378.3699 Z M1423.1539,378.3699 L1394.9909,305.4814 L1401.8305,305.4814 L1420.6728,355.0349 C1422.7533,360.5062 1424.6306,366.0488 1426.3054,371.6644 L1426.7078,371.6644 C1428.3626,365.9971 1430.2398,360.41 1432.3403,354.9008 L1451.1827,305.4814 L1458.0223,305.4814 L1429.8593,378.3699 L1423.1539,378.3699 Z M1499.6633,379.711 C1490.0171,379.3791 1480.9025,376.3048 1474.8866,369.921 C1468.45,363.0908 1466.0313,352.9629 1466.0018,342.4956 C1465.9723,332.0303 1468.3528,321.875 1474.5848,314.5674 C1480.3291,307.8317 1488.8411,303.9689 1497.7187,304.0733 C1505.5128,304.165 1513.0146,307.3322 1518.0363,313.0586 C1523.4101,319.1866 1525.4793,327.8779 1525.4793,337.4665 L1525.4793,342.8309 L1472.9755,342.8309 C1471.6929,351.7404 1474.2734,360.082 1479.9827,365.7636 C1484.9699,370.7267 1492.1152,373.274 1499.6633,373.6761 C1503.3156,373.8706 1506.9947,373.5156 1510.6267,372.8044 C1514.7318,372.0005 1518.718,370.7007 1522.596,369.0493 L1522.596,375.0842 C1518.9227,376.7213 1515.1124,377.9577 1511.1967,378.7387 C1507.3866,379.4986 1503.5168,379.8436 1499.6633,379.711 Z M1497.7187,309.9741 C1491.4292,309.7576 1485.3258,312.3757 1480.8209,316.9143 C1475.7852,321.9876 1473.2155,329.0976 1473.3778,336.9301 L1518.4386,336.9301 C1519.3815,329.3402 1517.4986,322.2249 1512.9401,317.1154 C1509.0639,312.7708 1503.5299,310.1741 1497.7187,309.9741 Z M1574.2952,304.0733 C1577.6189,303.9152 1580.9484,304.2115 1584.2193,305.0121 L1582.9452,311.3823 C1579.8889,310.1781 1576.655,309.9124 1573.4905,310.2423 C1567.4723,310.8697 1561.9563,313.6571 1558.202,318.1548 C1553.9054,323.3022 1552.2342,330.3824 1552.2342,338.1371 L1552.2342,378.3699 L1545.5957,378.3699 L1545.5957,305.4814 L1551.2283,305.4814 L1551.8989,318.6242 L1552.3683,318.6242 C1554.4057,313.7686 1557.6971,309.801 1561.9571,307.3255 C1565.619,305.1975 1569.9094,304.2819 1574.2952,304.0733 Z M1586.8344,305.4814 L1593.674,305.4814 L1609.0965,346.3848 C1612.2641,354.7858 1615.2368,363.2567 1618.0148,371.7985 L1618.4172,371.7985 C1621.2909,363.124 1624.353,354.519 1627.6036,345.9825 L1643.0262,305.4814 L1649.8658,305.4814 L1617.2102,390.1715 C1615.2516,395.2509 1613.4261,400.2732 1610.5718,404.1189 C1608.8348,406.4592 1606.7513,408.3266 1604.3021,409.5503 C1601.6642,410.8684 1598.6567,411.3641 1595.6186,411.3608 C1592.7383,411.3577 1589.871,410.8981 1587.1026,409.9527 L1587.1026,404.186 C1589.8715,404.9959 1592.6919,405.4111 1595.4844,405.2588 C1597.6335,405.1417 1599.7431,404.6967 1601.5194,403.6495 C1603.4555,402.5081 1604.9618,400.7123 1606.2467,398.654 C1608.2507,395.4438 1609.7374,391.6816 1611.1417,387.9252 C1612.3332,384.7384 1613.5636,381.5662 1614.7291,378.3699 L1586.8344,305.4814 Z M1720.3403,378.3699 L1704.3813,329.6211 C1702.8169,324.8427 1701.4985,319.9934 1700.4251,315.0703 L1700.0227,315.0703 L1698.6146,320.0323 L1695.5971,329.7553 L1679.3699,378.3699 L1672.7985,378.3699 L1651.9445,305.4814 L1659.0523,305.4814 L1670.7198,347.7259 C1672.8219,355.3368 1674.6097,363.0246 1676.0842,370.7927 L1676.4865,370.7927 C1678.0222,363.7237 1679.9438,356.7742 1682.2532,349.9387 L1697.2735,305.4814 L1703.3084,305.4814 L1717.5911,349.8046 C1719.8072,356.6818 1721.7739,363.6324 1723.4919,370.6586 L1723.8942,370.6586 C1725.4185,362.8153 1727.2064,355.0377 1729.2586,347.3236 L1740.3897,305.4814 L1747.0951,305.4814 L1727.314,378.3699 L1720.3403,378.3699 Z M1812.2052,378.3699 L1812.2052,331.0963 C1812.2052,324.5482 1811.1211,318.7661 1807.5785,315.1038 C1804.1886,311.5994 1798.7977,310.2511 1793.2288,310.1082 C1785.7821,309.9171 1778.6049,311.8744 1774.0846,316.7131 C1769.4162,321.7104 1768.0162,329.4206 1768.0162,338.1371 L1768.0162,378.3699 L1761.3778,378.3699 L1761.3778,274.0328 L1768.0162,274.0328 L1768.0162,307.2249 L1767.6809,316.5455 L1768.1503,316.5455 C1770.6814,312.3601 1774.2662,309.1284 1778.4767,307.0237 C1783.2106,304.6575 1788.5821,303.7875 1793.9664,304.0733 C1800.8143,304.4367 1807.3381,306.5754 1811.8318,311.0321 C1816.6196,315.7806 1818.7766,322.8323 1818.7766,330.694 L1818.7766,378.3699 L1812.2052,378.3699 Z M1871.8169,379.711 C1862.1707,379.3791 1853.0561,376.3048 1847.0402,369.921 C1840.6036,363.0908 1838.185,352.9629 1838.1554,342.4956 C1838.1259,332.0303 1840.5064,321.875 1846.7384,314.5674 C1852.4827,307.8317 1860.9947,303.9689 1869.8723,304.0733 C1877.6664,304.165 1885.1682,307.3322 1890.1899,313.0586 C1895.5637,319.1866 1897.6329,327.8779 1897.6329,337.4665 L1897.6329,342.8309 L1845.1291,342.8309 C1843.8465,351.7404 1846.427,360.082 1852.1363,365.7636 C1857.1235,370.7267 1864.2688,373.274 1871.8169,373.6761 C1875.4692,373.8706 1879.1483,373.5156 1882.7803,372.8044 C1886.8854,372.0005 1890.8716,370.7007 1894.7496,369.0493 L1894.7496,375.0842 C1891.0763,376.7213 1887.266,377.9577 1883.3503,378.7387 C1879.5402,379.4986 1875.6704,379.8436 1871.8169,379.711 Z M1869.8723,309.9741 C1863.5828,309.7576 1857.4794,312.3757 1852.9745,316.9143 C1847.9388,321.9876 1845.3691,329.0976 1845.5314,336.9301 L1890.5922,336.9301 C1891.5351,329.3402 1889.6522,322.2249 1885.0937,317.1154 C1881.2175,312.7708 1875.6835,310.1741 1869.8723,309.9741 Z M1946.4488,304.0733 C1949.7725,303.9152 1953.102,304.2115 1956.3729,305.0121 L1955.0988,311.3823 C1952.0425,310.1781 1948.8087,309.9124 1945.6441,310.2423 C1939.6259,310.8697 1934.1099,313.6571 1930.3556,318.1548 C1926.059,323.3022 1924.3878,330.3824 1924.3878,338.1371 L1924.3878,378.3699 L1917.7493,378.3699 L1917.7493,305.4814 L1923.3819,305.4814 L1924.0525,318.6242 L1924.5219,318.6242 C1926.5593,313.7686 1929.8507,309.801 1934.1107,307.3255 C1937.7726,305.1975 1942.063,304.2819 1946.4488,304.0733 Z M1997.8797,379.711 C1988.2335,379.3791 1979.1189,376.3048 1973.103,369.921 C1966.6664,363.0908 1964.2478,352.9629 1964.2183,342.4956 C1964.1887,332.0303 1966.5692,321.875 1972.8013,314.5674 C1978.5455,307.8317 1987.0575,303.9689 1995.9351,304.0733 C2003.7292,304.165 2011.231,307.3322 2016.2527,313.0586 C2021.6265,319.1866 2023.6958,327.8779 2023.6958,337.4665 L2023.6958,342.8309 L1971.1919,342.8309 C1969.9093,351.7404 1972.4899,360.082 1978.1992,365.7636 C1983.1864,370.7267 1990.3316,373.274 1997.8797,373.6761 C2001.5321,373.8706 2005.2112,373.5156 2008.8432,372.8044 C2012.9483,372.0005 2016.9344,370.7007 2020.8124,369.0493 L2020.8124,375.0842 C2017.1392,376.7213 2013.3289,377.9577 2009.4131,378.7387 C2005.603,379.4986 2001.7333,379.8436 1997.8797,379.711 Z M1995.9351,309.9741 C1989.6456,309.7576 1983.5422,312.3757 1979.0373,316.9143 C1974.0017,321.9876 1971.4319,329.0976 1971.5943,336.9301 L2016.655,336.9301 C2017.5979,329.3402 2015.715,322.2249 2011.1565,317.1154 C2007.2804,312.7708 2001.7464,310.1741 1995.9351,309.9741 Z" fill="rgb(233,108,76)" opacity="1"/></g></svg>