<svg viewBox="0 0 1024 320" xmlns="http://www.w3.org/2000/svg"><defs><linearGradient x1="111.814" y1="81.6122" x2="111.0539" y2="143.9399" id="gradient2247" gradientUnits="userSpaceOnUse"><stop offset="0%" stop-color="rgb(29,30,34)"/><stop offset="100%" stop-color="rgb(233,108,76)"/></linearGradient><linearGradient x1="210.6599" y1="84.6912" x2="211.437" y2="144.5304" id="gradient2248" gradientUnits="userSpaceOnUse"><stop offset="0%" stop-color="rgb(29,30,34)"/><stop offset="100%" stop-color="rgb(233,108,76)"/></linearGradient></defs><g><path d="M-12,-11 L1035,-11 L1035,330 L-12,330 L-12,-11 Z" fill="rgb(29,30,34)" opacity="1"/><path d="M139.6383,164.8736 C179.3866,163.2837 217.2658,171.3366 237.0516,196.5309 C254.5764,218.8461 256.3349,250.5989 241.7648,275.8698 C226.8547,301.7305 196.3818,316.3492 159.844,316.3492 L48.2983,316.3492 C36.294,316.3492 29.3496,302.3436 24.7323,285.7133 C17.9748,261.3753 17.5235,236.0704 28.9425,215.7301 C47.0397,183.4946 91.0957,166.8152 139.6383,164.8736 Z" fill="rgb(29,30,34)" opacity="1"/><path d="M84.3741,215.3681 C87.6997,223.22 87.3017,233.1187 85.0298,242.75 C83.532,249.0993 81.2343,255.2067 77.9599,260.8172 C75.0458,265.8105 71.337,270.2815 66.9625,274.1713 C70.3026,272.0025 74.0357,270.7718 77.9599,270.2436 C84.2436,269.3979 91.0142,270.4607 97.5983,272.6002 L103.9364,299.853 C95.6905,303.3858 87.3366,306.5663 78.7993,309.2794 C65.341,313.5562 51.9716,317.1045 39.5226,314.7781 C22.7469,311.6431 9.2771,299.3639 4.1487,282.7574 C0.3414,270.4287 1.8715,256.6059 6.5555,243.4469 C9.365,235.554 13.3288,228.1495 18.5893,221.7861 C27.2725,211.2823 39.1975,204.129 52.284,201.7297 C60.3904,200.2435 68.6398,200.6915 74.9477,204.3706 C79.1924,206.8463 82.3885,210.6797 84.3741,215.3681 Z" fill="rgb(29,30,34)" opacity="1"/><path d="M40.2502,212.159 C34.0703,219.0136 28.8385,226.5269 24.5884,234.6221 C18.8088,245.6306 14.7521,257.2989 14.9613,269.1191 C15.1365,279.0218 18.302,288.7324 22.8978,297.9186 C24.0145,300.1508 25.2096,302.3449 26.6118,304.4182 C23.7962,303.4209 21.4204,301.7497 19.1837,299.7756 C12.1264,293.5472 7.2328,283.9591 6.1365,273.9326 C5.5565,268.6284 5.9309,263.2227 6.9388,257.8875 C8.8711,247.6587 12.8215,238.0225 18.9726,229.8086 C24.5196,222.4014 31.7316,216.3926 40.2502,212.159 Z" fill="rgb(48,105,139)" opacity="1"/><path d="M122.0037,288.8555 C124.2216,290.666 124.3552,294.9376 126.6524,296.7135 C128.7602,298.343 132.0378,297.9875 134.5722,295.9253 C136.2838,294.5325 137.3669,292.4226 137.7537,290.0815 C137.97,288.7718 137.9601,287.4243 137.6031,286.1104 C138.7876,287.2819 139.6906,288.6968 140.3647,290.1885 C141.3471,292.3625 141.7437,294.7478 143.2131,295.9253 C144.3923,296.8703 146.1369,297.0357 147.8618,296.7135 C149.6719,296.3753 151.3353,295.5383 152.4445,294.1186 C154.2164,291.8505 154.4206,288.387 153.373,284.8333 C155.4265,286.8449 157.3691,289.0141 158.9441,291.333 C159.9344,292.791 160.7272,294.2938 162.0014,295.1424 C164.4487,296.7724 167.9424,296.1597 169.8357,293.5838 C171.435,291.4078 171.5082,288.2369 170.6286,284.8544 C168.8268,277.925 163.3033,271.2297 156.1585,267.1914 C147.5688,262.3365 137.2858,261.0499 126.6472,261.3622 C121.2683,261.5201 115.9368,262.0698 110.9365,263.7188 C103.7776,266.0796 97.5474,270.5112 93.0191,276.4767 C89.2786,281.4043 86.8861,286.8889 88.3765,291.333 C90.0484,296.3185 95.5228,298.9946 101.3758,296.9041 C109.5735,289.2539 118.1874,285.7403 122.0037,288.8555 Z" fill="rgb(104,174,215)" opacity="1"/><path d="M112.518,272.7626 C115.8432,274.149 118.133,277.4489 119.9462,281.1193 C121.2066,283.6705 122.2035,286.3526 122.789,289.1725 C120.3094,290.2566 117.9475,291.6049 115.7192,293.1002 C113.8424,294.3595 112.0948,295.7863 110.2204,297.0279 C106.1884,299.6986 101.7911,301.5432 97.6534,300.9914 C94.535,300.5755 91.7303,298.8147 89.7981,296.2782 C87.9813,293.8931 87.0402,290.9409 87.4402,288.07 C87.9543,284.3793 90.6679,281.0923 93.9476,278.3337 C100.0348,273.2135 107.1782,270.5362 112.518,272.7626 Z" fill="rgb(48,105,139)" opacity="1"/><path d="M19.3916,204.9388 L55.493,114.2841 C56.4313,104.5921 57.6951,94.9604 59.5043,85.4029 C61.9411,72.5291 64.9614,59.8757 70.7358,48.4992 C77.2264,35.7118 86.8228,24.7502 98.8147,17.2113 C111.1479,9.4578 125.6549,5.5556 140.5319,4.3753 C160.4535,2.7947 180.215,6.095 195.8874,16.4091 C208.5476,24.7407 218.0473,37.3171 223.9663,51.7082 C231.2643,69.4523 232.7412,89.3174 229.5821,109.4705 L256.8587,197.7185 L239.1829,212.749 L206.1905,208.6618 C199.47,219.0158 191.5923,224.1928 181.839,224.1928 L123.7095,224.1928 C112.9365,224.1928 103.709,219.2883 95.4303,209.4793 L49.8693,214.3838 L19.3916,204.9388 Z" fill="rgb(29,30,34)" opacity="1"/><path d="M99.1097,21.0459 C89.6285,30.511 82.8636,42.0617 78.1334,54.4696 C71.6298,71.5297 69.7993,90.8605 66.6548,109.8514 C64.714,121.5728 62.4661,133.2735 59.0095,144.5931 C55.8927,154.8 52.1073,164.8568 47.1689,174.3816 C47.5871,152.2071 48.6124,130.1455 51.1424,108.1439 C53.5775,86.9684 56.4794,65.9056 66.6172,49.2321 C74.1547,36.8354 85.1485,26.7237 99.1097,21.0459 Z" fill="rgb(48,105,139)" opacity="1"/><path d="M161.6162,12.8331 C146.315,13.5751 131.7674,20.2346 120.5805,32.3593 C100.5245,54.0963 93.8191,90.9148 96.8274,130.8246 L130.4371,132.1946 C137.0527,119.0587 147.928,110.9013 161.4151,110.5713 C174.5056,110.251 185.4897,117.4397 192.4942,129.7423 L228.3937,117.5445 L226.2722,102.7674 C227.7321,91.1891 227.1611,79.6556 224.7011,68.4357 C221.582,54.2095 215.903,40.8249 206.3167,30.8496 C194.6485,18.708 178.3092,12.0236 161.6162,12.8331 Z" fill="rgb(48,105,139)" opacity="1"/><path d="M173.4089,194.1336 L172.7755,201.9896 C172.5575,204.6931 170.2232,206.4062 167.3578,206.6086 C164.2343,206.8293 161.7468,205.311 161.9401,202.9134 L162.5735,195.0574 C162.8322,191.849 165.1334,189.7256 167.9912,189.5146 C171.1209,189.2835 173.6424,191.2376 173.4089,194.1336 Z" fill="rgb(48,105,139)" opacity="1"/><path d="M153.8497,194.0106 L153.2163,201.8666 C152.9983,204.5701 150.664,206.2832 147.7986,206.4856 C144.6751,206.7063 142.1876,205.188 142.3809,202.7904 L143.0143,194.9344 C143.273,191.726 145.5742,189.6026 148.432,189.3916 C151.5617,189.1604 154.0832,191.1146 153.8497,194.0106 Z" fill="rgb(48,105,139)" opacity="1"/><path d="M134.2749,191.8158 L133.6649,199.8277 C133.4369,202.8218 130.9489,204.7355 127.9061,204.783 C124.9732,204.8289 122.6425,203.2077 122.8295,200.7515 L123.4396,192.7396 C123.6839,189.531 125.99,187.4036 128.8573,187.1968 C131.9777,186.9718 134.4955,188.9198 134.2749,191.8158 Z" fill="rgb(48,105,139)" opacity="1"/><path d="M192.2469,191.4678 L191.6368,199.4797 C191.4088,202.4737 188.9208,204.3874 185.878,204.435 C182.9451,204.4808 180.6144,202.8596 180.8014,200.4035 L181.4115,192.3916 C181.6558,189.183 183.9619,187.0556 186.8292,186.8488 C189.9496,186.6237 192.4674,188.5717 192.2469,191.4678 Z" fill="rgb(48,105,139)" opacity="1"/><path d="M148.56,97.9854 C151.7112,96.2295 155.1626,95.3239 158.7129,95.0846 C163.963,94.7306 169.402,95.8908 174.6344,97.9708 C184.7514,84.3957 200.3283,79.2082 215.4822,81.4746 C238.3993,84.9021 255.0348,102.9507 256.0565,124.7134 C257.1407,147.8069 240.7711,167.9621 216.746,172.0463 C201.0612,174.7127 184.6202,169.1896 174.2266,156.8035 C166.1851,147.2205 162.6739,134.3862 166.0585,121.1773 C165.2418,120.3157 164.1873,119.837 163.0641,119.7414 C161.5677,119.6142 160.0537,120.1748 158.7129,121.1918 C161.1592,137.2552 155.2718,151.9162 144.2088,161.8031 C130.288,174.2441 110.688,177.6201 93.4447,170.5056 C78.2007,164.2159 67.023,150.507 64.4366,134.2455 C62.0028,118.9426 67.5826,103.2266 78.9407,92.1838 C90.1598,81.2761 105.8259,76.2551 121.0024,79.1302 C132.1505,81.2421 142.19,87.5999 148.56,97.9854 Z" fill="rgb(233,108,76)" opacity="0.2"/><path d="M147.1096,102.3366 C151.0683,99.6538 155.5571,98.2183 160.1633,97.9854 C165.6411,97.7085 171.1189,99.1411 176.2055,101.8985 C186.2723,87.7226 202.2347,82.2459 217.5483,85.4029 C236.724,89.3561 250.6478,105.174 252.0452,123.9111 C253.7163,146.3181 238.1974,165.737 215.1415,168.8373 C201.6307,170.6541 187.5257,165.6977 178.2378,155.199 C169.5689,145.3999 166.1319,131.8353 169.9861,118.0351 C167.9709,116.3582 165.56,115.4774 163.0641,115.3902 C160.0222,115.2839 157.0239,116.3584 154.3616,118.291 C157.553,134.1821 152.2541,149.0266 141.308,158.9023 C129.0273,169.9822 111.7276,173.4015 96.3455,167.6047 C81.9916,162.1955 71.4072,149.4833 68.7879,134.2455 C66.3339,119.9699 71.2751,105.2416 81.8415,95.0846 C91.8492,85.4646 105.8552,81.0888 119.552,83.4814 C130.7252,85.4331 140.7754,91.8764 147.1096,102.3366 Z" fill="rgb(233,108,76)" opacity="0.2"/><path d="M213.2283,89.1041 C233.1958,90.6088 248.8091,107.8136 248.0042,128.416 C247.2563,147.5568 232.2149,163.1996 213.2283,164.7039 C192.039,166.3827 174.0399,150.5542 172.4044,129.928 C170.5335,106.3336 189.6522,87.1931 213.2283,89.1041 Z" fill="rgb(255,255,255)" opacity="1"/><path d="M111.8388,86.9734 C134.0545,86.9294 151.8328,105.177 150.9997,127.5847 C150.2201,148.5538 132.9898,165.2952 111.8388,165.2952 C90.6879,165.2952 73.4575,148.5538 72.6779,127.5847 C71.8449,105.177 89.6231,86.9294 111.8388,86.9734 Z" fill="rgb(255,255,255)" opacity="1"/><path d="M161.4886,105.1115 C168.6822,104.9731 175.6469,107.3275 181.6953,111.8656 L178.6028,121.7183 C174.0002,117.7388 168.5207,115.5239 162.7473,115.3476 C156.8314,115.1671 151.097,117.1382 146.128,120.9335 L141.3933,112.7229 C147.3154,107.9117 154.2364,105.251 161.4886,105.1115 Z" fill="rgb(255,255,255)" opacity="1"/><path d="M111.9921,97.426 C127.794,97.43 140.8329,108.924 142.2241,123.5355 C143.973,141.9032 128.3993,156.842 109.2438,155.1416 C92.7774,153.68 80.2277,139.6806 81.7602,123.5355 C83.1584,108.8044 96.245,97.4035 111.9921,97.426 Z" fill="url(#gradient2247)" opacity="1"/><path d="M213.4693,99.3958 C228.7861,100.7957 240.6219,113.6041 239.833,128.6888 C239.1121,142.4709 227.7162,153.6874 213.4693,155.0524 C196.4199,156.686 182.0734,144.5079 181.247,128.6888 C180.3447,111.4164 195.3127,97.5975 213.4693,99.3958 Z" fill="url(#gradient2248)" opacity="1"/><path d="M125.978,112.1218 C132.0724,111.9165 137.7863,114.4826 142.1436,119.3731 L132.5211,117.1681 C132.4806,124.8923 128.5721,130.5566 123.4951,130.2702 C118.9454,130.0135 115.7282,125.0489 116.1923,118.5132 L108.7844,121.6739 C113.2684,115.8592 119.2764,112.3476 125.978,112.1218 Z" fill="rgb(29,30,34)" opacity="0.1"/><path d="M195.2676,111.2179 C201.2064,111.1648 206.6722,113.886 210.6412,118.9047 L201.7455,115.8779 C202.1793,123.1014 198.7742,128.6096 193.9267,128.622 C189.4772,128.6333 186.1063,123.9637 186.2708,117.5973 L177.9723,120.8264 C182.4689,114.8613 188.5296,111.278 195.2676,111.2179 Z" fill="rgb(29,30,34)" opacity="0.1"/><path d="M88.8831,144.684 L98.56,119.172 C99.5828,116.4757 101.4473,114.7734 103.8384,114.7734 L139.0274,114.7734 C134.8454,106.2399 127.3697,100.8276 118.7937,98.9383 C106.8696,96.3114 94.9264,100.3597 88.0033,109.495 C80.4745,119.4297 80.7208,133.0039 88.8831,144.684 Z" fill="rgb(29,30,34)" opacity="0.5"/><path d="M188.4657,145.3825 L198.0271,121.8436 C199.1939,118.9711 201.15,117.148 203.6529,117.1553 L237.2231,117.2533 C233.6926,108.1542 226.2732,102.3521 217.5326,100.3757 C204.134,97.346 191.0724,102.9532 184.7152,114.4403 C179.3274,124.1758 180.3931,136.0124 188.4657,145.3825 Z" fill="rgb(29,30,34)" opacity="0.5"/><path d="M153.5598,300.6385 L201.4773,185.165 C210.6583,163.0404 230.6632,150.6016 255.6792,150.6016 L384.6899,150.6016 C396.7719,150.6016 401.3058,165.5587 394.9018,181.2374 L349.3409,292.7832 C347.3296,297.7071 343.2816,300.6385 338.2086,300.6385 L153.5598,300.6385 Z" fill="rgb(104,174,215)" opacity="0.2"/><path d="M162.8514,300.6385 L210.769,185.165 C218.5601,166.3897 234.2993,155.3148 253.9733,155.3148 L382.984,155.3148 C394.8347,155.3148 400.3126,167.9902 394.9018,181.2374 L349.3409,292.7832 C347.3296,297.7071 343.2816,300.6385 338.2086,300.6385 L162.8514,300.6385 Z" fill="rgb(104,174,215)" opacity="0.4"/><path d="M172.2778,300.6385 L220.1954,185.165 C226.142,170.8347 238.1624,162.3846 253.1878,162.3846 L382.1985,162.3846 C392.695,162.3846 398.8642,171.5364 394.9018,181.2374 L349.3409,292.7832 C347.3296,297.7071 343.2816,300.6385 338.2086,300.6385 L172.2778,300.6385 Z" fill="rgb(255,255,255)" opacity="1"/><path d="M223.13,199.6605 C231.0046,181.2371 241.1779,168.2784 255.3369,168.2392 L383.7696,167.8833 C393.34,167.8568 398.7098,176.6762 394.9018,185.9506 L346.1987,304.5662 C341.7422,315.4199 329.9013,320.2491 314.6426,320.2768 L118.6541,320.6327 C112.4114,320.644 108.1968,316.1128 107.6566,310.4208 C106.9625,303.1082 112.2716,297.0667 120.2251,297.0667 L181.4968,297.0667 L223.13,199.6605 Z" fill="rgb(29,30,34)" opacity="1"/><path d="M306.4417,238.1808 C309.7877,243.4546 315.6367,244.6122 321.9145,242.3167 C321.4959,244.0687 320.6946,245.6643 319.7661,247.1834 C314.7396,255.4075 307.2405,261.1397 298.6768,262.1649 C293.4507,262.7906 288.3716,261.7251 285.4833,258.398 C281.2811,253.5573 282.3233,245.0966 286.4319,237.2241 C290.1991,230.0057 296.8321,224.2762 303.5396,222.1352 C305.6321,221.4673 307.6932,221.1604 309.835,221.4508 C304.6755,226.4725 302.9132,232.6193 306.4417,238.1808 Z" fill="rgb(48,105,139)" opacity="1"/><path d="M303.1898,240.2829 C305.8398,244.6162 310.5413,246.4844 316,245.8345 C311.5921,252.8358 305.6506,257.8196 299.055,258.9055 C294.4463,259.6643 289.9744,258.5418 287.6462,255.5219 C284.4744,251.4076 285.8872,244.585 289.613,238.3006 C292.9494,232.6727 297.9894,228.2321 304.3611,225.5055 C301.058,230.3746 300.3986,235.7188 303.1898,240.2829 Z" fill="rgb(104,174,215)" opacity="1"/><g><path d="M282.5309,49.1613 L282.5309,122.7836 L313.1346,122.7836 C324.1425,122.7836 333.9768,118.7295 340.6235,111.2801 C346.7714,104.3898 349.7654,95.049 349.8263,85.3973 C349.8879,75.6185 346.9595,66.1489 340.6235,59.5144 C333.9038,52.4783 323.8257,49.1613 312.5572,49.1613 L282.5309,49.1613 Z M303.2371,66.4165 L312.4399,66.4165 C322.3493,66.4165 328.8471,74.8789 329.12,85.3973 C329.4082,96.5095 322.7426,105.5284 312.4399,105.5284 L303.2371,105.5284 L303.2371,66.4165 Z" fill="rgb(233,108,76)" opacity="1"/><path d="M373.9836,49.1613 L349.8263,122.7836 L372.2581,122.7836 L375.7091,111.2801 L403.3175,111.2801 L406.7685,122.7836 L428.6252,122.7836 L403.8927,49.1613 L373.9836,49.1613 Z M388.363,65.2661 L390.0885,65.2661 L398.7161,96.3256 L380.3105,96.3256 L388.363,65.2661 Z" fill="rgb(233,108,76)" opacity="1"/><path d="M434.9521,49.1613 L434.9521,122.7836 L455.6584,122.7836 L455.6764,100.927 L464.286,100.927 L475.2143,122.7836 L497.892,122.7836 L483.2667,96.3256 C486.1502,93.9031 488.421,90.9507 490.1688,87.6979 C493.2642,81.9373 494.7255,75.5477 493.8499,69.2924 C493.2208,64.7977 491.4655,60.5611 488.4433,57.2137 C483.6484,51.9029 476.0828,49.1613 467.737,49.1613 L434.9521,49.1613 Z M455.6584,64.691 L465.4363,64.691 C468.4517,64.691 471.1215,65.9752 472.9136,68.142 C474.6186,70.2036 475.4054,72.9133 475.2143,75.6193 C474.9609,79.207 473.07,82.4321 470.0377,84.2469 C467.9266,85.5104 465.3517,85.9724 462.5605,85.9724 L455.6561,85.9724 L455.6584,64.691 Z" fill="rgb(233,108,76)" opacity="1"/><path d="M506.2737,49.1613 L506.2737,122.7836 L525.5319,122.7836 L525.5319,93.4497 L533.0092,93.4497 L550.2644,122.7836 L573.2556,122.7836 L549.1141,84.2469 L570.9459,49.1613 L549.6892,49.1613 L531.8588,77.3448 L525.5319,77.3448 L525.5319,49.1613 L506.2737,49.1613 Z" fill="rgb(233,108,76)" opacity="1"/><path d="M678.2509,49.1613 L678.2509,122.7836 L726.5655,122.7836 L726.5655,105.5284 L697.8068,105.5284 L697.8068,94.6 L723.6897,94.6 L723.6897,77.3448 L697.8068,77.3448 L697.8068,66.4165 L724.8332,66.4165 L724.8332,49.1613 L678.2509,49.1613 Z" fill="rgb(233,108,76)" opacity="1"/><path d="M956.0601,49.1613 L956.0601,122.7836 L976.7664,122.7836 L976.7845,100.927 L985.394,100.927 L996.3223,122.7836 L1019,122.7836 L1004.3748,96.3256 C1007.2582,93.9031 1009.5291,90.9507 1011.2769,87.6979 C1014.3723,81.9373 1015.8336,75.5477 1014.958,69.2924 C1014.3289,64.7977 1012.5736,60.5611 1009.5514,57.2137 C1004.7565,51.9029 997.1909,49.1613 988.8451,49.1613 L956.0601,49.1613 Z M976.7664,64.691 L986.5444,64.691 C989.5597,64.691 992.2296,65.9752 994.0216,68.142 C995.7267,70.2036 996.5135,72.9133 996.3223,75.6193 C996.0689,79.207 994.1781,82.4321 991.1458,84.2469 C989.0346,85.5104 986.4598,85.9724 983.6685,85.9724 L976.7642,85.9724 L976.7664,64.691 Z" fill="rgb(233,108,76)" opacity="1"/><path d="M607.5044,49.1613 L607.5044,122.7836 L628.2107,122.7836 L628.2287,100.927 L636.8383,100.927 L647.7666,122.7836 L670.4443,122.7836 L655.8191,96.3256 C658.7025,93.9031 660.9734,90.9507 662.7212,87.6979 C665.8165,81.9373 667.2778,75.5477 666.4023,69.2924 C665.7732,64.7977 664.0179,60.5611 660.9956,57.2137 C656.2008,51.9029 648.6351,49.1613 640.2894,49.1613 L607.5044,49.1613 Z M628.2107,64.691 L637.9887,64.691 C641.004,64.691 643.6739,65.9752 645.4659,68.142 C647.1709,70.2036 647.9578,72.9133 647.7666,75.6193 C647.5132,79.207 645.6224,82.4321 642.5901,84.2469 C640.4789,85.5104 637.9041,85.9724 635.1128,85.9724 L628.2084,85.9724 L628.2107,64.691 Z" fill="rgb(233,108,76)" opacity="1"/><path d="M755.3242,49.1613 L731.1669,122.7836 L753.5987,122.7836 L757.0498,111.2801 L784.6581,111.2801 L788.1092,122.7836 L809.9658,122.7836 L785.2333,49.1613 L755.3242,49.1613 Z M769.7036,65.2661 L771.4291,65.2661 L780.0567,96.3256 L761.6512,96.3256 L769.7036,65.2661 Z" fill="rgb(233,108,76)" opacity="1"/><path d="M817.4431,49.1613 L817.4431,122.7836 L848.0469,122.7836 C859.0548,122.7836 868.889,118.7295 875.5357,111.2801 C881.6836,104.3898 884.6776,95.049 884.7385,85.3973 C884.8002,75.6185 881.8718,66.1489 875.5357,59.5144 C868.8161,52.4783 858.7379,49.1613 847.4694,49.1613 L817.4431,49.1613 Z M838.1494,66.4165 L847.3522,66.4165 C857.2615,66.4165 863.7594,74.8789 864.0322,85.3973 C864.3205,96.5095 857.6549,105.5284 847.3522,105.5284 L838.1494,105.5284 L838.1494,66.4165 Z" fill="rgb(233,108,76)" opacity="1"/><path d="M895.6668,49.1613 L895.6668,122.7836 L943.9815,122.7836 L943.9815,105.5284 L915.2227,105.5284 L915.2227,94.6 L941.1056,94.6 L941.1056,77.3448 L915.2227,77.3448 L915.2227,66.4165 L942.2492,66.4165 L942.2492,49.1613 L895.6668,49.1613 Z" fill="rgb(233,108,76)" opacity="1"/></g><path d="M477.1138,184.4187 L463.9037,184.4187 L463.9037,230.2042 L456.0439,230.2042 L456.0439,184.4187 L446.7637,184.4187 L446.7637,178.3108 L456.0439,178.3108 L456.0439,175.1385 C456.0439,168.905 457.999,163.3276 462,159.846 C464.916,157.3085 468.7552,156.0504 472.7578,156.0099 C475.3612,155.9836 477.9707,156.4813 480.3808,157.6671 L480.3808,163.9644 C477.8988,162.7606 475.2375,162.2654 472.6157,162.4966 C470.0134,162.726 467.5512,163.6419 466.0344,165.4558 C464.1834,167.6695 463.9037,171.0905 463.9037,174.9491 L463.9037,178.3108 L477.1138,178.3108 L477.1138,184.4187 Z M531.3746,204.2102 C531.4355,211.7249 529.6193,218.9984 524.9827,224.0253 C520.6362,228.7376 514.1472,231.1483 507.3218,231.1512 C502.957,231.1531 498.6299,230.1305 494.964,227.8842 C491.3624,225.6773 488.5125,222.3671 486.6308,218.5093 C484.4988,214.1385 483.6889,209.201 483.6952,204.2102 C483.7046,196.6898 485.4579,189.4438 490.0398,184.4424 C494.3839,179.7005 500.8965,177.2882 507.6533,177.3638 C514.2917,177.4381 520.6662,179.9119 524.959,184.6081 C529.5362,189.6155 531.3711,196.7979 531.3746,204.2102 Z M491.839,204.2102 C491.8282,209.9459 492.6422,215.5204 495.8163,219.3615 C498.6048,222.7362 502.9633,224.5644 507.5112,224.5698 C512.062,224.5753 516.4307,222.757 519.2299,219.3852 C522.4193,215.5434 523.2385,209.9576 523.2308,204.2102 C523.2231,198.51 522.4041,192.9712 519.2299,189.1772 C516.4163,185.8142 512.0084,184.0323 507.4165,184.0399 C502.8869,184.0474 498.5406,185.7963 495.7689,189.1062 C492.5917,192.9002 491.806,198.4748 491.839,204.2102 Z M568.8269,177.3638 C570.5423,177.2872 572.2666,177.4421 573.9405,177.932 L573.9405,185.2236 C572.1012,184.5327 570.1665,184.3659 568.2587,184.5134 C564.0885,184.8359 560.2314,186.6342 557.4871,189.627 C554.477,192.9096 553.0127,197.4114 553.0127,202.3636 L553.0127,230.2042 L545.1529,230.2042 L545.1529,178.3108 L551.6396,178.3108 L552.5392,187.9225 L552.918,187.9225 C554.5663,184.6612 556.9137,181.9591 559.8781,180.11 C562.5553,178.4401 565.6369,177.5063 568.8269,177.3638 Z M650.1708,211.7859 C650.1537,217.3367 647.7132,222.5879 643.5421,226.0376 C638.8726,229.8995 632.3145,231.0582 625.5499,231.1512 C619.123,231.2396 612.786,230.124 606.6106,227.9789 L606.6106,220.2138 C609.6293,221.4275 612.7129,222.4147 615.8909,223.0547 C619.1751,223.7161 622.4928,224.0875 625.8339,224.0963 C630.4289,224.1086 634.8863,223.5206 637.955,221.0424 C640.4561,219.0226 641.8994,215.8837 642.027,212.5434 C642.1063,210.4664 641.6701,208.3691 640.5829,206.6486 C639.4624,204.8755 637.73,203.5415 635.7534,202.411 C632.6434,200.6322 629.0016,199.3405 625.4552,198.0076 C620.1243,196.0041 614.993,193.7036 611.6532,189.8164 C608.7506,186.438 607.3354,181.9431 607.5103,177.4585 C607.7031,172.5141 609.8643,167.8501 613.5235,164.7219 C617.6577,161.1876 623.4586,159.9714 629.4324,159.9871 C635.0965,160.002 640.6516,161.3007 645.9095,163.775 L645.9095,170.7825 C640.4044,168.6301 634.8342,167.1694 629.243,167.184 C625.4482,167.1939 621.7958,167.8046 619.2526,169.9302 C617.0726,171.7522 615.8227,174.559 615.6541,177.5532 C615.538,179.6148 615.938,181.7067 616.9799,183.4481 C618.0149,185.178 619.6071,186.5272 621.4543,187.662 C624.3229,189.4244 627.7326,190.6884 631.0896,191.8997 C636.8769,193.988 642.5382,196.1997 646.0752,200.2329 C648.8366,203.3818 650.1838,207.5756 650.1708,211.7859 Z M695.0568,230.2042 L693.4943,222.818 L693.1155,222.818 C691.147,225.7705 688.4858,228.0411 685.3741,229.423 C682.3913,230.7477 679.0769,231.2243 675.7388,231.1512 C671.137,231.0505 666.6943,229.9667 663.6413,227.174 C660.6105,224.4014 659.1315,220.1829 659.2616,215.8578 C659.4035,211.145 661.4022,206.6885 665,203.846 C669.6392,200.1806 676.6168,199.6319 684.4034,199.3807 L693.2102,199.0966 L693.2102,195.8769 C693.2102,192.1844 692.5768,188.9208 690.5824,186.8571 C688.6284,184.8353 685.5181,184.0771 682.1781,183.9452 C676.6278,183.726 670.801,185.4205 665.0855,187.9225 L665.0855,181.9093 C667.766,180.4914 670.571,179.3818 673.4897,178.6422 C676.4942,177.881 679.5639,177.4746 682.6516,177.4585 C687.96,177.431 693.0864,178.4227 696.4062,181.5778 C699.5757,184.5901 700.8806,189.3627 700.8806,194.7879 L700.8806,230.2042 L695.0568,230.2042 Z M677.3012,224.6645 C681.6987,224.74 685.9161,223.4814 688.8305,220.6399 C691.6424,217.8984 693.0208,213.8766 693.0208,209.3711 L693.0208,204.6837 L685.161,205.0151 C679.7906,205.2416 674.9583,205.5033 671.6432,207.927 C669.0779,209.8025 667.5626,212.7767 667.5002,215.9525 C667.4514,218.4377 668.3204,220.8733 670.0807,222.4392 C671.9018,224.0592 674.5725,224.6177 677.3012,224.6645 Z M740.4635,184.4187 L727.2534,184.4187 L727.2534,230.2042 L719.3936,230.2042 L719.3936,184.4187 L710.1134,184.4187 L710.1134,178.3108 L719.3936,178.3108 L719.3936,175.1385 C719.3936,169.4452 720.7096,164.3295 724,160.846 C727.0069,157.6626 731.4338,156.0517 736.1075,156.0099 C738.7127,155.9866 741.3239,156.4676 743.7305,157.6671 L743.7305,163.9644 C741.2485,162.7606 738.5872,162.2654 735.9654,162.4966 C733.3631,162.726 730.9009,163.6419 729.3841,165.4558 C727.5331,167.6695 727.2534,171.0905 727.2534,174.9491 L727.2534,178.3108 L740.4635,178.3108 L740.4635,184.4187 Z M781.8457,230.2042 L780.2832,222.818 L779.9044,222.818 C777.9355,225.7701 775.2747,228.0408 772.163,229.423 C769.1801,230.748 765.8657,231.2253 762.5277,231.1512 C757.9296,231.0491 753.4894,229.9636 750.4303,227.174 C747.39,224.4016 745.893,220.1868 746.0506,215.8578 C746.2035,211.6574 747.8659,207.6488 751,204.846 C755.5887,200.7424 762.9764,199.6457 771.1924,199.3807 L779.9991,199.0966 L779.9991,195.8769 C779.9991,192.1844 779.3657,188.9208 777.3713,186.8571 C775.4173,184.8353 772.307,184.0771 768.967,183.9452 C763.4167,183.726 757.5899,185.4205 751.8744,187.9225 L751.8744,181.9093 C754.5549,180.4914 757.3599,179.3818 760.2787,178.6422 C763.2832,177.881 766.3529,177.4746 769.4405,177.4585 C774.749,177.431 779.8753,178.4227 783.1951,181.5778 C786.3646,184.5901 787.6695,189.3627 787.6695,194.7879 L787.6695,230.2042 L781.8457,230.2042 Z M764.0902,224.6645 C768.4876,224.74 772.705,223.4814 775.6194,220.6399 C778.4313,217.8984 779.8097,213.8766 779.8097,209.3711 L779.8097,204.6837 L771.9499,205.0151 C766.5796,205.2416 761.7472,205.5033 758.4321,207.927 C755.8668,209.8025 754.3515,212.7767 754.2891,215.9525 C754.2403,218.4377 755.1093,220.8733 756.8696,222.4392 C758.6908,224.0592 761.3614,224.6177 764.0902,224.6645 Z M827.5365,177.3638 C829.2519,177.2872 830.9762,177.4421 832.6501,177.932 L832.6501,185.2236 C830.8108,184.5327 828.8761,184.3659 826.9683,184.5134 C822.7981,184.8359 818.941,186.6342 816.1967,189.627 C813.1866,192.9096 811.7223,197.4114 811.7223,202.3636 L811.7223,230.2042 L803.8625,230.2042 L803.8625,178.3108 L810.3492,178.3108 L811.2488,187.9225 L811.6276,187.9225 C813.2759,184.6612 815.6233,181.9591 818.5877,180.11 C821.2649,178.4401 824.3465,177.5063 827.5365,177.3638 Z M851.3052,230.2042 L843.4455,230.2042 L843.4455,178.3108 L851.3052,178.3108 L851.3052,230.2042 Z M842.7826,164.2484 C842.7743,162.7328 843.1511,161.2679 844.1083,160.2949 C844.9448,159.4446 846.1636,159.0279 847.4227,159.0402 C848.6607,159.0522 849.8558,159.4789 850.6897,160.3186 C851.6567,161.2921 852.0619,162.7446 852.0628,164.2484 C852.0637,165.7576 851.6572,167.2157 850.6897,168.202 C849.8547,169.0533 848.66,169.4959 847.4227,169.5041 C846.1627,169.5124 844.9452,169.07 844.1083,168.202 C843.1582,167.2166 842.7784,165.7576 842.7826,164.2484 Z" fill="rgb(233,108,76)" opacity="1"/></g></svg>