<svg viewBox="0 0 2048 512" xmlns="http://www.w3.org/2000/svg"><defs><linearGradient x1="164.3988" y1="134.6885" x2="163.2501" y2="228.8794" id="gradient10758" gradientUnits="userSpaceOnUse"><stop offset="0%" stop-color="rgb(20,30,36)"/><stop offset="100%" stop-color="rgb(233,108,76)"/></linearGradient><linearGradient x1="312.6847" y1="140.5063" x2="313.8369" y2="229.2276" id="gradient10759" gradientUnits="userSpaceOnUse"><stop offset="0%" stop-color="rgb(20,30,36)"/><stop offset="100%" stop-color="rgb(233,108,76)"/></linearGradient></defs><g><path d="M-34,-22 L2066,-22 L2066,559 L-34,559 L-34,-22 Z" fill="rgb(20,30,36)" opacity="1"/></g><g><g><path d="M210.7531,277.2948 C267.3241,279.8765 320.1932,297.5643 347.0572,335.6758 C365.7567,362.2045 370.4898,395.4256 357.9182,423.1627 C340.503,461.5864 292.7855,482.9272 234.806,482.9272 L67.4198,482.9272 C38.997,482.9272 16.4146,462.4897 7.8584,433.528 C2.7546,416.2521 3.4585,397.2096 9.3414,379.417 C14.9743,362.3805 24.3996,347.2559 38.4609,333.7158 C76.4684,297.1171 143.4039,274.2213 210.7531,277.2948 Z" fill="rgb(20,30,36)" opacity="1"/><path d="M51.835,325.9184 C42.957,336.4661 35.671,348.0524 29.9725,360.4465 C22.2533,377.2352 17.3577,395.0317 17.5757,413.0326 C17.7614,428.3652 21.6613,443.4936 27.8736,457.8609 C29.8539,462.4408 32.0636,466.9234 34.7362,471.1597 C29.9585,468.402 25.9238,464.7077 22.3002,460.6476 C12.1572,449.2826 5.7817,435.2455 4.3332,420.2558 C3.5636,412.2922 4.1943,404.1806 5.537,396.1784 C8.129,380.731 13.0476,365.908 21.5454,353.2233 C29.1435,341.8816 39.4105,332.5127 51.835,325.9184 Z" fill="rgb(49,110,125)" opacity="1"/><path d="M178.204,442.6491 C181.5323,445.366 181.7328,451.776 185.1799,454.4409 C188.3429,456.8862 193.2614,456.3527 197.0644,453.2581 C199.6329,451.1682 201.2582,448.002 201.8386,444.4889 C202.1632,442.5236 202.1484,440.5016 201.6127,438.5299 C203.3901,440.2879 204.7452,442.411 205.7568,444.6495 C207.2309,447.9117 207.826,451.4912 210.031,453.2581 C211.8006,454.6762 214.4185,454.9244 217.0068,454.4409 C219.7232,453.9335 222.2192,452.6773 223.8836,450.5469 C226.5426,447.1435 226.8491,441.9462 225.277,436.6135 C228.3585,439.6321 231.2735,442.8871 233.6371,446.3669 C235.1231,448.5547 236.3127,450.8099 238.2248,452.0834 C241.8972,454.5292 247.1399,453.6098 249.981,449.7445 C252.381,446.4791 252.4908,441.7209 251.171,436.6451 C248.4671,426.2468 240.1784,416.1997 229.457,410.14 C216.5672,402.8546 201.1365,400.924 185.1722,401.3926 C177.1005,401.6295 169.1001,402.4545 161.5967,404.9289 C150.854,408.4716 141.5049,415.1216 134.7096,424.0734 C129.0966,431.4679 125.5065,439.6981 127.7429,446.3669 C130.2519,453.8483 138.4667,457.864 147.2497,454.727 C159.5512,443.247 172.4773,437.9744 178.204,442.6491 Z" fill="rgb(139,188,199)" opacity="1"/><path d="M163.9699,418.5 C168.96,420.5843 172.3957,425.5323 175.1166,431.0401 C177.0079,434.8686 178.5039,438.8933 179.3825,443.1249 C175.6011,444.6399 172.0392,446.6665 168.7735,449.0188 C166.0102,451.0092 163.5068,453.3397 160.522,454.9127 C156.0307,457.2796 150.595,457.9596 145.0983,457.9544 C139.1474,457.9487 133.3981,457.1532 129.8762,453.7877 C126.7477,450.7981 125.5403,446.0804 126.3379,441.4704 C127.3034,435.8898 131.2631,430.9779 136.103,426.8601 C145.195,419.1246 155.9475,415.1492 163.9699,418.5 Z" fill="rgb(49,110,125)" opacity="1"/><path d="M55.1477,321.1946 L74.1844,180.6863 C77.9373,152.9863 81.4932,126.0318 91.4898,101.5321 C100.6064,79.189 114.7222,59.3719 133.9271,46.4253 C155.9117,31.6047 183.7987,26.5087 212.2635,26.0348 C241.4461,25.549 270.1926,30.07 291.7525,44.8197 C306.8398,55.1414 317.9135,70.1796 325.9002,87.1473 C338.1619,113.1968 342.3839,142.9889 339.6368,173.4631 L325.9616,325.1676 C287.7245,331.5956 249.1327,334.4458 210.4293,334.5329 C158.6565,334.6494 106.7008,329.6823 55.1477,321.1946 Z" fill="rgb(20,30,36)" opacity="1"/><path d="M144.5167,40.5549 C134.9879,52.981 127.6905,66.7412 121.7621,81.7663 C111.1841,108.576 105.7756,139.7714 96.9801,170.2389 L56.6327,310.0014 L75.3177,167.4896 C80.1504,130.6303 89.6592,95.5859 108.1133,70.6621 C117.8744,57.4789 129.8303,47.1982 144.5167,40.5549 Z" fill="rgb(49,110,125)" opacity="1"/><path d="M240.3773,28.3035 C216.5099,27.4362 193.0216,34.6557 175.9222,50.0702 C159.5497,64.8294 150.1558,86.614 143.0777,109.5627 C134.9476,135.9221 130.84,163.2125 129.3021,191.1085 L188.2442,201.7372 C200.5715,184.8509 217.9479,175.282 237.3451,175.115 C258.2175,174.9352 276.9234,185.6053 290.6613,203.8831 L339.3376,186.321 C342.149,161.4496 341.269,136.8186 335.4051,113.0814 C330.2685,92.2882 321.8273,72.6477 307.8435,57.8228 C290.5447,39.4834 266.0695,29.2371 240.3773,28.3035 Z" fill="rgb(49,110,125)" opacity="1"/><path d="M252.5516,299.3802 L252.0293,309.052 C251.8098,313.1156 248.2636,315.7245 243.8721,316.0066 C239.2442,316.3038 235.5195,314.063 235.715,310.4429 L236.2373,300.7711 C236.4983,295.939 240.0058,292.705 244.3945,292.4256 C249.0236,292.1309 252.7871,295.019 252.5516,299.3802 Z" fill="rgb(49,110,125)" opacity="1"/><path d="M224.3925,299.6251 L223.8702,309.2968 C223.6507,313.3604 220.1045,315.9694 215.713,316.2514 C211.085,316.5487 207.3604,314.3078 207.5559,310.6877 L208.0782,301.016 C208.3392,296.1838 211.8467,292.9498 216.2354,292.6705 C220.8645,292.3758 224.628,295.2639 224.3925,299.6251 Z" fill="rgb(49,110,125)" opacity="1"/><path d="M196.21,298.6556 L195.7228,306.0035 C195.4239,310.5108 191.6646,313.4053 187.0521,313.4645 C182.6638,313.5208 179.1631,311.096 179.4085,307.3944 L179.8958,300.0466 C180.2161,295.2148 183.7041,291.9983 188.0529,291.701 C192.7204,291.382 196.4992,294.2948 196.21,298.6556 Z" fill="rgb(49,110,125)" opacity="1"/><path d="M279.1947,298.5617 L278.7074,305.9095 C278.4086,310.4169 274.6492,313.3114 270.0367,313.3705 C265.6485,313.4268 262.1477,311.002 262.3932,307.3005 L262.8804,299.9526 C263.2008,295.1209 266.6888,291.9043 271.0375,291.6071 C275.705,291.288 279.4838,294.2008 279.1947,298.5617 Z" fill="rgb(49,110,125)" opacity="1"/><path d="M212.8039,159.7083 C219.8677,156.8745 227.2831,155.4369 234.7514,155.3554 C242.8442,155.2669 250.9009,156.7718 258.6434,159.6864 C275.5752,138.4556 300.7349,130.633 324.9738,134.9321 C359.1867,141.0004 384.123,167.7383 385.8599,199.8164 C387.7342,234.4332 363.0837,264.723 326.8704,270.8446 C303.327,274.8244 278.658,266.546 263.0655,247.9711 C250.9956,233.5926 245.7238,214.3311 250.8084,194.5102 C247.7741,193.166 244.5497,192.4898 241.2809,192.3556 C236.8603,192.174 232.3802,193.0079 228.0393,194.532 C231.7103,218.6368 222.8756,240.6372 206.2745,255.4736 C185.3848,274.1425 155.9729,279.2085 130.0976,268.5325 C107.2223,259.0942 90.4489,238.5226 86.5679,214.1204 C82.9157,191.1568 91.2887,167.5733 108.3327,151.0024 C125.1681,134.6343 148.6768,127.0998 171.4507,131.414 C188.1797,134.5832 203.245,144.1239 212.8039,159.7083 Z" fill="rgb(233,108,76)" opacity="0.2"/><path d="M210.6274,166.2378 C218.9446,162.1078 227.8761,159.9411 236.9279,159.7083 C246.824,159.4538 256.6801,161.514 266.035,165.5803 C281.1413,144.308 305.0947,136.0896 328.0743,140.827 C356.8495,146.7592 377.7435,170.4955 379.8405,198.6126 C382.3483,232.2366 359.0605,261.3767 324.4627,266.0291 C304.1883,268.7554 283.0222,261.3177 269.0848,245.5634 C256.0762,230.8588 250.9186,210.5036 256.7023,189.7951 C251.8673,187.248 246.6086,185.9745 241.2809,185.8261 C234.5843,185.6396 227.8743,187.2486 221.5098,190.1791 C226.2988,214.0253 218.3472,236.301 201.9215,251.1206 C183.493,267.7471 157.533,272.8781 134.4505,264.1795 C112.911,256.0624 97.0279,236.9863 93.0974,214.1204 C89.415,192.6983 96.8297,170.5971 112.6857,155.3554 C127.7033,140.9195 148.7209,134.3532 169.2743,137.9435 C186.0409,140.8723 201.1222,150.5411 210.6274,166.2378 Z" fill="rgb(233,108,76)" opacity="0.2"/><path d="M321.5916,146.381 C351.555,148.639 374.9845,174.4566 373.7765,205.3726 C372.6543,234.0954 350.0832,257.5691 321.5916,259.8264 C289.7949,262.3457 262.7854,238.5933 260.3311,207.6415 C257.5236,172.2357 286.2132,143.5133 321.5916,146.381 Z" fill="rgb(255,255,255)" opacity="1"/><path d="M157.6999,143.1837 C191.0369,143.1177 217.715,170.5001 216.4649,204.1252 C215.2951,235.5916 189.4391,260.7138 157.6999,260.7138 C125.9607,260.7138 100.1047,235.5916 98.9348,204.1252 C97.6847,170.5001 124.3629,143.1177 157.6999,143.1837 Z" fill="rgb(255,255,255)" opacity="1"/><path d="M239.1444,170.384 C251.5092,170.3002 263.6358,173.8145 274.5008,180.717 L269.6325,195.3221 C260.88,189.3476 250.9878,186.1139 240.8055,185.7622 C229.8599,185.3841 219.04,188.3431 209.1544,194.1444 L202.1095,181.9734 C213.4784,174.5242 226.1439,170.472 239.1444,170.384 Z" fill="rgb(255,255,255)" opacity="1"/><path d="M157.9559,158.5866 C181.836,158.5926 201.5406,175.9626 203.6431,198.0438 C206.2861,225.8016 182.7507,248.3773 153.8025,245.8077 C128.9181,243.5988 109.9529,222.4426 112.2687,198.0438 C114.3817,175.7819 134.1586,158.5526 157.9559,158.5866 Z" fill="url(#gradient10758)" opacity="1"/><path d="M321.8842,162.3082 C344.5938,164.3838 362.1424,183.3744 360.9726,205.7398 C359.9039,226.174 343.0076,242.8043 321.8842,244.8282 C296.6057,247.2502 275.3347,229.1942 274.1095,205.7398 C272.7716,180.1307 294.9641,159.6419 321.8842,162.3082 Z" fill="url(#gradient10759)" opacity="1"/><path d="M178.9173,180.9216 C188.0624,180.6135 196.6368,184.4642 203.1754,191.8028 L188.7358,188.494 C188.675,200.0849 182.8099,208.5849 175.1914,208.1551 C168.364,207.7699 163.5363,200.3199 164.2327,190.5124 L153.1163,195.2554 C159.8451,186.5298 168.8607,181.2604 178.9173,180.9216 Z" fill="rgb(20,30,36)" opacity="0.1"/><path d="M294.6397,179.5651 C303.5516,179.4855 311.7536,183.5689 317.7094,191.0999 L304.3606,186.5579 C305.0116,197.3975 299.9017,205.6631 292.6276,205.6817 C285.9506,205.6988 280.8922,198.6915 281.1391,189.1381 L268.6863,193.9836 C275.434,185.0323 284.5287,179.6553 294.6397,179.5651 Z" fill="rgb(20,30,36)" opacity="0.1"/><path d="M123.033,230.004 L137.657,191.4497 C139.2026,187.3749 142.0204,184.8024 145.6338,184.8024 L198.8122,184.8024 C192.4613,171.9145 181.2082,163.7206 168.2346,160.8721 C150.493,156.9767 132.5939,162.8525 121.7035,176.8256 C115.3981,184.916 112.1773,195.1921 112.8507,205.6041 C113.4232,214.4555 116.7856,223.0347 123.033,230.004 Z" fill="rgb(20,30,36)" opacity="0.5"/><path d="M284.8124,230.4909 L298.9886,195.5907 C300.7186,191.3318 303.6188,188.6288 307.3299,188.6396 L357.103,188.7848 C351.8686,175.294 340.8681,166.6915 327.9087,163.7611 C308.0431,159.2691 288.6772,167.5826 279.2516,184.6142 C271.2632,199.0486 272.8434,216.5982 284.8124,230.4909 Z" fill="rgb(20,30,36)" opacity="0.5"/><path d="M229.1572,460.3308 L297.4627,287.0507 C310.5741,253.7891 340.7689,235.1846 378.7982,235.1846 L564.5763,235.1846 C582.3867,235.1846 589.0684,257.4633 579.9004,281.1568 L515.1312,448.543 C512.2662,455.9473 506.1447,460.3308 498.4261,460.3308 L229.1572,460.3308 Z" fill="rgb(139,188,199)" opacity="0.2"/><path d="M243.1002,460.3308 L311.4057,287.0507 C322.5346,258.8184 346.3223,242.2572 376.2384,242.2572 L562.0165,242.2572 C579.5815,242.2572 587.65,261.1291 579.9004,281.1568 L515.1312,448.543 C512.2662,455.9473 506.1447,460.3308 498.4261,460.3308 L243.1002,460.3308 Z" fill="rgb(139,188,199)" opacity="0.4"/><path d="M257.2456,460.3308 L325.551,287.0507 C334.0452,265.5023 352.2123,252.8662 375.0596,252.8662 L560.8377,252.8662 C576.4287,252.8662 585.579,266.4813 579.9004,281.1568 L515.1312,448.543 C512.2662,455.9473 506.1447,460.3308 498.4261,460.3308 L257.2456,460.3308 Z" fill="rgb(255,255,255)" opacity="1"/><path d="M329.9548,308.8027 C341.1613,280.9806 356.7508,261.7139 378.2846,261.6517 L563.1952,261.1176 C577.4135,261.0766 585.3741,274.2075 579.9004,288.2295 L510.4161,466.2247 C504.7816,480.6585 484.9176,482.8204 460.3347,482.8204 L174.0494,482.8204 C170.7854,482.8204 167.9342,481.8904 166.0902,479.8922 C163.8013,477.412 163.2568,473.4874 163.2947,469.4383 C163.3316,465.4994 163.9138,461.6738 166.0845,458.9767 C168.1958,456.3533 171.6197,454.9709 175.5352,454.9709 L271.0796,454.9709 L329.9548,308.8027 Z" fill="rgb(20,30,36)" opacity="1"/><path d="M455.0983,366.888 C460.1435,374.1199 468.5281,376.7332 477.8679,374.6661 C477.3145,377.327 476.0889,379.7238 474.6439,381.9691 C468.2416,391.9174 458.4434,398.4798 447.3212,399.4403 C440.0329,400.0696 432.7601,398.3241 427.523,393.7875 C419.0631,386.4593 416.7355,373.7869 421.2547,362.309 C425.4183,351.734 435.1083,344.1015 447.1511,340.7892 C450.2149,339.9466 453.3781,339.4351 456.5979,339.7622 C450.5737,348.9504 449.5039,358.8687 455.0983,366.888 Z" fill="rgb(49,110,125)" opacity="1"/><path d="M450.2184,370.0424 C454.3412,376.156 461.0354,379.6776 468.9925,379.9449 C463.6249,388.0156 456.1568,393.4663 447.8888,394.5492 C441.5627,395.3777 435.2141,393.6128 430.7686,389.4716 C424.1768,383.331 422.6089,373.1901 426.0281,363.9245 C429.4439,354.6683 437.5727,347.9781 448.3837,345.8467 C445.1645,354.4984 445.5728,363.1534 450.2184,370.0424 Z" fill="rgb(139,188,199)" opacity="1"/></g></g><g><path d="M399,41.7004 L399,205.1459 L466.942,205.1459 C491.3801,205.1459 513.2126,196.1455 527.9687,179.6075 C541.6173,164.3106 548.2642,143.5736 548.3993,122.1462 C548.5362,100.4369 542.0351,79.4138 527.9687,64.6849 C513.0507,49.0644 490.6766,41.7004 465.6601,41.7004 L399,41.7004 Z M444.969,80.008 L465.3997,80.008 C487.3989,80.008 501.8246,98.795 502.4303,122.1462 C503.0703,146.816 488.2723,166.8383 465.3997,166.8383 L444.969,166.8383 L444.969,80.008 Z M602.0299,41.7004 L548.3993,205.1459 L598.1991,205.1459 L605.8606,179.6075 L667.1526,179.6075 L674.8141,205.1459 L723.337,205.1459 L668.4296,41.7004 L602.0299,41.7004 Z M633.9528,77.4541 L637.7835,77.4541 L656.9373,146.4077 L616.0759,146.4077 L633.9528,77.4541 Z M737.3831,41.7004 L737.3831,205.1459 L783.3521,205.1459 L783.3922,156.623 L802.5059,156.623 L826.7673,205.1459 L877.1129,205.1459 L844.6441,146.4077 C851.0455,141.0295 856.087,134.4751 859.9672,127.2539 C866.8391,114.4649 870.0832,100.2797 868.1394,86.3925 C866.7427,76.4142 862.8459,67.0087 856.1364,59.5773 C845.4916,47.7871 828.6955,41.7004 810.1674,41.7004 L737.3831,41.7004 Z M783.3521,76.1772 L805.0597,76.1772 C811.754,76.1772 817.6812,79.0282 821.6596,83.8387 C825.4449,88.4156 827.1917,94.4312 826.7673,100.4386 C826.2047,108.4037 822.007,115.5634 815.275,119.5924 C810.5882,122.3974 804.8719,123.4231 798.6751,123.4231 L783.3471,123.4231 L783.3521,76.1772 Z M895.7208,41.7004 L895.7208,205.1459 L938.475,205.1459 L938.475,140.0231 L955.075,140.0231 L993.3825,205.1459 L1044.4241,205.1459 L990.8286,119.5924 L1039.2964,41.7004 L992.1056,41.7004 L952.5211,104.2694 L938.475,104.2694 L938.475,41.7004 L895.7208,41.7004 Z M1277.5191,41.7004 L1277.5191,205.1459 L1384.7802,205.1459 L1384.7802,166.8383 L1320.9343,166.8383 L1320.9343,142.5769 L1378.3956,142.5769 L1378.3956,104.2694 L1320.9343,104.2694 L1320.9343,80.008 L1380.9344,80.008 L1380.9344,41.7004 L1277.5191,41.7004 Z M1894.2702,41.7004 L1894.2702,205.1459 L1940.2392,205.1459 L1940.2793,156.623 L1959.393,156.623 L1983.6544,205.1459 L2034,205.1459 L2001.5312,146.4077 C2007.9326,141.0295 2012.9741,134.4751 2016.8543,127.2539 C2023.7262,114.4649 2026.9703,100.2797 2025.0265,86.3925 C2023.6298,76.4142 2019.733,67.0087 2013.0235,59.5773 C2002.3787,47.7871 1985.5826,41.7004 1967.0545,41.7004 L1894.2702,41.7004 Z M1940.2392,76.1772 L1961.9468,76.1772 C1968.6411,76.1772 1974.5683,79.0282 1978.5467,83.8387 C1982.332,88.4156 1984.0788,94.4312 1983.6544,100.4386 C1983.0918,108.4037 1978.8941,115.5634 1972.1621,119.5924 C1967.4753,122.3974 1961.759,123.4231 1955.5622,123.4231 L1940.2342,123.4231 L1940.2392,76.1772 Z M1120.4583,41.7004 L1120.4583,205.1459 L1166.4273,205.1459 L1166.4674,156.623 L1185.5811,156.623 L1209.8425,205.1459 L1260.1881,205.1459 L1227.7193,146.4077 C1234.1207,141.0295 1239.1622,134.4751 1243.0424,127.2539 C1249.9143,114.4649 1253.1584,100.2797 1251.2146,86.3925 C1249.8179,76.4142 1245.9211,67.0087 1239.2116,59.5773 C1228.5668,47.7871 1211.7707,41.7004 1193.2426,41.7004 L1120.4583,41.7004 Z M1166.4273,76.1772 L1188.1349,76.1772 C1194.8292,76.1772 1200.7564,79.0282 1204.7348,83.8387 C1208.5201,88.4156 1210.2669,94.4312 1209.8425,100.4386 C1209.2799,108.4037 1205.0822,115.5634 1198.3502,119.5924 C1193.6634,122.3974 1187.9471,123.4231 1181.7503,123.4231 L1166.4223,123.4231 L1166.4273,76.1772 Z M1448.626,41.7004 L1394.9955,205.1459 L1444.7953,205.1459 L1452.4568,179.6075 L1513.7488,179.6075 L1521.4103,205.1459 L1569.9332,205.1459 L1515.0257,41.7004 L1448.626,41.7004 Z M1480.549,77.4541 L1484.3797,77.4541 L1503.5335,146.4077 L1462.6721,146.4077 L1480.549,77.4541 Z M1586.5331,41.7004 L1586.5331,205.1459 L1654.4751,205.1459 C1678.9132,205.1459 1700.7457,196.1455 1715.5018,179.6075 C1729.1504,164.3106 1735.7973,143.5736 1735.9324,122.1462 C1736.0694,100.4369 1729.5682,79.4138 1715.5018,64.6849 C1700.5838,49.0644 1678.2097,41.7004 1653.1932,41.7004 L1586.5331,41.7004 Z M1632.5021,80.008 L1652.9328,80.008 C1674.932,80.008 1689.3577,98.795 1689.9634,122.1462 C1690.6034,146.816 1675.8054,166.8383 1652.9328,166.8383 L1632.5021,166.8383 L1632.5021,80.008 Z M1760.1939,41.7004 L1760.1939,205.1459 L1867.4549,205.1459 L1867.4549,166.8383 L1803.6091,166.8383 L1803.6091,142.5769 L1861.0703,142.5769 L1861.0703,104.2694 L1803.6091,104.2694 L1803.6091,80.008 L1863.6092,80.008 L1863.6092,41.7004 L1760.1939,41.7004 Z" fill="rgb(233,108,76)" opacity="1"/></g><g><path d="M634,273.7619 L677.6101,273.7619 C694.8362,273.7619 710.2823,275.3931 720.8939,283.7672 C729.9065,290.8795 734.8933,302.1373 734.7056,314.0006 C734.572,322.4423 731.7257,330.7111 726.2772,337.0019 C720.3019,343.901 711.5595,348.1497 701.6446,348.8017 L701.6446,349.4542 C712.8977,349.3931 722.9586,353.7601 729.6485,361.4714 C735.6254,368.3608 738.5213,377.6264 738.6207,387.0828 C738.7587,400.2123 733.602,412.6992 724.0477,420.9051 C713.7556,429.7448 699.0364,432.7592 682.7215,432.7592 L634,432.7592 L634,273.7619 Z M645.0928,344.5603 L680.1114,344.5603 C693.1509,344.5603 704.8026,343.4327 712.683,337.1107 C719.495,331.6458 723.0949,322.865 722.8515,313.7831 C722.607,304.6628 718.5066,296.0369 711.378,290.7274 C702.9052,284.4168 690.7233,283.5497 677.1751,283.5497 L645.0928,283.5497 L645.0928,344.5603 Z M645.0928,354.3481 L645.0928,422.9714 L682.504,422.9714 C709.066,422.9714 727.7964,406.5885 726.6578,387.0828 C725.5821,368.6538 706.4506,354.3481 680.1114,354.3481 L645.0928,354.3481 Z M781.687,432.7592 L770.9204,432.7592 L770.9204,263.5391 L781.687,263.5391 L781.687,432.7592 Z M919.0424,373.4887 C919.1109,390.5978 915.3147,407.1624 905.0133,418.6757 C895.5384,429.2651 881.3098,434.8746 866.2971,434.9343 C856.5841,434.9729 846.9476,432.5977 838.8912,427.4303 C830.9345,422.3268 824.7813,414.6829 820.7294,405.8972 C816.1246,395.9125 814.4081,384.7596 814.4218,373.4887 C814.4425,356.3802 818.1968,339.8763 828.4509,328.4104 C837.9358,317.8047 852.1589,312.1879 866.9496,312.2605 C881.6568,312.3328 895.779,318.0201 905.1764,328.6279 C915.3456,340.107 919.0919,356.546 919.0424,373.4887 Z M825.7321,373.4887 C825.7206,387.8164 828.2698,401.7314 836.4443,411.4979 C843.7863,420.2699 855.0189,425.1487 866.7321,425.1465 C878.4403,425.1443 889.6747,420.268 897.0199,411.4979 C905.2007,401.7303 907.7489,387.814 907.7321,373.4887 C907.7153,359.1585 905.1345,345.2449 896.9111,335.5338 C889.5322,326.8198 878.2571,322.0359 866.5146,322.0483 C854.8387,322.0607 843.6377,326.8152 836.3355,335.4794 C828.1498,345.192 825.6612,359.1361 825.7321,373.4887 Z M1044,314.5444 L1044,322.0483 L1019.5305,323.5709 C1026.0578,331.3444 1029.3095,340.7462 1029.3183,350.3242 C1029.328,360.963 1025.4149,371.097 1017.9536,378.0019 C1010.1994,385.1778 999.1108,388.0985 987.4483,388.6054 C983.6713,388.7695 979.8846,388.6466 976.1379,387.9529 C972.1885,389.8575 968.8144,392.4995 966.3501,395.8918 C964.2142,398.8321 962.8199,402.188 962.9788,405.5709 C963.1329,408.853 964.6547,411.941 967.2745,413.8361 C970.7425,416.3448 975.9058,416.4462 981.6844,416.4462 L1002.3475,416.4462 C1014.006,416.4462 1024.5271,418.1672 1031.8196,424.2221 C1038.4541,429.7306 1042.0674,438.3255 1042.0424,447.2234 C1042.0108,458.5 1036.23,469.1351 1026.8714,476.0974 C1015.5034,484.5546 999.807,486.4964 983.6419,486.2659 C970.6878,486.0811 958.1224,484.4781 949.1127,477.6743 C941.5626,471.9728 936.9954,463.1343 936.878,453.7486 C936.786,446.4004 939.5414,439.1749 944.4363,433.5205 C949.5289,427.6377 956.6929,423.7222 964.9363,422.5364 C961.4009,421.2445 958.4577,418.9934 956.3992,416.0656 C954.4222,413.2538 953.327,409.893 953.191,406.4409 C953.038,402.5582 954.095,398.7171 956.1536,395.3853 C958.8558,391.0119 963.1751,387.753 968.3077,385.5603 C961.4845,382.8454 955.9621,378.1525 952.2122,372.238 C948.3107,366.0843 946.4792,358.7916 946.4483,351.4117 C946.4025,340.4605 950.2084,330.0624 957.7042,322.9727 C965.4109,315.6837 976.4802,312.6167 988.1008,312.2605 C994.1758,312.0744 1000.2526,312.7267 1006.1538,314.5444 L1044,314.5444 Z M948.2971,452.7698 C948.6504,459.0876 951.3665,465.055 956.1536,469.2033 C963.0122,475.1466 973.6082,476.8215 984.5119,477.1306 C999.6298,477.5591 1014.2258,475.339 1022.9888,467.2082 C1028.5893,462.0117 1031.3986,454.8238 1031.0584,447.4409 C1030.7773,441.3425 1028.3129,435.5337 1023.7719,431.9979 C1018.1547,427.6243 1009.6811,427.2128 1000.1724,427.2128 L980.8143,427.2128 C969.2321,427.2128 958.8981,430.4045 953.161,437.282 C949.5433,441.6188 947.9841,447.173 948.2971,452.7698 Z M957.3236,351.4117 C957.4427,359.5823 960.105,367.4446 965.6432,372.673 C971.253,377.969 979.4272,380.1551 987.8833,380.2314 C996.56,380.3096 1004.9677,378.1802 1010.5584,372.7274 C1016.008,367.4122 1018.3851,359.3385 1018.443,350.9767 C1018.5033,342.2602 1016.0443,333.8411 1010.3408,328.3017 C1004.6975,322.8206 996.3064,320.5858 987.6658,320.7433 C979.1811,320.898 971.0113,323.3673 965.4257,328.8454 C959.6902,334.4707 957.0911,342.8135 957.3236,351.4117 Z" fill="rgb(233,108,76)" opacity="1"/></g></svg>