<svg viewBox="0 0 800 125" xmlns="http://www.w3.org/2000/svg"><defs><linearGradient x1="52.7309" y1="69.2405" x2="52.7011" y2="86.5045" id="gradient12100" gradientUnits="userSpaceOnUse"><stop offset="0%" stop-color="rgb(200,55,55)"/><stop offset="100%" stop-color="rgb(217,160,109)"/></linearGradient><linearGradient x1="106.3469" y1="68.2387" x2="106.4711" y2="84.6648" id="gradient12101" gradientUnits="userSpaceOnUse"><stop offset="0%" stop-color="rgb(200,55,55)"/><stop offset="100%" stop-color="rgb(217,160,109)"/></linearGradient></defs><g><path d="M7.7619e-16,1.4831e-15 L800,1.4831e-15 L800,125 L7.7619e-16,125 L7.7619e-16,1.4831e-15 Z" fill="rgb(11,34,40)" opacity="1"/><path d="M165.8661,103.3901 Q165.8661,110.3972 161.8773,114.124 Q157.8885,117.8507 150.3573,117.8507 L142.3215,117.8507 L142.3215,89.473 L151.2308,89.473 Q158.1796,89.473 162.0229,93.1415 Q165.8661,96.81 165.8661,103.3901 M159.616,103.5454 Q159.616,94.4032 151.5413,94.4032 L148.3387,94.4032 L148.3387,112.8817 L150.9202,112.8817 Q159.616,112.8817 159.616,103.5454 Z M188.3237,117.8507 L186.2663,111.096 L175.9206,111.096 L173.8631,117.8507 L167.3801,117.8507 L177.3958,89.3565 L184.7523,89.3565 L194.8068,117.8507 L188.3237,117.8507 M184.8299,106.0493 Q181.9766,96.8683 181.6175,95.6648 Q181.2584,94.4614 181.1031,93.7626 Q180.4626,96.2471 177.4346,106.0493 L184.8299,106.0493 Z M204.3954,102.0702 L206.3364,102.0702 Q209.1897,102.0702 210.5485,101.1191 Q211.9072,100.168 211.9072,98.1299 Q211.9072,96.1113 210.5193,95.2572 Q209.1315,94.4032 206.22,94.4032 L204.3954,94.4032 L204.3954,102.0702 M204.3954,106.9616 L204.3954,117.8507 L198.3782,117.8507 L198.3782,89.473 L206.647,89.473 Q212.4313,89.473 215.2069,91.579 Q217.9826,93.685 217.9826,97.9746 Q217.9826,100.4786 216.6045,102.4293 Q215.2263,104.38 212.703,105.4864 Q219.1084,115.0556 221.0494,117.8507 L214.3723,117.8507 L207.5981,106.9616 L204.3954,106.9616 Z M247.4473,117.8507 L240.6149,117.8507 L233.1808,105.894 L230.6381,107.7186 L230.6381,117.8507 L224.6209,117.8507 L224.6209,89.473 L230.6381,89.473 L230.6381,102.4584 L233.0061,99.1198 L240.6926,89.473 L247.3697,89.473 L237.4705,102.0314 L247.4473,117.8507 Z M272.2924,117.8507 L266.2752,117.8507 L266.2752,94.4808 L258.5694,94.4808 L258.5694,89.473 L279.9983,89.473 L279.9983,94.4808 L272.2924,94.4808 L272.2924,117.8507 Z M307.619,117.8507 L301.6213,117.8507 L301.6213,105.6029 L290.3828,105.6029 L290.3828,117.8507 L284.3656,117.8507 L284.3656,89.473 L290.3828,89.473 L290.3828,100.595 L301.6213,100.595 L301.6213,89.473 L307.619,89.473 L307.619,117.8507 Z M331.1248,117.8507 L314.7814,117.8507 L314.7814,89.473 L331.1248,89.473 L331.1248,94.4032 L320.7986,94.4032 L320.7986,100.6338 L330.4067,100.6338 L330.4067,105.564 L320.7986,105.564 L320.7986,112.8817 L331.1248,112.8817 L331.1248,117.8507 Z M349.0599,117.8507 L342.2275,95.5872 L342.0528,95.5872 Q342.4216,102.3808 342.4216,104.6518 L342.4216,117.8507 L337.045,117.8507 L337.045,89.473 L345.2361,89.473 L351.952,111.1736 L352.0685,111.1736 L359.192,89.473 L367.3832,89.473 L367.3832,117.8507 L361.7736,117.8507 L361.7736,104.4188 Q361.7736,103.4677 361.8027,102.2255 Q361.8318,100.9832 362.0648,95.626 L361.8901,95.626 L354.5724,117.8507 L349.0599,117.8507 Z M390.8695,117.8507 L374.5261,117.8507 L374.5261,89.473 L390.8695,89.473 L390.8695,94.4032 L380.5433,94.4032 L380.5433,100.6338 L390.1514,100.6338 L390.1514,105.564 L380.5433,105.564 L380.5433,112.8817 L390.8695,112.8817 L390.8695,117.8507 Z M413.036,117.8507 L407.1159,117.8507 L407.1159,89.473 L423.3817,89.473 L423.3817,94.4032 L413.036,94.4032 L413.036,101.7208 L422.6635,101.7208 L422.6635,106.6316 L413.036,106.6316 L413.036,117.8507 Z M454.6904,103.623 Q454.6904,110.6689 451.1966,114.4539 Q447.7027,118.2389 441.1809,118.2389 Q434.659,118.2389 431.1652,114.4539 Q427.6714,110.6689 427.6714,103.5842 Q427.6714,96.4995 431.1749,92.763 Q434.6784,89.0265 441.2197,89.0265 Q447.7609,89.0265 451.2257,92.7921 Q454.6904,96.5577 454.6904,103.623 M433.9797,103.623 Q433.9797,108.3785 435.7848,110.7854 Q437.59,113.1923 441.1809,113.1923 Q448.3821,113.1923 448.3821,103.623 Q448.3821,94.0344 441.2197,94.0344 Q437.6288,94.0344 435.8042,96.4509 Q433.9797,98.8675 433.9797,103.623 Z M466.5889,102.0702 L468.5299,102.0702 Q471.3832,102.0702 472.7419,101.1191 Q474.1006,100.168 474.1006,98.1299 Q474.1006,96.1113 472.7128,95.2572 Q471.325,94.4032 468.4134,94.4032 L466.5889,94.4032 L466.5889,102.0702 M466.5889,106.9616 L466.5889,117.8507 L460.5717,117.8507 L460.5717,89.473 L468.8405,89.473 Q474.6247,89.473 477.4004,91.579 Q480.176,93.685 480.176,97.9746 Q480.176,100.4786 478.7979,102.4293 Q477.4198,104.38 474.8965,105.4864 Q481.3018,115.0556 483.2429,117.8507 L476.5657,117.8507 L469.7916,106.9616 L466.5889,106.9616 Z M513.484,117.8507 L497.1406,117.8507 L497.1406,89.473 L513.484,89.473 L513.484,94.4032 L503.1578,94.4032 L503.1578,100.6338 L512.7658,100.6338 L512.7658,105.564 L503.1578,105.564 L503.1578,112.8817 L513.484,112.8817 L513.484,117.8507 Z M535.5923,89.473 L541.6677,89.473 L532.0208,117.8507 L525.4601,117.8507 L515.8326,89.473 L521.908,89.473 L527.2459,106.3599 Q527.6923,107.8544 528.1678,109.844 Q528.6434,111.8335 528.7599,112.61 Q528.9734,110.8242 530.2156,106.3599 L535.5923,89.473 Z M561.5826,117.8507 L545.2391,117.8507 L545.2391,89.473 L561.5826,89.473 L561.5826,94.4032 L551.2563,94.4032 L551.2563,100.6338 L560.8644,100.6338 L560.8644,105.564 L551.2563,105.564 L551.2563,112.8817 L561.5826,112.8817 L561.5826,117.8507 Z M573.5199,102.0702 L575.4609,102.0702 Q578.3142,102.0702 579.6729,101.1191 Q581.0316,100.168 581.0316,98.1299 Q581.0316,96.1113 579.6438,95.2572 Q578.256,94.4032 575.3444,94.4032 L573.5199,94.4032 L573.5199,102.0702 M573.5199,106.9616 L573.5199,117.8507 L567.5027,117.8507 L567.5027,89.473 L575.7714,89.473 Q581.5557,89.473 584.3314,91.579 Q587.107,93.685 587.107,97.9746 Q587.107,100.4786 585.7289,102.4293 Q584.3508,104.38 581.8274,105.4864 Q588.2328,115.0556 590.1738,117.8507 L583.4967,117.8507 L576.7225,106.9616 L573.5199,106.9616 Z M602.577,101.1579 L608.4971,89.473 L614.9801,89.473 L605.5662,106.8063 L605.5662,117.8507 L599.5878,117.8507 L599.5878,107.0004 L590.1738,89.473 L596.6957,89.473 L602.577,101.1579 Z M656.518,117.8507 L649.6662,117.8507 L645.823,102.9437 Q645.6095,102.1478 645.0951,99.6536 Q644.5807,97.1594 644.5031,96.3054 Q644.3866,97.3535 643.9208,99.673 Q643.4549,101.9926 643.2026,102.9825 L639.3788,117.8507 L632.5464,117.8507 L625.3064,89.473 L631.2265,89.473 L634.8562,104.9623 Q635.8073,109.252 636.2343,112.3964 Q636.3508,111.2901 636.7681,108.9705 Q637.1854,106.651 637.5542,105.3699 L641.6886,89.473 L647.3758,89.473 L651.5102,105.3699 Q651.7819,106.4375 652.1895,108.6309 Q652.5972,110.8242 652.8107,112.3964 Q653.0048,110.8824 653.4318,108.6211 Q653.8588,106.3599 654.2082,104.9623 L657.8185,89.473 L663.7386,89.473 L656.518,117.8507 Z M683.6535,117.8507 L667.3101,117.8507 L667.3101,89.473 L683.6535,89.473 L683.6535,94.4032 L673.3273,94.4032 L673.3273,100.6338 L682.9354,100.6338 L682.9354,105.564 L673.3273,105.564 L673.3273,112.8817 L683.6535,112.8817 L683.6535,117.8507 Z M689.5737,89.473 L698.4053,89.473 Q704.4419,89.473 707.169,91.1908 Q709.8962,92.9086 709.8962,96.6547 Q709.8962,99.1975 708.7024,100.8279 Q707.5087,102.4584 705.5289,102.7884 L705.5289,102.9825 Q708.2269,103.5842 709.4206,105.2341 Q710.6144,106.8839 710.6144,109.6208 Q710.6144,113.5028 707.8096,115.6768 Q705.0048,117.8507 700.1911,117.8507 L689.5737,117.8507 L689.5737,89.473 M695.5908,100.7115 L699.0847,100.7115 Q701.5304,100.7115 702.627,99.9545 Q703.7237,99.1975 703.7237,97.4506 Q703.7237,95.8201 702.53,95.1116 Q701.3363,94.4032 698.7547,94.4032 L695.5908,94.4032 L695.5908,100.7115 M695.5908,105.4864 L695.5908,112.8817 L699.5117,112.8817 Q701.9962,112.8817 703.1802,111.9306 Q704.3643,110.9795 704.3643,109.0191 Q704.3643,105.4864 699.3176,105.4864 L695.5908,105.4864 Z M733.0332,109.9702 Q733.0332,113.8134 730.2672,116.0262 Q727.5013,118.2389 722.5711,118.2389 Q718.0291,118.2389 714.5352,116.5308 L714.5352,110.9407 Q717.4079,112.2217 719.3975,112.7458 Q721.387,113.2699 723.0369,113.2699 Q725.0167,113.2699 726.0746,112.5129 Q727.1325,111.7559 727.1325,110.2613 Q727.1325,109.4267 726.6666,108.7764 Q726.2008,108.1262 725.2982,107.5245 Q724.3956,106.9228 721.62,105.6029 Q719.019,104.38 717.7185,103.2542 Q716.418,102.1284 715.6416,100.6338 Q714.8652,99.1392 714.8652,97.14 Q714.8652,93.3744 717.4176,91.2199 Q719.9701,89.0653 724.4733,89.0653 Q726.686,89.0653 728.695,89.5894 Q730.7039,90.1135 732.8973,91.0646 L730.9563,95.7425 Q728.6853,94.8108 727.2004,94.442 Q725.7155,94.0732 724.2792,94.0732 Q722.5711,94.0732 721.6588,94.869 Q720.7465,95.6648 720.7465,96.9459 Q720.7465,97.7417 721.1153,98.3337 Q721.4841,98.9257 722.2896,99.4789 Q723.0951,100.0321 726.1037,101.4685 Q730.0828,103.3707 731.558,105.2826 Q733.0332,107.1945 733.0332,109.9702 Z M738.1769,117.8507 L738.1769,89.473 L744.1941,89.473 L744.1941,117.8507 L738.1769,117.8507 Z M762.2844,117.8507 L756.2672,117.8507 L756.2672,94.4808 L748.5614,94.4808 L748.5614,89.473 L769.9903,89.473 L769.9903,94.4808 L762.2844,94.4808 L762.2844,117.8507 Z M790.701,117.8507 L774.3576,117.8507 L774.3576,89.473 L790.701,89.473 L790.701,94.4032 L780.3747,94.4032 L780.3747,100.6338 L789.9828,100.6338 L789.9828,105.564 L780.3747,105.564 L780.3747,112.8817 L790.701,112.8817 L790.701,117.8507 Z " fill="rgb(233,108,76)" opacity="1"/><path d="M5.1713,116.5937 L24.4443,66.2455 C24.9507,60.8661 25.6197,55.5167 26.5857,50.2054 C27.8826,43.075 29.4816,36.0597 32.5818,29.7097 C36.0229,22.6614 41.1113,16.5502 47.5719,12.3329 C54.1158,8.0612 61.8752,5.8586 69.843,5.2039 C80.5004,4.3282 91.0763,6.2211 99.395,11.8873 C106.2222,16.5377 111.246,23.5474 114.3851,31.4919 C118.2988,41.3971 119.0508,52.4008 117.3831,63.5722 L131.9449,112.5837 L122.5086,120.9314 L104.8953,118.6615 C100.9161,122.8148 96.5648,124.8914 91.6079,124.8914 L60.575,124.8914 C55.215,124.8914 50.3404,122.9661 45.7651,119.1154 L21.4421,121.8393 L5.1713,116.5937 Z" fill="rgb(11,34,40)" opacity="1"/><path d="M49.7761,13.5431 C46.2505,19.0597 43.6107,25.0269 41.8082,31.2485 C39.7267,38.4328 38.8616,45.9405 38.4533,53.4936 C38.1672,58.7847 38.17,64.0831 38.4533,69.383 L14.7323,118.2075 L8.0225,115.4836 L26.7111,67.1131 C27.0489,61.4613 27.7282,55.8607 28.8079,50.3157 C30.4798,41.7301 32.7545,33.3109 37.1952,26.2546 C40.3986,21.1644 44.5922,16.7867 49.7761,13.5431 Z" fill="rgb(44,137,160)" opacity="1"/><path d="M82.4864,8.5493 C74.5151,8.2611 66.6955,11.2698 60.6795,17.629 C49.0408,29.9317 45.922,52.961 49.3567,78.0087 L64.4538,76.1928 C67.8418,68.9236 73.6444,64.3634 80.9916,64.1835 C88.1112,64.0092 93.9763,68.0278 97.5835,74.8308 L116.7487,68.0563 L115.6161,59.8494 C116.4229,53.4215 116.1315,47.0174 114.7774,40.7821 C113.0895,33.0103 110.0279,25.6706 104.9627,19.9074 C99.0793,13.2131 91.0079,8.8574 82.4864,8.5493 Z" fill="rgb(44,137,160)" opacity="1"/><path d="M86.7695,103.2738 L86.6016,115.2877 C86.5831,116.6096 85.4091,117.4769 83.9346,117.5576 C82.4579,117.6384 81.2509,116.928 81.2675,115.7417 L81.4354,103.7278 C81.4575,102.151 82.6245,101.0756 84.1025,101.0039 C85.5757,100.9325 86.7894,101.8501 86.7695,103.2738 Z" fill="rgb(44,137,160)" opacity="1"/><path d="M74.3233,103.2738 L74.1554,115.2877 C74.1369,116.6096 72.9628,117.4769 71.4883,117.5576 C70.0117,117.6384 68.8047,116.928 68.8213,115.7417 L68.9892,103.7278 C69.0113,102.151 70.1783,101.0756 71.6563,101.0039 C73.1294,100.9325 74.3432,101.8501 74.3233,103.2738 Z" fill="rgb(44,137,160)" opacity="1"/><path d="M62.3341,111.8616 L62.3341,115.618 C62.3341,117.0856 61.0772,118.0625 59.4991,118.0531 C58.1245,118.045 57,117.2868 57,116.0719 L57,112.3156 C57,110.7393 58.1737,109.6563 59.667,109.5917 C61.1262,109.5286 62.3341,110.4381 62.3341,111.8616 Z" fill="rgb(44,137,160)" opacity="1"/><path d="M97.8947,110.9537 L97.8947,114.71 C97.8947,116.1777 96.6378,117.1545 95.0598,117.1452 C93.6852,117.137 92.5606,116.3788 92.5606,115.164 L92.5606,111.4076 C92.5606,109.8313 93.7344,108.7483 95.2277,108.6837 C96.6869,108.6206 97.8947,109.5302 97.8947,110.9537 Z" fill="rgb(44,137,160)" opacity="1"/><path d="M73.0933,53.8775 C74.8434,52.9023 76.7603,52.3993 78.732,52.2664 C81.6479,52.0698 84.6686,52.7142 87.5746,53.8694 C93.066,46.055 101.8361,43.0652 110.2608,44.7076 C121.5736,46.9132 129.6498,56.3742 130.1939,67.613 C130.7792,79.7042 122.7558,90.2938 110.8611,92.5845 C102.3431,94.2249 93.3322,90.8459 87.5579,83.6367 C83.8452,79.0014 81.8604,73.0767 82.8117,66.7579 C82.3581,66.2794 81.7725,66.0135 81.1486,65.9604 C80.3176,65.8898 79.4767,66.2011 78.732,66.766 C80.0907,75.6873 76.8209,83.8298 70.6767,89.3208 C62.9453,96.2303 52.0598,98.1053 42.4831,94.154 C34.0168,90.6609 27.8089,83.0472 26.3725,74.0157 C25.0208,65.5168 28.1197,56.7884 34.4278,50.6553 C40.6587,44.5974 49.3594,41.8088 57.7882,43.4056 C63.9797,44.5785 69.5555,48.1096 73.0933,53.8775 Z" fill="rgb(200,55,55)" opacity="0.2"/><path d="M72.2878,56.2941 C74.4864,54.8041 76.9793,54.0068 79.5376,53.8775 C82.5799,53.7237 85.6221,54.5193 88.4472,56.0507 C93.0983,48.8504 100.8588,45.8907 108.5157,46.889 C119.923,48.3763 128.2108,57.4314 128.5828,68.4185 C128.9591,79.5309 121.2549,89.1965 110.0556,90.9734 C102.2256,92.2157 94.0567,88.9317 88.9271,82.2675 C85.256,77.4982 83.5734,71.3669 84.993,65.0128 C83.8738,64.0814 82.5348,63.5923 81.1486,63.5438 C79.4592,63.4848 77.794,64.0816 76.3154,65.1549 C78.0879,73.9805 75.1449,82.2249 69.0657,87.7098 C62.2451,93.8634 52.6372,95.7624 44.0942,92.543 C36.1223,89.5388 30.2438,82.4786 28.7891,74.0157 C27.4262,66.0873 30.1705,57.9075 36.0389,52.2664 C41.597,46.9236 49.3757,44.4934 56.9827,45.8222 C63.1882,46.9061 68.7698,50.4846 72.2878,56.2941 Z" fill="rgb(200,55,55)" opacity="0.2"/><path d="M108.0826,49.1405 C118.7205,49.9422 127.0386,59.1082 126.6098,70.0843 C126.2113,80.2818 118.1979,88.6157 108.0826,89.4171 C96.7938,90.3115 87.2046,81.8787 86.3332,70.8899 C85.3365,58.3197 95.5222,48.1224 108.0826,49.1405 Z" fill="rgb(255,255,255)" opacity="1"/><path d="M52.6989,47.7616 C65.0372,47.7372 74.9109,57.8716 74.4483,70.3165 C74.0153,81.9624 64.4458,91.2603 52.6989,91.2603 C40.952,91.2603 31.3826,81.9624 30.9496,70.3165 C30.4869,57.8716 40.3607,47.7372 52.6989,47.7616 Z" fill="rgb(255,255,255)" opacity="1"/><path d="M80.1672,58.687 C84.1271,58.602 87.984,59.8398 91.3896,62.2252 L89.7786,67.0584 C87.2224,64.8482 84.1791,63.6181 80.9727,63.5202 C77.6871,63.4199 74.5023,64.5146 71.7426,66.6225 L69.326,62.5948 C72.5551,60.1212 76.2853,58.7704 80.1672,58.687 Z" fill="rgb(255,255,255)" opacity="1"/><path d="M52.6989,52.5948 C61.9618,52.5971 69.6051,59.3348 70.4206,67.8999 C71.4458,78.6669 62.3166,87.4238 51.0879,86.4271 C41.4354,85.5703 34.079,77.364 34.9773,67.8999 C35.7969,59.2647 43.4681,52.5816 52.6989,52.5948 Z" fill="url(#gradient12100)" opacity="1"/><path d="M108.0826,53.9737 C116.5065,54.7437 123.016,61.788 122.5821,70.0843 C122.1857,77.6643 115.9181,83.8331 108.0826,84.5839 C98.7057,85.4823 90.8154,78.7846 90.3609,70.0843 C89.8646,60.5848 98.0967,52.9847 108.0826,53.9737 Z" fill="url(#gradient12101)" opacity="1"/><path d="M60.5516,61.7286 C63.9363,61.6146 67.1098,63.0398 69.5297,65.7559 L64.1855,64.5312 C64.163,68.8211 61.9923,71.967 59.1727,71.808 C56.6458,71.6654 54.859,68.9081 55.1168,65.2783 L51.0025,67.0337 C53.4929,63.8043 56.8296,61.854 60.5516,61.7286 Z" fill="rgb(11,34,40)" opacity="0.1"/><path d="M99.0339,61.2266 C102.3323,61.1971 105.3679,62.7084 107.5722,65.4957 L102.6317,63.8147 C102.8726,67.8265 100.9814,70.8857 98.2893,70.8925 C95.818,70.8988 93.9459,68.3054 94.0373,64.7696 L89.4284,66.563 C91.9258,63.2501 95.2918,61.26 99.0339,61.2266 Z" fill="rgb(11,34,40)" opacity="0.1"/><path d="M39.1526,80.297 L44.8252,65.3421 C45.4247,63.7615 46.5177,62.7636 47.9193,62.7636 L68.5467,62.7636 C66.0953,57.7614 61.7131,54.5888 56.686,53.4813 C49.6961,51.9414 42.6952,54.3145 38.6369,59.6695 C34.2236,65.4931 34.368,73.4502 39.1526,80.297 Z" fill="rgb(11,34,40)" opacity="0.5"/><path d="M94.331,79.2656 L99.5896,66.3196 C100.2313,64.7398 101.3071,63.7371 102.6837,63.7412 L121.1467,63.795 C119.205,58.7907 115.1245,55.5997 110.3173,54.5127 C102.9483,52.8464 95.7647,55.9302 92.2683,62.248 C89.3051,67.6023 89.8912,74.1122 94.331,79.2656 Z" fill="rgb(11,34,40)" opacity="0.5"/><path d="M142,11 L142,75.8783 L168.969,75.8783 C178.6695,75.8783 187.3358,72.3057 193.1931,65.7411 C198.6108,59.6691 201.2492,51.4377 201.3029,42.9323 C201.3572,34.315 198.7766,25.97 193.1931,20.1235 C187.2715,13.9231 178.3903,11 168.4602,11 L142,11 Z M160.247,26.2059 L168.3568,26.2059 C177.0892,26.2059 182.8154,33.6632 183.0558,42.9323 C183.3098,52.7248 177.4359,60.6725 168.3568,60.6725 L160.247,60.6725 L160.247,26.2059 Z M222.5911,11 L201.3029,75.8783 L221.0705,75.8783 L224.1116,65.7411 L248.441,65.7411 L251.4822,75.8783 L270.7429,75.8783 L248.9479,11 L222.5911,11 Z M235.2626,25.1921 L236.7832,25.1921 L244.3861,52.5627 L228.1665,52.5627 L235.2626,25.1921 Z M276.3184,11 L276.3184,75.8783 L294.5655,75.8783 L294.5814,56.6176 L302.1684,56.6176 L311.7988,75.8783 L331.783,75.8783 L318.8948,52.5627 C321.4358,50.4279 323.437,47.8262 324.9772,44.9598 C327.7049,39.8833 328.9927,34.2526 328.2211,28.7402 C327.6667,24.7793 326.1199,21.0459 323.4566,18.0961 C319.2312,13.416 312.5641,11 305.2096,11 L276.3184,11 Z M294.5655,24.6853 L303.1821,24.6853 C305.8394,24.6853 308.1921,25.817 309.7713,27.7264 C311.2738,29.5432 311.9672,31.931 311.7988,34.3157 C311.5754,37.4773 309.9092,40.3193 307.237,41.9186 C305.3766,43.032 303.1076,43.4392 300.6478,43.4392 L294.5635,43.4392 L294.5655,24.6853 Z M339.1693,11 L339.1693,75.8783 L356.1402,75.8783 L356.1402,50.0284 L362.7295,50.0284 L377.9353,75.8783 L398.1959,75.8783 L376.9216,41.9186 L396.1605,11 L377.4284,11 L361.7157,35.8362 L356.1402,35.8362 L356.1402,11 L339.1693,11 Z M490.721,11 L490.721,75.8783 L533.2975,75.8783 L533.2975,60.6725 L507.9544,60.6725 L507.9544,51.0421 L530.7631,51.0421 L530.7631,35.8362 L507.9544,35.8362 L507.9544,26.2059 L531.7709,26.2059 L531.7709,11 L490.721,11 Z M735.5354,11 L735.5354,75.8783 L753.7824,75.8783 L753.7983,56.6176 L761.3853,56.6176 L771.0157,75.8783 L791,75.8783 L778.1118,52.5627 C780.6528,50.4279 782.6539,47.8262 784.1941,44.9598 C786.9219,39.8833 788.2096,34.2526 787.4381,28.7402 C786.8837,24.7793 785.3368,21.0459 782.6735,18.0961 C778.4482,13.416 771.7811,11 764.4265,11 L735.5354,11 Z M753.7824,24.6853 L762.3991,24.6853 C765.0563,24.6853 767.4091,25.817 768.9883,27.7264 C770.4908,29.5432 771.1842,31.931 771.0157,34.3157 C770.7924,37.4773 769.1261,40.3193 766.454,41.9186 C764.5936,43.032 762.3245,43.4392 759.8648,43.4392 L753.7804,43.4392 L753.7824,24.6853 Z M428.377,11 L428.377,75.8783 L446.6241,75.8783 L446.64,56.6176 L454.227,56.6176 L463.8574,75.8783 L483.8416,75.8783 L470.9534,52.5627 C473.4944,50.4279 475.4956,47.8262 477.0358,44.9598 C479.7635,39.8833 481.0513,34.2526 480.2797,28.7402 C479.7253,24.7793 478.1785,21.0459 475.5152,18.0961 C471.2898,13.416 464.6227,11 457.2682,11 L428.377,11 Z M446.6241,24.6853 L455.2407,24.6853 C457.898,24.6853 460.2507,25.817 461.8299,27.7264 C463.3324,29.5432 464.0258,31.931 463.8574,34.3157 C463.634,37.4773 461.9678,40.3193 459.2956,41.9186 C457.4352,43.032 455.1662,43.4392 452.7064,43.4392 L446.6221,43.4392 L446.6241,24.6853 Z M558.6406,11 L537.3523,75.8783 L557.12,75.8783 L560.1611,65.7411 L584.4905,65.7411 L587.5317,75.8783 L606.7924,75.8783 L584.9974,11 L558.6406,11 Z M571.3121,25.1921 L572.8327,25.1921 L580.4356,52.5627 L564.216,52.5627 L571.3121,25.1921 Z M613.3816,11 L613.3816,75.8783 L640.3507,75.8783 C650.0512,75.8783 658.7174,72.3057 664.5747,65.7411 C669.9924,59.6691 672.6309,51.4377 672.6845,42.9323 C672.7388,34.315 670.1583,25.97 664.5747,20.1235 C658.6531,13.9231 649.7719,11 639.8418,11 L613.3816,11 Z M631.6287,26.2059 L639.7385,26.2059 C648.4709,26.2059 654.197,33.6632 654.4375,42.9323 C654.6915,52.7248 648.8176,60.6725 639.7385,60.6725 L631.6287,60.6725 L631.6287,26.2059 Z M682.3149,11 L682.3149,75.8783 L724.8913,75.8783 L724.8913,60.6725 L699.5482,60.6725 L699.5482,51.0421 L722.357,51.0421 L722.357,35.8362 L699.5482,35.8362 L699.5482,26.2059 L723.3647,26.2059 L723.3647,11 L682.3149,11 Z" fill="rgb(233,108,76)" opacity="1"/></g></svg>