<svg viewBox="0 0 2048 512" xmlns="http://www.w3.org/2000/svg"><defs><linearGradient x1="164.3988" y1="134.6885" x2="163.2501" y2="228.8794" id="gradient10758" gradientUnits="userSpaceOnUse"><stop offset="0%" stop-color="rgb(20,30,36)"/><stop offset="100%" stop-color="rgb(233,108,76)"/></linearGradient><linearGradient x1="312.6847" y1="140.5063" x2="313.8369" y2="229.2276" id="gradient10759" gradientUnits="userSpaceOnUse"><stop offset="0%" stop-color="rgb(20,30,36)"/><stop offset="100%" stop-color="rgb(233,108,76)"/></linearGradient></defs><g><path d="M-34,-22 L2066,-22 L2066,559 L-34,559 L-34,-22 Z" fill="rgb(20,30,36)" opacity="1"/></g><g><g><path d="M210.7531,277.2948 C267.3241,279.8765 320.1932,297.5643 347.0572,335.6758 C365.7567,362.2045 370.4898,395.4256 357.9182,423.1627 C340.503,461.5864 292.7855,482.9272 234.806,482.9272 L67.4198,482.9272 C38.997,482.9272 16.4146,462.4897 7.8584,433.528 C2.7546,416.2521 3.4585,397.2096 9.3414,379.417 C14.9743,362.3805 24.3996,347.2559 38.4609,333.7158 C76.4684,297.1171 143.4039,274.2213 210.7531,277.2948 Z" fill="rgb(20,30,36)" opacity="1"/><path d="M51.835,325.9184 C42.957,336.4661 35.671,348.0524 29.9725,360.4465 C22.2533,377.2352 17.3577,395.0317 17.5757,413.0326 C17.7614,428.3652 21.6613,443.4936 27.8736,457.8609 C29.8539,462.4408 32.0636,466.9234 34.7362,471.1597 C29.9585,468.402 25.9238,464.7077 22.3002,460.6476 C12.1572,449.2826 5.7817,435.2455 4.3332,420.2558 C3.5636,412.2922 4.1943,404.1806 5.537,396.1784 C8.129,380.731 13.0476,365.908 21.5454,353.2233 C29.1435,341.8816 39.4105,332.5127 51.835,325.9184 Z" fill="rgb(49,110,125)" opacity="1"/><path d="M178.204,442.6491 C181.5323,445.366 181.7328,451.776 185.1799,454.4409 C188.3429,456.8862 193.2614,456.3527 197.0644,453.2581 C199.6329,451.1682 201.2582,448.002 201.8386,444.4889 C202.1632,442.5236 202.1484,440.5016 201.6127,438.5299 C203.3901,440.2879 204.7452,442.411 205.7568,444.6495 C207.2309,447.9117 207.826,451.4912 210.031,453.2581 C211.8006,454.6762 214.4185,454.9244 217.0068,454.4409 C219.7232,453.9335 222.2192,452.6773 223.8836,450.5469 C226.5426,447.1435 226.8491,441.9462 225.277,436.6135 C228.3585,439.6321 231.2735,442.8871 233.6371,446.3669 C235.1231,448.5547 236.3127,450.8099 238.2248,452.0834 C241.8972,454.5292 247.1399,453.6098 249.981,449.7445 C252.381,446.4791 252.4908,441.7209 251.171,436.6451 C248.4671,426.2468 240.1784,416.1997 229.457,410.14 C216.5672,402.8546 201.1365,400.924 185.1722,401.3926 C177.1005,401.6295 169.1001,402.4545 161.5967,404.9289 C150.854,408.4716 141.5049,415.1216 134.7096,424.0734 C129.0966,431.4679 125.5065,439.6981 127.7429,446.3669 C130.2519,453.8483 138.4667,457.864 147.2497,454.727 C159.5512,443.247 172.4773,437.9744 178.204,442.6491 Z" fill="rgb(139,188,199)" opacity="1"/><path d="M163.9699,418.5 C168.96,420.5843 172.3957,425.5323 175.1166,431.0401 C177.0079,434.8686 178.5039,438.8933 179.3825,443.1249 C175.6011,444.6399 172.0392,446.6665 168.7735,449.0188 C166.0102,451.0092 163.5068,453.3397 160.522,454.9127 C156.0307,457.2796 150.595,457.9596 145.0983,457.9544 C139.1474,457.9487 133.3981,457.1532 129.8762,453.7877 C126.7477,450.7981 125.5403,446.0804 126.3379,441.4704 C127.3034,435.8898 131.2631,430.9779 136.103,426.8601 C145.195,419.1246 155.9475,415.1492 163.9699,418.5 Z" fill="rgb(49,110,125)" opacity="1"/><path d="M55.1477,321.1946 L74.1844,180.6863 C77.9373,152.9863 81.4932,126.0318 91.4898,101.5321 C100.6064,79.189 114.7222,59.3719 133.9271,46.4253 C155.9117,31.6047 183.7987,26.5087 212.2635,26.0348 C241.4461,25.549 270.1926,30.07 291.7525,44.8197 C306.8398,55.1414 317.9135,70.1796 325.9002,87.1473 C338.1619,113.1968 342.3839,142.9889 339.6368,173.4631 L325.9616,325.1676 C287.7245,331.5956 249.1327,334.4458 210.4293,334.5329 C158.6565,334.6494 106.7008,329.6823 55.1477,321.1946 Z" fill="rgb(20,30,36)" opacity="1"/><path d="M144.5167,40.5549 C134.9879,52.981 127.6905,66.7412 121.7621,81.7663 C111.1841,108.576 105.7756,139.7714 96.9801,170.2389 L56.6327,310.0014 L75.3177,167.4896 C80.1504,130.6303 89.6592,95.5859 108.1133,70.6621 C117.8744,57.4789 129.8303,47.1982 144.5167,40.5549 Z" fill="rgb(49,110,125)" opacity="1"/><path d="M240.3773,28.3035 C216.5099,27.4362 193.0216,34.6557 175.9222,50.0702 C159.5497,64.8294 150.1558,86.614 143.0777,109.5627 C134.9476,135.9221 130.84,163.2125 129.3021,191.1085 L188.2442,201.7372 C200.5715,184.8509 217.9479,175.282 237.3451,175.115 C258.2175,174.9352 276.9234,185.6053 290.6613,203.8831 L339.3376,186.321 C342.149,161.4496 341.269,136.8186 335.4051,113.0814 C330.2685,92.2882 321.8273,72.6477 307.8435,57.8228 C290.5447,39.4834 266.0695,29.2371 240.3773,28.3035 Z" fill="rgb(49,110,125)" opacity="1"/><path d="M252.5516,299.3802 L252.0293,309.052 C251.8098,313.1156 248.2636,315.7245 243.8721,316.0066 C239.2442,316.3038 235.5195,314.063 235.715,310.4429 L236.2373,300.7711 C236.4983,295.939 240.0058,292.705 244.3945,292.4256 C249.0236,292.1309 252.7871,295.019 252.5516,299.3802 Z" fill="rgb(49,110,125)" opacity="1"/><path d="M224.3925,299.6251 L223.8702,309.2968 C223.6507,313.3604 220.1045,315.9694 215.713,316.2514 C211.085,316.5487 207.3604,314.3078 207.5559,310.6877 L208.0782,301.016 C208.3392,296.1838 211.8467,292.9498 216.2354,292.6705 C220.8645,292.3758 224.628,295.2639 224.3925,299.6251 Z" fill="rgb(49,110,125)" opacity="1"/><path d="M196.21,298.6556 L195.7228,306.0035 C195.4239,310.5108 191.6646,313.4053 187.0521,313.4645 C182.6638,313.5208 179.1631,311.096 179.4085,307.3944 L179.8958,300.0466 C180.2161,295.2148 183.7041,291.9983 188.0529,291.701 C192.7204,291.382 196.4992,294.2948 196.21,298.6556 Z" fill="rgb(49,110,125)" opacity="1"/><path d="M279.1947,298.5617 L278.7074,305.9095 C278.4086,310.4169 274.6492,313.3114 270.0367,313.3705 C265.6485,313.4268 262.1477,311.002 262.3932,307.3005 L262.8804,299.9526 C263.2008,295.1209 266.6888,291.9043 271.0375,291.6071 C275.705,291.288 279.4838,294.2008 279.1947,298.5617 Z" fill="rgb(49,110,125)" opacity="1"/><path d="M212.8039,159.7083 C219.8677,156.8745 227.2831,155.4369 234.7514,155.3554 C242.8442,155.2669 250.9009,156.7718 258.6434,159.6864 C275.5752,138.4556 300.7349,130.633 324.9738,134.9321 C359.1867,141.0004 384.123,167.7383 385.8599,199.8164 C387.7342,234.4332 363.0837,264.723 326.8704,270.8446 C303.327,274.8244 278.658,266.546 263.0655,247.9711 C250.9956,233.5926 245.7238,214.3311 250.8084,194.5102 C247.7741,193.166 244.5497,192.4898 241.2809,192.3556 C236.8603,192.174 232.3802,193.0079 228.0393,194.532 C231.7103,218.6368 222.8756,240.6372 206.2745,255.4736 C185.3848,274.1425 155.9729,279.2085 130.0976,268.5325 C107.2223,259.0942 90.4489,238.5226 86.5679,214.1204 C82.9157,191.1568 91.2887,167.5733 108.3327,151.0024 C125.1681,134.6343 148.6768,127.0998 171.4507,131.414 C188.1797,134.5832 203.245,144.1239 212.8039,159.7083 Z" fill="rgb(233,108,76)" opacity="0.2"/><path d="M210.6274,166.2378 C218.9446,162.1078 227.8761,159.9411 236.9279,159.7083 C246.824,159.4538 256.6801,161.514 266.035,165.5803 C281.1413,144.308 305.0947,136.0896 328.0743,140.827 C356.8495,146.7592 377.7435,170.4955 379.8405,198.6126 C382.3483,232.2366 359.0605,261.3767 324.4627,266.0291 C304.1883,268.7554 283.0222,261.3177 269.0848,245.5634 C256.0762,230.8588 250.9186,210.5036 256.7023,189.7951 C251.8673,187.248 246.6086,185.9745 241.2809,185.8261 C234.5843,185.6396 227.8743,187.2486 221.5098,190.1791 C226.2988,214.0253 218.3472,236.301 201.9215,251.1206 C183.493,267.7471 157.533,272.8781 134.4505,264.1795 C112.911,256.0624 97.0279,236.9863 93.0974,214.1204 C89.415,192.6983 96.8297,170.5971 112.6857,155.3554 C127.7033,140.9195 148.7209,134.3532 169.2743,137.9435 C186.0409,140.8723 201.1222,150.5411 210.6274,166.2378 Z" fill="rgb(233,108,76)" opacity="0.2"/><path d="M321.5916,146.381 C351.555,148.639 374.9845,174.4566 373.7765,205.3726 C372.6543,234.0954 350.0832,257.5691 321.5916,259.8264 C289.7949,262.3457 262.7854,238.5933 260.3311,207.6415 C257.5236,172.2357 286.2132,143.5133 321.5916,146.381 Z" fill="rgb(255,255,255)" opacity="1"/><path d="M157.6999,143.1837 C191.0369,143.1177 217.715,170.5001 216.4649,204.1252 C215.2951,235.5916 189.4391,260.7138 157.6999,260.7138 C125.9607,260.7138 100.1047,235.5916 98.9348,204.1252 C97.6847,170.5001 124.3629,143.1177 157.6999,143.1837 Z" fill="rgb(255,255,255)" opacity="1"/><path d="M239.1444,170.384 C251.5092,170.3002 263.6358,173.8145 274.5008,180.717 L269.6325,195.3221 C260.88,189.3476 250.9878,186.1139 240.8055,185.7622 C229.8599,185.3841 219.04,188.3431 209.1544,194.1444 L202.1095,181.9734 C213.4784,174.5242 226.1439,170.472 239.1444,170.384 Z" fill="rgb(255,255,255)" opacity="1"/><path d="M157.9559,158.5866 C181.836,158.5926 201.5406,175.9626 203.6431,198.0438 C206.2861,225.8016 182.7507,248.3773 153.8025,245.8077 C128.9181,243.5988 109.9529,222.4426 112.2687,198.0438 C114.3817,175.7819 134.1586,158.5526 157.9559,158.5866 Z" fill="url(#gradient10758)" opacity="1"/><path d="M321.8842,162.3082 C344.5938,164.3838 362.1424,183.3744 360.9726,205.7398 C359.9039,226.174 343.0076,242.8043 321.8842,244.8282 C296.6057,247.2502 275.3347,229.1942 274.1095,205.7398 C272.7716,180.1307 294.9641,159.6419 321.8842,162.3082 Z" fill="url(#gradient10759)" opacity="1"/><path d="M178.9173,180.9216 C188.0624,180.6135 196.6368,184.4642 203.1754,191.8028 L188.7358,188.494 C188.675,200.0849 182.8099,208.5849 175.1914,208.1551 C168.364,207.7699 163.5363,200.3199 164.2327,190.5124 L153.1163,195.2554 C159.8451,186.5298 168.8607,181.2604 178.9173,180.9216 Z" fill="rgb(20,30,36)" opacity="0.1"/><path d="M294.6397,179.5651 C303.5516,179.4855 311.7536,183.5689 317.7094,191.0999 L304.3606,186.5579 C305.0116,197.3975 299.9017,205.6631 292.6276,205.6817 C285.9506,205.6988 280.8922,198.6915 281.1391,189.1381 L268.6863,193.9836 C275.434,185.0323 284.5287,179.6553 294.6397,179.5651 Z" fill="rgb(20,30,36)" opacity="0.1"/><path d="M123.033,230.004 L137.657,191.4497 C139.2026,187.3749 142.0204,184.8024 145.6338,184.8024 L198.8122,184.8024 C192.4613,171.9145 181.2082,163.7206 168.2346,160.8721 C150.493,156.9767 132.5939,162.8525 121.7035,176.8256 C115.3981,184.916 112.1773,195.1921 112.8507,205.6041 C113.4232,214.4555 116.7856,223.0347 123.033,230.004 Z" fill="rgb(20,30,36)" opacity="0.5"/><path d="M284.8124,230.4909 L298.9886,195.5907 C300.7186,191.3318 303.6188,188.6288 307.3299,188.6396 L357.103,188.7848 C351.8686,175.294 340.8681,166.6915 327.9087,163.7611 C308.0431,159.2691 288.6772,167.5826 279.2516,184.6142 C271.2632,199.0486 272.8434,216.5982 284.8124,230.4909 Z" fill="rgb(20,30,36)" opacity="0.5"/><path d="M229.1572,460.3308 L297.4627,287.0507 C310.5741,253.7891 340.7689,235.1846 378.7982,235.1846 L564.5763,235.1846 C582.3867,235.1846 589.0684,257.4633 579.9004,281.1568 L515.1312,448.543 C512.2662,455.9473 506.1447,460.3308 498.4261,460.3308 L229.1572,460.3308 Z" fill="rgb(139,188,199)" opacity="0.2"/><path d="M243.1002,460.3308 L311.4057,287.0507 C322.5346,258.8184 346.3223,242.2572 376.2384,242.2572 L562.0165,242.2572 C579.5815,242.2572 587.65,261.1291 579.9004,281.1568 L515.1312,448.543 C512.2662,455.9473 506.1447,460.3308 498.4261,460.3308 L243.1002,460.3308 Z" fill="rgb(139,188,199)" opacity="0.4"/><path d="M257.2456,460.3308 L325.551,287.0507 C334.0452,265.5023 352.2123,252.8662 375.0596,252.8662 L560.8377,252.8662 C576.4287,252.8662 585.579,266.4813 579.9004,281.1568 L515.1312,448.543 C512.2662,455.9473 506.1447,460.3308 498.4261,460.3308 L257.2456,460.3308 Z" fill="rgb(255,255,255)" opacity="1"/><path d="M329.9548,308.8027 C341.1613,280.9806 356.7508,261.7139 378.2846,261.6517 L563.1952,261.1176 C577.4135,261.0766 585.3741,274.2075 579.9004,288.2295 L510.4161,466.2247 C504.7816,480.6585 484.9176,482.8204 460.3347,482.8204 L174.0494,482.8204 C170.7854,482.8204 167.9342,481.8904 166.0902,479.8922 C163.8013,477.412 163.2568,473.4874 163.2947,469.4383 C163.3316,465.4994 163.9138,461.6738 166.0845,458.9767 C168.1958,456.3533 171.6197,454.9709 175.5352,454.9709 L271.0796,454.9709 L329.9548,308.8027 Z" fill="rgb(20,30,36)" opacity="1"/><path d="M455.0983,366.888 C460.1435,374.1199 468.5281,376.7332 477.8679,374.6661 C477.3145,377.327 476.0889,379.7238 474.6439,381.9691 C468.2416,391.9174 458.4434,398.4798 447.3212,399.4403 C440.0329,400.0696 432.7601,398.3241 427.523,393.7875 C419.0631,386.4593 416.7355,373.7869 421.2547,362.309 C425.4183,351.734 435.1083,344.1015 447.1511,340.7892 C450.2149,339.9466 453.3781,339.4351 456.5979,339.7622 C450.5737,348.9504 449.5039,358.8687 455.0983,366.888 Z" fill="rgb(49,110,125)" opacity="1"/><path d="M450.2184,370.0424 C454.3412,376.156 461.0354,379.6776 468.9925,379.9449 C463.6249,388.0156 456.1568,393.4663 447.8888,394.5492 C441.5627,395.3777 435.2141,393.6128 430.7686,389.4716 C424.1768,383.331 422.6089,373.1901 426.0281,363.9245 C429.4439,354.6683 437.5727,347.9781 448.3837,345.8467 C445.1645,354.4984 445.5728,363.1534 450.2184,370.0424 Z" fill="rgb(139,188,199)" opacity="1"/></g></g><g><path d="M399,41.7004 L399,205.1459 L466.942,205.1459 C491.3801,205.1459 513.2126,196.1455 527.9687,179.6075 C541.6173,164.3106 548.2642,143.5736 548.3993,122.1462 C548.5362,100.4369 542.0351,79.4138 527.9687,64.6849 C513.0507,49.0644 490.6766,41.7004 465.6601,41.7004 L399,41.7004 Z M444.969,80.008 L465.3997,80.008 C487.3989,80.008 501.8246,98.795 502.4303,122.1462 C503.0703,146.816 488.2723,166.8383 465.3997,166.8383 L444.969,166.8383 L444.969,80.008 Z M602.0299,41.7004 L548.3993,205.1459 L598.1991,205.1459 L605.8606,179.6075 L667.1526,179.6075 L674.8141,205.1459 L723.337,205.1459 L668.4296,41.7004 L602.0299,41.7004 Z M633.9528,77.4541 L637.7835,77.4541 L656.9373,146.4077 L616.0759,146.4077 L633.9528,77.4541 Z M737.3831,41.7004 L737.3831,205.1459 L783.3521,205.1459 L783.3922,156.623 L802.5059,156.623 L826.7673,205.1459 L877.1129,205.1459 L844.6441,146.4077 C851.0455,141.0295 856.087,134.4751 859.9672,127.2539 C866.8391,114.4649 870.0832,100.2797 868.1394,86.3925 C866.7427,76.4142 862.8459,67.0087 856.1364,59.5773 C845.4916,47.7871 828.6955,41.7004 810.1674,41.7004 L737.3831,41.7004 Z M783.3521,76.1772 L805.0597,76.1772 C811.754,76.1772 817.6812,79.0282 821.6596,83.8387 C825.4449,88.4156 827.1917,94.4312 826.7673,100.4386 C826.2047,108.4037 822.007,115.5634 815.275,119.5924 C810.5882,122.3974 804.8719,123.4231 798.6751,123.4231 L783.3471,123.4231 L783.3521,76.1772 Z M895.7208,41.7004 L895.7208,205.1459 L938.475,205.1459 L938.475,140.0231 L955.075,140.0231 L993.3825,205.1459 L1044.4241,205.1459 L990.8286,119.5924 L1039.2964,41.7004 L992.1056,41.7004 L952.5211,104.2694 L938.475,104.2694 L938.475,41.7004 L895.7208,41.7004 Z M1277.5191,41.7004 L1277.5191,205.1459 L1384.7802,205.1459 L1384.7802,166.8383 L1320.9343,166.8383 L1320.9343,142.5769 L1378.3956,142.5769 L1378.3956,104.2694 L1320.9343,104.2694 L1320.9343,80.008 L1380.9344,80.008 L1380.9344,41.7004 L1277.5191,41.7004 Z M1894.2702,41.7004 L1894.2702,205.1459 L1940.2392,205.1459 L1940.2793,156.623 L1959.393,156.623 L1983.6544,205.1459 L2034,205.1459 L2001.5312,146.4077 C2007.9326,141.0295 2012.9741,134.4751 2016.8543,127.2539 C2023.7262,114.4649 2026.9703,100.2797 2025.0265,86.3925 C2023.6298,76.4142 2019.733,67.0087 2013.0235,59.5773 C2002.3787,47.7871 1985.5826,41.7004 1967.0545,41.7004 L1894.2702,41.7004 Z M1940.2392,76.1772 L1961.9468,76.1772 C1968.6411,76.1772 1974.5683,79.0282 1978.5467,83.8387 C1982.332,88.4156 1984.0788,94.4312 1983.6544,100.4386 C1983.0918,108.4037 1978.8941,115.5634 1972.1621,119.5924 C1967.4753,122.3974 1961.759,123.4231 1955.5622,123.4231 L1940.2342,123.4231 L1940.2392,76.1772 Z M1120.4583,41.7004 L1120.4583,205.1459 L1166.4273,205.1459 L1166.4674,156.623 L1185.5811,156.623 L1209.8425,205.1459 L1260.1881,205.1459 L1227.7193,146.4077 C1234.1207,141.0295 1239.1622,134.4751 1243.0424,127.2539 C1249.9143,114.4649 1253.1584,100.2797 1251.2146,86.3925 C1249.8179,76.4142 1245.9211,67.0087 1239.2116,59.5773 C1228.5668,47.7871 1211.7707,41.7004 1193.2426,41.7004 L1120.4583,41.7004 Z M1166.4273,76.1772 L1188.1349,76.1772 C1194.8292,76.1772 1200.7564,79.0282 1204.7348,83.8387 C1208.5201,88.4156 1210.2669,94.4312 1209.8425,100.4386 C1209.2799,108.4037 1205.0822,115.5634 1198.3502,119.5924 C1193.6634,122.3974 1187.9471,123.4231 1181.7503,123.4231 L1166.4223,123.4231 L1166.4273,76.1772 Z M1448.626,41.7004 L1394.9955,205.1459 L1444.7953,205.1459 L1452.4568,179.6075 L1513.7488,179.6075 L1521.4103,205.1459 L1569.9332,205.1459 L1515.0257,41.7004 L1448.626,41.7004 Z M1480.549,77.4541 L1484.3797,77.4541 L1503.5335,146.4077 L1462.6721,146.4077 L1480.549,77.4541 Z M1586.5331,41.7004 L1586.5331,205.1459 L1654.4751,205.1459 C1678.9132,205.1459 1700.7457,196.1455 1715.5018,179.6075 C1729.1504,164.3106 1735.7973,143.5736 1735.9324,122.1462 C1736.0694,100.4369 1729.5682,79.4138 1715.5018,64.6849 C1700.5838,49.0644 1678.2097,41.7004 1653.1932,41.7004 L1586.5331,41.7004 Z M1632.5021,80.008 L1652.9328,80.008 C1674.932,80.008 1689.3577,98.795 1689.9634,122.1462 C1690.6034,146.816 1675.8054,166.8383 1652.9328,166.8383 L1632.5021,166.8383 L1632.5021,80.008 Z M1760.1939,41.7004 L1760.1939,205.1459 L1867.4549,205.1459 L1867.4549,166.8383 L1803.6091,166.8383 L1803.6091,142.5769 L1861.0703,142.5769 L1861.0703,104.2694 L1803.6091,104.2694 L1803.6091,80.008 L1863.6092,80.008 L1863.6092,41.7004 L1760.1939,41.7004 Z" fill="rgb(233,108,76)" opacity="1"/></g><g><path d="M677.7432,315.2998 C677.7689,329.7199 673.9833,343.6388 664.7383,352.7983 C655.6649,361.7879 641.9464,365.5 626.5322,365.5 L602.9482,365.5 L602.9482,266.9863 L629.5645,266.9863 C644.0485,266.9863 656.9354,270.7126 665.4458,279.3174 C674.1994,288.1681 677.7185,301.5065 677.7432,315.2998 Z M670.2637,315.5693 C670.328,303.3428 667.2707,291.5144 659.5161,283.731 C652.0432,276.2302 640.7057,273.0508 627.9473,273.0508 L609.8213,273.0508 L609.8213,359.4356 L626.1279,359.4356 C639.3746,359.4356 651.1782,355.9425 659,348 C666.912,339.9659 670.1984,327.9833 670.2637,315.5693 Z M743.1719,365.5 L741.4873,353.9102 L740.9482,353.9102 C738.0195,358.2823 734.1554,361.7299 729.5942,363.9165 C725.3346,365.9586 720.5999,366.8683 715.8145,366.8477 C709.4516,366.8203 703.302,365.2376 699.0361,361.3223 C694.8825,357.5101 692.7694,351.8151 693.0391,346.0264 C693.3447,339.4643 696.641,333.354 701.9673,329.3828 C708.5197,324.4974 717.7093,323.409 727.8086,323.1162 L741.7568,322.7119 L741.7568,317.8604 C741.7568,311.4709 740.8402,305.8008 737.5117,302.0928 C734.3388,298.5581 729.2173,296.9963 723.833,296.7695 C716.696,296.469 709.5281,298.6782 702.7422,302.4297 L700.249,296.6348 C707.9173,292.8835 715.9692,290.7876 724.1025,290.9746 C731.0876,291.1353 737.8203,292.8414 742.1274,297.2412 C746.5499,301.7588 748.0908,308.8099 748.0908,316.7822 L748.0908,365.5 L743.1719,365.5 Z M716.2188,360.7832 C723.2812,360.9068 730.0454,358.7393 734.7153,354.0786 C739.2908,349.5123 741.4873,342.8687 741.4873,335.4473 L741.4873,328.2373 L728.6846,328.7764 C719.9315,329.1449 712.0452,329.6231 706.6841,333.5942 C702.6352,336.5933 700.244,341.2853 700.1143,346.2959 C700.0089,350.3654 701.4435,354.3624 704.3257,356.9761 C707.3284,359.699 711.7242,360.7046 716.2188,360.7832 Z M800.6494,290.8399 C803.9894,290.681 807.3352,290.9787 810.6221,291.7832 L809.3418,298.1846 C806.2705,296.9745 803.0209,296.7076 799.8408,297.0391 C793.7932,297.6695 788.2502,300.4706 784.4775,304.9902 C780.1599,310.1628 778.4805,317.2777 778.4805,325.0703 L778.4805,365.5 L771.8096,365.5 L771.8096,292.2549 L777.4697,292.2549 L778.1436,305.4619 L778.6152,305.4619 C780.6626,300.5826 783.9702,296.5956 788.251,294.1079 C791.9308,291.9695 796.2422,291.0495 800.6494,290.8399 Z M832.0498,333.3584 L869.4473,292.2549 L877.5332,292.2549 L848.6934,323.5205 L880.0264,365.5 L872.0078,365.5 L844.1787,328.5068 L832.1846,339.4229 L832.1846,365.5 L825.5137,365.5 L825.5137,260.6524 L832.1846,260.6524 L832.1846,313.2109 L831.7129,333.3584 L832.0498,333.3584 Z M1019.6436,365.5 L1019.6436,317.4561 C1019.6436,311.0991 1018.7844,305.4599 1015.4658,301.8233 C1012.4534,298.5221 1007.6454,297.0592 1002.6631,296.9043 C996.1977,296.7033 989.9712,298.7018 986.0195,303.1035 C981.8528,307.7448 980.6289,314.731 980.6289,322.5772 L980.6289,365.5 L973.8232,365.5 L973.8232,315.4346 C973.8232,305.3883 966.647,297.8862 956.8428,296.9043 C950.5301,296.2721 944.0869,298.7129 940.0645,303.6089 C935.7845,308.8184 934.8086,316.4741 934.8086,325.0703 L934.8086,365.5 L928.1377,365.5 L928.1377,292.2549 L933.6631,292.2549 L935.0781,302.2949 L935.4824,302.2949 C937.5641,298.642 940.5444,295.7563 944.1074,293.8384 C947.8447,291.8266 952.106,290.9362 956.4385,290.8399 C962.1023,290.7139 967.6571,291.9435 972,295 C975.0678,297.1591 977.4348,300.1556 978.6748,303.8447 L978.9443,303.8447 C981.2231,299.6913 984.5559,296.4066 988.5464,294.209 C992.7007,291.9211 997.4495,290.8829 1002.2588,290.8399 C1009.244,290.7774 1015.9499,292.7035 1020.25,297.2412 C1024.7681,302.009 1026.2471,309.3344 1026.2471,317.5908 L1026.2471,365.5 L1019.6436,365.5 Z M1110.543,328.7764 C1110.5854,339.3771 1108.2333,349.6404 1101.8506,356.7739 C1095.98,363.3351 1087.1641,366.8107 1077.8623,366.8477 C1071.8442,366.8716 1065.8735,365.3999 1060.8818,362.1983 C1055.9519,359.0362 1052.1394,354.3 1049.6289,348.8565 C1046.7758,342.67 1045.7122,335.7598 1045.7207,328.7764 C1045.7335,318.1761 1048.0597,307.9504 1054.4131,300.8462 C1060.2899,294.2749 1069.1024,290.7948 1078.2666,290.8399 C1087.3791,290.8846 1096.1291,294.4084 1101.9517,300.981 C1108.2524,308.0933 1110.5736,318.2788 1110.543,328.7764 Z M1052.7285,328.7764 C1052.7214,337.6538 1054.3009,346.2754 1059.3657,352.3267 C1063.9148,357.7617 1070.8744,360.7846 1078.1318,360.7832 C1085.3862,360.7819 1092.3469,357.7605 1096.8979,352.3267 C1101.9667,346.2747 1103.5456,337.6522 1103.5352,328.7764 C1103.5247,319.8975 1101.9257,311.2767 1096.8306,305.2598 C1092.2586,299.8607 1085.2727,296.8966 1077.9971,296.9043 C1070.7627,296.912 1063.8227,299.8578 1059.2983,305.2261 C1054.2265,311.2439 1052.6846,319.8836 1052.7285,328.7764 Z M1157.6436,290.8399 C1162.4131,290.7537 1167.1859,291.6111 1171.3896,293.7373 C1175.6657,295.9002 1179.2903,299.2865 1181.7666,303.6426 L1182.1709,303.6426 C1181.9014,298.0965 1181.7666,292.5489 1181.7666,286.999 L1181.7666,260.6524 L1188.3701,260.6524 L1188.3701,365.5 L1183.9902,365.5 L1182.3057,354.3145 L1181.7666,354.3145 C1179.7709,357.4827 1177.0816,360.02 1174,362 C1169.1853,365.0936 1163.505,366.7178 1157.7783,366.8477 C1148.7573,367.0522 1140.1618,363.8128 1134.5986,357.4141 C1128.5715,350.4817 1126.7062,340.3792 1126.5801,329.9219 C1126.4472,318.8983 1128.2524,308.2182 1134.5313,300.8799 C1140.0515,294.4282 1148.571,291.0037 1157.6436,290.8399 Z M1157.6436,296.9043 C1150.5791,297.1401 1143.8677,300.0506 1139.6187,305.3272 C1134.6299,311.5222 1133.5581,320.5322 1133.5879,329.7871 C1133.618,339.153 1134.7727,348.2349 1140,354 C1144.2662,358.705 1150.9028,360.9016 1157.7783,360.918 C1164.8884,360.9349 1171.7289,358.619 1175.9717,353.708 C1180.7926,348.1279 1181.7666,339.5699 1181.7666,329.9219 L1181.7666,328.7764 C1181.7666,318.9123 1180.8939,310.1562 1176.0728,304.3501 C1171.79,299.1924 1164.8294,296.6644 1157.6436,296.9043 Z M1242.5459,366.8477 C1232.8525,366.5141 1223.6933,363.4248 1217.6479,357.0098 C1211.1799,350.1462 1208.7494,339.9686 1208.7197,329.4502 C1208.69,318.9337 1211.0822,308.7287 1217.3447,301.3853 C1223.1171,294.6166 1231.6707,290.7349 1240.5918,290.8399 C1248.424,290.932 1255.9625,294.1147 1261.0088,299.8692 C1266.4089,306.0271 1268.4883,314.761 1268.4883,324.3965 L1268.4883,329.7871 L1215.7275,329.7871 C1214.4386,338.7402 1217.0318,347.1226 1222.769,352.832 C1227.7807,357.8194 1234.9609,360.3792 1242.5459,360.7832 C1246.2161,360.9787 1249.9132,360.622 1253.563,359.9072 C1257.6882,359.0994 1261.6939,357.7933 1265.5908,356.1338 L1265.5908,362.1983 C1261.8996,363.8433 1258.0706,365.0858 1254.1357,365.8706 C1250.307,366.6342 1246.4183,366.9809 1242.5459,366.8477 Z M1240.5918,296.7695 C1234.2715,296.552 1228.1383,299.1829 1223.6113,303.7437 C1218.551,308.8419 1215.9687,315.9866 1216.1318,323.8574 L1261.4131,323.8574 C1262.3606,316.2304 1260.4685,309.0803 1255.8877,303.9458 C1251.9925,299.5799 1246.4315,296.9706 1240.5918,296.7695 Z M1354.1318,366.8477 C1344.4385,366.5141 1335.2793,363.4248 1329.2339,357.0098 C1322.7658,350.1462 1320.3353,339.9686 1320.3057,329.4502 C1320.276,318.9337 1322.6681,308.7287 1328.9307,301.3853 C1334.703,294.6166 1343.2567,290.7349 1352.1777,290.8399 C1360.01,290.932 1367.5485,294.1147 1372.5947,299.8692 C1377.9948,306.0271 1380.0742,314.761 1380.0742,324.3965 L1380.0742,329.7871 L1327.3135,329.7871 C1326.0246,338.7402 1328.6178,347.1226 1334.355,352.832 C1339.3666,357.8194 1346.5468,360.3792 1354.1318,360.7832 C1357.8021,360.9787 1361.4991,360.622 1365.1489,359.9072 C1369.2741,359.0994 1373.2798,357.7933 1377.1768,356.1338 L1377.1768,362.1983 C1373.4856,363.8433 1369.6566,365.0858 1365.7217,365.8706 C1361.8929,366.6342 1358.0042,366.9809 1354.1318,366.8477 Z M1352.1777,296.7695 C1345.8575,296.552 1339.7242,299.1829 1335.1973,303.7437 C1330.1369,308.8419 1327.5546,315.9866 1327.7178,323.8574 L1372.999,323.8574 C1373.9465,316.2304 1372.0544,309.0803 1367.4736,303.9458 C1363.5785,299.5799 1358.0174,296.9706 1352.1777,296.7695 Z M1413.5635,365.5 L1385.2627,292.2549 L1392.1357,292.2549 L1411.0703,342.0508 C1413.1609,347.5489 1415.0474,353.1186 1416.7305,358.7617 L1417.1348,358.7617 C1418.7977,353.0667 1420.6841,347.4522 1422.7949,341.916 L1441.7295,292.2549 L1448.6025,292.2549 L1420.3018,365.5 L1413.5635,365.5 Z M1490.4473,366.8477 C1480.7539,366.5141 1471.5947,363.4248 1465.5493,357.0098 C1459.0813,350.1462 1456.6508,339.9686 1456.6211,329.4502 C1456.5914,318.9337 1458.9836,308.7287 1465.2461,301.3853 C1471.0185,294.6166 1479.5721,290.7349 1488.4932,290.8399 C1496.3254,290.932 1503.8639,294.1147 1508.9102,299.8692 C1514.3102,306.0271 1516.3896,314.761 1516.3896,324.3965 L1516.3896,329.7871 L1463.6289,329.7871 C1462.34,338.7402 1464.9332,347.1226 1470.6704,352.832 C1475.682,357.8194 1482.8622,360.3792 1490.4473,360.7832 C1494.1175,360.9787 1497.8146,360.622 1501.4644,359.9072 C1505.5896,359.0994 1509.5952,357.7933 1513.4922,356.1338 L1513.4922,362.1983 C1509.801,363.8433 1505.972,365.0858 1502.0371,365.8706 C1498.2084,366.6342 1494.3197,366.9809 1490.4473,366.8477 Z M1488.4932,296.7695 C1482.1729,296.552 1476.0396,299.1829 1471.5127,303.7437 C1466.4524,308.8419 1463.8701,315.9866 1464.0332,323.8574 L1509.3145,323.8574 C1510.2619,316.2304 1508.3699,309.0803 1503.7891,303.9458 C1499.8939,299.5799 1494.3329,296.9706 1488.4932,296.7695 Z M1565.4443,290.8399 C1568.7844,290.681 1572.1301,290.9787 1575.417,291.7832 L1574.1367,298.1846 C1571.0654,296.9745 1567.8158,296.7076 1564.6357,297.0391 C1558.5881,297.6695 1553.0451,300.4706 1549.2725,304.9902 C1544.9548,310.1628 1543.2754,317.2777 1543.2754,325.0703 L1543.2754,365.5 L1536.6045,365.5 L1536.6045,292.2549 L1542.2646,292.2549 L1542.9385,305.4619 L1543.4102,305.4619 C1545.4575,300.5826 1548.7651,296.5956 1553.0459,294.1079 C1556.7257,291.9695 1561.0372,291.0495 1565.4443,290.8399 Z M1578.0449,292.2549 L1584.918,292.2549 L1600.416,333.3584 C1603.5991,341.8005 1606.5863,350.3128 1609.3779,358.8965 L1609.7822,358.8965 C1612.6701,350.1795 1615.7471,341.5324 1619.0137,332.9541 L1634.5117,292.2549 L1641.3848,292.2549 L1608.5693,377.3594 C1606.6012,382.4636 1604.7667,387.5104 1601.8984,391.375 C1600.153,393.7267 1598.0593,395.6032 1595.5981,396.833 C1592.9473,398.1576 1589.9251,398.6557 1586.8721,398.6524 C1583.9777,398.6492 1581.0964,398.1873 1578.3145,397.2373 L1578.3145,391.4424 C1581.0968,392.2563 1583.9311,392.6735 1586.7373,392.5205 C1588.8969,392.4028 1591.0168,391.9556 1592.8018,390.9033 C1594.7474,389.7563 1596.2611,387.9517 1597.5522,385.8833 C1599.566,382.6574 1601.06,378.8768 1602.4712,375.1021 C1603.6685,371.8996 1604.9049,368.712 1606.0762,365.5 L1578.0449,292.2549 Z M1712.2041,365.5 L1696.167,316.5127 C1694.595,311.7108 1693.2701,306.8379 1692.1914,301.8906 L1691.7871,301.8906 L1690.3721,306.877 L1687.3398,316.6475 L1671.0332,365.5 L1664.4297,365.5 L1643.4736,292.2549 L1650.6162,292.2549 L1662.3408,334.7061 C1664.4532,342.3542 1666.2497,350.0796 1667.7314,357.8858 L1668.1357,357.8858 C1669.6789,350.7822 1671.6099,343.7986 1673.9307,336.9297 L1689.0244,292.2549 L1695.0889,292.2549 L1709.4414,336.7949 C1711.6684,343.7058 1713.6447,350.6904 1715.3711,357.751 L1715.7754,357.751 C1717.3072,349.8693 1719.1038,342.0536 1721.166,334.3018 L1732.3516,292.2549 L1739.0898,292.2549 L1719.2119,365.5 L1712.2041,365.5 Z M1804.5186,365.5 L1804.5186,317.9951 C1804.5186,311.415 1803.4291,305.6045 1799.8691,301.9243 C1796.4627,298.4028 1791.0454,297.0479 1785.4492,296.9043 C1777.9661,296.7123 1770.7538,298.6791 1766.2114,303.5415 C1761.5202,308.5632 1760.1133,316.3112 1760.1133,325.0703 L1760.1133,365.5 L1753.4424,365.5 L1753.4424,260.6524 L1760.1133,260.6524 L1760.1133,294.0068 L1759.7764,303.3731 L1760.248,303.3731 C1762.7524,299.1307 1766.3695,295.8764 1770.625,293.8047 C1775.358,291.5006 1780.7491,290.7438 1786.1904,290.8399 C1793.5029,290.9689 1800.5458,292.5401 1805,297 C1809.6427,301.6486 1811.1221,309.1043 1811.1221,317.5908 L1811.1221,365.5 L1804.5186,365.5 Z M1864.4219,366.8477 C1854.7285,366.5141 1845.5693,363.4248 1839.5239,357.0098 C1833.0559,350.1462 1830.6254,339.9686 1830.5957,329.4502 C1830.566,318.9337 1832.9582,308.7287 1839.2207,301.3853 C1844.9931,294.6166 1853.5467,290.7349 1862.4678,290.8399 C1870.3,290.932 1877.8385,294.1147 1882.8848,299.8692 C1888.2849,306.0271 1890.3643,314.761 1890.3643,324.3965 L1890.3643,329.7871 L1837.6035,329.7871 C1836.3146,338.7402 1838.9078,347.1226 1844.645,352.832 C1849.6567,357.8194 1856.8369,360.3792 1864.4219,360.7832 C1868.0921,360.9787 1871.7892,360.622 1875.439,359.9072 C1879.5642,359.0994 1883.5698,357.7933 1887.4668,356.1338 L1887.4668,362.1983 C1883.7756,363.8433 1879.9466,365.0858 1876.0117,365.8706 C1872.183,366.6342 1868.2943,366.9809 1864.4219,366.8477 Z M1862.4678,296.7695 C1856.1475,296.552 1850.0142,299.1829 1845.4873,303.7437 C1840.427,308.8419 1837.8447,315.9866 1838.0078,323.8574 L1883.2891,323.8574 C1884.2365,316.2304 1882.3445,309.0803 1877.7637,303.9458 C1873.8685,299.5799 1868.3075,296.9706 1862.4678,296.7695 Z M1939.4189,290.8399 C1942.759,290.681 1946.1047,290.9787 1949.3916,291.7832 L1948.1113,298.1846 C1945.04,296.9745 1941.7904,296.7076 1938.6104,297.0391 C1932.5627,297.6695 1927.0197,300.4706 1923.2471,304.9902 C1918.9294,310.1628 1917.25,317.2777 1917.25,325.0703 L1917.25,365.5 L1910.5791,365.5 L1910.5791,292.2549 L1916.2393,292.2549 L1916.9131,305.4619 L1917.3848,305.4619 C1919.4321,300.5826 1922.7397,296.5956 1927.0205,294.1079 C1930.7003,291.9695 1935.0118,291.0495 1939.4189,290.8399 Z M1991.1016,366.8477 C1981.4082,366.5141 1972.249,363.4248 1966.2036,357.0098 C1959.7355,350.1462 1957.3051,339.9686 1957.2754,329.4502 C1957.2457,318.9337 1959.6379,308.7287 1965.9004,301.3853 C1971.6728,294.6166 1980.2264,290.7349 1989.1475,290.8399 C1996.9797,290.932 2004.5182,294.1147 2009.5645,299.8692 C2014.9645,306.0271 2017.0439,314.761 2017.0439,324.3965 L2017.0439,329.7871 L1964.2832,329.7871 C1962.9943,338.7402 1965.5875,347.1226 1971.3247,352.832 C1976.3363,357.8194 1983.5165,360.3792 1991.1016,360.7832 C1994.7718,360.9787 1998.4689,360.622 2002.1187,359.9072 C2006.2439,359.0994 2010.2495,357.7933 2014.1465,356.1338 L2014.1465,362.1983 C2010.4553,363.8433 2006.6263,365.0858 2002.6914,365.8706 C1998.8627,366.6342 1994.974,366.9809 1991.1016,366.8477 Z M1989.1475,296.7695 C1982.8272,296.552 1976.6939,299.1829 1972.167,303.7437 C1967.1067,308.8419 1964.5243,315.9866 1964.6875,323.8574 L2009.9688,323.8574 C2010.9162,316.2304 2009.0242,309.0803 2004.4434,303.9458 C2000.5482,299.5799 1994.9872,296.9706 1989.1475,296.7695 Z" fill="rgb(233,108,76)" opacity="1"/></g></svg>