<?xml version="1.0" encoding="UTF-8" standalone="no"?>
<svg
   xmlns="http://www.w3.org/2000/svg"
   width="32"
   height="32"
   version="1.1">
  <g transform="translate(0,-1020.3622)">
    <g transform="translate(-0.03617182,-0.2161)">
      <path
         d="m 16.879322,1022.262 c 6.73685,0 10.10561,6.7369 10.10561,13.4737 0,3.3688 3.36675,10.1056 5.05124,15.1589 l -32.00000036,0 c 1.68426996,-5.0533 5.05302996,-11.8002 5.05302996,-15.169 0,-6.7368 3.3687701,-13.4636 11.7901204,-13.4636 z"
         fill="#0b2228" />
      <path
         d="m 16.879322,1022.262 c -6.73686,0 -11.7901204,5.0533 -8.4213503,13.4744 0,3.3687 -5.0530401,10.1049 -6.7375301,15.1582 l -1.68426996,0 c 1.68426996,-5.0533 5.05302996,-11.8002 5.05302996,-15.169 0,-6.7368 3.3687701,-13.4636 11.7901204,-13.4636 z"
         fill="#2c89a0" />
      <path
         d="m 16.879322,1022.262 c -5.05259,0 -10.1056203,6.7375 -5.05326,15.1589 l 10.10562,0 c 5.05325,-8.4214 0,-15.1589 -5.05236,-15.1589 z"
         fill="#2c89a0" />
      <path
         d="m 10.142462,1047.5889 c 0,-1.6845 1.6836,-1.6845 1.6836,0 l 0,1.6212 c 0,1.7474 -1.6836,1.7474 -1.6836,0.063 l 0,-1.6843 z"
         fill="#afdde9" />
      <path
         d="m 13.511672,1045.9044 c 0,-1.6526 1.68382,-1.6519 1.68382,0 l 0,3.3057 c 0,1.7456 -1.68382,1.7474 -1.68382,0.063 l 0,-3.3688 z"
         fill="#afdde9" />
      <path
         d="m 20.247412,1047.5889 c 0,-1.6845 1.68359,-1.6845 1.68359,0 l 0,1.6212 c 0,1.7474 -1.68359,1.7474 -1.68359,0.063 l 0,-1.6843 z"
         fill="#afdde9" />
      <path
         d="m 10.156162,1030.6833 a 6.7310151,6.7316888 0 0 1 6.73102,6.7317 6.7310151,6.7316888 0 1 1 -6.73102,-6.7317 z"
         fill="#501616" />
      <path
         d="m 23.616842,1030.6833 a 6.7310151,6.7316888 0 0 1 6.73079,6.7317 6.7310151,6.7316888 0 1 1 -6.73079,-6.7317 z"
         fill="#501616" />
      <path
         d="m 13.519532,1039.0944 c 2.24794,-1.6843 4.49633,-1.6843 6.74494,0 l 0,-1.6843 c 0,-1.6845 -6.74561,-1.6845 -6.74561,0 l 6.7e-4,1.6843 z"
         fill="#ffffff" />
      <path
         d="m 10.155942,1032.3674 a 5.0469701,5.0476438 0 0 1 5.04674,5.0476 5.0469701,5.0476438 0 1 1 -5.04674,-5.0476 z"
         fill="#ffffff" />
      <path
         d="m 23.616392,1032.3676 a 5.0467455,5.0474192 0 0 1 5.04697,5.0474 5.0467455,5.0474192 0 1 1 -5.04697,-5.0474 z"
         fill="#ffffff" />
      <path
         d="m 10.174802,1034.0896 a 3.3440612,3.3445103 0 0 1 3.34429,3.3445 3.3440612,3.3445103 0 1 1 -3.34429,-3.3445 z"
         fill="#c83737" />
      <path
         d="m 23.594842,1034.0943 a 3.3418155,3.3422646 0 0 1 3.34181,3.3423 3.3418155,3.3422646 0 1 1 -3.34181,-3.3423 z"
         fill="#c83737" />
      <path
         d="m 16.879322,1045.9044 c 0,-1.6526 1.68359,-1.6519 1.68359,0 l 0,3.3057 c 0,1.7456 -1.68359,1.7474 -1.68359,0.063 l 0,-3.3688 z"
         fill="#afdde9" />
    </g>
  </g>
</svg>
