<svg viewBox="0 0 2048 512" xmlns="http://www.w3.org/2000/svg"><defs><linearGradient x1="165.3988" y1="146.9299" x2="164.2501" y2="241.1208" id="gradient11764" gradientUnits="userSpaceOnUse"><stop offset="0%" stop-color="rgb(20,30,36)"/><stop offset="100%" stop-color="rgb(233,108,76)"/></linearGradient><linearGradient x1="313.6847" y1="152.7477" x2="314.8369" y2="241.4689" id="gradient11765" gradientUnits="userSpaceOnUse"><stop offset="0%" stop-color="rgb(20,30,36)"/><stop offset="100%" stop-color="rgb(233,108,76)"/></linearGradient></defs><g><path d="M-34,-22 L2066,-22 L2066,559 L-34,559 L-34,-22 Z" fill="rgb(20,30,36)" opacity="1"/></g><g><path d="M211.7531,277.7532 C268.3241,280.3349 321.1932,298.0227 348.0572,336.1342 C366.7567,362.6629 371.4898,395.884 358.9182,423.6211 C341.503,462.0448 293.7855,483.3856 235.806,483.3856 L68.4198,483.3856 C39.997,483.3856 17.4146,462.9481 8.8584,433.9864 C3.7546,416.7105 4.4585,397.668 10.3414,379.8754 C15.9743,362.8389 25.3996,347.7143 39.4609,334.1742 C77.4684,297.5755 144.4039,274.6797 211.7531,277.7532 Z" fill="rgb(233,108,76)" opacity="1"/><path d="M224.8538,279.4022 C276.2854,281.619 324.2359,297.5325 346.9799,331.7105 C362.1585,354.5198 364.5809,383.5391 356.7112,410.0973 C344.0335,452.8815 307.6322,482.2087 262,483 L89,486 C49.1281,486.6914 29.1645,445.3102 50,419 C57.4895,409.5425 70.212,405.7972 70,402 C69.7885,398.2129 60.43,395.1396 51,399 C41.7841,402.7727 36.1539,413.369 34,413 C30.9258,412.4733 34.4121,394.1598 44.3923,370.9019 C50.7695,356.0405 58.3822,342.2196 70.4829,329.9544 C102.8477,297.1495 163.3677,276.7519 224.8538,279.4022 Z" fill="rgb(20,30,36)" opacity="1"/><path d="M144,402.4584 C165.0218,404.6477 181.4934,419.8081 183,439.4584 C184.1026,453.8395 176.5367,467.3976 164,472 C156.086,474.9053 146.6548,473.4339 137,472 C126.5164,470.443 116.2473,468.9533 109,463.4584 C98.8809,455.7861 95.1529,442.0561 99,429.4584 C104.5498,411.2851 123.4798,400.3363 144,402.4584 Z" fill="rgb(139,188,199)" opacity="1"/><path d="M179.204,443.1075 C182.5323,445.8244 182.7328,452.2344 186.1799,454.8993 C189.3429,457.3446 194.2614,456.8111 198.0644,453.7165 C200.6329,451.6266 202.2582,448.4604 202.8386,444.9473 C203.1632,442.982 203.1484,440.96 202.6127,438.9883 C204.3901,440.7463 205.7452,442.8694 206.7568,445.1079 C208.2309,448.3701 208.826,451.9496 211.031,453.7165 C212.8006,455.1346 215.4185,455.3828 218.0068,454.8993 C220.7232,454.3919 223.2192,453.1357 224.8836,451.0053 C227.5426,447.6019 227.8491,442.4046 226.277,437.0719 C229.3585,440.0905 232.2735,443.3455 234.6371,446.8253 C236.1231,449.0131 237.3127,451.2683 239.2248,452.5418 C242.8972,454.9876 248.1399,454.0682 250.981,450.2029 C253.381,446.9375 253.4908,442.1793 252.171,437.1035 C249.4671,426.7052 241.1784,416.6581 230.457,410.5984 C217.5672,403.313 202.1365,401.3824 186.1722,401.851 C178.1005,402.0879 170.1001,402.9129 162.5967,405.3873 C151.854,408.93 142.5049,415.58 135.7096,424.5318 C130.0966,431.9263 126.5065,440.1565 128.7429,446.8253 C131.2519,454.3067 139.4667,458.3224 148.2497,455.1854 C160.5512,443.7054 173.4773,438.4328 179.204,443.1075 Z" fill="rgb(225,160,121)" opacity="1"/><path d="M164.9699,418.9584 C169.96,421.0427 173.3957,425.9907 176.1166,431.4985 C178.0079,435.327 179.5039,439.3517 180.3825,443.5833 C176.6011,445.0983 173.0392,447.1249 169.7735,449.4772 C167.0102,451.4676 164.5068,453.7981 161.522,455.3711 C157.0307,457.738 151.595,458.418 146.0983,458.4128 C140.1474,458.4071 134.3981,457.6116 130.8762,454.2461 C127.7477,451.2565 126.5403,446.5388 127.3379,441.9288 C128.3034,436.3482 132.2631,431.4363 137.103,427.3185 C146.195,419.583 156.9475,415.6076 164.9699,418.9584 Z" fill="rgb(225,160,121)" opacity="1"/><path d="M118,118.4584 C101.3157,132.8281 90.1887,151.928 87,174.4584 C73.9404,177.3084 64.6546,185.4159 62,197.4584 C59.1315,210.4711 65.1474,222.5947 77,231.4584 C71.2131,249.6767 73.0223,268.1898 81,284.4584 C91.9024,306.6914 113.4139,322.9372 140,332.4584 C158.4408,340.6663 177.9913,345.0041 198,346.4584 C227.8904,348.6309 258.7867,344.066 289,335.4584 C324.5032,323.7332 349.1694,300.4968 352,269.4584 C354.2177,245.1402 342.0734,223.632 319,210.4584 C335.7419,190.2302 338.4675,165.2933 328,143.4584 C312.0907,110.2719 269.587,91.3703 222,88.4584 C183.1029,86.0783 144.7026,95.4602 118,118.4584 Z" fill="rgb(225,160,121)" opacity="1"/><path d="M71,200.6209 L77,201.6209 C76.1763,207.4545 77.506,212.2564 80,212.6209 C82.5335,212.9913 85.1827,208.939 85,203.6209 C84.8488,199.2193 82.5263,195.4199 79,194.6209 C75.3164,193.7863 71.7259,196.2228 71,200.6209 Z" fill="rgb(20,30,36)" opacity="1"/><path d="M98,98.4584 C93.7316,74.5228 101.5864,52.092 117,35.4584 C140.0539,10.5798 179.0195,0.6618 219,3.4584 C243.4268,5.167 267.5198,11.631 292,17.4584 C328.3722,26.1166 360.6882,32.0208 360,38.4584 C359.4024,44.0482 334.4794,49.0881 303,50.4584 C309.252,55.184 313.5663,61.3762 315,68.4584 C316.2248,74.5088 315.2482,80.7922 312,86.4584 C278.3445,83.9966 244.6288,83.7416 211,85.4584 C173.1462,87.3908 135.4319,91.8329 98,98.4584 Z" fill="rgb(233,108,76)" opacity="1"/><path d="M134,89 C130.7913,71.7857 136.3068,55.6931 147.6662,43.6858 C165.9772,24.3302 198.3842,17.3184 231.5747,20.3297 C249.1721,21.9263 266.5201,26.3101 284.0816,30.3995 C310.0134,36.4381 333.249,40.9003 332.9922,45.5043 C332.7412,50.0064 311.1408,53.7504 284,54 C286.8868,57.94 288.6783,62.3858 289.1578,67.0531 C289.6073,71.4277 288.8868,75.853 287,80 C266.6341,78.5385 246.2549,78.4461 225.8205,79.3101 C195.2271,80.6038 164.5096,84.1504 134,89 Z" fill="rgb(20,30,36)" opacity="1"/><path d="M82.9388,184.4271 C87.9063,184.6614 93.5539,176.4143 101.9388,169.4271 C120.6363,153.8461 151.7954,145.9078 183.9388,142.4271 C223.8145,138.109 264.1638,140.908 304.9388,144.4271 C312.7479,145.101 320.6149,145.7256 326,149.4584 C329.6525,151.9903 332.3865,155.802 333,160.4584 C340.3601,157.1071 345.9342,151.3406 348.9388,144.4271 C351.6991,138.0755 352.1002,130.7629 351.9388,123.4271 C351.5469,105.6155 347.8272,88.526 336.9388,79.4271 C324.4107,68.958 303.5456,69.9092 281.9388,71.4271 C262.938,72.7618 244.0021,74.653 224.9388,75.4271 C202.0103,76.358 178.9701,75.6427 155.9388,75.4271 C132.0818,75.2036 108.6704,75.7439 90.9388,85.4271 C78.711,92.1045 69.6681,102.8032 65.9388,115.4271 C61.9296,128.998 64.7389,144.2844 68.9388,159.4271 C72.5889,172.5874 76.9087,184.1426 82.9388,184.4271 Z" fill="rgb(139,188,199)" opacity="1"/><path d="M90,133.4584 C87.7261,125.3385 86.3131,117.0936 88,109.4584 C90.1293,99.8213 96.7573,91.5205 106,86.4584 C119.4675,79.0824 137.5397,79.0916 156,79.4584 C175.3563,79.843 194.741,80.4623 214,79.4584 C244.826,77.8516 275.7855,72.179 303,73.4584 C317.2463,74.1281 330.1463,76.4299 338,84.4584 C345.2931,91.9138 347.5573,104.0515 348,116.4584 C348.3179,125.3676 347.8109,134.1762 343,138.4584 C334.2617,146.2364 312.6633,138.1802 289,133.4584 C264.2082,128.5114 238.5527,127.584 213,128.4584 C180.6957,129.5638 148.4461,133.5398 126,145.4584 C116.4024,150.5546 108.8842,156.8493 103,155.4584 C96.658,153.9593 92.8477,144.1472 90,133.4584 Z" fill="rgb(255,255,255)" opacity="1"/><path d="M83,220.4584 C87.1349,221.5373 88.9016,235.8248 93,250.4584 C98.1748,268.9352 106.3179,285.8337 120,295.4584 C134.9431,305.9701 153.9766,306.9057 166,297.4584 C172.8837,292.0496 176.6835,283.262 183,276.4584 C187.9161,271.1632 194.1543,267.139 201,266.4584 C212.7029,265.295 225.7799,274.2618 239,274.4584 C254.5806,274.6901 269.8173,263.008 280,266.4584 C291.0638,270.2074 294.7306,290.8977 306,294.4584 C314.4178,297.1181 325.751,290.546 335,280.4584 C344.3262,270.2866 350.0727,257.9919 353,258.4584 C356.5762,259.0283 355.4998,275.7376 351,296.4584 C343.9269,329.0285 330.1455,358.8061 306,372.4584 C287.5958,382.8644 264.0038,382.9872 240,383.4584 C209.1824,384.0633 178.4647,384.9873 156,372.4584 C140.6937,363.9218 129.5344,349.243 115,339.4584 C98.3008,328.2165 77.5457,323.671 69,310.4584 C61.4279,298.7509 63.4778,281.141 67,263.4584 C71.9725,238.4952 78.246,219.3761 83,220.4584 Z" fill="rgb(139,188,199)" opacity="1"/><path d="M190,282.4584 C194.4558,278.0267 199.4005,274.1156 205,273.4584 C215.1512,272.2669 227.0135,282.0032 239,282.4584 C254.6069,283.0511 269.418,268.561 278,272.4584 C283.9259,275.1496 286.2153,286.4575 293,293.4584 C299.9982,300.6796 311.1057,303.0432 322,301.4584 C336.8766,299.2942 348.6285,290.6381 350,292.4584 C351.1142,293.9372 344.8667,301.9222 339,311.4584 C325.3175,333.6993 317.5456,359.0864 301,366.4584 C285.6319,373.3057 263.3238,363.8638 241,364.4584 C220.292,365.0099 199.9213,374.2199 181,371.4584 C155.7767,367.7772 134.2121,343.0776 109,322.4584 C97.7611,313.2669 85.9443,304.9671 80,293.4584 C74.879,283.5436 74.1382,271.4802 75,259.4584 C76.3976,239.9628 81.0638,224.4411 83,224.4584 C85.7359,224.4828 81.5756,256.8311 99,284.4584 C109.6431,301.3335 127.1943,313.0184 145,312.4584 C155.3038,312.1343 165.0734,307.5451 173,300.4584 C179.1127,294.9934 183.9434,288.1345 190,282.4584 Z" fill="rgb(255,255,255)" opacity="1"/><path d="M352.1984,33.2657 C370.6672,29.0507 390.853,41.6779 399.1984,63.2657 C406.3155,81.6763 402.526,101.9285 389.1984,112.2657 C370.6997,126.6137 343.3308,119.0896 330.1984,97.2657 C314.3891,70.9934 325.9069,39.3471 352.1984,33.2657 Z" fill="rgb(139,188,199)" opacity="1"/><path d="M356.1984,40.2657 C370.2873,34.9021 386.2021,43.254 393.1984,58.2657 C402.6123,78.465 393.1856,100.2271 375.1984,104.2657 C357.1675,108.3142 339.2317,92.6487 339.1984,69.2657 C339.1803,56.5631 345.5929,44.5601 356.1984,40.2657 Z" fill="rgb(255,255,255)" opacity="1"/><path d="M195,301.4584 C203.0765,306.5262 212.2214,309.1204 221,308.4584 C227.7929,307.9462 234.386,305.3364 241,305.4584 C246.6387,305.5624 252.1265,307.6361 258,308.4584 C267.525,309.7919 278.032,307.9787 288,304.4584 C280.7303,312.2452 271.5868,317.409 262,318.4584 C254.8256,319.2437 247.453,317.5894 240,317.4584 C231.3874,317.307 222.8053,319.1741 215,317.4584 C206.5643,315.6041 199.1125,309.9258 195,301.4584 Z" fill="rgb(139,188,199)" opacity="1"/><path d="M114,459.4584 C108.8675,460.3602 103.5395,453.6087 101,444.4584 C98.2501,434.5497 99.8529,424.0454 106,416.4584 C112.875,407.973 124.5986,404.0065 137,404.4584 C143.9566,404.7119 149.8335,406.0999 150,407.4584 C150.2898,409.8224 132.8862,410.7167 127,422.4584 C123.6816,429.0779 125.3504,438.6353 123,447.4584 C121.3568,453.6268 118.0764,458.8209 114,459.4584 Z" fill="rgb(255,255,255)" opacity="1"/><g><path d="M213.8039,171.9497 C220.8677,169.1158 228.2831,167.6783 235.7514,167.5967 C243.8442,167.5083 251.9009,169.0132 259.6434,171.9278 C276.5752,150.697 301.7349,142.8743 325.9738,147.1735 C360.1867,153.2417 385.123,179.9796 386.8599,212.0578 C388.7342,246.6746 364.0837,276.9643 327.8704,283.0859 C304.327,287.0658 279.658,278.7874 264.0655,260.2125 C251.9956,245.8339 246.7238,226.5725 251.8084,206.7516 C248.7741,205.4073 245.5497,204.7312 242.2809,204.5969 C237.8603,204.4154 233.3802,205.2493 229.0393,206.7734 C232.7103,230.8782 223.8756,252.8786 207.2745,267.7149 C186.3848,286.3839 156.9729,291.4499 131.0976,280.7738 C108.2223,271.3356 91.4489,250.764 87.5679,226.3618 C83.9157,203.3981 92.2887,179.8147 109.3327,163.2438 C126.1681,146.8757 149.6768,139.3411 172.4507,143.6554 C189.1797,146.8245 204.245,156.3652 213.8039,171.9497 Z" fill="rgb(233,108,76)" opacity="0.2"/><path d="M211.6274,178.4791 C219.9446,174.3492 228.8761,172.1825 237.9279,171.9497 C247.824,171.6952 257.6801,173.7553 267.035,177.8217 C282.1413,156.5493 306.0947,148.3309 329.0743,153.0683 C357.8495,159.0006 378.7435,182.7369 380.8405,210.8539 C383.3483,244.478 360.0605,273.618 325.4627,278.2705 C305.1883,280.9968 284.0222,273.5591 270.0848,257.8047 C257.0762,243.1002 251.9186,222.745 257.7023,202.0365 C252.8673,199.4894 247.6086,198.2159 242.2809,198.0675 C235.5843,197.8809 228.8743,199.49 222.5098,202.4205 C227.2988,226.2666 219.3472,248.5423 202.9215,263.362 C184.493,279.9885 158.533,285.1194 135.4505,276.4209 C113.911,268.3038 98.0279,249.2277 94.0974,226.3618 C90.415,204.9397 97.8297,182.8385 113.6857,167.5967 C128.7033,153.1609 149.7209,146.5946 170.2743,150.1849 C187.0409,153.1137 202.1222,162.7825 211.6274,178.4791 Z" fill="rgb(233,108,76)" opacity="0.2"/><path d="M322.5916,158.6224 C352.555,160.8804 375.9845,186.6979 374.7765,217.614 C373.6543,246.3368 351.0832,269.8105 322.5916,272.0678 C290.7949,274.587 263.7854,250.8347 261.3311,219.8829 C258.5236,184.477 287.2132,155.7547 322.5916,158.6224 Z" fill="rgb(255,255,255)" opacity="1"/><path d="M158.6999,155.4251 C192.0369,155.3591 218.715,182.7414 217.4649,216.3666 C216.2951,247.833 190.4391,272.9551 158.6999,272.9551 C126.9607,272.9551 101.1047,247.833 99.9348,216.3666 C98.6847,182.7414 125.3629,155.3591 158.6999,155.4251 Z" fill="rgb(255,255,255)" opacity="1"/><path d="M240.1444,182.6253 C252.5092,182.5416 264.6358,186.0559 275.5008,192.9584 L270.6325,207.5635 C261.88,201.589 251.9878,198.3553 241.8055,198.0036 C230.8599,197.6255 220.04,200.5845 210.1544,206.3857 L203.1095,194.2148 C214.4784,186.7656 227.1439,182.7134 240.1444,182.6253 Z" fill="rgb(255,255,255)" opacity="1"/><path d="M158.9559,170.828 C182.836,170.834 202.5406,188.204 204.6431,210.2851 C207.2861,238.0429 183.7507,260.6186 154.8025,258.0491 C129.9181,255.8402 110.9529,234.684 113.2687,210.2851 C115.3817,188.0232 135.1586,170.7939 158.9559,170.828 Z" fill="url(#gradient11764)" opacity="1"/><path d="M322.8842,174.5496 C345.5938,176.6252 363.1424,195.6157 361.9726,217.9812 C360.9039,238.4154 344.0076,255.0457 322.8842,257.0696 C297.6057,259.4916 276.3347,241.4355 275.1095,217.9812 C273.7716,192.3721 295.9641,171.8833 322.8842,174.5496 Z" fill="url(#gradient11765)" opacity="1"/><path d="M179.9173,193.1629 C189.0624,192.8548 197.6368,196.7055 204.1754,204.0442 L189.7358,200.7354 C189.675,212.3263 183.8099,220.8262 176.1914,220.3965 C169.364,220.0113 164.5363,212.5613 165.2327,202.7538 L154.1163,207.4968 C160.8451,198.7712 169.8607,193.5017 179.9173,193.1629 Z" fill="rgb(20,30,36)" opacity="0.1"/><path d="M295.6397,191.8064 C304.5516,191.7269 312.7536,195.8102 318.7094,203.3413 L305.3606,198.7993 C306.0116,209.6388 300.9017,217.9045 293.6276,217.9231 C286.9506,217.9401 281.8922,210.9329 282.1391,201.3795 L269.6863,206.225 C276.434,197.2737 285.5287,191.8967 295.6397,191.8064 Z" fill="rgb(20,30,36)" opacity="0.1"/><path d="M124.033,242.2454 L138.657,203.691 C140.2026,199.6163 143.0204,197.0437 146.6338,197.0437 L199.8122,197.0437 C193.4613,184.1559 182.2082,175.962 169.2346,173.1135 C151.493,169.2181 133.5939,175.0939 122.7035,189.067 C116.3981,197.1573 113.1773,207.4335 113.8507,217.8454 C114.4232,226.6969 117.7856,235.2761 124.033,242.2454 Z" fill="rgb(20,30,36)" opacity="0.5"/><path d="M285.8124,242.7323 L299.9886,207.832 C301.7186,203.5731 304.6188,200.8702 308.3299,200.881 L358.103,201.0262 C352.8686,187.5353 341.8681,178.9329 328.9087,176.0025 C309.0431,171.5105 289.6772,179.824 280.2516,196.8556 C272.2632,211.2899 273.8434,228.8396 285.8124,242.7323 Z" fill="rgb(20,30,36)" opacity="0.5"/></g><g><path d="M230.1572,460.7892 L298.4627,287.5091 C311.5741,254.2475 341.7689,235.643 379.7982,235.643 L565.5763,235.643 C583.3867,235.643 590.0684,257.9217 580.9004,281.6152 L516.1312,449.0014 C513.2662,456.4057 507.1447,460.7892 499.4261,460.7892 L230.1572,460.7892 Z" fill="rgb(139,188,199)" opacity="0.2"/><path d="M244.1002,460.7892 L312.4057,287.5091 C323.5346,259.2768 347.3223,242.7156 377.2384,242.7156 L563.0165,242.7156 C580.5815,242.7156 588.65,261.5875 580.9004,281.6152 L516.1312,449.0014 C513.2662,456.4057 507.1447,460.7892 499.4261,460.7892 L244.1002,460.7892 Z" fill="rgb(139,188,199)" opacity="0.4"/><path d="M258.2456,460.7892 L326.551,287.5091 C335.0452,265.9607 353.2123,253.3246 376.0596,253.3246 L561.8377,253.3246 C577.4287,253.3246 586.579,266.9397 580.9004,281.6152 L516.1312,449.0014 C513.2662,456.4057 507.1447,460.7892 499.4261,460.7892 L258.2456,460.7892 Z" fill="rgb(255,255,255)" opacity="1"/><path d="M330.9548,309.2611 C342.1613,281.439 357.7508,262.1723 379.2846,262.1101 L564.1952,261.576 C578.4135,261.535 586.3741,274.6659 580.9004,288.6879 L511.4161,466.6831 C505.7816,481.1169 485.9176,483.2788 461.3347,483.2788 L175.0494,483.2788 C171.7854,483.2788 168.9342,482.3488 167.0902,480.3506 C164.8013,477.8704 164.2568,473.9458 164.2947,469.8967 C164.3316,465.9578 164.9138,462.1322 167.0845,459.4351 C169.1958,456.8117 172.6197,455.4293 176.5352,455.4293 L272.0796,455.4293 L330.9548,309.2611 Z" fill="rgb(20,30,36)" opacity="1"/><path d="M456.0983,367.3464 C461.1435,374.5783 469.5281,377.1916 478.8679,375.1245 C478.3145,377.7854 477.0889,380.1822 475.6439,382.4275 C469.2416,392.3758 459.4434,398.9382 448.3212,399.8987 C441.0329,400.528 433.7601,398.7825 428.523,394.2459 C420.0631,386.9177 417.7355,374.2453 422.2547,362.7674 C426.4183,352.1924 436.1083,344.5599 448.1511,341.2476 C451.2149,340.405 454.3781,339.8935 457.5979,340.2206 C451.5737,349.4088 450.5039,359.3271 456.0983,367.3464 Z" fill="rgb(49,110,125)" opacity="1"/><path d="M451.2184,370.5008 C455.3412,376.6144 462.0354,380.136 469.9925,380.4033 C464.6249,388.474 457.1568,393.9247 448.8888,395.0076 C442.5627,395.8361 436.2141,394.0712 431.7686,389.93 C425.1768,383.7894 423.6089,373.6485 427.0281,364.3829 C430.4439,355.1267 438.5727,348.4365 449.3837,346.3051 C446.1645,354.9568 446.5728,363.6118 451.2184,370.5008 Z" fill="rgb(139,188,199)" opacity="1"/></g><g><path d="M1112.4145,324.3889 C1146.7429,328.0276 1170.884,358.0821 1166.4145,390.3889 C1161.5206,425.764 1125.9843,448.2169 1089.4145,437.3889 C1061.6751,429.1755 1042.9385,402.409 1046.4145,374.3889 C1050.3384,342.7586 1079.8366,320.7727 1112.4145,324.3889 Z" fill="rgb(139,188,199)" opacity="0.1"/><path d="M1108.762,337.3611 C1103.7959,336.8872 1098.4452,340.7323 1092.8552,344.5976 C1086.4409,349.0329 1080.0396,353.1171 1078.733,358.4942 C1076.3487,368.3069 1087.6071,379.0331 1103.9292,381.4859 C1118.9948,383.75 1131.9704,377.9364 1132.7101,369.0152 C1133.1173,364.1043 1128.6883,358.792 1124.5667,353.054 C1119.3077,345.7326 1114.7417,338.324 1108.762,337.3611 Z" fill="rgb(139,188,199)" opacity="0.5"/><path d="M1108.5853,340.0209 C1104.4676,339.6634 1099.9366,343.8638 1094.9922,347.9498 C1089.6864,352.3345 1084.2057,356.218 1083.5564,360.7304 C1082.5028,368.0524 1091.9517,375.0767 1104.7889,377.046 C1115.7733,378.731 1125.5273,376.072 1126.9003,369.9781 C1127.8034,365.9694 1124.1956,360.8368 1120.9615,355.2802 C1116.761,348.0631 1113.4228,340.8133 1108.5853,340.0209 Z" fill="rgb(139,188,199)" opacity="0.5"/><path d="M1089.5444,360.2141 C1086.9013,362.9476 1090.9338,365.909 1100.9789,369.7837 C1100.7043,372.2683 1101.9645,374.2116 1104.1457,374.58 C1106.2782,374.9401 1108.0756,373.5871 1108.6239,371.2297 C1118.0328,371.1003 1122.2351,369.8996 1120.8947,366.8665 L1111.3357,345.236 C1110.7487,343.9079 1109.7386,342.9903 1108.5229,342.7641 C1107.4036,342.5558 1106.2323,342.9552 1105.3298,343.8885 L1089.5444,360.2141 Z" fill="rgb(255,255,255)" opacity="1"/></g><g><path d="M1190.597,349.4657 C1222.1457,335.4527 1258.0797,349.4101 1270.3624,379.6233 C1283.8116,412.706 1264.2627,449.919 1227.1784,458.8265 C1199.0487,465.5832 1169.4391,451.7711 1158.4393,425.7669 C1146.0224,396.4124 1160.5756,362.6229 1190.597,349.4657 Z" fill="rgb(233,108,76)" opacity="0.1"/><path d="M1193.9199,362.5261 C1189.3822,364.5989 1186.6709,370.6041 1183.7625,376.7465 C1180.4252,383.7948 1176.9236,390.5325 1178.4806,395.8425 C1181.3221,405.5326 1196.4353,409.1926 1211.797,403.1558 C1225.9762,397.5838 1234.3066,386.0612 1230.4867,377.9654 C1228.3838,373.5088 1221.8921,371.1227 1215.4537,368.2143 C1207.2385,364.5033 1199.5799,360.3702 1193.9199,362.5261 Z" fill="rgb(233,108,76)" opacity="0.5"/><path d="M1195.0968,364.918 C1191.352,366.6672 1189.5282,372.5704 1187.2893,378.5812 C1184.8867,385.0313 1182.082,391.1349 1183.7759,395.3674 C1186.5244,402.2353 1198.2195,403.594 1210.3216,398.8808 C1220.6768,394.8479 1227.7946,387.6682 1225.9367,381.7042 C1224.7145,377.781 1219.0237,375.1399 1213.4446,371.9448 C1206.1983,367.7949 1199.6824,363.1854 1195.0968,364.918 Z" fill="rgb(233,108,76)" opacity="0.5"/><path d="M1188.7035,391.9263 C1187.7813,395.6151 1192.7542,396.1635 1203.3909,394.4965 C1204.3953,396.7855 1206.4584,397.8384 1208.5315,397.0668 C1210.5584,396.3125 1211.4385,394.242 1210.7346,391.9263 C1218.8182,387.1098 1221.8572,383.9688 1219.1799,382.0122 L1200.0862,368.0592 C1198.9139,367.2025 1197.5803,366.9129 1196.4144,367.3248 C1195.3408,367.7041 1194.5261,368.6357 1194.2113,369.8951 L1188.7035,391.9263 Z" fill="rgb(255,255,255)" opacity="1"/></g><g><path d="M1328.4145,326.3889 C1362.7429,330.0276 1386.884,360.0821 1382.4145,392.3889 C1377.5206,427.764 1341.9843,450.2169 1305.4145,439.3889 C1277.6751,431.1755 1258.9385,404.409 1262.4145,376.3889 C1266.3384,344.7586 1295.8366,322.7727 1328.4145,326.3889 Z" fill="rgb(20,30,36)" opacity="0.1"/><path d="M1324.762,339.3611 C1319.7959,338.8872 1314.4452,342.7323 1308.8552,346.5976 C1302.4409,351.0329 1296.0396,355.1171 1294.733,360.4942 C1292.3487,370.3069 1303.6071,381.0331 1319.9292,383.4859 C1334.9948,385.75 1347.9704,379.9364 1348.7101,371.0152 C1349.1173,366.1043 1344.6883,360.792 1340.5667,355.054 C1335.3077,347.7326 1330.7417,340.324 1324.762,339.3611 Z" fill="rgb(20,30,36)" opacity="0.5"/><path d="M1324.5853,342.0209 C1320.4676,341.6634 1315.9366,345.8638 1310.9922,349.9498 C1305.6864,354.3345 1300.2057,358.218 1299.5564,362.7304 C1298.5028,370.0524 1307.9517,377.0767 1320.7889,379.046 C1331.7733,380.731 1341.5273,378.072 1342.9003,371.9781 C1343.8034,367.9694 1340.1956,362.8368 1336.9615,357.2802 C1332.761,350.0631 1329.4228,342.8133 1324.5853,342.0209 Z" fill="rgb(20,30,36)" opacity="0.5"/><path d="M1305.5444,362.2141 C1302.9013,364.9476 1306.9338,367.909 1316.9789,371.7837 C1316.7043,374.2683 1317.9645,376.2116 1320.1457,376.58 C1322.2782,376.9401 1324.0756,375.5871 1324.6239,373.2297 C1334.0328,373.1003 1338.2351,371.8996 1336.8947,368.8665 L1327.3357,347.236 C1326.7487,345.9079 1325.7386,344.9903 1324.5229,344.7641 C1323.4036,344.5558 1322.2323,344.9552 1321.3298,345.8885 L1305.5444,362.2141 Z" fill="rgb(49,110,125)" opacity="1"/></g><g><path d="M1393.597,288.4657 C1425.1457,274.4527 1461.0797,288.4101 1473.3624,318.6233 C1486.8116,351.706 1467.2627,388.919 1430.1784,397.8265 C1402.0487,404.5832 1372.4391,390.7711 1361.4393,364.7669 C1349.0224,335.4124 1363.5756,301.6229 1393.597,288.4657 Z" fill="rgb(233,108,76)" opacity="0.1"/><path d="M1396.9199,301.5261 C1392.3822,303.5989 1389.6709,309.6041 1386.7625,315.7465 C1383.4252,322.7948 1379.9236,329.5325 1381.4806,334.8425 C1384.3221,344.5326 1399.4353,348.1926 1414.797,342.1558 C1428.9762,336.5838 1437.3066,325.0612 1433.4867,316.9654 C1431.3838,312.5088 1424.8921,310.1227 1418.4537,307.2143 C1410.2385,303.5033 1402.5799,299.3702 1396.9199,301.5261 Z" fill="rgb(233,108,76)" opacity="0.5"/><path d="M1398.0968,303.918 C1394.352,305.6672 1392.5282,311.5704 1390.2893,317.5812 C1387.8867,324.0313 1385.082,330.1349 1386.7759,334.3674 C1389.5244,341.2353 1401.2195,342.594 1413.3216,337.8808 C1423.6768,333.8479 1430.7946,326.6682 1428.9367,320.7042 C1427.7145,316.781 1422.0237,314.1399 1416.4446,310.9448 C1409.1983,306.7949 1402.6824,302.1854 1398.0968,303.918 Z" fill="rgb(233,108,76)" opacity="0.5"/><path d="M1391.7035,330.9263 C1390.7813,334.6151 1395.7542,335.1635 1406.3909,333.4965 C1407.3953,335.7855 1409.4584,336.8384 1411.5315,336.0668 C1413.5584,335.3125 1414.4385,333.242 1413.7346,330.9263 C1421.8182,326.1098 1424.8572,322.9688 1422.1799,321.0122 L1403.0862,307.0592 C1401.9139,306.2025 1400.5803,305.9129 1399.4144,306.3248 C1398.3408,306.7041 1397.5261,307.6357 1397.2113,308.8951 L1391.7035,330.9263 Z" fill="rgb(255,255,255)" opacity="1"/></g><g><path d="M1521.4145,253.3889 C1555.7429,257.0276 1579.884,287.0821 1575.4145,319.3889 C1570.5206,354.764 1534.9843,377.2169 1498.4145,366.3889 C1470.6751,358.1755 1451.9385,331.409 1455.4145,303.3889 C1459.3384,271.7586 1488.8366,249.7727 1521.4145,253.3889 Z" fill="rgb(139,188,199)" opacity="0.1"/><path d="M1517.762,266.3611 C1512.7959,265.8872 1507.4452,269.7323 1501.8552,273.5976 C1495.4409,278.0329 1489.0396,282.1171 1487.733,287.4942 C1485.3487,297.3069 1496.6071,308.0331 1512.9292,310.4859 C1527.9948,312.75 1540.9704,306.9364 1541.7101,298.0152 C1542.1173,293.1043 1537.6883,287.792 1533.5667,282.054 C1528.3077,274.7326 1523.7417,267.324 1517.762,266.3611 Z" fill="rgb(139,188,199)" opacity="0.5"/><path d="M1517.5853,269.0209 C1513.4676,268.6634 1508.9366,272.8638 1503.9922,276.9498 C1498.6864,281.3345 1493.2057,285.218 1492.5564,289.7304 C1491.5028,297.0524 1500.9517,304.0767 1513.7889,306.046 C1524.7733,307.731 1534.5273,305.072 1535.9003,298.9781 C1536.8034,294.9694 1533.1956,289.8368 1529.9615,284.2802 C1525.761,277.0631 1522.4228,269.8133 1517.5853,269.0209 Z" fill="rgb(139,188,199)" opacity="0.5"/><path d="M1498.5444,289.2141 C1495.9013,291.9476 1499.9338,294.909 1509.9789,298.7837 C1509.7043,301.2683 1510.9645,303.2116 1513.1457,303.58 C1515.2782,303.9401 1517.0756,302.5871 1517.6239,300.2297 C1527.0328,300.1003 1531.2351,298.8996 1529.8947,295.8665 L1520.3357,274.236 C1519.7487,272.9079 1518.7386,271.9903 1517.5229,271.7641 C1516.4036,271.5558 1515.2323,271.9552 1514.3298,272.8885 L1498.5444,289.2141 Z" fill="rgb(255,255,255)" opacity="1"/></g><g><path d="M1580.597,281.4657 C1612.1457,267.4527 1648.0797,281.4101 1660.3624,311.6233 C1673.8116,344.706 1654.2627,381.919 1617.1784,390.8265 C1589.0487,397.5832 1559.4391,383.7711 1548.4393,357.7669 C1536.0224,328.4124 1550.5756,294.6229 1580.597,281.4657 Z" fill="rgb(233,108,76)" opacity="0.1"/><path d="M1583.9199,294.5261 C1579.3822,296.5989 1576.6709,302.6041 1573.7625,308.7465 C1570.4252,315.7948 1566.9236,322.5325 1568.4806,327.8425 C1571.3221,337.5326 1586.4353,341.1926 1601.797,335.1558 C1615.9762,329.5838 1624.3066,318.0612 1620.4867,309.9654 C1618.3838,305.5088 1611.8921,303.1227 1605.4537,300.2143 C1597.2385,296.5033 1589.5799,292.3702 1583.9199,294.5261 Z" fill="rgb(233,108,76)" opacity="0.5"/><path d="M1585.0968,296.918 C1581.352,298.6672 1579.5282,304.5704 1577.2893,310.5812 C1574.8867,317.0313 1572.082,323.1349 1573.7759,327.3674 C1576.5244,334.2353 1588.2195,335.594 1600.3216,330.8808 C1610.6768,326.8479 1617.7946,319.6682 1615.9367,313.7042 C1614.7145,309.781 1609.0237,307.1399 1603.4446,303.9448 C1596.1983,299.7949 1589.6824,295.1854 1585.0968,296.918 Z" fill="rgb(233,108,76)" opacity="0.5"/><path d="M1578.7035,323.9263 C1577.7813,327.6151 1582.7542,328.1635 1593.3909,326.4965 C1594.3953,328.7855 1596.4584,329.8384 1598.5315,329.0668 C1600.5584,328.3125 1601.4385,326.242 1600.7346,323.9263 C1608.8182,319.1098 1611.8572,315.9688 1609.1799,314.0122 L1590.0862,300.0592 C1588.9139,299.2025 1587.5803,298.9129 1586.4144,299.3248 C1585.3408,299.7041 1584.5261,300.6357 1584.2113,301.8951 L1578.7035,323.9263 Z" fill="rgb(255,255,255)" opacity="1"/></g><g><path d="M1715.4145,295.3889 C1749.7429,299.0276 1773.884,329.0821 1769.4145,361.3889 C1764.5206,396.764 1728.9843,419.2169 1692.4145,408.3889 C1664.6751,400.1755 1645.9385,373.409 1649.4145,345.3889 C1653.3384,313.7586 1682.8366,291.7727 1715.4145,295.3889 Z" fill="rgb(139,188,199)" opacity="0.1"/><path d="M1711.762,308.3611 C1706.7959,307.8872 1701.4452,311.7323 1695.8552,315.5976 C1689.4409,320.0329 1683.0396,324.1171 1681.733,329.4942 C1679.3487,339.3069 1690.6071,350.0331 1706.9292,352.4859 C1721.9948,354.75 1734.9704,348.9364 1735.7101,340.0152 C1736.1173,335.1043 1731.6883,329.792 1727.5667,324.054 C1722.3077,316.7326 1717.7417,309.324 1711.762,308.3611 Z" fill="rgb(139,188,199)" opacity="0.5"/><path d="M1711.5853,311.0209 C1707.4676,310.6634 1702.9366,314.8638 1697.9922,318.9498 C1692.6864,323.3345 1687.2057,327.218 1686.5564,331.7304 C1685.5028,339.0524 1694.9517,346.0767 1707.7889,348.046 C1718.7733,349.731 1728.5273,347.072 1729.9003,340.9781 C1730.8034,336.9694 1727.1956,331.8368 1723.9615,326.2802 C1719.761,319.0631 1716.4228,311.8133 1711.5853,311.0209 Z" fill="rgb(139,188,199)" opacity="0.5"/><path d="M1692.5444,331.2141 C1689.9013,333.9476 1693.9338,336.909 1703.9789,340.7837 C1703.7043,343.2683 1704.9645,345.2116 1707.1457,345.58 C1709.2782,345.9401 1711.0756,344.5871 1711.6239,342.2297 C1721.0328,342.1003 1725.2351,340.8996 1723.8947,337.8665 L1714.3357,316.236 C1713.7487,314.9079 1712.7386,313.9903 1711.5229,313.7641 C1710.4036,313.5558 1709.2323,313.9552 1708.3298,314.8885 L1692.5444,331.2141 Z" fill="rgb(255,255,255)" opacity="1"/></g><g><path d="M1795.597,293.4657 C1827.1457,279.4527 1863.0797,293.4101 1875.3624,323.6233 C1888.8116,356.706 1869.2627,393.919 1832.1784,402.8265 C1804.0487,409.5832 1774.4391,395.7711 1763.4393,369.7669 C1751.0224,340.4124 1765.5756,306.6229 1795.597,293.4657 Z" fill="rgb(233,108,76)" opacity="0.1"/><path d="M1798.9199,306.5261 C1794.3822,308.5989 1791.6709,314.6041 1788.7625,320.7465 C1785.4252,327.7948 1781.9236,334.5325 1783.4806,339.8425 C1786.3221,349.5326 1801.4353,353.1926 1816.797,347.1558 C1830.9762,341.5838 1839.3066,330.0612 1835.4867,321.9654 C1833.3838,317.5088 1826.8921,315.1227 1820.4537,312.2143 C1812.2385,308.5033 1804.5799,304.3702 1798.9199,306.5261 Z" fill="rgb(233,108,76)" opacity="0.5"/><path d="M1800.0968,308.918 C1796.352,310.6672 1794.5282,316.5704 1792.2893,322.5812 C1789.8867,329.0313 1787.082,335.1349 1788.7759,339.3674 C1791.5244,346.2353 1803.2195,347.594 1815.3216,342.8808 C1825.6768,338.8479 1832.7946,331.6682 1830.9367,325.7042 C1829.7145,321.781 1824.0237,319.1399 1818.4446,315.9448 C1811.1983,311.7949 1804.6824,307.1854 1800.0968,308.918 Z" fill="rgb(233,108,76)" opacity="0.5"/><path d="M1793.7035,335.9263 C1792.7813,339.6151 1797.7542,340.1635 1808.3909,338.4965 C1809.3953,340.7855 1811.4584,341.8384 1813.5315,341.0668 C1815.5584,340.3125 1816.4385,338.242 1815.7346,335.9263 C1823.8182,331.1098 1826.8572,327.9688 1824.1799,326.0122 L1805.0862,312.0592 C1803.9139,311.2025 1802.5803,310.9129 1801.4144,311.3248 C1800.3408,311.7041 1799.5261,312.6357 1799.2113,313.8951 L1793.7035,335.9263 Z" fill="rgb(255,255,255)" opacity="1"/></g><g><path d="M1915.4145,231.3889 C1949.7429,235.0276 1973.884,265.0821 1969.4145,297.3889 C1964.5206,332.764 1928.9843,355.2169 1892.4145,344.3889 C1864.6751,336.1755 1845.9385,309.409 1849.4145,281.3889 C1853.3384,249.7586 1882.8366,227.7727 1915.4145,231.3889 Z" fill="rgb(139,188,199)" opacity="0.1"/><path d="M1911.762,244.3611 C1906.7959,243.8872 1901.4452,247.7323 1895.8552,251.5976 C1889.4409,256.0329 1883.0396,260.1171 1881.733,265.4942 C1879.3487,275.3069 1890.6071,286.0331 1906.9292,288.4859 C1921.9948,290.75 1934.9704,284.9364 1935.7101,276.0152 C1936.1173,271.1043 1931.6883,265.792 1927.5667,260.054 C1922.3077,252.7326 1917.7417,245.324 1911.762,244.3611 Z" fill="rgb(139,188,199)" opacity="0.5"/><path d="M1911.5853,247.0209 C1907.4676,246.6634 1902.9366,250.8638 1897.9922,254.9498 C1892.6864,259.3345 1887.2057,263.218 1886.5564,267.7304 C1885.5028,275.0524 1894.9517,282.0767 1907.7889,284.046 C1918.7733,285.731 1928.5273,283.072 1929.9003,276.9781 C1930.8034,272.9694 1927.1956,267.8368 1923.9615,262.2802 C1919.761,255.0631 1916.4228,247.8133 1911.5853,247.0209 Z" fill="rgb(139,188,199)" opacity="0.5"/><path d="M1892.5444,267.2141 C1889.9013,269.9476 1893.9338,272.909 1903.9789,276.7837 C1903.7043,279.2683 1904.9645,281.2116 1907.1457,281.58 C1909.2782,281.9401 1911.0756,280.5871 1911.6239,278.2297 C1921.0328,278.1003 1925.2351,276.8996 1923.8947,273.8665 L1914.3357,252.236 C1913.7487,250.9079 1912.7386,249.9903 1911.5229,249.7641 C1910.4036,249.5558 1909.2323,249.9552 1908.3298,250.8885 L1892.5444,267.2141 Z" fill="rgb(255,255,255)" opacity="1"/></g></g><g><path d="M399,41.7004 L399,205.1459 L466.942,205.1459 C491.3801,205.1459 513.2126,196.1455 527.9687,179.6075 C541.6173,164.3106 548.2642,143.5736 548.3993,122.1462 C548.5362,100.4369 542.0351,79.4138 527.9687,64.6849 C513.0507,49.0644 490.6766,41.7004 465.6601,41.7004 L399,41.7004 Z M444.969,80.008 L465.3997,80.008 C487.3989,80.008 501.8246,98.795 502.4303,122.1462 C503.0703,146.816 488.2723,166.8383 465.3997,166.8383 L444.969,166.8383 L444.969,80.008 Z M602.0299,41.7004 L548.3993,205.1459 L598.1991,205.1459 L605.8606,179.6075 L667.1526,179.6075 L674.8141,205.1459 L723.337,205.1459 L668.4296,41.7004 L602.0299,41.7004 Z M633.9528,77.4541 L637.7835,77.4541 L656.9373,146.4077 L616.0759,146.4077 L633.9528,77.4541 Z M737.3831,41.7004 L737.3831,205.1459 L783.3521,205.1459 L783.3922,156.623 L802.5059,156.623 L826.7673,205.1459 L877.1129,205.1459 L844.6441,146.4077 C851.0455,141.0295 856.087,134.4751 859.9672,127.2539 C866.8391,114.4649 870.0832,100.2797 868.1394,86.3925 C866.7427,76.4142 862.8459,67.0087 856.1364,59.5773 C845.4916,47.7871 828.6955,41.7004 810.1674,41.7004 L737.3831,41.7004 Z M783.3521,76.1772 L805.0597,76.1772 C811.754,76.1772 817.6812,79.0282 821.6596,83.8387 C825.4449,88.4156 827.1917,94.4312 826.7673,100.4386 C826.2047,108.4037 822.007,115.5634 815.275,119.5924 C810.5882,122.3974 804.8719,123.4231 798.6751,123.4231 L783.3471,123.4231 L783.3521,76.1772 Z M895.7208,41.7004 L895.7208,205.1459 L938.475,205.1459 L938.475,140.0231 L955.075,140.0231 L993.3825,205.1459 L1044.4241,205.1459 L990.8286,119.5924 L1039.2964,41.7004 L992.1056,41.7004 L952.5211,104.2694 L938.475,104.2694 L938.475,41.7004 L895.7208,41.7004 Z M1277.5191,41.7004 L1277.5191,205.1459 L1384.7802,205.1459 L1384.7802,166.8383 L1320.9343,166.8383 L1320.9343,142.5769 L1378.3956,142.5769 L1378.3956,104.2694 L1320.9343,104.2694 L1320.9343,80.008 L1380.9344,80.008 L1380.9344,41.7004 L1277.5191,41.7004 Z M1894.2702,41.7004 L1894.2702,205.1459 L1940.2392,205.1459 L1940.2793,156.623 L1959.393,156.623 L1983.6544,205.1459 L2034,205.1459 L2001.5312,146.4077 C2007.9326,141.0295 2012.9741,134.4751 2016.8543,127.2539 C2023.7262,114.4649 2026.9703,100.2797 2025.0265,86.3925 C2023.6298,76.4142 2019.733,67.0087 2013.0235,59.5773 C2002.3787,47.7871 1985.5826,41.7004 1967.0545,41.7004 L1894.2702,41.7004 Z M1940.2392,76.1772 L1961.9468,76.1772 C1968.6411,76.1772 1974.5683,79.0282 1978.5467,83.8387 C1982.332,88.4156 1984.0788,94.4312 1983.6544,100.4386 C1983.0918,108.4037 1978.8941,115.5634 1972.1621,119.5924 C1967.4753,122.3974 1961.759,123.4231 1955.5622,123.4231 L1940.2342,123.4231 L1940.2392,76.1772 Z M1120.4583,41.7004 L1120.4583,205.1459 L1166.4273,205.1459 L1166.4674,156.623 L1185.5811,156.623 L1209.8425,205.1459 L1260.1881,205.1459 L1227.7193,146.4077 C1234.1207,141.0295 1239.1622,134.4751 1243.0424,127.2539 C1249.9143,114.4649 1253.1584,100.2797 1251.2146,86.3925 C1249.8179,76.4142 1245.9211,67.0087 1239.2116,59.5773 C1228.5668,47.7871 1211.7707,41.7004 1193.2426,41.7004 L1120.4583,41.7004 Z M1166.4273,76.1772 L1188.1349,76.1772 C1194.8292,76.1772 1200.7564,79.0282 1204.7348,83.8387 C1208.5201,88.4156 1210.2669,94.4312 1209.8425,100.4386 C1209.2799,108.4037 1205.0822,115.5634 1198.3502,119.5924 C1193.6634,122.3974 1187.9471,123.4231 1181.7503,123.4231 L1166.4223,123.4231 L1166.4273,76.1772 Z M1448.626,41.7004 L1394.9955,205.1459 L1444.7953,205.1459 L1452.4568,179.6075 L1513.7488,179.6075 L1521.4103,205.1459 L1569.9332,205.1459 L1515.0257,41.7004 L1448.626,41.7004 Z M1480.549,77.4541 L1484.3797,77.4541 L1503.5335,146.4077 L1462.6721,146.4077 L1480.549,77.4541 Z M1586.5331,41.7004 L1586.5331,205.1459 L1654.4751,205.1459 C1678.9132,205.1459 1700.7457,196.1455 1715.5018,179.6075 C1729.1504,164.3106 1735.7973,143.5736 1735.9324,122.1462 C1736.0694,100.4369 1729.5682,79.4138 1715.5018,64.6849 C1700.5838,49.0644 1678.2097,41.7004 1653.1932,41.7004 L1586.5331,41.7004 Z M1632.5021,80.008 L1652.9328,80.008 C1674.932,80.008 1689.3577,98.795 1689.9634,122.1462 C1690.6034,146.816 1675.8054,166.8383 1652.9328,166.8383 L1632.5021,166.8383 L1632.5021,80.008 Z M1760.1939,41.7004 L1760.1939,205.1459 L1867.4549,205.1459 L1867.4549,166.8383 L1803.6091,166.8383 L1803.6091,142.5769 L1861.0703,142.5769 L1861.0703,104.2694 L1803.6091,104.2694 L1803.6091,80.008 L1863.6092,80.008 L1863.6092,41.7004 L1760.1939,41.7004 Z" fill="rgb(233,108,76)" opacity="1"/></g><g><path d="M634,273.7619 L677.6101,273.7619 C694.8362,273.7619 710.2823,275.3931 720.8939,283.7672 C729.9065,290.8795 734.8933,302.1373 734.7056,314.0006 C734.572,322.4423 731.7257,330.7111 726.2772,337.0019 C720.3019,343.901 711.5595,348.1497 701.6446,348.8017 L701.6446,349.4542 C712.8977,349.3931 722.9586,353.7601 729.6485,361.4714 C735.6254,368.3608 738.5213,377.6264 738.6207,387.0828 C738.7587,400.2123 733.602,412.6992 724.0477,420.9051 C713.7556,429.7448 699.0364,432.7592 682.7215,432.7592 L634,432.7592 L634,273.7619 Z M645.0928,344.5603 L680.1114,344.5603 C693.1509,344.5603 704.8026,343.4327 712.683,337.1107 C719.495,331.6458 723.0949,322.865 722.8515,313.7831 C722.607,304.6628 718.5066,296.0369 711.378,290.7274 C702.9052,284.4168 690.7233,283.5497 677.1751,283.5497 L645.0928,283.5497 L645.0928,344.5603 Z M645.0928,354.3481 L645.0928,422.9714 L682.504,422.9714 C709.066,422.9714 727.7964,406.5885 726.6578,387.0828 C725.5821,368.6538 706.4506,354.3481 680.1114,354.3481 L645.0928,354.3481 Z M781.687,432.7592 L770.9204,432.7592 L770.9204,263.5391 L781.687,263.5391 L781.687,432.7592 Z M919.0424,373.4887 C919.1109,390.5978 915.3147,407.1624 905.0133,418.6757 C895.5384,429.2651 881.3098,434.8746 866.2971,434.9343 C856.5841,434.9729 846.9476,432.5977 838.8912,427.4303 C830.9345,422.3268 824.7813,414.6829 820.7294,405.8972 C816.1246,395.9125 814.4081,384.7596 814.4218,373.4887 C814.4425,356.3802 818.1968,339.8763 828.4509,328.4104 C837.9358,317.8047 852.1589,312.1879 866.9496,312.2605 C881.6568,312.3328 895.779,318.0201 905.1764,328.6279 C915.3456,340.107 919.0919,356.546 919.0424,373.4887 Z M825.7321,373.4887 C825.7206,387.8164 828.2698,401.7314 836.4443,411.4979 C843.7863,420.2699 855.0189,425.1487 866.7321,425.1465 C878.4403,425.1443 889.6747,420.268 897.0199,411.4979 C905.2007,401.7303 907.7489,387.814 907.7321,373.4887 C907.7153,359.1585 905.1345,345.2449 896.9111,335.5338 C889.5322,326.8198 878.2571,322.0359 866.5146,322.0483 C854.8387,322.0607 843.6377,326.8152 836.3355,335.4794 C828.1498,345.192 825.6612,359.1361 825.7321,373.4887 Z M1044,314.5444 L1044,322.0483 L1019.5305,323.5709 C1026.0578,331.3444 1029.3095,340.7462 1029.3183,350.3242 C1029.328,360.963 1025.4149,371.097 1017.9536,378.0019 C1010.1994,385.1778 999.1108,388.0985 987.4483,388.6054 C983.6713,388.7695 979.8846,388.6466 976.1379,387.9529 C972.1885,389.8575 968.8144,392.4995 966.3501,395.8918 C964.2142,398.8321 962.8199,402.188 962.9788,405.5709 C963.1329,408.853 964.6547,411.941 967.2745,413.8361 C970.7425,416.3448 975.9058,416.4462 981.6844,416.4462 L1002.3475,416.4462 C1014.006,416.4462 1024.5271,418.1672 1031.8196,424.2221 C1038.4541,429.7306 1042.0674,438.3255 1042.0424,447.2234 C1042.0108,458.5 1036.23,469.1351 1026.8714,476.0974 C1015.5034,484.5546 999.807,486.4964 983.6419,486.2659 C970.6878,486.0811 958.1224,484.4781 949.1127,477.6743 C941.5626,471.9728 936.9954,463.1343 936.878,453.7486 C936.786,446.4004 939.5414,439.1749 944.4363,433.5205 C949.5289,427.6377 956.6929,423.7222 964.9363,422.5364 C961.4009,421.2445 958.4577,418.9934 956.3992,416.0656 C954.4222,413.2538 953.327,409.893 953.191,406.4409 C953.038,402.5582 954.095,398.7171 956.1536,395.3853 C958.8558,391.0119 963.1751,387.753 968.3077,385.5603 C961.4845,382.8454 955.9621,378.1525 952.2122,372.238 C948.3107,366.0843 946.4792,358.7916 946.4483,351.4117 C946.4025,340.4605 950.2084,330.0624 957.7042,322.9727 C965.4109,315.6837 976.4802,312.6167 988.1008,312.2605 C994.1758,312.0744 1000.2526,312.7267 1006.1538,314.5444 L1044,314.5444 Z M948.2971,452.7698 C948.6504,459.0876 951.3665,465.055 956.1536,469.2033 C963.0122,475.1466 973.6082,476.8215 984.5119,477.1306 C999.6298,477.5591 1014.2258,475.339 1022.9888,467.2082 C1028.5893,462.0117 1031.3986,454.8238 1031.0584,447.4409 C1030.7773,441.3425 1028.3129,435.5337 1023.7719,431.9979 C1018.1547,427.6243 1009.6811,427.2128 1000.1724,427.2128 L980.8143,427.2128 C969.2321,427.2128 958.8981,430.4045 953.161,437.282 C949.5433,441.6188 947.9841,447.173 948.2971,452.7698 Z M957.3236,351.4117 C957.4427,359.5823 960.105,367.4446 965.6432,372.673 C971.253,377.969 979.4272,380.1551 987.8833,380.2314 C996.56,380.3096 1004.9677,378.1802 1010.5584,372.7274 C1016.008,367.4122 1018.3851,359.3385 1018.443,350.9767 C1018.5033,342.2602 1016.0443,333.8411 1010.3408,328.3017 C1004.6975,322.8206 996.3064,320.5858 987.6658,320.7433 C979.1811,320.898 971.0113,323.3673 965.4257,328.8454 C959.6902,334.4707 957.0911,342.8135 957.3236,351.4117 Z" fill="rgb(233,108,76)" opacity="1"/></g></svg>