<svg viewBox="0 0 1024 320" xmlns="http://www.w3.org/2000/svg"><defs><linearGradient x1="118.3" y1="83.6" x2="117.6" y2="144.9" id="gradient19" gradientUnits="userSpaceOnUse"><stop offset="0%" stop-color="rgb(29,30,34)"/><stop offset="100%" stop-color="rgb(233,108,76)"/></linearGradient><linearGradient x1="215.5" y1="86.6" x2="216.3" y2="145.5" id="gradient20" gradientUnits="userSpaceOnUse"><stop offset="0%" stop-color="rgb(29,30,34)"/><stop offset="100%" stop-color="rgb(233,108,76)"/></linearGradient></defs><g><path d="M-11.3,-11.5 L1035.6,-11.5 L1035.6,329.4 L-11.3,329.4 L-11.3,-11.5 Z" fill="rgb(29,30,34)"/><path d="M67.8,185.7 C90.2,177.5 117.8,177.6 145.4,178.8 C163.9,179.6 182.3,180.7 199.2,186.6 C215.5,192.4 230.1,202.1 239.2,215.7 C251.6,233.9 253.8,256.8 244.6,275.6 C232.0,301.2 200.6,315.2 162.6,315.2 L51.1,315.2 C39.9,315.2 34.9,300.3 27.5,285.2 C21.6,273.0 14.2,261.6 13.5,249.6 C12.7,234.7 21.7,220.0 34.1,207.7 C43.6,198.2 54.6,190.6 67.8,185.7 Z" fill="rgb(29,30,34)"/><path d="M87.7,214.9 C91.0,222.8 90.6,232.6 88.3,242.3 C86.8,248.6 84.5,254.7 81.3,260.3 C78.4,265.3 74.6,269.8 70.3,273.7 C73.6,271.5 77.3,270.3 81.3,269.8 C87.6,268.9 94.3,270.0 100.9,272.1 L107.2,299.4 C99.0,302.9 90.6,306.1 82.1,308.8 C68.7,313.1 55.3,316.6 42.8,314.3 C26.1,311.2 12.6,298.9 7.5,282.3 C3.7,270.0 5.2,256.1 9.9,243.0 C12.7,235.1 16.6,227.7 21.9,221.3 C30.6,210.8 42.5,203.7 55.6,201.3 C63.7,199.8 71.9,200.2 78.3,203.9 C82.5,206.4 85.7,210.2 87.7,214.9 Z" fill="rgb(29,30,34)"/><path d="M37.8,210.3 C32.9,218.2 28.4,226.2 24.5,234.6 C19.3,245.9 14.8,257.4 14.9,269.1 C15.0,278.9 18.2,288.7 22.8,297.9 C24.0,300.1 25.2,302.3 26.6,304.4 C23.7,303.4 21.4,301.7 19.1,299.7 C12.1,293.5 7.2,283.9 6.1,273.9 C5.5,268.6 5.8,263.2 6.9,257.8 C8.9,247.9 13.1,238.3 18.9,229.8 C24.0,222.3 30.4,215.8 37.8,210.3 Z" fill="rgb(48,105,139)"/><path d="M122.0,288.8 C124.2,290.6 124.3,294.9 126.6,296.7 C128.7,298.3 132.0,297.9 134.5,295.9 C136.2,294.5 137.3,292.4 137.7,290.0 C137.9,288.7 137.9,287.4 137.6,286.1 C138.7,287.2 139.6,288.6 140.3,290.1 C141.3,292.3 141.7,294.7 143.2,295.9 C144.3,296.8 146.1,297.0 147.8,296.7 C149.6,296.3 151.3,295.5 152.4,294.1 C154.2,291.8 154.4,288.3 153.3,284.8 C155.4,286.8 157.3,289.0 158.9,291.3 C159.9,292.7 160.7,294.2 162.0,295.1 C164.4,296.7 167.9,296.1 169.8,293.5 C171.4,291.4 171.5,288.2 170.6,284.8 C168.8,277.9 163.3,271.2 156.1,267.1 C147.5,262.3 137.2,261.0 126.6,261.3 C121.2,261.5 115.9,262.0 110.9,263.7 C103.7,266.0 97.5,270.5 93.0,276.4 C89.2,281.4 86.8,286.8 88.3,291.3 C90.0,296.3 95.5,298.9 101.3,296.9 C109.5,289.2 118.1,285.7 122.0,288.8 Z" fill="rgb(104,174,215)"/><path d="M112.5,272.7 C115.8,274.1 118.1,277.4 119.9,281.1 C121.2,283.6 122.2,286.3 122.7,289.1 C120.3,290.2 117.9,291.6 115.7,293.1 C113.8,294.3 112.0,295.7 110.2,297.0 C106.1,299.6 101.7,301.5 97.6,300.9 C94.5,300.5 91.7,298.8 89.7,296.2 C87.9,293.8 87.0,290.9 87.4,288.0 C87.9,284.3 90.6,281.0 93.9,278.3 C100.0,273.2 107.1,270.5 112.5,272.7 Z" fill="rgb(48,105,139)"/><path d="M39.1,205.4 L52.5,110.5 C55.9,86.5 59.4,63.6 70.3,45.7 C78.1,32.9 89.3,22.9 102.5,16.4 C114.2,10.7 127.2,7.9 140.4,7.1 C159.6,6.0 178.5,8.9 194.2,18.0 C208.8,26.5 220.0,39.9 226.2,55.8 C232.7,72.5 233.1,91.2 231.6,110.8 L223.7,209.9 C199.3,216.4 174.3,219.3 149.0,219.5 C112.5,219.9 75.5,214.4 39.1,205.4 Z" fill="rgb(29,30,34)"/><path d="M99.1,19.0 C91.3,29.8 85.4,41.7 80.7,54.4 C73.0,75.4 69.6,99.1 64.3,122.4 C61.4,135.1 58.2,147.9 54.4,160.4 L40.5,197.3 L52.8,111.0 C56.0,88.5 59.4,66.8 69.2,49.2 C76.2,36.6 86.2,26.1 99.1,19.0 Z" fill="rgb(48,105,139)"/><path d="M161.6,10.5 C146.2,11.3 131.7,18.1 120.5,30.3 C100.6,52.1 93.9,88.9 96.8,128.8 L130.4,130.1 C137.0,117.0 147.9,108.8 161.4,108.5 C174.5,108.2 185.4,115.4 192.4,127.7 L232.8,115.5 L230.7,100.7 C232.6,89.1 232.0,77.5 229.1,66.4 C225.3,51.6 218.1,38.0 207.2,27.8 C194.6,16.2 178.2,9.6 161.6,10.5 Z" fill="rgb(48,105,139)"/><path d="M171.4,193.8 L170.8,201.0 C170.6,203.5 168.5,205.1 165.9,205.2 C163.0,205.4 160.7,204.1 160.9,201.9 L161.5,194.6 C161.7,191.7 163.8,189.8 166.4,189.6 C169.3,189.4 171.6,191.1 171.4,193.8 Z" fill="rgb(48,105,139)"/><path d="M153.5,193.7 L152.9,200.9 C152.7,203.4 150.6,204.9 147.9,205.1 C145.1,205.3 142.8,203.9 143.0,201.7 L143.5,194.5 C143.8,191.6 145.9,189.6 148.5,189.5 C151.4,189.2 153.7,191.0 153.5,193.7 Z" fill="rgb(48,105,139)"/><path d="M135.5,191.7 L135.0,197.5 C134.7,200.2 132.4,201.9 129.7,202.0 C127.0,202.1 124.8,200.6 125.0,198.3 L125.6,192.5 C125.9,189.6 128.0,187.6 130.6,187.4 C133.5,187.2 135.8,189.0 135.5,191.7 Z" fill="rgb(48,105,139)"/><path d="M188.7,191.4 L188.1,197.1 C187.9,199.9 185.6,201.6 182.8,201.7 C180.1,201.7 178.0,200.2 178.2,198.0 L178.7,192.2 C179.0,189.3 181.1,187.3 183.7,187.1 C186.6,186.9 188.9,188.7 188.7,191.4 Z" fill="rgb(48,105,139)"/><path d="M144.0,99.3 C150.8,97.5 157.6,96.6 164.4,96.9 C169.8,97.1 175.0,98.0 180.1,99.7 C190.1,86.4 205.4,81.3 220.3,83.5 C242.8,86.9 259.2,104.6 260.2,126.0 C261.3,148.7 245.2,168.5 221.5,172.6 C206.1,175.2 189.9,169.8 179.7,157.6 C171.8,148.1 168.3,135.5 171.7,122.5 C169.6,121.7 167.3,121.3 165.1,121.3 C161.8,121.1 158.4,121.7 155.0,122.7 C156.8,138.4 150.7,152.6 139.8,162.1 C125.9,174.2 106.7,177.6 89.8,170.7 C74.8,164.5 63.8,151.0 61.3,135.0 C58.9,119.9 64.4,104.5 75.6,93.6 C86.6,82.9 102.0,78.0 116.9,80.8 C127.9,82.9 137.8,89.1 144.0,99.3 Z" fill="rgb(233,108,76)" opacity="0.2"/><path d="M142.6,103.6 C150.3,100.9 158.1,99.3 165.9,99.7 C171.3,100.0 176.7,101.2 181.6,103.6 C191.5,89.6 207.3,84.2 222.3,87.3 C241.2,91.2 254.9,106.8 256.2,125.2 C257.9,147.3 242.6,166.4 219.9,169.4 C206.7,171.2 192.8,166.3 183.6,156.0 C175.1,146.4 171.7,133.0 175.5,119.4 C173.5,118.0 171.3,117.2 168.7,116.8 C163.2,116.0 156.4,117.2 149.7,119.3 C152.9,134.9 147.7,149.5 136.9,159.2 C124.8,170.1 107.8,173.5 92.7,167.8 C78.6,162.5 68.2,150.0 65.6,135.0 C63.2,121.0 68.0,106.5 78.4,96.5 C88.3,87.0 102.0,82.7 115.5,85.1 C126.5,87.0 136.4,93.3 142.6,103.6 Z" fill="rgb(233,108,76)" opacity="0.2"/><path d="M218.1,91.0 C237.7,92.5 253.1,109.4 252.3,129.7 C251.5,148.5 236.7,163.9 218.1,165.3 C197.2,167.0 179.5,151.4 177.9,131.1 C176.1,107.9 194.9,89.1 218.1,91.0 Z" fill="rgb(255,255,255)"/><path d="M107.9,88.5 C129.8,88.5 147.3,106.4 146.4,128.4 C145.7,149.1 128.7,165.5 107.9,165.5 C87.1,165.5 70.2,149.1 69.4,128.4 C68.6,106.4 86.1,88.5 107.9,88.5 Z" fill="rgb(255,255,255)"/><path d="M166.3,106.7 C173.6,107.1 180.7,109.2 187.0,113.4 L184.0,123.1 C178.8,119.4 172.7,117.3 166.5,116.8 C158.2,116.1 149.7,118.1 141.6,121.9 L137.0,113.8 C146.4,108.9 156.4,106.2 166.3,106.7 Z" fill="rgb(255,255,255)"/><path d="M108.1,98.8 C123.6,98.8 136.4,110.1 137.8,124.5 C139.5,142.5 124.2,157.2 105.4,155.5 C89.2,154.1 76.8,140.3 78.3,124.5 C79.7,110.0 92.6,98.8 108.1,98.8 Z" fill="url(#gradient19)"/><path d="M218.3,101.1 C233.4,102.5 245.0,115.1 244.2,129.9 C243.5,143.5 232.3,154.5 218.3,155.9 C201.5,157.5 187.4,145.5 186.6,129.9 C185.7,112.9 200.4,99.3 218.3,101.1 Z" fill="url(#gradient20)"/><path d="M121.8,113.2 C127.8,113.0 133.4,115.6 137.7,120.4 L128.3,118.2 C128.2,125.8 124.4,131.4 119.4,131.1 C114.9,130.8 111.7,125.9 112.2,119.5 L104.9,122.6 C109.3,116.9 115.2,113.5 121.8,113.2 Z" fill="rgb(29,30,34)" opacity="0.1"/><path d="M200.4,112.7 C206.2,112.7 211.6,115.4 215.5,120.3 L206.8,117.3 C207.2,124.4 203.8,129.8 199.1,129.9 C194.7,129.9 191.4,125.3 191.5,119.0 L183.4,122.2 C187.8,116.3 193.8,112.8 200.4,112.7 Z" fill="rgb(29,30,34)" opacity="0.1"/><path d="M85.3,145.3 L94.9,120.2 C95.9,117.5 97.7,115.8 100.1,115.8 L134.7,115.8 C130.5,107.4 123.2,102.1 114.8,100.3 C103.0,97.7 91.3,101.7 84.5,110.6 C77.1,120.4 77.3,133.8 85.3,145.3 Z" fill="rgb(29,30,34)" opacity="0.5"/><path d="M193.7,146.3 L203.1,123.2 C204.3,120.4 206.2,118.6 208.6,118.6 L241.7,118.7 C238.2,109.7 230.9,104.0 222.3,102.1 C209.1,99.1 196.3,104.6 190.0,115.9 C184.7,125.5 185.8,137.1 193.7,146.3 Z" fill="rgb(29,30,34)" opacity="0.5"/><path d="M156.2,300.5 L201.4,185.1 C210.1,162.9 230.2,150.6 255.6,150.6 L384.6,150.6 C396.5,150.6 400.9,165.4 394.9,181.2 L352.0,292.7 C350.1,297.6 346.0,300.5 340.9,300.5 L156.2,300.5 Z" fill="rgb(104,174,215)" opacity="0.2"/><path d="M165.5,300.5 L210.7,185.1 C218.1,166.3 234.0,155.3 253.9,155.3 L382.9,155.3 C394.6,155.3 400.0,167.8 394.9,181.2 L352.0,292.7 C350.1,297.6 346.0,300.5 340.9,300.5 L165.5,300.5 Z" fill="rgb(104,174,215)" opacity="0.4"/><path d="M175.0,300.5 L218.7,189.6 C225.3,172.8 237.6,162.3 253.1,162.3 L382.1,162.3 C392.5,162.3 398.6,171.4 394.9,181.2 L352.0,292.7 C350.1,297.6 346.0,300.5 340.9,300.5 L175.0,300.5 Z" fill="rgb(255,255,255)"/><path d="M223.1,199.6 C230.5,181.1 240.9,168.2 255.3,168.2 L383.7,167.8 C393.2,167.8 398.5,176.5 394.9,185.9 L348.9,304.5 C345.3,313.6 333.0,315.3 317.7,315.3 L119.0,315.3 C115.6,315.3 112.7,314.8 111.3,313.0 C110.1,311.4 110.1,308.9 110.2,306.4 C110.2,304.3 110.2,302.1 111.2,300.5 C112.7,298.1 116.1,297.0 120.2,297.0 L184.2,297.0 L223.1,199.6 Z" fill="rgb(29,30,34)"/><path d="M308.5,240.3 C312.3,245.4 318.4,247.1 325.2,245.6 C324.8,247.4 324.0,249.0 323.0,250.5 C318.5,257.2 311.1,261.7 302.9,262.1 C298.1,262.3 293.2,261.2 289.7,258.3 C284.1,253.6 282.3,245.5 284.9,237.9 C287.4,230.6 293.8,225.1 302.0,222.8 C304.0,222.2 306.2,221.9 308.3,222.1 C304.8,228.4 304.5,235.0 308.5,240.3 Z" fill="rgb(48,105,139)"/><path d="M305.2,242.4 C308.5,246.7 313.4,249.0 319.2,249.1 C314.8,254.5 309.2,258.2 303.3,258.8 C299.0,259.2 294.9,258.1 291.9,255.4 C287.5,251.5 286.2,245.0 288.1,239.0 C290.1,232.6 295.5,227.9 302.8,226.2 C301.1,232.1 301.9,237.8 305.2,242.4 Z" fill="rgb(104,174,215)"/><g><path d="M282.5,49.1 L282.5,122.7 L313.1,122.7 C324.1,122.7 333.9,118.7 340.6,111.2 C346.7,104.3 349.7,95.0 349.8,85.3 C349.8,75.6 346.9,66.1 340.6,59.5 C333.9,52.4 323.8,49.1 312.5,49.1 L282.5,49.1 Z M303.2,66.4 L312.4,66.4 C322.3,66.4 328.8,74.8 329.1,85.3 C329.4,96.5 322.7,105.5 312.4,105.5 L303.2,105.5 L303.2,66.4 Z" fill="rgb(233,108,76)"/><path d="M373.9,49.1 L349.8,122.7 L372.2,122.7 L375.7,111.2 L403.3,111.2 L406.7,122.7 L428.6,122.7 L403.8,49.1 L373.9,49.1 Z M388.3,65.2 L390.0,65.2 L398.7,96.3 L380.3,96.3 L388.3,65.2 Z" fill="rgb(233,108,76)"/><path d="M434.9,49.1 L434.9,122.7 L455.6,122.7 L455.6,100.9 L464.2,100.9 L475.2,122.7 L497.8,122.7 L483.2,96.3 C486.1,93.9 488.4,90.9 490.1,87.6 C493.2,81.9 494.7,75.5 493.8,69.2 C493.2,64.7 491.4,60.5 488.4,57.2 C483.6,51.9 476.0,49.1 467.7,49.1 L434.9,49.1 Z M455.6,64.6 L465.4,64.6 C468.4,64.6 471.1,65.9 472.9,68.1 C474.6,70.2 475.4,72.9 475.2,75.6 C474.9,79.2 473.0,82.4 470.0,84.2 C467.9,85.5 465.3,85.9 462.5,85.9 L455.6,85.9 L455.6,64.6 Z" fill="rgb(233,108,76)"/><path d="M506.2,49.1 L506.2,122.7 L525.5,122.7 L525.5,93.4 L533.0,93.4 L550.2,122.7 L573.2,122.7 L549.1,84.2 L570.9,49.1 L549.6,49.1 L531.8,77.3 L525.5,77.3 L525.5,49.1 L506.2,49.1 Z" fill="rgb(233,108,76)"/><path d="M678.2,49.1 L678.2,122.7 L726.5,122.7 L726.5,105.5 L697.8,105.5 L697.8,94.6 L723.6,94.6 L723.6,77.3 L697.8,77.3 L697.8,66.4 L724.8,66.4 L724.8,49.1 L678.2,49.1 Z" fill="rgb(233,108,76)"/><path d="M956.0,49.1 L956.0,122.7 L976.7,122.7 L976.7,100.9 L985.3,100.9 L996.3,122.7 L1019,122.7 L1004.3,96.3 C1007.2,93.9 1009.5,90.9 1011.2,87.6 C1014.3,81.9 1015.8,75.5 1014.9,69.2 C1014.3,64.7 1012.5,60.5 1009.5,57.2 C1004.7,51.9 997.1,49.1 988.8,49.1 L956.0,49.1 Z M976.7,64.6 L986.5,64.6 C989.5,64.6 992.2,65.9 994.0,68.1 C995.7,70.2 996.5,72.9 996.3,75.6 C996.0,79.2 994.1,82.4 991.1,84.2 C989.0,85.5 986.4,85.9 983.6,85.9 L976.7,85.9 L976.7,64.6 Z" fill="rgb(233,108,76)"/><path d="M607.5,49.1 L607.5,122.7 L628.2,122.7 L628.2,100.9 L636.8,100.9 L647.7,122.7 L670.4,122.7 L655.8,96.3 C658.7,93.9 660.9,90.9 662.7,87.6 C665.8,81.9 667.2,75.5 666.4,69.2 C665.7,64.7 664.0,60.5 660.9,57.2 C656.2,51.9 648.6,49.1 640.2,49.1 L607.5,49.1 Z M628.2,64.6 L637.9,64.6 C641.0,64.6 643.6,65.9 645.4,68.1 C647.1,70.2 647.9,72.9 647.7,75.6 C647.5,79.2 645.6,82.4 642.5,84.2 C640.4,85.5 637.9,85.9 635.1,85.9 L628.2,85.9 L628.2,64.6 Z" fill="rgb(233,108,76)"/><path d="M755.3,49.1 L731.1,122.7 L753.5,122.7 L757.0,111.2 L784.6,111.2 L788.1,122.7 L809.9,122.7 L785.2,49.1 L755.3,49.1 Z M769.7,65.2 L771.4,65.2 L780.0,96.3 L761.6,96.3 L769.7,65.2 Z" fill="rgb(233,108,76)"/><path d="M817.4,49.1 L817.4,122.7 L848.0,122.7 C859.0,122.7 868.8,118.7 875.5,111.2 C881.6,104.3 884.6,95.0 884.7,85.3 C884.8,75.6 881.8,66.1 875.5,59.5 C868.8,52.4 858.7,49.1 847.4,49.1 L817.4,49.1 Z M838.1,66.4 L847.3,66.4 C857.2,66.4 863.7,74.8 864.0,85.3 C864.3,96.5 857.6,105.5 847.3,105.5 L838.1,105.5 L838.1,66.4 Z" fill="rgb(233,108,76)"/><path d="M895.6,49.1 L895.6,122.7 L943.9,122.7 L943.9,105.5 L915.2,105.5 L915.2,94.6 L941.1,94.6 L941.1,77.3 L915.2,77.3 L915.2,66.4 L942.2,66.4 L942.2,49.1 L895.6,49.1 Z" fill="rgb(233,108,76)"/></g><path d="M477.1,184.4 L463.9,184.4 L463.9,230.2 L456.0,230.2 L456.0,184.4 L446.7,184.4 L446.7,178.3 L456.0,178.3 L456.0,175.1 C456.0,168.9 457.9,163.3 462,159.8 C464.9,157.3 468.7,156.0 472.7,156.0 C475.3,155.9 477.9,156.4 480.3,157.6 L480.3,163.9 C477.8,162.7 475.2,162.2 472.6,162.4 C470.0,162.7 467.5,163.6 466.0,165.4 C464.1,167.6 463.9,171.0 463.9,174.9 L463.9,178.3 L477.1,178.3 L477.1,184.4 Z M531.3,204.2 C531.4,211.7 529.6,218.9 524.9,224.0 C520.6,228.7 514.1,231.1 507.3,231.1 C502.9,231.1 498.6,230.1 494.9,227.8 C491.3,225.6 488.5,222.3 486.6,218.5 C484.4,214.1 483.6,209.2 483.6,204.2 C483.7,196.6 485.4,189.4 490.0,184.4 C494.3,179.7 500.8,177.2 507.6,177.3 C514.2,177.4 520.6,179.9 524.9,184.6 C529.5,189.6 531.3,196.7 531.3,204.2 Z M491.8,204.2 C491.8,209.9 492.6,215.5 495.8,219.3 C498.6,222.7 502.9,224.5 507.5,224.5 C512.0,224.5 516.4,222.7 519.2,219.3 C522.4,215.5 523.2,209.9 523.2,204.2 C523.2,198.5 522.4,192.9 519.2,189.1 C516.4,185.8 512.0,184.0 507.4,184.0 C502.8,184.0 498.5,185.7 495.7,189.1 C492.5,192.9 491.8,198.4 491.8,204.2 Z M568.8,177.3 C570.5,177.2 572.2,177.4 573.9,177.9 L573.9,185.2 C572.1,184.5 570.1,184.3 568.2,184.5 C564.0,184.8 560.2,186.6 557.4,189.6 C554.4,192.9 553.0,197.4 553.0,202.3 L553.0,230.2 L545.1,230.2 L545.1,178.3 L551.6,178.3 L552.5,187.9 L552.9,187.9 C554.5,184.6 556.9,181.9 559.8,180.1 C562.5,178.4 565.6,177.5 568.8,177.3 Z M650.1,211.7 C650.1,217.3 647.7,222.5 643.5,226.0 C638.8,229.8 632.3,231.0 625.5,231.1 C619.1,231.2 612.7,230.1 606.6,227.9 L606.6,220.2 C609.6,221.4 612.7,222.4 615.8,223.0 C619.1,223.7 622.4,224.0 625.8,224.0 C630.4,224.1 634.8,223.5 637.9,221.0 C640.4,219.0 641.8,215.8 642.0,212.5 C642.1,210.4 641.6,208.3 640.5,206.6 C639.4,204.8 637.7,203.5 635.7,202.4 C632.6,200.6 629.0,199.3 625.4,198.0 C620.1,196.0 614.9,193.7 611.6,189.8 C608.7,186.4 607.3,181.9 607.5,177.4 C607.7,172.5 609.8,167.8 613.5,164.7 C617.6,161.1 623.4,159.9 629.4,159.9 C635.0,160.0 640.6,161.3 645.9,163.7 L645.9,170.7 C640.4,168.6 634.8,167.1 629.2,167.1 C625.4,167.1 621.7,167.8 619.2,169.9 C617.0,171.7 615.8,174.5 615.6,177.5 C615.5,179.6 615.9,181.7 616.9,183.4 C618.0,185.1 619.6,186.5 621.4,187.6 C624.3,189.4 627.7,190.6 631.0,191.8 C636.8,193.9 642.5,196.1 646.0,200.2 C648.8,203.3 650.1,207.5 650.1,211.7 Z M695.0,230.2 L693.4,222.8 L693.1,222.8 C691.1,225.7 688.4,228.0 685.3,229.4 C682.3,230.7 679.0,231.2 675.7,231.1 C671.1,231.0 666.6,229.9 663.6,227.1 C660.6,224.4 659.1,220.1 659.2,215.8 C659.4,211.1 661.4,206.6 665,203.8 C669.6,200.1 676.6,199.6 684.4,199.3 L693.2,199.0 L693.2,195.8 C693.2,192.1 692.5,188.9 690.5,186.8 C688.6,184.8 685.5,184.0 682.1,183.9 C676.6,183.7 670.8,185.4 665.0,187.9 L665.0,181.9 C667.7,180.4 670.5,179.3 673.4,178.6 C676.4,177.8 679.5,177.4 682.6,177.4 C687.9,177.4 693.0,178.4 696.4,181.5 C699.5,184.5 700.8,189.3 700.8,194.7 L700.8,230.2 L695.0,230.2 Z M677.3,224.6 C681.6,224.7 685.9,223.4 688.8,220.6 C691.6,217.8 693.0,213.8 693.0,209.3 L693.0,204.6 L685.1,205.0 C679.7,205.2 674.9,205.5 671.6,207.9 C669.0,209.8 667.5,212.7 667.5,215.9 C667.4,218.4 668.3,220.8 670.0,222.4 C671.9,224.0 674.5,224.6 677.3,224.6 Z M740.4,184.4 L727.2,184.4 L727.2,230.2 L719.3,230.2 L719.3,184.4 L710.1,184.4 L710.1,178.3 L719.3,178.3 L719.3,175.1 C719.3,169.4 720.7,164.3 724,160.8 C727.0,157.6 731.4,156.0 736.1,156.0 C738.7,155.9 741.3,156.4 743.7,157.6 L743.7,163.9 C741.2,162.7 738.5,162.2 735.9,162.4 C733.3,162.7 730.9,163.6 729.3,165.4 C727.5,167.6 727.2,171.0 727.2,174.9 L727.2,178.3 L740.4,178.3 L740.4,184.4 Z M781.8,230.2 L780.2,222.8 L779.9,222.8 C777.9,225.7 775.2,228.0 772.1,229.4 C769.1,230.7 765.8,231.2 762.5,231.1 C757.9,231.0 753.4,229.9 750.4,227.1 C747.3,224.4 745.8,220.1 746.0,215.8 C746.2,211.6 747.8,207.6 751,204.8 C755.5,200.7 762.9,199.6 771.1,199.3 L779.9,199.0 L779.9,195.8 C779.9,192.1 779.3,188.9 777.3,186.8 C775.4,184.8 772.3,184.0 768.9,183.9 C763.4,183.7 757.5,185.4 751.8,187.9 L751.8,181.9 C754.5,180.4 757.3,179.3 760.2,178.6 C763.2,177.8 766.3,177.4 769.4,177.4 C774.7,177.4 779.8,178.4 783.1,181.5 C786.3,184.5 787.6,189.3 787.6,194.7 L787.6,230.2 L781.8,230.2 Z M764.0,224.6 C768.4,224.7 772.7,223.4 775.6,220.6 C778.4,217.8 779.8,213.8 779.8,209.3 L779.8,204.6 L771.9,205.0 C766.5,205.2 761.7,205.5 758.4,207.9 C755.8,209.8 754.3,212.7 754.2,215.9 C754.2,218.4 755.1,220.8 756.8,222.4 C758.6,224.0 761.3,224.6 764.0,224.6 Z M827.5,177.3 C829.2,177.2 830.9,177.4 832.6,177.9 L832.6,185.2 C830.8,184.5 828.8,184.3 826.9,184.5 C822.7,184.8 818.9,186.6 816.1,189.6 C813.1,192.9 811.7,197.4 811.7,202.3 L811.7,230.2 L803.8,230.2 L803.8,178.3 L810.3,178.3 L811.2,187.9 L811.6,187.9 C813.2,184.6 815.6,181.9 818.5,180.1 C821.2,178.4 824.3,177.5 827.5,177.3 Z M851.3,230.2 L843.4,230.2 L843.4,178.3 L851.3,178.3 L851.3,230.2 Z M842.7,164.2 C842.7,162.7 843.1,161.2 844.1,160.2 C844.9,159.4 846.1,159.0 847.4,159.0 C848.6,159.0 849.8,159.4 850.6,160.3 C851.6,161.2 852.0,162.7 852.0,164.2 C852.0,165.7 851.6,167.2 850.6,168.2 C849.8,169.0 848.6,169.4 847.4,169.5 C846.1,169.5 844.9,169.0 844.1,168.2 C843.1,167.2 842.7,165.7 842.7,164.2 Z" fill="rgb(233,108,76)"/></g></svg>