<svg viewBox="0 0 2048 512" xmlns="http://www.w3.org/2000/svg"><defs><linearGradient x1="157.1361" y1="203.7935" x2="157.0554" y2="250.5033" id="gradient20" gradientUnits="userSpaceOnUse"><stop offset="0%" stop-color="rgb(200,55,55)"/><stop offset="100%" stop-color="rgb(217,160,109)"/></linearGradient><linearGradient x1="302.1998" y1="201.0831" x2="302.5358" y2="245.5257" id="gradient21" gradientUnits="userSpaceOnUse"><stop offset="0%" stop-color="rgb(200,55,55)"/><stop offset="100%" stop-color="rgb(217,160,109)"/></linearGradient></defs><g><path d="M-34,-22 L2066,-22 L2066,559 L-34,559 L-34,-22 Z" fill="rgb(11,34,40)" opacity="1"/></g><g><g><path d="M198.8225,262.7369 C258.5503,260.3479 315.4696,272.4487 345.2006,310.3068 C371.5343,343.8388 374.1767,391.5522 352.2829,429.5256 C329.8782,468.3851 284.0881,490.352 229.1846,490.352 L61.5702,490.352 C43.532,490.352 33.097,469.3064 26.1587,444.317 C16.0046,407.7454 15.3264,369.7209 32.4852,339.1566 C59.6789,290.7178 125.8798,265.6545 198.8225,262.7369 Z" fill="rgb(11,34,40)" opacity="1"/><path d="M115.7796,338.6125 C120.7768,350.4113 120.1788,365.2856 116.7648,379.758 C114.5142,389.2988 111.0615,398.4762 106.1413,406.9068 C101.7624,414.41 96.1894,421.1284 89.616,426.9733 C94.6351,423.7144 100.2445,421.8651 106.1413,421.0714 C115.5835,419.8005 125.7574,421.3976 135.6509,424.6126 L145.1749,465.5639 C132.7842,470.8726 120.2312,475.6517 107.4026,479.7285 C87.1795,486.1552 67.0898,491.487 48.3834,487.9912 C23.1754,483.2803 2.9349,464.829 -4.7712,439.8752 C-10.4923,421.3494 -8.1931,400.5787 -1.1547,380.8053 C3.0671,368.945 9.0233,357.8186 16.9279,348.2566 C29.9757,332.4731 47.8949,321.7242 67.5593,318.1189 C79.7404,315.8856 92.1364,316.5588 101.615,322.0872 C107.9933,325.8072 112.7959,331.5676 115.7796,338.6125 Z" fill="rgb(11,34,40)" opacity="1"/><path d="M49.4767,333.7905 C40.1904,344.0905 32.3289,355.3803 25.9424,367.5447 C17.2578,384.0866 11.162,401.62 11.4763,419.3816 C11.7396,434.2619 16.4963,448.8536 23.402,462.6572 C25.0801,466.0114 26.8759,469.3084 28.983,472.424 C24.752,470.9253 21.1821,468.4141 17.8211,465.4477 C7.2164,456.0885 -0.1369,441.681 -1.7843,426.6146 C-2.6558,418.6442 -2.0932,410.5214 -0.5788,402.5045 C2.3248,387.1341 8.261,372.6543 17.5039,360.3117 C25.8391,349.1812 36.6762,340.152 49.4767,333.7905 Z" fill="rgb(44,137,160)" opacity="1"/><path d="M172.3237,449.0385 C175.6565,451.7591 175.8572,458.1779 179.3091,460.8464 C182.4764,463.295 187.4016,462.7608 191.2098,459.662 C193.7818,457.5692 195.4093,454.3987 195.9905,450.8808 C196.3156,448.9129 196.3007,446.888 195.7643,444.9136 C197.5442,446.6741 198.9011,448.8001 199.914,451.0416 C201.3902,454.3083 201.9861,457.8926 204.194,459.662 C205.966,461.082 208.5875,461.3306 211.1794,460.8464 C213.8994,460.3383 216.3989,459.0804 218.0656,456.9471 C220.7282,453.5391 221.0351,448.3346 219.4608,442.9947 C222.5465,446.0174 225.4656,449.2769 227.8323,452.7614 C229.3204,454.9522 230.5116,457.2104 232.4263,458.4856 C236.1037,460.9348 241.3536,460.0142 244.1985,456.1436 C246.6018,452.8738 246.7117,448.1091 245.3901,443.0264 C242.6826,432.6138 234.3826,422.5531 223.6466,416.485 C210.7392,409.1897 195.2874,407.2565 179.3013,407.7257 C171.2187,407.963 163.2073,408.7891 155.6937,411.2669 C144.9363,414.8144 135.5745,421.4734 128.77,430.4375 C123.1493,437.842 119.5543,446.0835 121.7938,452.7614 C124.3061,460.2529 132.5322,464.2742 141.3272,461.1328 C153.6454,449.6372 166.5892,444.3575 172.3237,449.0385 Z" fill="rgb(175,221,233)" opacity="1"/><path d="M158.0701,424.8565 C163.0667,426.9398 166.5074,431.8984 169.2321,437.4137 C171.1259,441.2474 172.624,445.2776 173.5037,449.515 C169.7779,451.1439 166.2287,453.17 162.8803,455.4169 C160.0602,457.3092 157.4341,459.4532 154.6176,461.3188 C148.5589,465.332 141.9512,468.1038 135.7338,467.2746 C131.0478,466.6496 126.8334,464.0038 123.9299,460.1923 C121.1999,456.6083 119.7859,452.1721 120.3868,447.8582 C121.1594,442.3124 125.237,437.3733 130.1652,433.228 C139.3122,425.5342 150.0462,421.511 158.0701,424.8565 Z" fill="rgb(44,137,160)" opacity="1"/><path d="M18.1334,322.9409 L72.3813,186.7185 C73.7912,172.1549 75.6904,157.6818 78.4089,143.3202 C82.0706,123.9754 86.609,104.9617 95.286,87.8668 C105.0391,68.6518 119.4592,52.1804 137.4788,40.852 C156.0113,29.2012 177.8102,23.3375 200.1652,21.5639 C230.1005,19.1889 259.795,24.1481 283.3453,39.6465 C302.3691,52.1661 316.6439,71.064 325.538,92.6889 C336.5044,119.352 338.7236,149.2024 333.9766,179.4855 L374.9639,312.0914 L348.4033,334.6769 L298.8272,328.5354 C288.7286,344.0939 276.8912,351.8731 262.2353,351.8731 L174.887,351.8731 C158.6989,351.8731 144.8332,344.5033 132.3932,329.7637 L63.9309,337.1335 L18.1334,322.9409 Z" fill="rgb(11,34,40)" opacity="1"/><path d="M143.6827,44.1265 C133.7758,58.9753 126.3374,75.1318 121.2555,92.0302 C115.4216,111.4287 112.9673,131.7556 111.8124,152.2168 C111.0045,166.5309 111.0101,180.8671 111.8124,195.2073 L45.0448,327.3072 L26.1587,319.9374 L78.7617,189.0658 C79.6934,173.7607 81.6172,158.6067 84.6636,143.6187 C89.3988,120.3218 95.8906,97.5305 108.2712,78.5189 C117.3255,64.6154 129.1523,52.755 143.6827,44.1265 Z" fill="rgb(44,137,160)" opacity="1"/><path d="M235.7527,30.6152 C213.3106,29.8116 191.287,37.8045 174.3727,55.1812 C142.1074,88.3284 133.1323,150.6538 142.5024,218.545 L184.9962,213.6318 C194.9372,193.8931 211.2789,181.6355 231.5454,181.1396 C251.2159,180.6582 267.7211,191.4603 278.2465,209.9469 L332.1908,191.6178 L329.0029,169.413 C331.3032,152.0099 330.4532,134.6619 326.6422,117.8245 C321.8593,96.6934 313.1144,76.8277 299.0169,61.3457 C282.3752,43.0696 259.6639,31.4715 235.7527,30.6152 Z" fill="rgb(44,137,160)" opacity="1"/><path d="M249.2652,292.9277 L248.8117,325.4325 C248.7618,329.0085 245.591,331.356 241.6083,331.574 C237.6202,331.7924 234.3601,329.8696 234.4048,326.6608 L234.8584,294.156 C234.9179,289.89 238.0696,286.9798 242.0618,286.7862 C246.0405,286.5932 249.319,289.0765 249.2652,292.9277 Z" fill="rgb(44,137,160)" opacity="1"/><path d="M215.6492,292.9277 L215.1957,325.4325 C215.1458,329.0085 211.9749,331.356 207.9922,331.574 C204.0041,331.7924 200.744,329.8696 200.7888,326.6608 L201.2424,294.156 C201.3019,289.89 204.4536,286.9798 208.4458,286.7862 C212.4244,286.5932 215.703,289.0765 215.6492,292.9277 Z" fill="rgb(44,137,160)" opacity="1"/><path d="M184.4343,309.9003 L184.4343,320.0635 C184.4343,324.0338 181.0395,326.6775 176.7774,326.6521 C173.0648,326.63 170.0275,324.5779 170.0275,321.2918 L170.0275,311.1286 C170.0275,306.8638 173.1974,303.9332 177.2309,303.7588 C181.1719,303.5883 184.4343,306.0496 184.4343,309.9003 Z" fill="rgb(44,137,160)" opacity="1"/><path d="M280.4801,307.4437 L280.4801,317.6069 C280.4801,321.5772 277.0853,324.2209 272.8231,324.1955 C269.1106,324.1734 266.0733,322.1213 266.0733,318.8352 L266.0733,308.672 C266.0733,304.4072 269.2432,301.4766 273.2767,301.3022 C277.2177,301.1318 280.4801,303.593 280.4801,307.4437 Z" fill="rgb(44,137,160)" opacity="1"/><path d="M212.2287,162.2273 C216.9638,159.5888 222.1501,158.228 227.4848,157.8684 C235.3739,157.3365 243.5468,159.0798 251.4094,162.2054 C266.267,141.0628 289.9954,132.9734 312.7893,137.4173 C343.3973,143.3847 365.2484,168.9824 366.7203,199.3903 C368.3039,232.1042 346.596,260.7557 314.4135,266.9533 C291.367,271.3915 266.987,262.2494 251.3642,242.744 C241.3192,230.2027 235.9489,214.1728 238.5227,197.0766 C237.2956,195.782 235.711,195.0626 234.0232,194.9191 C231.7746,194.7278 229.4996,195.5702 227.4848,197.0985 C231.1608,221.2362 222.3141,243.2665 205.6903,258.1231 C184.7722,276.8176 155.3202,281.8905 129.4095,271.1998 C106.5031,261.7487 89.7069,241.149 85.8205,216.7136 C82.1633,193.7186 90.5478,170.103 107.615,153.5095 C124.4734,137.1191 148.0141,129.5743 170.8191,133.8944 C187.5709,137.0679 202.6567,146.6216 212.2287,162.2273 Z" fill="rgb(200,55,55)" opacity="0.2"/><path d="M210.0492,168.7657 C215.9978,164.7344 222.7428,162.5772 229.6643,162.2273 C237.8955,161.8112 246.1267,163.9639 253.7701,168.1073 C266.3542,148.626 287.3511,140.6181 308.0678,143.3192 C338.9314,147.3434 361.3548,171.8428 362.3614,201.5697 C363.3795,231.6355 342.5349,257.7868 312.2341,262.5944 C291.0493,265.9555 268.9473,257.0702 255.0686,239.0396 C245.136,226.1357 240.5838,209.5469 244.4246,192.3551 C241.3965,189.8352 237.7736,188.5118 234.0232,188.3807 C229.4523,188.221 224.947,189.8355 220.9465,192.7396 C225.742,216.6183 217.7796,238.9244 201.3314,253.7642 C182.8778,270.4134 156.8824,275.5514 133.7684,266.8409 C112.1996,258.7128 96.2948,239.6107 92.3589,216.7136 C88.6715,195.2623 96.0963,173.1309 111.9739,157.8684 C127.012,143.4129 148.0582,136.8376 168.6396,140.4328 C185.4292,143.3656 200.531,153.0476 210.0492,168.7657 Z" fill="rgb(200,55,55)" opacity="0.2"/><path d="M306.8958,149.411 C335.6778,151.58 358.1835,176.3796 357.0232,206.0767 C355.9452,233.6671 334.264,256.2152 306.8958,258.3835 C276.3528,260.8034 250.4082,237.9876 248.0507,208.2562 C245.3539,174.2463 272.9123,146.6564 306.8958,149.411 Z" fill="rgb(255,255,255)" opacity="1"/><path d="M157.0495,145.6801 C190.4319,145.6141 217.1465,173.0338 215.8947,206.7048 C214.7232,238.2141 188.832,263.3705 157.0495,263.3705 C125.267,263.3705 99.3758,238.2141 98.2043,206.7048 C96.9525,173.0338 123.667,145.6141 157.0495,145.6801 Z" fill="rgb(255,255,255)" opacity="1"/><path d="M231.3677,175.24 C242.0819,175.01 252.517,178.359 261.7314,184.813 L257.3725,197.8897 C250.4563,191.9098 242.2225,188.5815 233.5472,188.3167 C224.6576,188.0454 216.0408,191.0072 208.5741,196.7103 L202.0358,185.8131 C210.7725,179.1203 220.8651,175.4655 231.3677,175.24 Z" fill="rgb(255,255,255)" opacity="1"/><path d="M157.0495,158.7568 C182.1113,158.7631 202.7909,176.9926 204.9974,200.1664 C207.7712,229.2977 183.0712,252.9905 152.6906,250.2938 C126.5749,247.9756 106.6712,225.7726 109.1016,200.1664 C111.3191,176.8029 132.0746,158.7211 157.0495,158.7568 Z" fill="url(#gradient20)" opacity="1"/><path d="M306.8958,162.4877 C329.6878,164.5708 347.2999,183.6302 346.1259,206.0767 C345.0533,226.585 328.0958,243.2756 306.8958,245.3068 C281.5257,247.7376 260.1776,229.6161 258.9479,206.0767 C257.6052,180.3748 279.8782,159.8117 306.8958,162.4877 Z" fill="url(#gradient21)" opacity="1"/><path d="M178.2958,183.4695 C187.4534,183.1609 196.0395,187.0169 202.5871,194.3656 L188.1277,191.0522 C188.0668,202.659 182.1938,211.1705 174.5648,210.7401 C167.7281,210.3545 162.8939,202.8943 163.5912,193.0734 L152.4597,197.8229 C159.1976,189.0854 168.2256,183.8087 178.2958,183.4695 Z" fill="rgb(11,34,40)" opacity="0.1"/><path d="M282.4138,182.1111 C291.3379,182.0314 299.551,186.1204 305.515,193.6617 L292.1479,189.1135 C292.7998,199.9678 287.683,208.2448 280.399,208.2634 C273.7128,208.2804 268.6476,201.2637 268.8948,191.6972 L256.425,196.5493 C263.1819,187.5859 272.289,182.2015 282.4138,182.1111 Z" fill="rgb(11,34,40)" opacity="0.1"/><path d="M120.3985,233.7081 L135.7462,193.246 C137.3683,188.9696 140.3254,186.2698 144.1177,186.2698 L199.9274,186.2698 C193.2947,172.7357 181.4383,164.1518 167.8368,161.1554 C148.9251,156.9891 129.9833,163.4097 119.0033,177.8983 C107.0625,193.6547 107.4532,215.1834 120.3985,233.7081 Z" fill="rgb(11,34,40)" opacity="0.5"/><path d="M269.6896,230.9176 L283.9173,195.8908 C285.6535,191.6165 288.5642,188.9037 292.2887,188.9146 L342.2423,189.0603 C336.9889,175.5205 325.9485,166.8869 312.9422,163.9459 C293.0045,159.4376 273.5684,167.7813 264.1086,184.8745 C256.0914,199.3612 257.6773,216.9745 269.6896,230.9176 Z" fill="rgb(11,34,40)" opacity="0.5"/><path d="M219.7415,466.7443 L291.7449,293.2279 C305.5408,259.9822 335.6011,241.2911 373.1914,241.2911 L554.9704,241.2911 C573.1255,241.2911 579.9384,263.7664 570.3154,287.326 L501.8532,454.9405 C498.831,462.3395 492.7482,466.7443 485.1253,466.7443 L219.7415,466.7443 Z" fill="rgb(44,137,160)" opacity="0.2"/><path d="M233.7036,466.7443 L305.707,293.2279 C317.4144,265.0151 341.0649,248.3734 370.6281,248.3734 L552.4071,248.3734 C570.2146,248.3734 578.446,267.4201 570.3154,287.326 L501.8532,454.9405 C498.831,462.3395 492.7482,466.7443 485.1253,466.7443 L233.7036,466.7443 Z" fill="rgb(44,137,160)" opacity="0.4"/><path d="M247.8682,466.7443 L319.8716,293.2279 C328.8073,271.6944 346.8699,258.9968 369.4477,258.9968 L551.2267,258.9968 C566.9993,258.9968 576.2695,272.7488 570.3154,287.326 L501.8532,454.9405 C498.831,462.3395 492.7482,466.7443 485.1253,466.7443 L247.8682,466.7443 Z" fill="rgb(255,255,255)" opacity="1"/><path d="M324.2814,315.0096 C336.1133,287.3275 351.4001,267.8572 372.6771,267.7943 L553.5875,267.2595 C567.9685,267.217 576.0381,280.4709 570.3154,294.4083 L497.1316,472.6462 C490.4354,488.9548 472.6425,496.2105 449.7138,496.2539 L167.2904,496.7886 C157.9099,496.8064 151.5767,489.9973 150.765,481.4437 C149.7223,470.4554 157.6999,461.3771 169.6512,461.3771 L261.7211,461.3771 L324.2814,315.0096 Z" fill="rgb(11,34,40)" opacity="1"/><path d="M447.5346,376.7625 C452.5625,384.6873 461.3515,386.4268 470.7849,382.9774 C470.1558,385.61 468.9517,388.0076 467.5565,390.2904 C460.0034,402.6482 448.7349,411.2618 435.8667,412.8024 C428.0136,413.7425 420.3815,412.1415 416.0414,407.1419 C409.7269,399.8681 411.293,387.1546 417.4669,375.3249 C423.1277,364.4783 433.0947,355.8688 443.1738,352.6517 C446.318,351.6481 449.4152,351.1868 452.6335,351.6232 C444.8806,359.169 442.2326,368.4056 447.5346,376.7625 Z" fill="rgb(44,137,160)" opacity="1"/><path d="M442.6481,379.9212 C446.6301,386.4328 453.6949,389.24 461.8974,388.2634 C455.2739,398.784 446.3458,406.2729 436.435,407.9046 C429.5098,409.0448 422.7899,407.358 419.2915,402.8201 C414.5253,396.6379 416.6484,386.3859 422.2468,376.9426 C427.2604,368.4859 434.8338,361.8131 444.4081,357.716 C439.4448,365.0326 438.454,373.063 442.6481,379.9212 Z" fill="rgb(175,221,233)" opacity="1"/></g><path d="M399,41.7004 L399,205.1459 L466.942,205.1459 C491.3801,205.1459 513.2126,196.1455 527.9687,179.6075 C541.6173,164.3106 548.2642,143.5736 548.3993,122.1462 C548.5362,100.4369 542.0351,79.4138 527.9687,64.6849 C513.0507,49.0644 490.6766,41.7004 465.6601,41.7004 L399,41.7004 Z M444.969,80.008 L465.3997,80.008 C487.3989,80.008 501.8246,98.795 502.4303,122.1462 C503.0703,146.816 488.2723,166.8383 465.3997,166.8383 L444.969,166.8383 L444.969,80.008 Z M602.0299,41.7004 L548.3993,205.1459 L598.1991,205.1459 L605.8606,179.6075 L667.1526,179.6075 L674.8141,205.1459 L723.337,205.1459 L668.4296,41.7004 L602.0299,41.7004 Z M633.9528,77.4541 L637.7835,77.4541 L656.9373,146.4077 L616.0759,146.4077 L633.9528,77.4541 Z M737.3831,41.7004 L737.3831,205.1459 L783.3521,205.1459 L783.3922,156.623 L802.5059,156.623 L826.7673,205.1459 L877.1129,205.1459 L844.6441,146.4077 C851.0455,141.0295 856.087,134.4751 859.9672,127.2539 C866.8391,114.4649 870.0832,100.2797 868.1394,86.3925 C866.7427,76.4142 862.8459,67.0087 856.1364,59.5773 C845.4916,47.7871 828.6955,41.7004 810.1674,41.7004 L737.3831,41.7004 Z M783.3521,76.1772 L805.0597,76.1772 C811.754,76.1772 817.6812,79.0282 821.6596,83.8387 C825.4449,88.4156 827.1917,94.4312 826.7673,100.4386 C826.2047,108.4037 822.007,115.5634 815.275,119.5924 C810.5882,122.3974 804.8719,123.4231 798.6751,123.4231 L783.3471,123.4231 L783.3521,76.1772 Z M895.7208,41.7004 L895.7208,205.1459 L938.475,205.1459 L938.475,140.0231 L955.075,140.0231 L993.3825,205.1459 L1044.4241,205.1459 L990.8286,119.5924 L1039.2964,41.7004 L992.1056,41.7004 L952.5211,104.2694 L938.475,104.2694 L938.475,41.7004 L895.7208,41.7004 Z M1277.5191,41.7004 L1277.5191,205.1459 L1384.7802,205.1459 L1384.7802,166.8383 L1320.9343,166.8383 L1320.9343,142.5769 L1378.3956,142.5769 L1378.3956,104.2694 L1320.9343,104.2694 L1320.9343,80.008 L1380.9344,80.008 L1380.9344,41.7004 L1277.5191,41.7004 Z M1894.2702,41.7004 L1894.2702,205.1459 L1940.2392,205.1459 L1940.2793,156.623 L1959.393,156.623 L1983.6544,205.1459 L2034,205.1459 L2001.5312,146.4077 C2007.9326,141.0295 2012.9741,134.4751 2016.8543,127.2539 C2023.7262,114.4649 2026.9703,100.2797 2025.0265,86.3925 C2023.6298,76.4142 2019.733,67.0087 2013.0235,59.5773 C2002.3787,47.7871 1985.5826,41.7004 1967.0545,41.7004 L1894.2702,41.7004 Z M1940.2392,76.1772 L1961.9468,76.1772 C1968.6411,76.1772 1974.5683,79.0282 1978.5467,83.8387 C1982.332,88.4156 1984.0788,94.4312 1983.6544,100.4386 C1983.0918,108.4037 1978.8941,115.5634 1972.1621,119.5924 C1967.4753,122.3974 1961.759,123.4231 1955.5622,123.4231 L1940.2342,123.4231 L1940.2392,76.1772 Z M1120.4583,41.7004 L1120.4583,205.1459 L1166.4273,205.1459 L1166.4674,156.623 L1185.5811,156.623 L1209.8425,205.1459 L1260.1881,205.1459 L1227.7193,146.4077 C1234.1207,141.0295 1239.1622,134.4751 1243.0424,127.2539 C1249.9143,114.4649 1253.1584,100.2797 1251.2146,86.3925 C1249.8179,76.4142 1245.9211,67.0087 1239.2116,59.5773 C1228.5668,47.7871 1211.7707,41.7004 1193.2426,41.7004 L1120.4583,41.7004 Z M1166.4273,76.1772 L1188.1349,76.1772 C1194.8292,76.1772 1200.7564,79.0282 1204.7348,83.8387 C1208.5201,88.4156 1210.2669,94.4312 1209.8425,100.4386 C1209.2799,108.4037 1205.0822,115.5634 1198.3502,119.5924 C1193.6634,122.3974 1187.9471,123.4231 1181.7503,123.4231 L1166.4223,123.4231 L1166.4273,76.1772 Z M1448.626,41.7004 L1394.9955,205.1459 L1444.7953,205.1459 L1452.4568,179.6075 L1513.7488,179.6075 L1521.4103,205.1459 L1569.9332,205.1459 L1515.0257,41.7004 L1448.626,41.7004 Z M1480.549,77.4541 L1484.3797,77.4541 L1503.5335,146.4077 L1462.6721,146.4077 L1480.549,77.4541 Z M1586.5331,41.7004 L1586.5331,205.1459 L1654.4751,205.1459 C1678.9132,205.1459 1700.7457,196.1455 1715.5018,179.6075 C1729.1504,164.3106 1735.7973,143.5736 1735.9324,122.1462 C1736.0694,100.4369 1729.5682,79.4138 1715.5018,64.6849 C1700.5838,49.0644 1678.2097,41.7004 1653.1932,41.7004 L1586.5331,41.7004 Z M1632.5021,80.008 L1652.9328,80.008 C1674.932,80.008 1689.3577,98.795 1689.9634,122.1462 C1690.6034,146.816 1675.8054,166.8383 1652.9328,166.8383 L1632.5021,166.8383 L1632.5021,80.008 Z M1760.1939,41.7004 L1760.1939,205.1459 L1867.4549,205.1459 L1867.4549,166.8383 L1803.6091,166.8383 L1803.6091,142.5769 L1861.0703,142.5769 L1861.0703,104.2694 L1803.6091,104.2694 L1803.6091,80.008 L1863.6092,80.008 L1863.6092,41.7004 L1760.1939,41.7004 Z" fill="rgb(233,108,76)" opacity="1"/><path d="M753.2962,438.8138 L741.7905,438.8138 L741.7905,358.4975 L646.394,358.4975 L646.394,438.8138 L635,438.8138 L635,275.5003 L646.394,275.5003 L646.394,347.9972 L741.7905,347.9972 L741.7905,275.5003 L753.2962,275.5003 L753.2962,438.8138 Z M845.7883,441.0479 C829.7189,440.495 814.535,435.3736 804.5131,424.7389 C793.7905,413.3606 789.7614,396.4885 789.7122,379.0513 C789.663,361.6173 793.6286,344.6997 804.0105,332.526 C813.5798,321.3051 827.7598,314.8701 842.5489,315.0441 C855.533,315.1968 868.0301,320.473 876.3957,330.0126 C885.3478,340.2211 888.795,354.6999 888.795,370.6734 L888.795,379.6099 L801.3295,379.6099 C799.1928,394.4521 803.4918,408.3482 813.0028,417.8132 C821.3109,426.0811 833.2141,430.3246 845.7883,430.9944 C851.8727,431.3185 858.0017,430.7271 864.0522,429.5422 C870.8909,428.203 877.5313,426.0378 883.9916,423.2867 L883.9916,433.3402 C877.8724,436.0674 871.5248,438.1272 865.0017,439.4282 C858.6545,440.6941 852.2079,441.2688 845.7883,441.0479 Z M842.5489,324.8742 C832.0713,324.5135 821.9037,328.8749 814.3991,336.4357 C806.0102,344.8873 801.7293,356.7317 801.9998,369.7798 L877.0659,369.7798 C878.6366,357.1358 875.5,345.2826 867.906,336.7708 C861.4487,329.5331 852.2298,325.2074 842.5489,324.8742 Z M933.3655,438.8138 L922.3066,438.8138 L922.3066,265 L933.3655,265 L933.3655,438.8138 Z M1025.9694,441.0479 C1010.5739,440.8261 995.8091,433.3426 985.0851,420.0473 L984.3032,420.0473 L984.6383,429.4305 C984.8538,435.4641 985.0851,441.494 985.0851,447.5268 L985.0851,493.7729 L974.0263,493.7729 L974.0263,317.3899 L983.4095,317.3899 L985.532,334.7043 L986.2022,334.7043 C996.8564,322.2535 1011.2388,315.3714 1026.1928,315.0441 C1040.6366,314.728 1054.6032,320.5004 1063.67,331.1855 C1073.7917,343.114 1076.7722,360.3634 1076.572,378.1577 C1076.3745,395.6996 1073.0875,412.6743 1062.9997,424.5713 C1053.9356,435.2612 1040.19,441.2528 1025.9694,441.0479 Z M1025.7459,431.2178 C1036.9514,431.1232 1047.6985,426.0886 1054.6218,417.3663 C1062.5587,407.3672 1064.6207,393.1937 1064.8429,378.6045 C1065.0607,364.3072 1063.5032,350.3711 1056.1107,340.1958 C1049.2195,330.7105 1038.0201,325.0889 1026.1928,325.0976 C1015.3374,325.1056 1004.8531,329.9501 997.3962,338.1357 C988.902,347.4599 985.0851,360.4972 985.0851,374.8065 L985.0851,378.3811 C985.0851,392.6642 987.2157,405.6721 994.3059,415.3916 C1001.6129,425.4084 1013.3589,431.3224 1025.7459,431.2178 Z" fill="rgb(233,108,76)" opacity="1"/></g></svg>