<svg viewBox="0 0 512 512" xmlns="http://www.w3.org/2000/svg"><defs><linearGradient x1="196.1" y1="100.9" x2="195.2" y2="177.0" id="gradient19" gradientUnits="userSpaceOnUse"><stop offset="0%" stop-color="rgb(20,30,36)"/><stop offset="100%" stop-color="rgb(233,108,76)"/></linearGradient><linearGradient x1="316.0" y1="105.6" x2="316.9" y2="177.3" id="gradient20" gradientUnits="userSpaceOnUse"><stop offset="0%" stop-color="rgb(20,30,36)"/><stop offset="100%" stop-color="rgb(233,108,76)"/></linearGradient></defs><g><path d="M-199.8,150.5 C-178.4,160.2 -157.0,170.0 -135.6,179.8" fill="rgb(20,30,36)"/></g><g><path d="M199.8,28.0 C190.2,38.3 183.2,50.3 178.4,63.6 C170.8,84.4 168.9,108.5 166.5,132.8 L154.5,250.8 L148.9,130.6 C147.6,102.2 153.2,75.0 167.3,54.6 C175.5,42.8 186.4,33.5 199.8,28.0 Z" fill="rgb(56,183,211)" opacity="0.5"/><path d="M270.8,18.0 C252.1,17.0 233.5,22.3 219.8,34.0 C206.3,45.7 198.6,63.3 192.8,82.0 C186.5,102.7 183.4,124.1 182.5,146.0 L230.1,154.6 C240.1,141.0 254.1,133.2 269.8,133.1 C286.7,132.9 301.8,141.6 312.9,156.3 L335.5,146.8 L344.8,252.3 L353.5,145.6 C355.4,123.2 355.0,101.3 348.8,81.3 C344.1,66.3 336.3,52.6 325.4,41.9 C310.7,27.5 291.3,19.1 270.8,18.0 Z" fill="rgb(56,183,211)" opacity="0.5"/></g><g><path d="M235.3,121.1 C241.0,118.8 247.0,117.6 253.0,117.6 C259.5,117.5 266.0,118.7 272.3,121.1 C286.0,103.9 306.3,97.6 325.9,101.1 C353.6,106.0 373.7,127.6 375.1,153.5 C376.6,181.5 356.7,206.0 327.4,210.9 C308.4,214.1 288.5,207.4 275.9,192.4 C266.1,180.8 261.9,165.2 266.0,149.2 C263.5,148.1 260.9,147.6 258.3,147.5 C254.7,147.3 251.1,148.0 247.6,149.2 C250.5,168.7 243.4,186.5 230.0,198.5 C213.1,213.6 189.3,217.7 168.4,209.0 C149.9,201.4 136.4,184.8 133.2,165.1 C130.3,146.5 137.1,127.4 150.8,114.1 C164.4,100.8 183.4,94.7 201.8,98.2 C215.4,100.8 227.5,108.5 235.3,121.1 Z" fill="rgb(233,108,76)" opacity="0.2"/><path d="M233.5,126.4 C240.2,123.0 247.4,121.3 254.8,121.1 C262.8,120.9 270.7,122.5 278.3,125.8 C290.5,108.6 309.8,102.0 328.4,105.8 C351.7,110.6 368.6,129.8 370.2,152.5 C372.3,179.7 353.5,203.3 325.5,207.0 C309.1,209.2 292.0,203.2 280.7,190.5 C270.2,178.6 266.1,162.1 270.7,145.4 C266.8,143.3 262.6,142.3 258.3,142.2 C252.9,142.0 247.4,143.3 242.3,145.7 C246.2,165.0 239.7,183.0 226.5,195.0 C211.6,208.4 190.6,212.5 171.9,205.5 C154.5,199.0 141.7,183.5 138.5,165.1 C135.5,147.7 141.5,129.9 154.3,117.6 C166.5,105.9 183.5,100.6 200.1,103.5 C213.6,105.9 225.8,113.7 233.5,126.4 Z" fill="rgb(233,108,76)" opacity="0.2"/><path d="M323.2,110.3 C347.4,112.1 366.3,133.0 365.3,158.0 C364.4,181.2 346.2,200.2 323.2,202.0 C297.5,204.0 275.6,184.8 273.7,159.8 C271.4,131.2 294.6,108.0 323.2,110.3 Z" fill="rgb(255,255,255)"/><path d="M190.7,107.7 C217.7,107.7 239.2,129.8 238.2,157.0 C237.3,182.4 216.4,202.7 190.7,202.7 C165.1,202.7 144.2,182.4 143.2,157.0 C142.2,129.8 163.8,107.7 190.7,107.7 Z" fill="rgb(255,255,255)"/><path d="M256.5,129.7 C266.5,129.6 276.3,132.5 285.1,138.1 L281.2,149.9 C274.1,145.0 266.1,142.4 257.9,142.1 C249.0,141.8 240.3,144.2 232.3,148.9 L226.6,139.1 C235.8,133.1 246.0,129.8 256.5,129.7 Z" fill="rgb(255,255,255)"/><path d="M190.9,120.2 C210.2,120.2 226.2,134.2 227.9,152.1 C230.0,174.5 211.0,192.7 187.6,190.7 C167.5,188.9 152.1,171.8 154.0,152.1 C155.7,134.1 171.7,120.2 190.9,120.2 Z" fill="url(#gradient19)"/><path d="M323.4,123.2 C341.8,124.9 355.9,140.2 355.0,158.3 C354.1,174.8 340.5,188.2 323.4,189.9 C303.0,191.8 285.8,177.2 284.8,158.3 C283.7,137.6 301.7,121.0 323.4,123.2 Z" fill="url(#gradient20)"/><path d="M207.9,138.2 C215.3,138.0 222.2,141.1 227.5,147.0 L215.8,144.4 C215.8,153.7 211.0,160.6 204.9,160.2 C199.3,159.9 195.4,153.9 196.0,146.0 L187.0,149.8 C192.5,142.8 199.7,138.5 207.9,138.2 Z" fill="rgb(20,30,36)" opacity="0.1"/><path d="M301.4,137.1 C308.6,137.1 315.2,140.4 320.0,146.5 L309.2,142.8 C309.8,151.5 305.6,158.2 299.8,158.2 C294.4,158.3 290.3,152.6 290.5,144.9 L280.4,148.8 C285.9,141.6 293.2,137.2 301.4,137.1 Z" fill="rgb(20,30,36)" opacity="0.1"/><path d="M162.7,177.9 L174.5,146.7 C175.8,143.4 178.1,141.4 181.0,141.4 L223.9,141.4 C218.8,131.0 209.7,124.3 199.2,122.0 C184.9,118.9 170.4,123.6 161.6,134.9 C156.5,141.5 153.9,149.8 154.5,158.2 C154.9,165.3 157.7,172.3 162.7,177.9 Z" fill="rgb(20,30,36)" opacity="0.5"/><path d="M346.2,178.2 L334.7,150.0 C333.3,146.6 331.0,144.4 328.0,144.4 L287.8,144.5 C292.0,133.6 300.9,126.6 311.4,124.3 C327.4,120.6 343.1,127.4 350.7,141.1 C357.1,152.8 355.9,167.0 346.2,178.2 Z" fill="rgb(20,30,36)" opacity="0.5"/></g><g/><g><path d="M129.8,358.5 L129.8,278.2 C129.8,240.9 151.0,214.2 183.3,214.2 L325.3,214.2 C352.4,214.2 369.3,239.7 369.3,274.2 L369.3,358.7 L355.1,342.9 L355.0,269.9 C355.0,248.9 342.1,234.2 322.8,234.2 L180.7,234.2 C159.8,234.2 146.1,252.0 145.7,276.8 L144.9,338.1 L129.8,358.5 Z" fill="rgb(139,188,199)" opacity="0.2"/><path d="M146.3,278.5 L145.7,338.5 L136.8,347.4 L136.8,276.2 C136.8,243.9 155.9,221.2 184.8,221.2 L321.8,221.2 C347.0,221.2 363.3,242.5 363.3,272.2 L363.3,351.5 L355.0,343.5 L353.6,269.2 C353.3,249.1 341.0,235.1 322.8,234.9 L181.4,233.5 C160.3,233.3 146.6,252.3 146.3,278.5 Z" fill="rgb(139,188,199)" opacity="0.4"/><path d="M148.9,379.0 C144.8,371.4 142.8,363.5 142.8,355.3 L142.8,276.2 C142.8,247.4 160.2,227.2 186.3,227.2 L319.7,227.2 C342.7,227.2 357.8,245.9 357.8,272.2 L357.8,358.1 C357.8,363.0 357.0,367.8 355.5,372.4 C354.8,374.6 353.9,376.7 352.8,378.7 L352.8,274.2 C352.8,253.8 338.1,240.2 316.8,240.2 L188.0,240.4 C164.8,240.4 148.9,255.7 148.9,278.5 L148.9,379.0 Z" fill="rgb(255,255,255)"/><path d="M257.7,325.4 C261.4,330.3 267.3,331.9 273.7,330.3 C273.5,332.4 272.7,334.4 271.7,336.3 C267.8,343.6 261.2,348.6 253.6,349.4 C246.9,350.2 240.2,347.8 235.6,342.9 C230.2,337.2 228.2,329.1 230.4,321.7 C233.0,312.4 241.2,306.0 251.5,304.8 C253.9,304.6 256.3,304.6 258.5,305.5 C254.2,312.4 253.5,319.7 257.7,325.4 Z" fill="rgb(56,183,211)" opacity="0.5"/><path d="M255.0,327.9 C258.2,332.4 263.3,334.8 269.4,334.6 C266.2,340.4 261.0,344.0 255.0,344.8 C249.2,345.6 243.3,343.6 239.4,339.4 C235.0,334.7 233.7,327.9 235.8,321.8 C238.2,314.7 245.0,309.8 253.8,308.8 C251.0,315.7 251.2,322.6 255.0,327.9 Z" fill="rgb(255,255,255)" opacity="0.5"/></g><g><path d="M150.5,381.5 C153.1,385.0 156.3,387.8 160.2,387.8 L207.6,387.8 C213.9,387.8 219.2,390.8 221.7,395.7 C223.6,399.6 223.5,404.4 221.5,408.6 C218.7,414.4 212.7,418.1 205.6,418.1 L164.2,418.1 C170.0,421.3 176.0,423.0 182.3,423.0 L198.4,423.0 C204.7,423.0 209.5,427.5 210.5,433.8 C211.1,437.9 210.0,442.1 207.3,445.4 C203.5,450.2 197.0,452.3 189.7,452.2 C193.1,454.3 194.6,457.8 194.5,461.5 C194.4,468.7 189.2,474.1 181.8,474.1 L150.7,473.9 C140.6,473.8 132.2,467.8 126.4,459.1 C118.0,446.6 116.1,429.5 116.3,411.9 C116.4,400.8 117.3,389.8 120.4,379.4 C124.6,365.4 132.6,352.8 142.8,341.6 C142.1,350.0 142.1,358.3 144.0,366.4 C145.3,371.9 147.2,377.2 150.5,381.5 Z" fill="rgb(56,183,211)" opacity="0.5"/><path d="M350.5,382.1 C347.9,385.5 344.6,388.3 340.8,388.3 L293.5,388.3 C287.1,388.3 281.8,391.3 279.4,396.2 C277.4,400.2 277.5,405.0 279.5,409.1 C282.3,414.9 288.3,418.6 295.5,418.6 L336.8,418.6 C331.0,421.9 325.0,423.5 318.8,423.5 L302.6,423.5 C296.3,423.5 291.5,428.1 290.5,434.4 C289.9,438.4 291.0,442.7 293.7,446.0 C297.5,450.7 304.0,452.8 311.3,452.7 C307.9,454.9 306.4,458.4 306.5,462.0 C306.6,469.3 311.8,474.7 319.2,474.6 L350.3,474.4 C360.4,474.3 368.8,468.4 374.6,459.7 C383.0,447.2 384.8,430.0 384.8,412.5 C384.7,401.3 384.0,390.2 380.6,379.9 C376.4,367.1 368.3,355.8 357.8,346.3 C358.2,356.0 357.9,365.8 355.2,373.4 C354.0,376.7 352.5,379.5 350.5,382.1 Z" fill="rgb(56,183,211)" opacity="0.5"/></g></svg>