<svg viewBox="0 0 2048 512" xmlns="http://www.w3.org/2000/svg"><defs><linearGradient x1="143.4" y1="71.2" x2="104.4" y2="123.5" id="gradient624" gradientUnits="userSpaceOnUse"><stop offset="0%" stop-color="rgb(20,30,36)"/><stop offset="100%" stop-color="rgb(49,110,125)"/></linearGradient><linearGradient x1="264.6" y1="78.5" x2="321.5" y2="105.4" id="gradient654" gradientUnits="userSpaceOnUse"><stop offset="0%" stop-color="rgb(20,30,36)"/><stop offset="100%" stop-color="rgb(49,110,125)"/></linearGradient><linearGradient x1="165.3" y1="146.9" x2="164.2" y2="241.1" id="gradient323" gradientUnits="userSpaceOnUse"><stop offset="0%" stop-color="rgb(20,30,36)"/><stop offset="100%" stop-color="rgb(233,108,76)"/></linearGradient><linearGradient x1="313.6" y1="152.7" x2="314.8" y2="241.4" id="gradient324" gradientUnits="userSpaceOnUse"><stop offset="0%" stop-color="rgb(20,30,36)"/><stop offset="100%" stop-color="rgb(233,108,76)"/></linearGradient></defs><g><path d="M-34,-22 L2066,-22 L2066,559 L-34,559 L-34,-22 Z" fill="rgb(20,30,36)"/></g><g><path d="M232,280 C187.0,277.7 143.2,280.0 107,299 C69.4,318.6 43.5,353.3 42,391 C40.9,415.9 51.0,439.8 70,453 C91.0,467.6 120.3,467.9 145,451 C174.9,459.6 205.7,460.6 236,457 C296.5,449.7 348.7,427.7 360,388 C368.8,356.8 352.1,321.4 320,301 C295.7,285.5 264.3,281.6 232,280 Z" fill="rgb(20,30,36)"/><path d="M206.4,110.2 C195.8,101.4 189.8,87.3 181.4,74.2 C170.1,56.7 154.4,42.4 136.4,32.2 C111.0,17.9 84.5,13.3 71.4,25.2 C57.9,37.6 61.8,65.4 74.4,92.2 C84.2,112.9 98.9,131.1 119,144 C112.1,160.6 106.6,177.6 102,195 C92.8,229.4 86.2,263.4 98,291 C110.6,320.5 140.3,338.8 176.4,337.2 C192.1,345.9 209.2,350.5 226.4,350.2 C242.1,349.9 257.5,345.6 271.4,337.2 C303.1,344.0 331.8,333.3 349.4,309.2 C374.9,274.5 370.3,222.8 346,174 C338.2,158.5 328.3,144.3 315,133 C326.6,106.9 332.4,80.0 330.4,53.2 C328.6,28.7 321.2,7.0 307.4,4.2 C296.3,2.0 282.7,12.7 271.4,27.2 C257.4,45.2 248.8,67.0 245.4,90.2 C243.9,100.3 243.5,110.4 238.4,115.2 C231.3,122.0 217.5,119.4 206.4,110.2 Z" fill="rgb(49,110,125)"/><path d="M219,223 C226.1,209.0 226.2,192.0 221.2,176 C216.4,160.2 207.0,146.5 193.8,140 C175.2,130.7 152.2,135.8 136.8,151 C115.4,172.0 113.9,204.5 133,228 C147.1,245.4 170.7,253.1 192,246 C203.5,242.1 213.1,233.8 219,223 Z" fill="rgb(139,188,199)"/><path d="M248.0,201 C248.1,182.9 252.2,165.1 262.3,152 C269.2,142.8 278.3,135.8 288.5,136 C319.8,136.5 347.5,180.4 323.0,220 C307.7,244.7 277.3,254.2 259.7,239.6 C250.4,231.8 247.9,216.8 248.0,201 Z" fill="rgb(139,188,199)"/><path d="M206,233 C204.7,242.6 207.7,251.5 214,258 C220.4,264.6 229.6,268.0 239,267 C245.8,266.2 252.3,263.0 257,257.9 C263.0,251.3 265.5,242.0 265,232 C269.5,243.2 278.9,250.8 290,253 C301.8,255.3 314.6,250.9 322.7,255.1 C338.5,263.4 337.8,292.6 314.7,314.9 C302.2,326.9 284.4,332.9 267.7,329.2 C262.4,328.0 257.4,325.9 253,323 C247.9,319.6 243.5,315.1 240,310 C235.2,315.1 229.7,319.3 223.7,322.7 C212.1,329.3 199.4,333.1 186.7,333.1 C159.4,333.1 136.4,317.9 126.7,294.1 C118.8,274.9 121.1,256.4 131.7,252.5 C139.2,249.8 150.7,257.2 163,258 C179.1,258.9 194.8,249.1 206,233 Z" fill="rgb(139,188,199)"/><path d="M237,216 C250.9,215.7 263.3,221.0 266,230 C269.5,241.7 257.4,254.4 240,257 C219.8,259.9 203.3,248.5 205,235 C206.2,224.4 220.0,216.3 237,216 Z" fill="rgb(139,188,199)"/><path d="M72.4,44.2 C79.5,38.6 97.2,46.6 114.4,59.2 C143.8,80.9 159.5,107.1 150.4,120.2 C145.5,127.3 133.5,128.8 122.4,125.2 C110.0,121.2 100.1,110.4 91.4,98.2 C74.4,74.4 64.5,51.4 72.4,44.2 Z" fill="url(#gradient624)"/><path d="M312.1,26.2 C319.7,27.2 321.1,49.2 318.1,76.1 C315.3,102.0 309.4,123.3 299.9,123.6 C292.9,123.8 285.5,112.9 282.9,99.2 C279.7,82.8 285.1,65.0 293.8,48.1 C299.9,36.2 306.7,25.9 312.1,26.2 Z" fill="url(#gradient654)"/><g><path d="M213.8,171.9 C220.8,169.1 228.2,167.6 235.7,167.5 C243.8,167.5 251.9,169.0 259.6,171.9 C276.5,150.6 301.7,142.8 325.9,147.1 C360.1,153.2 385.1,179.9 386.8,212.0 C388.7,246.6 364.0,276.9 327.8,283.0 C304.3,287.0 279.6,278.7 264.0,260.2 C251.9,245.8 246.7,226.5 251.8,206.7 C248.7,205.4 245.5,204.7 242.2,204.5 C237.8,204.4 233.3,205.2 229.0,206.7 C232.7,230.8 223.8,252.8 207.2,267.7 C186.3,286.3 156.9,291.4 131.0,280.7 C108.2,271.3 91.4,250.7 87.5,226.3 C83.9,203.3 92.2,179.8 109.3,163.2 C126.1,146.8 149.6,139.3 172.4,143.6 C189.1,146.8 204.2,156.3 213.8,171.9 Z" fill="rgb(233,108,76)" opacity="0.2"/><path d="M211.6,178.4 C219.9,174.3 228.8,172.1 237.9,171.9 C247.8,171.6 257.6,173.7 267.0,177.8 C282.1,156.5 306.0,148.3 329.0,153.0 C357.8,159.0 378.7,182.7 380.8,210.8 C383.3,244.4 360.0,273.6 325.4,278.2 C305.1,280.9 284.0,273.5 270.0,257.8 C257.0,243.1 251.9,222.7 257.7,202.0 C252.8,199.4 247.6,198.2 242.2,198.0 C235.5,197.8 228.8,199.4 222.5,202.4 C227.2,226.2 219.3,248.5 202.9,263.3 C184.4,279.9 158.5,285.1 135.4,276.4 C113.9,268.3 98.0,249.2 94.0,226.3 C90.4,204.9 97.8,182.8 113.6,167.5 C128.7,153.1 149.7,146.5 170.2,150.1 C187.0,153.1 202.1,162.7 211.6,178.4 Z" fill="rgb(233,108,76)" opacity="0.2"/><path d="M322.5,158.6 C352.5,160.8 375.9,186.6 374.7,217.6 C373.6,246.3 351.0,269.8 322.5,272.0 C290.7,274.5 263.7,250.8 261.3,219.8 C258.5,184.4 287.2,155.7 322.5,158.6 Z" fill="rgb(255,255,255)"/><path d="M158.6,155.4 C192.0,155.3 218.7,182.7 217.4,216.3 C216.2,247.8 190.4,272.9 158.6,272.9 C126.9,272.9 101.1,247.8 99.9,216.3 C98.6,182.7 125.3,155.3 158.6,155.4 Z" fill="rgb(255,255,255)"/><path d="M240.1,182.6 C252.5,182.5 264.6,186.0 275.5,192.9 L270.6,207.5 C261.8,201.5 251.9,198.3 241.8,198.0 C230.8,197.6 220.0,200.5 210.1,206.3 L203.1,194.2 C214.4,186.7 227.1,182.7 240.1,182.6 Z" fill="rgb(255,255,255)"/><path d="M158.9,170.8 C182.8,170.8 202.5,188.2 204.6,210.2 C207.2,238.0 183.7,260.6 154.8,258.0 C129.9,255.8 110.9,234.6 113.2,210.2 C115.3,188.0 135.1,170.7 158.9,170.8 Z" fill="url(#gradient323)"/><path d="M322.8,174.5 C345.5,176.6 363.1,195.6 361.9,217.9 C360.9,238.4 344.0,255.0 322.8,257.0 C297.6,259.4 276.3,241.4 275.1,217.9 C273.7,192.3 295.9,171.8 322.8,174.5 Z" fill="url(#gradient324)"/><path d="M179.9,193.1 C189.0,192.8 197.6,196.7 204.1,204.0 L189.7,200.7 C189.6,212.3 183.8,220.8 176.1,220.3 C169.3,220.0 164.5,212.5 165.2,202.7 L154.1,207.4 C160.8,198.7 169.8,193.5 179.9,193.1 Z" fill="rgb(20,30,36)" opacity="0.1"/><path d="M295.6,191.8 C304.5,191.7 312.7,195.8 318.7,203.3 L305.3,198.7 C306.0,209.6 300.9,217.9 293.6,217.9 C286.9,217.9 281.8,210.9 282.1,201.3 L269.6,206.2 C276.4,197.2 285.5,191.8 295.6,191.8 Z" fill="rgb(20,30,36)" opacity="0.1"/><path d="M124.0,242.2 L138.6,203.6 C140.2,199.6 143.0,197.0 146.6,197.0 L199.8,197.0 C193.4,184.1 182.2,175.9 169.2,173.1 C151.4,169.2 133.5,175.0 122.7,189.0 C116.3,197.1 113.1,207.4 113.8,217.8 C114.4,226.6 117.7,235.2 124.0,242.2 Z" fill="rgb(20,30,36)" opacity="0.5"/><path d="M285.8,242.7 L299.9,207.8 C301.7,203.5 304.6,200.8 308.3,200.8 L358.1,201.0 C352.8,187.5 341.8,178.9 328.9,176.0 C309.0,171.5 289.6,179.8 280.2,196.8 C272.2,211.2 273.8,228.8 285.8,242.7 Z" fill="rgb(20,30,36)" opacity="0.5"/></g><g><path d="M230.1,460.7 L298.4,287.5 C311.5,254.2 341.7,235.6 379.7,235.6 L565.5,235.6 C583.3,235.6 590.0,257.9 580.9,281.6 L516.1,449.0 C513.2,456.4 507.1,460.7 499.4,460.7 L230.1,460.7 Z" fill="rgb(139,188,199)" opacity="0.2"/><path d="M244.1,460.7 L312.4,287.5 C323.5,259.2 347.3,242.7 377.2,242.7 L563.0,242.7 C580.5,242.7 588.6,261.5 580.9,281.6 L516.1,449.0 C513.2,456.4 507.1,460.7 499.4,460.7 L244.1,460.7 Z" fill="rgb(139,188,199)" opacity="0.4"/><path d="M258.2,460.7 L326.5,287.5 C335.0,265.9 353.2,253.3 376.0,253.3 L561.8,253.3 C577.4,253.3 586.5,266.9 580.9,281.6 L516.1,449.0 C513.2,456.4 507.1,460.7 499.4,460.7 L258.2,460.7 Z" fill="rgb(255,255,255)"/><path d="M330.9,309.2 C342.1,281.4 357.7,262.1 379.2,262.1 L564.1,261.5 C578.4,261.5 586.3,274.6 580.9,288.6 L511.4,466.6 C505.7,481.1 485.9,483.2 461.3,483.2 L175.0,483.2 C171.7,483.2 168.9,482.3 167.0,480.3 C164.8,477.8 164.2,473.9 164.2,469.8 C164.3,465.9 164.9,462.1 167.0,459.4 C169.1,456.8 172.6,455.4 176.5,455.4 L272.0,455.4 L330.9,309.2 Z" fill="rgb(20,30,36)"/><path d="M456.0,367.3 C461.1,374.5 469.5,377.1 478.8,375.1 C478.3,377.7 477.0,380.1 475.6,382.4 C469.2,392.3 459.4,398.9 448.3,399.8 C441.0,400.5 433.7,398.7 428.5,394.2 C420.0,386.9 417.7,374.2 422.2,362.7 C426.4,352.1 436.1,344.5 448.1,341.2 C451.2,340.4 454.3,339.8 457.5,340.2 C451.5,349.4 450.5,359.3 456.0,367.3 Z" fill="rgb(49,110,125)"/><path d="M451.2,370.5 C455.3,376.6 462.0,380.1 469.9,380.4 C464.6,388.4 457.1,393.9 448.8,395.0 C442.5,395.8 436.2,394.0 431.7,389.9 C425.1,383.7 423.6,373.6 427.0,364.3 C430.4,355.1 438.5,348.4 449.3,346.3 C446.1,354.9 446.5,363.6 451.2,370.5 Z" fill="rgb(139,188,199)"/></g><path d="M89.8,310 C80.3,320.1 73.1,331.9 67.9,344.5 C61.6,360.0 58.6,376.5 60,393 C61.2,408.3 66.5,423.2 73.1,437.7 C75.2,442.2 77.4,446.6 80,451 C73.9,449.6 68.7,446.7 64,443 C52.0,433.6 44.1,419.6 42.3,404.3 C41.4,396.4 42.1,388.3 43.5,380.2 C46.2,364.8 51.0,349.9 59.5,337.3 C67.1,325.9 77.4,316.5 89.8,310 Z" fill="rgb(49,110,125)"/><path d="M178.2,442.6 C181.5,445.4 181.6,451.9 185.1,454.4 C187.9,456.4 192.5,455.7 197,454 C198.8,453.2 200.6,452.3 202,451 C203.0,449.9 203.7,448.5 204,447 C205.3,447.7 206.5,448.8 207.4,450.0 C208.3,451.1 208.9,452.4 210.0,453.2 C211.7,454.6 214.4,454.9 217.0,454.4 C219.6,453.8 221.9,452.4 223.8,450.5 C225.1,449.2 226.2,447.7 227,446 C229.1,446.1 231.2,446.8 233,448 C235.5,449.6 237.4,452.0 240,453 C243.5,454.3 247.6,452.9 249.9,449.7 C252.3,446.4 252.4,441.6 251.1,436.6 C248.4,426.2 240.1,416.1 229.4,410.1 C216.5,402.8 201.1,400.9 185.1,401.3 C177.1,401.6 169.1,402.4 161.5,404.9 C150.8,408.4 141.5,415.1 134.7,424.0 C129.0,431.4 125.5,439.6 127.7,446.3 C130.2,453.8 138.4,457.8 147.2,454.7 C159.6,443.2 172.5,437.9 178.2,442.6 Z" fill="rgb(139,188,199)"/><path d="M163.9,418.5 C168.9,420.5 172.3,425.5 175.1,431.0 C177.0,434.8 178.5,438.8 179.3,443.1 C175.6,444.6 172.0,446.6 168.7,449.0 C166.0,451.0 163.5,453.3 160.5,454.9 C156.0,457.2 150.5,457.9 145.0,457.9 C139.1,457.9 133.3,457.1 129.8,453.7 C126.7,450.7 125.5,446.0 126.3,441.4 C127.3,435.8 131.2,430.9 136.1,426.8 C145.1,419.1 155.9,415.1 163.9,418.5 Z" fill="rgb(49,110,125)"/><path d="M1206.7,287 C1233.9,282.3 1263.6,311.6 1281.9,353 C1293.4,379.0 1298.4,406.8 1288.2,429 C1278.7,449.7 1257.2,463.4 1233.1,466 C1211.0,468.3 1188.8,461.0 1174.9,445 C1159.3,426.9 1156.1,399.6 1159.0,372 C1163.5,328.8 1180.6,292.5 1206.7,287 Z" fill="rgb(49,110,125)"/><path d="M1438.7,289.7 C1463.8,293.2 1481.7,326.9 1486.3,368.1 C1489.3,394.0 1486.0,419.7 1471.0,436.3 C1457.0,451.8 1434.4,457.9 1412.7,453.5 C1392.7,449.5 1375.2,437.0 1367.5,419.2 C1358.8,399.1 1363.5,374.3 1373.7,351.0 C1389.5,314.5 1414.4,287.4 1438.7,289.7 Z" fill="rgb(233,108,76)"/><path d="M1588.8,280.4 C1611.7,276.5 1636.6,301.1 1652.0,335.8 C1661.7,357.7 1665.9,381.0 1657.3,399.7 C1649.3,417.1 1631.3,428.6 1611.0,430.7 C1592.4,432.7 1573.8,426.6 1562.1,413.1 C1549.0,398.0 1546.3,375.0 1548.8,351.8 C1552.5,315.5 1566.9,285.0 1588.8,280.4 Z" fill="rgb(139,188,199)"/><path d="M1801.0,274.2 C1828.2,278.8 1846.6,316.2 1850.4,361.2 C1852.8,389.5 1848.4,417.5 1831.5,435.1 C1815.7,451.5 1791.0,457.5 1767.4,452.0 C1745.7,447.0 1727.1,432.8 1719.2,413.1 C1710.3,391.0 1716.3,364.1 1728.1,338.9 C1746.5,299.7 1774.5,270.9 1801.0,274.2 Z" fill="rgb(49,110,125)"/><path d="M1975.4,284.1 C1999.5,287.4 2016.6,319.7 2021.0,359.1 C2023.8,383.9 2020.7,408.5 2006.3,424.4 C1992.9,439.2 1971.4,445.0 1950.5,440.8 C1931.4,437.0 1914.7,425.0 1907.3,408.0 C1899.0,388.8 1903.5,365.0 1913.2,342.7 C1928.3,307.8 1952.2,281.8 1975.4,284.1 Z" fill="rgb(233,108,76)"/><path d="M1221,312 C1232.2,307.0 1248.0,319.9 1256,341 C1264.5,363.5 1260.3,385.3 1248,389 C1235.7,392.5 1220.2,376.2 1214,352 C1209.3,333.8 1211.5,316.5 1221,312 Z" fill="rgb(139,188,199)"/><path d="M1445,311 C1460.6,308.6 1474.2,329.8 1468,357 C1464.9,370.2 1456.9,381.0 1448,381 C1438.0,380.9 1430.1,368.0 1428,352 C1425.2,331.0 1433.1,313.0 1445,311 Z" fill="rgb(225,160,121)"/><path d="M1603,296 C1610.0,294.2 1619.3,303.9 1626,317 C1635.3,335.5 1636.1,353.7 1628,358 C1619.2,362.5 1604.6,350.4 1598,330 C1592.6,313.5 1594.8,298.3 1603,296 Z" fill="rgb(255,255,255)"/><path d="M1801,298 C1813.8,296.4 1824.8,313.0 1822,335 C1820.4,346.5 1814.7,356.6 1807,358 C1796.2,359.8 1786.0,346.7 1785,329 C1784.0,313.1 1791.0,299.4 1801,298 Z" fill="rgb(139,188,199)"/><path d="M1980,308 C1987.8,309.2 1994.1,321.5 1998,336 C2003.4,356.4 2002.7,375.3 1994,380 C1982.8,385.8 1965.8,371.0 1962,347 C1958.4,324.6 1968.1,306.5 1980,308 Z" fill="rgb(225,160,121)"/><path d="M1196,489 C1195.3,471.8 1190.2,455.5 1182,441 C1171.0,421.7 1154.6,405.7 1135,393 C1165.3,401.4 1192.5,415.8 1211,437 C1223.0,450.8 1231.3,467.3 1234,486 L1196,489 Z" fill="rgb(20,30,36)"/><path d="M1673,462 C1672.3,444.8 1667.2,428.5 1659,414 C1648.0,394.7 1631.6,378.7 1612,366 C1642.3,374.4 1669.5,388.8 1688,410 C1700.0,423.8 1708.3,440.3 1711,459 L1673,462 Z" fill="rgb(20,30,36)"/><path d="M1392.0,471.1 C1395.3,458.1 1395.2,444.9 1392.3,432.2 C1388.4,415.4 1379.7,399.8 1368,386 C1388.7,399.0 1405.7,415.8 1414.8,435.7 C1420.7,448.7 1423.2,462.9 1421.0,477.3 L1392.0,471.1 Z" fill="rgb(20,30,36)"/><path d="M1581.0,455.1 C1584.3,442.1 1584.2,428.9 1581.3,416.2 C1577.4,399.4 1568.7,383.8 1557,370 C1577.7,383.0 1594.7,399.8 1603.8,419.7 C1609.7,432.7 1612.2,446.9 1610.0,461.3 L1581.0,455.1 Z" fill="rgb(20,30,36)"/><path d="M1809.0,459.1 C1812.3,446.1 1812.2,432.9 1809.3,420.2 C1805.4,403.4 1796.7,387.8 1785,374 C1805.7,387.0 1822.7,403.8 1831.8,423.7 C1837.7,436.7 1840.2,450.9 1838.0,465.3 L1809.0,459.1 Z" fill="rgb(20,30,36)"/><path d="M1750.0,458.1 C1753.3,445.1 1753.2,431.9 1750.3,419.2 C1746.4,402.4 1737.7,386.8 1726,373 C1746.7,386.0 1763.7,402.8 1772.8,422.7 C1778.7,435.7 1781.2,449.9 1779.0,464.3 L1750.0,458.1 Z" fill="rgb(20,30,36)"/><path d="M1235.9,476.1 C1233.1,465.3 1233.2,454.2 1235.6,443.6 C1238.8,429.6 1246.1,416.5 1256,404.9 C1238.6,415.8 1224.3,429.9 1216.8,446.5 C1211.9,457.4 1209.8,469.2 1211.6,481.3 L1235.9,476.1 Z" fill="rgb(20,30,36)"/><path d="M1408.9,471.2 C1406.1,460.3 1406.2,449.3 1408.6,438.6 C1411.8,424.6 1419.1,411.5 1429,400 C1411.6,410.9 1397.3,424.9 1389.8,441.6 C1384.9,452.5 1382.8,464.3 1384.6,476.4 L1408.9,471.2 Z" fill="rgb(20,30,36)"/><path d="M1574.9,455.2 C1572.1,444.3 1572.2,433.3 1574.6,422.6 C1577.8,408.6 1585.1,395.5 1595,384 C1577.6,394.9 1563.3,408.9 1555.8,425.6 C1550.9,436.5 1548.8,448.3 1550.6,460.4 L1574.9,455.2 Z" fill="rgb(20,30,36)"/><path d="M1802.9,459.2 C1800.1,448.3 1800.2,437.3 1802.6,426.6 C1805.8,412.6 1813.1,399.5 1823,388 C1805.6,398.9 1791.3,412.9 1783.8,429.6 C1778.9,440.5 1776.8,452.3 1778.6,464.4 L1802.9,459.2 Z" fill="rgb(20,30,36)"/><path d="M1457.7,481.9 C1454.3,468.6 1454.4,454.9 1457.4,441.7 C1461.4,424.4 1470.4,408.3 1482.5,394 C1461.1,407.5 1443.5,424.8 1434.2,445.4 C1428.1,458.8 1425.5,473.4 1427.8,488.4 L1457.7,481.9 Z" fill="rgb(20,30,36)"/><path d="M1622.7,467.9 C1619.3,454.6 1619.4,440.9 1622.4,427.7 C1626.4,410.4 1635.4,394.3 1647.5,380 C1626.1,393.5 1608.5,410.8 1599.2,431.4 C1593.1,444.8 1590.5,459.4 1592.8,474.4 L1622.7,467.9 Z" fill="rgb(20,30,36)"/><path d="M1740.7,477.9 C1737.3,464.6 1737.4,450.9 1740.4,437.7 C1744.4,420.4 1753.4,404.3 1765.5,390 C1744.1,403.5 1726.5,420.8 1717.2,441.4 C1711.1,454.8 1708.5,469.4 1710.8,484.4 L1740.7,477.9 Z" fill="rgb(20,30,36)"/><path d="M1279.3,473.2 C1276.3,461.3 1276.4,449.2 1279.1,437.5 C1282.6,422.0 1290.6,407.7 1301.4,395 C1282.3,407.0 1266.7,422.4 1258.4,440.7 C1252.9,452.6 1250.7,465.7 1252.7,479 L1279.3,473.2 Z" fill="rgb(20,30,36)"/><path d="M1951,461 C1950.3,443.8 1945.2,427.5 1937,413 C1926.0,393.7 1909.6,377.7 1890,365 C1920.3,373.4 1947.5,387.8 1966,409 C1978.0,422.8 1986.3,439.3 1989,458 L1951,461 Z" fill="rgb(20,30,36)"/><path d="M1990.9,448.1 C1988.1,437.3 1988.2,426.2 1990.6,415.6 C1993.8,401.6 2001.1,388.5 2011,376.9 C1993.6,387.8 1979.3,401.9 1971.8,418.5 C1966.9,429.4 1964.8,441.2 1966.6,453.3 L1990.9,448.1 Z" fill="rgb(20,30,36)"/><path d="M1938.3,451.2 C1935.3,439.3 1935.4,427.2 1938.1,415.5 C1941.6,400.0 1949.6,385.7 1960.4,373 C1941.3,385.0 1925.7,400.4 1917.4,418.7 C1911.9,430.6 1909.7,443.7 1911.7,457 L1938.3,451.2 Z" fill="rgb(20,30,36)"/><path d="M123,283 C131.6,303.4 147.1,317.9 167,324 C188.6,330.6 211.1,327.3 225,313 C234.7,302.9 238.5,288.6 234,274 C228.6,273.0 223.9,270.5 220,267 C213.8,261.5 209.6,253.7 207,245 C215.8,253.5 226.6,257.9 238,257 C248.7,256.0 258.2,250.3 265,241 C264.4,248.7 262.1,256.0 258,262 C254.7,266.6 250.3,270.5 245,273 C241.7,291.5 246.7,308.4 259,317 C267.4,322.9 278.8,323.9 290,322 C301.7,319.9 312.7,314.4 322,306 C318.1,313.0 312.5,318.7 306,323 C297.0,328.7 286.5,331.5 276,331 C262.5,330.2 249.8,323.9 239,314 C220.1,327.9 199.2,336.0 179,334 C165.0,332.5 152.1,326.5 142,317 C132.5,308.0 125.6,296.4 123,283 Z" fill="rgb(20,30,36)"/></g><g><path d="M399,41.7 L399,205.1 L466.9,205.1 C491.3,205.1 513.2,196.1 527.9,179.6 C541.6,164.3 548.2,143.5 548.3,122.1 C548.5,100.4 542.0,79.4 527.9,64.6 C513.0,49.0 490.6,41.7 465.6,41.7 L399,41.7 Z M444.9,80.0 L465.3,80.0 C487.3,80.0 501.8,98.7 502.4,122.1 C503.0,146.8 488.2,166.8 465.3,166.8 L444.9,166.8 L444.9,80.0 Z M602.0,41.7 L548.3,205.1 L598.1,205.1 L605.8,179.6 L667.1,179.6 L674.8,205.1 L723.3,205.1 L668.4,41.7 L602.0,41.7 Z M633.9,77.4 L637.7,77.4 L656.9,146.4 L616.0,146.4 L633.9,77.4 Z M737.3,41.7 L737.3,205.1 L783.3,205.1 L783.3,156.6 L802.5,156.6 L826.7,205.1 L877.1,205.1 L844.6,146.4 C851.0,141.0 856.0,134.4 859.9,127.2 C866.8,114.4 870.0,100.2 868.1,86.3 C866.7,76.4 862.8,67.0 856.1,59.5 C845.4,47.7 828.6,41.7 810.1,41.7 L737.3,41.7 Z M783.3,76.1 L805.0,76.1 C811.7,76.1 817.6,79.0 821.6,83.8 C825.4,88.4 827.1,94.4 826.7,100.4 C826.2,108.4 822.0,115.5 815.2,119.5 C810.5,122.3 804.8,123.4 798.6,123.4 L783.3,123.4 L783.3,76.1 Z M895.7,41.7 L895.7,205.1 L938.4,205.1 L938.4,140.0 L955.0,140.0 L993.3,205.1 L1044.4,205.1 L990.8,119.5 L1039.2,41.7 L992.1,41.7 L952.5,104.2 L938.4,104.2 L938.4,41.7 L895.7,41.7 Z M1277.5,41.7 L1277.5,205.1 L1384.7,205.1 L1384.7,166.8 L1320.9,166.8 L1320.9,142.5 L1378.3,142.5 L1378.3,104.2 L1320.9,104.2 L1320.9,80.0 L1380.9,80.0 L1380.9,41.7 L1277.5,41.7 Z M1894.2,41.7 L1894.2,205.1 L1940.2,205.1 L1940.2,156.6 L1959.3,156.6 L1983.6,205.1 L2034,205.1 L2001.5,146.4 C2007.9,141.0 2012.9,134.4 2016.8,127.2 C2023.7,114.4 2026.9,100.2 2025.0,86.3 C2023.6,76.4 2019.7,67.0 2013.0,59.5 C2002.3,47.7 1985.5,41.7 1967.0,41.7 L1894.2,41.7 Z M1940.2,76.1 L1961.9,76.1 C1968.6,76.1 1974.5,79.0 1978.5,83.8 C1982.3,88.4 1984.0,94.4 1983.6,100.4 C1983.0,108.4 1978.8,115.5 1972.1,119.5 C1967.4,122.3 1961.7,123.4 1955.5,123.4 L1940.2,123.4 L1940.2,76.1 Z M1120.4,41.7 L1120.4,205.1 L1166.4,205.1 L1166.4,156.6 L1185.5,156.6 L1209.8,205.1 L1260.1,205.1 L1227.7,146.4 C1234.1,141.0 1239.1,134.4 1243.0,127.2 C1249.9,114.4 1253.1,100.2 1251.2,86.3 C1249.8,76.4 1245.9,67.0 1239.2,59.5 C1228.5,47.7 1211.7,41.7 1193.2,41.7 L1120.4,41.7 Z M1166.4,76.1 L1188.1,76.1 C1194.8,76.1 1200.7,79.0 1204.7,83.8 C1208.5,88.4 1210.2,94.4 1209.8,100.4 C1209.2,108.4 1205.0,115.5 1198.3,119.5 C1193.6,122.3 1187.9,123.4 1181.7,123.4 L1166.4,123.4 L1166.4,76.1 Z M1448.6,41.7 L1394.9,205.1 L1444.7,205.1 L1452.4,179.6 L1513.7,179.6 L1521.4,205.1 L1569.9,205.1 L1515.0,41.7 L1448.6,41.7 Z M1480.5,77.4 L1484.3,77.4 L1503.5,146.4 L1462.6,146.4 L1480.5,77.4 Z M1586.5,41.7 L1586.5,205.1 L1654.4,205.1 C1678.9,205.1 1700.7,196.1 1715.5,179.6 C1729.1,164.3 1735.7,143.5 1735.9,122.1 C1736.0,100.4 1729.5,79.4 1715.5,64.6 C1700.5,49.0 1678.2,41.7 1653.1,41.7 L1586.5,41.7 Z M1632.5,80.0 L1652.9,80.0 C1674.9,80.0 1689.3,98.7 1689.9,122.1 C1690.6,146.8 1675.8,166.8 1652.9,166.8 L1632.5,166.8 L1632.5,80.0 Z M1760.1,41.7 L1760.1,205.1 L1867.4,205.1 L1867.4,166.8 L1803.6,166.8 L1803.6,142.5 L1861.0,142.5 L1861.0,104.2 L1803.6,104.2 L1803.6,80.0 L1863.6,80.0 L1863.6,41.7 L1760.1,41.7 Z" fill="rgb(233,108,76)"/></g><g><path d="M634,273.7 L677.6,273.7 C694.8,273.7 710.2,275.3 720.8,283.7 C729.9,290.8 734.8,302.1 734.7,314.0 C734.5,322.4 731.7,330.7 726.2,337.0 C720.3,343.9 711.5,348.1 701.6,348.8 L701.6,349.4 C712.8,349.3 722.9,353.7 729.6,361.4 C735.6,368.3 738.5,377.6 738.6,387.0 C738.7,400.2 733.6,412.6 724.0,420.9 C713.7,429.7 699.0,432.7 682.7,432.7 L634,432.7 L634,273.7 Z M645.0,344.5 L680.1,344.5 C693.1,344.5 704.8,343.4 712.6,337.1 C719.4,331.6 723.0,322.8 722.8,313.7 C722.6,304.6 718.5,296.0 711.3,290.7 C702.9,284.4 690.7,283.5 677.1,283.5 L645.0,283.5 L645.0,344.5 Z M645.0,354.3 L645.0,422.9 L682.5,422.9 C709.0,422.9 727.7,406.5 726.6,387.0 C725.5,368.6 706.4,354.3 680.1,354.3 L645.0,354.3 Z M781.6,432.7 L770.9,432.7 L770.9,263.5 L781.6,263.5 L781.6,432.7 Z M919.0,373.4 C919.1,390.5 915.3,407.1 905.0,418.6 C895.5,429.2 881.3,434.8 866.2,434.9 C856.5,434.9 846.9,432.5 838.8,427.4 C830.9,422.3 824.7,414.6 820.7,405.8 C816.1,395.9 814.4,384.7 814.4,373.4 C814.4,356.3 818.1,339.8 828.4,328.4 C837.9,317.8 852.1,312.1 866.9,312.2 C881.6,312.3 895.7,318.0 905.1,328.6 C915.3,340.1 919.0,356.5 919.0,373.4 Z M825.7,373.4 C825.7,387.8 828.2,401.7 836.4,411.4 C843.7,420.2 855.0,425.1 866.7,425.1 C878.4,425.1 889.6,420.2 897.0,411.4 C905.2,401.7 907.7,387.8 907.7,373.4 C907.7,359.1 905.1,345.2 896.9,335.5 C889.5,326.8 878.2,322.0 866.5,322.0 C854.8,322.0 843.6,326.8 836.3,335.4 C828.1,345.1 825.6,359.1 825.7,373.4 Z M1044,314.5 L1044,322.0 L1019.5,323.5 C1026.0,331.3 1029.3,340.7 1029.3,350.3 C1029.3,360.9 1025.4,371.0 1017.9,378.0 C1010.1,385.1 999.1,388.0 987.4,388.6 C983.6,388.7 979.8,388.6 976.1,387.9 C972.1,389.8 968.8,392.4 966.3,395.8 C964.2,398.8 962.8,402.1 962.9,405.5 C963.1,408.8 964.6,411.9 967.2,413.8 C970.7,416.3 975.9,416.4 981.6,416.4 L1002.3,416.4 C1014.0,416.4 1024.5,418.1 1031.8,424.2 C1038.4,429.7 1042.0,438.3 1042.0,447.2 C1042.0,458.5 1036.2,469.1 1026.8,476.0 C1015.5,484.5 999.8,486.4 983.6,486.2 C970.6,486.0 958.1,484.4 949.1,477.6 C941.5,471.9 936.9,463.1 936.8,453.7 C936.7,446.4 939.5,439.1 944.4,433.5 C949.5,427.6 956.6,423.7 964.9,422.5 C961.4,421.2 958.4,418.9 956.3,416.0 C954.4,413.2 953.3,409.8 953.1,406.4 C953.0,402.5 954.0,398.7 956.1,395.3 C958.8,391.0 963.1,387.7 968.3,385.5 C961.4,382.8 955.9,378.1 952.2,372.2 C948.3,366.0 946.4,358.7 946.4,351.4 C946.4,340.4 950.2,330.0 957.7,322.9 C965.4,315.6 976.4,312.6 988.1,312.2 C994.1,312.0 1000.2,312.7 1006.1,314.5 L1044,314.5 Z M948.2,452.7 C948.6,459.0 951.3,465.0 956.1,469.2 C963.0,475.1 973.6,476.8 984.5,477.1 C999.6,477.5 1014.2,475.3 1022.9,467.2 C1028.5,462.0 1031.3,454.8 1031.0,447.4 C1030.7,441.3 1028.3,435.5 1023.7,431.9 C1018.1,427.6 1009.6,427.2 1000.1,427.2 L980.8,427.2 C969.2,427.2 958.8,430.4 953.1,437.2 C949.5,441.6 947.9,447.1 948.2,452.7 Z M957.3,351.4 C957.4,359.5 960.1,367.4 965.6,372.6 C971.2,377.9 979.4,380.1 987.8,380.2 C996.5,380.3 1004.9,378.1 1010.5,372.7 C1016.0,367.4 1018.3,359.3 1018.4,350.9 C1018.5,342.2 1016.0,333.8 1010.3,328.3 C1004.6,322.8 996.3,320.5 987.6,320.7 C979.1,320.8 971.0,323.3 965.4,328.8 C959.6,334.4 957.0,342.8 957.3,351.4 Z" fill="rgb(233,108,76)"/></g></svg>