<svg xmlns="http://www.w3.org/2000/svg" viewBox="0 0 512 384">
  <defs>
    <linearGradient id="a" x1="151.957" x2="150.984" y1="90.936" y2="170.714" gradientUnits="userSpaceOnUse">
      <stop offset="0%" stop-color="#141E24"/>
      <stop offset="100%" stop-color="#E96C4C"/>
    </linearGradient>
    <linearGradient id="b" x1="271.625" x2="272.598" y1="95.8" y2="170.714" gradientUnits="userSpaceOnUse">
      <stop offset="0%" stop-color="#141E24"/>
      <stop offset="100%" stop-color="#E96C4C"/>
    </linearGradient>
  </defs>
  <path fill="#141E24" d="M185.898 195.094c48.18-1.924 94.093 7.851 118.135 38.392 21.359 27.132 23.55 65.709 5.716 96.215C291.62 360.71 254.619 378 210.255 378H74.982c-14.388 0-22.815-16.622-28.432-36.361-8.377-29.437-8.825-60.168 5.106-84.87 22.042-39.087 75.418-59.326 134.242-61.675z"/>
  <path fill="#141E24" d="M118.878 256.33c4.033 9.522 3.55 21.526.795 33.206-1.816 7.7-4.602 15.107-8.573 21.91-3.534 6.056-8.032 11.478-13.337 16.195 4.05-2.63 8.578-4.122 13.337-4.763 7.62-1.025 15.83.264 23.816 2.858l7.686 33.05c-10.007 4.265-20.138 8.121-30.484 11.432-16.524 5.287-32.92 9.72-48.136 6.782-20.13-3.888-36.244-18.847-42.394-38.946-4.583-14.978-2.75-31.73 2.918-47.672 3.404-9.573 8.213-18.552 14.594-26.269 10.532-12.737 24.993-21.413 40.862-24.323 9.83-1.802 19.835-1.259 27.485 3.203 5.147 3.002 9.023 7.651 11.431 13.337z"/>
  <path fill="#2F7485" d="M65.368 252.438a132.743 132.743 0 00-18.993 27.242c-7.009 13.35-11.928 27.5-11.675 41.834.213 12.01 4.051 23.786 9.625 34.926 1.354 2.707 2.803 5.368 4.504 7.882-3.415-1.209-6.296-3.236-9.008-5.63-8.559-7.553-14.493-19.18-15.823-31.34-.703-6.433-.25-12.988.973-19.458 2.343-12.405 7.134-24.09 14.594-34.052 6.727-8.983 15.473-16.27 25.803-21.404z"/>
  <path fill="#8BBCC7" d="M164.512 345.45c2.69 2.195 2.852 7.375 5.638 9.529 2.556 1.976 6.531 1.545 9.604-.956 2.076-1.69 3.39-4.248 3.859-7.087.262-1.588.25-3.222-.183-4.816 1.437 1.421 2.532 3.137 3.35 4.946 1.19 2.636 1.671 5.529 3.453 6.957 1.43 1.146 3.546 1.346 5.638.956 2.195-.41 4.212-1.425 5.557-3.147 2.15-2.75 2.397-6.95 1.126-11.26 2.49 2.439 4.847 5.07 6.757 7.882 1.2 1.768 2.162 3.59 3.707 4.62 2.968 1.976 7.205 1.233 9.501-1.89 1.94-2.64 2.028-6.485.962-10.587-2.185-8.403-8.884-16.523-17.548-21.42-10.417-5.888-22.888-7.448-35.79-7.07-6.523.192-12.988.859-19.052 2.858-8.682 2.864-16.237 8.238-21.729 15.472-4.536 5.976-7.437 12.627-5.63 18.017 2.028 6.046 8.667 9.291 15.764 6.756 9.942-9.278 20.388-13.539 25.016-9.76z"/>
  <path fill="#2F7485" d="M153.009 325.933c4.033 1.681 6.81 5.683 9.008 10.134 1.529 3.094 2.738 6.347 3.448 9.767-3.007 1.314-5.872 2.95-8.574 4.763-2.276 1.527-4.395 3.257-6.668 4.763-4.89 3.239-10.223 5.476-15.24 4.807-3.782-.505-7.184-2.64-9.527-5.716-2.203-2.893-3.344-6.473-2.86-9.954.624-4.476 3.915-8.462 7.892-11.808 7.382-6.209 16.045-9.456 22.521-6.756z"/>
  <path fill="#141E24" d="M40.073 243.682l43.78-109.939c1.139-11.753 2.671-23.434 4.865-35.024 2.955-15.613 6.618-30.958 13.62-44.754 7.872-15.508 19.51-28.8 34.053-37.943C151.347 6.619 168.94 1.887 186.98.455c24.16-1.917 48.125 2.086 67.132 14.594 15.353 10.104 26.873 25.355 34.051 42.808 8.85 21.518 10.642 45.609 6.81 70.049l33.08 107.02-21.436 18.228-40.01-4.957c-8.15 12.556-17.704 18.835-29.532 18.835H166.58c-13.064 0-24.255-5.948-34.295-17.844l-55.252 5.948-36.961-11.454z"/>
  <path fill="#2F7485" d="M141.398 18.664c-7.996 11.984-13.999 25.023-18.1 38.661-4.709 15.656-6.69 32.06-7.621 48.574a309.023 309.023 0 000 34.695L61.792 247.206l-15.242-5.948 42.453-105.62c.752-12.352 2.305-24.582 4.763-36.678 3.822-18.802 9.06-37.196 19.053-52.54 7.307-11.22 16.852-20.792 28.579-27.756zM215.703 7.76c-18.112-.649-35.886 5.802-49.537 19.826-26.04 26.752-33.283 77.051-25.721 131.843l34.295-3.965c8.023-15.93 21.211-25.823 37.567-26.223 15.875-.389 29.196 8.33 37.69 23.249l43.536-14.793-2.572-17.92a117.952 117.952 0 00-1.906-41.635c-3.86-17.053-10.917-33.086-22.295-45.581C253.33 17.811 235 8.451 215.703 7.76zM226.871 214.495l-1.02 30.141c-.099 2.892-2.642 4.768-5.814 4.957-3.258.194-5.901-1.38-5.814-3.965l1.021-30.142c.117-3.444 2.639-5.77 5.814-5.948 3.254-.182 5.918 1.848 5.813 4.957zM199.741 214.495l-1.02 30.141c-.098 2.892-2.642 4.768-5.814 4.957-3.258.194-5.901-1.38-5.814-3.965l1.021-30.142c.117-3.444 2.639-5.77 5.814-5.948 3.254-.182 5.918 1.848 5.813 4.957zM174.55 228.192l-.656 12.111c-.173 3.212-2.864 5.287-6.18 5.318-3.102.029-5.59-1.685-5.447-4.326l.655-12.111c.186-3.444 2.686-5.749 5.814-5.948 3.299-.21 5.981 1.848 5.813 4.957zM252.063 226.21l-.655 12.11c-.173 3.212-2.864 5.287-6.18 5.318-3.102.03-5.59-1.685-5.447-4.326l.655-12.11c.186-3.445 2.686-5.75 5.814-5.949 3.299-.21 5.981 1.849 5.813 4.957z"/>
  <g>
    <path fill="#E96C4C" d="M196.718 113.978c3.821-2.13 8.007-3.228 12.312-3.518 6.367-.43 12.963.978 19.309 3.5 12.269-16.463 31.159-22.754 49.536-20.005 27.792 4.156 47.966 26.044 49.205 52.436 1.315 28.006-18.536 52.449-47.672 57.402-19.021 3.233-38.96-3.465-51.564-18.486-9.752-11.62-14.01-27.185-9.906-43.204a5.601 5.601 0 00-3.631-1.741c-1.815-.155-3.65.525-5.277 1.759 2.967 19.48-4.173 37.26-17.59 49.25-16.881 15.087-40.65 19.181-61.562 10.553-18.486-7.627-32.042-24.252-35.178-43.973-2.952-18.558 3.815-37.617 17.59-51.009 13.605-13.228 32.603-19.317 51.008-15.83 13.52 2.56 25.695 10.271 33.42 22.866z" opacity=".2"/>
    <path fill="#E96C4C" d="M194.959 119.254c4.8-3.253 10.244-4.994 15.83-5.276 6.643-.336 13.286 1.401 19.455 4.745 12.208-17.191 31.566-23.833 50.137-20.004 23.255 4.794 40.14 23.976 41.835 46.7 2.027 27.173-16.793 50.722-44.754 54.482-16.385 2.203-33.49-3.807-44.754-16.54-10.512-11.883-14.68-28.333-10.006-45.069a13.773 13.773 0 00-8.395-3.207c-3.689-.129-7.325 1.174-10.554 3.518 3.87 19.271-2.555 37.273-15.83 49.25-14.893 13.436-35.873 17.583-54.527 10.553-17.407-6.56-30.243-21.976-33.42-40.455-2.975-17.312 3.017-35.173 15.831-47.491 12.136-11.666 29.122-16.973 45.732-14.072 13.55 2.367 25.738 10.181 33.42 22.866z" opacity=".2"/>
    <path fill="#FFF" d="M275.142 103.207c24.215 1.825 43.15 22.69 42.173 47.674-.907 23.213-19.147 42.183-42.173 44.007-25.697 2.036-47.524-17.16-49.508-42.173-2.269-28.613 20.917-51.825 49.508-49.508zM152.185 100.623a47.304 47.304 0 0147.491 49.25c-.945 25.43-21.84 45.733-47.49 45.733-25.65 0-46.546-20.303-47.492-45.733a47.304 47.304 0 0147.491-49.25z"/>
    <path fill="#FFF" d="M212.164 124.48c8.647-.186 17.068 2.517 24.505 7.725l-3.518 10.554c-5.582-4.826-12.227-7.512-19.228-7.726-7.174-.219-14.129 2.172-20.155 6.774l-5.276-8.794c7.05-5.402 15.196-8.351 23.672-8.533z"/>
    <path fill="url(#a)" d="M152.185 111.177c20.226.005 36.916 14.717 38.697 33.42 2.238 23.51-17.696 42.631-42.215 40.455-21.076-1.871-37.14-19.79-35.178-40.456 1.79-18.855 18.54-33.448 38.696-33.42z"/>
    <path fill="url(#b)" d="M275.142 114.209c19.175 1.753 33.993 17.788 33.005 36.672-.902 17.255-15.169 31.297-33.005 33.006-21.344 2.045-39.305-13.201-40.34-33.006-1.13-21.623 17.61-38.923 40.34-36.672z"/>
    <path fill="#141E24" d="M169.332 131.121c7.39-.249 14.32 2.863 19.604 8.794l-11.669-2.674c-.05 9.367-4.789 16.236-10.946 15.89-5.517-.312-9.419-6.333-8.856-14.259l-8.984 3.833c5.438-7.051 12.724-11.31 20.851-11.584zM253.36 130.025c7.203-.064 13.831 3.236 18.645 9.322l-10.788-3.67c.526 8.76-3.604 15.44-9.482 15.454-5.396.014-9.484-5.649-9.285-13.37l-10.063 3.916c5.453-7.234 12.803-11.579 20.974-11.652z" opacity=".1"/>
    <path fill="#141E24" d="M122.606 171.666l12.386-32.655c1.31-3.45 3.696-5.63 6.757-5.63h45.041c-5.38-10.916-14.91-17.856-25.899-20.268-15.027-3.3-30.187 1.677-39.411 13.512A35.977 35.977 0 00113.982 151c.485 7.497 3.333 14.763 8.624 20.666zM243.84 171.78l11.97-29.468c1.46-3.596 3.91-5.879 7.043-5.87l42.027.123c-4.42-11.391-13.709-18.655-24.651-21.13-16.774-3.792-33.126 3.228-41.085 17.608-6.745 12.189-5.41 27.007 4.695 38.738z" opacity=".5"/>
  </g>
  <g>
    <path fill="#8BBCC7" d="M202.781 359.739l58.11-140.037c11.134-26.831 35.395-41.916 65.732-41.916h156.454c14.652 0 20.15 18.139 12.384 37.153l-55.253 135.273c-2.439 5.972-7.348 9.527-13.5 9.527H202.78z" opacity=".2"/>
    <path fill="#8BBCC7" d="M214.05 359.739l58.11-140.037c9.448-22.77 28.535-36.2 52.394-36.2h156.454c14.371 0 21.014 15.372 14.453 31.437l-55.253 135.273c-2.439 5.972-7.348 9.527-13.5 9.527H214.049z" opacity=".4"/>
    <path fill="#FFF" d="M225.48 359.739l58.111-140.037c7.212-17.379 21.79-27.626 40.01-27.626h156.454c12.73 0 20.21 11.098 15.406 22.863l-55.253 135.273c-2.439 5.972-7.348 9.527-13.5 9.527H225.48z"/>
    <path fill="#141E24" d="M287.15 237.28c9.55-22.341 21.887-38.057 39.058-38.104l155.752-.432c11.607-.032 18.119 10.663 13.5 21.91l-59.062 143.848c-5.405 13.162-19.765 19.019-38.27 19.052l-237.678.432c-7.57.014-12.681-5.481-13.337-12.384-.841-8.868 5.597-16.195 15.243-16.195h74.305l50.49-118.126z"/>
    <path fill="#2F7485" d="M388.184 283.995c4.057 6.396 11.15 7.8 18.764 5.016-.508 2.124-1.48 4.06-2.606 5.902-6.095 9.973-15.19 16.925-25.575 18.168-6.338.759-12.497-.533-16-4.568-5.096-5.87-3.832-16.13 1.15-25.678 4.569-8.754 12.613-15.702 20.747-18.299 2.538-.81 5.037-1.182 7.635-.83-6.257 6.09-8.394 13.545-4.115 20.29z"/>
    <path fill="#8BBCC7" d="M384.24 286.544c3.214 5.256 8.915 7.521 15.535 6.733-5.345 8.49-12.55 14.535-20.55 15.851-5.588.92-11.012-.44-13.835-4.103-3.847-4.99-2.133-13.263 2.385-20.885 4.046-6.825 10.158-12.21 17.885-15.516-4.005 5.904-4.805 12.385-1.42 17.92z"/>
  </g>
</svg>
