<svg viewBox="0 0 512 512" xmlns="http://www.w3.org/2000/svg"><defs><linearGradient x1="149.3738" y1="148.5701" x2="148.4455" y2="224.6907" id="gradient1543" gradientUnits="userSpaceOnUse"><stop offset="0%" stop-color="rgb(20,30,36)"/><stop offset="100%" stop-color="rgb(233,108,76)"/></linearGradient><linearGradient x1="269.2113" y1="153.2718" x2="270.1425" y2="224.9721" id="gradient1544" gradientUnits="userSpaceOnUse"><stop offset="0%" stop-color="rgb(20,30,36)"/><stop offset="100%" stop-color="rgb(233,108,76)"/></linearGradient></defs><g><path d="M186.8351,263.8178 C232.5531,265.9041 275.2793,280.1986 296.9896,310.9985 C312.1017,332.4377 315.9267,359.2854 305.7669,381.7012 C291.6928,412.7534 253.1298,430 206.2735,430 L71,430 C48.0301,430 29.7801,413.4834 22.8654,390.078 C18.7407,376.1164 19.3096,360.7271 24.0638,346.3481 C28.6161,332.5799 36.2331,320.3569 47.5968,309.4145 C78.3127,279.8372 132.4068,261.3339 186.8351,263.8178 Z" fill="rgb(20,30,36)" opacity="1"/></g><g><path d="M58.4051,303.113 C51.2304,311.6372 45.3422,321.0007 40.7369,331.0169 C34.4987,344.5848 30.5423,358.9671 30.7184,373.5145 C30.8684,385.9056 34.0202,398.1317 39.0407,409.7426 C40.6411,413.4439 42.4268,417.0665 44.5867,420.4901 C40.7256,418.2614 37.4649,415.2759 34.5365,411.9947 C26.3395,402.81 21.1871,391.466 20.0164,379.352 C19.3945,372.9162 19.9042,366.3608 20.9893,359.8938 C23.084,347.41 27.059,335.4307 33.9265,325.1795 C40.067,316.0137 48.3642,308.4422 58.4051,303.113 Z" fill="rgb(49,110,125)" opacity="1"/><path d="M160.5305,397.4492 C163.2203,399.6448 163.3823,404.8251 166.1681,406.9788 C168.7243,408.9549 172.6992,408.5238 175.7726,406.0229 C177.8483,404.3339 179.1618,401.7751 179.6308,398.936 C179.8932,397.3478 179.8812,395.7136 179.4483,394.1202 C180.8847,395.541 181.9798,397.2567 182.7973,399.0658 C183.9887,401.7022 184.4696,404.5949 186.2515,406.0229 C187.6817,407.1689 189.7973,407.3695 191.8891,406.9788 C194.0843,406.5687 196.1015,405.5535 197.4466,403.8318 C199.5955,401.0814 199.8432,396.8811 198.5726,392.5715 C201.063,395.011 203.4188,397.6416 205.3288,400.4537 C206.5298,402.2218 207.4912,404.0443 209.0364,405.0735 C212.0043,407.0501 216.2412,406.3071 218.5372,403.1833 C220.4768,400.5444 220.5655,396.6991 219.4989,392.5971 C217.3138,384.1936 210.6153,376.0741 201.9507,371.1768 C191.5338,365.2892 179.0635,363.7289 166.1619,364.1076 C159.6387,364.2991 153.1732,364.9658 147.1093,366.9655 C138.4275,369.8286 130.872,375.2027 125.3804,382.4372 C120.8442,388.4131 117.9429,395.0644 119.7503,400.4537 C121.7779,406.4998 128.4167,409.7451 135.5147,407.2099 C145.4562,397.9324 155.9025,393.6713 160.5305,397.4492 Z" fill="rgb(139,188,199)" opacity="1"/><path d="M149.0272,377.9331 C153.0599,379.6175 155.8365,383.6162 158.0354,388.0674 C159.5639,391.1613 160.7729,394.4139 161.4829,397.8337 C158.4269,399.0581 155.5484,400.6958 152.9092,402.5969 C150.676,404.2054 148.6529,406.0888 146.2408,407.36 C142.6111,409.2729 138.2182,409.8224 133.776,409.8182 C128.9668,409.8135 124.3205,409.1707 121.4743,406.4508 C118.946,404.0348 117.9702,400.2222 118.6148,396.4966 C119.395,391.9866 122.5951,388.017 126.5065,384.6893 C133.8542,378.4378 142.5439,375.2251 149.0272,377.9331 Z" fill="rgb(49,110,125)" opacity="1"/></g><g><path d="M61.0823,299.2955 L76.4669,185.7434 C79.4998,163.3576 82.3735,141.5742 90.4522,121.7747 C97.8198,103.7182 109.2276,87.7029 124.748,77.2401 C142.5149,65.2628 165.0519,61.1444 188.0558,60.7614 C211.6398,60.3688 234.8713,64.0225 252.295,75.9425 C264.4878,84.284 273.437,96.4372 279.8915,110.1497 C289.8008,131.2016 293.2128,155.2781 290.9928,179.906 L279.9411,302.5062 C249.0398,307.701 217.8517,310.0044 186.5735,310.0748 C144.7332,310.169 102.7451,306.1548 61.0823,299.2955 Z" fill="rgb(20,30,36)" opacity="1"/><path d="M133.306,72.4959 C125.6053,82.5381 119.7079,93.6584 114.9169,105.801 C106.3682,127.4673 101.9974,152.6779 94.8892,177.3003 L62.2824,290.2496 L77.3827,175.0785 C81.2883,145.2905 88.9728,116.9693 103.8866,96.8271 C111.775,86.173 121.4372,77.8647 133.306,72.4959 Z" fill="rgb(49,110,125)" opacity="1"/><path d="M210.776,62.5949 C191.4875,61.894 172.5054,67.7284 158.6865,80.1857 C145.455,92.1134 137.8633,109.7187 132.1431,128.2647 C125.5727,149.5671 122.2532,171.6219 121.0103,194.1661 L168.6445,202.7557 C178.6068,189.109 192.6497,181.3759 208.3255,181.2409 C225.1936,181.0956 240.3108,189.7187 251.4131,204.4899 L290.751,190.2971 C293.023,170.1972 292.3118,150.2916 287.5729,131.1083 C283.4218,114.3042 276.6,98.4318 265.2989,86.451 C251.3188,71.6299 231.5392,63.3494 210.776,62.5949 Z" fill="rgb(49,110,125)" opacity="1"/><path d="M220.6147,281.6661 L220.1926,289.4824 C220.0152,292.7664 217.1493,294.8748 213.6003,295.1027 C209.8602,295.343 206.8501,293.532 207.0081,290.6064 L207.4303,282.7902 C207.6412,278.8851 210.4758,276.2715 214.0225,276.0457 C217.7635,275.8076 220.805,278.1416 220.6147,281.6661 Z" fill="rgb(49,110,125)" opacity="1"/><path d="M197.8578,281.864 L197.4357,289.6802 C197.2583,292.9643 194.3925,295.0727 190.8435,295.3006 C187.1034,295.5409 184.0933,293.7299 184.2513,290.8043 L184.6734,282.9881 C184.8843,279.083 187.7189,276.4694 191.2656,276.2436 C195.0067,276.0055 198.0482,278.3395 197.8578,281.864 Z" fill="rgb(49,110,125)" opacity="1"/><path d="M175.0821,281.0806 L174.6884,287.0188 C174.4468,290.6614 171.4087,293.0006 167.6811,293.0484 C164.1347,293.0938 161.3056,291.1343 161.5039,288.1428 L161.8977,282.2046 C162.1566,278.2999 164.9754,275.7004 168.4899,275.4602 C172.2619,275.2023 175.3158,277.5563 175.0821,281.0806 Z" fill="rgb(49,110,125)" opacity="1"/><path d="M242.1463,281.0046 L241.7526,286.9428 C241.511,290.5854 238.4729,292.9246 234.7453,292.9724 C231.1989,293.0179 228.3698,291.0583 228.5682,288.0669 L228.9619,282.1287 C229.2208,278.2239 232.0396,275.6245 235.5541,275.3842 C239.3262,275.1264 242.38,277.4804 242.1463,281.0046 Z" fill="rgb(49,110,125)" opacity="1"/></g><g><path d="M188.4925,168.79 C194.2011,166.4998 200.1939,165.3381 206.2294,165.2721 C212.7696,165.2007 219.2807,166.4169 225.5378,168.7723 C239.2212,151.6146 259.5541,145.2927 279.1429,148.7671 C306.7921,153.6711 326.9444,175.2794 328.348,201.2034 C329.8628,229.1791 309.9414,253.6578 280.6756,258.605 C261.6489,261.8213 241.7126,255.1311 229.1115,240.1197 C219.3572,228.4997 215.0968,212.9335 219.2059,196.9152 C216.7537,195.8289 214.148,195.2824 211.5062,195.1739 C207.9337,195.0272 204.3131,195.7011 200.805,196.9329 C203.7717,216.4132 196.632,234.1928 183.2157,246.1829 C166.3337,261.2702 142.5644,265.3643 121.6532,256.7364 C103.1665,249.1089 89.6111,232.4839 86.4746,212.7632 C83.523,194.2051 90.2898,175.1461 104.0639,161.7543 C117.6695,148.5264 136.668,142.4373 155.0728,145.9239 C168.5924,148.485 180.7674,156.1954 188.4925,168.79 Z" fill="rgb(233,108,76)" opacity="0.2"/><path d="M186.7336,174.0668 C193.4551,170.7292 200.6731,168.9781 207.9884,168.79 C215.9859,168.5843 223.9511,170.2492 231.5113,173.5354 C243.7195,156.3442 263.0775,149.7024 281.6485,153.531 C304.9033,158.3251 321.7888,177.5077 323.4835,200.2305 C325.5101,227.4039 306.69,250.9535 278.7298,254.7134 C262.345,256.9166 245.2396,250.9059 233.976,238.1739 C223.4631,226.2904 219.295,209.8403 223.9691,193.1047 C220.0616,191.0462 215.8119,190.0171 211.5062,189.8971 C206.0943,189.7464 200.6716,191.0468 195.5282,193.415 C199.3985,212.6863 192.9724,230.6885 179.6979,242.665 C164.8048,256.1018 143.8252,260.2484 125.171,253.2186 C107.7639,246.6587 94.9279,231.2424 91.7514,212.7632 C88.7755,195.4509 94.7677,177.5898 107.5818,165.2721 C119.7183,153.6058 136.7037,148.2992 153.3139,151.2007 C166.8639,153.5676 179.0519,161.3815 186.7336,174.0668 Z" fill="rgb(233,108,76)" opacity="0.2"/><path d="M276.4095,158.0195 C300.6245,159.8443 319.5591,180.7088 318.5829,205.6937 C317.6759,228.9061 299.435,247.8764 276.4095,249.7007 C250.713,251.7366 228.8851,232.541 226.9017,207.5273 C224.6328,178.914 247.8184,155.702 276.4095,158.0195 Z" fill="rgb(255,255,255)" opacity="1"/><path d="M143.9601,155.4356 C170.9014,155.3822 192.4614,177.5114 191.4511,204.6856 C190.5057,230.1152 169.6102,250.4177 143.9601,250.4177 C118.31,250.4177 97.4144,230.1152 96.469,204.6856 C95.4587,177.5114 117.0187,155.3822 143.9601,155.4356 Z" fill="rgb(255,255,255)" opacity="1"/><path d="M209.7797,177.4175 C219.7723,177.3498 229.5724,180.1899 238.353,185.7682 L234.4186,197.5714 C227.3453,192.743 219.3509,190.1297 211.1221,189.8455 C202.2763,189.5399 193.5322,191.9312 185.5431,196.6195 L179.8498,186.7836 C189.0376,180.7635 199.2733,177.4887 209.7797,177.4175 Z" fill="rgb(255,255,255)" opacity="1"/><path d="M144.167,167.8835 C163.4657,167.8883 179.3901,181.9259 181.0892,199.7709 C183.2251,222.2034 164.2049,240.448 140.8104,238.3714 C120.7,236.5863 105.3732,219.4888 107.2447,199.7709 C108.9524,181.7799 124.9351,167.856 144.167,167.8835 Z" fill="url(#gradient1543)" opacity="1"/><path d="M276.646,170.8911 C294.9988,172.5685 309.1807,187.9157 308.2353,205.9904 C307.3716,222.5044 293.7169,235.9442 276.646,237.5798 C256.2171,239.5372 239.0269,224.9451 238.0367,205.9904 C236.9555,185.2944 254.8904,168.7363 276.646,170.8911 Z" fill="url(#gradient1544)" opacity="1"/><path d="M161.1069,185.9335 C168.4976,185.6845 175.427,188.7965 180.7112,194.7272 L169.0418,192.0532 C168.9927,201.4204 164.2528,208.2897 158.0959,207.9423 C152.5783,207.6311 148.6768,201.6104 149.2396,193.6844 L140.2559,197.5174 C145.6937,190.4659 152.9797,186.2073 161.1069,185.9335 Z" fill="rgb(20,30,36)" opacity="0.1"/><path d="M254.6283,184.8372 C261.8305,184.7729 268.4589,188.0729 273.2721,194.1592 L262.4842,190.4886 C263.0103,199.2485 258.8808,205.9285 253.0022,205.9435 C247.6061,205.9573 243.5182,200.2944 243.7177,192.5737 L233.654,196.4896 C239.1072,189.2556 246.457,184.9102 254.6283,184.8372 Z" fill="rgb(20,30,36)" opacity="0.1"/><path d="M115.9439,225.5996 L127.7624,194.4418 C129.0115,191.1488 131.2886,189.0698 134.2088,189.0698 L177.1851,189.0698 C172.0525,178.6544 162.9584,172.0325 152.4737,169.7305 C138.1358,166.5824 123.6706,171.331 114.8695,182.6234 C109.7738,189.1616 107.1709,197.4663 107.7151,205.8807 C108.1778,213.034 110.8951,219.9674 115.9439,225.5996 Z" fill="rgb(20,30,36)" opacity="0.5"/><path d="M246.6863,225.9931 L258.1429,197.7884 C259.5409,194.3465 261.8848,192.1621 264.8838,192.1709 L305.1081,192.2882 C300.8779,181.3856 291.9878,174.4334 281.5147,172.0653 C265.4602,168.435 249.8097,175.1536 242.1923,188.9177 C235.7365,200.5829 237.0135,214.7657 246.6863,225.9931 Z" fill="rgb(20,30,36)" opacity="0.5"/></g><g><path d="M201.7084,411.7387 L256.9096,271.702 C267.5057,244.8216 291.9077,229.7863 322.6411,229.7863 L472.7781,229.7863 C487.1716,229.7863 492.5715,247.7909 485.1623,266.9389 L432.8189,402.2124 C430.5036,408.1961 425.5564,411.7387 419.3187,411.7387 L201.7084,411.7387 Z" fill="rgb(139,188,199)" opacity="0.2"/><path d="M212.9765,411.7387 L268.1778,271.702 C277.1716,248.886 296.3957,235.5021 320.5724,235.5021 L470.7094,235.5021 C484.9046,235.5021 491.4251,250.7534 485.1623,266.9389 L432.8189,402.2124 C430.5036,408.1961 425.5564,411.7387 419.3187,411.7387 L212.9765,411.7387 Z" fill="rgb(139,188,199)" opacity="0.4"/><path d="M224.4081,411.7387 L279.6093,271.702 C286.4739,254.2876 301.1557,244.0757 319.6198,244.0757 L469.7567,244.0757 C482.3566,244.0757 489.7514,255.0788 485.1623,266.9389 L432.8189,402.2124 C430.5036,408.1961 425.5564,411.7387 419.3187,411.7387 L224.4081,411.7387 Z" fill="rgb(255,255,255)" opacity="1"/><path d="M283.1683,289.2809 C292.2248,266.7964 304.8235,251.226 322.2261,251.1757 L471.662,250.7441 C483.1525,250.711 489.5859,261.3227 485.1623,272.6546 L429.0084,416.5018 C424.4549,428.1665 408.4018,429.9137 388.5351,429.9137 L157.173,429.9137 C154.5351,429.9137 152.2309,429.1621 150.7407,427.5473 C148.891,425.5429 148.4509,422.3712 148.4815,419.0989 C148.5114,415.9157 148.9819,412.824 150.7361,410.6443 C152.4424,408.5242 155.2094,407.4071 158.3737,407.4071 L235.5881,407.4071 L283.1683,289.2809 Z" fill="rgb(20,30,36)" opacity="1"/><path d="M384.3032,336.2227 C388.3805,342.0672 395.1566,344.1791 402.7045,342.5085 C402.2573,344.659 401.2668,346.5959 400.0991,348.4105 C394.925,356.4502 387.0066,361.7537 378.0182,362.5299 C372.1281,363.0385 366.2506,361.6279 362.0182,357.9616 C355.1813,352.0393 353.3002,341.798 356.9524,332.5222 C360.3173,323.976 368.1483,317.8077 377.8807,315.1309 C380.3567,314.4499 382.9131,314.0366 385.5152,314.3009 C380.6466,321.7264 379.7821,329.7419 384.3032,336.2227 Z" fill="rgb(49,110,125)" opacity="1"/><path d="M380.3595,338.7719 C383.6913,343.7126 389.1013,346.5587 395.5319,346.7746 C391.194,353.297 385.1586,357.702 378.4768,358.5771 C373.3644,359.2467 368.2338,357.8204 364.6411,354.4737 C359.3139,349.5111 358.0468,341.3158 360.8101,333.8277 C363.5705,326.3473 370.1399,320.9406 378.8768,319.2181 C376.2752,326.21 376.6051,333.2046 380.3595,338.7719 Z" fill="rgb(139,188,199)" opacity="1"/></g></svg>