<svg xmlns="http://www.w3.org/2000/svg" viewBox="0 0 2048 512"><defs><linearGradient id="a" x1="164.4" x2="163.25" y1="134.69" y2="228.88" gradientUnits="userSpaceOnUse"><stop offset="0%" stop-color="#141E24"/><stop offset="100%" stop-color="#E96C4C"/></linearGradient><linearGradient id="b" x1="312.68" x2="313.84" y1="140.51" y2="229.23" gradientUnits="userSpaceOnUse"><stop offset="0%" stop-color="#141E24"/><stop offset="100%" stop-color="#E96C4C"/></linearGradient><linearGradient id="c" x1="954.29" x2="307.31" y1="315.64" y2="446.36" gradientUnits="userSpaceOnUse"><stop offset="0%" stop-color="#CD977D"/><stop offset="100%" stop-color="#241714"/></linearGradient><linearGradient id="d" x1="710.21" x2="326.59" y1="444.36" y2="452.59" gradientUnits="userSpaceOnUse"><stop offset="0%" stop-color="#DFC4B7"/><stop offset="100%" stop-color="#B7698A"/></linearGradient><linearGradient id="e" x1="599.15" x2="280.65" y1="382.78" y2="390.04" gradientUnits="userSpaceOnUse"><stop offset="0%" stop-color="#DFC4B7"/><stop offset="100%" stop-color="#B7698A"/></linearGradient><linearGradient id="f" x1="463.42" x2="299.79" y1="298.29" y2="448" gradientUnits="userSpaceOnUse"><stop offset="0%" stop-color="#DFC4B7"/><stop offset="100%" stop-color="#B7698A"/></linearGradient></defs><path fill="#141E24" d="M-34-22h2100v581H-34V-22Z" class="Curve"/><path fill="#141E24" d="M210.75 277.3c56.57 2.58 109.44 20.26 136.3 58.38 18.7 26.52 23.44 59.75 10.87 87.48-17.42 38.43-65.13 59.77-123.11 59.77H67.42c-28.42 0-51-20.44-59.56-49.4-5.1-17.28-4.4-36.32 1.48-54.11 5.63-17.04 15.06-32.16 29.12-45.7 38-36.6 104.94-59.5 172.3-56.43Z" class="Curve"/><path fill="#316E7D" d="M51.84 325.92a152.22 152.22 0 0 0-21.87 34.53c-7.72 16.79-12.61 34.58-12.4 52.58.2 15.34 4.1 30.46 10.3 44.83a96.75 96.75 0 0 0 6.87 13.3c-4.78-2.76-8.82-6.45-12.44-10.51-10.14-11.37-16.52-25.4-17.97-40.4-.77-7.96-.14-16.07 1.2-24.07 2.6-15.45 7.52-30.27 16.02-42.96a83.3 83.3 0 0 1 30.29-27.3Z" class="Curve"/><path fill="#8BBCC7" d="M176.1 465.32c3.33 2.72 3.53 9.13 6.98 11.8 3.16 2.44 8.08 1.9 11.89-1.19 2.56-2.09 4.19-5.25 4.77-8.77.32-1.96.3-3.98-.23-5.96a20.32 20.32 0 0 1 4.15 6.12c1.47 3.27 2.07 6.84 4.27 8.61 1.77 1.42 4.39 1.67 6.98 1.18 2.71-.5 5.21-1.76 6.87-3.89 2.66-3.4 2.97-8.6 1.4-13.93 3.08 3.02 6 6.27 8.36 9.75 1.48 2.19 2.67 4.44 4.59 5.72 3.67 2.44 8.91 1.52 11.75-2.34 2.4-3.27 2.51-8.03 1.2-13.1-2.71-10.4-11-20.45-21.72-26.5-12.9-7.3-28.32-9.22-44.29-8.75-8.07.23-16.07 1.06-23.57 3.53a55.49 55.49 0 0 0-26.89 19.15c-5.61 7.4-9.2 15.62-6.97 22.29 2.51 7.48 10.73 11.5 19.51 8.36 12.3-11.48 25.23-16.75 30.95-12.08Z" class="Curve"/><path fill="#316E7D" d="M161.87 441.17c5 2.09 8.43 7.04 11.15 12.54a50.46 50.46 0 0 1 4.26 12.09 50.17 50.17 0 0 0-10.6 5.9c-2.77 1.98-5.27 4.31-8.26 5.89-4.49 2.36-9.92 3.04-15.42 3.04-5.95 0-11.7-.8-15.22-4.17-3.13-2.99-4.34-7.7-3.54-12.32.96-5.58 4.92-10.49 9.76-14.6 9.1-7.74 19.85-11.72 27.87-8.37Z" class="Curve"/><path fill="#141E24" d="m55.15 321.2 19.03-140.51c3.76-27.7 7.31-54.66 17.31-79.16 9.12-22.34 23.23-42.16 42.44-55.1 21.98-14.83 49.87-19.92 78.33-20.4 29.19-.48 57.93 4.04 79.5 18.79 15.08 10.32 26.15 25.36 34.14 42.33 12.26 26.05 16.48 55.84 13.74 86.31l-13.68 151.7c-38.24 6.44-76.83 9.29-115.53 9.37-51.77.12-103.73-4.85-155.28-13.34Z" class="Curve"/><path fill="#316E7D" d="M144.52 40.55c-9.53 12.43-16.83 26.2-22.76 41.22-10.58 26.8-15.98 58-24.78 88.47L56.63 310 75.32 167.5c4.83-36.86 14.34-71.9 32.8-96.83 9.75-13.18 21.71-23.46 36.4-30.1ZM240.38 28.3c-23.87-.86-47.36 6.36-64.46 21.77-16.37 14.76-25.76 36.54-32.84 59.5-8.13 26.35-12.24 53.64-13.78 81.54l58.94 10.63c12.33-16.89 29.7-26.46 49.1-26.63 20.88-.17 39.58 10.5 53.32 28.77l48.68-17.56c2.8-24.87 1.93-49.5-3.93-73.24-5.14-20.8-13.58-40.43-27.57-55.26-17.3-18.34-41.77-28.58-67.46-29.52ZM252.55 299.38l-.52 9.67c-.22 4.07-3.77 6.67-8.16 6.96-4.63.3-8.35-1.95-8.16-5.57l.53-9.67a8.55 8.55 0 0 1 8.15-8.34c4.63-.3 8.4 2.59 8.16 6.95ZM224.4 299.63l-.53 9.67c-.22 4.06-3.77 6.67-8.16 6.95-4.63.3-8.35-1.94-8.15-5.56l.52-9.67a8.55 8.55 0 0 1 8.16-8.35c4.62-.3 8.39 2.6 8.15 6.96ZM196.21 298.66l-.49 7.34c-.3 4.51-4.06 7.4-8.67 7.46-4.39.06-7.89-2.36-7.64-6.07l.49-7.34a8.63 8.63 0 0 1 8.15-8.35c4.67-.32 8.45 2.6 8.16 6.96ZM279.2 298.56l-.5 7.35c-.3 4.5-4.05 7.4-8.66 7.46-4.4.06-7.9-2.37-7.65-6.07l.49-7.35a8.63 8.63 0 0 1 8.16-8.34c4.66-.32 8.44 2.6 8.15 6.95Z" class="Curve"/><path fill="#E96C4C" d="M212.8 159.7a60.58 60.58 0 0 1 21.95-4.34 65.7 65.7 0 0 1 23.9 4.33c16.93-21.23 42.08-29.06 66.32-24.76 34.22 6.07 59.15 32.8 60.89 64.89 1.87 34.61-22.78 64.9-58.99 71.02-23.54 3.98-48.21-4.3-63.8-22.87-12.07-14.38-17.35-33.64-12.26-53.46a26.05 26.05 0 0 0-9.53-2.15 35.7 35.7 0 0 0-13.24 2.17c3.67 24.1-5.16 46.1-21.77 60.94a72.48 72.48 0 0 1-76.17 13.06c-22.88-9.44-39.65-30-43.53-54.41-3.65-22.96 4.72-46.55 21.76-63.12 16.84-16.37 40.35-23.9 63.12-19.59 16.73 3.17 31.8 12.71 41.35 28.3Z" class="Curve" opacity=".2"/><path fill="#E96C4C" d="M210.63 166.24a62.56 62.56 0 0 1 26.3-6.53c9.9-.26 19.75 1.8 29.1 5.87 15.11-21.27 39.06-29.49 62.04-24.75 28.78 5.93 49.67 29.67 51.77 57.78 2.5 33.63-20.78 62.77-55.38 67.42-20.27 2.73-41.44-4.71-55.38-20.47-13-14.7-18.16-35.06-12.38-55.76a35.02 35.02 0 0 0-15.42-3.97c-6.7-.19-13.4 1.42-19.77 4.35 4.79 23.85-3.16 46.12-19.59 60.94-18.43 16.63-44.39 21.76-67.47 13.06a65.49 65.49 0 0 1-41.35-50.06c-3.68-21.42 3.73-43.52 19.59-58.76a65.5 65.5 0 0 1 56.58-17.42 59.9 59.9 0 0 1 41.36 28.3Z" class="Curve" opacity=".2"/><path fill="#FFF" d="M321.6 146.38c29.95 2.26 53.38 28.08 52.18 59-1.13 28.72-23.7 52.19-52.19 54.45a56.85 56.85 0 0 1-61.26-52.19c-2.8-35.4 25.88-64.13 61.26-61.26ZM157.7 143.18a58.53 58.53 0 0 1 58.76 60.95 58.8 58.8 0 0 1-58.76 56.58 58.8 58.8 0 0 1-58.77-56.58 58.53 58.53 0 0 1 58.77-60.95Z" class="Curve"/><path fill="#FFF" d="M239.14 170.38a64.8 64.8 0 0 1 35.36 10.34l-4.87 14.6a54.2 54.2 0 0 0-28.82-9.56c-10.95-.38-21.77 2.58-31.66 8.38l-7.04-12.17c11.37-7.45 24.03-11.5 37.03-11.59Z" class="Curve"/><path fill="url(#a)" d="M157.96 158.59c23.88 0 43.58 17.37 45.68 39.45 2.65 27.76-20.89 50.34-49.84 47.77-24.88-2.21-43.85-23.37-41.53-47.77 2.11-22.26 21.89-39.49 45.69-39.45Z" class="Curve"/><path fill="url(#b)" d="M321.88 162.3c22.71 2.08 40.26 21.07 39.1 43.44-1.08 20.43-17.97 37.06-39.1 39.09-25.27 2.42-46.55-15.64-47.77-39.09-1.34-25.6 20.85-46.1 47.77-43.43Z" class="Curve"/><path fill="#141E24" d="M178.92 180.92c9.14-.3 17.72 3.54 24.26 10.88l-14.44-3.3c-.06 11.58-5.93 20.08-13.55 19.66-6.83-.39-11.65-7.84-10.96-17.65l-11.11 4.75c6.73-8.73 15.74-14 25.8-14.34ZM294.64 179.57c8.91-.08 17.11 4 23.07 11.53l-13.35-4.54c.65 10.84-4.46 19.1-11.73 19.12-6.68.02-11.74-6.99-11.5-16.54l-12.44 4.84c6.74-8.95 15.84-14.32 25.95-14.41Z" class="Curve" opacity=".1"/><path fill="#141E24" d="m123.03 230 14.63-38.55c1.54-4.08 4.36-6.65 7.97-6.65h53.18a44.16 44.16 0 0 0-30.58-23.93c-17.74-3.9-35.64 1.98-46.53 15.96a42.48 42.48 0 0 0-8.85 28.77 40.2 40.2 0 0 0 10.18 24.4ZM284.81 230.5 299 195.6c1.73-4.27 4.63-6.97 8.34-6.96l49.77.14c-5.23-13.49-16.23-22.09-29.2-25.02-19.86-4.5-39.22 3.82-48.65 20.85-7.99 14.44-6.4 31.99 5.56 45.88Z" class="Curve" opacity=".5"/><path fill="#F5C450" d="M311.66 193c2.67 4.8 5.04 9.7 7.08 14.8 2.34 5.84 4.37 11.54 2.57 16.07a10.28 10.28 0 0 1-10.29 6.43c-4.88-.36-8.69-3.95-9-8.36-.34-4.7 4.32-9.48 7.07-15.43a27.78 27.78 0 0 0 2.57-13.51ZM171.15 196c2.8 5.04 5.29 10.2 7.43 15.53 2.45 6.14 4.59 12.12 2.7 16.88a10.8 10.8 0 0 1-10.8 6.76c-5.13-.38-9.13-4.15-9.46-8.78-.35-4.95 4.54-9.96 7.43-16.2a29.17 29.17 0 0 0 2.7-14.19Z" class="Curve" opacity=".5"/><path fill="url(#c)" d="M310.98 483.43c-3.02-3.62-4.15-8.73-4.99-13.97-1.25-7.82-1.73-15.8-2-23.95-.7-21.6-.12-44.58 0-66.86.1-15.41-.15-30.54 6-41.91 4.37-8.11 11.43-13.77 20.12-13.77h248.66c9.16 0 16.37 6.81 21.12 16.04 6.75 13.13 7.3 29.85 7.56 46.85.29 18.9.09 37.75-.09 56.65-.12 12.92-.26 25.8-4.99 34.93a27.95 27.95 0 0 1-11.97 11.98c-9.46 5.06-22.63 6.18-35.93 6.98-34.34 2.08-69.98 2.73-105.08 2.58-25.64-.11-51.44-.89-76.83-2.1-15.6-.75-31.91-2.02-45.61-5.47-6.53-1.64-12.4-3.7-15.97-7.98Z" class="Curve"/><path fill="url(#d)" d="M304.64 439.5a3561.87 3561.87 0 0 0 155.98 3.3c48.48-.05 96.95-1.13 145.4-3.3v15.97c-47.87 2.51-96.35 4.4-143.3 4.17-21.22-.11-42.46-.64-60.93.5-3.75.24-7.38.52-10.93 1.22-8.13 1.6-15.75 5.4-23.07 4.85-6.1-.46-11.93-3.93-18.22-6.07-6.56-2.23-13.6-3.07-20.64-3.64a297.1 297.1 0 0 0-23.29-1.03l-1-15.97Z" class="Curve"/><path fill="url(#e)" d="M304.64 381.21a3588.86 3588.86 0 0 0 301 0v15.8c-12.9.95-25.79 1.95-38.71 2.42-12.57.45-25.2.74-36.43 3.64-6.77 1.75-13.02 4.5-19.43 4.86-7.1.4-14.34-2.14-21.86-3.64-10.54-2.12-21.66-2.25-32.78-2.43-30.97-.52-62.13-.85-93.44-1.93-19.46-.67-38.91-1.6-58.35-2.93v-15.79Z" class="Curve"/><path fill="url(#f)" d="M330.11 313.75h251.42c15.74 0 26.35 10.32 27.63 23.05 1.9 18.97-13.43 32.73-27.63 27.66-8.78-3.14-14.38-15.75-24.86-21.9-9.07-5.32-20.74-5.55-30.4-1.15-16.26 7.42-25 27.94-36.89 30.23-15.63 3-34-25.48-57.04-25.62-12.82-.08-26.68 8.9-41.44 16.13-15.1 7.4-30.48 12.38-41.45 6.92-9.16-4.58-14.75-16.71-23.48-19.6-5.24-1.72-11.27-.2-15.9-2.04-9.77-3.89-12.38-17.22-4.21-26.31 4.77-5.31 13.35-7.37 24.25-7.37Z" class="Curve"/><path fill="#B7698A" d="M378.88 280.08h27.36v33.67h-27.36v-33.67Z" class="Curve"/><path fill="#CD977D" d="M442.02 280.08h27.37v33.67h-27.37v-33.67Z" class="Curve"/><path fill="#B7698A" d="M505.17 280.08h27.36v33.67h-27.36v-33.67Z" class="Curve"/><path fill="#E96C4C" d="M349.9 260.9a44.77 44.77 0 0 1 44.9-44.91 44.87 44.87 0 0 1 44.91 44.9 44.87 44.87 0 0 1-44.9 44.91 44.77 44.77 0 0 1-44.91-44.9ZM474.64 257.9a44.77 44.77 0 0 1 44.9-44.9 44.87 44.87 0 0 1 44.91 44.9 44.87 44.87 0 0 1-44.9 44.9 44.77 44.77 0 0 1-44.91-44.9Z" class="Curve" opacity=".2"/><path fill="#E96C4C" d="M408.78 254.9a44.77 44.77 0 0 1 44.9-44.9 44.87 44.87 0 0 1 44.9 44.9 44.87 44.87 0 0 1-44.9 44.91 44.77 44.77 0 0 1-44.9-44.9Z" class="Curve" opacity=".3"/><path fill="#E96C4C" d="M455.7 217.98a212.07 212.07 0 0 0-11.57 24.2c-3.83 9.58-7.15 18.9-4.21 26.32a16.82 16.82 0 0 0 16.84 10.52c7.98-.59 14.22-6.46 14.73-13.68.55-7.7-7.07-15.51-11.58-25.26a45.47 45.47 0 0 1-4.2-22.1Z" class="Curve"/><path fill="#F5C450" d="M457.18 275.65c-3.82-.13-7.36-3.78-9-9-2.69-8.55.88-19.44 8.1-29.72a24.8 24.8 0 0 0 2.7 13.5c2.04 3.93 5.18 7.12 6.3 10.81 2.39 7.78-2.01 14.61-8.1 14.4Z" class="Curve"/><path fill="#E96C4C" d="M517.34 228c3.65 6.56 6.9 13.28 9.68 20.23 3.2 8 5.98 15.8 3.52 22-2.25 5.68-8 9.25-14.08 8.8-6.67-.5-11.9-5.4-12.32-11.44-.46-6.44 5.92-12.97 9.68-21.12a38.01 38.01 0 0 0 3.52-18.47ZM392.55 230.61a169.3 169.3 0 0 1 9.24 19.32c3.06 7.64 5.71 15.08 3.36 21a13.43 13.43 0 0 1-13.44 8.4c-6.36-.47-11.35-5.16-11.76-10.92-.43-6.15 5.65-12.38 9.24-20.16a36.29 36.29 0 0 0 3.36-17.64Z" class="Curve"/><path fill="#F5C450" d="M516.46 276.4c3.74-.13 7.2-3.7 8.8-8.8 2.62-8.36-.87-19-7.92-29.04.4 4.64-.6 9.25-2.64 13.2-1.99 3.83-5.06 6.95-6.16 10.55-2.33 7.61 1.97 14.28 7.92 14.08ZM392.83 276.56c2.88-.1 5.54-2.85 6.77-6.77 2.02-6.43-.67-14.6-6.1-22.34.32 3.58-.45 7.12-2.02 10.15-1.53 2.95-3.9 5.35-4.74 8.13-1.79 5.85 1.52 10.98 6.1 10.83Z" class="Curve"/><path fill="#DFC4B7" d="m532.53 317.96 52.62 1.06c8.98.17 15.74 6.25 17.9 14.73a19.57 19.57 0 0 1-5.27 18.94 26.32 26.32 0 0 0-9.47-17.89c-6.12-5.13-14.61-7.32-23.15-9.47a667.02 667.02 0 0 0-32.63-7.37ZM364.86 319.02H323.8c-8.1 0-14.61 4.68-16.84 11.57a13.52 13.52 0 0 0 2.1 12.63c2.22-4.95 6-8.8 10.53-11.58 6.5-3.97 14.86-5.67 23.16-7.36 7.43-1.51 14.72-3.58 22.1-5.26Z" class="Curve"/><path fill="#E96C4C" d="M399 41.7v163.45h67.94c24.44 0 46.27-9 61.03-25.54 13.65-15.3 20.3-36.04 20.43-57.46.14-21.71-6.36-42.74-20.43-57.47-14.92-15.62-37.3-22.98-62.31-22.98H399ZM444.97 80h20.43c22 0 36.42 18.8 37.03 42.15.64 24.67-14.16 44.69-37.03 44.69h-20.43V80Zm157.06-38.3L548.4 205.15h49.8l7.66-25.54h61.3l7.65 25.54h48.53L668.43 41.7h-66.4Zm31.92 35.75h3.83l19.16 68.96h-40.86l17.87-68.96ZM737.38 41.7v163.45h45.97l.04-48.53h19.12l24.26 48.53h50.34l-32.47-58.74a64.86 64.86 0 0 0 15.33-19.16c6.87-12.79 10.11-26.97 8.17-40.86-1.4-9.98-5.3-19.38-12-26.81-10.65-11.8-27.44-17.88-45.97-17.88h-72.79Zm45.97 34.48h21.71c6.7 0 12.62 2.85 16.6 7.66a23.46 23.46 0 0 1 5.1 16.6c-.56 7.96-4.75 15.12-11.49 19.15-4.68 2.8-10.4 3.83-16.6 3.83h-15.32V76.18ZM895.72 41.7v163.45h42.75v-65.13h16.6l38.31 65.13h51.04l-53.6-85.56 48.48-77.89h-47.2l-39.58 62.57h-14.04V41.7h-42.76Zm381.8 0v163.45h107.26v-38.31h-63.85v-24.26h57.47v-38.31h-57.47V80h60V41.7h-103.41Zm616.75 0v163.45h45.97l.04-48.53h19.11l24.26 48.53H2034l-32.47-58.74a64.86 64.86 0 0 0 15.32-19.16c6.88-12.79 10.12-26.97 8.18-40.86-1.4-9.98-5.3-19.38-12-26.81-10.65-11.8-27.45-17.88-45.98-17.88h-72.78Zm45.97 34.48h21.7c6.7 0 12.63 2.85 16.6 7.66a23.46 23.46 0 0 1 5.11 16.6c-.56 7.96-4.76 15.12-11.49 19.15-4.68 2.8-10.4 3.83-16.6 3.83h-15.33V76.18ZM1120.46 41.7v163.45h45.97l.04-48.53h19.11l24.26 48.53h50.35l-32.47-58.74a64.86 64.86 0 0 0 15.32-19.16c6.87-12.79 10.12-26.97 8.17-40.86-1.4-9.98-5.29-19.38-12-26.81-10.64-11.8-27.44-17.88-45.97-17.88h-72.78Zm45.97 34.48h21.7c6.7 0 12.63 2.85 16.6 7.66a23.46 23.46 0 0 1 5.11 16.6c-.56 7.96-4.76 15.12-11.49 19.15-4.69 2.8-10.4 3.83-16.6 3.83h-15.33V76.18Zm282.2-34.48L1395 205.15h49.8l7.66-25.54h61.29l7.66 25.54h48.52l-54.9-163.45h-66.4Zm31.92 35.75h3.83l19.15 68.96h-40.86l17.88-68.96Zm105.98-35.75v163.45h67.95c24.43 0 46.27-9 61.02-25.54 13.65-15.3 20.3-36.04 20.43-57.46.14-21.71-6.36-42.74-20.43-57.47-14.92-15.62-37.29-22.98-62.3-22.98h-66.67ZM1632.5 80h20.43c22 0 36.43 18.8 37.03 42.15.64 24.67-14.15 44.69-37.03 44.69h-20.43V80Zm127.7-38.3v163.45h107.25v-38.31h-63.84v-24.26h57.46v-38.31h-57.46V80h60V41.7h-103.42Z" class="Curve"/><path fill="#E96C4C" d="M763.72 401.7h-9.9l-17.36-57.63q-1.23-3.83-2.76-9.65-1.53-5.83-1.6-7-1.29 7.76-4.11 17l-16.84 57.27h-9.88l-22.9-86.05h10.6l13.59 53.15q2.83 11.19 4.12 20.25 1.59-10.77 4.7-21.07l15.43-52.33h10.6l16.18 52.8q2.83 9.12 4.77 20.6 1.12-8.36 4.24-20.37l13.54-53.03h10.59l-23.01 86.05Zm59.86 1.17q-14.3 0-22.58-8.7-8.27-8.72-8.27-24.2 0-15.6 7.69-24.78 7.68-9.18 20.63-9.18 12.12 0 19.18 7.97 7.07 7.98 7.07 21.04v6.19h-44.44q.3 11.36 5.74 17.24 5.44 5.89 15.33 5.89 10.42 0 20.6-4.36v8.71q-5.18 2.24-9.8 3.21-4.62.97-11.15.97m-2.65-58.68q-7.77 0-12.4 5.06-4.61 5.06-5.44 14h33.73q0-9.23-4.12-14.15-4.12-4.91-11.77-4.91Zm100.12 58.68q-14 0-21.7-8.62-7.67-8.62-7.67-24.4 0-16.19 7.8-25.01 7.8-8.83 22.22-8.83 4.65 0 9.3 1t7.3 2.35l-3 8.3q-3.24-1.3-7.07-2.15-3.83-.85-6.77-.85-19.66 0-19.66 25.07 0 11.9 4.8 18.25 4.8 6.36 14.21 6.36 8.07 0 16.54-3.48v8.66q-6.47 3.35-16.3 3.35Zm58.86 0q-14.3 0-22.57-8.7-8.27-8.72-8.27-24.2 0-15.6 7.68-24.78 7.68-9.18 20.63-9.18 12.12 0 19.19 7.97 7.06 7.98 7.06 21.04v6.19h-44.44q.3 11.36 5.74 17.24 5.44 5.89 15.33 5.89 10.42 0 20.6-4.36v8.71q-5.18 2.24-9.8 3.21-4.62.97-11.15.97m-2.65-58.68q-7.77 0-12.39 5.06-4.62 5.06-5.44 14h33.72q0-9.23-4.12-14.15-4.12-4.91-11.77-4.91Zm52.8 57.5h-9.77v-91.58h9.77v91.58Zm47.97 1.18q-14.3 0-22.57-8.7-8.27-8.72-8.27-24.2 0-15.6 7.68-24.78 7.68-9.18 20.63-9.18 12.12 0 19.19 7.97 7.06 7.98 7.06 21.04v6.19h-44.44q.3 11.36 5.74 17.24 5.44 5.89 15.33 5.89 10.42 0 20.6-4.36v8.71q-5.18 2.24-9.8 3.21-4.62.97-11.15.97m-2.65-58.68q-7.77 0-12.39 5.06-4.62 5.06-5.44 14h33.72q0-9.23-4.12-14.15-4.12-4.91-11.77-4.91Zm73.05-8.07q12.71 0 19.74 8.69 7.04 8.68 7.04 24.57 0 15.9-7.1 24.7-7.09 8.8-19.68 8.8-6.3 0-11.51-2.33t-8.74-7.15h-.7l-2.07 8.3h-7v-91.6h9.77v22.26q0 7.47-.47 13.42h.47q6.83-9.66 20.25-9.66m-1.42 8.19q-10 0-14.42 5.73-4.41 5.74-4.41 19.34t4.53 19.45q4.53 5.86 14.54 5.86 9 0 13.42-6.56 4.41-6.57 4.41-18.87 0-12.6-4.41-18.77-4.42-6.18-13.66-6.18Zm74.7-8.3q4.3 0 7.7.7l-1.35 9.07q-4-.89-7.06-.89-7.83 0-13.39 6.36-5.56 6.36-5.56 15.83v34.61h-9.77v-64.5h8.06l1.12 11.94h.47q3.6-6.3 8.65-9.7 5.06-3.42 11.13-3.42Zm57.03 65.68-1.94-9.18h-.47q-4.83 6.07-9.62 8.21-4.8 2.15-11.98 2.15-9.6 0-15.04-4.94-5.45-4.95-5.45-14.07 0-19.54 31.26-20.48l10.95-.36v-4q0-7.6-3.27-11.21-3.27-3.62-10.45-3.62-8.06 0-18.24 4.94l-3-7.47q4.76-2.6 10.44-4.06 5.68-1.48 11.4-1.48 11.53 0 17.09 5.13 5.56 5.12 5.56 16.42v44.02h-7.24m-22.07-6.88q9.12 0 14.33-5 5.21-5 5.21-14.01v-5.83l-9.77.41q-11.65.41-16.8 3.62-5.15 3.2-5.15 9.98 0 5.3 3.2 8.06 3.21 2.77 8.98 2.77Zm70.28 0q2.59 0 5-.38 2.42-.39 3.83-.8v7.48q-1.6.76-4.68 1.26-3.1.5-5.56.5-18.72 0-18.72-19.72v-38.37h-9.24v-4.71l9.24-4.06 4.12-13.78h5.65v14.95h18.72v7.6h-18.72v37.96q0 5.83 2.77 8.95 2.76 3.12 7.59 3.12Zm48.97 8.06q-14.3 0-22.57-8.7-8.27-8.72-8.27-24.2 0-15.6 7.68-24.78 7.68-9.18 20.63-9.18 12.13 0 19.19 7.97 7.06 7.98 7.06 21.04v6.19h-44.44q.3 11.36 5.74 17.24 5.45 5.89 15.33 5.89 10.42 0 20.6-4.36v8.71q-5.17 2.24-9.8 3.21-4.62.97-11.15.97m-2.65-58.68q-7.77 0-12.39 5.06-4.62 5.06-5.44 14h33.72q0-9.23-4.12-14.15-4.12-4.91-11.77-4.91Zm106.07 57.5h-9.54v-61.33q0-7.65.47-14.48-1.23 1.24-2.76 2.6-1.53 1.35-14.01 11.47l-5.18-6.71 22.78-17.6h8.24v86.05Zm89.76-43.14q0 22.3-7.03 33.31-7.04 11.01-21.52 11.01-13.89 0-21.13-11.27-7.24-11.27-7.24-33.05 0-22.48 7-33.37 7.01-10.9 21.37-10.9 14.01 0 21.28 11.37 7.27 11.36 7.27 32.9m-47.03 0q0 18.78 4.42 27.34 4.41 8.56 14.06 8.56 9.77 0 14.16-8.68 4.38-8.68 4.38-27.22t-4.38-27.16q-4.39-8.63-14.16-8.63-9.65 0-14.06 8.5-4.42 8.51-4.42 27.29Zm84.47-21.37H1617l14.13 36.8q4.65 12.59 5.77 18.18h.47q.76-3 3.2-10.27 2.45-7.27 15.99-44.7h10.47l-27.72 73.45q-4.12 10.9-9.62 15.45-5.5 4.56-13.51 4.56-4.48 0-8.83-1v-7.83q3.24.71 7.24.71 10.06 0 14.36-11.3l3.6-9.18-26.02-64.87Zm98.23 65.7q-14.3 0-22.57-8.72-8.27-8.71-8.27-24.2 0-15.59 7.68-24.77t20.63-9.18q12.13 0 19.19 7.97 7.06 7.98 7.06 21.04v6.19h-44.44q.3 11.36 5.74 17.24 5.45 5.89 15.34 5.89 10.41 0 20.6-4.36v8.71q-5.18 2.24-9.8 3.21-4.62.97-11.16.97m-2.65-58.68q-7.77 0-12.39 5.06-4.62 5.06-5.44 14h33.73q0-9.23-4.12-14.15-4.12-4.91-11.78-4.91Zm82.7 57.5-1.94-9.18h-.47q-4.83 6.07-9.62 8.21-4.8 2.15-11.98 2.15-9.6 0-15.04-4.94-5.45-4.95-5.45-14.07 0-19.54 31.26-20.48l10.95-.36v-4q0-7.6-3.27-11.21-3.27-3.62-10.45-3.62-8.06 0-18.24 4.94l-3-7.47q4.76-2.6 10.44-4.06 5.68-1.48 11.4-1.48 11.53 0 17.09 5.13 5.56 5.12 5.56 16.42v44.02h-7.24m-22.07-6.88q9.12 0 14.33-5 5.21-5 5.21-14.01v-5.83l-9.77.41q-11.65.41-16.8 3.62-5.15 3.2-5.15 9.98 0 5.3 3.2 8.06 3.21 2.77 8.98 2.77Zm78.87-58.8q4.3 0 7.71.7l-1.35 9.07q-4-.89-7.06-.89-7.83 0-13.4 6.36-5.56 6.36-5.56 15.83v34.61h-9.77v-64.5h8.07l1.12 11.94h.47q3.59-6.3 8.65-9.7 5.06-3.42 11.12-3.42Zm61.4 48.09q0 9-6.72 13.89-6.7 4.88-18.83 4.88-12.83 0-20.01-4.06v-9.06q4.65 2.35 9.97 3.7 5.33 1.36 10.27 1.36 7.66 0 11.78-2.44 4.12-2.45 4.12-7.45 0-3.77-3.27-6.45-3.27-2.67-12.74-6.32-9-3.36-12.8-5.86-3.8-2.5-5.66-5.68-1.85-3.18-1.85-7.6 0-7.88 6.42-12.44 6.41-4.56 17.6-4.56 10.41 0 20.36 4.23l-3.47 7.95q-9.71-4-17.6-4-6.95 0-10.48 2.18-3.53 2.17-3.53 6 0 2.59 1.32 4.41 1.33 1.83 4.27 3.48 2.94 1.65 11.3 4.76 11.48 4.18 15.51 8.42 4.03 4.24 4.03 10.66Zm24.72-6.13h-6.18l-3-62.33h12.18l-3 62.33m-10.25 17.49q0-8.01 7.07-8.01 3.41 0 5.26 2.06 1.86 2.06 1.86 5.95 0 3.76-1.88 5.85-1.89 2.1-5.24 2.1-3.06 0-5.07-1.86-2-1.86-2-6.1Z" class="Text"/></svg>