<svg viewBox="0 0 800 125" xmlns="http://www.w3.org/2000/svg"><defs/><g><path d="M7.7619e-16,1.4831e-15 L800,1.4831e-15 L800,125 L7.7619e-16,125 L7.7619e-16,1.4831e-15 Z" fill="rgb(11,34,40)" opacity="1"/><path d="M140.261,9.522 L142.8038,14.6077 L142.8038,74.6191 L169.7581,74.6191 C179.7249,74.6191 188.6604,71.1946 194.7233,64.6305 C200.3193,58.5719 203.0895,50.2314 203.3238,41.562 C203.5555,32.9911 201.3267,24.6309 195.9535,18.8392 C189.8498,12.2599 180.1581,9.522 169.2495,9.522 L140.261,9.522 Z M222.141,9.522 L223.6667,12.5734 L202.3067,74.6191 L223.1581,74.6191 L224.1752,70.042 L247.061,70.042 L248.0781,74.6191 L268.9295,74.6191 L248.0781,9.522 L222.141,9.522 Z M274.5238,9.522 L277.0667,14.6077 L277.0667,74.6191 L296.3924,74.6191 L296.3924,52.242 L296.901,52.242 L310.6324,74.6191 L332.501,74.6191 L316.2267,48.1734 L314.701,48.1734 L315.7181,47.6649 C324.0514,43.4982 328.9885,35.657 328.941,27.322 C328.9157,22.8925 327.4697,18.6477 324.3974,15.5985 C319.7041,10.9405 311.5862,9.522 302.4952,9.522 L274.5238,9.522 Z M337.0781,9.522 L339.621,14.6077 L339.621,74.6191 L358.9467,74.6191 L358.9467,47.6649 L358.9467,47.6649 L375.221,74.6191 L398.6152,74.6191 L378.781,41.0534 L377.2552,41.0534 L378.2724,39.5277 L396.581,9.522 L372.1695,9.522 L372.1695,12.0649 L358.9467,40.5449 L358.4381,40.5449 L358.4381,9.522 L337.0781,9.522 Z M426.0781,9.522 L428.621,14.6077 L428.621,74.6191 L447.9467,74.6191 L447.9467,52.242 L448.4552,52.242 L462.1867,74.6191 L484.0552,74.6191 L467.781,48.1734 L466.2552,48.1734 L467.2724,47.6649 C475.6784,43.4619 480.6414,35.5934 480.4952,27.322 C480.4147,22.7666 478.7602,18.4424 475.5124,15.3757 C470.7306,10.8608 462.8392,9.522 454.0495,9.522 L426.0781,9.522 Z M488.6324,9.522 L491.1752,14.6077 L491.1752,74.6191 L533.8952,74.6191 L533.8952,59.362 L510.501,59.362 L510.501,49.6991 L531.3524,49.6991 L531.3524,34.442 L510.501,34.442 L510.501,24.7791 L532.3695,24.7791 L532.3695,9.522 L488.6324,9.522 Z M558.3067,9.522 L559.8324,12.5734 L538.981,74.6191 L559.8324,74.6191 L560.8495,70.042 L583.7352,70.042 L584.7524,74.6191 L605.6038,74.6191 L584.7524,9.522 L558.3067,9.522 Z M610.6895,9.522 L613.2324,14.6077 L613.2324,74.6191 L640.6952,74.6191 C651.5637,74.6191 661.2254,70.6377 667.2442,63.1369 C671.9672,57.2509 674.1015,49.5251 674.261,41.562 C674.4253,33.3532 672.5114,25.3448 667.5878,19.6135 C661.5505,12.5859 651.5174,9.522 640.1867,9.522 L610.6895,9.522 Z M679.8552,9.522 L682.3981,14.6077 L682.3981,74.6191 L725.1181,74.6191 L725.1181,59.362 L701.7238,59.362 L701.7238,49.6991 L722.5752,49.6991 L722.5752,34.442 L701.7238,34.442 L701.7238,24.7791 L723.5924,24.7791 L723.5924,9.522 L679.8552,9.522 Z M733.2552,9.522 L735.7981,14.6077 L735.7981,74.6191 L755.1238,74.6191 L755.1238,52.242 L755.6324,52.242 L769.3638,74.6191 L791.2324,74.6191 L774.9581,48.1734 L773.4324,48.1734 L774.4495,47.6649 C782.8517,43.4637 787.8153,35.5724 787.6724,27.322 C787.5972,22.9794 786.0875,18.86 783.0392,15.8339 C778.3036,11.1327 770.223,9.522 761.2267,9.522 L733.2552,9.522 Z M295.8838,23.2534 L299.9524,23.2534 C302.4801,23.2534 304.7696,24.1035 306.2945,25.7387 C307.4276,26.9538 308.1247,28.5078 308.0895,30.3734 C307.9991,35.1767 303.0936,41.2722 296.3924,46.6477 L295.8838,46.6477 L295.8838,23.2534 Z M447.4381,23.2534 L451.5067,23.2534 C454.2796,23.2534 456.7533,23.9362 458.2176,25.5694 C459.3121,26.7902 459.8246,28.4337 459.6438,30.3734 C459.1902,35.2401 454.3251,41.2533 447.9467,46.6477 L447.4381,46.6477 L447.4381,23.2534 Z M755.1238,23.2534 L759.1924,23.2534 C761.8677,23.2534 764.2644,23.8908 765.7444,25.4548 C766.9082,26.6848 767.4864,28.3749 767.3295,30.3734 C766.9444,35.2795 762.0837,41.2922 755.6324,46.6477 L755.1238,46.6477 L755.1238,23.2534 Z M235.3638,23.762 L235.8724,23.762 C236.447,27.0063 237.125,30.227 237.9067,33.4249 L243.501,56.3106 L227.7352,56.3106 L233.3295,33.9334 C234.1684,30.5781 234.8463,27.1882 235.3638,23.762 Z M571.5295,23.762 L572.0381,23.762 C572.6127,27.0063 573.2907,30.227 574.0724,33.4249 L579.6667,56.3106 L563.901,56.3106 L569.4952,33.9334 C570.3341,30.5781 571.012,27.1882 571.5295,23.762 Z M161.621,24.7791 L166.7067,24.7791 C175.9673,24.7791 182.151,32.2398 182.4724,41.562 C182.8104,51.3646 176.6657,59.362 167.2152,59.362 L161.621,59.362 L161.621,24.7791 Z M632.0495,24.7791 L637.1352,24.7791 C646.3959,24.7791 652.5795,32.2398 652.901,41.562 C653.2389,51.3646 647.0942,59.362 637.6438,59.362 L632.0495,59.362 L632.0495,24.7791 Z" fill="rgb(233,108,76)" opacity="1"/><path d="M165.8348,103.3901 Q165.8348,110.3972 161.846,114.124 Q157.8572,117.8507 150.3261,117.8507 L142.2902,117.8507 L142.2902,89.473 L151.1995,89.473 Q158.1484,89.473 161.9916,93.1415 Q165.8348,96.81 165.8348,103.3901 M159.5848,103.5454 Q159.5848,94.4032 151.5101,94.4032 L148.3074,94.4032 L148.3074,112.8817 L150.889,112.8817 Q159.5848,112.8817 159.5848,103.5454 Z M188.2925,117.8507 L186.235,111.096 L175.8894,111.096 L173.8319,117.8507 L167.3488,117.8507 L177.3645,89.3565 L184.721,89.3565 L194.7755,117.8507 L188.2925,117.8507 M184.7986,106.0493 Q181.9453,96.8683 181.5863,95.6648 Q181.2272,94.4614 181.0719,93.7626 Q180.4313,96.2471 177.4033,106.0493 L184.7986,106.0493 Z M204.3642,102.0702 L206.3052,102.0702 Q209.1585,102.0702 210.5172,101.1191 Q211.8759,100.168 211.8759,98.1299 Q211.8759,96.1113 210.4881,95.2572 Q209.1003,94.4032 206.1887,94.4032 L204.3642,94.4032 L204.3642,102.0702 M204.3642,106.9616 L204.3642,117.8507 L198.347,117.8507 L198.347,89.473 L206.6158,89.473 Q212.4,89.473 215.1757,91.579 Q217.9513,93.685 217.9513,97.9746 Q217.9513,100.4786 216.5732,102.4293 Q215.1951,104.38 212.6717,105.4864 Q219.0771,115.0556 221.0181,117.8507 L214.341,117.8507 L207.5669,106.9616 L204.3642,106.9616 Z M247.4161,117.8507 L240.5837,117.8507 L233.1495,105.894 L230.6068,107.7186 L230.6068,117.8507 L224.5896,117.8507 L224.5896,89.473 L230.6068,89.473 L230.6068,102.4584 L232.9749,99.1198 L240.6613,89.473 L247.3384,89.473 L237.4392,102.0314 L247.4161,117.8507 Z M272.2612,117.8507 L266.244,117.8507 L266.244,94.4808 L258.5381,94.4808 L258.5381,89.473 L279.967,89.473 L279.967,94.4808 L272.2612,94.4808 L272.2612,117.8507 Z M307.5878,117.8507 L301.59,117.8507 L301.59,105.6029 L290.3515,105.6029 L290.3515,117.8507 L284.3343,117.8507 L284.3343,89.473 L290.3515,89.473 L290.3515,100.595 L301.59,100.595 L301.59,89.473 L307.5878,89.473 L307.5878,117.8507 Z M331.0936,117.8507 L314.7502,117.8507 L314.7502,89.473 L331.0936,89.473 L331.0936,94.4032 L320.7673,94.4032 L320.7673,100.6338 L330.3754,100.6338 L330.3754,105.564 L320.7673,105.564 L320.7673,112.8817 L331.0936,112.8817 L331.0936,117.8507 Z M349.0286,117.8507 L342.1962,95.5872 L342.0216,95.5872 Q342.3903,102.3808 342.3903,104.6518 L342.3903,117.8507 L337.0137,117.8507 L337.0137,89.473 L345.2048,89.473 L351.9208,111.1736 L352.0372,111.1736 L359.1608,89.473 L367.3519,89.473 L367.3519,117.8507 L361.7424,117.8507 L361.7424,104.4188 Q361.7424,103.4677 361.7715,102.2255 Q361.8006,100.9832 362.0335,95.626 L361.8588,95.626 L354.5412,117.8507 L349.0286,117.8507 Z M390.8383,117.8507 L374.4949,117.8507 L374.4949,89.473 L390.8383,89.473 L390.8383,94.4032 L380.5121,94.4032 L380.5121,100.6338 L390.1201,100.6338 L390.1201,105.564 L380.5121,105.564 L380.5121,112.8817 L390.8383,112.8817 L390.8383,117.8507 Z M413.0048,117.8507 L407.0847,117.8507 L407.0847,89.473 L423.3504,89.473 L423.3504,94.4032 L413.0048,94.4032 L413.0048,101.7208 L422.6323,101.7208 L422.6323,106.6316 L413.0048,106.6316 L413.0048,117.8507 Z M454.6592,103.623 Q454.6592,110.6689 451.1653,114.4539 Q447.6715,118.2389 441.1496,118.2389 Q434.6278,118.2389 431.1339,114.4539 Q427.6401,110.6689 427.6401,103.5842 Q427.6401,96.4995 431.1437,92.763 Q434.6472,89.0265 441.1884,89.0265 Q447.7297,89.0265 451.1944,92.7921 Q454.6592,96.5577 454.6592,103.623 M433.9484,103.623 Q433.9484,108.3785 435.7536,110.7854 Q437.5587,113.1923 441.1496,113.1923 Q448.3508,113.1923 448.3508,103.623 Q448.3508,94.0344 441.1884,94.0344 Q437.5976,94.0344 435.773,96.4509 Q433.9484,98.8675 433.9484,103.623 Z M466.5576,102.0702 L468.4986,102.0702 Q471.352,102.0702 472.7107,101.1191 Q474.0694,100.168 474.0694,98.1299 Q474.0694,96.1113 472.6816,95.2572 Q471.2937,94.4032 468.3822,94.4032 L466.5576,94.4032 L466.5576,102.0702 M466.5576,106.9616 L466.5576,117.8507 L460.5405,117.8507 L460.5405,89.473 L468.8092,89.473 Q474.5935,89.473 477.3691,91.579 Q480.1448,93.685 480.1448,97.9746 Q480.1448,100.4786 478.7667,102.4293 Q477.3885,104.38 474.8652,105.4864 Q481.2706,115.0556 483.2116,117.8507 L476.5345,117.8507 L469.7603,106.9616 L466.5576,106.9616 Z M513.4528,117.8507 L497.1093,117.8507 L497.1093,89.473 L513.4528,89.473 L513.4528,94.4032 L503.1265,94.4032 L503.1265,100.6338 L512.7346,100.6338 L512.7346,105.564 L503.1265,105.564 L503.1265,112.8817 L513.4528,112.8817 L513.4528,117.8507 Z M535.561,89.473 L541.6364,89.473 L531.9895,117.8507 L525.4289,117.8507 L515.8014,89.473 L521.8768,89.473 L527.2146,106.3599 Q527.661,107.8544 528.1366,109.844 Q528.6121,111.8335 528.7286,112.61 Q528.9421,110.8242 530.1844,106.3599 L535.561,89.473 Z M561.5513,117.8507 L545.2079,117.8507 L545.2079,89.473 L561.5513,89.473 L561.5513,94.4032 L551.2251,94.4032 L551.2251,100.6338 L560.8331,100.6338 L560.8331,105.564 L551.2251,105.564 L551.2251,112.8817 L561.5513,112.8817 L561.5513,117.8507 Z M573.4886,102.0702 L575.4296,102.0702 Q578.2829,102.0702 579.6417,101.1191 Q581.0004,100.168 581.0004,98.1299 Q581.0004,96.1113 579.6125,95.2572 Q578.2247,94.4032 575.3132,94.4032 L573.4886,94.4032 L573.4886,102.0702 M573.4886,106.9616 L573.4886,117.8507 L567.4714,117.8507 L567.4714,89.473 L575.7402,89.473 Q581.5244,89.473 584.3001,91.579 Q587.0758,93.685 587.0758,97.9746 Q587.0758,100.4786 585.6976,102.4293 Q584.3195,104.38 581.7962,105.4864 Q588.2016,115.0556 590.1426,117.8507 L583.4655,117.8507 L576.6913,106.9616 L573.4886,106.9616 Z M602.5457,101.1579 L608.4659,89.473 L614.9489,89.473 L605.5349,106.8063 L605.5349,117.8507 L599.5566,117.8507 L599.5566,107.0004 L590.1426,89.473 L596.6644,89.473 L602.5457,101.1579 Z M656.4868,117.8507 L649.635,117.8507 L645.7917,102.9437 Q645.5782,102.1478 645.0639,99.6536 Q644.5495,97.1594 644.4718,96.3054 Q644.3554,97.3535 643.8895,99.673 Q643.4237,101.9926 643.1714,102.9825 L639.3475,117.8507 L632.5151,117.8507 L625.2751,89.473 L631.1952,89.473 L634.825,104.9623 Q635.7761,109.252 636.2031,112.3964 Q636.3195,111.2901 636.7369,108.9705 Q637.1542,106.651 637.523,105.3699 L641.6574,89.473 L647.3446,89.473 L651.4789,105.3699 Q651.7507,106.4375 652.1583,108.6309 Q652.5659,110.8242 652.7794,112.3964 Q652.9735,110.8824 653.4005,108.6211 Q653.8276,106.3599 654.177,104.9623 L657.7873,89.473 L663.7074,89.473 L656.4868,117.8507 Z M683.6223,117.8507 L667.2789,117.8507 L667.2789,89.473 L683.6223,89.473 L683.6223,94.4032 L673.296,94.4032 L673.296,100.6338 L682.9041,100.6338 L682.9041,105.564 L673.296,105.564 L673.296,112.8817 L683.6223,112.8817 L683.6223,117.8507 Z M689.5424,89.473 L698.3741,89.473 Q704.4106,89.473 707.1378,91.1908 Q709.8649,92.9086 709.8649,96.6547 Q709.8649,99.1975 708.6712,100.8279 Q707.4775,102.4584 705.4976,102.7884 L705.4976,102.9825 Q708.1956,103.5842 709.3894,105.2341 Q710.5831,106.8839 710.5831,109.6208 Q710.5831,113.5028 707.7783,115.6768 Q704.9735,117.8507 700.1598,117.8507 L689.5424,117.8507 L689.5424,89.473 M695.5596,100.7115 L699.0534,100.7115 Q701.4991,100.7115 702.5958,99.9545 Q703.6925,99.1975 703.6925,97.4506 Q703.6925,95.8201 702.4987,95.1116 Q701.305,94.4032 698.7234,94.4032 L695.5596,94.4032 L695.5596,100.7115 M695.5596,105.4864 L695.5596,112.8817 L699.4804,112.8817 Q701.965,112.8817 703.149,111.9306 Q704.333,110.9795 704.333,109.0191 Q704.333,105.4864 699.2863,105.4864 L695.5596,105.4864 Z M733.0019,109.9702 Q733.0019,113.8134 730.236,116.0262 Q727.47,118.2389 722.5398,118.2389 Q717.9978,118.2389 714.504,116.5308 L714.504,110.9407 Q717.3767,112.2217 719.3662,112.7458 Q721.3558,113.2699 723.0057,113.2699 Q724.9855,113.2699 726.0434,112.5129 Q727.1012,111.7559 727.1012,110.2613 Q727.1012,109.4267 726.6354,108.7764 Q726.1695,108.1262 725.2669,107.5245 Q724.3644,106.9228 721.5887,105.6029 Q718.9877,104.38 717.6872,103.2542 Q716.3868,102.1284 715.6104,100.6338 Q714.8339,99.1392 714.8339,97.14 Q714.8339,93.3744 717.3864,91.2199 Q719.9388,89.0653 724.442,89.0653 Q726.6548,89.0653 728.6637,89.5894 Q730.6727,90.1135 732.8661,91.0646 L730.925,95.7425 Q728.654,94.8108 727.1691,94.442 Q725.6843,94.0732 724.2479,94.0732 Q722.5398,94.0732 721.6275,94.869 Q720.7152,95.6648 720.7152,96.9459 Q720.7152,97.7417 721.084,98.3337 Q721.4528,98.9257 722.2584,99.4789 Q723.0639,100.0321 726.0725,101.4685 Q730.0516,103.3707 731.5267,105.2826 Q733.0019,107.1945 733.0019,109.9702 Z M738.1456,117.8507 L738.1456,89.473 L744.1628,89.473 L744.1628,117.8507 L738.1456,117.8507 Z M762.2531,117.8507 L756.236,117.8507 L756.236,94.4808 L748.5301,94.4808 L748.5301,89.473 L769.959,89.473 L769.959,94.4808 L762.2531,94.4808 L762.2531,117.8507 Z M790.6697,117.8507 L774.3263,117.8507 L774.3263,89.473 L790.6697,89.473 L790.6697,94.4032 L780.3435,94.4032 L780.3435,100.6338 L789.9516,100.6338 L789.9516,105.564 L780.3435,105.564 L780.3435,112.8817 L790.6697,112.8817 L790.6697,117.8507 Z " fill="rgb(233,108,76)" opacity="1"/><g><path d="M73.3726,5.1 C85.6151,5.9316 97.0986,12.0173 103.6891,21.9422 C110.3586,31.9862 111.189,45.4297 113.795,58.9948 C117.7357,79.5066 124.9739,100.1047 134,119.6304 L6,119.6304 C14.7444,100.0207 21.8962,79.4589 26.2121,58.9544 C29.0704,45.3752 30.3471,31.9313 37.1603,21.922 C45.0221,10.3723 58.9589,4.121 73.3726,5.1 Z" fill="rgb(11,34,40)" opacity="1"/><path d="M47,12 C43.2914,15.6179 40.7615,20.0009 39,25 C35.5796,34.7069 35.4243,46.8903 37,59 C34.6276,66.7619 31.9256,74.4007 29,82 C24.1184,94.6799 18.5704,107.2353 12.7371,119.6304 L6,119.6304 C14.4161,99.4816 22.1508,78.3645 26.2121,58.9544 C27.8715,51.0237 28.9026,43.3102 31,36 C32.4474,30.9553 34.3304,26.1441 37.1603,21.922 C39.7472,18.0626 43.0218,14.6077 47,12 Z" fill="rgb(44,137,160)" opacity="1"/><path d="M73,5.3656 C62.6126,5.5035 53.0822,12.5528 48.1087,22.7857 C41.9003,35.5594 44.0813,51.3608 53.1596,65.7356 L93.582,65.7356 C102.7973,51.4274 104.9299,35.5868 98.6357,22.7857 C93.4976,12.3359 83.6423,5.2244 73,5.3656 Z" fill="rgb(44,137,160)" opacity="1"/><path d="M46.4252,106.4076 C46.313,103.4923 47.7636,101.2915 49.7924,101.3541 C51.6653,101.412 53.1596,103.5257 53.1596,106.4076 L53.1596,112.8924 C53.1596,115.909 51.6687,118.1497 49.7924,118.1661 C47.9432,118.1824 46.4252,116.0488 46.4252,113.1444 L46.4252,106.4072 L46.4252,106.4076 Z" fill="rgb(175,221,233)" opacity="1"/><path d="M59.902,99.6696 C59.7878,96.8064 61.2359,94.6495 63.2696,94.7129 C65.1424,94.7712 66.6373,96.8389 66.6373,99.6696 L66.6373,112.8924 C66.6373,115.9076 65.1462,118.147 63.2696,118.1634 C61.4202,118.1797 59.902,116.0474 59.902,113.1444 L59.902,99.6692 L59.902,99.6696 Z" fill="rgb(175,221,233)" opacity="1"/><path d="M86.845,106.4076 C86.7328,103.4923 88.1834,101.2915 90.2121,101.3541 C92.085,101.412 93.5793,103.5257 93.5793,106.4076 L93.5793,112.8924 C93.5793,115.909 92.0884,118.1497 90.2121,118.1661 C88.363,118.1824 86.845,116.0488 86.845,113.1444 L86.845,106.4072 L86.845,106.4076 Z" fill="rgb(175,221,233)" opacity="1"/><path d="M46.48,38.7852 C53.9085,38.7852 60.5904,41.7206 65.5182,46.6719 C70.8172,51.9963 73.565,59.1074 73.404,65.712 C72.7687,91.7891 43.9446,100.5419 27.4418,84.7521 C10.1148,68.1736 20.4941,38.7852 46.48,38.7852 L46.48,38.7852 Z" fill="rgb(80,22,22)" opacity="1"/><path d="M100.3227,38.7852 C107.1658,38.4671 114.1534,41.3712 119.3603,46.6722 C124.3821,51.7849 127.2284,58.7067 127.2458,65.712 C127.2743,77.1747 120.3402,87.0915 110,91 C99.7292,94.8823 88.3112,91.8543 81.2833,84.7517 C62.8522,66.1249 74.296,39.218 100.3227,38.7852 Z" fill="rgb(80,22,22)" opacity="1"/><path d="M59.9334,72.4296 C63.8897,69.1484 68.5462,67.3769 73.4223,67.3767 C78.299,67.3766 82.9562,69.1482 86.9132,72.4296 L86.9132,65.6924 C86.9132,61.7367 80.8843,60.6388 73.422,60.6389 C65.9583,60.639 59.9292,61.7373 59.9308,65.6924 L59.9334,72.4296 L59.9334,72.4296 Z" fill="rgb(255,255,255)" opacity="1"/><path d="M46.4791,45.5216 C51.4221,45.4293 56.7816,47.4738 60.7534,51.4356 C64.7365,55.4086 66.7781,60.7597 66.666,65.712 C66.2136,85.7139 44.4234,92.197 32.2029,79.9888 C19.9528,67.7511 26.4704,46.0046 46.4791,45.5216 Z" fill="rgb(255,255,255)" opacity="1"/><path d="M100.3209,45.5224 C105.8908,45.5224 110.9009,47.7232 114.5958,51.4355 C118.5692,55.4277 120.6295,60.7597 120.5088,65.712 C120.0322,85.2635 98.4215,91.8264 86.0478,79.9887 C73.0548,67.5586 80.8367,45.5224 100.3209,45.5224 L100.3209,45.5224 Z" fill="rgb(255,255,255)" opacity="1"/><path d="M46.5545,52.4104 C49.83,52.3489 53.3815,53.7033 56.0135,56.3284 C58.653,58.961 60.0059,62.5068 59.9317,65.7884 C59.6319,79.041 45.1947,83.3368 37.0973,75.2485 C28.9803,67.1406 33.2975,52.7319 46.5545,52.4104 Z" fill="rgb(200,55,55)" opacity="1"/><path d="M100.2347,52.4292 C103.5078,52.368 107.0567,53.7216 109.6868,56.345 C112.3243,58.9758 113.6762,62.5191 113.6019,65.7984 C113.3021,79.0423 98.8742,83.3349 90.7825,75.2516 C82.6712,67.1487 86.9863,52.7496 100.2347,52.4292 Z" fill="rgb(200,55,55)" opacity="1"/><path d="M73.3726,99.6696 C73.2584,96.8064 74.7063,94.6496 76.7398,94.7129 C78.6123,94.7712 80.107,96.8389 80.107,99.6696 L80.107,112.8924 C80.107,115.9075 78.6161,118.147 76.7398,118.1634 C74.8906,118.1797 73.3726,116.0473 73.3726,113.1444 L73.3726,99.6692 L73.3726,99.6696 Z" fill="rgb(175,221,233)" opacity="1"/></g></g></svg>