<svg xmlns="http://www.w3.org/2000/svg" viewBox="0 0 2048 512"><defs><linearGradient id="a" x1="164.4" x2="163.25" y1="134.69" y2="228.88" gradientUnits="userSpaceOnUse"><stop offset="0%" stop-color="#141E24"/><stop offset="100%" stop-color="#E96C4C"/></linearGradient><linearGradient id="b" x1="312.68" x2="313.84" y1="140.51" y2="229.23" gradientUnits="userSpaceOnUse"><stop offset="0%" stop-color="#141E24"/><stop offset="100%" stop-color="#E96C4C"/></linearGradient><linearGradient id="c" x1="470.9" x2="305.33" y1="344.5" y2="447.85" gradientUnits="userSpaceOnUse"><stop offset="0%" stop-color="#CD977D"/><stop offset="100%" stop-color="#B7698A"/></linearGradient><linearGradient id="d" x1="479.34" x2="233.61" y1="444.69" y2="446.8" gradientUnits="userSpaceOnUse"><stop offset="0%" stop-color="#B7698A"/><stop offset="100%" stop-color="#316E7D"/></linearGradient><linearGradient id="e" x1="474.07" x2="251.75" y1="382.47" y2="385.58" gradientUnits="userSpaceOnUse"><stop offset="0%" stop-color="#DFC4B7"/><stop offset="100%" stop-color="#B7698A"/></linearGradient><linearGradient id="f" x1="442.39" x2="391.81" y1="299.03" y2="501.64" gradientUnits="userSpaceOnUse"><stop offset="0%" stop-color="#B7698A"/><stop offset="100%" stop-color="#316E7D"/></linearGradient></defs><path fill="#141E24" d="M-34-22h2100v581H-34V-22Z" class="Curve"/><path fill="#141E24" d="M210.75 277.3c56.57 2.58 109.44 20.26 136.3 58.38 18.7 26.52 23.44 59.75 10.87 87.48-17.42 38.43-65.13 59.77-123.11 59.77H67.42c-28.42 0-51-20.44-59.56-49.4-5.1-17.28-4.4-36.32 1.48-54.11 5.63-17.04 15.06-32.16 29.12-45.7 38-36.6 104.94-59.5 172.3-56.43Z" class="Curve"/><path fill="#316E7D" d="M51.84 325.92a152.22 152.22 0 0 0-21.87 34.53c-7.72 16.79-12.61 34.58-12.4 52.58.2 15.34 4.1 30.46 10.3 44.83a96.75 96.75 0 0 0 6.87 13.3c-4.78-2.76-8.82-6.45-12.44-10.51-10.14-11.37-16.52-25.4-17.97-40.4-.77-7.96-.14-16.07 1.2-24.07 2.6-15.45 7.52-30.27 16.02-42.96a83.3 83.3 0 0 1 30.29-27.3Z" class="Curve"/><path fill="#8BBCC7" d="M176.1 465.32c3.33 2.72 3.53 9.13 6.98 11.8 3.16 2.44 8.08 1.9 11.89-1.19 2.56-2.09 4.19-5.25 4.77-8.77.32-1.96.3-3.98-.23-5.96a20.32 20.32 0 0 1 4.15 6.12c1.47 3.27 2.07 6.84 4.27 8.61 1.77 1.42 4.39 1.67 6.98 1.18 2.71-.5 5.21-1.76 6.87-3.89 2.66-3.4 2.97-8.6 1.4-13.93 3.08 3.02 6 6.27 8.36 9.75 1.48 2.19 2.67 4.44 4.59 5.72 3.67 2.44 8.91 1.52 11.75-2.34 2.4-3.27 2.51-8.03 1.2-13.1-2.71-10.4-11-20.45-21.72-26.5-12.9-7.3-28.32-9.22-44.29-8.75-8.07.23-16.07 1.06-23.57 3.53a55.49 55.49 0 0 0-26.89 19.15c-5.61 7.4-9.2 15.62-6.97 22.29 2.51 7.48 10.73 11.5 19.51 8.36 12.3-11.48 25.23-16.75 30.95-12.08Z" class="Curve"/><path fill="#316E7D" d="M161.87 441.17c5 2.09 8.43 7.04 11.15 12.54a50.46 50.46 0 0 1 4.26 12.09 50.17 50.17 0 0 0-10.6 5.9c-2.77 1.98-5.27 4.31-8.26 5.89-4.49 2.36-9.92 3.04-15.42 3.04-5.95 0-11.7-.8-15.22-4.17-3.13-2.99-4.34-7.7-3.54-12.32.96-5.58 4.92-10.49 9.76-14.6 9.1-7.74 19.85-11.72 27.87-8.37Z" class="Curve"/><path fill="#141E24" d="m55.15 321.2 19.03-140.51c3.76-27.7 7.31-54.66 17.31-79.16 9.12-22.34 23.23-42.16 42.44-55.1 21.98-14.83 49.87-19.92 78.33-20.4 29.19-.48 57.93 4.04 79.5 18.79 15.08 10.32 26.15 25.36 34.14 42.33 12.26 26.05 16.48 55.84 13.74 86.31l-13.68 151.7c-38.24 6.44-76.83 9.29-115.53 9.37-51.77.12-103.73-4.85-155.28-13.34Z" class="Curve"/><path fill="#316E7D" d="M144.52 40.55c-9.53 12.43-16.83 26.2-22.76 41.22-10.58 26.8-15.98 58-24.78 88.47L56.63 310 75.32 167.5c4.83-36.86 14.34-71.9 32.8-96.83 9.75-13.18 21.71-23.46 36.4-30.1ZM240.38 28.3c-23.87-.86-47.36 6.36-64.46 21.77-16.37 14.76-25.76 36.54-32.84 59.5-8.13 26.35-12.24 53.64-13.78 81.54l58.94 10.63c12.33-16.89 29.7-26.46 49.1-26.63 20.88-.17 39.58 10.5 53.32 28.77l48.68-17.56c2.8-24.87 1.93-49.5-3.93-73.24-5.14-20.8-13.58-40.43-27.57-55.26-17.3-18.34-41.77-28.58-67.46-29.52ZM252.55 299.38l-.52 9.67c-.22 4.07-3.77 6.67-8.16 6.96-4.63.3-8.35-1.95-8.16-5.57l.53-9.67a8.55 8.55 0 0 1 8.15-8.34c4.63-.3 8.4 2.59 8.16 6.95ZM224.4 299.63l-.53 9.67c-.22 4.06-3.77 6.67-8.16 6.95-4.63.3-8.35-1.94-8.15-5.56l.52-9.67a8.55 8.55 0 0 1 8.16-8.35c4.62-.3 8.39 2.6 8.15 6.96ZM196.21 298.66l-.49 7.34c-.3 4.51-4.06 7.4-8.67 7.46-4.39.06-7.89-2.36-7.64-6.07l.49-7.34a8.63 8.63 0 0 1 8.15-8.35c4.67-.32 8.45 2.6 8.16 6.96ZM279.2 298.56l-.5 7.35c-.3 4.5-4.05 7.4-8.66 7.46-4.4.06-7.9-2.37-7.65-6.07l.49-7.35a8.63 8.63 0 0 1 8.16-8.34c4.66-.32 8.44 2.6 8.15 6.95Z" class="Curve"/><path fill="#E96C4C" d="M212.8 159.7a60.58 60.58 0 0 1 21.95-4.34 65.7 65.7 0 0 1 23.9 4.33c16.93-21.23 42.08-29.06 66.32-24.76 34.22 6.07 59.15 32.8 60.89 64.89 1.87 34.61-22.78 64.9-58.99 71.02-23.54 3.98-48.21-4.3-63.8-22.87-12.07-14.38-17.35-33.64-12.26-53.46a26.05 26.05 0 0 0-9.53-2.15 35.7 35.7 0 0 0-13.24 2.17c3.67 24.1-5.16 46.1-21.77 60.94a72.48 72.48 0 0 1-76.17 13.06c-22.88-9.44-39.65-30-43.53-54.41-3.65-22.96 4.72-46.55 21.76-63.12 16.84-16.37 40.35-23.9 63.12-19.59 16.73 3.17 31.8 12.71 41.35 28.3Z" class="Curve" opacity=".2"/><path fill="#E96C4C" d="M210.63 166.24a62.56 62.56 0 0 1 26.3-6.53c9.9-.26 19.75 1.8 29.1 5.87 15.11-21.27 39.06-29.49 62.04-24.75 28.78 5.93 49.67 29.67 51.77 57.78 2.5 33.63-20.78 62.77-55.38 67.42-20.27 2.73-41.44-4.71-55.38-20.47-13-14.7-18.16-35.06-12.38-55.76a35.02 35.02 0 0 0-15.42-3.97c-6.7-.19-13.4 1.42-19.77 4.35 4.79 23.85-3.16 46.12-19.59 60.94-18.43 16.63-44.39 21.76-67.47 13.06a65.49 65.49 0 0 1-41.35-50.06c-3.68-21.42 3.73-43.52 19.59-58.76a65.5 65.5 0 0 1 56.58-17.42 59.9 59.9 0 0 1 41.36 28.3Z" class="Curve" opacity=".2"/><path fill="#FFF" d="M321.6 146.38c29.95 2.26 53.38 28.08 52.18 59-1.13 28.72-23.7 52.19-52.19 54.45a56.85 56.85 0 0 1-61.26-52.19c-2.8-35.4 25.88-64.13 61.26-61.26ZM157.7 143.18a58.53 58.53 0 0 1 58.76 60.95 58.8 58.8 0 0 1-58.76 56.58 58.8 58.8 0 0 1-58.77-56.58 58.53 58.53 0 0 1 58.77-60.95Z" class="Curve"/><path fill="#FFF" d="M239.14 170.38a64.8 64.8 0 0 1 35.36 10.34l-4.87 14.6a54.2 54.2 0 0 0-28.82-9.56c-10.95-.38-21.77 2.58-31.66 8.38l-7.04-12.17c11.37-7.45 24.03-11.5 37.03-11.59Z" class="Curve"/><path fill="url(#a)" d="M157.96 158.59c23.88 0 43.58 17.37 45.68 39.45 2.65 27.76-20.89 50.34-49.84 47.77-24.88-2.21-43.85-23.37-41.53-47.77 2.11-22.26 21.89-39.49 45.69-39.45Z" class="Curve"/><path fill="url(#b)" d="M321.88 162.3c22.71 2.08 40.26 21.07 39.1 43.44-1.08 20.43-17.97 37.06-39.1 39.09-25.27 2.42-46.55-15.64-47.77-39.09-1.34-25.6 20.85-46.1 47.77-43.43Z" class="Curve"/><path fill="#141E24" d="M178.92 180.92c9.14-.3 17.72 3.54 24.26 10.88l-14.44-3.3c-.06 11.58-5.93 20.08-13.55 19.66-6.83-.39-11.65-7.84-10.96-17.65l-11.11 4.75c6.73-8.73 15.74-14 25.8-14.34ZM294.64 179.57c8.91-.08 17.11 4 23.07 11.53l-13.35-4.54c.65 10.84-4.46 19.1-11.73 19.12-6.68.02-11.74-6.99-11.5-16.54l-12.44 4.84c6.74-8.95 15.84-14.32 25.95-14.41Z" class="Curve" opacity=".1"/><path fill="#141E24" d="m123.03 230 14.63-38.55c1.54-4.08 4.36-6.65 7.97-6.65h53.18a44.16 44.16 0 0 0-30.58-23.93c-17.74-3.9-35.64 1.98-46.53 15.96a42.48 42.48 0 0 0-8.85 28.77 40.2 40.2 0 0 0 10.18 24.4ZM284.81 230.5 299 195.6c1.73-4.27 4.63-6.97 8.34-6.96l49.77.14c-5.23-13.49-16.23-22.09-29.2-25.02-19.86-4.5-39.22 3.82-48.65 20.85-7.99 14.44-6.4 31.99 5.56 45.88Z" class="Curve" opacity=".5"/><path fill="url(#c)" d="M309 485c-3.02-3.62-4.16-8.74-5-14-1.26-7.83-1.73-15.83-2-24-.71-21.64-.13-44.68 0-67 .09-15.44-.16-30.6 6-42 4.39-8.12 11.47-13.8 20.18-13.8h249.17c9.18 0 16.4 6.83 21.16 16.08 6.77 13.16 7.33 29.91 7.58 46.95.29 18.94.09 37.83-.09 56.77-.12 12.94-.26 25.86-5 35a28 28 0 0 1-12 12c-9.47 5.07-22.67 6.2-36 7-34.41 2.08-70.12 2.74-105.3 2.58-25.69-.11-51.54-.89-76.99-2.1-15.63-.76-31.98-2.02-45.71-5.48-6.53-1.64-12.42-3.7-16-8Z" class="Curve"/><path fill="url(#d)" d="M303 434a3569.4 3569.4 0 0 0 156.3 3.3A3328.8 3328.8 0 0 0 605 434v16c-47.83 2.74-95.7 4.1-143.59 4.18-52.49.09-104.97-1.35-157.41-4.18l-1-16Z" class="Curve"/><path fill="url(#e)" d="M303.22 376.14a3596.17 3596.17 0 0 0 301.62 0v15.82c-48.48 2.78-97 4.15-145.54 4.22-52.04.06-104.09-1.38-156.08-4.22v-15.82Z" class="Curve"/><path fill="url(#f)" d="M328.18 314.97h251.94c15.77 0 26.4 10.34 27.69 23.1 1.9 19-13.46 32.79-27.7 27.7-8.8-3.13-14.4-15.77-24.9-21.93-9.1-5.33-20.78-5.57-30.46-1.16-16.3 7.44-25.06 28-36.97 30.3-15.67 3.01-34.08-25.53-57.17-25.68-12.85-.08-26.73 8.92-41.53 16.17-15.12 7.41-30.54 12.4-41.52 6.93-9.19-4.58-14.79-16.75-23.54-19.63-5.25-1.74-11.3-.2-15.93-2.05-9.79-3.9-12.4-17.26-4.22-26.37 4.78-5.32 13.38-7.38 24.3-7.38Z" class="Curve"/><path fill="#B7698A" d="M377.04 281.22h27.42v33.75h-27.42v-33.75Z" class="Curve"/><path fill="#CD977D" d="M440.32 281.22h27.42v33.75h-27.42v-33.75Z" class="Curve"/><path fill="#B7698A" d="M503.6 281.22H531v33.75H503.6v-33.75Z" class="Curve"/><path fill="#E96C4C" d="M348 262a44.86 44.86 0 0 1 45-45c24.9.03 45 20.1 45 45s-20.1 44.97-45 45a44.86 44.86 0 0 1-45-45ZM473 259a44.86 44.86 0 0 1 45-45c24.9.03 45 20.1 45 45s-20.1 44.97-45 45a44.86 44.86 0 0 1-45-45Z" class="Curve" opacity=".2"/><path fill="#E96C4C" d="M407 256a44.86 44.86 0 0 1 45-45c24.9.03 45 20.1 45 45s-20.1 44.97-45 45a44.86 44.86 0 0 1-45-45Z" class="Curve" opacity=".3"/><path fill="#E96C4C" d="M454.03 219a212.54 212.54 0 0 0-11.6 24.26c-3.84 9.59-7.17 18.92-4.22 26.36a16.86 16.86 0 0 0 16.87 10.55c8-.6 14.25-6.48 14.77-13.71.55-7.73-7.1-15.55-11.6-25.31a45.56 45.56 0 0 1-4.22-22.15Z" class="Curve"/><path fill="#E7B643" d="M455.51 276.78c-3.84-.12-7.38-3.79-9.02-9.02-2.7-8.56.88-19.47 8.12-29.78-.42 4.77.6 9.49 2.7 13.54 2.04 3.93 5.19 7.13 6.32 10.83 2.39 7.8-2.02 14.64-8.12 14.43Z" class="Curve"/><path fill="#E96C4C" d="M515.79 229.03a177.68 177.68 0 0 1 9.7 20.28c3.2 8.02 6 15.83 3.53 22.05a14.1 14.1 0 0 1-14.11 8.82c-6.69-.5-11.92-5.42-12.35-11.47-.46-6.45 5.93-13 9.7-21.16a38.1 38.1 0 0 0 3.53-18.52ZM390.75 231.66c3.48 6.28 6.6 12.7 9.25 19.36 3.07 7.65 5.73 15.1 3.37 21.04a13.46 13.46 0 0 1-13.47 8.42c-6.38-.48-11.37-5.17-11.78-10.94-.44-6.17 5.66-12.42 9.26-20.2a36.37 36.37 0 0 0 3.37-17.68Z" class="Curve"/><path fill="#E7B643" d="M514.9 277.53c3.76-.12 7.22-3.7 8.83-8.82 2.63-8.36-.87-19.02-7.94-29.1.4 4.66-.6 9.27-2.65 13.23-1.99 3.84-5.06 6.97-6.17 10.58-2.33 7.63 1.98 14.3 7.94 14.11ZM391.02 277.7c2.89-.1 5.55-2.85 6.79-6.79 2.02-6.43-.67-14.63-6.1-22.38.3 3.58-.46 7.13-2.04 10.17-1.54 2.96-3.9 5.36-4.75 8.14-1.8 5.87 1.52 11 6.1 10.85Z" class="Curve"/><path fill="#E7B643" d="M311.66 193c2.67 4.8 5.04 9.7 7.08 14.8 2.34 5.84 4.37 11.54 2.57 16.07a10.28 10.28 0 0 1-10.29 6.43c-4.88-.36-8.69-3.95-9-8.36-.34-4.7 4.32-9.48 7.07-15.43a27.78 27.78 0 0 0 2.57-13.51ZM171.15 196c2.8 5.04 5.29 10.2 7.43 15.53 2.45 6.14 4.59 12.12 2.7 16.88a10.8 10.8 0 0 1-10.8 6.76c-5.13-.38-9.13-4.15-9.46-8.78-.35-4.95 4.54-9.96 7.43-16.2a29.17 29.17 0 0 0 2.7-14.19Z" class="Curve" opacity=".5"/><path fill="#CD977D" d="m531.01 319.19 52.74 1.05c8.99.18 15.77 6.27 17.92 14.77a19.6 19.6 0 0 1-5.27 18.98 26.38 26.38 0 0 0-9.49-17.93c-6.13-5.14-14.64-7.34-23.2-9.49a668.3 668.3 0 0 0-32.7-7.38ZM362.99 320.24h-41.13c-8.13 0-14.64 4.7-16.87 11.6a13.54 13.54 0 0 0 2.1 12.66c2.23-4.96 6-8.83 10.55-11.6 6.52-3.98 14.89-5.7 23.2-7.38 7.45-1.52 14.75-3.6 22.15-5.28Z" class="Curve"/><path fill="#E96C4C" d="M399 41.7v163.45h67.94c24.44 0 46.27-9 61.03-25.54 13.65-15.3 20.3-36.04 20.43-57.46.14-21.71-6.36-42.74-20.43-57.47-14.92-15.62-37.3-22.98-62.31-22.98H399ZM444.97 80h20.43c22 0 36.42 18.8 37.03 42.15.64 24.67-14.16 44.69-37.03 44.69h-20.43V80Zm157.06-38.3L548.4 205.15h49.8l7.66-25.54h61.3l7.65 25.54h48.53L668.43 41.7h-66.4Zm31.92 35.75h3.83l19.16 68.96h-40.86l17.87-68.96ZM737.38 41.7v163.45h45.97l.04-48.53h19.12l24.26 48.53h50.34l-32.47-58.74a64.86 64.86 0 0 0 15.33-19.16c6.87-12.79 10.11-26.97 8.17-40.86-1.4-9.98-5.3-19.38-12-26.81-10.65-11.8-27.44-17.88-45.97-17.88h-72.79Zm45.97 34.48h21.71c6.7 0 12.62 2.85 16.6 7.66a23.46 23.46 0 0 1 5.1 16.6c-.56 7.96-4.75 15.12-11.49 19.15-4.68 2.8-10.4 3.83-16.6 3.83h-15.32V76.18ZM895.72 41.7v163.45h42.75v-65.13h16.6l38.31 65.13h51.04l-53.6-85.56 48.48-77.89h-47.2l-39.58 62.57h-14.04V41.7h-42.76Zm381.8 0v163.45h107.26v-38.31h-63.85v-24.26h57.47v-38.31h-57.47V80h60V41.7h-103.41Zm616.75 0v163.45h45.97l.04-48.53h19.11l24.26 48.53H2034l-32.47-58.74a64.86 64.86 0 0 0 15.32-19.16c6.88-12.79 10.12-26.97 8.18-40.86-1.4-9.98-5.3-19.38-12-26.81-10.65-11.8-27.45-17.88-45.98-17.88h-72.78Zm45.97 34.48h21.7c6.7 0 12.63 2.85 16.6 7.66a23.46 23.46 0 0 1 5.11 16.6c-.56 7.96-4.76 15.12-11.49 19.15-4.68 2.8-10.4 3.83-16.6 3.83h-15.33V76.18ZM1120.46 41.7v163.45h45.97l.04-48.53h19.11l24.26 48.53h50.35l-32.47-58.74a64.86 64.86 0 0 0 15.32-19.16c6.87-12.79 10.12-26.97 8.17-40.86-1.4-9.98-5.29-19.38-12-26.81-10.64-11.8-27.44-17.88-45.97-17.88h-72.78Zm45.97 34.48h21.7c6.7 0 12.63 2.85 16.6 7.66a23.46 23.46 0 0 1 5.11 16.6c-.56 7.96-4.76 15.12-11.49 19.15-4.69 2.8-10.4 3.83-16.6 3.83h-15.33V76.18Zm282.2-34.48L1395 205.15h49.8l7.66-25.54h61.29l7.66 25.54h48.52l-54.9-163.45h-66.4Zm31.92 35.75h3.83l19.15 68.96h-40.86l17.88-68.96Zm105.98-35.75v163.45h67.95c24.43 0 46.27-9 61.02-25.54 13.65-15.3 20.3-36.04 20.43-57.46.14-21.71-6.36-42.74-20.43-57.47-14.92-15.62-37.29-22.98-62.3-22.98h-66.67ZM1632.5 80h20.43c22 0 36.43 18.8 37.03 42.15.64 24.67-14.15 44.69-37.03 44.69h-20.43V80Zm127.7-38.3v163.45h107.25v-38.31h-63.84v-24.26h57.46v-38.31h-57.46V80h60V41.7h-103.42Z" class="Curve"/><g fill="#E96C4C"><path d="M699.25 307.1q0 14.38-7.28 22.62-7.27 8.24-20.22 8.24-13.24 0-20.43-8.1-7.2-8.09-7.2-22.84 0-14.64 7.22-22.69 7.21-8.05 20.49-8.05 12.9 0 20.16 8.2t7.26 22.62m-47.75 0q0 12.17 5.18 18.46 5.19 6.3 15.07 6.3 9.96 0 15.04-6.28 5.08-6.27 5.08-18.48 0-12.1-5.06-18.34-5.06-6.25-14.98-6.25-9.96 0-15.15 6.29-5.18 6.29-5.18 18.3Zm90.82 30.04v-29.06q0-5.5-2.5-8.2-2.5-2.7-7.83-2.7-7.05 0-10.32 3.81-3.28 3.81-3.28 12.58v23.57h-6.8v-44.92h5.53l1.1 6.15h.33q2.1-3.32 5.86-5.15 3.77-1.82 8.4-1.82 8.12 0 12.22 3.91 4.1 3.92 4.1 12.53v29.3h-6.8Zm34.88 15.78q-3.85 0-6.07-1.1v-5.95q2.91.82 6.07.82 4.06 0 6.17-2.46 2.1-2.46 2.1-7.1v-59.91h6.98v59.35q0 7.78-3.94 12.07-3.93 4.28-11.31 4.28Zm36.52-60.7v29.14q0 5.5 2.5 8.2 2.5 2.7 7.83 2.7 7.05 0 10.3-3.85 3.26-3.85 3.26-12.58v-23.61h6.8v44.92h-5.61l-.98-6.03h-.37q-2.1 3.32-5.8 5.09-3.71 1.76-8.46 1.76-8.2 0-12.28-3.9-4.08-3.89-4.08-12.45v-29.39h6.89Zm51.93 44.92h-6.8v-63.77h6.8v63.77Zm7.3-44.92h7.29l9.83 25.62q3.24 8.77 4.02 12.66h.33q.53-2.09 2.23-7.15 1.7-5.06 11.13-31.13h7.3l-19.31 51.15q-2.87 7.58-6.7 10.76-3.83 3.17-9.4 3.17-3.12 0-6.16-.7v-5.44q2.26.49 5.05.49 7 0 10-7.87l2.5-6.4-18.12-45.16Zm75.69 44.92 24.84-53.65H940.8v-6.27h39.88v5.45l-24.51 54.47h-7.54Zm58.03-4.8q1.8 0 3.49-.26 1.68-.27 2.66-.56v5.2q-1.1.54-3.26.9-2.15.34-3.87.34-13.03 0-13.03-13.73V297.5h-6.44v-3.28l6.44-2.83 2.87-9.59h3.93v10.41h13.03v5.29h-13.03v26.43q0 4.06 1.93 6.23 1.92 2.17 5.28 2.17Zm45.87 4.8v-29.06q0-5.5-2.5-8.2-2.5-2.7-7.83-2.7-7.1 0-10.35 3.85-3.26 3.85-3.26 12.63v23.48h-6.8v-63.77h6.8v19.3q0 3.48-.33 5.78h.41q2.01-3.24 5.72-5.1 3.7-1.87 8.46-1.87 8.24 0 12.36 3.92 4.12 3.91 4.12 12.44v29.3h-6.8Zm79.26 0-8.24-26.35q-.78-2.42-2.9-10.99h-.34q-1.64 7.17-2.87 11.07l-8.48 26.27h-7.87l-12.25-44.92h7.13l6.62 25.78q2.27 8.85 2.6 11.93h.33q.45-2.34 1.45-6.05 1-3.7 1.75-5.88l8.23-25.78h7.38l8.03 25.78q2.3 7.05 3.12 11.84h.33q.16-1.47.88-4.55.71-3.07 8.54-33.07h7.05l-12.42 44.92h-8.07Zm47.58.82q-9.96 0-15.71-6.07-5.76-6.06-5.76-16.84 0-10.86 5.35-17.26 5.34-6.39 14.36-6.39 8.44 0 13.36 5.55 4.92 5.56 4.92 14.66v4.3h-30.94q.2 7.9 4 12 3.78 4.1 10.67 4.1 7.25 0 14.34-3.03v6.07q-3.6 1.56-6.82 2.23-3.22.68-7.77.68m-1.84-40.86q-5.41 0-8.63 3.52-3.22 3.53-3.79 9.76h23.48q0-6.44-2.86-9.86-2.87-3.42-8.2-3.42Zm69.71 40.86q-9.75 0-15.1-6t-5.35-17q0-11.26 5.43-17.41t15.47-6.15q3.24 0 6.48.7t5.08 1.64l-2.09 5.78q-2.25-.9-4.92-1.5-2.66-.6-4.71-.6-13.69 0-13.69 17.46 0 8.28 3.34 12.71 3.34 4.43 9.9 4.43 5.61 0 11.52-2.42v6.02q-4.51 2.34-11.36 2.34Zm40.99 0q-9.96 0-15.72-6.07-5.76-6.06-5.76-16.84 0-10.86 5.35-17.26 5.35-6.39 14.37-6.39 8.44 0 13.36 5.55 4.91 5.56 4.91 14.66v4.3h-30.94q.2 7.9 4 12 3.79 4.1 10.67 4.1 7.26 0 14.35-3.03v6.07q-3.6 1.56-6.83 2.23-3.21.68-7.76.68m-1.85-40.86q-5.4 0-8.62 3.52-3.22 3.53-3.8 9.76h23.49q0-6.44-2.87-9.86-2.87-3.42-8.2-3.42Zm36.77 40.04h-6.8v-63.77h6.8v63.77Zm33.4.82q-9.96 0-15.72-6.07-5.76-6.06-5.76-16.84 0-10.86 5.35-17.26 5.35-6.39 14.37-6.39 8.44 0 13.36 5.55 4.92 5.56 4.92 14.66v4.3h-30.95q.2 7.9 4 12 3.79 4.1 10.68 4.1 7.25 0 14.34-3.03v6.07q-3.6 1.56-6.82 2.23-3.22.68-7.77.68m-1.84-40.86q-5.41 0-8.63 3.52-3.22 3.53-3.8 9.76h23.5q0-6.44-2.88-9.86-2.87-3.42-8.2-3.42Zm50.86-5.62q8.85 0 13.75 6.05 4.9 6.04 4.9 17.1 0 11.07-4.94 17.2-4.94 6.13-13.71 6.13-4.39 0-8.02-1.62-3.62-1.62-6.08-4.98h-.5l-1.43 5.78h-4.88v-63.77h6.8v15.49q0 5.2-.32 9.34h.33q4.75-6.72 14.1-6.72m-.99 5.7q-6.96 0-10.04 4-3.07 4-3.07 13.46 0 9.47 3.15 13.54 3.16 4.08 10.13 4.08 6.27 0 9.34-4.57 3.08-4.57 3.08-13.13 0-8.77-3.08-13.08-3.07-4.3-9.5-4.3Zm52.01-5.78q3 0 5.37.5l-.94 6.3q-2.79-.61-4.92-.61-5.45 0-9.32 4.43-3.88 4.42-3.88 11.02v24.1h-6.8v-44.92h5.62l.77 8.32h.33q2.5-4.39 6.03-6.76 3.52-2.38 7.74-2.38Zm39.72 45.74-1.36-6.4h-.32q-3.36 4.23-6.7 5.72-3.34 1.5-8.34 1.5-6.68 0-10.48-3.44-3.79-3.45-3.79-9.8 0-13.6 21.77-14.26l7.62-.25v-2.78q0-5.3-2.28-7.81-2.27-2.52-7.27-2.52-5.62 0-12.7 3.44l-2.1-5.2q3.32-1.8 7.28-2.83 3.95-1.03 7.93-1.03 8.03 0 11.9 3.57 3.88 3.56 3.88 11.43v30.66h-5.04m-15.37-4.8q6.35 0 9.98-3.48 3.62-3.48 3.62-9.75v-4.06l-6.8.29q-8.11.28-11.7 2.52-3.59 2.23-3.59 6.94 0 3.7 2.24 5.62 2.23 1.92 6.25 1.92Zm48.93 0q1.8 0 3.49-.26 1.68-.27 2.66-.56v5.2q-1.1.54-3.26.9-2.15.34-3.87.34-13.03 0-13.03-13.73V297.5h-6.44v-3.28l6.44-2.83 2.87-9.59h3.93v10.41h13.03v5.29h-13.03v26.43q0 4.06 1.93 6.23 1.92 2.17 5.28 2.17Zm34.1 5.62q-9.96 0-15.71-6.07-5.76-6.06-5.76-16.84 0-10.86 5.35-17.26 5.34-6.39 14.36-6.39 8.44 0 13.36 5.55 4.92 5.56 4.92 14.66v4.3h-30.94q.2 7.9 4 12 3.78 4.1 10.67 4.1 7.25 0 14.34-3.03v6.07q-3.6 1.56-6.82 2.23-3.22.68-7.77.68m-1.84-40.86q-5.41 0-8.63 3.52-3.22 3.53-3.79 9.76h23.48q0-6.44-2.86-9.86-2.87-3.42-8.2-3.42Zm73.85 40.04h-6.64v-42.7q0-5.33.33-10.09-.86.86-1.92 1.8-1.07.95-9.76 8l-3.6-4.68 15.86-12.25h5.73v59.92Zm62.5-30.04q0 15.53-4.9 23.2-4.9 7.66-14.97 7.66-9.68 0-14.72-7.85-5.04-7.85-5.04-23.01 0-15.66 4.88-23.24 4.88-7.58 14.88-7.58 9.75 0 14.81 7.9 5.06 7.92 5.06 22.92m-32.74 0q0 13.07 3.07 19.03 3.08 5.97 9.8 5.97 6.8 0 9.85-6.05 3.06-6.04 3.06-18.95t-3.06-18.92q-3.05-6-9.85-6-6.72 0-9.8 5.92-3.07 5.92-3.07 19Zm58.81-14.88h7.3l9.83 25.62q3.24 8.77 4.02 12.66h.33q.53-2.09 2.23-7.15 1.7-5.06 11.13-31.13h7.3l-19.31 51.15q-2.87 7.58-6.7 10.76-3.83 3.17-9.4 3.17-3.12 0-6.16-.7v-5.44q2.26.49 5.05.49 7 0 10-7.87l2.5-6.4-18.12-45.16Zm68.4 45.74q-9.95 0-15.71-6.07-5.76-6.06-5.76-16.84 0-10.86 5.35-17.26 5.35-6.39 14.36-6.39 8.44 0 13.36 5.55 4.92 5.56 4.92 14.66v4.3h-30.94q.2 7.9 4 12 3.78 4.1 10.67 4.1 7.25 0 14.34-3.03v6.07q-3.6 1.56-6.82 2.23-3.22.68-7.77.68m-1.84-40.86q-5.41 0-8.63 3.52-3.21 3.53-3.79 9.76h23.49q0-6.44-2.87-9.86-2.87-3.42-8.2-3.42Zm57.58 40.04-1.35-6.4h-.33q-3.36 4.23-6.7 5.72-3.34 1.5-8.34 1.5-6.68 0-10.47-3.44-3.8-3.45-3.8-9.8 0-13.6 21.77-14.26l7.63-.25v-2.78q0-5.3-2.28-7.81-2.27-2.52-7.27-2.52-5.62 0-12.71 3.44l-2.09-5.2q3.32-1.8 7.27-2.83 3.96-1.03 7.94-1.03 8.03 0 11.9 3.57 3.87 3.56 3.87 11.43v30.66h-5.04m-15.37-4.8q6.36 0 9.98-3.48 3.63-3.48 3.63-9.75v-4.06l-6.8.29q-8.12.28-11.7 2.52-3.59 2.23-3.59 6.94 0 3.7 2.23 5.62 2.24 1.92 6.25 1.92Zm54.92-40.94q3 0 5.37.5l-.94 6.3q-2.79-.61-4.92-.61-5.45 0-9.32 4.43-3.88 4.42-3.88 11.02v24.1h-6.8v-44.92h5.62l.77 8.32h.33q2.5-4.39 6.03-6.76 3.52-2.38 7.74-2.38ZM1931 324.9q0 6.27-4.67 9.67-4.67 3.4-13.12 3.4-8.93 0-13.93-2.83v-6.31q3.24 1.64 6.95 2.58 3.7.94 7.15.94 5.33 0 8.2-1.7 2.86-1.7 2.86-5.18 0-2.62-2.27-4.49-2.28-1.86-8.87-4.4-6.28-2.34-8.92-4.08-2.64-1.74-3.93-3.96-1.3-2.21-1.3-5.28 0-5.5 4.47-8.67 4.47-3.18 12.26-3.18 7.25 0 14.18 2.95l-2.42 5.53q-6.76-2.78-12.25-2.78-4.84 0-7.3 1.51-2.46 1.52-2.46 4.18 0 1.8.92 3.08.93 1.27 2.97 2.42 2.05 1.14 7.87 3.32 8 2.9 10.8 5.86 2.81 2.95 2.81 7.41ZM682.09 436.62q0 7.91-5.74 12.34-5.74 4.42-15.57 4.42-10.66 0-16.4-2.74v-6.72q3.7 1.55 8.04 2.45 4.34.9 8.6.9 6.97 0 10.5-2.64 3.52-2.64 3.52-7.35 0-3.12-1.25-5.1-1.25-2-4.18-3.67-2.93-1.69-8.91-3.82-8.36-2.99-11.95-7.09t-3.59-10.7q0-6.92 5.2-11.02 5.21-4.1 13.78-4.1 8.93 0 16.43 3.28l-2.17 6.07q-7.42-3.12-14.43-3.12-5.53 0-8.64 2.38-3.12 2.38-3.12 6.6 0 3.11 1.15 5.1 1.15 1.99 3.87 3.65 2.73 1.66 8.34 3.67 9.43 3.36 12.97 7.21 3.55 3.85 3.55 10Zm25.74 11.15q1.8 0 3.48-.27 1.68-.26 2.67-.55v5.2q-1.11.54-3.26.88-2.15.35-3.88.35-13.03 0-13.03-13.73v-26.72h-6.43v-3.28l6.43-2.83 2.87-9.59h3.94v10.41h13.03v5.3h-13.03v26.43q0 4.05 1.92 6.23 1.93 2.17 5.29 2.17Zm42.75 4.8-1.36-6.4h-.32q-3.37 4.22-6.7 5.72-3.35 1.5-8.35 1.5-6.68 0-10.47-3.45-3.79-3.44-3.79-9.8 0-13.6 21.76-14.26l7.63-.24v-2.8q0-5.28-2.28-7.8-2.27-2.52-7.27-2.52-5.62 0-12.7 3.44l-2.1-5.2q3.32-1.8 7.28-2.83 3.95-1.02 7.93-1.02 8.03 0 11.9 3.56 3.88 3.57 3.88 11.44v30.65h-5.04m-15.37-4.8q6.35 0 9.98-3.48 3.62-3.48 3.62-9.75v-4.06l-6.8.29q-8.12.29-11.7 2.52-3.59 2.23-3.59 6.95 0 3.69 2.24 5.61 2.23 1.93 6.25 1.93Zm27.3-40.12h7.29l9.83 25.62q3.24 8.77 4.02 12.66h.33q.53-2.09 2.23-7.15 1.7-5.06 11.13-31.13h7.3l-19.3 51.15q-2.88 7.59-6.71 10.76-3.83 3.18-9.4 3.18-3.12 0-6.15-.7v-5.45q2.25.5 5.04.5 7 0 10-7.88l2.5-6.4-18.12-45.16Zm85.73 40.13q1.8 0 3.49-.27 1.68-.26 2.66-.55v5.2q-1.1.54-3.26.88-2.15.35-3.87.35-13.03 0-13.03-13.73v-26.72h-6.44v-3.28l6.44-2.83 2.86-9.59h3.94v10.41h13.03v5.3h-13.03v26.43q0 4.05 1.92 6.23 1.93 2.17 5.3 2.17Zm21.52-40.13v29.14q0 5.5 2.5 8.2 2.5 2.7 7.83 2.7 7.05 0 10.3-3.85 3.26-3.85 3.26-12.58v-23.6h6.8v44.91h-5.6l-1-6.02h-.36q-2.1 3.32-5.8 5.08-3.7 1.76-8.46 1.76-8.2 0-12.28-3.89-4.08-3.9-4.08-12.46v-29.39h6.89Zm75.86 44.92v-29.05q0-5.5-2.5-8.2-2.5-2.7-7.83-2.7-7.05 0-10.32 3.8-3.28 3.82-3.28 12.59v23.56h-6.8v-44.92h5.53l1.1 6.15h.33q2.1-3.32 5.86-5.14 3.77-1.83 8.4-1.83 8.12 0 12.22 3.92 4.1 3.91 4.1 12.52v29.3h-6.8Zm39.76.82q-9.96 0-15.72-6.06-5.76-6.07-5.76-16.85 0-10.86 5.35-17.25 5.35-6.4 14.36-6.4 8.45 0 13.37 5.56 4.91 5.55 4.91 14.65v4.3h-30.94q.2 7.91 4 12.01 3.79 4.1 10.67 4.1 7.26 0 14.35-3.03v6.06q-3.61 1.56-6.83 2.24-3.21.67-7.76.67m-1.85-40.86q-5.4 0-8.62 3.53-3.22 3.52-3.8 9.75h23.49q0-6.43-2.87-9.86-2.87-3.42-8.2-3.42Zm60.54 34.02h-.37q-4.72 6.84-14.1 6.84-8.81 0-13.71-6.02-4.9-6.03-4.9-17.13 0-11.11 4.92-17.26 4.92-6.15 13.69-6.15 9.14 0 14.02 6.64h.53l-.29-3.23-.16-3.16v-18.28h6.8v63.77h-5.53l-.9-6.02m-13.61 1.15q6.97 0 10.1-3.8 3.14-3.79 3.14-12.23v-1.43q0-9.55-3.18-13.63-3.17-4.08-10.14-4.08-5.99 0-9.16 4.65-3.18 4.65-3.18 13.14 0 8.6 3.16 13 3.15 4.38 9.26 4.38Zm76.52-34.76h-11.44v39.63h-6.8v-39.63h-8.03v-3.07l8.03-2.46v-2.5q0-16.56 14.47-16.56 3.56 0 8.36 1.43l-1.76 5.46q-3.94-1.27-6.73-1.27-3.85 0-5.7 2.56-1.84 2.56-1.84 8.21v2.91h11.44v5.3Zm46.97 17.13q0 10.99-5.54 17.15-5.53 6.17-15.28 6.17-6.03 0-10.7-2.82-4.67-2.83-7.21-8.12-2.55-5.29-2.55-12.38 0-10.98 5.5-17.1 5.49-6.14 15.24-6.14 9.43 0 14.98 6.28 5.56 6.27 5.56 16.96m-34.23 0q0 8.61 3.45 13.12 3.44 4.5 10.12 4.5t10.14-4.48q3.47-4.49 3.47-13.14 0-8.56-3.47-13.01-3.46-4.45-10.22-4.45-6.68 0-10.08 4.39-3.4 4.38-3.4 13.07Zm66.65-23.24q2.99 0 5.36.5l-.94 6.3q-2.79-.6-4.92-.6-5.45 0-9.32 4.42-3.87 4.43-3.87 11.02v24.1h-6.8v-44.92h5.6l.79 8.32h.32q2.5-4.38 6.03-6.76 3.52-2.38 7.75-2.38Zm63.2 45.74-1.36-6.39h-.33q-3.36 4.22-6.7 5.72-3.34 1.5-8.34 1.5-6.68 0-10.47-3.45-3.8-3.44-3.8-9.8 0-13.6 21.77-14.26l7.63-.24v-2.8q0-5.28-2.28-7.8-2.27-2.52-7.27-2.52-5.62 0-12.7 3.44l-2.1-5.2q3.32-1.8 7.28-2.83 3.95-1.02 7.93-1.02 8.03 0 11.9 3.56 3.87 3.57 3.87 11.44v30.65h-5.04m-15.37-4.8q6.36 0 9.98-3.48 3.63-3.48 3.63-9.75v-4.06l-6.8.29q-8.12.29-11.7 2.52-3.59 2.23-3.59 6.95 0 3.69 2.23 5.61 2.24 1.93 6.25 1.93Zm77.14-40.85q8.85 0 13.75 6.04 4.9 6.05 4.9 17.11 0 11.07-4.94 17.2-4.94 6.12-13.71 6.12-4.39 0-8.01-1.62-3.63-1.61-6.1-4.98h-.48l-1.44 5.78h-4.87V388.8h6.8v15.5q0 5.2-.33 9.34h.33q4.75-6.72 14.1-6.72m-.99 5.7q-6.96 0-10.04 3.99-3.07 4-3.07 13.46 0 9.47 3.15 13.55 3.16 4.08 10.13 4.08 6.27 0 9.34-4.57 3.08-4.57 3.08-13.14 0-8.77-3.08-13.07-3.07-4.3-9.5-4.3Zm38.32 39.95h-6.8v-44.92h6.8v44.92m-7.37-57.09q0-2.33 1.14-3.42 1.15-1.09 2.87-1.09 1.64 0 2.83 1.11 1.19 1.1 1.19 3.4t-1.19 3.42q-1.19 1.13-2.83 1.13-1.72 0-2.87-1.13-1.14-1.12-1.14-3.42Zm58.56 12.17v4.3l-8.32 1q1.15 1.43 2.05 3.74.9 2.32.9 5.23 0 6.6-4.5 10.53-4.51 3.93-12.38 3.93-2 0-3.77-.32-4.35 2.3-4.35 5.78 0 1.84 1.52 2.72 1.52.88 5.2.88h7.96q7.3 0 11.2 3.08 3.92 3.07 3.92 8.93 0 7.46-5.98 11.37-5.99 3.92-17.46 3.92-8.81 0-13.59-3.28-4.77-3.28-4.77-9.26 0-4.1 2.62-7.1 2.62-2.99 7.38-4.05-1.72-.78-2.9-2.42-1.16-1.64-1.16-3.81 0-2.46 1.31-4.3 1.31-1.85 4.14-3.57-3.48-1.43-5.68-4.88-2.19-3.44-2.19-7.87 0-7.37 4.43-11.37 4.42-4 12.54-4 3.52 0 6.35.82h15.53m-35.82 52.46q0 3.65 3.08 5.54 3.07 1.88 8.81 1.88 8.57 0 12.68-2.56 4.12-2.56 4.12-6.95 0-3.64-2.25-5.06-2.26-1.41-8.48-1.41h-8.16q-4.63 0-7.21 2.21-2.59 2.22-2.59 6.35m3.7-38.07q0 4.71 2.66 7.13t7.41 2.42q9.96 0 9.96-9.67 0-10.13-10.08-10.13-4.8 0-7.38 2.59-2.58 2.58-2.58 7.66Zm92.13 18.28q0 6.27-4.68 9.67-4.67 3.4-13.11 3.4-8.94 0-13.94-2.82v-6.32q3.24 1.64 6.95 2.59 3.71.94 7.15.94 5.33 0 8.2-1.7 2.87-1.7 2.87-5.19 0-2.62-2.28-4.49-2.27-1.86-8.87-4.4-6.27-2.34-8.91-4.08-2.65-1.74-3.94-3.95-1.29-2.22-1.29-5.3 0-5.48 4.47-8.66 4.47-3.18 12.25-3.18 7.26 0 14.18 2.96l-2.41 5.53q-6.77-2.79-12.26-2.79-4.84 0-7.3 1.52-2.45 1.51-2.45 4.18 0 1.8.92 3.07.92 1.27 2.97 2.42 2.05 1.15 7.87 3.32 8 2.91 10.8 5.86 2.8 2.95 2.8 7.42Zm17.46-32.67v29.14q0 5.5 2.5 8.2 2.5 2.7 7.82 2.7 7.05 0 10.31-3.85 3.26-3.85 3.26-12.58v-23.6h6.8v44.91h-5.61l-.99-6.02h-.36q-2.1 3.32-5.8 5.08-3.71 1.76-8.47 1.76-8.2 0-12.27-3.89-4.08-3.9-4.08-12.46v-29.39h6.89Zm65.61-.82q3 0 5.37.5l-.94 6.3q-2.79-.6-4.92-.6-5.45 0-9.32 4.42-3.88 4.43-3.88 11.02v24.1h-6.8v-44.92h5.61l.78 8.32h.33q2.5-4.38 6.03-6.76 3.52-2.38 7.74-2.38Zm34.67 46.56q-4.38 0-8-1.62-3.63-1.61-6.1-4.98h-.49q.5 3.94.5 7.46v18.49h-6.8v-65.09h5.53l.94 6.15h.33q2.62-3.69 6.1-5.33 3.49-1.64 8-1.64 8.93 0 13.79 6.11 4.85 6.1 4.85 17.13 0 11.07-4.94 17.2-4.93 6.12-13.7 6.12m-.99-40.78q-6.88 0-9.96 3.81-3.07 3.82-3.15 12.14v1.51q0 9.47 3.15 13.55 3.16 4.08 10.13 4.08 5.82 0 9.11-4.72 3.3-4.71 3.3-12.99 0-8.4-3.3-12.89t-9.28-4.49Zm52.01-5.78q3 0 5.37.5l-.94 6.3q-2.79-.6-4.92-.6-5.45 0-9.32 4.42-3.88 4.43-3.88 11.02v24.1h-6.8v-44.92h5.61l.78 8.32h.33q2.5-4.38 6.02-6.76 3.53-2.38 7.75-2.38Zm20.58 45.74h-6.8v-44.92h6.8v44.92m-7.38-57.09q0-2.33 1.15-3.42 1.14-1.09 2.86-1.09 1.64 0 2.83 1.11 1.2 1.1 1.2 3.4t-1.2 3.42q-1.19 1.13-2.83 1.13-1.72 0-2.86-1.13-1.15-1.12-1.15-3.42Zm50.53 57.1h-32.58v-4.64l24.5-35h-22.98v-5.29h30.45v5.3l-24.18 34.34h24.8v5.28Zm29.51.81q-9.96 0-15.72-6.06-5.75-6.07-5.75-16.85 0-10.86 5.34-17.25 5.35-6.4 14.37-6.4 8.44 0 13.36 5.56 4.92 5.55 4.92 14.65v4.3h-30.95q.2 7.91 4 12.01t10.68 4.1q7.25 0 14.34-3.03v6.06q-3.6 1.56-6.82 2.24-3.22.67-7.77.67m-1.84-40.86q-5.41 0-8.63 3.53-3.22 3.52-3.8 9.75h23.5q0-6.43-2.88-9.86-2.87-3.42-8.2-3.42Zm36.1 23.53h-4.3l-2.09-43.4h8.48l-2.09 43.4m-7.13 12.17q0-5.57 4.92-5.57 2.38 0 3.67 1.43t1.29 4.14q0 2.62-1.31 4.08-1.31 1.45-3.65 1.45-2.13 0-3.52-1.29-1.4-1.29-1.4-4.24Z" class="Text"/></g></svg>