<svg xmlns="http://www.w3.org/2000/svg" width="82" height="82" viewBox="0 0 82 82" fill="none">
<g transform="translate(-81, -25)">
<path fill-rule="evenodd" clip-rule="evenodd" d="M121.856 106.369C144.326 106.369 162.542 88.1972 162.542 65.7814C162.542 43.3656 144.326 25.194 121.856 25.194C99.3866 25.194 81.1711 43.3656 81.1711 65.7814C81.1711 88.1972 99.3866 106.369 121.856 106.369Z" fill="#DE5833"/>
<path fill-rule="evenodd" clip-rule="evenodd" d="M127.578 96.0634C127.578 95.7463 127.656 95.674 126.645 93.6649C123.96 88.3006 121.261 80.7378 122.489 75.8605C122.712 74.9744 119.959 43.0456 118.013 42.0174C115.85 40.8674 113.189 39.0432 110.754 38.6373C109.519 38.4402 107.9 38.5335 106.634 38.7036C106.409 38.7339 106.4 39.1373 106.615 39.21C107.446 39.4909 108.455 39.9786 109.05 40.7161C109.162 40.8556 109.011 41.0752 108.832 41.0818C108.271 41.1025 107.254 41.337 105.912 42.474C105.757 42.6055 105.886 42.8497 106.086 42.8103C108.97 42.2411 111.915 42.5215 113.65 44.0954C113.763 44.1975 113.704 44.3808 113.557 44.4206C98.4948 48.5041 101.477 61.5752 105.486 77.6159C109.103 92.0841 110.436 96.6237 110.842 97.9636C110.873 98.0671 110.945 98.1478 111.045 98.1882C116.207 100.267 127.578 100.371 127.578 96.8561V96.0634Z" fill="#DDDDDD"/>
<path fill-rule="evenodd" clip-rule="evenodd" d="M159.204 65.7814C159.204 86.3585 142.483 103.039 121.856 103.039C101.23 103.039 84.5085 86.3585 84.5085 65.7814C84.5085 45.2044 101.23 28.5234 121.856 28.5234C142.483 28.5234 159.204 45.2044 159.204 65.7814ZM113.14 98.7495C112.108 95.5691 109.224 86.3508 106.375 74.7012C106.28 74.3131 106.185 73.9267 106.091 73.5423L106.089 73.5327C102.64 59.4818 99.824 48.0054 115.26 44.4001C115.401 44.3671 115.47 44.1988 115.377 44.0883C113.606 41.9922 110.288 41.3052 106.093 42.7491C105.921 42.8083 105.771 42.6352 105.878 42.4882C106.701 41.357 108.308 40.4873 109.102 40.106C109.266 40.0272 109.256 39.7875 109.082 39.7333C108.563 39.5712 107.679 39.3231 106.685 39.163C106.45 39.1251 106.429 38.7229 106.665 38.6912C112.612 37.893 118.823 39.6743 121.94 43.5907C121.969 43.6276 122.011 43.6534 122.058 43.6633C133.47 46.1083 134.287 64.106 132.973 64.9257C132.714 65.0873 131.883 64.9946 130.787 64.8723C126.346 64.3766 117.553 63.3952 124.81 76.8883C124.882 77.0215 124.787 77.1979 124.637 77.2212C120.559 77.8538 125.753 90.5608 129.604 98.9886C144.743 95.4874 156.026 81.9489 156.026 65.7814C156.026 46.9556 140.728 31.6943 121.856 31.6943C102.985 31.6943 87.6871 46.9556 87.6871 65.7814C87.6871 81.6022 98.4911 94.9056 113.14 98.7495Z" fill="white"/>
<path d="M134.749 82.7128C133.88 82.3111 130.539 84.7011 128.322 86.5357C127.859 85.8817 126.985 85.4063 125.014 85.7482C123.289 86.0474 122.337 86.4623 121.912 87.1776C119.189 86.1478 114.609 84.5586 113.502 86.0934C112.293 87.7712 113.805 95.7079 115.411 96.7384C116.25 97.2764 120.262 94.7038 122.357 92.9297C122.695 93.4048 123.239 93.6768 124.358 93.6509C126.05 93.6117 128.794 93.2189 129.22 92.4328C129.246 92.3851 129.268 92.3286 129.287 92.2644C131.441 93.0673 135.231 93.917 136.078 93.7901C138.284 93.4595 135.77 83.1849 134.749 82.7128Z" fill="#3CA82B"/>
<path d="M128.525 86.7705C128.616 86.933 128.69 87.1044 128.752 87.2787C129.059 88.1352 129.56 90.86 129.181 91.533C128.803 92.206 126.346 92.5311 124.831 92.5571C123.315 92.5832 122.974 92.0303 122.667 91.1738C122.422 90.4886 122.301 88.8777 122.304 87.9553C122.242 86.587 122.743 86.106 125.059 85.7321C126.773 85.4554 127.679 85.7772 128.202 86.328C130.636 84.5161 134.696 81.9592 135.092 82.4265C137.066 84.7566 137.316 90.3034 136.888 92.535C136.749 93.2646 130.21 91.8122 130.21 91.0254C130.21 87.7584 129.361 86.8621 128.525 86.7705Z" fill="#4CBA3C"/>
<path d="M114.203 85.7502C114.738 84.9047 119.081 85.9562 121.465 87.0145C121.465 87.0145 120.975 89.2284 121.755 91.8368C121.983 92.5997 116.27 95.9955 115.525 95.4113C114.663 94.736 113.077 87.5273 114.203 85.7502Z" fill="#4CBA3C"/>
<path fill-rule="evenodd" clip-rule="evenodd" d="M116.306 68.576C116.657 67.0518 118.294 64.1798 124.139 64.2495C127.093 64.2373 130.764 64.2483 133.197 63.9725C136.814 63.5627 139.498 62.69 141.287 62.0098C143.817 61.0469 144.715 61.2616 145.03 61.8377C145.376 62.4708 144.968 63.5639 144.084 64.5702C142.396 66.4923 139.36 67.9817 133.999 68.4238C128.637 68.8658 125.086 67.4312 123.557 69.7669C122.897 70.7743 123.407 73.1487 128.592 73.8963C135.598 74.905 141.352 72.6809 142.063 74.0242C142.774 75.3674 138.678 78.1004 131.661 78.1576C124.644 78.2148 120.26 75.7065 118.706 74.4598C116.734 72.8779 115.851 70.5709 116.306 68.576Z" fill="#FFCC33"/>
<g opacity="0.8">
<path d="M125.243 51.91C125.634 51.2706 126.502 50.7771 127.923 50.7771C129.343 50.7771 130.011 51.341 130.474 51.9698C130.568 52.0977 130.426 52.2482 130.28 52.1852C130.244 52.1701 130.209 52.1546 130.173 52.1389C129.653 51.9125 129.015 51.6346 127.923 51.6191C126.754 51.6025 126.017 51.8945 125.553 52.1462C125.397 52.231 125.15 52.0616 125.243 51.91Z" fill="#14307E"/>
<path d="M109.251 52.728C110.63 52.153 111.714 52.2273 112.48 52.4082C112.642 52.4463 112.754 52.2731 112.625 52.1692C112.03 51.6906 110.699 51.0964 108.963 51.7423C107.414 52.3184 106.684 53.5155 106.679 54.3025C106.678 54.4879 107.061 54.5037 107.16 54.3467C107.427 53.9225 107.872 53.3031 109.251 52.728Z" fill="#14307E"/>
<path fill-rule="evenodd" clip-rule="evenodd" d="M129.129 60.6571C127.91 60.6571 126.921 59.6731 126.921 58.462C126.921 57.251 127.91 56.267 129.129 56.267C130.349 56.267 131.338 57.251 131.338 58.462C131.338 59.6731 130.349 60.6571 129.129 60.6571ZM130.685 57.7348C130.685 57.4213 130.427 57.1672 130.113 57.1672C129.799 57.1672 129.544 57.4213 129.541 57.7348C129.541 58.0484 129.799 58.3025 130.113 58.3025C130.43 58.3025 130.685 58.0484 130.685 57.7348Z" fill="#14307E"/>
<path fill-rule="evenodd" clip-rule="evenodd" d="M114.497 59.9812C114.497 61.395 113.345 62.5411 111.923 62.5411C110.503 62.5411 109.348 61.395 109.348 59.9812C109.348 58.5674 110.503 57.4212 111.923 57.4212C113.343 57.4212 114.497 58.5674 114.497 59.9812ZM113.738 59.1323C113.738 58.7674 113.44 58.47 113.072 58.47C112.706 58.47 112.408 58.7647 112.405 59.1323C112.405 59.4973 112.703 59.7946 113.072 59.7946C113.44 59.7946 113.738 59.4973 113.738 59.1323Z" fill="#14307E"/>
</g>
</g>
</svg>