<svg width="515" height="283" viewBox="0 0 515 283" fill="none" xmlns="http://www.w3.org/2000/svg">
<g clip-path="url(#clip0_35_526)">
<rect width="514.823" height="282.475" rx="41" fill="white"/>
<g clip-path="url(#clip1_35_526)">
<rect width="525.145" height="373.621" transform="matrix(-1 0 0 1 524.823 0)" fill="#DE5833"/>
<g filter="url(#filter0_f_35_526)">
<rect opacity="0.8" width="457.317" height="295.488" rx="53.6284" transform="matrix(-0.371977 -0.928242 -0.928242 0.371977 170.396 531.503)" fill="#FFCC33"/>
<rect opacity="0.8" width="695.168" height="707.344" rx="347.584" transform="matrix(0.841285 0.540592 0.540592 -0.841285 198 484.078)" fill="#6B4EBA" fill-opacity="0.8"/>
</g>
</g>
<path d="M47.709 136H35.2013V106.311H47.6645C57.0119 106.311 63.7331 111.919 63.7331 121.133C63.7331 130.347 57.0119 136 47.709 136ZM47.6645 129.323C52.8723 129.323 55.8991 125.54 55.8991 121.133C55.8991 116.549 53.1394 112.988 47.709 112.988H42.8573V129.323H47.6645ZM88.729 136H81.8743V133.418C80.5389 134.932 78.0908 136.534 74.4409 136.534C69.5891 136.534 67.3636 133.73 67.3636 129.813V114.501H74.2183V126.964C74.2183 129.59 75.5537 130.481 77.7792 130.481C79.7377 130.481 81.0731 129.412 81.8743 128.389V114.501H88.729V136ZM104.032 136.534C97.3107 136.534 92.3254 131.949 92.3254 125.228C92.3254 118.507 97.3107 113.967 104.032 113.967C108.706 113.967 111.554 116.014 112.845 117.928L108.394 122.068C107.548 120.822 106.168 120.02 104.343 120.02C101.495 120.02 99.3137 121.979 99.3137 125.228C99.3137 128.478 101.495 130.481 104.343 130.481C106.168 130.481 107.548 129.59 108.394 128.389L112.845 132.573C111.554 134.442 108.706 136.534 104.032 136.534ZM138.039 136H129.581L124.863 128.389L122.816 130.837V136H115.961V106.311H122.816V123.092L129.359 114.501H137.638L129.715 124.294L138.039 136ZM152.945 136H140.438V106.311H152.901C162.248 106.311 168.969 111.919 168.969 121.133C168.969 130.347 162.248 136 152.945 136ZM152.901 129.323C158.109 129.323 161.135 125.54 161.135 121.133C161.135 116.549 158.376 112.988 152.945 112.988H148.094V129.323H152.901ZM193.965 136H187.111V133.418C185.775 134.932 183.327 136.534 179.677 136.534C174.826 136.534 172.6 133.73 172.6 129.813V114.501H179.455V126.964C179.455 129.59 180.79 130.481 183.016 130.481C184.974 130.481 186.309 129.412 187.111 128.389V114.501H193.965V136ZM209.268 136.534C202.547 136.534 197.562 131.949 197.562 125.228C197.562 118.507 202.547 113.967 209.268 113.967C213.942 113.967 216.791 116.014 218.082 117.928L213.63 122.068C212.785 120.822 211.405 120.02 209.58 120.02C206.731 120.02 204.55 121.979 204.55 125.228C204.55 128.478 206.731 130.481 209.58 130.481C211.405 130.481 212.785 129.59 213.63 128.389L218.082 132.573C216.791 134.442 213.942 136.534 209.268 136.534ZM243.275 136H234.818L230.1 128.389L228.052 130.837V136H221.197V106.311H228.052V123.092L234.595 114.501H242.874L234.951 124.294L243.275 136ZM260.229 136.534C251.372 136.534 244.161 130.614 244.161 121.178C244.161 111.741 251.372 105.821 260.229 105.821C266.861 105.821 270.867 109.338 272.915 113.032L266.505 116.37C265.393 114.412 263.123 112.587 260.229 112.587C255.378 112.587 251.95 116.281 251.95 121.178C251.95 126.029 255.378 129.768 260.229 129.768C262.41 129.768 264.636 128.878 265.704 127.988V125.673H259.027V118.952H273.36V130.748C270.2 134.264 265.838 136.534 260.229 136.534ZM287.945 136.534C280.645 136.534 276.283 131.282 276.283 125.228C276.283 119.175 280.645 113.967 287.945 113.967C295.333 113.967 299.696 119.175 299.696 125.228C299.696 131.282 295.333 136.534 287.945 136.534ZM287.945 130.481C290.971 130.481 292.663 128.121 292.663 125.228C292.663 122.38 290.971 120.02 287.945 120.02C285.007 120.02 283.315 122.38 283.315 125.228C283.315 128.121 285.007 130.481 287.945 130.481ZM332.235 136H314.875V106.311H331.701C337.621 106.311 340.38 110.139 340.38 113.878C340.38 117.572 338.11 120.065 335.306 120.688C338.466 121.178 340.959 124.204 340.959 127.943C340.959 132.261 338.066 136 332.235 136ZM329.965 117.617C331.523 117.617 332.591 116.771 332.591 115.302C332.591 113.878 331.523 112.988 329.965 112.988H322.531V117.617H329.965ZM330.232 129.323C332.057 129.323 333.17 128.389 333.17 126.786C333.17 125.317 332.101 124.294 330.232 124.294H322.531V129.323H330.232ZM351.806 136H344.951V114.501H351.806V117.127C353.23 115.391 355.99 113.922 358.527 113.922V120.51C358.127 120.377 357.548 120.332 356.836 120.332C355.055 120.332 352.696 121.089 351.806 122.29V136ZM371.925 136.534C364.625 136.534 360.263 131.282 360.263 125.228C360.263 119.175 364.625 113.967 371.925 113.967C379.314 113.967 383.676 119.175 383.676 125.228C383.676 131.282 379.314 136.534 371.925 136.534ZM371.925 130.481C374.952 130.481 376.643 128.121 376.643 125.228C376.643 122.38 374.952 120.02 371.925 120.02C368.987 120.02 367.296 122.38 367.296 125.228C367.296 128.121 368.987 130.481 371.925 130.481ZM413.729 136H406.34L402.289 122.691L398.283 136H390.895L384.529 114.501H391.562L395.034 127.676L399.263 114.501H405.361L409.589 127.676L413.017 114.501H420.094L413.729 136ZM430.604 136.534C426.731 136.534 422.77 135.243 420.499 133.196L423.348 128.3C424.951 129.724 428.378 131.193 430.915 131.193C432.963 131.193 433.808 130.614 433.808 129.679C433.808 127.009 421.301 129.768 421.301 121.044C421.301 117.261 424.595 113.967 430.515 113.967C434.164 113.967 437.191 115.124 439.506 116.816L436.88 121.667C435.589 120.421 433.141 119.308 430.559 119.308C428.957 119.308 427.888 119.931 427.888 120.777C427.888 123.136 440.352 120.688 440.352 129.501C440.352 133.596 436.746 136.534 430.604 136.534ZM454.211 136.534C447.579 136.534 442.505 132.217 442.505 125.228C442.505 118.997 447.178 113.967 453.9 113.967C460.265 113.967 464.894 118.641 464.894 125.94V127.498H449.582C450.072 129.412 451.852 131.015 454.968 131.015C456.481 131.015 458.974 130.347 460.22 129.19L463.203 133.685C461.066 135.599 457.505 136.534 454.211 136.534ZM458.351 122.825C458.173 121.311 457.06 119.486 453.9 119.486C450.917 119.486 449.76 121.267 449.493 122.825H458.351ZM475.125 136H468.27V114.501H475.125V117.127C476.549 115.391 479.309 113.922 481.846 113.922V120.51C481.446 120.377 480.867 120.332 480.155 120.332C478.374 120.332 476.015 121.089 475.125 122.29V136Z" fill="white"/>
<path fill-rule="evenodd" clip-rule="evenodd" d="M256.955 82C275.155 82 289.91 67.2254 289.91 49C289.91 30.7746 275.155 16 256.955 16C238.754 16 224 30.7746 224 49C224 67.2254 238.754 82 256.955 82Z" fill="#DE5833"/>
<path fill-rule="evenodd" clip-rule="evenodd" d="M261.589 73.621C261.589 73.3632 261.652 73.3044 260.834 71.6709C258.659 67.3094 256.473 61.1604 257.467 57.1949C257.648 56.4744 255.418 30.5144 253.842 29.6784C252.09 28.7434 249.934 27.2602 247.962 26.9302C246.962 26.7699 245.65 26.8458 244.625 26.9841C244.443 27.0087 244.435 27.3367 244.609 27.3958C245.282 27.6242 246.1 28.0208 246.582 28.6203C246.673 28.7338 246.55 28.9123 246.405 28.9177C245.951 28.9346 245.127 29.1252 244.04 30.0497C243.915 30.1566 244.019 30.3551 244.181 30.3231C246.517 29.8603 248.902 30.0883 250.308 31.3679C250.399 31.451 250.352 31.6 250.233 31.6323C238.032 34.9525 240.447 45.5801 243.695 58.6221C246.406 69.5051 247.532 73.4788 247.946 74.8753C248.026 75.144 248.221 75.362 248.484 75.4588C252.784 77.0413 261.589 77.0595 261.589 74.2655V73.621Z" fill="#DDDDDD"/>
<path fill-rule="evenodd" clip-rule="evenodd" d="M287.206 49C287.206 65.7303 273.662 79.293 256.955 79.293C240.247 79.293 226.703 65.7303 226.703 49C226.703 32.2697 240.247 18.707 256.955 18.707C273.662 18.707 287.206 32.2697 287.206 49ZM249.895 75.805C249.059 73.2191 246.723 65.7241 244.415 56.2523C244.338 55.9367 244.261 55.6226 244.185 55.3101L244.183 55.3022C241.39 43.878 239.109 34.5471 251.612 31.6157C251.726 31.5889 251.782 31.452 251.706 31.3622C250.272 29.658 247.584 29.0994 244.186 30.2733C244.047 30.3215 243.926 30.1807 244.012 30.0612C244.679 29.1415 245.981 28.4343 246.624 28.1243C246.757 28.0602 246.749 27.8654 246.608 27.8213C246.187 27.6895 245.471 27.4878 244.666 27.3576C244.475 27.3268 244.458 26.9998 244.65 26.9741C249.467 26.325 254.498 27.7733 257.022 30.9576C257.046 30.9876 257.08 31.0086 257.118 31.0166C266.362 33.0046 267.024 47.6377 265.959 48.3042C265.749 48.4356 265.076 48.3602 264.189 48.2608C260.592 47.8578 253.469 47.0598 259.348 58.0305C259.406 58.1389 259.329 58.2823 259.207 58.3012C255.904 58.8156 260.111 69.1471 263.23 75.9994C275.493 73.1528 284.632 62.1451 284.632 49C284.632 33.6935 272.24 21.2852 256.955 21.2852C241.669 21.2852 229.278 33.6935 229.278 49C229.278 61.8632 238.029 72.6796 249.895 75.805Z" fill="white"/>
<path d="M267.398 62.7662C266.694 62.4396 263.988 64.3828 262.192 65.8745C261.817 65.3427 261.109 64.9562 259.513 65.2341C258.115 65.4774 257.344 65.8148 257 66.3964C254.794 65.5591 251.084 64.267 250.188 65.5149C249.208 66.879 250.433 73.332 251.734 74.1698C252.414 74.6073 255.663 72.5156 257.36 71.0732C257.634 71.4595 258.075 71.6806 258.981 71.6595C260.352 71.6277 262.575 71.3083 262.92 70.6692C262.94 70.6304 262.959 70.5845 262.974 70.5322C264.718 71.185 267.788 71.8759 268.474 71.7728C270.261 71.5039 268.225 63.1501 267.398 62.7662Z" fill="#3CA82B"/>
<path d="M262.357 66.0654C262.431 66.1975 262.49 66.3369 262.541 66.4786C262.79 67.175 263.195 69.3904 262.888 69.9376C262.582 70.4848 260.592 70.7491 259.365 70.7703C258.137 70.7915 257.861 70.3419 257.612 69.6455C257.413 69.0885 257.315 67.7786 257.318 67.0287C257.267 65.9162 257.673 65.5251 259.549 65.2211C260.938 64.9961 261.672 65.2578 262.095 65.7056C264.066 64.2324 267.355 62.1535 267.676 62.5335C269.275 64.428 269.477 68.9379 269.131 70.7523C269.018 71.3455 263.722 70.1646 263.722 69.5249C263.722 66.8686 263.034 66.1399 262.357 66.0654Z" fill="#4CBA3C"/>
<path d="M250.756 65.2358C251.189 64.5484 254.707 65.4033 256.638 66.2638C256.638 66.2638 256.241 68.0638 256.873 70.1846C257.057 70.8049 252.431 73.5659 251.827 73.0909C251.129 72.5419 249.844 66.6808 250.756 65.2358Z" fill="#4CBA3C"/>
<path fill-rule="evenodd" clip-rule="evenodd" d="M252.459 51.2722C252.744 50.033 254.069 47.6978 258.804 47.7545C261.197 47.7446 264.17 47.7535 266.141 47.5293C269.07 47.1961 271.245 46.4865 272.694 45.9335C274.743 45.1506 275.47 45.3252 275.725 45.7936C276.005 46.3083 275.675 47.1971 274.959 48.0153C273.592 49.5781 271.133 50.789 266.79 51.1484C262.448 51.5079 259.571 50.3414 258.332 52.2405C257.798 53.0596 258.211 54.99 262.411 55.5979C268.086 56.4181 272.746 54.6097 273.322 55.7019C273.898 56.794 270.581 59.0161 264.897 59.0626C259.213 59.1091 255.662 57.0698 254.403 56.056C252.806 54.7699 252.091 52.8942 252.459 51.2722Z" fill="#FFCC33"/>
<g opacity="0.8">
<path d="M259.698 37.7218C260.015 37.2019 260.718 36.8007 261.869 36.8007C263.019 36.8007 263.56 37.2591 263.935 37.7704C264.011 37.8743 263.896 37.9968 263.778 37.9456C263.749 37.9333 263.72 37.9207 263.691 37.9079C263.27 37.7238 262.754 37.4979 261.869 37.4853C260.922 37.4718 260.325 37.7092 259.949 37.9138C259.822 37.9828 259.623 37.845 259.698 37.7218Z" fill="#14307E"/>
<path d="M246.744 38.3869C247.862 37.9194 248.74 37.9798 249.36 38.1268C249.491 38.1578 249.582 38.017 249.477 37.9325C248.996 37.5434 247.917 37.0603 246.511 37.5854C245.256 38.0538 244.665 39.0271 244.662 39.667C244.661 39.8178 244.971 39.8306 245.051 39.7029C245.267 39.358 245.627 38.8544 246.744 38.3869Z" fill="#14307E"/>
<path fill-rule="evenodd" clip-rule="evenodd" d="M262.846 44.8337C261.858 44.8337 261.057 44.0336 261.057 43.049C261.057 42.0643 261.858 41.2643 262.846 41.2643C263.834 41.2643 264.635 42.0643 264.635 43.049C264.635 44.0336 263.834 44.8337 262.846 44.8337ZM264.106 42.4577C264.106 42.2028 263.897 41.9962 263.643 41.9962C263.388 41.9962 263.182 42.2028 263.179 42.4577C263.179 42.7127 263.388 42.9193 263.643 42.9193C263.899 42.9193 264.106 42.7127 264.106 42.4577Z" fill="#14307E"/>
<path fill-rule="evenodd" clip-rule="evenodd" d="M250.994 44.2841C250.994 45.4336 250.061 46.3655 248.909 46.3655C247.759 46.3655 246.824 45.4336 246.824 44.2841C246.824 43.1346 247.759 42.2027 248.909 42.2027C250.059 42.2027 250.994 43.1346 250.994 44.2841ZM250.379 43.594C250.379 43.2972 250.138 43.0555 249.839 43.0555C249.543 43.0555 249.302 43.295 249.299 43.594C249.299 43.8907 249.541 44.1325 249.839 44.1325C250.138 44.1325 250.379 43.8907 250.379 43.594Z" fill="#14307E"/>
</g>
<path d="M99.9734 159.47C99.2871 159.47 98.7234 158.931 98.7234 158.245C98.7234 157.558 99.2871 156.995 99.9734 156.995C100.66 156.995 101.199 157.558 101.199 158.245C101.199 158.931 100.66 159.47 99.9734 159.47ZM100.88 173H99.042V161.161H100.88V173ZM112.072 173.294C107.243 173.294 103.959 169.667 103.959 164.838C103.959 160.009 107.243 156.382 112.072 156.382C116.901 156.382 120.209 160.009 120.209 164.838C120.209 169.667 116.901 173.294 112.072 173.294ZM112.072 171.48C115.724 171.48 118.102 168.637 118.102 164.838C118.102 161.014 115.724 158.196 112.072 158.196C108.395 158.196 106.067 161.014 106.067 164.838C106.067 168.637 108.395 171.48 112.072 171.48ZM128.657 173.294C125.838 173.294 123.73 172.216 122.382 170.696L123.608 169.127C124.662 170.353 126.426 171.48 128.73 171.48C131.647 171.48 132.579 169.912 132.579 168.637C132.579 164.421 122.897 166.774 122.897 160.941C122.897 158.245 125.299 156.382 128.534 156.382C131.01 156.382 132.946 157.24 134.319 158.686L133.093 160.181C131.868 158.808 130.152 158.22 128.363 158.22C126.426 158.22 125.005 159.274 125.005 160.818C125.005 164.495 134.686 162.387 134.686 168.49C134.686 170.843 133.069 173.294 128.657 173.294ZM140.126 172.412C140.126 173.907 139.268 175.304 138.141 176.113L137.21 175.353C137.994 174.838 138.705 173.882 138.803 173.074C138.754 173.098 138.582 173.123 138.46 173.123C137.798 173.123 137.283 172.583 137.283 171.873C137.283 171.162 137.847 170.549 138.582 170.549C139.415 170.549 140.126 171.235 140.126 172.412ZM165.721 173H163.687V159.25L158.148 173H157.314L151.75 159.25V173H149.716V156.652H152.633L157.731 169.25L162.805 156.652H165.721V173ZM178.702 173H176.864V171.652C175.908 172.73 174.535 173.294 172.942 173.294C170.957 173.294 168.824 171.946 168.824 169.372C168.824 166.701 170.932 165.475 172.942 165.475C174.56 165.475 175.908 165.99 176.864 167.068V164.936C176.864 163.367 175.589 162.461 173.873 162.461C172.452 162.461 171.3 162.951 170.246 164.103L169.388 162.828C170.663 161.505 172.182 160.867 174.119 160.867C176.643 160.867 178.702 161.995 178.702 164.863V173ZM173.628 171.971C174.903 171.971 176.153 171.48 176.864 170.5V168.245C176.153 167.289 174.903 166.799 173.628 166.799C171.888 166.799 170.687 167.877 170.687 169.372C170.687 170.892 171.888 171.971 173.628 171.971ZM187.632 173.294C184.102 173.294 181.725 170.573 181.725 167.068C181.725 163.564 184.102 160.867 187.632 160.867C189.788 160.867 191.063 161.75 191.97 162.926L190.744 164.029C189.96 162.951 188.955 162.51 187.73 162.51C185.23 162.51 183.636 164.446 183.636 167.068C183.636 169.691 185.23 171.652 187.73 171.652C188.955 171.652 189.96 171.162 190.744 170.108L191.97 171.235C191.063 172.412 189.788 173.294 187.632 173.294ZM197.046 172.412C197.046 173.907 196.188 175.304 195.061 176.113L194.129 175.353C194.913 174.838 195.624 173.882 195.722 173.074C195.673 173.098 195.502 173.123 195.379 173.123C194.717 173.123 194.203 172.583 194.203 171.873C194.203 171.162 194.766 170.549 195.502 170.549C196.335 170.549 197.046 171.235 197.046 172.412ZM220.631 173H218.303L216.857 169.348H208.719L207.273 173H204.945L211.538 156.652H214.062L220.631 173ZM216.268 167.559L212.788 158.735L209.332 167.559H216.268ZM232.524 173H230.71V165.255C230.71 163.147 229.631 162.51 228.038 162.51C226.592 162.51 225.244 163.392 224.533 164.348V173H222.695V161.161H224.533V162.877C225.367 161.872 226.984 160.867 228.774 160.867C231.225 160.867 232.524 162.117 232.524 164.691V173ZM246.636 173H244.797V171.235C243.915 172.436 242.469 173.294 240.802 173.294C237.714 173.294 235.533 170.941 235.533 167.093C235.533 163.294 237.714 160.867 240.802 160.867C242.395 160.867 243.842 161.652 244.797 162.951V156.652H246.636V173ZM241.268 171.652C242.714 171.652 244.16 170.794 244.797 169.765V164.421C244.16 163.392 242.714 162.51 241.268 162.51C238.866 162.51 237.444 164.47 237.444 167.093C237.444 169.716 238.866 171.652 241.268 171.652ZM252.155 173H250.317V161.161H252.155V163.049C253.111 161.823 254.484 160.892 256.102 160.892V162.779C255.881 162.755 255.66 162.73 255.391 162.73C254.239 162.73 252.695 163.662 252.155 164.617V173ZM263.579 173.294C259.976 173.294 257.721 170.5 257.721 167.068C257.721 163.637 259.976 160.867 263.579 160.867C267.182 160.867 269.437 163.637 269.437 167.068C269.437 170.5 267.182 173.294 263.579 173.294ZM263.579 171.652C266.104 171.652 267.501 169.495 267.501 167.068C267.501 164.666 266.104 162.51 263.579 162.51C261.055 162.51 259.657 164.666 259.657 167.068C259.657 169.495 261.055 171.652 263.579 171.652ZM273.365 159.47C272.679 159.47 272.115 158.931 272.115 158.245C272.115 157.558 272.679 156.995 273.365 156.995C274.052 156.995 274.591 157.558 274.591 158.245C274.591 158.931 274.052 159.47 273.365 159.47ZM274.272 173H272.434V161.161H274.272V173ZM288.356 173H286.518V171.235C285.635 172.436 284.189 173.294 282.523 173.294C279.434 173.294 277.253 170.941 277.253 167.093C277.253 163.294 279.434 160.867 282.523 160.867C284.116 160.867 285.562 161.652 286.518 162.951V156.652H288.356V173ZM282.988 171.652C284.434 171.652 285.881 170.794 286.518 169.765V164.421C285.881 163.392 284.434 162.51 282.988 162.51C280.586 162.51 279.165 164.47 279.165 167.093C279.165 169.716 280.586 171.652 282.988 171.652ZM311.567 173H309.018C308.528 172.583 307.89 171.946 307.229 171.284C306.028 172.485 304.508 173.294 302.523 173.294C299.728 173.294 297.449 171.75 297.449 168.735C297.449 166.186 299.165 164.887 301.052 163.858C300.317 162.608 299.802 161.333 299.802 160.181C299.802 158.024 301.591 156.406 303.92 156.406C306.028 156.406 307.596 157.558 307.596 159.617C307.596 162.068 305.513 163.147 303.43 164.225C304.091 165.108 304.802 165.941 305.341 166.554C306.003 167.338 306.64 168.049 307.278 168.735C308.16 167.387 308.748 165.892 309.042 164.985L310.611 165.696C310.072 166.995 309.361 168.539 308.381 169.912C309.361 170.917 310.366 171.897 311.567 173ZM302.719 171.774C304.067 171.774 305.194 171.113 306.126 170.157C305.194 169.176 304.336 168.245 303.871 167.681C303.184 166.897 302.474 166.015 301.836 165.083C300.464 165.916 299.41 166.921 299.41 168.613C299.41 170.647 300.979 171.774 302.719 171.774ZM301.689 160.23C301.689 161.088 302.106 162.093 302.67 163.049C304.41 162.191 305.905 161.333 305.905 159.691C305.905 158.49 305.072 157.828 303.969 157.828C302.719 157.828 301.689 158.808 301.689 160.23ZM335.229 173H333.023L329.42 159.813L325.817 173H323.611L318.954 156.652H321.209L324.837 170.279L328.587 156.652H330.278L334.028 170.279L337.631 156.652H339.911L335.229 173ZM343.019 159.47C342.333 159.47 341.769 158.931 341.769 158.245C341.769 157.558 342.333 156.995 343.019 156.995C343.705 156.995 344.244 157.558 344.244 158.245C344.244 158.931 343.705 159.47 343.019 159.47ZM343.926 173H342.087V161.161H343.926V173ZM357.421 173H355.608V165.255C355.608 163.147 354.529 162.51 352.936 162.51C351.49 162.51 350.142 163.392 349.431 164.348V173H347.593V161.161H349.431V162.877C350.264 161.872 351.882 160.867 353.671 160.867C356.122 160.867 357.421 162.117 357.421 164.691V173ZM371.533 173H369.695V171.235C368.813 172.436 367.367 173.294 365.7 173.294C362.612 173.294 360.43 170.941 360.43 167.093C360.43 163.294 362.612 160.867 365.7 160.867C367.293 160.867 368.739 161.652 369.695 162.951V156.652H371.533V173ZM366.166 171.652C367.612 171.652 369.058 170.794 369.695 169.765V164.421C369.058 163.392 367.612 162.51 366.166 162.51C363.764 162.51 362.342 164.47 362.342 167.093C362.342 169.716 363.764 171.652 366.166 171.652ZM380.386 173.294C376.783 173.294 374.528 170.5 374.528 167.068C374.528 163.637 376.783 160.867 380.386 160.867C383.989 160.867 386.244 163.637 386.244 167.068C386.244 170.5 383.989 173.294 380.386 173.294ZM380.386 171.652C382.911 171.652 384.308 169.495 384.308 167.068C384.308 164.666 382.911 162.51 380.386 162.51C377.862 162.51 376.465 164.666 376.465 167.068C376.465 169.495 377.862 171.652 380.386 171.652ZM401.349 173H399.487L396.398 163.49L393.31 173H391.472L387.697 161.161H389.609L392.501 170.598L395.614 161.161H397.207L400.295 170.598L403.188 161.161H405.124L401.349 173ZM411.016 173.294C409.055 173.294 407.437 172.681 406.236 171.431L407.167 170.108C407.952 171.015 409.447 171.799 411.065 171.799C412.878 171.799 413.883 170.941 413.883 169.765C413.883 166.897 406.555 168.662 406.555 164.274C406.555 162.412 408.123 160.867 410.942 160.867C412.976 160.867 414.398 161.627 415.329 162.583L414.472 163.858C413.761 163 412.486 162.362 410.942 162.362C409.324 162.362 408.319 163.171 408.319 164.225C408.319 166.799 415.648 165.108 415.648 169.716C415.648 171.701 414.055 173.294 411.016 173.294Z" fill="white"/>
<rect x="150" y="196" width="215.444" height="59" rx="13.1111" fill="#3969EF"/>
<path d="M183.564 232.819H177.851V217.515H183.541C188.337 217.515 191.549 220.682 191.549 225.156C191.549 229.676 188.337 232.819 183.564 232.819ZM183.541 230.456C186.868 230.456 188.796 228.07 188.796 225.156C188.796 222.219 186.96 219.879 183.564 219.879H180.536V230.456H183.541ZM199.097 233.095C195.563 233.095 193.407 230.433 193.407 227.267C193.407 224.078 195.563 221.462 199.097 221.462C202.63 221.462 204.787 224.078 204.787 227.267C204.787 230.433 202.63 233.095 199.097 233.095ZM199.097 230.961C201.162 230.961 202.286 229.24 202.286 227.267C202.286 225.317 201.162 223.596 199.097 223.596C197.055 223.596 195.908 225.317 195.908 227.267C195.908 229.24 197.055 230.961 199.097 230.961ZM219.454 232.819H216.93L214.337 224.697L211.767 232.819H209.243L205.802 221.737H208.303L210.643 229.791L213.282 221.737H215.415L218.031 229.791L220.371 221.737H222.895L219.454 232.819ZM234.48 232.819H232.07V225.89C232.07 224.146 231.176 223.596 229.822 223.596C228.606 223.596 227.55 224.33 226.977 225.064V232.819H224.568V221.737H226.977V223.229C227.711 222.357 229.156 221.462 230.9 221.462C233.286 221.462 234.48 222.747 234.48 225.018V232.819ZM240.017 232.819H237.608V217.515H240.017V232.819ZM248.168 233.095C244.634 233.095 242.477 230.433 242.477 227.267C242.477 224.078 244.634 221.462 248.168 221.462C251.701 221.462 253.858 224.078 253.858 227.267C253.858 230.433 251.701 233.095 248.168 233.095ZM248.168 230.961C250.233 230.961 251.357 229.24 251.357 227.267C251.357 225.317 250.233 223.596 248.168 223.596C246.125 223.596 244.978 225.317 244.978 227.267C244.978 229.24 246.125 230.961 248.168 230.961ZM265.519 232.819H263.109V231.603C262.283 232.567 260.976 233.095 259.507 233.095C257.717 233.095 255.675 231.856 255.675 229.424C255.675 226.854 257.694 225.798 259.507 225.798C261.021 225.798 262.283 226.28 263.109 227.221V225.569C263.109 224.284 262.031 223.504 260.517 223.504C259.278 223.504 258.176 223.963 257.236 224.926L256.226 223.252C257.511 222.013 259.117 221.462 260.884 221.462C263.362 221.462 265.519 222.494 265.519 225.454V232.819ZM260.471 231.443C261.503 231.443 262.536 231.053 263.109 230.295V228.598C262.536 227.84 261.503 227.45 260.471 227.45C259.117 227.45 258.085 228.253 258.085 229.447C258.085 230.663 259.117 231.443 260.471 231.443ZM278.852 232.819H276.443V231.305C275.594 232.406 274.332 233.095 272.886 233.095C270.064 233.095 267.976 230.938 267.976 227.267C267.976 223.687 270.041 221.462 272.886 221.462C274.286 221.462 275.571 222.081 276.443 223.274V217.515H278.852V232.819ZM273.597 230.961C274.722 230.961 275.915 230.295 276.443 229.469V225.087C275.915 224.261 274.722 223.596 273.597 223.596C271.67 223.596 270.454 225.133 270.454 227.267C270.454 229.424 271.67 230.961 273.597 230.961ZM301.22 232.819H298.627L290.642 221.875V232.819H287.958V217.515H290.711L298.535 228.116V217.515H301.22V232.819ZM309.427 233.095C305.894 233.095 303.737 230.433 303.737 227.267C303.737 224.078 305.894 221.462 309.427 221.462C312.961 221.462 315.118 224.078 315.118 227.267C315.118 230.433 312.961 233.095 309.427 233.095ZM309.427 230.961C311.492 230.961 312.617 229.24 312.617 227.267C312.617 225.317 311.492 223.596 309.427 223.596C307.385 223.596 306.238 225.317 306.238 227.267C306.238 229.24 307.385 230.961 309.427 230.961ZM329.784 232.819H327.26L324.668 224.697L322.098 232.819H319.574L316.132 221.737H318.633L320.973 229.791L323.612 221.737H325.746L328.362 229.791L330.702 221.737H333.226L329.784 232.819ZM337.192 228.116H335.105L334.669 217.515H337.605L337.192 228.116ZM336.16 233.049C335.288 233.049 334.554 232.315 334.554 231.443C334.554 230.594 335.288 229.86 336.16 229.86C337.032 229.86 337.743 230.594 337.743 231.443C337.743 232.315 337.032 233.049 336.16 233.049Z" fill="white"/>
</g>
<defs>
<filter id="filter0_f_35_526" x="-418.799" y="-139.193" width="1612.21" height="1027.27" filterUnits="userSpaceOnUse" color-interpolation-filters="sRGB">
<feFlood flood-opacity="0" result="BackgroundImageFix"/>
<feBlend mode="normal" in="SourceGraphic" in2="BackgroundImageFix" result="shape"/>
<feGaussianBlur stdDeviation="80.4426" result="effect1_foregroundBlur_35_526"/>
</filter>
<clipPath id="clip0_35_526">
<rect width="514.823" height="282.475" rx="41" fill="white"/>
</clipPath>
<clipPath id="clip1_35_526">
<rect width="525.145" height="373.621" fill="white" transform="matrix(-1 0 0 1 524.823 0)"/>
</clipPath>
</defs>
</svg>
