<svg xmlns="http://www.w3.org/2000/svg" width="142" height="20" viewBox="0 0 140 20" fill="none">
<g transform="translate(-51.5, -117)">
<path d="M105.142 123.145H102.497L97.6827 128.083V118.207H95.6484V135.051H97.6827V129.504L103.175 134.983L103.243 135.051H105.549H105.684V134.848L99.5136 128.76L105.142 123.145Z" fill="white"/>
<path d="M92.1223 132.142C91.3764 132.886 90.2914 133.292 89.0709 133.292C86.9688 133.292 84.8667 132.007 84.8667 129.03C84.8667 126.527 86.6298 124.769 89.0709 124.769C90.1558 124.769 91.173 125.174 91.9867 125.919L92.0545 125.986L93.3428 124.633L93.275 124.566C92.0545 123.416 90.6305 122.875 89.0031 122.875C85.2736 122.875 82.7646 125.377 82.7646 129.03C82.7646 133.292 85.8839 135.186 89.0031 135.186H89.0709C90.6983 135.186 92.2579 134.577 93.3428 133.427L93.4107 133.36L92.0545 132.007L92.1223 132.142Z" fill="white"/>
<path d="M78.357 129.504C78.357 131.668 76.8652 133.292 74.7631 133.36C72.5255 133.36 71.1693 132.007 71.1693 129.707V123.145H69.135V129.707C69.135 133.089 71.1693 135.254 74.3563 135.254H74.4241C75.9837 135.254 77.4077 134.51 78.357 133.36L78.4248 133.224L78.4926 135.051H80.3913V123.145H78.357V129.504Z" fill="white"/>
<path d="M58.3535 118.139H52.1829V135.051H58.3535C64.2528 135.051 66.8296 130.721 66.8296 126.46C66.8296 122.469 64.185 118.139 58.3535 118.139ZM64.7275 126.392C64.7275 129.639 62.761 132.886 58.4213 132.886H54.3527V120.236H58.3535C62.6932 120.236 64.7275 123.416 64.7275 126.392Z" fill="white"/>
<path d="M169.763 127.677H174.985V131.601C173.696 132.683 172.137 133.292 170.442 133.292C165.831 133.292 163.728 129.977 163.728 126.73C163.728 123.416 165.831 119.83 170.374 119.83C172.205 119.83 173.9 120.507 175.256 121.724L175.324 121.792L176.544 120.372L176.477 120.304C174.849 118.68 172.679 117.869 170.306 117.869C167.729 117.869 165.559 118.68 164 120.304C162.372 121.927 161.491 124.227 161.559 126.798C161.559 130.789 163.864 135.389 170.374 135.389C170.442 135.389 170.442 135.389 170.509 135.389C172.95 135.389 175.256 134.374 176.883 132.548V125.851H169.696V127.677H169.763Z" fill="white"/>
<path d="M113.753 118.139H107.583V135.051H113.753C119.653 135.051 122.229 130.721 122.229 126.46C122.229 122.469 119.585 118.139 113.753 118.139ZM120.127 126.392C120.127 129.639 118.161 132.886 113.821 132.886H109.82V120.236H113.821C118.093 120.236 120.127 123.416 120.127 126.392Z" fill="white"/>
<path d="M185.156 122.875C181.562 122.875 178.985 125.513 178.985 129.098C178.985 132.683 181.562 135.254 185.156 135.254C188.75 135.254 191.394 132.683 191.394 129.098C191.394 125.445 188.818 122.875 185.156 122.875ZM189.36 129.098C189.36 131.601 187.597 133.36 185.156 133.36C182.783 133.36 181.02 131.601 181.02 129.098C181.02 126.527 182.715 124.701 185.224 124.701C187.597 124.769 189.36 126.595 189.36 129.098Z" fill="white"/>
<path d="M133.757 129.504C133.757 131.668 132.265 133.292 130.163 133.36C127.925 133.36 126.569 132.007 126.569 129.707V123.145H124.535V129.707C124.535 133.089 126.569 135.254 129.688 135.254H129.756C131.316 135.254 132.74 134.51 133.689 133.36L133.757 133.224L133.825 135.051H135.723V123.145H133.689V129.504H133.757Z" fill="white"/>
<path d="M147.522 132.142C146.776 132.886 145.691 133.292 144.471 133.292C142.369 133.292 140.267 132.007 140.267 129.03C140.267 126.527 142.03 124.769 144.471 124.769C145.556 124.769 146.573 125.174 147.387 125.919L147.454 125.986L148.743 124.633L148.675 124.566C147.454 123.416 146.03 122.875 144.403 122.875C140.673 122.875 138.165 125.377 138.165 129.03C138.165 133.292 141.284 135.186 144.403 135.186H144.471C146.098 135.186 147.658 134.577 148.743 133.427L148.811 133.36L147.454 132.007L147.522 132.142Z" fill="white"/>
<path d="M160.542 123.145H157.897L153.083 128.083V118.207H151.048V135.051H153.083V129.504L158.575 134.983L158.643 135.051H160.948H161.084V134.848L154.913 128.76L160.542 123.145Z" fill="white"/>
</g>
</svg>