<svg width="20" height="19" viewBox="0 0 20 19" fill="none" xmlns="http://www.w3.org/2000/svg"><path d="M10.5 18.6C10.0 18.6 9.5 18.4 9.2 18.1C8.8 17.9 8.5 17.5 8.4 17.0L4.1 3.2C3.9 2.7 4.0 2.1 4.3 1.6C4.5 1.0 5.0 0.6 5.5 0.5C6.1 0.3 6.7 0.3 7.2 0.6C7.7 0.9 8.1 1.4 8.3 1.9L12.6 15.7C12.6 16.0 12.7 16.3 12.6 16.6C12.6 16.8 12.5 17.1 12.4 17.4C12.3 17.6 12.1 17.9 11.9 18.0C11.6 18.2 11.4 18.4 11.1 18.4C10.9 18.5 10.7 18.6 10.5 18.6Z" fill="url(#paint0_linear)"/><path d="M16.0 15.4C15.7 15.4 15.4 15.3 15.2 15.2C14.9 15.1 14.6 14.9 14.4 14.7L4.6 4.1C4.2 3.6 4.0 3.1 4.0 2.5C4.0 1.9 4.3 1.4 4.7 1.0C5.1 0.6 5.7 0.3 6.3 0.4C6.9 0.4 7.4 0.6 7.8 1.1L17.6 11.7C17.9 12.0 18.1 12.4 18.2 12.8C18.3 13.2 18.2 13.6 18.0 14.0C17.9 14.4 17.6 14.7 17.2 15.0C16.9 15.2 16.5 15.3 16.0 15.3V15.4Z" fill="url(#paint1_linear)"/><path d="M16.0 15.4C15.8 15.4 15.5 15.3 15.2 15.2L1.8 9.9C1.2 9.7 0.8 9.3 0.6 8.7C0.3 8.2 0.3 7.6 0.5 7.1C0.8 6.5 1.2 6.1 1.7 5.9C2.2 5.6 2.8 5.6 3.4 5.8L16.8 11.1C17.3 11.3 17.7 11.6 17.9 12.1C18.2 12.5 18.3 13.1 18.2 13.6C18.1 14.1 17.8 14.5 17.4 14.8C17.0 15.2 16.5 15.3 16.0 15.3V15.4Z" fill="url(#paint2_linear)"/><path d="M2.6 10.1C2.3 10.1 2.0 10.1 1.7 10.0C1.5 9.8 1.2 9.7 1.0 9.5C0.6 9.1 0.3 8.6 0.3 8.0C0.3 7.4 0.5 6.8 0.9 6.4C1.3 6.0 1.8 5.7 2.4 5.7L16.8 4.6C17.4 4.6 18.0 4.8 18.4 5.1C18.9 5.5 19.1 6.1 19.2 6.6C19.2 7.2 19.0 7.8 18.6 8.2C18.3 8.7 17.7 9.0 17.1 9.0L2.7 10.1L2.6 10.1Z" fill="url(#paint3_linear)"/><path d="M4.5 16.2C4.1 16.2 3.7 16.1 3.4 15.9C3.1 15.7 2.8 15.5 2.6 15.1C2.4 14.9 2.3 14.6 2.3 14.3C2.3 14.0 2.3 13.7 2.4 13.5C2.4 13.2 2.6 12.9 2.7 12.7C2.9 12.5 3.1 12.3 3.4 12.1L15.9 4.9C16.1 4.8 16.4 4.6 16.7 4.6C17.0 4.6 17.3 4.6 17.6 4.6C17.9 4.7 18.1 4.8 18.4 5.0C18.6 5.2 18.8 5.4 18.9 5.7C19.1 5.9 19.2 6.2 19.2 6.5C19.3 6.8 19.2 7.1 19.2 7.4C19.1 7.6 18.9 7.9 18.8 8.1C18.6 8.4 18.3 8.6 18.1 8.7L5.6 15.9C5.2 16.1 4.9 16.2 4.5 16.2Z" fill="url(#paint4_linear)"/><path d="M4.5 16.2C4.1 16.2 3.7 16.1 3.3 15.9C3.0 15.7 2.7 15.4 2.5 15.1C2.4 14.7 2.3 14.3 2.3 13.9C2.3 13.5 2.4 13.1 2.7 12.8L10.8 0.9C11.0 0.7 11.2 0.5 11.4 0.3C11.7 0.2 11.9 0.0 12.2 0.0C12.5 -0.0 12.8 -0.0 13.1 0.0C13.3 0.1 13.6 0.2 13.9 0.3C14.1 0.5 14.3 0.7 14.5 0.9C14.6 1.2 14.7 1.5 14.8 1.7C14.8 2.0 14.8 2.3 14.8 2.6C14.7 2.9 14.6 3.1 14.4 3.4L6.3 15.3C6.1 15.6 5.8 15.8 5.5 16.0C5.2 16.1 4.8 16.2 4.5 16.2V16.2Z" fill="url(#paint5_linear)"/><defs><linearGradient id="paint0_linear" x1="10.5" y1="16.5" x2="6.2" y2="2.5" gradientUnits="userSpaceOnUse"><stop stop-color="#2A2B39"/><stop offset="1" stop-color="#1D4E52"/></linearGradient><linearGradient id="paint1_linear" x1="5.8" y1="2.4" x2="16.2" y2="13.2" gradientUnits="userSpaceOnUse"><stop stop-color="#1D4E52"/><stop offset="1" stop-color="#176F69"/></linearGradient><linearGradient id="paint2_linear" x1="16.3" y1="13.2" x2="2.5" y2="7.9" gradientUnits="userSpaceOnUse"><stop stop-color="#176F69"/><stop offset="1" stop-color="#119281"/></linearGradient><linearGradient id="paint3_linear" x1="2.1" y1="8.0" x2="17.1" y2="6.7" gradientUnits="userSpaceOnUse"><stop stop-color="#119180"/><stop offset="1" stop-color="#0BB398"/></linearGradient><linearGradient id="paint4_linear" x1="17.2" y1="6.6" x2="4.5" y2="14.1" gradientUnits="userSpaceOnUse"><stop stop-color="#0BB398"/><stop offset="1" stop-color="#05D2AE"/></linearGradient><linearGradient id="paint5_linear" x1="4.5" y1="14.2" x2="12.5" y2="2.1" gradientUnits="userSpaceOnUse"><stop stop-color="#05D4AF"/><stop offset="1" stop-color="#00F0C2"/></linearGradient></defs></svg>