<svg width="87" height="29" viewBox="0 0 87 29" fill="none" xmlns="http://www.w3.org/2000/svg"><path d="M0 0.9H13.2V4.0H3.2V9.8H11.8V12.9H3.2V21.9H0V0.9Z" fill="white"></path><path d="M15.6 2.4C15.6 2.1 15.6 1.9 15.7 1.6C15.9 1.4 16.0 1.1 16.2 0.9C16.4 0.7 16.7 0.6 16.9 0.5C17.2 0.4 17.5 0.3 17.7 0.3C18.0 0.3 18.3 0.4 18.5 0.5C18.8 0.6 19.0 0.7 19.2 0.9C19.4 1.1 19.6 1.4 19.7 1.6C19.8 1.9 19.8 2.2 19.8 2.4C19.8 2.7 19.8 3.0 19.7 3.2C19.6 3.5 19.4 3.7 19.2 3.9C19.0 4.1 18.8 4.3 18.5 4.4C18.3 4.5 18.0 4.6 17.7 4.6C17.5 4.6 17.2 4.5 16.9 4.4C16.6 4.3 16.4 4.2 16.2 4.0C16.0 3.8 15.8 3.5 15.7 3.3C15.6 3.0 15.6 2.7 15.6 2.4V2.4ZM16.1 21.9V6.6H19.3V21.9H16.1Z" fill="white"></path><path d="M39.4 14.3C39.4 15.3 39.2 16.3 38.9 17.3C38.5 18.3 37.9 19.1 37.2 19.9C36.5 20.6 35.7 21.2 34.7 21.6C33.8 22.0 32.7 22.3 31.7 22.3C30.7 22.3 29.7 22.0 28.8 21.6C27.9 21.1 27.1 20.5 26.5 19.7V21.9H23.4V0.3H26.6V8.8C27.1 8.0 27.9 7.3 28.8 6.9C29.7 6.4 30.7 6.2 31.7 6.2C32.8 6.2 33.8 6.4 34.7 6.8C35.7 7.3 36.5 7.9 37.3 8.6C38.0 9.4 38.5 10.2 38.9 11.2C39.3 12.2 39.4 13.2 39.4 14.3V14.3ZM36.2 14.3C36.2 13.6 36.1 12.9 35.9 12.3C35.6 11.7 35.3 11.1 34.8 10.7C34.4 10.2 33.8 9.8 33.2 9.5C32.6 9.3 31.9 9.2 31.3 9.2C30.6 9.2 30.0 9.3 29.4 9.5C28.8 9.8 28.2 10.2 27.8 10.7C27.3 11.1 26.9 11.7 26.7 12.3C26.5 12.9 26.4 13.6 26.4 14.3C26.4 14.9 26.5 15.6 26.7 16.2C26.9 16.8 27.3 17.4 27.8 17.8C28.2 18.3 28.8 18.7 29.4 19.0C30.0 19.2 30.6 19.4 31.3 19.4C31.9 19.4 32.6 19.2 33.2 19.0C33.8 18.7 34.4 18.3 34.8 17.8C35.3 17.4 35.6 16.8 35.9 16.2C36.1 15.6 36.2 14.9 36.2 14.3V14.3Z" fill="white"></path><path d="M57 15.4H45C45.1 16.6 45.8 17.7 46.7 18.5C47.6 19.2 48.8 19.6 50.0 19.4C51.9 19.4 53.7 18.8 55.2 17.8L56.6 20.1C54.6 21.5 52.3 22.2 50 22.2C44.2 22.2 41.7 18.2 41.7 14.2C41.7 13.2 41.8 12.1 42.2 11.2C42.6 10.2 43.2 9.3 43.9 8.5C44.6 7.8 45.5 7.2 46.5 6.8C47.5 6.4 48.5 6.2 49.6 6.2C53.9 6.2 57.1 9.1 57.1 14.0C57.1 14.5 57.0 15.0 57 15.4V15.4ZM45.0 12.9H54C53.9 11.8 53.4 10.8 52.6 10.0C51.8 9.3 50.7 8.9 49.6 8.9C48.5 8.9 47.4 9.3 46.5 10.0C45.7 10.8 45.1 11.8 45.0 12.9V12.9Z" fill="white"></path><path d="M59.7 6.6H62.7V8.8C63.1 8.0 63.7 7.3 64.5 6.8C65.3 6.4 66.2 6.1 67.1 6.2C67.7 6.2 68.3 6.3 68.9 6.4L68.6 9.4C68.1 9.3 67.5 9.2 67 9.2C64.7 9.2 62.9 10.6 62.9 14.1V21.9H59.7V6.6Z" fill="white"></path><path d="M86.1 6.6L79.8 23.3C78.4 26.9 76.7 28.4 74.1 28.4C73.2 28.4 72.2 28.2 71.5 27.8L71.9 25.1C72.5 25.3 73.2 25.5 73.8 25.5C75.0 25.5 76.0 24.8 76.8 22.9L77.3 21.8L70.7 6.6H74.3L78.8 17.6L82.7 6.6H86.1Z" fill="white"></path></svg>