<svg xmlns="http://www.w3.org/2000/svg" viewBox="0 0 168 18">
  <path fill="#2659A7" d="M0 0h24v18H0V0Z"/>
  <path fill="#E14827" d="M12 0v10H0v8h24V0H12Z"/>
  <path fill="#FFF" d="M12 2h12v2H12V2ZM12 6h12v2H12V6ZM0 10h24v2H0v-2ZM0 14h24v2H0v-2Z"/>
  <path fill="#2659A7" d="M1 2a1 1 0 1 1 2 0 1 1 0 0 1-2 0ZM5 2a1 1 0 1 1 2 0 1 1 0 0 1-2 0ZM9 2a1 1 0 1 1 2 0 1 1 0 0 1-2 0ZM3 5a1 1 0 1 1 2 0 1 1 0 0 1-2 0ZM7 5a1 1 0 1 1 2 0 1 1 0 0 1-2 0ZM1 8a1 1 0 1 1 2 0 1 1 0 0 1-2 0ZM5 8a1 1 0 1 1 2 0 1 1 0 0 1-2 0ZM9 8a1 1 0 1 1 2 0 1 1 0 0 1-2 0Z"/>
  <path fill="#FFF" d="M1.25 2a.75.75 0 1 1 1.5 0 .75.75 0 0 1-1.5 0ZM5.25 2a.75.75 0 1 1 1.5 0 .75.75 0 0 1-1.5 0ZM9.25 2a.75.75 0 1 1 1.5 0 .75.75 0 0 1-1.5 0ZM3.25 5a.75.75 0 1 1 1.5 0 .75.75 0 0 1-1.5 0ZM7.25 5a.75.75 0 1 1 1.5 0 .75.75 0 0 1-1.5 0ZM1.25 8a.75.75 0 1 1 1.5 0 .75.75 0 0 1-1.5 0ZM5.25 8a.75.75 0 1 1 1.5 0 .75.75 0 0 1-1.5 0ZM9.25 8a.75.75 0 1 1 1.5 0 .75.75 0 0 1-1.5 0Z"/>
  <path fill="#2659A7" d="M24 0h24v18H24V0Z"/>
  <path fill="#FFF" d="M34 0h4v18h-4V0Z"/>
  <path fill="#FFF" d="M48 7v4H24V7h24Z"/>
  <path fill="#E14827" d="M35 0h2v18h-2V0Z"/>
  <path fill="#E14827" d="M48 8v2H24V8h24Z"/>
  <path fill="#FFF" d="m27 0 7 6v1h-5l-5-4V0h3ZM45 18l-7-6v-1h5l5 4v3h-3ZM45 0l-7 6v1h5l5-4V0h-3ZM27 18l7-6v-1h-5l-5 4v3h3Z"/>
  <path fill="#E14827" d="m38 7 8-7h2l-8 7h-2ZM34 11l-8 7h-2l8-7h2ZM40 11l8 7v-2l-6-5h-2ZM32 7l-8-7v2l6 5h2Z"/>
  <path fill="#2659A7" d="M48 0h24v18H48V0Z"/>
  <path fill="#F7CC68" d="M59 3a1 1 0 1 1 2 0 1 1 0 0 1-2 0ZM66 8a1 1 0 1 1 0 2 1 1 0 0 1 0-2ZM64.95 12.54a1 1 0 1 1-1.41 1.42 1 1 0 0 1 1.41-1.42ZM63.54 4.05a1 1 0 1 1 1.42 1.41 1 1 0 0 1-1.42-1.41Z"/>
  <path fill="#F7CC68" d="M59.25 3a.75.75 0 1 1 1.5 0 .75.75 0 0 1-1.5 0ZM66 8.25a.75.75 0 1 1 0 1.5.75.75 0 0 1 0-1.5ZM64.77 12.71c.3.3.3.77 0 1.06a.75.75 0 1 1 0-1.06ZM63.71 4.23c.3-.3.77-.3 1.06 0a.75.75 0 1 1-1.06 0ZM59 15a1 1 0 1 1 2 0 1 1 0 0 1-2 0ZM54 8a1 1 0 1 1 0 2 1 1 0 0 1 0-2ZM56.46 4.05a1 1 0 1 1-1.41 1.42 1 1 0 0 1 1.41-1.42ZM55.05 12.54a1 1 0 1 1 1.42 1.41 1 1 0 0 1-1.42-1.41Z"/>
  <path fill="#F7CC68" d="M59.25 15a.75.75 0 1 1 1.5 0 .75.75 0 0 1-1.5 0ZM54 8.25a.75.75 0 1 1 0 1.5.75.75 0 0 1 0-1.5ZM56.29 4.23c.3.29.3.76 0 1.06a.75.75 0 1 1 0-1.06ZM55.23 12.71c.3-.3.76-.3 1.06 0a.75.75 0 1 1-1.06 0Z"/>
  <path fill="#FFF" d="M72 0h24v18H72V0Z"/>
  <path fill="#E14827" d="M78 9a6 6 0 1 1 12 0 6 6 0 0 1-12 0ZM96 0h24v18H96V0Z"/>
  <path fill="#FFF" d="M101 0h14v18h-14V0Z"/>
  <path fill="#E14827" d="M107.5 10h1v4h-1v-4Z"/>
  <path fill="#E14827" d="m104 12 4-8 4 8h-8Z"/>
  <path fill="#E14827" d="M103 7h10l-3 4h-4l-3-4ZM120 0h24v18h-24V0Z"/>
  <path fill="#F7CC68" d="M122.75 8 125 2l2.25 6L122 4.25h6L122.75 8Z"/>
  <path fill="#E14827" d="M130 4a1 1 0 1 1 2 0 1 1 0 0 1-2 0Z"/>
  <path fill="#F7CC68" d="M130.25 4a.75.75 0 1 1 1.5 0 .75.75 0 0 1-1.5 0Z"/>
  <path fill="#E14827" d="M130 7a1 1 0 1 1 2 0 1 1 0 0 1-2 0Z"/>
  <path fill="#F7CC68" d="M130.25 7a.75.75 0 1 1 1.5 0 .75.75 0 0 1-1.5 0Z"/>
  <path fill="#E14827" d="M128 2a1 1 0 1 1 2 0 1 1 0 0 1-2 0Z"/>
  <path fill="#F7CC68" d="M128.25 2a.75.75 0 1 1 1.5 0 .75.75 0 0 1-1.5 0Z"/>
  <path fill="#E14827" d="M128 9a1 1 0 1 1 2 0 1 1 0 0 1-2 0Z"/>
  <path fill="#F7CC68" d="M128.25 9a.75.75 0 1 1 1.5 0 .75.75 0 0 1-1.5 0Z"/>
  <path fill="#2659A7" d="M144 0h24v18h-24V0Z"/>
  <path fill="#FFF" d="M149 0h2v9h-2V0Z"/>
  <path fill="#FFF" d="M156 3.5v2h-12v-2h12Z"/>
  <path fill="#E14827" d="M149.5 0h1v9h-1V0Z"/>
  <path fill="#E14827" d="M156 4v1h-12V4h12Z"/>
  <path fill="#FFF" d="m145.5 0 3.5 3v.5h-2.5l-2.5-2V0h1.5ZM154.5 9 151 6v-.5h2.5l2.5 2V9h-1.5ZM154.5 0 151 3v.5h2.5l2.5-2V0h-1.5ZM145.5 9l3.5-3v-.5h-2.5l-2.5 2V9h1.5Z"/>
  <path fill="#E14827" d="m151 3.5 4-3.5h1l-4 3.5h-1ZM149 5.5 145 9h-1l4-3.5h1ZM152 5.5l4 3.5V8l-3-2.5h-1ZM148 3.5 144 0v1l3 2.5h1Z"/>
  <path fill="#2659A7" d="M161 3a1 1 0 1 1 2 0 1 1 0 0 1-2 0Z"/>
  <path fill="#FFF" d="M161.25 3a.75.75 0 1 1 1.5 0 .75.75 0 0 1-1.5 0Z"/>
  <path fill="#2659A7" d="M161 13a1 1 0 1 1 2 0 1 1 0 0 1-2 0Z"/>
  <path fill="#FFF" d="M161.25 13a.75.75 0 1 1 1.5 0 .75.75 0 0 1-1.5 0Z"/>
  <path fill="#2659A7" d="M158 8a1 1 0 1 1 2 0 1 1 0 0 1-2 0Z"/>
  <path fill="#FFF" d="M158.25 8a.75.75 0 1 1 1.5 0 .75.75 0 0 1-1.5 0Z"/>
  <path fill="#2659A7" d="M165 6a1 1 0 1 1 2 0 1 1 0 0 1-2 0Z"/>
  <path fill="#FFF" d="M165.25 6a.75.75 0 1 1 1.5 0 .75.75 0 0 1-1.5 0ZM149 13a1 1 0 1 1 2 0 1 1 0 0 1-2 0ZM164 8.5a.5.5 0 1 1 1 0 .5.5 0 0 1-1 0Z"/>
</svg>