<svg xmlns="http://www.w3.org/2000/svg" viewBox="0 0 120 18">
  <path fill="#244E8F" d="M0 0h24v18H0V0Z"/>
  <path fill="#E14827" d="M12 0v10H0v8h24V0H12Z"/>
  <path fill="#FFF" d="M12 2h12v2H12V2ZM12 6h12v2H12V6ZM0 10h24v2H0v-2ZM0 14h24v2H0v-2Z"/>
  <path fill="#244E8F" d="M1 2a1 1 0 1 1 2 0 1 1 0 0 1-2 0ZM5 2a1 1 0 1 1 2 0 1 1 0 0 1-2 0ZM9 2a1 1 0 1 1 2 0 1 1 0 0 1-2 0ZM3 5a1 1 0 1 1 2 0 1 1 0 0 1-2 0ZM7 5a1 1 0 1 1 2 0 1 1 0 0 1-2 0ZM1 8a1 1 0 1 1 2 0 1 1 0 0 1-2 0ZM5 8a1 1 0 1 1 2 0 1 1 0 0 1-2 0ZM9 8a1 1 0 1 1 2 0 1 1 0 0 1-2 0Z"/>
  <path fill="#FFF" d="M1.25 2a.75.75 0 1 1 1.5 0 .75.75 0 0 1-1.5 0ZM5.25 2a.75.75 0 1 1 1.5 0 .75.75 0 0 1-1.5 0ZM9.25 2a.75.75 0 1 1 1.5 0 .75.75 0 0 1-1.5 0ZM3.25 5a.75.75 0 1 1 1.5 0 .75.75 0 0 1-1.5 0ZM7.25 5a.75.75 0 1 1 1.5 0 .75.75 0 0 1-1.5 0ZM1.25 8a.75.75 0 1 1 1.5 0 .75.75 0 0 1-1.5 0ZM5.25 8a.75.75 0 1 1 1.5 0 .75.75 0 0 1-1.5 0ZM9.25 8a.75.75 0 1 1 1.5 0 .75.75 0 0 1-1.5 0Z"/>
  <path fill="#244E8F" d="M24 0h24v18H24V0Z"/>
  <path fill="#FFF" d="M34 0h4v18h-4V0Z"/>
  <path fill="#FFF" d="M48 7v4H24V7h24Z"/>
  <path fill="#E14827" d="M35 0h2v18h-2V0Z"/>
  <path fill="#E14827" d="M48 8v2H24V8h24Z"/>
  <path fill="#FFF" d="m27 0 7 6v1h-5l-5-4V0h3ZM45 18l-7-6v-1h5l5 4v3h-3ZM45 0l-7 6v1h5l5-4V0h-3ZM27 18l7-6v-1h-5l-5 4v3h3Z"/>
  <path fill="#E14827" d="m38 7 8-7h2l-8 7h-2ZM34 11l-8 7h-2l8-7h2ZM40 11l8 7v-2l-6-5h-2ZM32 7l-8-7v2l6 5h2Z"/>
  <path fill="#244E8F" d="M48 0h24v18H48V0Z"/>
  <path fill="#F3BC5D" d="M59 3a1 1 0 1 1 2 0 1 1 0 0 1-2 0ZM66 8a1 1 0 1 1 0 2 1 1 0 0 1 0-2ZM64.95 12.54a1 1 0 1 1-1.41 1.42 1 1 0 0 1 1.41-1.42ZM63.54 4.05a1 1 0 1 1 1.42 1.41 1 1 0 0 1-1.42-1.41Z"/>
  <path fill="#F3BC5D" d="M59.25 3a.75.75 0 1 1 1.5 0 .75.75 0 0 1-1.5 0ZM66 8.25a.75.75 0 1 1 0 1.5.75.75 0 0 1 0-1.5ZM64.77 12.71c.3.3.3.77 0 1.06a.75.75 0 1 1 0-1.06ZM63.71 4.23c.3-.3.77-.3 1.06 0a.75.75 0 1 1-1.06 0ZM59 15a1 1 0 1 1 2 0 1 1 0 0 1-2 0ZM54 8a1 1 0 1 1 0 2 1 1 0 0 1 0-2ZM56.46 4.05a1 1 0 1 1-1.41 1.42 1 1 0 0 1 1.41-1.42ZM55.05 12.54a1 1 0 1 1 1.42 1.41 1 1 0 0 1-1.42-1.41Z"/>
  <path fill="#F3BC5D" d="M59.25 15a.75.75 0 1 1 1.5 0 .75.75 0 0 1-1.5 0ZM54 8.25a.75.75 0 1 1 0 1.5.75.75 0 0 1 0-1.5ZM56.29 4.23c.3.29.3.76 0 1.06a.75.75 0 1 1 0-1.06ZM55.23 12.71c.3-.3.76-.3 1.06 0a.75.75 0 1 1-1.06 0Z"/>
  <path fill="#FFF" d="M72 0h24v18H72V0Z"/>
  <path fill="#E14827" d="M78 9a6 6 0 1 1 12 0 6 6 0 0 1-12 0ZM96 0h24v18H96V0Z"/>
  <path fill="#FFF" d="M101 0h14v18h-14V0Z"/>
  <path fill="#E14827" d="M107.5 10h1v4h-1v-4Z"/>
  <path fill="#E14827" d="m104 12 4-8 4 8h-8Z"/>
  <path fill="#E14827" d="M103 7h10l-3 4h-4l-3-4Z"/>
</svg>