<svg viewBox="0 0 512 139" version="1.1" xmlns="http://www.w3.org/2000/svg">
    <g>
        <path d="M98.6,59.3 L55.6,59.3 C54.5,59.3 53.6,60.2 53.6,61.3 L53.6,82.3 C53.6,83.4 54.5,84.3 55.6,84.3 L72.4,84.3 L72.4,110.5 C72.4,110.5 68.6,111.8 58.2,111.8 C45.9,111.8 28.7,107.3 28.7,69.5 C28.7,31.7 46.6,26.7 63.4,26.7 C77.9,26.7 84.2,29.3 88.2,30.5 C89.4,30.9 90.6,29.7 90.6,28.5 L95.4,8.2 C95.4,7.7 95.2,7.1 94.6,6.6 C93.0,5.5 83.1,-1.4e-14 58.2,-1.4e-14 C29.4,-1.4e-14 0,12.2 0,71.0 C0,129.8 33.7,138.5 62.2,138.5 C85.7,138.5 100.0,128.5 100.0,128.5 C100.6,128.1 100.7,127.3 100.7,126.9 L100.7,61.3 C100.7,60.2 99.8,59.3 98.6,59.3 Z M320.4,7.3 C320.4,6.2 319.6,5.3 318.4,5.3 L294.2,5.3 C293.1,5.3 292.2,6.2 292.2,7.3 C292.2,7.3 292.2,54.2 292.2,54.2 L254.4,54.2 L254.4,7.3 C254.4,6.2 253.5,5.3 252.4,5.3 L228.2,5.3 C227.1,5.3 226.2,6.2 226.2,7.3 L226.2,134.2 C226.2,135.3 227.1,136.2 228.2,136.2 L252.4,136.2 C253.5,136.2 254.4,135.3 254.4,134.2 L254.4,79.9 L292.2,79.9 C292.2,79.9 292.1,134.2 292.1,134.2 C292.1,135.3 293.0,136.2 294.1,136.2 L318.4,136.2 C319.6,136.2 320.4,135.3 320.4,134.2 L320.4,7.3 Z M144.3,24.3 C144.3,15.5 137.3,8.5 128.7,8.5 C120.1,8.5 113.1,15.5 113.1,24.3 C113.1,33.0 120.1,40.1 128.7,40.1 C137.3,40.1 144.3,33.0 144.3,24.3 Z M142.4,107.5 L142.4,48.9 C142.4,47.8 141.5,46.9 140.4,46.9 L116.2,46.9 C115.1,46.9 114.1,48.0 114.1,49.2 L114.1,133.1 C114.1,135.5 115.7,136.3 117.6,136.3 L139.4,136.3 C141.8,136.3 142.4,135.1 142.4,133.0 L142.4,107.5 Z M413.1,46.9 L389.1,46.9 C387.9,46.9 387.0,47.8 387.0,48.9 L387.0,111.1 C387.0,111.1 380.9,115.6 372.3,115.6 C363.6,115.6 361.3,111.7 361.3,103.2 L361.3,48.9 C361.3,47.8 360.4,46.9 359.3,46.9 L334.9,46.9 C333.8,46.9 332.9,47.8 332.9,48.9 L332.9,107.3 C332.9,132.5 346.9,138.7 366.3,138.7 C382.1,138.7 394.9,129.9 394.9,129.9 C394.9,129.9 395.5,134.5 395.8,135.1 C396.1,135.6 396.8,136.2 397.6,136.2 L413.1,136.1 C414.2,136.1 415.1,135.2 415.1,134.1 L415.1,48.9 C415.1,47.8 414.2,46.9 413.1,46.9 Z M468.5,115.7 C460.2,115.4 454.5,111.6 454.5,111.6 L454.5,71.4 C454.5,71.4 460.1,68.0 467.0,67.4 C475.6,66.6 484.0,69.2 484.0,89.9 C484.0,111.7 480.2,116.0 468.5,115.7 Z M478.0,44.2 C464.4,44.2 455.1,50.3 455.1,50.3 L455.1,7.3 C455.1,6.2 454.2,5.3 453.1,5.3 L428.8,5.3 C427.7,5.3 426.8,6.2 426.8,7.3 L426.8,134.2 C426.8,135.3 427.7,136.2 428.8,136.2 L445.6,136.2 C446.4,136.2 447.0,135.8 447.4,135.1 C447.8,134.5 448.4,129.3 448.4,129.3 C448.4,129.3 458.4,138.7 477.2,138.7 C499.3,138.7 512,127.5 512,88.4 C512,49.3 491.7,44.2 478.0,44.2 Z M212.2,46.7 L194.0,46.7 C194.0,46.7 194.0,22.7 194.0,22.7 C194.0,21.7 193.5,21.3 192.4,21.3 L167.7,21.3 C166.7,21.3 166.2,21.7 166.2,22.6 L166.2,47.5 C166.2,47.5 153.8,50.5 152.9,50.7 C152.1,51.0 151.5,51.7 151.5,52.6 L151.5,68.2 C151.5,69.4 152.4,70.3 153.5,70.3 L166.2,70.3 L166.2,107.8 C166.2,135.7 185.7,138.4 198.9,138.4 C205.0,138.4 212.2,136.5 213.4,136.1 C214.1,135.8 214.5,135.0 214.5,134.2 L214.5,117.1 C214.5,116.0 213.6,115.0 212.5,115.0 C211.5,115.0 208.7,115.5 206.0,115.5 C197.0,115.5 194.0,111.3 194.0,105.9 C194.0,100.6 194.0,70.3 194.0,70.3 L212.2,70.3 C213.3,70.3 214.2,69.4 214.2,68.2 L214.2,48.7 C214.2,47.6 213.3,46.7 212.2,46.7 Z" fill="white"></path>
    </g>
</svg>