<svg xmlns="http://www.w3.org/2000/svg" viewBox="0 0 74 32">
  <path fill="white" d="M65.206 29.83c-.818.948-2.477.806-2.75-.58-.13-.686.06-1.515.356-2.096.664-1.267 1.86-2.309 3.223-2.652 0 .782 0 1.812-.023 2.605-.025.876-.214 2.025-.806 2.724zM52.019 11.11c.758.046 1.363.875 1.161 2.285-.249 1.67-1.635 3.457-3.21 3.86-.25-.592-.368-1.8-.226-2.984.26-2.167 1.374-3.21 2.275-3.162zm-29.537 8.075c-1.173-1.563-1.126-3.458-.758-5.258 1.149 2.582 4.218 3.032 6.113 2.653-.249 1.99-1.292 3.73-3.092 3.73-1.007.012-1.742-.426-2.263-1.125zm4.147-7.294c.578.59.968 1.45 1.146 2.404l.003.011c0-.004-.002-.007-.003-.011-1.326.189-2.604-.06-3.54-.782-.675-.533-.853-1.374-.568-1.883.414-.734 1.658-1.054 2.962.26zM8.572 2.18c.818-.96 2.476-.806 2.737.58.13.675-.047 1.504-.343 2.084-.664 1.267-1.86 2.309-3.223 2.664 0-.793-.012-1.812.024-2.605.023-.876.213-2.037.805-2.723zm60.484 20.533c.012-4.121 0-8.242 0-12.363 0-1.018-2.926-1.077-3.02-.047 0 .414 0 .84-.013 1.255-.047 2.262-1.125 6.49-2.914 8.029-.486.414-.925.438-1.232.213-.273-.202-.344-.71-.344-1.149v-.568c0-2.546.012-5.175 0-7.721 0-1.018-2.927-1.09-3.022-.06 0 2.37 0 4.666.012 7.011-1.93 3.079-6.398 4.524-8.246.876 1.15.438 2.37.225 3.2-.213 1.433-.758 2.523-2.013 2.736-4.002.201-5.826-7.5-6.62-9.218-.687a9.927 9.927 0 00-.402 3.067c.035.983.236 1.895.58 2.7-.628.616-1.35 1.042-2.073 1.018-.948-.035-.853-1.208-.853-1.883v-4.44c0-.533 0-1.066-.048-1.587-.154-1.551-1.339-2.783-2.997-2.89-2.358-.035-4.017 2.156-4.834 4.56-.012-1.338 0-2.132 0-3.482-.012-1.006-2.725-1.077-3.033-.012-.391 1.35-1.671 2.404-2.868 3.032-.367-.888-.829-1.705-1.469-2.404-2.63-2.854-6.433-2.333-8.66.024-1.766 1.87-2.3 5.245-1.351 7.614-.7.829-1.659 1.504-2.512 1.468-.427-.024-.664-.272-.77-.663-.107-.379-.083-.829-.083-1.22 0-1.48-.012-2.96 0-4.44 0-.533 0-1.066-.047-1.587-.155-1.551-1.067-2.795-2.797-2.901-2.974-.13-4.17 2.747-5.047 5.115V9.321c.628-.107 1.232-.26 1.836-.438C16.12 7 14.851.12 9.97.002 6.676-.07 4.721 2.098 4.745 5.39V7.52c-1.185-.178-2.073-1.717-2.57-2.712l-.214-.462a.311.311 0 00-.38-.189c-.13.036-.26.083-.39.13-.474.213-.865.58-1.055 1.066-.343.865 0 1.788.604 2.44.996 1.042 2.584 1.42 3.981 1.491-.011 4.11 0 8.207 0 12.316.048.58.842.734 1.304.746.486.012 1.54-.142 1.552-.805l.035-.51c.202-1.823 1.955-9.118 4.17-9.13.546 0 .819.356.819.889v6.5c0 2.014 1.137 3.364 3.198 3.364 1.6.011 3.045-1.15 3.91-2.594.119.154.213.32.344.462a6.168 6.168 0 004.68 2.167c4.135-.06 6.255-3.612 6.102-7.105.96-.533 1.824-1.22 2.487-2.072V21.6c.048.58.877.734 1.34.746.485.012 1.54-.142 1.54-.805l.047-.51.142-1.35c.214-1.882 1.624-7.768 4.029-7.78.533 0 .805.356.805.889v6.5c0 2.014 1.138 3.364 3.211 3.364 1.434.011 2.737-.924 3.614-2.155 1.16 1.432 2.938 2.273 5.07 2.273 2.5 0 4.313-1.101 5.522-2.878.272 1.528 1.09 2.736 3.092 2.76 2.073.011 3.65-2.878 4.301-4.619v4.654c-.616.107-1.22.26-1.824.438-6.552 1.871-5.297 8.763-.415 8.87 3.305.083 5.248-2.085 5.237-5.376 0-.557-.012-1.599 0-2.144 1.173.178 2.073 1.73 2.559 2.724.083.154.154.308.213.462a.336.336 0 00.391.189c.13-.035.26-.083.38-.142.485-.213.876-.568 1.066-1.066.343-.864 0-1.776-.617-2.427-.983-1.054-2.583-1.421-3.969-1.504z" />
</svg>
