<svg viewBox="0 0 256 256" xmlns="http://www.w3.org/2000/svg"><path fill="white" d="M45.1,63.8 C48.9,72.4 54.5,80.7 61.1,85.5 C64.2,87.8 67.5,89.4 71.3,90.0 L71.3,66.1 C71.3,51.7 75.0,38.6 82.8,28.4 C92.3,15.8 107.2,8.3 123,8 C138.0,7.6 152.5,13.6 161.5,25.0 C170.8,36.6 173.3,52.5 168.4,67.2 C165.3,76.5 159.2,84.8 151.3,91.2 C144.3,96.8 136.0,100.7 127.3,103.7 C119.5,106.5 111.5,108.3 103.3,109.4 L103.3,164.2 C109.5,144.9 118.7,127.7 132,118 C139.3,112.5 147.6,109.6 156,110 C163.8,110.3 171.3,113.5 177,119 C184.0,125.7 187.8,135.3 187.8,146.0 L187.8,195.0 C187.8,201.8 189.1,207.3 192.6,209.8 C197.3,213.1 205.0,211.0 212.0,206.4 C216.0,203.8 219.6,200.5 223.0,197.0 C223.9,196.2 224.7,195.3 225.7,195.0 C227.6,194.3 230.0,195.2 232,197 C233.7,198.5 234.9,200.6 235,203 C235.1,206.5 232.6,210.2 230,214 C226.0,219.5 222.0,224.8 217,229 C205.1,238.8 190.0,242.1 177,237 C163.8,231.8 155,219.0 155,203 L155,148.3 C155,143.8 152.0,140.6 148,140 C140.9,138.9 132.7,146.2 126,156 C119.9,164.7 115.8,174.7 112,185 C107.9,195.9 103.9,206.4 103,217 C102.5,221.9 102.6,226.6 100.6,230.1 C98.0,234.6 92.1,236.8 85.8,236.9 C77.8,237.1 71.3,234.3 71.3,229 L71.3,109.4 C54.4,108.5 38.9,104.3 29.1,94.6 C23.1,88.8 19.7,81.5 20.0,74.1 C20.2,68.4 22.7,63.1 26.8,59.2 C29.1,57.0 31.9,55.4 34.8,54.6 C36.4,54.2 38.1,54.0 39.4,54.6 C40.3,55.1 41.0,55.9 41.7,56.9 C42.9,58.9 44.0,61.4 45.1,63.8 Z M103.3,90.0 C110.0,88.1 116.2,85.1 121.6,80.9 C128.3,75.7 133.8,69.1 137.6,61.5 C142.3,51.8 144.0,41.4 139.8,34.1 C137.0,29.0 131.6,25.9 126,26 C119.9,26.0 114.1,29.7 110.2,35.2 C104.8,42.7 103.3,52.8 103.3,63.8 L103.3,90.0 Z"/></svg>