<svg xmlns="http://www.w3.org/2000/svg" xmlns:xlink="http://www.w3.org/1999/xlink" id="svg8" version="1.1" viewBox="0 0 66.166 65.804">
  <defs/>
  <defs id="defs2">
    <linearGradient id="linearGradient2135">
      <stop id="stop2131" offset="0" stop-color="#06c2e7" stop-opacity="1"/>
      <stop id="stop2143" offset=".25" stop-color="#0db8ec" stop-opacity="1"/>
      <stop id="stop2139" offset=".5" stop-color="#12aef1" stop-opacity="1"/>
      <stop id="stop2141" offset=".75" stop-color="#1f86f9" stop-opacity="1"/>
      <stop id="stop2133" offset="1" stop-color="#107ddd" stop-opacity="1"/>
    </linearGradient>
    <linearGradient id="linearGradient2127">
      <stop id="stop2123" offset="0" stop-color="#bdbdbd" stop-opacity="1"/>
      <stop id="stop2125" offset="1" stop-color="#fff" stop-opacity="1"/>
    </linearGradient>
    <linearGradient id="linearGradient2129" x1="412.975" x2="412.975" y1="237.608" y2="59.392" gradientTransform="matrix(.35154 0 0 .35154 206.79 159.773)" gradientUnits="userSpaceOnUse" xlink:href="#linearGradient2127"/>
    <filter id="filter2222" width="1.042" height="1.045" x="-.021" y="-.022" color-interpolation-filters="sRGB">
      <feGaussianBlur id="feGaussianBlur2224" stdDeviation=".958"/>
    </filter>
    <filter id="filter2248" width="1.096" height="1.096" x="-.048" y="-.048" color-interpolation-filters="sRGB">
      <feGaussianBlur id="feGaussianBlur2250" stdDeviation="3.564"/>
    </filter>
    <radialGradient id="radialGradient2137" cx="413.061" cy="136.818" r="82.125" fx="413.061" fy="136.818" gradientTransform="matrix(.38143 0 0 .38143 194.545 155.58)" gradientUnits="userSpaceOnUse" xlink:href="#linearGradient2135"/>
  </defs>
  <g id="layer1" transform="translate(-318.886 -180.595)">
    <g id="g2858" stroke-opacity="1">
      <path id="path2226" fill="#000" fill-opacity="1" stroke="none" stroke-dasharray="none" stroke-dashoffset="0" stroke-linecap="round" stroke-linejoin="round" stroke-miterlimit="4" stroke-width="2.931" d="M502.083 148.5a89.108 89.108 0 01-89.108 89.108 89.108 89.108 0 01-89.108-89.108 89.108 89.108 0 0189.108-89.108 89.108 89.108 0 0189.108 89.108z" filter="url(#filter2248)" opacity=".53" paint-order="markers stroke fill" transform="matrix(.33865 0 0 .3261 212.116 166.117)"/>
      <path id="path826" fill="url(#linearGradient2129)" fill-opacity="1" stroke="#cdcdcd" stroke-dasharray="none" stroke-dashoffset="0" stroke-linecap="round" stroke-linejoin="round" stroke-miterlimit="4" stroke-width=".093" d="M383.294 211.977a31.325 31.325 0 01-31.325 31.325 31.325 31.325 0 01-31.326-31.325 31.325 31.325 0 0131.326-31.325 31.325 31.325 0 0131.325 31.325z" opacity="1" paint-order="markers stroke fill"/>
      <path id="circle828" fill="url(#radialGradient2137)" fill-opacity="1" stroke="none" stroke-dasharray="none" stroke-dashoffset="0" stroke-linecap="round" stroke-linejoin="round" stroke-miterlimit="4" stroke-width=".95" d="M380.84 211.977a28.87 28.87 0 01-28.871 28.87 28.87 28.87 0 01-28.871-28.87 28.87 28.87 0 0128.87-28.87 28.87 28.87 0 0128.871 28.87z" opacity="1" paint-order="markers stroke fill"/>
      <path id="rect830" fill="#f4f2f3" fill-opacity="1" stroke="none" stroke-dasharray="none" stroke-dashoffset="0" stroke-linecap="round" stroke-linejoin="round" stroke-miterlimit="4" stroke-width=".381" d="M351.969 184.612a.42.42 0 00-.421.42v4.856a.42.42 0 10.841 0v-4.855a.42.42 0 00-.42-.421zm-2.754.174a.42.42 0 00-.46.463l.212 2.03a.42.42 0 10.837-.087l-.212-2.03a.42.42 0 00-.377-.376zm5.526.002a.42.42 0 00-.377.375l-.213 2.03a.42.42 0 10.837.089l.214-2.031a.42.42 0 00-.46-.463zm-8.355.408a.42.42 0 00-.41.508l1.006 4.75a.42.42 0 10.824-.174l-1.006-4.75a.42.42 0 00-.414-.334zm11.184.004a.42.42 0 00-.414.333l-1.01 4.75a.42.42 0 10.824.175l1.01-4.75a.42.42 0 00-.41-.508zm-13.883.757a.42.42 0 00-.437.55l.631 1.942a.42.42 0 10.8-.26l-.63-1.942a.42.42 0 00-.364-.29zm16.567.001a.42.42 0 00-.364.29l-.631 1.942a.42.42 0 10.8.26l.632-1.942a.42.42 0 00-.437-.55zm-19.237.976a.42.42 0 00-.377.592l1.972 4.437a.42.42 0 10.77-.342l-1.973-4.437a.42.42 0 00-.392-.25zm21.937.015a.42.42 0 00-.393.25l-1.978 4.434a.42.42 0 10.77.343l1.977-4.434a.42.42 0 00-.376-.593zm-24.415 1.296a.42.42 0 00-.394.63l1.021 1.77a.42.42 0 10.73-.421l-1.022-1.769a.42.42 0 00-.335-.21zm26.859 0a.419.419 0 00-.335.21l-1.021 1.769a.42.42 0 10.729.42l1.021-1.768a.42.42 0 00-.394-.63zm-29.265 1.5a.422.422 0 00-.326.669l2.85 3.93a.42.42 0 10.682-.494l-2.851-3.93a.42.42 0 00-.355-.174zm31.701.022a.42.42 0 00-.355.174l-2.856 3.926a.42.42 0 10.68.495l2.857-3.926a.42.42 0 00-.326-.669zm-33.852 1.783a.42.42 0 00-.335.702l1.367 1.518a.42.42 0 10.626-.563l-1.367-1.518a.42.42 0 00-.29-.14zm35.976.003a.421.421 0 00-.291.139l-1.366 1.517a.42.42 0 10.625.564l1.367-1.518a.42.42 0 00-.335-.702zm-38.037 1.977a.42.42 0 00-.26.733l3.609 3.249a.42.42 0 10.563-.626l-3.608-3.248a.42.42 0 00-.304-.108zm40.108.014a.419.419 0 00-.304.108l-3.61 3.245a.42.42 0 10.563.626l3.61-3.245a.42.42 0 00-.259-.734zm-41.822 2.19a.42.42 0 00-.262.762l1.652 1.2a.42.42 0 10.495-.681l-1.652-1.2a.42.42 0 00-.233-.081zm43.535.015a.421.421 0 00-.233.08l-1.653 1.2a.42.42 0 10.494.681l1.653-1.2a.42.42 0 00-.261-.76zm-45.137 2.336a.42.42 0 00-.18.785l4.204 2.427a.42.42 0 10.42-.729l-4.204-2.427a.42.42 0 00-.24-.056zm46.727 0a.417.417 0 00-.24.056l-4.204 2.427a.42.42 0 10.42.73l4.205-2.428a.42.42 0 00-.18-.785zm-47.938 2.506a.42.42 0 00-.18.805l1.865.833a.42.42 0 10.343-.77l-1.865-.831a.42.42 0 00-.163-.037zm49.158.017a.42.42 0 00-.164.037l-1.866.83a.42.42 0 10.343.77l1.866-.831a.42.42 0 00-.18-.806zm-50.238 2.602a.42.42 0 00-.094.82l4.616 1.504a.42.42 0 10.26-.8l-4.615-1.504a.421.421 0 00-.167-.02zm51.315.018a.408.408 0 00-.166.02l-4.618 1.5a.42.42 0 10.26.801l4.618-1.5a.42.42 0 00-.094-.82zm-51.987 2.732a.42.42 0 00-.09.833l1.997.424a.42.42 0 10.175-.823l-1.997-.425a.413.413 0 00-.085-.009zm52.654.004a.518.518 0 00-.084.009l-1.998.424a.42.42 0 10.175.823l1.997-.424a.42.42 0 00-.09-.833zm-53.163 2.761a.42.42 0 00-.003.838l4.828.51a.42.42 0 10.088-.837l-4.828-.51a.432.432 0 00-.085 0zm53.676.037a.386.386 0 00-.086 0l-4.828.504a.42.42 0 10.087.837l4.829-.504a.42.42 0 00-.002-.837zm-53.758 2.794a.42.42 0 100 .842h2.042a.42.42 0 100-.842zm51.793 0a.42.42 0 100 .842h2.042a.42.42 0 100-.842zm-46.803 2.295a.384.384 0 00-.086 0l-4.829.504a.42.42 0 10.088.838l4.829-.504a.42.42 0 00-.002-.838zm43.853.03a.42.42 0 00-.003.838l4.828.51a.42.42 0 10.089-.837l-4.829-.51a.434.434 0 00-.085-.001zm-46.26 2.844a.43.43 0 00-.085.009l-1.998.424a.42.42 0 10.175.823l1.998-.424a.42.42 0 00-.09-.833zm48.669.004a.42.42 0 00-.09.833l1.998.424a.42.42 0 10.175-.824l-1.998-.424a.413.413 0 00-.085-.01zm-45.305 1.657a.408.408 0 00-.167.02l-4.617 1.5a.42.42 0 10.26.801l4.618-1.5a.42.42 0 00-.094-.82zm41.937.015a.42.42 0 00-.094.82l4.616 1.504a.42.42 0 10.26-.8l-4.616-1.504a.421.421 0 00-.166-.02zm-43.7 3.273a.42.42 0 00-.163.036l-1.865.831a.42.42 0 10.342.769l1.866-.83a.42.42 0 00-.18-.806zm45.46.016a.42.42 0 00-.18.805l1.865.832a.42.42 0 10.343-.768l-1.865-.833a.42.42 0 00-.163-.036zm-41.827.912a.417.417 0 00-.24.056l-4.204 2.427a.42.42 0 10.42.73l4.205-2.428a.42.42 0 00-.18-.785zm38.2 0a.42.42 0 00-.181.785l4.205 2.427a.42.42 0 10.421-.729l-4.204-2.427a.42.42 0 00-.24-.056zm-39.248 3.562a.421.421 0 00-.233.08l-1.653 1.2a.42.42 0 10.494.682l1.653-1.2a.42.42 0 00-.261-.762zm40.287.015a.42.42 0 00-.262.762l1.653 1.2a.42.42 0 10.495-.681l-1.653-1.2a.42.42 0 00-.233-.081zm-36.544.145a.418.418 0 00-.303.108l-3.611 3.245a.42.42 0 10.563.626l3.61-3.245a.42.42 0 00-.259-.734zm32.8.011a.421.421 0 00-.259.734l3.608 3.248a.42.42 0 10.564-.625l-3.609-3.249a.42.42 0 00-.303-.107zm-29.374 3.084a.42.42 0 00-.355.173l-2.857 3.927a.42.42 0 10.681.495l2.856-3.926a.42.42 0 00-.325-.669zm25.936.018a.421.421 0 00-.327.668l2.851 3.93a.42.42 0 10.682-.494l-2.851-3.93a.42.42 0 00-.355-.174zm-29.623.606a.421.421 0 00-.291.14l-1.366 1.517a.42.42 0 10.625.563l1.367-1.517a.42.42 0 00-.335-.703zm33.33.002a.42.42 0 00-.335.702l1.367 1.518a.42.42 0 10.626-.563l-1.367-1.518a.42.42 0 00-.29-.139zm-25.655 1.684a.419.419 0 00-.392.25l-1.978 4.433a.42.42 0 10.769.343l1.978-4.434a.42.42 0 00-.377-.592zm17.956.012a.42.42 0 00-.377.592l1.972 4.437a.42.42 0 10.77-.342l-1.973-4.437a.42.42 0 00-.392-.25zm-21.432 1.359a.419.419 0 00-.335.21l-1.02 1.768a.42.42 0 10.728.421l1.021-1.769a.42.42 0 00-.394-.63zm24.935 0a.42.42 0 00-.394.63l1.02 1.77a.42.42 0 10.73-.422l-1.021-1.769a.42.42 0 00-.335-.21zm-17.055.063a.42.42 0 00-.414.334l-1.009 4.749a.42.42 0 10.823.175l1.01-4.75a.42.42 0 00-.41-.508zm9.16.003a.42.42 0 00-.41.508l1.006 4.75a.42.42 0 10.824-.175l-1.006-4.75a.42.42 0 00-.414-.333zm-4.572.48a.42.42 0 00-.421.42v4.855a.42.42 0 10.841 0v-4.855a.42.42 0 00-.42-.42zm-7.727 1.568a.42.42 0 00-.364.29l-.632 1.942a.42.42 0 10.801.26l.631-1.942a.42.42 0 00-.436-.55zm15.45 0a.42.42 0 00-.437.55l.631 1.943a.42.42 0 10.801-.26l-.631-1.942a.42.42 0 00-.364-.29zm-10.366 1.083a.42.42 0 00-.377.375l-.213 2.03a.42.42 0 10.837.088l.213-2.03a.42.42 0 00-.46-.463zm5.268.002a.42.42 0 00-.46.463l.211 2.03a.42.42 0 10.837-.088l-.211-2.03a.42.42 0 00-.377-.375z" opacity="1" paint-order="markers stroke fill"/>
      <path id="path2150" fill="#000" fill-opacity="1" stroke="none" stroke-dasharray="none" stroke-dashoffset="0" stroke-linecap="round" stroke-linejoin="round" stroke-miterlimit="4" stroke-width="1.561" d="M469.096 100.607l-65.51 38.061-41.42 65.207 60.595-44.882z" filter="url(#filter2222)" opacity=".409" paint-order="markers stroke fill" transform="matrix(.35154 0 0 .35154 206.79 159.773)"/>
      <g id="g2847" stroke="none">
        <path id="path2096" fill="#ff5150" fill-opacity="1" stroke-dasharray="none" stroke-dashoffset="0" stroke-linecap="round" stroke-linejoin="round" stroke-miterlimit="4" stroke-width="1.02" d="M129.839 160.803l-23.014-23.015 31.437-8.423z" opacity="1" paint-order="markers stroke fill" transform="matrix(.64804 -.3317 -.36122 .63206 329.213 156.863)"/>
        <path id="path2099" fill="#f1f1f1" fill-opacity="1" stroke-dasharray="none" stroke-dashoffset="0" stroke-linecap="round" stroke-linejoin="round" stroke-miterlimit="4" stroke-width="1.02" d="M129.839 160.803l-23.014-23.015 31.437-8.423z" opacity="1" paint-order="markers stroke fill" transform="matrix(-.36122 .63206 .64804 -.3317 297.963 186.704)"/>
        <path id="path2112" fill="#000" stroke-linecap="butt" stroke-linejoin="miter" stroke-width=".093" d="M331.853 231.185l23.416-15.752 16.815-22.665z" opacity=".243"/>
      </g>
    </g>
  </g>
</svg>