<svg viewBox="0 0 340 690" xmlns="http://www.w3.org/2000/svg"><defs><linearGradient x1="136.5" y1="401.1" x2="-392" y2="-216" id="gradient7852" gradientUnits="userSpaceOnUse"><stop offset="0%" stop-color="rgb(36,74,108)"/><stop offset="100%" stop-color="rgb(103,168,215)"/></linearGradient><linearGradient x1="207" y1="26" x2="207" y2="36" id="gradient7855" gradientUnits="userSpaceOnUse"><stop offset="0%" stop-color="rgb(27,28,30)"/><stop offset="100%" stop-color="rgb(36,74,108)"/></linearGradient></defs><g><path d="M4,61 C4,27.5 27.0,5 61,5 L280,5 C312.8,5 335,27.6 335,61 L335,631 C335,662.2 315.7,684 287,684 L53,684 C23.6,684 4,662.2 4,631 L4,61 Z" fill="url(#gradient7852)"/><path d="M8,61 C8,29.9 29.4,9 61,9 L280,9 C310.4,9 331,30.0 331,61 L331,631 C331,659.8 313.3,680 287,680 L53,680 C26.0,680 8,659.9 8,631 L8,61 Z" fill="rgb(0,0,0)"/><path d="M153,29 L188,29 C191.2,29 191.2,34 188,34 L153,34 C149.7,34 149.7,29 153,29 Z" fill="rgb(27,28,30)"/><path d="M207,26 C209.7,25.9 212.0,28.2 212,31 C211.9,33.7 209.7,36 207,36 C204.2,36 202.0,33.7 202,31 C201.9,28.2 204.2,25.9 207,26 Z" fill="url(#gradient7855)"/></g><g><path d="M72,21 C74.2,21 76.0,22.7 77,25 C78.3,28.2 77.8,32.3 79,36 C79.9,39.1 82.2,41.9 85,44 C88.6,46.6 93.1,48 98,48 L242,48 C247.4,48 252.3,45.7 256,42 C258.6,39.2 260.5,35.7 261,32 C261.3,29.1 260.9,26.1 262,24 C262.9,22.1 264.7,21 267,21 L285,21 C306.5,21 321,36.4 321,59 L321,629 C321,652.7 305.2,669 282,669 L56,669 C33.2,669 18,652.6 18,629 L18,62 C18,38.0 31.9,21 53,21 L72,21 Z" fill="rgb(27,28,30)"/><path d="M72,21 C74.2,21 76.0,22.7 77,25 C78.3,28.2 77.8,32.3 79,36 C79.9,39.1 82.2,41.9 85,44 C88.6,46.6 93.1,48 98,48 L242,48 C247.4,48 252.3,45.7 256,42 C258.6,39.2 260.5,35.7 261,32 C261.3,29.1 260.9,26.1 262,24 C262.9,22.1 264.7,21 267,21 L285,21 C306.5,21 321,36.4 321,59 L321,114 L18,114 L18,62 C18,38.0 31.9,21 53,21 L72,21 Z" fill="rgb(73,50,114)"/><path d="M38.6,48.0 L36.1,48.0 L36.1,41.3 L36.2,40.3 L36.2,39.1 Q35.6,39.7 35.4,39.9 L34.1,40.9 L32.9,39.5 L36.6,36.5 L38.6,36.5 L38.6,48.0 Z M49.7,48.0 L41.7,48.0 L41.7,46.3 L44.6,43.4 Q45.9,42.1 46.3,41.6 Q46.6,41.1 46.8,40.6 Q47.0,40.2 47.0,39.7 Q47.0,39.1 46.6,38.7 Q46.2,38.4 45.6,38.4 Q44.9,38.4 44.3,38.7 Q43.7,39.0 43.0,39.6 L41.7,38.0 Q42.5,37.3 43.1,37.0 Q43.6,36.7 44.3,36.5 Q45.0,36.4 45.8,36.4 Q46.8,36.4 47.7,36.8 Q48.5,37.2 48.9,37.9 Q49.4,38.6 49.4,39.5 Q49.4,40.3 49.1,40.9 Q48.8,41.6 48.3,42.4 Q47.7,43.1 46.2,44.4 L44.7,45.8 L44.7,45.9 L49.7,45.9 L49.7,48.0 Z M51.1,46.8 Q51.1,46.2 51.5,45.8 Q51.8,45.5 52.5,45.5 Q53.2,45.5 53.5,45.9 Q53.9,46.2 53.9,46.8 Q53.9,47.5 53.5,47.8 Q53.1,48.2 52.5,48.2 Q51.8,48.2 51.5,47.8 Q51.1,47.5 51.1,46.8 M51.1,40.4 Q51.1,39.7 51.5,39.4 Q51.8,39.1 52.5,39.1 Q53.2,39.1 53.5,39.4 Q53.9,39.7 53.9,40.4 Q53.9,41.0 53.5,41.4 Q53.1,41.7 52.5,41.7 Q51.8,41.7 51.5,41.4 Q51.1,41.0 51.1,40.4 Z M63.3,42.2 Q63.3,45.2 62.4,46.7 Q61.4,48.1 59.3,48.1 Q57.4,48.1 56.4,46.6 Q55.4,45.1 55.4,42.2 Q55.4,39.2 56.3,37.8 Q57.3,36.4 59.3,36.4 Q61.3,36.4 62.3,37.9 Q63.3,39.4 63.3,42.2 M57.8,42.2 Q57.8,44.3 58.1,45.3 Q58.5,46.2 59.3,46.2 Q60.2,46.2 60.6,45.2 Q60.9,44.3 60.9,42.2 Q60.9,40.1 60.6,39.2 Q60.2,38.3 59.3,38.3 Q58.5,38.3 58.1,39.2 Q57.8,40.1 57.8,42.2 Z M72.5,42.2 Q72.5,45.2 71.5,46.7 Q70.5,48.1 68.5,48.1 Q66.5,48.1 65.5,46.6 Q64.5,45.1 64.5,42.2 Q64.5,39.2 65.5,37.8 Q66.4,36.4 68.5,36.4 Q70.5,36.4 71.5,37.9 Q72.5,39.4 72.5,42.2 M66.9,42.2 Q66.9,44.3 67.3,45.3 Q67.6,46.2 68.5,46.2 Q69.3,46.2 69.7,45.2 Q70.1,44.3 70.1,42.2 Q70.1,40.1 69.7,39.2 Q69.3,38.3 68.5,38.3 Q67.6,38.3 67.3,39.2 Q66.9,40.1 66.9,42.2 Z " fill="rgb(207,198,180)"/><path d="M294,39 L307,39 C307.6,39 307.9,39.6 308,41 C309.2,41.1 310,41.9 310,43 C310,44.0 309.2,44.8 308,45 C307.9,46.3 307.6,47 307,47 L294,47 C293.4,47 293,46.5 293,46 L293,40 C293,39.4 293.4,39 294,39 Z" fill="rgb(207,198,180)"/><path d="M275,41 L282,48 L289,41 C287.0,39.0 284.5,38 282,38 C279.4,38 276.9,39.0 275,41 Z" fill="rgb(207,198,180)"/><path d="M259,44 L262,44 L262,42 L265,42 L265,40 L268,40 L268,38 L271,38 L271,47 L259,47 L259,44 Z" fill="rgb(207,198,180)"/><path d="M35,193 L303,193 L303,195 L35,195 L35,193 Z" fill="rgb(73,50,114)"/><path d="M39.7,297.1 L42.3,284.6 L43.8,284.6 L41.1,297.1 L39.7,297.1 Z M50.0,297.1 L51.2,291.2 Q51.4,290.3 51.4,290.0 Q51.4,289.5 51.1,289.1 Q50.8,288.8 50.1,288.8 Q49.4,288.8 48.6,289.3 Q47.9,289.8 47.4,290.8 Q46.8,291.7 46.5,293.1 L45.7,297.1 L44.2,297.1 L46.2,287.8 L47.4,287.8 L47.2,289.5 L47.3,289.5 Q48.1,288.5 48.9,288.0 Q49.7,287.6 50.5,287.6 Q51.6,287.6 52.2,288.2 Q52.8,288.8 52.8,289.9 Q52.8,290.5 52.6,291.4 L51.4,297.1 L50.0,297.1 Z M58.2,297.3 Q56.5,297.3 55.6,296.4 Q54.7,295.5 54.7,293.8 Q54.7,292.1 55.3,290.7 Q55.9,289.2 57.1,288.4 Q58.2,287.6 59.6,287.6 Q60.7,287.6 61.9,288.0 L61.5,289.2 Q60.4,288.8 59.6,288.8 Q58.6,288.8 57.8,289.5 Q57.0,290.1 56.6,291.3 Q56.2,292.4 56.2,293.8 Q56.2,294.9 56.7,295.5 Q57.3,296.1 58.3,296.1 Q58.9,296.1 59.5,296.0 Q60.0,295.8 60.5,295.5 L60.5,296.8 Q59.5,297.3 58.2,297.3 Z M63.7,297.1 L62.2,297.1 L65.1,283.8 L66.5,283.8 L63.7,297.1 Z M70.0,287.8 L68.8,293.7 Q68.6,294.5 68.6,294.9 Q68.6,296.1 69.9,296.1 Q70.6,296.1 71.3,295.6 Q72.1,295.1 72.6,294.1 Q73.2,293.2 73.5,291.8 L74.3,287.8 L75.7,287.8 L73.8,297.1 L72.6,297.1 L72.8,295.4 L72.7,295.4 Q71.8,296.5 71.1,296.9 Q70.3,297.3 69.5,297.3 Q68.4,297.3 67.8,296.7 Q67.1,296.1 67.1,295.0 Q67.1,294.5 67.3,293.5 L68.6,287.8 L70.0,287.8 Z M81.8,287.6 Q83.4,287.6 84.2,289.2 L84.2,289.2 Q84.4,287.9 84.6,286.9 L85.3,283.8 L86.7,283.8 L83.9,297.1 L82.7,297.1 L82.9,295.4 L82.8,295.4 Q82.0,296.4 81.2,296.9 Q80.5,297.3 79.6,297.3 Q78.5,297.3 77.8,296.5 Q77.1,295.6 77.1,294.1 Q77.1,292.3 77.7,290.8 Q78.4,289.3 79.4,288.4 Q80.5,287.6 81.8,287.6 M80.1,296.1 Q80.9,296.1 81.8,295.3 Q82.6,294.5 83.1,293.3 Q83.6,292.0 83.6,290.7 Q83.6,289.8 83.2,289.3 Q82.7,288.8 81.8,288.8 Q81.0,288.8 80.2,289.5 Q79.5,290.2 79.0,291.5 Q78.6,292.8 78.6,294.2 Q78.6,296.1 80.1,296.1 Z M90.6,297.3 Q89.0,297.3 88.1,296.4 Q87.2,295.4 87.2,293.8 Q87.2,292.2 87.9,290.7 Q88.5,289.2 89.6,288.4 Q90.6,287.6 91.9,287.6 Q93.2,287.6 93.8,288.2 Q94.5,288.7 94.5,289.8 Q94.5,291.3 93.1,292.2 Q91.7,293.0 89.0,293.0 L88.7,293.0 L88.7,293.7 Q88.7,294.8 89.2,295.5 Q89.8,296.1 90.9,296.1 Q91.4,296.1 92.0,296.0 Q92.5,295.8 93.4,295.4 L93.4,296.6 Q92.6,297.0 92.0,297.2 Q91.3,297.3 90.6,297.3 M91.8,288.8 Q90.9,288.8 90.1,289.6 Q89.4,290.4 89.0,291.9 L89.1,291.9 Q91.0,291.9 92.0,291.3 Q93.1,290.8 93.1,289.9 Q93.1,289.4 92.8,289.1 Q92.5,288.8 91.8,288.8 Z M101.3,294.5 Q101.3,295.8 100.4,296.6 Q99.4,297.3 97.7,297.3 Q96.3,297.3 95.1,296.7 L95.1,295.4 Q95.7,295.7 96.4,295.9 Q97.1,296.1 97.7,296.1 Q98.8,296.1 99.3,295.7 Q99.9,295.3 99.9,294.6 Q99.9,294.1 99.6,293.8 Q99.3,293.4 98.3,292.9 Q97.1,292.2 96.7,291.6 Q96.2,291.0 96.2,290.2 Q96.2,289.0 97.1,288.3 Q98.0,287.6 99.4,287.6 Q100.8,287.6 102.2,288.2 L101.7,289.4 L101.2,289.2 Q100.4,288.8 99.4,288.8 Q98.6,288.8 98.1,289.2 Q97.7,289.6 97.7,290.2 Q97.7,290.6 98.0,291.0 Q98.3,291.3 99.2,291.9 Q100.1,292.4 100.5,292.7 Q100.9,293.1 101.1,293.5 Q101.3,294.0 101.3,294.5 Z M113.0,297.1 L114.3,291.2 Q114.5,290.4 114.5,290.1 Q114.5,289.5 114.2,289.1 Q113.9,288.8 113.3,288.8 Q112.6,288.8 111.9,289.3 Q111.2,289.8 110.7,290.8 Q110.2,291.7 109.9,293.1 L109.0,297.1 L107.6,297.1 L109.6,287.8 L110.8,287.8 L110.6,289.5 L110.7,289.5 Q111.4,288.5 112.2,288.0 Q112.9,287.6 113.7,287.6 Q114.7,287.6 115.2,288.2 Q115.7,288.7 115.8,289.7 L115.9,289.7 Q116.6,288.6 117.4,288.1 Q118.3,287.6 119.1,287.6 Q120.2,287.6 120.8,288.2 Q121.4,288.8 121.4,289.9 Q121.4,290.5 121.2,291.4 L120.0,297.1 L118.5,297.1 L119.8,291.2 Q119.9,290.3 119.9,290.0 Q119.9,289.4 119.6,289.1 Q119.4,288.8 118.7,288.8 Q118.0,288.8 117.4,289.3 Q116.7,289.8 116.2,290.7 Q115.7,291.6 115.4,292.9 L114.5,297.1 L113.0,297.1 Z M127.8,287.6 Q128.6,287.6 129.2,288.0 Q129.8,288.4 130.2,289.2 L130.3,289.2 L130.9,287.8 L131.9,287.8 L130.0,297.1 L128.8,297.1 L129.0,295.4 L129.0,295.4 Q127.4,297.3 125.7,297.3 Q124.6,297.3 123.9,296.5 Q123.2,295.6 123.2,294.1 Q123.2,292.4 123.8,290.8 Q124.4,289.3 125.5,288.5 Q126.6,287.6 127.8,287.6 M126.2,296.1 Q127.0,296.1 127.9,295.3 Q128.7,294.5 129.2,293.3 Q129.7,292.0 129.7,290.7 Q129.7,289.8 129.2,289.3 Q128.7,288.8 128.0,288.8 Q127.1,288.8 126.3,289.5 Q125.5,290.3 125.1,291.5 Q124.7,292.8 124.7,294.2 Q124.7,295.2 125.1,295.6 Q125.5,296.1 126.2,296.1 Z M136.6,297.3 Q134.9,297.3 134.0,296.4 Q133.1,295.5 133.1,293.8 Q133.1,292.1 133.7,290.7 Q134.4,289.2 135.5,288.4 Q136.6,287.6 138.0,287.6 Q139.2,287.6 140.3,288.0 L139.9,289.2 Q138.9,288.8 138.0,288.8 Q137.0,288.8 136.3,289.5 Q135.5,290.1 135.0,291.3 Q134.6,292.4 134.6,293.8 Q134.6,294.9 135.1,295.5 Q135.7,296.1 136.7,296.1 Q137.3,296.1 137.9,296.0 Q138.4,295.8 138.9,295.5 L138.9,296.8 Q137.9,297.3 136.6,297.3 Z M152.2,289.4 Q152.2,291.7 151.5,293.5 Q150.7,295.3 149.3,296.3 Q147.9,297.3 146.1,297.3 Q143.9,297.3 142.7,296.0 Q141.4,294.8 141.4,292.4 Q141.4,290.2 142.3,288.3 Q143.1,286.5 144.5,285.4 Q145.9,284.4 147.7,284.4 Q149.8,284.4 151.0,285.8 Q152.2,287.1 152.2,289.4 M147.6,285.7 Q146.3,285.7 145.2,286.6 Q144.2,287.5 143.6,289.0 Q143.0,290.5 143.0,292.4 Q143.0,294.1 143.8,295.1 Q144.7,296.0 146.1,296.0 Q147.4,296.0 148.4,295.2 Q149.5,294.4 150.1,292.8 Q150.7,291.2 150.7,289.3 Q150.7,287.6 149.9,286.7 Q149.1,285.7 147.6,285.7 Z M160.6,293.5 Q160.6,295.3 159.4,296.3 Q158.2,297.3 156.0,297.3 Q155.1,297.3 154.4,297.2 Q153.7,297.1 153.1,296.8 L153.1,295.3 Q154.5,296.0 156.0,296.0 Q157.4,296.0 158.2,295.4 Q159.0,294.7 159.0,293.6 Q159.0,292.9 158.6,292.4 Q158.1,291.9 156.9,291.2 Q155.6,290.5 155.1,289.8 Q154.6,289.1 154.6,288.1 Q154.6,286.5 155.7,285.5 Q156.9,284.5 158.7,284.5 Q159.5,284.5 160.3,284.6 Q161.0,284.8 161.8,285.2 L161.3,286.5 Q160.7,286.1 160.0,285.9 Q159.3,285.8 158.7,285.8 Q157.6,285.8 156.9,286.4 Q156.2,286.9 156.2,288.0 Q156.2,288.4 156.3,288.8 Q156.4,289.1 156.8,289.4 Q157.1,289.7 158.0,290.2 Q159.2,290.9 159.7,291.4 Q160.1,291.8 160.3,292.3 Q160.6,292.8 160.6,293.5 Z M171.6,287.6 Q172.4,287.6 173.0,288.0 Q173.6,288.4 173.9,289.2 L174.0,289.2 L174.6,287.8 L175.7,287.8 L173.7,297.1 L172.6,297.1 L172.8,295.4 L172.7,295.4 Q171.2,297.3 169.5,297.3 Q168.3,297.3 167.6,296.5 Q166.9,295.6 166.9,294.1 Q166.9,292.4 167.6,290.8 Q168.2,289.3 169.2,288.5 Q170.3,287.6 171.6,287.6 M169.9,296.1 Q170.8,296.1 171.6,295.3 Q172.4,294.5 172.9,293.3 Q173.4,292.0 173.4,290.7 Q173.4,289.8 173.0,289.3 Q172.5,288.8 171.7,288.8 Q170.8,288.8 170.1,289.5 Q169.3,290.3 168.9,291.5 Q168.4,292.8 168.4,294.2 Q168.4,295.2 168.8,295.6 Q169.2,296.1 169.9,296.1 Z M180.7,297.3 Q179.8,297.3 179.2,296.9 Q178.6,296.5 178.2,295.7 L178.2,295.7 L178.1,296.0 Q178.1,296.2 178.0,296.6 Q178.0,297.0 177.1,301.3 L175.6,301.3 L178.5,287.8 L179.7,287.8 L179.5,289.6 L179.5,289.6 Q181.1,287.6 182.7,287.6 Q183.9,287.6 184.6,288.4 Q185.2,289.3 185.2,290.8 Q185.2,292.6 184.7,294.1 Q184.1,295.6 183.0,296.5 Q182.0,297.3 180.7,297.3 M182.3,288.8 Q181.4,288.8 180.6,289.6 Q179.7,290.4 179.2,291.7 Q178.7,292.9 178.7,294.2 Q178.7,295.1 179.2,295.6 Q179.7,296.1 180.6,296.1 Q181.4,296.1 182.2,295.4 Q182.9,294.7 183.3,293.5 Q183.8,292.2 183.8,290.7 Q183.8,288.8 182.3,288.8 Z M190.8,297.3 Q189.9,297.3 189.3,296.9 Q188.7,296.5 188.4,295.7 L188.3,295.7 L188.2,296.0 Q188.2,296.2 188.1,296.6 Q188.1,297.0 187.2,301.3 L185.7,301.3 L188.6,287.8 L189.8,287.8 L189.6,289.6 L189.7,289.6 Q191.2,287.6 192.8,287.6 Q194.0,287.6 194.7,288.4 Q195.4,289.3 195.4,290.8 Q195.4,292.6 194.8,294.1 Q194.2,295.6 193.1,296.5 Q192.1,297.3 190.8,297.3 M192.4,288.8 Q191.5,288.8 190.7,289.6 Q189.8,290.4 189.3,291.7 Q188.8,292.9 188.8,294.2 Q188.8,295.1 189.3,295.6 Q189.8,296.1 190.7,296.1 Q191.5,296.1 192.3,295.4 Q193.0,294.7 193.4,293.5 Q193.9,292.2 193.9,290.7 Q193.9,288.8 192.4,288.8 Z " fill="rgb(207,198,180)"/><path d="M46,206 L292,206 C297.3,206 301,209.6 301,215 L301,258 C301,262.3 296.7,265 291,265 L46,265 C40.2,265 36,262.3 36,258 L36,214 C36,209.1 40.1,206 46,206 Z" fill="rgb(0,0,0)" stroke="rgb(255,255,255)" stroke-width="2"/><path d="M131.1,253 L129.6,248.1 L122.1,248.1 L120.6,253 L116,253 L123.2,232.3 L128.5,232.3 L135.8,253 L131.1,253 M128.6,244.4 Q126.5,237.7 126.3,236.9 Q126.0,236.0 125.9,235.5 Q125.4,237.3 123.2,244.4 L128.6,244.4 Z M146.7,253.2 Q143.9,253.2 142.4,251.2 L142.1,251.2 Q142.4,253.2 142.4,253.5 L142.4,259.9 L138.1,259.9 L138.1,237.2 L141.6,237.2 L142.2,239.3 L142.4,239.3 Q143.9,236.9 146.8,236.9 Q149.6,236.9 151.2,239.1 Q152.8,241.2 152.8,245.1 Q152.8,247.6 152.0,249.4 Q151.3,251.3 149.9,252.3 Q148.6,253.2 146.7,253.2 M145.4,240.4 Q143.9,240.4 143.1,241.3 Q142.4,242.3 142.4,244.6 L142.4,245.0 Q142.4,247.6 143.1,248.7 Q143.9,249.8 145.5,249.8 Q148.4,249.8 148.4,245.0 Q148.4,242.7 147.7,241.5 Q147.0,240.4 145.4,240.4 Z M164.9,253.2 Q162.2,253.2 160.6,251.2 L160.4,251.2 Q160.6,253.2 160.6,253.5 L160.6,259.9 L156.3,259.9 L156.3,237.2 L159.8,237.2 L160.4,239.3 L160.6,239.3 Q162.1,236.9 165.1,236.9 Q167.8,236.9 169.4,239.1 Q171.0,241.2 171.0,245.1 Q171.0,247.6 170.3,249.4 Q169.5,251.3 168.1,252.3 Q166.8,253.2 164.9,253.2 M163.7,240.4 Q162.1,240.4 161.4,241.3 Q160.6,242.3 160.6,244.6 L160.6,245.0 Q160.6,247.6 161.3,248.7 Q162.1,249.8 163.7,249.8 Q166.6,249.8 166.6,245.0 Q166.6,242.7 165.9,241.5 Q165.2,240.4 163.7,240.4 Z M194.5,247.2 Q194.5,250.0 192.5,251.6 Q190.5,253.2 186.9,253.2 Q183.6,253.2 181.1,252.0 L181.1,247.9 Q183.2,248.9 184.6,249.3 Q186.1,249.6 187.3,249.6 Q188.7,249.6 189.5,249.1 Q190.2,248.5 190.2,247.5 Q190.2,246.8 189.9,246.4 Q189.5,245.9 188.9,245.5 Q188.2,245.0 186.2,244.1 Q184.3,243.2 183.4,242.4 Q182.5,241.6 181.9,240.5 Q181.3,239.4 181.3,237.9 Q181.3,235.2 183.2,233.7 Q185.0,232.1 188.3,232.1 Q189.9,232.1 191.4,232.5 Q192.8,232.8 194.4,233.5 L193.0,236.9 Q191.3,236.3 190.3,236.0 Q189.2,235.7 188.2,235.7 Q186.9,235.7 186.3,236.3 Q185.6,236.9 185.6,237.8 Q185.6,238.4 185.9,238.8 Q186.1,239.2 186.7,239.6 Q187.3,240.0 189.5,241.1 Q192.4,242.5 193.4,243.8 Q194.5,245.2 194.5,247.2 Z M204.5,249.8 Q205.6,249.8 207.2,249.3 L207.2,252.5 Q205.6,253.2 203.3,253.2 Q200.7,253.2 199.5,251.9 Q198.3,250.6 198.3,248.0 L198.3,240.4 L196.3,240.4 L196.3,238.6 L198.7,237.2 L199.9,233.9 L202.6,233.9 L202.6,237.2 L207.0,237.2 L207.0,240.4 L202.6,240.4 L202.6,248.0 Q202.6,248.9 203.2,249.4 Q203.7,249.8 204.5,249.8 Z M213.8,245.1 Q213.8,247.4 214.6,248.6 Q215.3,249.8 217.1,249.8 Q218.8,249.8 219.5,248.6 Q220.3,247.4 220.3,245.1 Q220.3,242.7 219.5,241.6 Q218.8,240.4 217.0,240.4 Q215.3,240.4 214.6,241.5 Q213.8,242.7 213.8,245.1 M224.7,245.1 Q224.7,248.9 222.7,251.1 Q220.6,253.2 217.0,253.2 Q214.7,253.2 213.0,252.2 Q211.3,251.2 210.4,249.4 Q209.4,247.5 209.4,245.1 Q209.4,241.2 211.4,239.1 Q213.5,236.9 217.1,236.9 Q219.4,236.9 221.1,237.9 Q222.8,238.9 223.8,240.7 Q224.7,242.6 224.7,245.1 Z M237.0,236.9 Q237.9,236.9 238.5,237.1 L238.1,241.1 Q237.6,240.9 236.9,240.9 Q234.8,240.9 233.7,242.0 Q232.5,243.0 232.5,244.9 L232.5,253 L228.2,253 L228.2,237.2 L231.5,237.2 L232.1,239.9 L232.3,239.9 Q233.0,238.5 234.3,237.7 Q235.5,236.9 237.0,236.9 Z M247.2,240.0 Q245.9,240.0 245.1,240.8 Q244.3,241.7 244.2,243.3 L250.2,243.3 Q250.2,241.7 249.4,240.8 Q248.6,240.0 247.2,240.0 M247.8,253.2 Q244.0,253.2 241.9,251.1 Q239.8,249.0 239.8,245.2 Q239.8,241.2 241.7,239.1 Q243.7,236.9 247.2,236.9 Q250.5,236.9 252.4,238.8 Q254.3,240.7 254.3,244.1 L254.3,246.2 L244.1,246.2 Q244.2,248.0 245.2,249.0 Q246.2,250.0 248.0,250.0 Q249.5,250.0 250.7,249.7 Q252.0,249.4 253.4,248.8 L253.4,252.1 Q252.2,252.7 251.0,253.0 Q249.7,253.2 247.8,253.2 Z " fill="rgb(255,255,255)"/><path d="M202.7,297.1 L202.7,284.6 L204.2,284.6 L204.2,295.8 L209.7,295.8 L209.7,297.1 L202.7,297.1 Z M215.5,297.3 Q213.5,297.3 212.3,296.0 Q211.1,294.8 211.1,292.5 Q211.1,290.3 212.2,288.9 Q213.3,287.6 215.2,287.6 Q216.9,287.6 218.0,288.7 Q219.0,289.9 219.0,291.8 L219.0,292.7 L212.5,292.7 Q212.6,294.4 213.4,295.2 Q214.2,296.1 215.6,296.1 Q217.1,296.1 218.6,295.4 L218.6,296.7 Q217.8,297.0 217.2,297.2 Q216.5,297.3 215.5,297.3 M215.2,288.8 Q214.0,288.8 213.4,289.5 Q212.7,290.2 212.6,291.5 L217.5,291.5 Q217.5,290.2 216.9,289.5 Q216.3,288.8 215.2,288.8 Z M227.2,297.1 L226.9,295.8 L226.8,295.8 Q226.1,296.7 225.4,297.0 Q224.7,297.3 223.7,297.3 Q222.3,297.3 221.5,296.6 Q220.7,295.9 220.7,294.5 Q220.7,291.7 225.2,291.6 L226.8,291.5 L226.8,290.9 Q226.8,289.8 226.4,289.3 Q225.9,288.8 224.8,288.8 Q223.7,288.8 222.2,289.5 L221.8,288.4 Q222.5,288.0 223.3,287.8 Q224.1,287.6 224.9,287.6 Q226.6,287.6 227.4,288.3 Q228.2,289.1 228.2,290.7 L228.2,297.1 L227.2,297.1 M224.0,296.1 Q225.3,296.1 226.0,295.4 Q226.8,294.7 226.8,293.4 L226.8,292.5 L225.4,292.6 Q223.7,292.6 222.9,293.1 Q222.2,293.6 222.2,294.6 Q222.2,295.3 222.7,295.7 Q223.1,296.1 224.0,296.1 Z M235.4,287.6 Q236.1,287.6 236.5,287.7 L236.3,289.0 Q235.8,288.9 235.3,288.9 Q234.2,288.9 233.4,289.8 Q232.6,290.7 232.6,292.1 L232.6,297.1 L231.1,297.1 L231.1,287.8 L232.3,287.8 L232.5,289.5 L232.6,289.5 Q233.1,288.6 233.8,288.1 Q234.5,287.6 235.4,287.6 Z M244.7,297.1 L244.7,291.1 Q244.7,289.9 244.2,289.4 Q243.7,288.8 242.6,288.8 Q241.1,288.8 240.4,289.6 Q239.7,290.4 239.7,292.2 L239.7,297.1 L238.3,297.1 L238.3,287.8 L239.5,287.8 L239.7,289.0 L239.8,289.0 Q240.2,288.3 241.0,288.0 Q241.8,287.6 242.7,287.6 Q244.4,287.6 245.3,288.4 Q246.1,289.2 246.1,291.0 L246.1,297.1 L244.7,297.1 Z M265.6,297.1 L265.6,291.0 Q265.6,289.9 265.1,289.4 Q264.6,288.8 263.6,288.8 Q262.3,288.8 261.6,289.6 Q261.0,290.3 261.0,291.9 L261.0,297.1 L259.6,297.1 L259.6,291.0 Q259.6,289.9 259.1,289.4 Q258.6,288.8 257.6,288.8 Q256.3,288.8 255.6,289.6 Q255.0,290.4 255.0,292.2 L255.0,297.1 L253.6,297.1 L253.6,287.8 L254.8,287.8 L255.0,289.0 L255.1,289.0 Q255.5,288.4 256.2,288.0 Q256.9,287.6 257.8,287.6 Q260.0,287.6 260.7,289.2 L260.8,289.2 Q261.2,288.4 262.0,288.0 Q262.8,287.6 263.8,287.6 Q265.4,287.6 266.2,288.4 Q267.0,289.2 267.0,291.0 L267.0,297.1 L265.6,297.1 Z M278.0,292.4 Q278.0,294.7 276.8,296.0 Q275.7,297.3 273.6,297.3 Q272.4,297.3 271.4,296.7 Q270.4,296.1 269.9,295.0 Q269.4,293.9 269.4,292.4 Q269.4,290.1 270.5,288.9 Q271.7,287.6 273.7,287.6 Q275.7,287.6 276.8,288.9 Q278.0,290.2 278.0,292.4 M270.8,292.4 Q270.8,294.2 271.6,295.2 Q272.3,296.1 273.7,296.1 Q275.1,296.1 275.8,295.2 Q276.5,294.2 276.5,292.4 Q276.5,290.6 275.8,289.7 Q275.1,288.8 273.7,288.8 Q272.3,288.8 271.6,289.7 Q270.8,290.6 270.8,292.4 Z M284.8,287.6 Q285.4,287.6 285.9,287.7 L285.7,289.0 Q285.1,288.9 284.7,288.9 Q283.5,288.9 282.7,289.8 Q281.9,290.7 281.9,292.1 L281.9,297.1 L280.5,297.1 L280.5,287.8 L281.6,287.8 L281.8,289.5 L281.9,289.5 Q282.4,288.6 283.1,288.1 Q283.9,287.6 284.8,287.6 Z M291.2,297.3 Q289.2,297.3 288.0,296.0 Q286.8,294.8 286.8,292.5 Q286.8,290.3 287.9,288.9 Q289.0,287.6 290.9,287.6 Q292.6,287.6 293.7,288.7 Q294.7,289.9 294.7,291.8 L294.7,292.7 L288.2,292.7 Q288.3,294.4 289.1,295.2 Q289.9,296.1 291.3,296.1 Q292.8,296.1 294.3,295.4 L294.3,296.7 Q293.5,297.0 292.9,297.2 Q292.2,297.3 291.2,297.3 M290.9,288.8 Q289.7,288.8 289.1,289.5 Q288.4,290.2 288.3,291.5 L293.2,291.5 Q293.2,290.2 292.6,289.5 Q292.0,288.8 290.9,288.8 Z " fill="rgb(103,168,215)"/><path d="M202.1,301.5 L295.1,301.5 L295.1,302.6 L202.1,302.6 L202.1,301.5 Z" fill="rgb(103,168,215)"/><path d="M127.6,220.1 Q127.6,223.0 126.1,224.5 Q124.6,226 121.7,226 L118.5,226 L118.5,214.5 L122.0,214.5 Q124.7,214.5 126.2,216.0 Q127.6,217.5 127.6,220.1 M126.2,220.2 Q126.2,217.9 125.1,216.8 Q124.0,215.7 121.8,215.7 L119.8,215.7 L119.8,224.8 L121.5,224.8 Q123.8,224.8 125.0,223.6 Q126.2,222.5 126.2,220.2 Z M137.4,221.7 Q137.4,223.8 136.3,224.9 Q135.3,226.1 133.4,226.1 Q132.3,226.1 131.4,225.6 Q130.5,225.0 130.0,224.0 Q129.5,223.0 129.5,221.7 Q129.5,219.6 130.6,218.4 Q131.6,217.2 133.5,217.2 Q135.3,217.2 136.3,218.4 Q137.4,219.6 137.4,221.7 M130.9,221.7 Q130.9,223.3 131.5,224.2 Q132.2,225.0 133.4,225.0 Q134.7,225.0 135.4,224.2 Q136.0,223.3 136.0,221.7 Q136.0,220.0 135.4,219.2 Q134.7,218.3 133.4,218.3 Q132.2,218.3 131.5,219.2 Q130.9,220.0 130.9,221.7 Z M146.3,226 L144.8,220.9 Q144.6,220.5 144.2,218.8 L144.1,218.8 Q143.8,220.2 143.6,220.9 L142.0,226 L140.5,226 L138.1,217.4 L139.5,217.4 Q140.3,220.6 140.8,222.3 Q141.2,224.0 141.3,224.6 L141.3,224.6 Q141.4,224.1 141.6,223.4 Q141.8,222.7 141.9,222.3 L143.5,217.4 L144.9,217.4 L146.4,222.3 Q146.9,223.6 147.0,224.6 L147.1,224.6 Q147.1,224.3 147.3,223.7 Q147.4,223.1 148.9,217.4 L150.2,217.4 L147.9,226 L146.3,226 Z M157.6,226 L157.6,220.4 Q157.6,219.4 157.2,218.8 Q156.7,218.3 155.7,218.3 Q154.3,218.3 153.7,219.1 Q153.1,219.8 153.1,221.5 L153.1,226 L151.8,226 L151.8,217.4 L152.8,217.4 L153.0,218.6 L153.1,218.6 Q153.5,217.9 154.2,217.6 Q154.9,217.2 155.8,217.2 Q157.4,217.2 158.2,218.0 Q158.9,218.7 158.9,220.4 L158.9,226 L157.6,226 Z M162.9,226 L161.6,226 L161.6,213.8 L162.9,213.8 L162.9,226 Z M173.0,221.7 Q173.0,223.8 172.0,224.9 Q170.9,226.1 169.1,226.1 Q167.9,226.1 167.0,225.6 Q166.1,225.0 165.7,224.0 Q165.2,223.0 165.2,221.7 Q165.2,219.6 166.2,218.4 Q167.3,217.2 169.1,217.2 Q170.9,217.2 172.0,218.4 Q173.0,219.6 173.0,221.7 M166.5,221.7 Q166.5,223.3 167.2,224.2 Q167.8,225.0 169.1,225.0 Q170.4,225.0 171.0,224.2 Q171.7,223.3 171.7,221.7 Q171.7,220.0 171.0,219.2 Q170.4,218.3 169.1,218.3 Q167.8,218.3 167.2,219.2 Q166.5,220.0 166.5,221.7 Z M180.6,226 L180.3,224.7 L180.3,224.7 Q179.6,225.5 179.0,225.8 Q178.3,226.1 177.4,226.1 Q176.1,226.1 175.4,225.5 Q174.7,224.8 174.7,223.6 Q174.7,221.0 178.8,220.9 L180.3,220.8 L180.3,220.3 Q180.3,219.3 179.8,218.8 Q179.4,218.3 178.5,218.3 Q177.4,218.3 176.0,219.0 L175.6,218.0 Q176.3,217.6 177.0,217.4 Q177.8,217.2 178.5,217.2 Q180.1,217.2 180.8,217.9 Q181.5,218.6 181.5,220.1 L181.5,226 L180.6,226 M177.6,225.0 Q178.9,225.0 179.5,224.4 Q180.2,223.7 180.2,222.5 L180.2,221.7 L178.9,221.8 Q177.4,221.8 176.7,222.3 Q176.0,222.7 176.0,223.6 Q176.0,224.3 176.5,224.7 Q176.9,225.0 177.6,225.0 Z M190.0,224.8 L190.0,224.8 Q189.1,226.1 187.3,226.1 Q185.6,226.1 184.7,225.0 Q183.7,223.8 183.7,221.7 Q183.7,219.6 184.7,218.4 Q185.6,217.2 187.3,217.2 Q189.0,217.2 190,218.5 L190.1,218.5 L190.0,217.9 L190.0,217.3 L190.0,213.8 L191.3,213.8 L191.3,226 L190.2,226 L190.0,224.8 M187.4,225.0 Q188.8,225.0 189.4,224.3 Q190.0,223.6 190.0,222.0 L190.0,221.7 Q190.0,219.9 189.4,219.1 Q188.8,218.3 187.4,218.3 Q186.3,218.3 185.7,219.2 Q185.1,220.1 185.1,221.7 Q185.1,223.3 185.7,224.2 Q186.3,225.0 187.4,225.0 Z M205.6,221.7 Q205.6,223.8 204.5,224.9 Q203.5,226.1 201.6,226.1 Q200.4,226.1 199.6,225.6 Q198.7,225.0 198.2,224.0 Q197.7,223.0 197.7,221.7 Q197.7,219.6 198.7,218.4 Q199.8,217.2 201.6,217.2 Q203.4,217.2 204.5,218.4 Q205.6,219.6 205.6,221.7 M199.0,221.7 Q199.0,223.3 199.7,224.2 Q200.3,225.0 201.6,225.0 Q202.9,225.0 203.6,224.2 Q204.2,223.3 204.2,221.7 Q204.2,220.0 203.6,219.2 Q202.9,218.3 201.6,218.3 Q200.3,218.3 199.7,219.2 Q199.0,220.0 199.0,221.7 Z M213.7,226 L213.7,220.4 Q213.7,219.4 213.2,218.8 Q212.7,218.3 211.7,218.3 Q210.4,218.3 209.8,219.1 Q209.1,219.8 209.1,221.5 L209.1,226 L207.8,226 L207.8,217.4 L208.9,217.4 L209.1,218.6 L209.2,218.6 Q209.6,217.9 210.3,217.6 Q211.0,217.2 211.9,217.2 Q213.4,217.2 214.2,218.0 Q215.0,218.7 215.0,220.4 L215.0,226 L213.7,226 Z M224.6,225.0 Q224.9,225.0 225.2,225.0 Q225.6,224.9 225.7,224.9 L225.7,225.9 Q225.5,226.0 225.1,226.0 Q224.7,226.1 224.4,226.1 Q221.9,226.1 221.9,223.5 L221.9,218.4 L220.7,218.4 L220.7,217.8 L221.9,217.2 L222.5,215.4 L223.2,215.4 L223.2,217.4 L225.7,217.4 L225.7,218.4 L223.2,218.4 L223.2,223.4 Q223.2,224.2 223.6,224.6 Q223.9,225.0 224.6,225.0 Z M233.3,226 L233.3,220.4 Q233.3,219.4 232.8,218.8 Q232.4,218.3 231.3,218.3 Q230.0,218.3 229.4,219.1 Q228.8,219.8 228.8,221.5 L228.8,226 L227.5,226 L227.5,213.8 L228.8,213.8 L228.8,217.5 Q228.8,218.1 228.7,218.6 L228.8,218.6 Q229.2,218.0 229.9,217.6 Q230.6,217.2 231.5,217.2 Q233.0,217.2 233.8,218.0 Q234.6,218.7 234.6,220.4 L234.6,226 L233.3,226 Z M240.9,226.1 Q239.0,226.1 237.9,225 Q236.8,223.8 236.8,221.7 Q236.8,219.7 237.8,218.5 Q238.8,217.2 240.6,217.2 Q242.2,217.2 243.1,218.3 Q244.0,219.3 244.0,221.1 L244.0,221.9 L238.1,221.9 Q238.2,223.4 238.9,224.2 Q239.6,225.0 240.9,225.0 Q242.3,225.0 243.7,224.4 L243.7,225.6 Q243.0,225.8 242.4,226.0 Q241.8,226.1 240.9,226.1 M240.5,218.3 Q239.5,218.3 238.9,219.0 Q238.3,219.7 238.2,220.8 L242.7,220.8 Q242.7,219.6 242.1,219.0 Q241.6,218.3 240.5,218.3 Z " fill="rgb(255,255,255)"/><path d="M58.0,135.7 Q58.0,140.0 55.7,142.2 Q53.4,144.5 49.1,144.5 L44.3,144.5 L44.3,127.3 L49.6,127.3 Q53.6,127.3 55.8,129.5 Q58.0,131.7 58.0,135.7 M55.9,135.8 Q55.9,132.4 54.2,130.7 Q52.5,129.0 49.2,129.0 L46.3,129.0 L46.3,142.7 L48.7,142.7 Q52.3,142.7 54.1,141.0 Q55.9,139.2 55.9,135.8 Z M69.4,144.5 L69.0,142.6 L68.9,142.6 Q68.0,143.8 67.0,144.3 Q66.1,144.7 64.6,144.7 Q62.7,144.7 61.6,143.7 Q60.5,142.7 60.5,140.9 Q60.5,137.0 66.8,136.8 L69,136.8 L69,136.0 Q69,134.4 68.3,133.7 Q67.6,133.0 66.2,133.0 Q64.6,133.0 62.6,134.0 L62.0,132.5 Q62.9,132.0 64.1,131.7 Q65.2,131.4 66.3,131.4 Q68.6,131.4 69.7,132.4 Q70.8,133.4 70.8,135.7 L70.8,144.5 L69.4,144.5 M65.0,143.1 Q66.8,143.1 67.9,142.1 Q68.9,141.1 68.9,139.3 L68.9,138.1 L67.0,138.2 Q64.6,138.3 63.6,138.9 Q62.6,139.6 62.6,140.9 Q62.6,142.0 63.2,142.5 Q63.9,143.1 65.0,143.1 Z M80.7,131.4 Q81.6,131.4 82.3,131.5 L82.0,133.3 Q81.2,133.1 80.6,133.1 Q79.0,133.1 77.9,134.4 Q76.8,135.7 76.8,137.6 L76.8,144.5 L74.9,144.5 L74.9,131.6 L76.5,131.6 L76.7,134.0 L76.8,134.0 Q77.5,132.7 78.5,132.1 Q79.5,131.4 80.7,131.4 Z M86.6,137.9 Q87.1,137.2 88.1,136.0 L92.3,131.6 L94.6,131.6 L89.4,137.1 L94.9,144.5 L92.6,144.5 L88.0,138.4 L86.6,139.6 L86.6,144.5 L84.7,144.5 L84.7,126.2 L86.6,126.2 L86.6,135.9 Q86.6,136.5 86.5,137.9 L86.6,137.9 Z M119.9,144.5 L119.9,136.1 Q119.9,134.6 119.2,133.8 Q118.5,133.0 117.2,133.0 Q115.3,133.0 114.5,134.1 Q113.6,135.1 113.6,137.3 L113.6,144.5 L111.7,144.5 L111.7,136.1 Q111.7,134.6 111.0,133.8 Q110.4,133.0 109.0,133.0 Q107.1,133.0 106.3,134.1 Q105.4,135.2 105.4,137.7 L105.4,144.5 L103.5,144.5 L103.5,131.6 L105.1,131.6 L105.4,133.4 L105.5,133.4 Q106.0,132.4 107.0,131.9 Q108.0,131.4 109.3,131.4 Q112.3,131.4 113.2,133.6 L113.3,133.6 Q113.9,132.5 115.0,132.0 Q116.1,131.4 117.5,131.4 Q119.6,131.4 120.7,132.5 Q121.8,133.6 121.8,136.1 L121.8,144.5 L119.9,144.5 Z M136.9,138.0 Q136.9,141.2 135.3,142.9 Q133.7,144.7 130.9,144.7 Q129.2,144.7 127.9,143.9 Q126.5,143.1 125.8,141.6 Q125.1,140.0 125.1,138.0 Q125.1,134.9 126.7,133.1 Q128.2,131.4 131.0,131.4 Q133.7,131.4 135.3,133.2 Q136.9,135.0 136.9,138.0 M127.1,138.0 Q127.1,140.5 128.1,141.8 Q129.1,143.1 131.0,143.1 Q132.9,143.1 133.9,141.8 Q134.9,140.5 134.9,138.0 Q134.9,135.6 133.9,134.3 Q132.9,133.0 131.0,133.0 Q129.1,133.0 128.1,134.3 Q127.1,135.5 127.1,138.0 Z M149.0,142.7 L148.9,142.7 Q147.6,144.7 144.9,144.7 Q142.4,144.7 141.0,143.0 Q139.6,141.2 139.6,138.1 Q139.6,134.9 141.0,133.1 Q142.4,131.4 144.9,131.4 Q147.5,131.4 148.9,133.3 L149.1,133.3 L149.0,132.3 L148.9,131.4 L148.9,126.2 L150.9,126.2 L150.9,144.5 L149.3,144.5 L149.0,142.7 M145.2,143.1 Q147.1,143.1 148.0,142.0 Q148.9,140.9 148.9,138.5 L148.9,138.1 Q148.9,135.3 148.0,134.2 Q147.1,133.0 145.1,133.0 Q143.4,133.0 142.5,134.3 Q141.6,135.7 141.6,138.1 Q141.6,140.5 142.5,141.8 Q143.4,143.1 145.2,143.1 Z M160.4,144.7 Q157.6,144.7 155.9,143 Q154.3,141.2 154.3,138.1 Q154.3,135.0 155.8,133.2 Q157.4,131.4 159.9,131.4 Q162.3,131.4 163.8,133.0 Q165.2,134.5 165.2,137.1 L165.2,138.4 L156.3,138.4 Q156.4,140.6 157.5,141.8 Q158.5,143.0 160.5,143.0 Q162.6,143.0 164.6,142.1 L164.6,143.9 Q163.6,144.3 162.7,144.5 Q161.7,144.7 160.4,144.7 M159.9,133.0 Q158.4,133.0 157.4,134.0 Q156.5,135.0 156.4,136.8 L163.1,136.8 Q163.1,135.0 162.3,134.0 Q161.4,133.0 159.9,133.0 Z M180.5,133.1 L177.2,133.1 L177.2,144.5 L175.3,144.5 L175.3,133.1 L173.0,133.1 L173.0,132.2 L175.3,131.5 L175.3,130.8 Q175.3,126.1 179.4,126.1 Q180.4,126.1 181.8,126.5 L181.3,128.1 Q180.2,127.7 179.4,127.7 Q178.3,127.7 177.8,128.4 Q177.2,129.2 177.2,130.8 L177.2,131.6 L180.5,131.6 L180.5,133.1 Z M193.9,138.0 Q193.9,141.2 192.3,142.9 Q190.8,144.7 188.0,144.7 Q186.3,144.7 184.9,143.9 Q183.6,143.1 182.9,141.6 Q182.1,140.0 182.1,138.0 Q182.1,134.9 183.7,133.1 Q185.3,131.4 188.1,131.4 Q190.8,131.4 192.3,133.2 Q193.9,135.0 193.9,138.0 M184.1,138.0 Q184.1,140.5 185.1,141.8 Q186.1,143.1 188.0,143.1 Q189.9,143.1 190.9,141.8 Q191.9,140.5 191.9,138.0 Q191.9,135.6 190.9,134.3 Q189.9,133.0 188.0,133.0 Q186.1,133.0 185.1,134.3 Q184.1,135.5 184.1,138.0 Z M203.2,131.4 Q204.1,131.4 204.7,131.5 L204.5,133.3 Q203.7,133.1 203.1,133.1 Q201.5,133.1 200.4,134.4 Q199.3,135.7 199.3,137.6 L199.3,144.5 L197.3,144.5 L197.3,131.6 L198.9,131.6 L199.2,134.0 L199.3,134.0 Q200.0,132.7 201.0,132.1 Q202.0,131.4 203.2,131.4 Z " fill="rgb(207,198,180)"/><path d="M212.7,128.0 Q212.7,126.2 214.6,126.2 Q216.6,126.2 216.6,128.0 Q216.6,128.8 216.1,129.3 Q215.6,129.7 214.6,129.7 Q212.7,129.7 212.7,128.0 M216.4,144.5 L212.8,144.5 L212.8,131.3 L216.4,131.3 L216.4,144.5 Z M224.1,135.4 L225.3,135.4 Q226.9,135.4 227.8,134.7 Q228.6,134.1 228.6,132.8 Q228.6,131.5 227.9,130.9 Q227.2,130.3 225.7,130.3 L224.1,130.3 L224.1,135.4 M232.3,132.7 Q232.3,135.4 230.5,136.9 Q228.8,138.4 225.6,138.4 L224.1,138.4 L224.1,144.5 L220.4,144.5 L220.4,127.3 L225.9,127.3 Q229.0,127.3 230.6,128.7 Q232.3,130.0 232.3,132.7 Z M247.3,144.5 L243.7,144.5 L243.7,136.8 Q243.7,134.0 241.6,134.0 Q240.1,134.0 239.5,135.0 Q238.8,136.0 238.8,138.3 L238.8,144.5 L235.2,144.5 L235.2,126.2 L238.8,126.2 L238.8,129.9 Q238.8,130.4 238.7,132.0 L238.6,133.0 L238.8,133.0 Q240.0,131.1 242.6,131.1 Q244.9,131.1 246.1,132.3 Q247.3,133.6 247.3,135.9 L247.3,144.5 Z M253.8,137.9 Q253.8,139.8 254.5,140.8 Q255.1,141.8 256.6,141.8 Q258.0,141.8 258.6,140.8 Q259.2,139.8 259.2,137.9 Q259.2,135.9 258.6,135.0 Q258.0,134.0 256.5,134.0 Q255.1,134.0 254.5,135.0 Q253.8,135.9 253.8,137.9 M262.9,137.9 Q262.9,141.1 261.2,142.9 Q259.5,144.7 256.5,144.7 Q254.6,144.7 253.2,143.9 Q251.7,143.0 251.0,141.5 Q250.2,139.9 250.2,137.9 Q250.2,134.7 251.9,132.9 Q253.5,131.1 256.6,131.1 Q258.5,131.1 259.9,131.9 Q261.4,132.7 262.1,134.3 Q262.9,135.8 262.9,137.9 Z M277.9,144.5 L274.4,144.5 L274.4,136.8 Q274.4,135.4 273.9,134.7 Q273.4,134.0 272.3,134.0 Q270.8,134.0 270.1,135.0 Q269.4,136.0 269.4,138.3 L269.4,144.5 L265.9,144.5 L265.9,131.3 L268.6,131.3 L269.1,133.0 L269.3,133.0 Q269.9,132.1 270.9,131.6 Q272.0,131.1 273.3,131.1 Q275.6,131.1 276.8,132.3 Q277.9,133.6 277.9,135.9 L277.9,144.5 Z M287.1,133.6 Q285.9,133.6 285.3,134.4 Q284.6,135.1 284.5,136.4 L289.5,136.4 Q289.5,135.1 288.9,134.4 Q288.2,133.6 287.1,133.6 M287.6,144.7 Q284.4,144.7 282.6,142.9 Q280.8,141.2 280.8,138.0 Q280.8,134.7 282.5,132.9 Q284.1,131.1 287.0,131.1 Q289.8,131.1 291.4,132.7 Q292.9,134.3 292.9,137.1 L292.9,138.8 L284.5,138.8 Q284.5,140.3 285.4,141.2 Q286.2,142.0 287.7,142.0 Q288.9,142.0 290.0,141.8 Q291.0,141.5 292.2,141.0 L292.2,143.8 Q291.2,144.2 290.2,144.5 Q289.1,144.7 287.6,144.7 Z " fill="rgb(207,198,180)"/><path d="M59.9,176.4 L59.5,174.6 L59.4,174.6 Q58.5,175.8 57.5,176.2 Q56.6,176.7 55.1,176.7 Q53.2,176.7 52.1,175.7 Q51.0,174.7 51.0,172.9 Q51.0,169.0 57.3,168.8 L59.4,168.7 L59.4,167.9 Q59.4,166.4 58.8,165.7 Q58.1,165.0 56.7,165.0 Q55.1,165.0 53.1,166.0 L52.5,164.5 Q53.4,164.0 54.6,163.7 Q55.7,163.4 56.8,163.4 Q59.1,163.4 60.2,164.4 Q61.3,165.4 61.3,167.7 L61.3,176.4 L59.9,176.4 M55.5,175.1 Q57.3,175.1 58.4,174.1 Q59.4,173.1 59.4,171.3 L59.4,170.1 L57.5,170.2 Q55.1,170.3 54.1,170.9 Q53.1,171.6 53.1,172.9 Q53.1,174.0 53.7,174.5 Q54.4,175.1 55.5,175.1 Z M74.1,176.4 L74.1,168.1 Q74.1,166.6 73.4,165.8 Q72.7,165.0 71.2,165.0 Q69.2,165.0 68.2,166.1 Q67.3,167.2 67.3,169.7 L67.3,176.4 L65.4,176.4 L65.4,163.6 L66.9,163.6 L67.3,165.4 L67.3,165.4 Q67.9,164.4 69.0,163.9 Q70.1,163.4 71.4,163.4 Q73.7,163.4 74.9,164.5 Q76.1,165.6 76.1,168.1 L76.1,176.4 L74.1,176.4 Z M88.8,174.7 L88.7,174.7 Q87.4,176.7 84.7,176.7 Q82.2,176.7 80.8,175.0 Q79.4,173.2 79.4,170.1 Q79.4,166.9 80.8,165.1 Q82.2,163.4 84.7,163.4 Q87.3,163.4 88.7,165.3 L88.9,165.3 L88.8,164.3 L88.7,163.4 L88.7,158.2 L90.7,158.2 L90.7,176.4 L89.1,176.4 L88.8,174.7 M84.9,175.0 Q86.9,175.0 87.8,174.0 Q88.7,172.9 88.7,170.5 L88.7,170.1 Q88.7,167.3 87.8,166.2 Q86.9,165.0 84.9,165.0 Q83.2,165.0 82.3,166.3 Q81.4,167.7 81.4,170.1 Q81.4,172.5 82.3,173.8 Q83.2,175.0 84.9,175.0 Z " fill="rgb(207,198,180)"/><path d="M100.7,160.0 Q100.7,158.2 102.6,158.2 Q104.6,158.2 104.6,160.0 Q104.6,160.8 104.1,161.2 Q103.6,161.7 102.6,161.7 Q100.7,161.7 100.7,160.0 M104.4,176.4 L100.8,176.4 L100.8,163.3 L104.4,163.3 L104.4,176.4 Z M112.1,167.4 L113.3,167.4 Q114.9,167.4 115.8,166.7 Q116.6,166.0 116.6,164.8 Q116.6,163.5 115.9,162.9 Q115.2,162.3 113.7,162.3 L112.1,162.3 L112.1,167.4 M120.3,164.7 Q120.3,167.4 118.5,168.9 Q116.8,170.3 113.6,170.3 L112.1,170.3 L112.1,176.4 L108.4,176.4 L108.4,159.3 L113.9,159.3 Q117.0,159.3 118.6,160.6 Q120.3,162.0 120.3,164.7 Z M131.5,176.4 L130.8,174.7 L130.7,174.7 Q129.8,175.8 128.9,176.2 Q127.9,176.7 126.4,176.7 Q124.5,176.7 123.4,175.6 Q122.3,174.5 122.3,172.5 Q122.3,170.4 123.8,169.4 Q125.3,168.5 128.2,168.4 L130.5,168.3 L130.5,167.7 Q130.5,165.7 128.4,165.7 Q126.9,165.7 124.7,166.7 L123.6,164.3 Q125.8,163.1 128.6,163.1 Q131.2,163.1 132.6,164.2 Q134.0,165.4 134.0,167.7 L134.0,176.4 L131.5,176.4 M130.5,170.4 L129.1,170.4 Q127.5,170.5 126.8,171.0 Q126.0,171.5 126.0,172.5 Q126.0,174.1 127.7,174.1 Q129.0,174.1 129.7,173.3 Q130.5,172.6 130.5,171.4 L130.5,170.4 Z M141.9,176.7 Q139.6,176.7 138.2,174.9 Q136.9,173.1 136.9,169.9 Q136.9,166.7 138.3,164.9 Q139.6,163.1 142.0,163.1 Q144.4,163.1 145.7,165.0 L145.8,165.0 Q145.6,163.5 145.6,162.4 L145.6,158.2 L149.2,158.2 L149.2,176.4 L146.4,176.4 L145.7,174.7 L145.6,174.7 Q144.4,176.7 141.9,176.7 M143.1,173.8 Q144.5,173.8 145.1,173.0 Q145.8,172.2 145.8,170.3 L145.8,169.9 Q145.8,167.8 145.2,166.9 Q144.5,166.0 143.1,166.0 Q141.9,166.0 141.2,167.0 Q140.5,168.0 140.5,170.0 Q140.5,171.9 141.2,172.9 Q141.9,173.8 143.1,173.8 Z " fill="rgb(207,198,180)"/><path d="M160.0,176.4 L158.0,176.4 L158.0,163.6 L160.0,163.6 L160.0,176.4 M157.8,160.1 Q157.8,159.4 158.2,159.1 Q158.5,158.8 159.0,158.8 Q159.5,158.8 159.8,159.1 Q160.1,159.5 160.1,160.1 Q160.1,160.8 159.8,161.1 Q159.5,161.4 159.0,161.4 Q158.5,161.4 158.2,161.1 Q157.8,160.8 157.8,160.1 Z M172.4,172.9 Q172.4,174.7 171.0,175.7 Q169.7,176.7 167.3,176.7 Q164.7,176.7 163.3,175.9 L163.3,174.1 Q164.2,174.5 165.3,174.8 Q166.3,175.1 167.3,175.1 Q168.8,175.1 169.7,174.6 Q170.5,174.1 170.5,173.1 Q170.5,172.4 169.8,171.8 Q169.2,171.3 167.3,170.6 Q165.5,169.9 164.8,169.4 Q164.0,168.9 163.6,168.3 Q163.3,167.6 163.3,166.7 Q163.3,165.2 164.5,164.3 Q165.8,163.4 168.0,163.4 Q170.1,163.4 172.1,164.2 L171.4,165.8 Q169.5,165.0 167.9,165.0 Q166.5,165.0 165.8,165.4 Q165.1,165.9 165.1,166.6 Q165.1,167.1 165.4,167.5 Q165.6,167.9 166.2,168.2 Q166.8,168.5 168.5,169.1 Q170.8,170.0 171.6,170.8 Q172.4,171.7 172.4,172.9 Z M189.7,176.4 L189.3,174.6 L189.2,174.6 Q188.2,175.8 187.3,176.2 Q186.3,176.7 184.9,176.7 Q183.0,176.7 181.9,175.7 Q180.8,174.7 180.8,172.9 Q180.8,169.0 187.0,168.8 L189.2,168.7 L189.2,167.9 Q189.2,166.4 188.6,165.7 Q187.9,165.0 186.5,165.0 Q184.9,165.0 182.8,166.0 L182.2,164.5 Q183.2,164.0 184.3,163.7 Q185.5,163.4 186.6,163.4 Q188.9,163.4 190.0,164.4 Q191.1,165.4 191.1,167.7 L191.1,176.4 L189.7,176.4 M185.3,175.1 Q187.1,175.1 188.1,174.1 Q189.2,173.1 189.2,171.3 L189.2,170.1 L187.2,170.2 Q184.9,170.3 183.9,170.9 Q182.8,171.6 182.8,172.9 Q182.8,174.0 183.5,174.5 Q184.1,175.1 185.3,175.1 Z M197.9,176.4 L193.0,163.6 L195.1,163.6 L197.9,171.2 Q198.8,173.9 199.0,174.7 L199.1,174.7 Q199.2,174.1 199.9,172.1 Q200.6,170.2 203.0,163.6 L205.1,163.6 L200.2,176.4 L197.9,176.4 Z M215.0,176.4 L214.6,174.6 L214.6,174.6 Q213.6,175.8 212.6,176.2 Q211.7,176.7 210.2,176.7 Q208.3,176.7 207.3,175.7 Q206.2,174.7 206.2,172.9 Q206.2,169.0 212.4,168.8 L214.6,168.7 L214.6,167.9 Q214.6,166.4 213.9,165.7 Q213.3,165.0 211.8,165.0 Q210.2,165.0 208.2,166.0 L207.6,164.5 Q208.6,164.0 209.7,163.7 Q210.8,163.4 212.0,163.4 Q214.3,163.4 215.4,164.4 Q216.5,165.4 216.5,167.7 L216.5,176.4 L215.0,176.4 M210.6,175.1 Q212.5,175.1 213.5,174.1 Q214.5,173.1 214.5,171.3 L214.5,170.1 L212.6,170.2 Q210.3,170.3 209.2,170.9 Q208.2,171.6 208.2,172.9 Q208.2,174.0 208.8,174.5 Q209.5,175.1 210.6,175.1 Z M222.4,176.4 L220.5,176.4 L220.5,163.6 L222.4,163.6 L222.4,176.4 M220.3,160.1 Q220.3,159.4 220.6,159.1 Q221.0,158.8 221.5,158.8 Q221.9,158.8 222.3,159.1 Q222.6,159.5 222.6,160.1 Q222.6,160.8 222.3,161.1 Q221.9,161.4 221.5,161.4 Q221.0,161.4 220.6,161.1 Q220.3,160.8 220.3,160.1 Z M228.5,176.4 L226.6,176.4 L226.6,158.2 L228.5,158.2 L228.5,176.4 Z M240.5,176.4 L240.1,174.6 L240.0,174.6 Q239.1,175.8 238.1,176.2 Q237.2,176.7 235.7,176.7 Q233.8,176.7 232.7,175.7 Q231.7,174.7 231.7,172.9 Q231.7,169.0 237.9,168.8 L240.1,168.7 L240.1,167.9 Q240.1,166.4 239.4,165.7 Q238.8,165.0 237.3,165.0 Q235.7,165.0 233.7,166.0 L233.1,164.5 Q234.1,164.0 235.2,163.7 Q236.3,163.4 237.4,163.4 Q239.7,163.4 240.9,164.4 Q242.0,165.4 242.0,167.7 L242.0,176.4 L240.5,176.4 M236.1,175.1 Q237.9,175.1 239.0,174.1 Q240.0,173.1 240.0,171.3 L240.0,170.1 L238.1,170.2 Q235.7,170.3 234.7,170.9 Q233.7,171.6 233.7,172.9 Q233.7,174.0 234.3,174.5 Q235.0,175.1 236.1,175.1 Z M251.9,163.4 Q254.5,163.4 255.9,165.1 Q257.3,166.8 257.3,170.0 Q257.3,173.2 255.9,174.9 Q254.5,176.7 251.9,176.7 Q250.7,176.7 249.7,176.2 Q248.6,175.7 247.9,174.8 L247.8,174.8 L247.4,176.4 L246.0,176.4 L246.0,158.2 L247.9,158.2 L247.9,162.6 Q247.9,164.1 247.8,165.3 L247.9,165.3 Q249.3,163.4 251.9,163.4 M251.7,165.0 Q249.7,165.0 248.8,166.2 Q247.9,167.3 247.9,170.0 Q247.9,172.7 248.8,173.9 Q249.7,175.0 251.7,175.0 Q253.5,175.0 254.4,173.7 Q255.3,172.4 255.3,170.0 Q255.3,167.5 254.4,166.2 Q253.5,165.0 251.7,165.0 Z M262.6,176.4 L260.7,176.4 L260.7,158.2 L262.6,158.2 L262.6,176.4 Z M272.2,176.7 Q269.3,176.7 267.7,174.9 Q266.0,173.2 266.0,170.1 Q266.0,167.0 267.6,165.2 Q269.1,163.4 271.7,163.4 Q274.1,163.4 275.5,164.9 Q276.9,166.5 276.9,169.1 L276.9,170.4 L268.0,170.4 Q268.1,172.6 269.2,173.8 Q270.3,175.0 272.2,175.0 Q274.3,175.0 276.3,174.1 L276.3,175.8 Q275.3,176.3 274.4,176.5 Q273.5,176.7 272.2,176.7 M271.6,165.0 Q270.1,165.0 269.2,166.0 Q268.3,167.0 268.1,168.8 L274.8,168.8 Q274.8,166.9 274.0,166.0 Q273.2,165.0 271.6,165.0 Z M282.0,171.7 L280.7,171.7 L280.1,159.3 L282.6,159.3 L282.0,171.7 M279.9,175.2 Q279.9,173.6 281.3,173.6 Q282.0,173.6 282.4,174.0 Q282.8,174.4 282.8,175.2 Q282.8,175.9 282.4,176.4 Q282.0,176.8 281.3,176.8 Q280.7,176.8 280.3,176.4 Q279.9,176.0 279.9,175.2 Z " fill="rgb(207,198,180)"/><path d="M80.5,221.8 C80.4,220.1 80.7,218.5 81.5,217.1 C82.2,215.9 83.2,214.9 84.5,214.2 C85.7,213.4 87.1,213.0 88.6,213 C88.6,214.4 88.2,215.8 87.6,217.1 C87.0,218.5 86.1,219.7 84.9,220.5 C83.7,221.4 82.2,221.9 80.5,221.8 Z M96.0,226.9 C93.8,228.1 92.3,230.0 91.8,232.3 C91.2,235.0 91.8,237.8 93.5,240.2 C94.4,241.4 95.5,242.4 97,243.1 C96.3,245.3 95.3,247.3 94.0,249.2 C92.4,251.6 90.5,253.7 88.4,253.9 C86.0,254.1 83.5,252.0 81.0,252.2 C78.8,252.3 76.8,254.3 74.6,254.4 C70.1,254.5 65.8,247.9 64.4,239.2 C63.5,234.3 63.8,229.5 66.3,226.2 C68.1,223.8 70.9,222.4 73.7,222.8 C76.0,223.0 78.1,224.7 80.3,224.7 C82.8,224.8 85.4,222.8 88.1,222.5 C90.2,222.3 92.3,223.1 94.0,224.5 C94.8,225.1 95.5,225.9 96.0,226.9 Z" fill="rgb(255,255,255)"/><path d="M48.8,85.3 Q48.8,91 45.6,94 Q42.4,97 36.3,97 L29.8,97 L29.8,74.1 L37.0,74.1 Q42.6,74.1 45.7,77.1 Q48.8,80.0 48.8,85.3 M43.7,85.4 Q43.7,78.1 37.2,78.1 L34.7,78.1 L34.7,93 L36.7,93 Q43.7,93 43.7,85.4 Z M64.2,97 L63.3,94.6 L63.2,94.6 Q62.0,96.1 60.7,96.7 Q59.4,97.3 57.4,97.3 Q54.9,97.3 53.4,95.8 Q52.0,94.4 52.0,91.7 Q52.0,89 53.9,87.6 Q55.9,86.3 59.8,86.2 L62.8,86.1 L62.8,85.3 Q62.8,82.7 60.1,82.7 Q58.0,82.7 55.2,83.9 L53.6,80.7 Q56.6,79.1 60.3,79.1 Q63.8,79.1 65.7,80.7 Q67.6,82.2 67.6,85.3 L67.6,97 L64.2,97 M62.8,88.9 L61.0,88.9 Q58.9,89.0 57.9,89.7 Q56.9,90.4 56.9,91.8 Q56.9,93.8 59.2,93.8 Q60.8,93.8 61.8,92.8 Q62.8,91.9 62.8,90.3 L62.8,88.9 Z M82.2,79.2 Q83.2,79.2 83.8,79.3 L83.5,83.8 Q82.9,83.6 82.1,83.6 Q79.8,83.6 78.5,84.8 Q77.2,86 77.2,88.1 L77.2,97 L72.5,97 L72.5,79.5 L76.1,79.5 L76.8,82.4 L77.0,82.4 Q77.8,81 79.2,80.1 Q80.6,79.2 82.2,79.2 Z M91.6,87.5 L93.7,84.8 L98.5,79.5 L103.9,79.5 L97.0,87.1 L104.3,97 L98.8,97 L93.8,89.9 L91.8,91.5 L91.8,97 L87.0,97 L87.0,72.6 L91.8,72.6 L91.8,83.5 L91.5,87.5 L91.6,87.5 Z " fill="rgb(207,198,180)"/><path d="M233.7,85.4 L230.7,85.4 L230.7,97 L229.6,97 L229.6,85.4 L227.3,85.4 L227.3,84.8 L229.6,84.4 L229.6,83.4 Q229.6,81.1 230.4,80.0 Q231.3,78.9 233.2,78.9 Q234.2,78.9 235.3,79.3 L235.0,80.2 Q234.1,80.0 233.2,80.0 Q231.9,80.0 231.3,80.7 Q230.7,81.5 230.7,83.3 L230.7,84.5 L233.7,84.5 L233.7,85.4 Z M246.4,90.7 Q246.4,93.7 244.9,95.5 Q243.5,97.2 240.9,97.2 Q239.2,97.2 238.0,96.4 Q236.7,95.6 236.0,94.1 Q235.4,92.6 235.4,90.7 Q235.4,87.6 236.9,85.9 Q238.3,84.2 240.9,84.2 Q243.5,84.2 245.0,85.9 Q246.4,87.7 246.4,90.7 M236.6,90.7 Q236.6,93.3 237.7,94.7 Q238.8,96.1 240.9,96.1 Q243.0,96.1 244.1,94.7 Q245.2,93.3 245.2,90.7 Q245.2,88.1 244.1,86.7 Q242.9,85.3 240.9,85.3 Q238.8,85.3 237.7,86.7 Q236.6,88.1 236.6,90.7 Z M254.8,84.2 Q255.6,84.2 256.5,84.4 L256.3,85.5 Q255.5,85.3 254.7,85.3 Q253.1,85.3 252.0,86.6 Q251.0,88.0 251.0,90.1 L251.0,97 L249.9,97 L249.9,84.5 L250.8,84.5 L251.0,86.7 L251.0,86.7 Q251.8,85.3 252.7,84.8 Q253.6,84.2 254.8,84.2 Z " fill="rgb(207,198,180)"/><path d="M116.7,84.2 L118.2,84.2 Q120.5,84.2 121.6,83.5 Q122.7,82.7 122.7,81.1 Q122.7,79.5 121.6,78.8 Q120.5,78.1 118.1,78.1 L116.7,78.1 L116.7,84.2 M116.7,88.2 L116.7,97 L111.8,97 L111.8,74.1 L118.5,74.1 Q123.1,74.1 125.4,75.8 Q127.6,77.5 127.6,81 Q127.6,83.0 126.5,84.5 Q125.4,86.1 123.4,87.0 Q128.5,94.7 130.1,97 L124.7,97 L119.2,88.2 L116.7,88.2 Z M139.8,82.5 Q138.3,82.5 137.4,83.5 Q136.6,84.5 136.5,86.2 L143.1,86.2 Q143.1,84.5 142.2,83.5 Q141.3,82.5 139.8,82.5 M140.5,97.3 Q136.3,97.3 133.9,94.9 Q131.5,92.6 131.5,88.3 Q131.5,84 133.7,81.6 Q135.9,79.2 139.8,79.2 Q143.5,79.2 145.5,81.3 Q147.6,83.4 147.6,87.1 L147.6,89.4 L136.3,89.4 Q136.4,91.4 137.5,92.6 Q138.7,93.7 140.7,93.7 Q142.3,93.7 143.7,93.4 Q145.1,93.1 146.6,92.3 L146.6,96.0 Q145.4,96.7 144,97.0 Q142.5,97.3 140.5,97.3 Z M162.6,97 L161.7,94.6 L161.5,94.6 Q160.3,96.1 159.1,96.7 Q157.8,97.3 155.7,97.3 Q153.2,97.3 151.8,95.8 Q150.3,94.4 150.3,91.7 Q150.3,89 152.3,87.6 Q154.2,86.3 158.1,86.2 L161.2,86.1 L161.2,85.3 Q161.2,82.7 158.5,82.7 Q156.4,82.7 153.5,83.9 L152,80.7 Q155.0,79.1 158.6,79.1 Q162.2,79.1 164.0,80.7 Q165.9,82.2 165.9,85.3 L165.9,97 L162.6,97 M161.2,88.9 L159.3,88.9 Q157.2,89.0 156.2,89.7 Q155.2,90.4 155.2,91.8 Q155.2,93.8 157.5,93.8 Q159.2,93.8 160.2,92.8 Q161.2,91.9 161.2,90.3 L161.2,88.9 Z M176.3,97.3 Q173.3,97.3 171.5,94.9 Q169.7,92.5 169.7,88.2 Q169.7,84 171.5,81.6 Q173.3,79.2 176.5,79.2 Q179.8,79.2 181.5,81.7 L181.7,81.7 Q181.3,79.8 181.3,78.2 L181.3,72.6 L186.1,72.6 L186.1,97 L182.4,97 L181.5,94.7 L181.3,94.7 Q179.7,97.3 176.3,97.3 M178.0,93.5 Q179.8,93.5 180.7,92.4 Q181.5,91.3 181.6,88.8 L181.6,88.3 Q181.6,85.5 180.8,84.2 Q179.9,83.0 177.9,83.0 Q176.3,83.0 175.5,84.4 Q174.6,85.7 174.6,88.3 Q174.6,90.9 175.5,92.2 Q176.4,93.5 178.0,93.5 Z M198.3,82.5 Q196.8,82.5 195.9,83.5 Q195.1,84.5 194.9,86.2 L201.6,86.2 Q201.6,84.5 200.7,83.5 Q199.8,82.5 198.3,82.5 M199.0,97.3 Q194.7,97.3 192.4,94.9 Q190.0,92.6 190.0,88.3 Q190.0,84 192.2,81.6 Q194.4,79.2 198.3,79.2 Q202.0,79.2 204.0,81.3 Q206.1,83.4 206.1,87.1 L206.1,89.4 L194.8,89.4 Q194.9,91.4 196.0,92.6 Q197.2,93.7 199.2,93.7 Q200.8,93.7 202.2,93.4 Q203.6,93.1 205.1,92.3 L205.1,96.0 Q203.9,96.7 202.4,97.0 Q201.0,97.3 199.0,97.3 Z M219.7,79.2 Q220.7,79.2 221.3,79.3 L221.0,83.8 Q220.4,83.6 219.6,83.6 Q217.3,83.6 216.0,84.8 Q214.7,86 214.7,88.1 L214.7,97 L210.0,97 L210.0,79.5 L213.6,79.5 L214.3,82.4 L214.5,82.4 Q215.3,81 216.7,80.1 Q218.1,79.2 219.7,79.2 Z " fill="rgb(207,198,180)"/><path d="M261.2,75.0 Q261.2,72.6 263.8,72.6 Q266.4,72.6 266.4,75.0 Q266.4,76.1 265.8,76.7 Q265.1,77.3 263.8,77.3 Q261.2,77.3 261.2,75.0 M266.2,97 L261.5,97 L261.5,79.5 L266.2,79.5 L266.2,97 Z M292.3,85.5 Q292.3,91.2 289.5,94.2 Q286.7,97.3 281.5,97.3 Q276.2,97.3 273.4,94.2 Q270.6,91.2 270.6,85.5 Q270.6,79.8 273.4,76.8 Q276.2,73.7 281.5,73.7 Q286.7,73.7 289.5,76.8 Q292.3,79.8 292.3,85.5 M275.7,85.5 Q275.7,89.3 277.1,91.3 Q278.6,93.2 281.5,93.2 Q287.2,93.2 287.2,85.5 Q287.2,77.8 281.5,77.8 Q278.6,77.8 277.1,79.7 Q275.7,81.7 275.7,85.5 Z M310.5,90.6 Q310.5,93.7 308.3,95.5 Q306.1,97.3 302.1,97.3 Q298.5,97.3 295.7,95.9 L295.7,91.4 Q298.0,92.4 299.6,92.8 Q301.2,93.3 302.5,93.3 Q304.1,93.3 304.9,92.7 Q305.8,92.0 305.8,90.8 Q305.8,90.2 305.4,89.6 Q305.0,89.1 304.3,88.6 Q303.6,88.2 301.4,87.1 Q299.3,86.1 298.2,85.2 Q297.2,84.3 296.5,83.1 Q295.9,81.9 295.9,80.3 Q295.9,77.2 298.0,75.5 Q300.0,73.8 303.7,73.8 Q305.4,73.8 307.1,74.2 Q308.7,74.6 310.4,75.4 L308.9,79.2 Q307.0,78.4 305.8,78.1 Q304.7,77.8 303.5,77.8 Q302.1,77.8 301.4,78.5 Q300.7,79.1 300.7,80.1 Q300.7,80.8 301,81.2 Q301.2,81.7 301.9,82.2 Q302.5,82.6 305.0,83.8 Q308.2,85.3 309.4,86.8 Q310.5,88.4 310.5,90.6 Z " fill="rgb(207,198,180)"/></g><g><path d="M321,323 L321,629 C321,652.7 305.2,669 282,669 L56,669 C33.2,669 18,652.6 18,629 L18,323 L321,323 Z" fill="rgb(17,35,50)"/><path d="M70.3,360.0 Q70.3,366.3 66.7,369.6 Q63.2,373.0 56.4,373.0 L49.2,373.0 L49.2,347.5 L57.2,347.5 Q63.4,347.5 66.9,350.7 Q70.3,354.0 70.3,360.0 M64.7,360.1 Q64.7,351.9 57.5,351.9 L54.6,351.9 L54.6,368.5 L56.9,368.5 Q64.7,368.5 64.7,360.1 Z M90.5,373.0 L88.7,366.9 L79.4,366.9 L77.5,373.0 L71.7,373.0 L80.7,347.3 L87.3,347.3 L96.3,373.0 L90.5,373.0 M87.4,362.4 Q84.8,354.1 84.5,353.0 Q84.2,351.9 84.0,351.3 Q83.5,353.5 80.7,362.4 L87.4,362.4 Z M105.0,358.8 L106.7,358.8 Q109.3,358.8 110.5,357.9 Q111.7,357.1 111.7,355.2 Q111.7,353.4 110.5,352.7 Q109.2,351.9 106.6,351.9 L105.0,351.9 L105.0,358.8 M105.0,363.2 L105.0,373.0 L99.6,373.0 L99.6,347.5 L107.0,347.5 Q112.2,347.5 114.7,349.3 Q117.2,351.2 117.2,355.1 Q117.2,357.3 115.9,359.1 Q114.7,360.9 112.4,361.8 Q118.2,370.4 119.9,373.0 L113.9,373.0 L107.8,363.2 L105.0,363.2 Z M143.7,373.0 L137.5,373.0 L130.8,362.2 L128.5,363.9 L128.5,373.0 L123.1,373.0 L123.1,347.5 L128.5,347.5 L128.5,359.1 L130.7,356.1 L137.6,347.5 L143.6,347.5 L134.7,358.7 L143.7,373.0 Z M161.6,358.8 L163.3,358.8 Q165.9,358.8 167.1,357.9 Q168.3,357.1 168.3,355.2 Q168.3,353.4 167.1,352.7 Q165.8,351.9 163.2,351.9 L161.6,351.9 L161.6,358.8 M161.6,363.2 L161.6,373.0 L156.1,373.0 L156.1,347.5 L163.6,347.5 Q168.8,347.5 171.3,349.3 Q173.8,351.2 173.8,355.1 Q173.8,357.3 172.5,359.1 Q171.3,360.9 169.0,361.8 Q174.8,370.4 176.5,373.0 L170.5,373.0 L164.4,363.2 L161.6,363.2 Z M194.4,373.0 L179.7,373.0 L179.7,347.5 L194.4,347.5 L194.4,351.9 L185.1,351.9 L185.1,357.5 L193.8,357.5 L193.8,361.9 L185.1,361.9 L185.1,368.5 L194.4,368.5 L194.4,373.0 Z M215.4,373.0 L213.5,366.9 L204.2,366.9 L202.4,373.0 L196.5,373.0 L205.5,347.3 L212.1,347.3 L221.2,373.0 L215.4,373.0 M212.2,362.4 Q209.7,354.1 209.3,353.0 Q209.0,351.9 208.9,351.3 Q208.3,353.5 205.6,362.4 L212.2,362.4 Z M245.6,360.0 Q245.6,366.3 242.0,369.6 Q238.4,373.0 231.6,373.0 L224.4,373.0 L224.4,347.5 L232.4,347.5 Q238.6,347.5 242.1,350.7 Q245.6,354.0 245.6,360.0 M239.9,360.1 Q239.9,351.9 232.7,351.9 L229.8,351.9 L229.8,368.5 L232.1,368.5 Q239.9,368.5 239.9,360.1 Z M265.5,373.0 L250.8,373.0 L250.8,347.5 L265.5,347.5 L265.5,351.9 L256.3,351.9 L256.3,357.5 L264.9,357.5 L264.9,361.9 L256.3,361.9 L256.3,368.5 L265.5,368.5 L265.5,373.0 Z M276.3,358.8 L278.0,358.8 Q280.6,358.8 281.8,357.9 Q283.0,357.1 283.0,355.2 Q283.0,353.4 281.8,352.7 Q280.5,351.9 277.9,351.9 L276.3,351.9 L276.3,358.8 M276.3,363.2 L276.3,373.0 L270.9,373.0 L270.9,347.5 L278.3,347.5 Q283.5,347.5 286.0,349.3 Q288.5,351.2 288.5,355.1 Q288.5,357.3 287.2,359.1 Q286.0,360.9 283.7,361.8 Q289.5,370.4 291.2,373.0 L285.2,373.0 L279.1,363.2 L276.3,363.2 Z " fill="rgb(239,109,80)" stroke="rgb(239,109,80)" stroke-width="2"/><path d="M49.0,391 L289.0,391 C300.5,391 308.2,399.0 308.0,409 C307.7,418.4 300.1,426 289.0,426 L48.0,426 C38.4,426 32.1,418.3 32.0,409 C31.8,399.0 38.7,391 49.0,391 Z" fill="rgb(36,74,108)" stroke="rgb(0,0,0)" stroke-width="2"/><path d="M49.0,391 L98.0,391 C109.5,391 117.2,399.0 117.0,409 C116.7,418.4 109.1,426 98.0,426 L48.0,426 C38.4,426 32.1,418.3 32.0,409 C31.8,399.0 38.7,391 49.0,391 Z" fill="rgb(59,132,185)"/><path d="M75.2,408.5 Q75.2,411.7 73.7,413.4 Q72.1,415.1 69.1,415.1 Q66.2,415.1 64.6,413.4 Q63.0,411.7 63.0,408.5 Q63.0,405.3 64.6,403.6 Q66.2,401.9 69.1,401.9 Q72.1,401.9 73.7,403.6 Q75.2,405.3 75.2,408.5 M65.9,408.5 Q65.9,410.7 66.7,411.8 Q67.5,412.9 69.1,412.9 Q72.4,412.9 72.4,408.5 Q72.4,404.2 69.1,404.2 Q67.5,404.2 66.7,405.3 Q65.9,406.4 65.9,408.5 Z M86.8,415.0 L84.1,415.0 L84.1,409.2 Q84.1,408.2 83.7,407.6 Q83.3,407.1 82.5,407.1 Q81.4,407.1 80.9,407.9 Q80.4,408.6 80.4,410.3 L80.4,415.0 L77.7,415.0 L77.7,405.1 L79.7,405.1 L80.1,406.4 L80.3,406.4 Q80.7,405.7 81.5,405.3 Q82.3,405.0 83.3,405.0 Q85.0,405.0 85.9,405.9 Q86.8,406.8 86.8,408.6 L86.8,415.0 Z " fill="rgb(255,255,255)"/><path d="M262.2,408.5 Q262.2,411.7 260.7,413.4 Q259.1,415.1 256.1,415.1 Q253.2,415.1 251.6,413.4 Q250.0,411.7 250.0,408.5 Q250.0,405.3 251.6,403.6 Q253.2,401.9 256.1,401.9 Q259.1,401.9 260.7,403.6 Q262.2,405.3 262.2,408.5 M252.9,408.5 Q252.9,410.7 253.7,411.8 Q254.5,412.9 256.1,412.9 Q259.4,412.9 259.4,408.5 Q259.4,404.2 256.1,404.2 Q254.5,404.2 253.7,405.3 Q252.9,406.4 252.9,408.5 Z M270.1,407.2 L267.8,407.2 L267.8,415.0 L265.1,415.0 L265.1,407.2 L263.6,407.2 L263.6,405.9 L265.1,405.1 L265.1,404.4 Q265.1,402.7 265.9,402.0 Q266.8,401.2 268.6,401.2 Q270.0,401.2 271.1,401.6 L270.4,403.6 Q269.6,403.3 268.9,403.3 Q268.3,403.3 268.1,403.7 Q267.8,404.0 267.8,404.5 L267.8,405.1 L270.1,405.1 L270.1,407.2 Z M277.1,407.2 L274.8,407.2 L274.8,415.0 L272.1,415.0 L272.1,407.2 L270.6,407.2 L270.6,405.9 L272.1,405.1 L272.1,404.4 Q272.1,402.7 272.9,402.0 Q273.7,401.2 275.6,401.2 Q277.0,401.2 278.0,401.6 L277.3,403.6 Q276.5,403.3 275.9,403.3 Q275.3,403.3 275.0,403.7 Q274.8,404.0 274.8,404.5 L274.8,405.1 L277.1,405.1 L277.1,407.2 Z " fill="rgb(255,255,255)"/><path d="M156.5,415.0 L155.5,411.9 L150.8,411.9 L149.9,415.0 L147.0,415.0 L151.5,402.1 L154.8,402.1 L159.4,415.0 L156.5,415.0 M154.9,409.6 Q153.6,405.5 153.4,404.9 Q153.3,404.4 153.2,404.1 Q152.9,405.2 151.5,409.6 L154.9,409.6 Z M167.8,415.0 L167.4,413.7 L167.3,413.7 Q166.8,414.4 166.0,414.8 Q165.2,415.1 164.2,415.1 Q162.5,415.1 161.6,414.2 Q160.7,413.3 160.7,411.5 L160.7,405.1 L163.4,405.1 L163.4,410.9 Q163.4,411.9 163.8,412.5 Q164.2,413.0 165.0,413.0 Q166.1,413.0 166.6,412.3 Q167.1,411.5 167.1,409.8 L167.1,405.1 L169.8,405.1 L169.8,415.0 L167.8,415.0 Z M176.8,413.0 Q177.5,413.0 178.4,412.7 L178.4,414.7 Q177.4,415.1 176.0,415.1 Q174.4,415.1 173.6,414.3 Q172.9,413.5 172.9,411.9 L172.9,407.2 L171.6,407.2 L171.6,406.0 L173.1,405.1 L173.9,403.0 L175.6,403.0 L175.6,405.1 L178.3,405.1 L178.3,407.2 L175.6,407.2 L175.6,411.9 Q175.6,412.5 175.9,412.7 Q176.2,413.0 176.8,413.0 Z M182.6,410.0 Q182.6,411.5 183.1,412.2 Q183.5,413.0 184.6,413.0 Q185.7,413.0 186.2,412.2 Q186.6,411.5 186.6,410.0 Q186.6,408.6 186.1,407.8 Q185.7,407.1 184.6,407.1 Q183.5,407.1 183.0,407.8 Q182.6,408.6 182.6,410.0 M189.4,410.0 Q189.4,412.4 188.1,413.8 Q186.8,415.1 184.6,415.1 Q183.2,415.1 182.1,414.5 Q181.0,413.9 180.4,412.7 Q179.8,411.6 179.8,410.0 Q179.8,407.6 181.1,406.3 Q182.4,405.0 184.6,405.0 Q186.0,405.0 187.1,405.6 Q188.2,406.2 188.8,407.3 Q189.4,408.5 189.4,410.0 Z " fill="rgb(255,255,255)"/><path d="M70.2,441.0 L68.7,441.0 L68.7,429.4 L64.6,429.4 L64.6,428.1 L74.2,428.1 L74.2,429.4 L70.2,429.4 L70.2,441.0 Z M82.6,441.0 L82.6,434.7 Q82.6,433.6 82.0,433.0 Q81.5,432.4 80.3,432.4 Q78.8,432.4 78.1,433.2 Q77.4,434.0 77.4,435.9 L77.4,441.0 L76.0,441.0 L76.0,427.3 L77.4,427.3 L77.4,431.4 Q77.4,432.2 77.3,432.7 L77.4,432.7 Q77.9,432.0 78.7,431.6 Q79.5,431.2 80.5,431.2 Q82.2,431.2 83.1,432.0 Q84.0,432.9 84.0,434.7 L84.0,441.0 L82.6,441.0 Z M91.1,441.1 Q88.9,441.1 87.7,439.8 Q86.5,438.5 86.5,436.2 Q86.5,433.9 87.6,432.5 Q88.8,431.2 90.7,431.2 Q92.5,431.2 93.6,432.3 Q94.6,433.5 94.6,435.5 L94.6,436.4 L88.0,436.4 Q88.0,438.1 88.8,439.0 Q89.7,439.9 91.1,439.9 Q92.7,439.9 94.2,439.2 L94.2,440.5 Q93.4,440.9 92.7,441.0 Q92.1,441.1 91.1,441.1 M90.7,432.4 Q89.5,432.4 88.8,433.1 Q88.1,433.9 88.0,435.2 L93.1,435.2 Q93.1,433.8 92.4,433.1 Q91.8,432.4 90.7,432.4 Z M105.9,441.1 Q103.7,441.1 102.5,439.8 Q101.2,438.5 101.2,436.2 Q101.2,433.9 102.4,432.5 Q103.5,431.2 105.5,431.2 Q107.3,431.2 108.3,432.3 Q109.4,433.5 109.4,435.5 L109.4,436.4 L102.8,436.4 Q102.8,438.1 103.6,439.0 Q104.4,439.9 105.9,439.9 Q107.5,439.9 109.0,439.2 L109.0,440.5 Q108.2,440.9 107.5,441.0 Q106.8,441.1 105.9,441.1 M105.5,432.4 Q104.3,432.4 103.6,433.1 Q102.9,433.9 102.8,435.2 L107.8,435.2 Q107.8,433.8 107.2,433.1 Q106.6,432.4 105.5,432.4 Z M113.8,436.0 L110.5,431.3 L112.2,431.3 L114.7,435.0 L117.2,431.3 L118.9,431.3 L115.5,436.0 L119.0,441.0 L117.4,441.0 L114.7,437.1 L112.0,441.0 L110.3,441.0 L113.8,436.0 Z M124.1,439.9 Q124.4,439.9 124.8,439.9 Q125.2,439.8 125.4,439.8 L125.4,440.9 Q125.1,441.0 124.7,441.1 Q124.2,441.1 123.9,441.1 Q121.1,441.1 121.1,438.2 L121.1,432.5 L119.7,432.5 L119.7,431.8 L121.1,431.2 L121.7,429.1 L122.5,429.1 L122.5,431.3 L125.3,431.3 L125.3,432.5 L122.5,432.5 L122.5,438.1 Q122.5,439.0 122.9,439.5 Q123.3,439.9 124.1,439.9 Z M131.4,441.1 Q129.2,441.1 128.0,439.8 Q126.8,438.5 126.8,436.2 Q126.8,433.9 127.9,432.5 Q129.1,431.2 131.0,431.2 Q132.8,431.2 133.9,432.3 Q134.9,433.5 134.9,435.5 L134.9,436.4 L128.3,436.4 Q128.3,438.1 129.1,439.0 Q130.0,439.9 131.4,439.9 Q133.0,439.9 134.5,439.2 L134.5,440.5 Q133.7,440.9 133.0,441.0 Q132.4,441.1 131.4,441.1 M131.0,432.4 Q129.8,432.4 129.1,433.1 Q128.4,433.9 128.3,435.2 L133.4,435.2 Q133.4,433.8 132.7,433.1 Q132.1,432.4 131.0,432.4 Z M144.0,441.0 L144.0,434.7 Q144.0,433.6 143.5,433.0 Q142.9,432.4 141.8,432.4 Q140.3,432.4 139.6,433.2 Q138.9,434.0 138.9,435.9 L138.9,441.0 L137.4,441.0 L137.4,431.3 L138.6,431.3 L138.8,432.7 L138.9,432.7 Q139.3,431.9 140.2,431.5 Q141.0,431.2 142.0,431.2 Q143.7,431.2 144.6,432.0 Q145.5,432.8 145.5,434.7 L145.5,441.0 L144.0,441.0 Z M154.7,438.3 Q154.7,439.7 153.7,440.4 Q152.7,441.1 150.9,441.1 Q148.9,441.1 147.9,440.5 L147.9,439.2 Q148.6,439.5 149.4,439.7 Q150.1,439.9 150.9,439.9 Q152.0,439.9 152.6,439.6 Q153.3,439.2 153.3,438.5 Q153.3,437.9 152.8,437.5 Q152.3,437.1 150.9,436.6 Q149.5,436.1 149.0,435.7 Q148.4,435.3 148.1,434.8 Q147.8,434.4 147.8,433.7 Q147.8,432.5 148.8,431.8 Q149.8,431.2 151.4,431.2 Q153.0,431.2 154.5,431.8 L153.9,433.0 Q152.5,432.4 151.3,432.4 Q150.3,432.4 149.8,432.7 Q149.2,433.0 149.2,433.6 Q149.2,434.0 149.4,434.3 Q149.6,434.5 150.1,434.8 Q150.5,435.0 151.7,435.5 Q153.5,436.1 154.1,436.7 Q154.7,437.4 154.7,438.3 Z M158.5,441.0 L157.0,441.0 L157.0,431.3 L158.5,431.3 L158.5,441.0 M156.9,428.7 Q156.9,428.2 157.2,428.0 Q157.4,427.8 157.8,427.8 Q158.1,427.8 158.4,428.0 Q158.6,428.2 158.6,428.7 Q158.6,429.2 158.4,429.5 Q158.1,429.7 157.8,429.7 Q157.4,429.7 157.2,429.5 Q156.9,429.2 156.9,428.7 Z M169.9,436.1 Q169.9,438.5 168.7,439.8 Q167.5,441.1 165.4,441.1 Q164.1,441.1 163.1,440.5 Q162.1,439.9 161.6,438.8 Q161.1,437.7 161.1,436.1 Q161.1,433.8 162.2,432.5 Q163.4,431.2 165.5,431.2 Q167.5,431.2 168.7,432.5 Q169.9,433.8 169.9,436.1 M162.6,436.1 Q162.6,438.0 163.3,439.0 Q164.0,439.9 165.5,439.9 Q166.9,439.9 167.7,439.0 Q168.4,438.0 168.4,436.1 Q168.4,434.3 167.7,433.3 Q166.9,432.4 165.5,432.4 Q164.0,432.4 163.3,433.3 Q162.6,434.3 162.6,436.1 Z M179.1,441.0 L179.1,434.7 Q179.1,433.6 178.5,433.0 Q178.0,432.4 176.8,432.4 Q175.3,432.4 174.6,433.2 Q173.9,434.0 173.9,435.9 L173.9,441.0 L172.5,441.0 L172.5,431.3 L173.7,431.3 L173.9,432.7 L174.0,432.7 Q174.4,431.9 175.2,431.5 Q176.0,431.2 177.0,431.2 Q178.8,431.2 179.6,432.0 Q180.5,432.8 180.5,434.7 L180.5,441.0 L179.1,441.0 Z M189.6,441.0 L188.2,441.0 L188.2,431.3 L189.6,431.3 L189.6,441.0 M188.1,428.7 Q188.1,428.2 188.3,428.0 Q188.6,427.8 188.9,427.8 Q189.3,427.8 189.5,428.0 Q189.8,428.2 189.8,428.7 Q189.8,429.2 189.5,429.5 Q189.3,429.7 188.9,429.7 Q188.6,429.7 188.3,429.5 Q188.1,429.2 188.1,428.7 Z M199.0,438.3 Q199.0,439.7 198.0,440.4 Q197.0,441.1 195.1,441.1 Q193.2,441.1 192.2,440.5 L192.2,439.2 Q192.8,439.5 193.6,439.7 Q194.4,439.9 195.2,439.9 Q196.3,439.9 196.9,439.6 Q197.5,439.2 197.5,438.5 Q197.5,437.9 197.1,437.5 Q196.6,437.1 195.2,436.6 Q193.8,436.1 193.2,435.7 Q192.7,435.3 192.4,434.8 Q192.1,434.4 192.1,433.7 Q192.1,432.5 193.1,431.8 Q194.0,431.2 195.7,431.2 Q197.3,431.2 198.8,431.8 L198.2,433.0 Q196.8,432.4 195.6,432.4 Q194.6,432.4 194.0,432.7 Q193.5,433.0 193.5,433.6 Q193.5,434.0 193.7,434.3 Q193.9,434.5 194.3,434.8 Q194.8,435.0 196.0,435.5 Q197.8,436.1 198.4,436.7 Q199.0,437.4 199.0,438.3 Z M210.1,441.1 Q207.9,441.1 206.7,439.8 Q205.5,438.5 205.5,436.2 Q205.5,433.9 206.6,432.5 Q207.8,431.2 209.7,431.2 Q211.5,431.2 212.6,432.3 Q213.6,433.5 213.6,435.5 L213.6,436.4 L207.0,436.4 Q207.0,438.1 207.8,439.0 Q208.6,439.9 210.1,439.9 Q211.7,439.9 213.2,439.2 L213.2,440.5 Q212.4,440.9 211.7,441.0 Q211.0,441.1 210.1,441.1 M209.7,432.4 Q208.5,432.4 207.8,433.1 Q207.1,433.9 207.0,435.2 L212.0,435.2 Q212.0,433.8 211.4,433.1 Q210.8,432.4 209.7,432.4 Z M222.7,441.0 L222.7,434.7 Q222.7,433.6 222.2,433.0 Q221.6,432.4 220.5,432.4 Q219.0,432.4 218.3,433.2 Q217.6,434.0 217.6,435.9 L217.6,441.0 L216.1,441.0 L216.1,431.3 L217.3,431.3 L217.5,432.7 L217.6,432.7 Q218.0,431.9 218.9,431.5 Q219.7,431.2 220.7,431.2 Q222.4,431.2 223.3,432.0 Q224.2,432.8 224.2,434.7 L224.2,441.0 L222.7,441.0 Z M233.1,441.0 L232.8,439.6 L232.7,439.6 Q232.0,440.5 231.3,440.8 Q230.6,441.1 229.5,441.1 Q228.1,441.1 227.2,440.4 Q226.4,439.7 226.4,438.3 Q226.4,435.4 231.1,435.2 L232.7,435.2 L232.7,434.6 Q232.7,433.5 232.2,432.9 Q231.8,432.4 230.7,432.4 Q229.5,432.4 228.0,433.1 L227.5,432.0 Q228.2,431.6 229.1,431.4 Q229.9,431.2 230.8,431.2 Q232.5,431.2 233.3,431.9 Q234.2,432.7 234.2,434.4 L234.2,441.0 L233.1,441.0 M229.8,439.9 Q231.1,439.9 231.9,439.2 Q232.7,438.4 232.7,437.1 L232.7,436.2 L231.2,436.3 Q229.5,436.4 228.7,436.8 Q228.0,437.3 228.0,438.3 Q228.0,439.1 228.4,439.5 Q228.9,439.9 229.8,439.9 Z M241.6,431.2 Q243.5,431.2 244.6,432.5 Q245.6,433.8 245.6,436.1 Q245.6,438.5 244.6,439.8 Q243.5,441.1 241.6,441.1 Q240.7,441.1 239.9,440.8 Q239.1,440.4 238.6,439.7 L238.5,439.7 L238.2,441.0 L237.2,441.0 L237.2,427.3 L238.6,427.3 L238.6,430.6 Q238.6,431.7 238.5,432.6 L238.6,432.6 Q239.6,431.2 241.6,431.2 M241.4,432.4 Q239.9,432.4 239.3,433.3 Q238.6,434.1 238.6,436.1 Q238.6,438.2 239.3,439.0 Q240.0,439.9 241.5,439.9 Q242.8,439.9 243.5,438.9 Q244.1,438.0 244.1,436.1 Q244.1,434.2 243.5,433.3 Q242.8,432.4 241.4,432.4 Z M249.6,441.0 L248.2,441.0 L248.2,427.3 L249.6,427.3 L249.6,441.0 Z M256.8,441.1 Q254.7,441.1 253.4,439.8 Q252.2,438.5 252.2,436.2 Q252.2,433.9 253.4,432.5 Q254.5,431.2 256.4,431.2 Q258.2,431.2 259.3,432.3 Q260.4,433.5 260.4,435.5 L260.4,436.4 L253.7,436.4 Q253.8,438.1 254.6,439.0 Q255.4,439.9 256.9,439.9 Q258.4,439.9 259.9,439.2 L259.9,440.5 Q259.2,440.9 258.5,441.0 Q257.8,441.1 256.8,441.1 M256.4,432.4 Q255.3,432.4 254.6,433.1 Q253.9,433.9 253.8,435.2 L258.8,435.2 Q258.8,433.8 258.2,433.1 Q257.6,432.4 256.4,432.4 Z M269.4,439.7 L269.3,439.7 Q268.3,441.1 266.3,441.1 Q264.4,441.1 263.4,439.8 Q262.3,438.6 262.3,436.2 Q262.3,433.8 263.4,432.5 Q264.4,431.2 266.3,431.2 Q268.3,431.2 269.3,432.6 L269.4,432.6 L269.4,431.9 L269.3,431.2 L269.3,427.3 L270.8,427.3 L270.8,441.0 L269.6,441.0 L269.4,439.7 M266.5,439.9 Q268.0,439.9 268.6,439.1 Q269.3,438.3 269.3,436.5 L269.3,436.2 Q269.3,434.1 268.6,433.3 Q268.0,432.4 266.5,432.4 Q265.2,432.4 264.5,433.4 Q263.8,434.4 263.8,436.2 Q263.8,438.0 264.5,439.0 Q265.2,439.9 266.5,439.9 Z " fill="rgb(86,225,121)"/><path d="M49.0,455 L289.0,455 C300.5,455 308.2,463.0 308.0,473 C307.7,482.4 300.1,490 289.0,490 L48.0,490 C38.4,490 32.1,482.3 32.0,473 C31.8,463.0 38.7,455 49.0,455 Z" fill="rgb(36,74,108)" stroke="rgb(0,0,0)" stroke-width="2"/><path d="M49.0,455 C59.5,454.6 67.8,463.4 67.0,474 C66.2,483.5 57.8,490.8 48.0,490 C39.1,489.2 32.2,481.8 32.0,473 C31.7,463.2 39.4,455.2 49.0,455 Z" fill="rgb(59,132,185)"/><path d="M114.8,479.1 Q113.1,479.1 112.1,477.8 Q111.1,476.5 111.1,474.1 Q111.1,471.7 112.1,470.3 Q113.1,469.0 114.9,469.0 Q116.8,469.0 117.7,470.4 L117.8,470.4 Q117.6,469.3 117.6,468.4 L117.6,465.3 L120.3,465.3 L120.3,479.0 L118.3,479.0 L117.7,477.7 L117.6,477.7 Q116.7,479.1 114.8,479.1 M115.8,477.0 Q116.8,477.0 117.3,476.4 Q117.8,475.8 117.8,474.4 L117.8,474.1 Q117.8,472.5 117.3,471.8 Q116.8,471.1 115.7,471.1 Q114.8,471.1 114.3,471.9 Q113.8,472.7 113.8,474.1 Q113.8,475.6 114.3,476.3 Q114.8,477.0 115.8,477.0 Z M129.4,479.0 L128.8,477.6 L128.8,477.6 Q128.1,478.5 127.4,478.8 Q126.7,479.1 125.5,479.1 Q124.1,479.1 123.3,478.3 Q122.5,477.5 122.5,476.0 Q122.5,474.5 123.6,473.7 Q124.7,473.0 126.9,472.9 L128.6,472.8 L128.6,472.4 Q128.6,470.9 127.0,470.9 Q125.9,470.9 124.3,471.6 L123.4,469.8 Q125.1,468.9 127.1,468.9 Q129.1,468.9 130.2,469.8 Q131.2,470.7 131.2,472.4 L131.2,479.0 L129.4,479.0 M128.6,474.4 L127.5,474.4 Q126.4,474.5 125.8,474.9 Q125.2,475.3 125.2,476.0 Q125.2,477.2 126.5,477.2 Q127.4,477.2 128.0,476.6 Q128.6,476.1 128.6,475.2 L128.6,474.4 Z M139.5,469.0 Q140.0,469.0 140.4,469.0 L140.2,471.5 Q139.9,471.5 139.4,471.5 Q138.1,471.5 137.4,472.1 Q136.7,472.8 136.7,474.0 L136.7,479.0 L134.0,479.0 L134.0,469.1 L136.0,469.1 L136.4,470.8 L136.5,470.8 Q137.0,470.0 137.8,469.5 Q138.6,469.0 139.5,469.0 Z M144.7,473.6 L145.9,472.1 L148.7,469.1 L151.7,469.1 L147.8,473.4 L151.9,479.0 L148.8,479.0 L146.0,475.0 L144.8,475.9 L144.8,479.0 L142.2,479.0 L142.2,465.3 L144.8,465.3 L144.8,471.4 L144.7,473.6 L144.7,473.6 Z M158.8,469.0 Q159.4,469.0 159.7,469.0 L159.5,471.5 Q159.2,471.5 158.7,471.5 Q157.4,471.5 156.7,472.1 Q156.0,472.8 156.0,474.0 L156.0,479.0 L153.3,479.0 L153.3,469.1 L155.4,469.1 L155.8,470.8 L155.9,470.8 Q156.3,470.0 157.1,469.5 Q157.9,469.0 158.8,469.0 Z M165.2,470.9 Q164.4,470.9 163.9,471.4 Q163.4,471.9 163.3,472.9 L167.1,472.9 Q167.1,471.9 166.6,471.4 Q166.1,470.9 165.2,470.9 M165.6,479.1 Q163.2,479.1 161.9,477.8 Q160.5,476.5 160.5,474.1 Q160.5,471.7 161.8,470.3 Q163.0,469.0 165.2,469.0 Q167.3,469.0 168.4,470.1 Q169.6,471.3 169.6,473.4 L169.6,474.7 L163.3,474.7 Q163.3,475.9 163.9,476.5 Q164.6,477.1 165.7,477.1 Q166.6,477.1 167.4,477.0 Q168.2,476.8 169.0,476.4 L169.0,478.4 Q168.3,478.8 167.5,479.0 Q166.7,479.1 165.6,479.1 Z M178.0,479.0 L177.5,477.6 L177.4,477.6 Q176.7,478.5 176.0,478.8 Q175.3,479.1 174.2,479.1 Q172.7,479.1 171.9,478.3 Q171.1,477.5 171.1,476.0 Q171.1,474.5 172.2,473.7 Q173.3,473.0 175.5,472.9 L177.2,472.8 L177.2,472.4 Q177.2,470.9 175.7,470.9 Q174.5,470.9 172.9,471.6 L172.0,469.8 Q173.7,468.9 175.8,468.9 Q177.8,468.9 178.8,469.8 Q179.9,470.7 179.9,472.4 L179.9,479.0 L178.0,479.0 M177.2,474.4 L176.2,474.4 Q175.0,474.5 174.4,474.9 Q173.9,475.3 173.9,476.0 Q173.9,477.2 175.2,477.2 Q176.1,477.2 176.7,476.6 Q177.2,476.1 177.2,475.2 L177.2,474.4 Z M185.8,479.1 Q184.0,479.1 183.0,477.8 Q182.0,476.5 182.0,474.1 Q182.0,471.7 183.1,470.3 Q184.1,469.0 185.8,469.0 Q187.7,469.0 188.7,470.4 L188.7,470.4 Q188.5,469.3 188.5,468.4 L188.5,465.3 L191.2,465.3 L191.2,479.0 L189.2,479.0 L188.7,477.7 L188.5,477.7 Q187.6,479.1 185.8,479.1 M186.7,477.0 Q187.7,477.0 188.2,476.4 Q188.7,475.8 188.7,474.4 L188.7,474.1 Q188.7,472.5 188.2,471.8 Q187.8,471.1 186.7,471.1 Q185.8,471.1 185.3,471.9 Q184.8,472.7 184.8,474.1 Q184.8,475.6 185.3,476.3 Q185.8,477.0 186.7,477.0 Z M198.1,470.9 Q197.3,470.9 196.8,471.4 Q196.3,471.9 196.2,472.9 L200.0,472.9 Q200.0,471.9 199.5,471.4 Q199.0,470.9 198.1,470.9 M198.5,479.1 Q196.1,479.1 194.8,477.8 Q193.4,476.5 193.4,474.1 Q193.4,471.7 194.7,470.3 Q195.9,469.0 198.1,469.0 Q200.2,469.0 201.3,470.1 Q202.5,471.3 202.5,473.4 L202.5,474.7 L196.2,474.7 Q196.2,475.9 196.8,476.5 Q197.5,477.1 198.6,477.1 Q199.5,477.1 200.3,477.0 Q201.1,476.8 201.9,476.4 L201.9,478.4 Q201.2,478.8 200.4,479.0 Q199.6,479.1 198.5,479.1 Z M210.2,469.0 Q210.7,469.0 211.1,469.0 L210.9,471.5 Q210.5,471.5 210.1,471.5 Q208.8,471.5 208.1,472.1 Q207.4,472.8 207.4,474.0 L207.4,479.0 L204.7,479.0 L204.7,469.1 L206.7,469.1 L207.1,470.8 L207.2,470.8 Q207.7,470.0 208.5,469.5 Q209.2,469.0 210.2,469.0 Z M212.5,477.7 Q212.5,477.0 212.9,476.6 Q213.3,476.2 214.0,476.2 Q214.7,476.2 215.1,476.6 Q215.5,477.0 215.5,477.7 Q215.5,478.4 215.1,478.8 Q214.7,479.2 214.0,479.2 Q213.3,479.2 212.9,478.8 Q212.5,478.4 212.5,477.7 Z M220.1,474.0 Q220.1,475.5 220.6,476.2 Q221.1,477.0 222.2,477.0 Q223.2,477.0 223.7,476.2 Q224.2,475.5 224.2,474.0 Q224.2,472.6 223.7,471.8 Q223.2,471.1 222.1,471.1 Q221.1,471.1 220.6,471.8 Q220.1,472.6 220.1,474.0 M226.9,474.0 Q226.9,476.4 225.6,477.8 Q224.4,479.1 222.1,479.1 Q220.7,479.1 219.6,478.5 Q218.5,477.9 218.0,476.7 Q217.4,475.6 217.4,474.0 Q217.4,471.6 218.6,470.3 Q219.9,469.0 222.2,469.0 Q223.6,469.0 224.7,469.6 Q225.7,470.2 226.3,471.3 Q226.9,472.5 226.9,474.0 Z M234.6,469.0 Q235.2,469.0 235.5,469.0 L235.3,471.5 Q235.0,471.5 234.5,471.5 Q233.2,471.5 232.5,472.1 Q231.8,472.8 231.8,474.0 L231.8,479.0 L229.1,479.0 L229.1,469.1 L231.2,469.1 L231.5,470.8 L231.7,470.8 Q232.1,470.0 232.9,469.5 Q233.7,469.0 234.6,469.0 Z M245.7,469.1 L245.7,470.5 L244.1,470.9 Q244.6,471.6 244.6,472.4 Q244.6,474.0 243.5,474.8 Q242.3,475.7 240.4,475.7 L239.9,475.7 L239.5,475.7 Q239.1,476.0 239.1,476.4 Q239.1,476.9 240.6,476.9 L242.2,476.9 Q243.9,476.9 244.7,477.6 Q245.6,478.3 245.6,479.7 Q245.6,481.4 244.1,482.3 Q242.7,483.3 240.0,483.3 Q237.9,483.3 236.9,482.6 Q235.8,481.9 235.8,480.6 Q235.8,479.7 236.3,479.1 Q236.9,478.5 237.9,478.2 Q237.5,478.1 237.2,477.7 Q236.9,477.3 236.9,476.8 Q236.9,476.2 237.2,475.9 Q237.6,475.5 238.2,475.1 Q237.4,474.8 237.0,474.1 Q236.5,473.3 236.5,472.3 Q236.5,470.7 237.6,469.8 Q238.6,469.0 240.5,469.0 Q241.0,469.0 241.5,469.0 Q242.1,469.1 242.2,469.1 L245.7,469.1 M238.1,480.4 Q238.1,480.9 238.6,481.2 Q239.2,481.5 240.1,481.5 Q241.5,481.5 242.4,481.1 Q243.2,480.7 243.2,480.1 Q243.2,479.5 242.7,479.3 Q242.2,479.1 241.2,479.1 L239.8,479.1 Q239.1,479.1 238.6,479.4 Q238.1,479.8 238.1,480.4 M239.1,472.4 Q239.1,473.2 239.4,473.6 Q239.8,474.1 240.5,474.1 Q241.3,474.1 241.6,473.6 Q242.0,473.2 242.0,472.4 Q242.0,470.6 240.5,470.6 Q239.1,470.6 239.1,472.4 Z " fill="rgb(255,255,255)"/><path d="M45.1,505.0 L37.9,505.0 L37.9,492.1 L45.1,492.1 L45.1,493.4 L39.4,493.4 L39.4,497.6 L44.7,497.6 L44.7,498.9 L39.4,498.9 L39.4,503.6 L45.1,503.6 L45.1,505.0 Z M54.3,505.0 L54.3,498.7 Q54.3,497.6 53.8,497.0 Q53.2,496.4 52.1,496.4 Q50.6,496.4 49.9,497.2 Q49.2,498.0 49.2,499.9 L49.2,505.0 L47.7,505.0 L47.7,495.3 L48.9,495.3 L49.1,496.7 L49.2,496.7 Q49.7,495.9 50.5,495.5 Q51.3,495.2 52.3,495.2 Q54.0,495.2 54.9,496.0 Q55.8,496.8 55.8,498.7 L55.8,505.0 L54.3,505.0 Z M64.7,505.0 L64.4,503.6 L64.3,503.6 Q63.6,504.5 62.9,504.8 Q62.2,505.1 61.1,505.1 Q59.7,505.1 58.8,504.4 Q58.0,503.7 58.0,502.3 Q58.0,499.4 62.7,499.2 L64.3,499.2 L64.3,498.6 Q64.3,497.5 63.9,496.9 Q63.4,496.4 62.3,496.4 Q61.1,496.4 59.6,497.1 L59.1,496.0 Q59.8,495.6 60.7,495.4 Q61.5,495.2 62.4,495.2 Q64.1,495.2 64.9,495.9 Q65.8,496.7 65.8,498.4 L65.8,505.0 L64.7,505.0 M61.4,503.9 Q62.7,503.9 63.5,503.2 Q64.3,502.4 64.3,501.1 L64.3,500.2 L62.8,500.3 Q61.1,500.4 60.3,500.8 Q59.6,501.3 59.6,502.3 Q59.6,503.1 60.0,503.5 Q60.5,503.9 61.4,503.9 Z M73.3,495.2 Q75.1,495.2 76.2,496.5 Q77.2,497.8 77.2,500.1 Q77.2,502.5 76.2,503.8 Q75.1,505.1 73.3,505.1 Q72.3,505.1 71.5,504.8 Q70.8,504.4 70.2,503.7 L70.1,503.7 L69.8,505.0 L68.8,505.0 L68.8,491.3 L70.2,491.3 L70.2,494.6 Q70.2,495.7 70.2,496.6 L70.2,496.6 Q71.2,495.2 73.3,495.2 M73.0,496.4 Q71.5,496.4 70.9,497.3 Q70.2,498.1 70.2,500.1 Q70.2,502.2 70.9,503.0 Q71.6,503.9 73.1,503.9 Q74.4,503.9 75.1,502.9 Q75.7,502.0 75.7,500.1 Q75.7,498.2 75.1,497.3 Q74.4,496.4 73.0,496.4 Z M81.3,505.0 L79.8,505.0 L79.8,491.3 L81.3,491.3 L81.3,505.0 Z M88.4,505.1 Q86.3,505.1 85.1,503.8 Q83.8,502.5 83.8,500.2 Q83.8,497.9 85.0,496.5 Q86.1,495.2 88.0,495.2 Q89.9,495.2 90.9,496.3 Q92.0,497.5 92.0,499.5 L92.0,500.4 L85.3,500.4 Q85.4,502.1 86.2,503.0 Q87.0,503.9 88.5,503.9 Q90.0,503.9 91.5,503.2 L91.5,504.5 Q90.8,504.9 90.1,505.0 Q89.4,505.1 88.4,505.1 M88.0,496.4 Q86.9,496.4 86.2,497.1 Q85.5,497.9 85.4,499.2 L90.4,499.2 Q90.4,497.8 89.8,497.1 Q89.2,496.4 88.0,496.4 Z M101.0,503.7 L100.9,503.7 Q99.9,505.1 97.9,505.1 Q96.0,505.1 95.0,503.8 Q93.9,502.6 93.9,500.2 Q93.9,497.8 95.0,496.5 Q96.0,495.2 97.9,495.2 Q99.9,495.2 100.9,496.6 L101.0,496.6 L101.0,495.9 L100.9,495.2 L100.9,491.3 L102.4,491.3 L102.4,505.0 L101.2,505.0 L101.0,503.7 M98.1,503.9 Q99.6,503.9 100.3,503.1 Q100.9,502.3 100.9,500.5 L100.9,500.2 Q100.9,498.1 100.2,497.3 Q99.6,496.4 98.1,496.4 Q96.8,496.4 96.1,497.4 Q95.4,498.4 95.4,500.2 Q95.4,502.0 96.1,503.0 Q96.8,503.9 98.1,503.9 Z M114.5,496.5 L112.0,496.5 L112.0,505.0 L110.6,505.0 L110.6,496.5 L108.9,496.5 L108.9,495.8 L110.6,495.3 L110.6,494.7 Q110.6,491.2 113.7,491.2 Q114.5,491.2 115.5,491.5 L115.1,492.7 Q114.3,492.4 113.7,492.4 Q112.8,492.4 112.4,492.9 Q112.0,493.5 112.0,494.7 L112.0,495.3 L114.5,495.3 L114.5,496.5 Z M124.6,500.1 Q124.6,502.5 123.4,503.8 Q122.2,505.1 120.1,505.1 Q118.8,505.1 117.8,504.5 Q116.8,503.9 116.3,502.8 Q115.7,501.7 115.7,500.1 Q115.7,497.8 116.9,496.5 Q118.1,495.2 120.2,495.2 Q122.2,495.2 123.4,496.5 Q124.6,497.8 124.6,500.1 M117.2,500.1 Q117.2,502.0 118.0,503.0 Q118.7,503.9 120.1,503.9 Q121.6,503.9 122.3,503.0 Q123.1,502.0 123.1,500.1 Q123.1,498.3 122.3,497.3 Q121.6,496.4 120.1,496.4 Q118.7,496.4 118.0,497.3 Q117.2,498.3 117.2,500.1 Z M131.5,495.2 Q132.2,495.2 132.7,495.3 L132.5,496.6 Q131.9,496.5 131.4,496.5 Q130.2,496.5 129.4,497.4 Q128.6,498.4 128.6,499.8 L128.6,505.0 L127.1,505.0 L127.1,495.3 L128.3,495.3 L128.5,497.1 L128.6,497.1 Q129.1,496.2 129.9,495.7 Q130.6,495.2 131.5,495.2 Z M142.3,503.9 Q142.6,503.9 143.0,503.9 Q143.4,503.8 143.6,503.8 L143.6,504.9 Q143.3,505.0 142.9,505.1 Q142.4,505.1 142.1,505.1 Q139.3,505.1 139.3,502.2 L139.3,496.5 L137.9,496.5 L137.9,495.8 L139.3,495.2 L139.9,493.1 L140.7,493.1 L140.7,495.3 L143.5,495.3 L143.5,496.5 L140.7,496.5 L140.7,502.1 Q140.7,503.0 141.1,503.5 Q141.5,503.9 142.3,503.9 Z M152.1,505.0 L152.1,498.7 Q152.1,497.6 151.6,497.0 Q151.0,496.4 149.9,496.4 Q148.4,496.4 147.7,497.2 Q147.0,498.0 147.0,499.9 L147.0,505.0 L145.5,505.0 L145.5,491.3 L147.0,491.3 L147.0,495.4 Q147.0,496.2 146.9,496.7 L147.0,496.7 Q147.4,496.0 148.2,495.6 Q149.0,495.2 150.0,495.2 Q151.8,495.2 152.7,496.0 Q153.6,496.9 153.6,498.7 L153.6,505.0 L152.1,505.0 Z M160.6,505.1 Q158.5,505.1 157.3,503.8 Q156.0,502.5 156.0,500.2 Q156.0,497.9 157.2,496.5 Q158.3,495.2 160.2,495.2 Q162.1,495.2 163.1,496.3 Q164.2,497.5 164.2,499.5 L164.2,500.4 L157.5,500.4 Q157.6,502.1 158.4,503.0 Q159.2,503.9 160.7,503.9 Q162.2,503.9 163.8,503.2 L163.8,504.5 Q163.0,504.9 162.3,505.0 Q161.6,505.1 160.6,505.1 M160.2,496.4 Q159.1,496.4 158.4,497.1 Q157.7,497.9 157.6,499.2 L162.6,499.2 Q162.6,497.8 162.0,497.1 Q161.4,496.4 160.2,496.4 Z M175.2,505.1 Q173.1,505.1 171.9,503.9 Q170.8,502.6 170.8,500.2 Q170.8,497.8 172.0,496.5 Q173.1,495.2 175.3,495.2 Q176.0,495.2 176.7,495.3 Q177.4,495.5 177.8,495.7 L177.3,496.9 Q176.8,496.7 176.2,496.6 Q175.7,496.4 175.2,496.4 Q172.3,496.4 172.3,500.2 Q172.3,502.0 173.0,502.9 Q173.7,503.9 175.1,503.9 Q176.3,503.9 177.6,503.3 L177.6,504.6 Q176.6,505.1 175.2,505.1 Z M181.3,495.3 L181.3,501.6 Q181.3,502.8 181.8,503.3 Q182.3,503.9 183.5,503.9 Q185.0,503.9 185.7,503.1 Q186.4,502.3 186.4,500.4 L186.4,495.3 L187.9,495.3 L187.9,505.0 L186.6,505.0 L186.4,503.7 L186.4,503.7 Q185.9,504.4 185.1,504.8 Q184.3,505.1 183.3,505.1 Q181.5,505.1 180.7,504.3 Q179.8,503.5 179.8,501.6 L179.8,495.3 L181.3,495.3 Z M195.3,495.2 Q196.0,495.2 196.5,495.3 L196.3,496.6 Q195.7,496.5 195.2,496.5 Q194.1,496.5 193.2,497.4 Q192.4,498.4 192.4,499.8 L192.4,505.0 L190.9,505.0 L190.9,495.3 L192.1,495.3 L192.3,497.1 L192.4,497.1 Q192.9,496.2 193.7,495.7 Q194.4,495.2 195.3,495.2 Z M202.7,495.2 Q203.3,495.2 203.8,495.3 L203.6,496.6 Q203.0,496.5 202.6,496.5 Q201.4,496.5 200.6,497.4 Q199.8,498.4 199.8,499.8 L199.8,505.0 L198.3,505.0 L198.3,495.3 L199.5,495.3 L199.7,497.1 L199.7,497.1 Q200.3,496.2 201.0,495.7 Q201.8,495.2 202.7,495.2 Z M209.3,505.1 Q207.2,505.1 206.0,503.8 Q204.7,502.5 204.7,500.2 Q204.7,497.9 205.9,496.5 Q207.0,495.2 209.0,495.2 Q210.8,495.2 211.8,496.3 Q212.9,497.5 212.9,499.5 L212.9,500.4 L206.3,500.4 Q206.3,502.1 207.1,503.0 Q207.9,503.9 209.4,503.9 Q211.0,503.9 212.5,503.2 L212.5,504.5 Q211.7,504.9 211.0,505.0 Q210.3,505.1 209.3,505.1 M209.0,496.4 Q207.8,496.4 207.1,497.1 Q206.4,497.9 206.3,499.2 L211.3,499.2 Q211.3,497.8 210.7,497.1 Q210.1,496.4 209.0,496.4 Z M222.0,505.0 L222.0,498.7 Q222.0,497.6 221.4,497.0 Q220.9,496.4 219.8,496.4 Q218.2,496.4 217.5,497.2 Q216.8,498.0 216.8,499.9 L216.8,505.0 L215.4,505.0 L215.4,495.3 L216.6,495.3 L216.8,496.7 L216.9,496.7 Q217.3,495.9 218.1,495.5 Q218.9,495.2 219.9,495.2 Q221.7,495.2 222.6,496.0 Q223.4,496.8 223.4,498.7 L223.4,505.0 L222.0,505.0 Z M229.5,503.9 Q229.9,503.9 230.3,503.9 Q230.6,503.8 230.9,503.8 L230.9,504.9 Q230.6,505.0 230.2,505.1 Q229.7,505.1 229.3,505.1 Q226.5,505.1 226.5,502.2 L226.5,496.5 L225.2,496.5 L225.2,495.8 L226.5,495.2 L227.1,493.1 L228.0,493.1 L228.0,495.3 L230.8,495.3 L230.8,496.5 L228.0,496.5 L228.0,502.1 Q228.0,503.0 228.4,503.5 Q228.8,503.9 229.5,503.9 Z M245.3,505.0 L243.6,499.3 Q243.4,498.8 242.9,497.0 L242.9,497.0 Q242.5,498.5 242.2,499.3 L240.4,505.0 L238.7,505.0 L236.1,495.3 L237.6,495.3 Q238.6,499.0 239.1,500.9 Q239.5,502.8 239.6,503.4 L239.7,503.4 Q239.8,502.9 240.0,502.1 Q240.2,501.3 240.4,500.9 L242.1,495.3 L243.7,495.3 L245.4,500.9 Q245.9,502.4 246.1,503.4 L246.2,503.4 Q246.2,503.1 246.4,502.4 Q246.5,501.8 248.2,495.3 L249.7,495.3 L247.1,505.0 L245.3,505.0 Z M255.5,505.1 Q253.4,505.1 252.2,503.8 Q250.9,502.5 250.9,500.2 Q250.9,497.9 252.1,496.5 Q253.2,495.2 255.1,495.2 Q257.0,495.2 258.0,496.3 Q259.1,497.5 259.1,499.5 L259.1,500.4 L252.4,500.4 Q252.5,502.1 253.3,503.0 Q254.1,503.9 255.6,503.9 Q257.1,503.9 258.7,503.2 L258.7,504.5 Q257.9,504.9 257.2,505.0 Q256.5,505.1 255.5,505.1 M255.1,496.4 Q254.0,496.4 253.3,497.1 Q252.6,497.9 252.5,499.2 L257.5,499.2 Q257.5,497.8 256.9,497.1 Q256.3,496.4 255.1,496.4 Z M266.0,495.2 Q267.9,495.2 269.0,496.5 Q270.0,497.8 270.0,500.1 Q270.0,502.5 269.0,503.8 Q267.9,505.1 266.0,505.1 Q265.1,505.1 264.3,504.8 Q263.5,504.4 263.0,503.7 L262.9,503.7 L262.6,505.0 L261.6,505.0 L261.6,491.3 L263.0,491.3 L263.0,494.6 Q263.0,495.7 262.9,496.6 L263.0,496.6 Q264.0,495.2 266.0,495.2 M265.8,496.4 Q264.3,496.4 263.7,497.3 Q263.0,498.1 263.0,500.1 Q263.0,502.2 263.7,503.0 Q264.4,503.9 265.9,503.9 Q267.2,503.9 267.9,502.9 Q268.5,502.0 268.5,500.1 Q268.5,498.2 267.9,497.3 Q267.2,496.4 265.8,496.4 Z M278.8,502.3 Q278.8,503.7 277.8,504.4 Q276.8,505.1 275.0,505.1 Q273.1,505.1 272.0,504.5 L272.0,503.2 Q272.7,503.5 273.5,503.7 Q274.3,503.9 275.0,503.9 Q276.2,503.9 276.8,503.6 Q277.4,503.2 277.4,502.5 Q277.4,501.9 276.9,501.5 Q276.4,501.1 275.0,500.6 Q273.7,500.1 273.1,499.7 Q272.5,499.3 272.2,498.8 Q272.0,498.4 272.0,497.7 Q272.0,496.5 272.9,495.8 Q273.9,495.2 275.6,495.2 Q277.1,495.2 278.6,495.8 L278.1,497.0 Q276.6,496.4 275.5,496.4 Q274.4,496.4 273.9,496.7 Q273.4,497.0 273.4,497.6 Q273.4,498.0 273.6,498.3 Q273.8,498.5 274.2,498.8 Q274.6,499.0 275.9,499.5 Q277.6,500.1 278.2,500.7 Q278.8,501.4 278.8,502.3 Z M282.6,505.0 L281.2,505.0 L281.2,495.3 L282.6,495.3 L282.6,505.0 M281.1,492.7 Q281.1,492.2 281.3,492.0 Q281.5,491.8 281.9,491.8 Q282.3,491.8 282.5,492.0 Q282.8,492.2 282.8,492.7 Q282.8,493.2 282.5,493.5 Q282.3,493.7 281.9,493.7 Q281.5,493.7 281.3,493.5 Q281.1,493.2 281.1,492.7 Z M288.8,503.9 Q289.2,503.9 289.6,503.9 Q289.9,503.8 290.2,503.8 L290.2,504.9 Q289.9,505.0 289.5,505.1 Q289.0,505.1 288.6,505.1 Q285.8,505.1 285.8,502.2 L285.8,496.5 L284.5,496.5 L284.5,495.8 L285.8,495.2 L286.4,493.1 L287.3,493.1 L287.3,495.3 L290.1,495.3 L290.1,496.5 L287.3,496.5 L287.3,502.1 Q287.3,503.0 287.7,503.5 Q288.1,503.9 288.8,503.9 Z M296.2,505.1 Q294.0,505.1 292.8,503.8 Q291.5,502.5 291.5,500.2 Q291.5,497.9 292.7,496.5 Q293.8,495.2 295.8,495.2 Q297.6,495.2 298.6,496.3 Q299.7,497.5 299.7,499.5 L299.7,500.4 L293.1,500.4 Q293.1,502.1 293.9,503.0 Q294.7,503.9 296.2,503.9 Q297.8,503.9 299.3,503.2 L299.3,504.5 Q298.5,504.9 297.8,505.0 Q297.1,505.1 296.2,505.1 M295.8,496.4 Q294.6,496.4 293.9,497.1 Q293.2,497.9 293.1,499.2 L298.1,499.2 Q298.1,497.8 297.5,497.1 Q296.9,496.4 295.8,496.4 Z " fill="rgb(86,225,121)"/><path d="M44.0,473 L48.0,476 L56.0,466 C57.1,464.6 59.2,466.5 58.0,468 L50.0,478 C49.4,478.6 48.7,479.0 48.0,479 C47.3,478.9 46.6,478.5 46.0,478 L42.0,475 C40.6,473.9 42.4,471.8 44.0,473 Z" fill="rgb(255,255,255)"/><path d="M50.0,520 L62.0,520 C72.9,520 80.2,528.0 80.0,538 C79.7,547.4 72.5,555 62.0,555 L50.0,555 C39.4,555 32.2,547.4 32.0,538 C31.7,528.0 39.0,520 50.0,520 Z" fill="rgb(0,0,0)"/><path d="M58.4,544.0 L55.7,544.0 L55.7,536.5 L55.7,535.3 L55.8,534.0 Q55.1,534.6 54.8,534.9 L53.3,536.0 L52.0,534.4 L56.2,531.1 L58.4,531.1 L58.4,544.0 Z " fill="rgb(255,255,255)"/><path d="M107.6,558.3 Q105.5,558.3 104.2,559.7 Q103.0,561.1 103.0,563.5 Q103.0,566.1 104.2,567.4 Q105.4,568.8 107.6,568.8 Q108.9,568.8 110.6,568.3 L110.6,569.6 Q109.3,570.1 107.3,570.1 Q104.5,570.1 102.9,568.4 Q101.4,566.7 101.4,563.5 Q101.4,561.5 102.1,560.0 Q102.9,558.5 104.3,557.7 Q105.7,556.9 107.6,556.9 Q109.6,556.9 111.1,557.7 L110.5,559.0 Q109.0,558.3 107.6,558.3 Z M119.8,570.0 L119.8,563.7 Q119.8,562.6 119.3,562.0 Q118.7,561.4 117.6,561.4 Q116.1,561.4 115.4,562.2 Q114.7,563.0 114.7,564.9 L114.7,570.0 L113.2,570.0 L113.2,556.3 L114.7,556.3 L114.7,560.4 Q114.7,561.2 114.6,561.7 L114.7,561.7 Q115.1,561.0 115.9,560.6 Q116.7,560.2 117.7,560.2 Q119.5,560.2 120.4,561.0 Q121.3,561.9 121.3,563.7 L121.3,570.0 L119.8,570.0 Z M132.6,565.1 Q132.6,567.5 131.4,568.8 Q130.2,570.1 128.1,570.1 Q126.8,570.1 125.8,569.5 Q124.8,568.9 124.3,567.8 Q123.7,566.7 123.7,565.1 Q123.7,562.8 124.9,561.5 Q126.1,560.2 128.2,560.2 Q130.2,560.2 131.4,561.5 Q132.6,562.8 132.6,565.1 M125.2,565.1 Q125.2,567.0 126.0,568.0 Q126.7,568.9 128.1,568.9 Q129.6,568.9 130.3,568.0 Q131.1,567.0 131.1,565.1 Q131.1,563.3 130.3,562.3 Q129.6,561.4 128.1,561.4 Q126.7,561.4 126.0,562.3 Q125.2,563.3 125.2,565.1 Z M143.4,565.1 Q143.4,567.5 142.3,568.8 Q141.1,570.1 139.0,570.1 Q137.7,570.1 136.7,569.5 Q135.7,568.9 135.1,567.8 Q134.6,566.7 134.6,565.1 Q134.6,562.8 135.8,561.5 Q136.9,560.2 139.0,560.2 Q141.1,560.2 142.3,561.5 Q143.4,562.8 143.4,565.1 M136.1,565.1 Q136.1,567.0 136.8,568.0 Q137.6,568.9 139.0,568.9 Q140.4,568.9 141.2,568.0 Q141.9,567.0 141.9,565.1 Q141.9,563.3 141.2,562.3 Q140.4,561.4 139.0,561.4 Q137.6,561.4 136.8,562.3 Q136.1,563.3 136.1,565.1 Z M152.2,567.3 Q152.2,568.7 151.2,569.4 Q150.2,570.1 148.4,570.1 Q146.5,570.1 145.4,569.5 L145.4,568.2 Q146.1,568.5 146.9,568.7 Q147.7,568.9 148.4,568.9 Q149.6,568.9 150.2,568.6 Q150.8,568.2 150.8,567.5 Q150.8,566.9 150.3,566.5 Q149.8,566.1 148.4,565.6 Q147.1,565.1 146.5,564.7 Q145.9,564.3 145.7,563.8 Q145.4,563.4 145.4,562.7 Q145.4,561.5 146.3,560.8 Q147.3,560.2 149.0,560.2 Q150.5,560.2 152.0,560.8 L151.5,562.0 Q150.0,561.4 148.9,561.4 Q147.8,561.4 147.3,561.7 Q146.8,562.0 146.8,562.6 Q146.8,563.0 147.0,563.3 Q147.2,563.5 147.6,563.8 Q148.0,564.0 149.3,564.5 Q151.0,565.1 151.6,565.7 Q152.2,566.4 152.2,567.3 Z M158.7,570.1 Q156.5,570.1 155.3,568.8 Q154.0,567.5 154.0,565.2 Q154.0,562.9 155.2,561.5 Q156.3,560.2 158.3,560.2 Q160.1,560.2 161.1,561.3 Q162.2,562.5 162.2,564.5 L162.2,565.4 L155.6,565.4 Q155.6,567.1 156.4,568.0 Q157.2,568.9 158.7,568.9 Q160.3,568.9 161.8,568.2 L161.8,569.5 Q161.0,569.9 160.3,570.0 Q159.6,570.1 158.7,570.1 M158.3,561.4 Q157.1,561.4 156.4,562.1 Q155.7,562.9 155.6,564.2 L160.6,564.2 Q160.6,562.8 160.0,562.1 Q159.4,561.4 158.3,561.4 Z M175.3,570.0 L175.0,568.6 L174.9,568.6 Q174.2,569.5 173.5,569.8 Q172.8,570.1 171.7,570.1 Q170.3,570.1 169.5,569.4 Q168.6,568.7 168.6,567.3 Q168.6,564.4 173.3,564.2 L174.9,564.2 L174.9,563.6 Q174.9,562.5 174.5,561.9 Q174.0,561.4 172.9,561.4 Q171.7,561.4 170.2,562.1 L169.7,561.0 Q170.4,560.6 171.3,560.4 Q172.1,560.2 173.0,560.2 Q174.7,560.2 175.5,560.9 Q176.4,561.7 176.4,563.4 L176.4,570.0 L175.3,570.0 M172.0,568.9 Q173.4,568.9 174.1,568.2 Q174.9,567.4 174.9,566.1 L174.9,565.2 L173.4,565.3 Q171.7,565.4 170.9,565.8 Q170.2,566.3 170.2,567.3 Q170.2,568.1 170.6,568.5 Q171.1,568.9 172.0,568.9 Z M187.2,568.9 Q187.5,568.9 187.9,568.9 Q188.3,568.8 188.5,568.8 L188.5,569.9 Q188.2,570.0 187.8,570.1 Q187.3,570.1 186.9,570.1 Q184.2,570.1 184.2,567.2 L184.2,561.5 L182.8,561.5 L182.8,560.8 L184.2,560.2 L184.8,558.1 L185.6,558.1 L185.6,560.3 L188.4,560.3 L188.4,561.5 L185.6,561.5 L185.6,567.1 Q185.6,568.0 186.0,568.5 Q186.4,568.9 187.2,568.9 Z M197.0,570.0 L197.0,563.7 Q197.0,562.6 196.5,562.0 Q195.9,561.4 194.8,561.4 Q193.3,561.4 192.6,562.2 Q191.9,563.0 191.9,564.9 L191.9,570.0 L190.4,570.0 L190.4,556.3 L191.9,556.3 L191.9,560.4 Q191.9,561.2 191.8,561.7 L191.9,561.7 Q192.3,561.0 193.1,560.6 Q193.9,560.2 194.9,560.2 Q196.7,560.2 197.6,561.0 Q198.5,561.9 198.5,563.7 L198.5,570.0 L197.0,570.0 Z M205.5,570.1 Q203.4,570.1 202.1,568.8 Q200.9,567.5 200.9,565.2 Q200.9,562.9 202.1,561.5 Q203.2,560.2 205.1,560.2 Q207.0,560.2 208.0,561.3 Q209.1,562.5 209.1,564.5 L209.1,565.4 L202.4,565.4 Q202.5,567.1 203.3,568.0 Q204.1,568.9 205.6,568.9 Q207.1,568.9 208.6,568.2 L208.6,569.5 Q207.9,569.9 207.2,570.0 Q206.5,570.1 205.5,570.1 M205.1,561.4 Q204.0,561.4 203.3,562.1 Q202.6,562.9 202.5,564.2 L207.5,564.2 Q207.5,562.8 206.9,562.1 Q206.3,561.4 205.1,561.4 Z M223.8,570.0 L223.8,563.7 Q223.8,562.5 223.3,562.0 Q222.8,561.4 221.8,561.4 Q220.4,561.4 219.8,562.2 Q219.1,563.0 219.1,564.6 L219.1,570.0 L217.7,570.0 L217.7,563.7 Q217.7,562.5 217.2,562.0 Q216.7,561.4 215.7,561.4 Q214.3,561.4 213.6,562.2 Q213.0,563.0 213.0,564.9 L213.0,570.0 L211.5,570.0 L211.5,560.3 L212.7,560.3 L213.0,561.7 L213.0,561.7 Q213.5,560.9 214.2,560.6 Q215.0,560.2 215.9,560.2 Q218.1,560.2 218.8,561.8 L218.9,561.8 Q219.3,561.0 220.2,560.6 Q221.0,560.2 222.0,560.2 Q223.7,560.2 224.5,561.0 Q225.3,561.8 225.3,563.7 L225.3,570.0 L223.8,570.0 Z M232.4,570.1 Q230.2,570.1 229.0,568.8 Q227.8,567.5 227.8,565.2 Q227.8,562.9 228.9,561.5 Q230.0,560.2 232.0,560.2 Q233.8,560.2 234.8,561.3 Q235.9,562.5 235.9,564.5 L235.9,565.4 L229.3,565.4 Q229.3,567.1 230.1,568.0 Q230.9,568.9 232.4,568.9 Q234.0,568.9 235.5,568.2 L235.5,569.5 Q234.7,569.9 234.0,570.0 Q233.3,570.1 232.4,570.1 M232.0,561.4 Q230.8,561.4 230.1,562.1 Q229.4,562.9 229.3,564.2 L234.3,564.2 Q234.3,562.8 233.7,562.1 Q233.1,561.4 232.0,561.4 Z " fill="rgb(103,168,215)"/><path d="M49.0,584 L289.0,584 C300.5,584 308.2,592.0 308.0,602 C307.7,611.4 300.1,619 289.0,619 L48.0,619 C38.4,619 32.1,611.3 32.0,602 C31.8,592.0 38.7,584 49.0,584 Z" fill="rgb(59,132,185)" stroke="rgb(0,0,0)" stroke-width="2"/><path d="M151.2,604.4 Q151.2,606.1 149.9,607.1 Q148.7,608.1 146.4,608.1 Q144.4,608.1 142.8,607.4 L142.8,604.8 Q144.1,605.4 145.0,605.7 Q145.9,605.9 146.6,605.9 Q147.5,605.9 148.0,605.5 Q148.5,605.2 148.5,604.5 Q148.5,604.2 148.3,603.9 Q148.1,603.6 147.7,603.3 Q147.3,603.0 146.0,602.4 Q144.8,601.9 144.2,601.4 Q143.6,600.8 143.3,600.2 Q142.9,599.5 142.9,598.6 Q142.9,596.9 144.1,595.9 Q145.3,594.9 147.3,594.9 Q148.3,594.9 149.2,595.2 Q150.1,595.4 151.1,595.8 L150.2,598.0 Q149.2,597.5 148.5,597.4 Q147.9,597.2 147.2,597.2 Q146.4,597.2 146.0,597.6 Q145.6,597.9 145.6,598.5 Q145.6,598.9 145.8,599.1 Q145.9,599.4 146.3,599.6 Q146.7,599.9 148.0,600.5 Q149.8,601.4 150.5,602.3 Q151.2,603.1 151.2,604.4 Z M157.4,599.9 Q156.5,599.9 156.0,600.4 Q155.5,600.9 155.5,601.9 L159.2,601.9 Q159.2,600.9 158.7,600.4 Q158.2,599.9 157.4,599.9 M157.7,608.1 Q155.4,608.1 154.0,606.8 Q152.7,605.5 152.7,603.1 Q152.7,600.7 153.9,599.3 Q155.2,598.0 157.3,598.0 Q159.4,598.0 160.6,599.1 Q161.7,600.3 161.7,602.4 L161.7,603.7 L155.4,603.7 Q155.5,604.9 156.1,605.5 Q156.7,606.1 157.9,606.1 Q158.7,606.1 159.5,606.0 Q160.3,605.8 161.2,605.4 L161.2,607.4 Q160.5,607.8 159.7,608.0 Q158.9,608.1 157.7,608.1 Z M168.1,606.0 Q168.8,606.0 169.8,605.7 L169.8,607.7 Q168.7,608.1 167.3,608.1 Q165.7,608.1 164.9,607.3 Q164.2,606.5 164.2,604.9 L164.2,600.2 L162.9,600.2 L162.9,599.0 L164.4,598.1 L165.2,596.0 L166.9,596.0 L166.9,598.1 L169.6,598.1 L169.6,600.2 L166.9,600.2 L166.9,604.9 Q166.9,605.5 167.2,605.7 Q167.5,606.0 168.1,606.0 Z M175.9,606.0 Q176.6,606.0 177.6,605.7 L177.6,607.7 Q176.6,608.1 175.1,608.1 Q173.5,608.1 172.8,607.3 Q172.0,606.5 172.0,604.9 L172.0,600.2 L170.7,600.2 L170.7,599.0 L172.2,598.1 L173.0,596.0 L174.7,596.0 L174.7,598.1 L177.5,598.1 L177.5,600.2 L174.7,600.2 L174.7,604.9 Q174.7,605.5 175.0,605.7 Q175.3,606.0 175.9,606.0 Z M179.4,595.6 Q179.4,594.3 180.9,594.3 Q182.4,594.3 182.4,595.6 Q182.4,596.2 182.0,596.6 Q181.6,596.9 180.9,596.9 Q179.4,596.9 179.4,595.6 M182.2,608.0 L179.6,608.0 L179.6,598.1 L182.2,598.1 L182.2,608.0 Z M194.1,608.0 L191.4,608.0 L191.4,602.2 Q191.4,601.2 191.1,600.6 Q190.7,600.1 189.9,600.1 Q188.7,600.1 188.2,600.9 Q187.7,601.6 187.7,603.3 L187.7,608.0 L185.0,608.0 L185.0,598.1 L187.1,598.1 L187.5,599.4 L187.6,599.4 Q188.0,598.7 188.8,598.3 Q189.6,598.0 190.6,598.0 Q192.3,598.0 193.2,598.9 Q194.1,599.8 194.1,601.6 L194.1,608.0 Z M205.4,598.1 L205.4,599.5 L203.9,599.9 Q204.3,600.6 204.3,601.4 Q204.3,603.0 203.2,603.8 Q202.1,604.7 200.1,604.7 L199.7,604.7 L199.3,604.7 Q198.9,605.0 198.9,605.4 Q198.9,605.9 200.3,605.9 L202.0,605.9 Q203.6,605.9 204.5,606.6 Q205.3,607.3 205.3,608.7 Q205.3,610.4 203.9,611.3 Q202.4,612.3 199.7,612.3 Q197.7,612.3 196.6,611.6 Q195.5,610.9 195.5,609.6 Q195.5,608.7 196.1,608.1 Q196.6,607.5 197.7,607.2 Q197.3,607.1 197.0,606.7 Q196.7,606.3 196.7,605.8 Q196.7,605.2 197.0,604.9 Q197.3,604.5 197.9,604.1 Q197.2,603.8 196.7,603.1 Q196.3,602.3 196.3,601.3 Q196.3,599.7 197.3,598.8 Q198.4,598.0 200.3,598.0 Q200.7,598.0 201.3,598.0 Q201.8,598.1 202.0,598.1 L205.4,598.1 M197.8,609.4 Q197.8,609.9 198.4,610.2 Q198.9,610.5 199.9,610.5 Q201.3,610.5 202.1,610.1 Q202.9,609.7 202.9,609.1 Q202.9,608.5 202.5,608.3 Q202.0,608.1 201.0,608.1 L199.6,608.1 Q198.8,608.1 198.3,608.4 Q197.8,608.8 197.8,609.4 M198.8,601.4 Q198.8,602.2 199.2,602.6 Q199.5,603.1 200.3,603.1 Q201.0,603.1 201.4,602.6 Q201.8,602.2 201.8,601.4 Q201.8,599.6 200.3,599.6 Q198.8,599.6 198.8,601.4 Z M213.9,605.0 Q213.9,606.6 212.8,607.3 Q211.8,608.1 209.7,608.1 Q208.6,608.1 207.9,608.0 Q207.1,607.9 206.5,607.6 L206.5,605.4 Q207.2,605.7 208.1,605.9 Q209.1,606.2 209.8,606.2 Q211.3,606.2 211.3,605.3 Q211.3,605.0 211.1,604.8 Q210.9,604.6 210.4,604.4 Q209.9,604.1 209.1,603.8 Q208.0,603.3 207.5,602.9 Q206.9,602.5 206.7,602.0 Q206.4,601.5 206.4,600.7 Q206.4,599.4 207.5,598.7 Q208.5,598.0 210.3,598.0 Q212.1,598.0 213.8,598.7 L213.0,600.7 Q212.2,600.3 211.6,600.1 Q211.0,599.9 210.3,599.9 Q209.1,599.9 209.1,600.6 Q209.1,600.9 209.5,601.2 Q209.9,601.5 211.2,602.0 Q212.3,602.5 212.9,602.9 Q213.4,603.3 213.6,603.8 Q213.9,604.3 213.9,605.0 Z " fill="rgb(255,255,255)"/><path d="M132.7,599.3 C131.1,599.2 129.9,600.5 130.1,602.1 C130.2,603.4 131.3,604.4 132.6,604.4 C134.0,604.4 135.1,603.3 135.2,601.9 C135.3,600.5 134.1,599.3 132.7,599.3 Z M131.1,597.2 C130.9,596.7 131.0,596.3 131.1,595.9 C131.4,595.2 132.0,594.8 132.7,594.8 C133.3,594.8 133.8,595.3 134.0,596.0 C134.2,596.3 134.3,596.7 134.2,597.0 C134.5,597.1 134.8,597.3 135.0,597.5 C135.2,597.6 135.4,597.8 135.5,598.1 C135.9,597.8 136.4,597.6 136.8,597.7 C137.6,597.7 138.2,598.1 138.4,598.6 C138.5,599.0 138.5,599.4 138.3,599.7 C138.1,600.2 137.8,600.5 137.4,600.8 C137.5,601.2 137.5,601.5 137.5,601.9 C137.4,602.3 137.3,602.7 137.2,603.0 C137.7,603.3 138.1,603.7 138.3,604.1 C138.5,604.5 138.5,604.8 138.4,605.2 C138.3,605.6 137.8,606.0 137.3,606.1 C136.8,606.2 136.2,606.0 135.8,605.5 C135.6,605.7 135.4,605.9 135.2,606.0 C134.9,606.2 134.6,606.3 134.3,606.4 C134.4,606.9 134.3,607.3 134.1,607.7 C133.8,608.3 133.3,608.7 132.7,608.8 C132.2,608.8 131.6,608.5 131.3,607.9 C131.0,607.5 130.9,607.1 131.0,606.6 C130.8,606.5 130.5,606.4 130.3,606.2 C130.1,606.0 129.8,605.8 129.7,605.6 C129.4,605.9 129.0,606.1 128.6,606.1 C128.1,606.2 127.5,606.0 127.2,605.7 C126.7,605.2 126.7,604.5 127.0,603.9 C127.1,603.5 127.4,603.2 127.8,603.1 C127.8,602.7 127.7,602.3 127.8,602.0 C127.8,601.6 127.8,601.2 127.9,600.8 C127.5,600.6 127.1,600.3 126.9,599.9 C126.7,599.4 126.7,598.9 126.9,598.4 C127.2,598.0 127.7,597.7 128.2,597.7 C128.7,597.7 129.1,597.9 129.5,598.3 C129.7,598.1 129.9,597.9 130.1,597.7 C130.4,597.5 130.7,597.3 131.1,597.2 Z" fill="rgb(255,255,255)"/><path d="M106.0,520 L119.0,520 C129.9,520 137.2,528.0 137.0,538 C136.7,547.4 129.5,555 119.0,555 L106.0,555 C95.9,555 89.2,547.4 89.0,538 C88.7,528.0 95.6,520 106.0,520 Z" fill="rgb(59,132,185)"/><path d="M106.0,525 L119.0,525 C126.9,525 132.2,530.8 132.0,538 C131.7,544.6 126.5,550 119.0,550 L106.0,550 C98.4,550 93.2,544.6 93.0,538 C92.7,530.8 98.0,525 106.0,525 Z" fill="rgb(27,28,30)"/><path d="M117.7,544.0 L108.7,544.0 L108.7,542.1 L111.9,538.8 Q113.3,537.3 113.8,536.8 Q114.2,536.2 114.4,535.7 Q114.6,535.2 114.6,534.7 Q114.6,534.0 114.2,533.6 Q113.8,533.2 113.0,533.2 Q112.3,533.2 111.6,533.5 Q110.9,533.9 110.1,534.5 L108.7,532.8 Q109.6,532.0 110.2,531.6 Q110.8,531.3 111.6,531.1 Q112.3,530.9 113.2,530.9 Q114.4,530.9 115.4,531.4 Q116.3,531.8 116.8,532.6 Q117.3,533.4 117.3,534.4 Q117.3,535.3 117.0,536.1 Q116.7,536.9 116.0,537.7 Q115.4,538.5 113.7,540.0 L112.1,541.6 L112.1,541.7 L117.7,541.7 L117.7,544.0 Z " fill="rgb(207,198,180)"/><path d="M165.0,520 L177.0,520 C187.9,520 195.2,528.0 195.0,538 C194.7,547.4 187.5,555 177.0,555 L165.0,555 C154.4,555 147.2,547.4 147.0,538 C146.7,528.0 154.0,520 165.0,520 Z" fill="rgb(8,98,110)" stroke="rgb(0,0,0)" stroke-width="2"/><path d="M175.2,534.0 Q175.2,535.2 174.4,536.0 Q173.7,536.9 172.4,537.2 L172.4,537.3 Q174.0,537.4 174.8,538.2 Q175.6,538.9 175.6,540.2 Q175.6,542.1 174.2,543.1 Q172.9,544.1 170.4,544.1 Q168.3,544.1 166.7,543.4 L166.7,541.1 Q167.4,541.5 168.3,541.8 Q169.2,542.0 170.1,542.0 Q171.4,542.0 172.1,541.5 Q172.7,541.1 172.7,540.1 Q172.7,539.2 172.0,538.8 Q171.2,538.4 169.6,538.4 L168.6,538.4 L168.6,536.3 L169.6,536.3 Q171.1,536.3 171.8,535.9 Q172.5,535.5 172.5,534.6 Q172.5,533.1 170.7,533.1 Q170.0,533.1 169.4,533.3 Q168.7,533.5 167.9,534.1 L166.7,532.2 Q168.4,530.9 170.9,530.9 Q172.9,530.9 174.0,531.7 Q175.2,532.5 175.2,534.0 Z " fill="rgb(174,229,107)"/><path d="M221.0,520 L233.0,520 C243.9,520 251.2,528.0 251.0,538 C250.7,547.4 243.5,555 233.0,555 L221.0,555 C210.4,555 203.2,547.4 203.0,538 C202.7,528.0 210.0,520 221.0,520 Z" fill="rgb(229,197,134)" stroke="rgb(0,0,0)" stroke-width="2"/><path d="M232.0,541.3 L230.4,541.3 L230.4,544.0 L227.8,544.0 L227.8,541.3 L222.3,541.3 L222.3,539.4 L227.9,531.1 L230.4,531.1 L230.4,539.2 L232.0,539.2 L232.0,541.3 M227.8,539.2 L227.8,537.0 Q227.8,536.5 227.8,535.4 Q227.9,534.4 227.9,534.2 L227.8,534.2 Q227.5,534.9 227.0,535.6 L224.7,539.2 L227.8,539.2 Z " fill="rgb(0,0,0)"/><path d="M278.0,520 L290.0,520 C300.9,520 308.2,528.0 308.0,538 C307.7,547.4 300.5,555 290.0,555 L278.0,555 C267.4,555 260.2,547.4 260.0,538 C259.7,528.0 267.0,520 278.0,520 Z" fill="rgb(59,132,185)" stroke="rgb(0,0,0)" stroke-width="2"/><path d="M283.1,538.6 L279.7,538.6 L279.7,536.7 L283.1,536.7 L283.1,533.2 L285.1,533.2 L285.1,536.7 L288.5,536.7 L288.5,538.6 L285.1,538.6 L285.1,542.0 L283.1,542.0 L283.1,538.6 Z " fill="rgb(255,255,255)"/><path d="M116,655 L217,655 C220.2,655 220.2,660 217,660 L116,660 C112.7,660 112.7,655 116,655 Z" fill="rgb(207,198,180)"/><path d="M18,321 L321,321 L321,324 L18,324 L18,321 Z" fill="rgb(36,74,108)"/></g></svg>