<svg viewBox="0 0 360 720" xmlns="http://www.w3.org/2000/svg">
  <path d="M57,214 C46.4,214 39,220.3 39,230 L39,274 C39,283.0 46.5,289 57,289 L302,289 C312.4,289 320,283.0 320,274 L320,231 C320,220.8 313.1,214 303,214 L57,214 Z M57,222 L303,222 C308.3,222 312,225.6 312,231 L312,274 C312,278.3 307.7,281 302,281 L57,281 C51.2,281 47,278.3 47,274 L47,230 C47,225.1 51.1,222 57,222 Z" fill="#67A8D7" opacity="0.2"/>
  <path d="M57,217 C48.2,217 42,222.1 42,230 L42,274 C42,281.2 48.2,286 57,286 L302,286 C310.7,286 317,281.2 317,274 L317,231 C317,222.6 311.3,217 303,217 L57,217 Z M57,222 L303,222 C308.3,222 312,225.6 312,231 L312,274 C312,278.3 307.7,281 302,281 L57,281 C51.2,281 47,278.3 47,274 L47,230 C47,225.1 51.1,222 57,222 Z" fill="#67A8D7" opacity="0.2"/>
  <path d="M57,220 C50.0,220 45,223.9 45,230 L45,274 C45,279.5 50.0,283 57,283 L302,283 C308.9,283 314,279.5 314,274 L314,231 C314,224.4 309.5,220 303,220 L57,220 Z M57,222 L303,222 C308.3,222 312,225.6 312,231 L312,274 C312,278.3 307.7,281 302,281 L57,281 C51.2,281 47,278.3 47,274 L47,230 C47,225.1 51.1,222 57,222 Z" fill="#67A8D7"/>
  <path d="M15,434 L15,78 C15,44.2 36.7,21 69,21 L292,21 C324.3,21 346,45.2 346,80 L346,199 L355,183 L355,80 C355,39.3 329.7,11 292,11 L69,11 C30.7,11 5,38.2 5,78 L5,424 L15,434 Z" fill="rgb(103,168,215)" opacity="0.2"/>
  <path d="M346,334 L348,341 C348.5,344.6 349.2,348.3 350,352 C350.6,355.0 351.2,358.0 352,361 C351.9,369.7 352.1,378.4 353,387 C353.4,391.7 354.0,396.3 355,401 L346,457 L346,334 Z" fill="rgb(103,168,215)" opacity="0.2"/>
  <path d="M15,489 L15,526 C13.6,524.0 11.9,522.3 10,521 C7.9,519.5 5.5,518.5 3,518 L3,500 L13,493 L15,489 Z" fill="rgb(103,168,215)" opacity="0.2"/>
  <path d="M2,592 C4.5,592.0 6.9,591.2 9,590 C11.5,588.3 13.6,585.9 15,583 L15,647 C15,678.4 35.1,700.1 65,700 L296,699 C306.8,698.9 317.1,695.9 327,690 C314.1,705.2 299.7,712.9 283,713 L65,714 C27.3,714.1 2,687.2 2,648 L2,592 Z" fill="rgb(103,168,215)" opacity="0.2"/>
  <path d="M15,434 L15,78 C15,44.2 36.7,21 69,21 L292,21 C324.3,21 346,45.2 346,80 L346,199 L352,187 L352,80 C352,41.6 327.9,15 292,15 L69,15 C33.1,15 9,40.6 9,78 L9,428 L15,434 Z" fill="rgb(103,168,215)" opacity="0.2"/>
  <path d="M346,334 L348,341 C348.5,344.6 349.2,348.3 350,352 C350.6,355.0 351.2,358.0 352,361 L352,420 L346,457 L346,334 Z" fill="rgb(103,168,215)" opacity="0.2"/>
  <path d="M15,489 L15,526 L8,519 L8,497 L13,493 L15,489 Z" fill="rgb(103,168,215)" opacity="0.2"/>
  <path d="M8,591 L15,583 L15,647 C15,678.4 35.1,700.1 65,700 L296,699 C306.8,698.9 317.1,695.9 327,690 C315.2,701.9 302.5,707.9 288,708 L65,709 C30.8,709.1 8,683.6 8,647 L8,591 Z" fill="rgb(103,168,215)" opacity="0.2"/>
  <path d="M15,434 L15,78 C15,44.2 36.7,21 69,21 L292,21 C324.3,21 346,45.2 346,80 L346,199 L348,194 L348,80 C348,44.0 325.5,19 292,19 L69,19 C35.5,19 13,43.0 13,78 L13,431 L15,434 Z" fill="white"/>
  <path d="M346,323 L348,327 L348,441 L346,457 L346,323 Z" fill="white"/>
  <path d="M15,489 L15,526 L13,524 L13,492 L15,489 Z" fill="white"/>
  <path d="M13,587 L15,583 L15,647 C15,678.4 35.1,700.1 65,700 L296,699 C306.8,698.9 317.1,695.9 327,690 C317.4,697.9 307.2,701.9 296,702 L65,703 C33.8,703.1 13,680.1 13,647 L13,587 Z" fill="white"/>
</svg>