<svg viewBox="0 0 1024 192" xmlns="http://www.w3.org/2000/svg"><defs/><g><g><path d="M73.4,25.0 C107.7,28.7 131.8,58.7 127.4,91.0 C122.5,126.4 86.9,148.9 50.4,138.0 C22.6,129.8 3.9,103.1 7.4,75.0 C11.3,43.4 40.8,21.4 73.4,25.0 Z" fill="rgb(139,188,199)" opacity="0.1"/><path d="M69.7,38.0 C64.7,37.5 59.4,41.4 53.8,45.2 C47.4,49.7 41.0,53.8 39.7,59.1 C37.3,69.0 48.6,79.7 64.9,82.1 C79.9,84.4 92.9,78.6 93.7,69.7 C94.1,64.7 89.6,59.4 85.5,53.7 C80.3,46.4 75.7,39.0 69.7,38.0 Z" fill="rgb(139,188,199)" opacity="0.5"/><path d="M69.5,40.7 C65.4,40.3 60.9,44.5 55.9,48.6 C50.6,53.0 45.2,56.9 44.5,61.4 C43.5,68.7 52.9,75.7 65.7,77.7 C76.7,79.4 86.5,76.7 87.9,70.6 C88.8,66.6 85.1,61.5 81.9,55.9 C77.7,48.7 74.4,41.5 69.5,40.7 Z" fill="rgb(139,188,199)" opacity="0.5"/><path d="M50.5,60.9 C47.9,63.6 51.9,66.6 61.9,70.4 C61.7,72.9 62.9,74.9 65.1,75.2 C67.2,75.6 69.0,74.2 69.6,71.9 C79.0,71.7 83.2,70.5 81.8,67.5 L72.3,45.9 C71.7,44.6 70.7,43.6 69.5,43.4 C68.4,43.2 67.2,43.6 66.3,44.5 L50.5,60.9 Z" fill="rgb(255,255,255)"/></g><g><path d="M145.4,35.1 C177.0,21.1 212.9,35.1 225.2,65.3 C238.7,98.4 219.1,135.6 182.0,144.5 C153.9,151.3 124.3,137.5 113.3,111.4 C100.9,82.1 115.4,48.3 145.4,35.1 Z" fill="rgb(233,108,76)" opacity="0.1"/><path d="M148.8,48.2 C144.2,50.3 141.5,56.3 138.6,62.4 C135.3,69.5 131.8,76.2 133.3,81.5 C136.2,91.2 151.3,94.9 166.6,88.8 C180.8,83.3 189.1,71.7 185.3,63.6 C183.2,59.2 176.7,56.8 170.3,53.9 C162.1,50.2 154.4,46.1 148.8,48.2 Z" fill="rgb(233,108,76)" opacity="0.5"/><path d="M149.9,50.6 C146.2,52.3 144.4,58.3 142.1,64.3 C139.7,70.7 136.9,76.8 138.6,81.0 C141.4,87.9 153.1,89.3 165.2,84.6 C175.5,80.5 182.6,73.3 180.8,67.4 C179.6,63.5 173.9,60.8 168.3,57.6 C161.0,53.5 154.5,48.9 149.9,50.6 Z" fill="rgb(233,108,76)" opacity="0.5"/><path d="M143.5,77.6 C142.6,81.3 147.6,81.8 158.2,80.2 C159.2,82.5 161.3,83.5 163.4,82.7 C165.4,82.0 166.3,79.9 165.6,77.6 C173.7,72.8 176.7,69.6 174.0,67.7 L154.9,53.7 C153.8,52.9 152.4,52.6 151.3,53.0 C150.2,53.4 149.4,54.3 149.1,55.6 L143.5,77.6 Z" fill="rgb(255,255,255)"/></g><g><path d="M369.4,55.8 C400.9,41.8 436.9,55.8 449.2,86.0 C462.6,119.1 443.1,156.3 406.0,165.2 C377.9,172.0 348.2,158.1 337.2,132.1 C324.8,102.8 339.4,69.0 369.4,55.8 Z" fill="rgb(233,108,76)" opacity="0.1"/><path d="M372.7,68.9 C368.2,71.0 365.5,77.0 362.6,83.1 C359.2,90.2 355.7,96.9 357.3,102.2 C360.1,111.9 375.2,115.6 390.6,109.5 C404.8,104.0 413.1,92.4 409.3,84.3 C407.2,79.9 400.7,77.5 394.3,74.6 C386.0,70.9 378.4,66.7 372.7,68.9 Z" fill="rgb(233,108,76)" opacity="0.5"/><path d="M373.9,71.3 C370.2,73.0 368.3,78.9 366.1,85.0 C363.7,91.4 360.9,97.5 362.6,101.7 C365.3,108.6 377.0,110.0 389.1,105.3 C399.5,101.2 406.6,94.0 404.7,88.1 C403.5,84.2 397.8,81.5 392.2,78.3 C385.0,74.2 378.5,69.6 373.9,71.3 Z" fill="rgb(233,108,76)" opacity="0.5"/><path d="M367.5,98.3 C366.6,102.0 371.6,102.5 382.2,100.9 C383.2,103.2 385.3,104.2 387.3,103.4 C389.4,102.7 390.2,100.6 389.5,98.3 C397.6,93.5 400.7,90.3 398.0,88.4 L378.9,74.4 C377.7,73.6 376.4,73.3 375.2,73.7 C374.1,74.1 373.3,75.0 373.0,76.3 L367.5,98.3 Z" fill="rgb(255,255,255)"/></g><g><path d="M503.1,51.7 C537.4,55.4 561.6,85.4 557.1,117.7 C552.2,153.1 516.7,175.5 480.1,164.7 C452.4,156.5 433.6,129.7 437.1,101.7 C441.0,70.1 470.5,48.1 503.1,51.7 Z" fill="rgb(139,188,199)" opacity="0.1"/><path d="M499.5,64.7 C494.5,64.2 489.1,68.1 483.6,71.9 C477.1,76.4 470.7,80.4 469.4,85.8 C467.1,95.6 478.3,106.4 494.6,108.8 C509.7,111.1 522.7,105.3 523.4,96.3 C523.8,91.4 519.4,86.1 515.3,80.4 C510.0,73.1 505.4,65.7 499.5,64.7 Z" fill="rgb(139,188,199)" opacity="0.5"/><path d="M499.3,67.3 C495.2,67.0 490.6,71.2 485.7,75.3 C480.4,79.7 474.9,83.5 474.3,88.1 C473.2,95.4 482.7,102.4 495.5,104.4 C506.5,106.1 516.2,103.4 517.6,97.3 C518.5,93.3 514.9,88.2 511.7,82.6 C507.5,75.4 504.1,68.1 499.3,67.3 Z" fill="rgb(139,188,199)" opacity="0.5"/><path d="M480.2,87.5 C477.6,90.3 481.6,93.2 491.7,97.1 C491.4,99.6 492.7,101.5 494.8,101.9 C497.0,102.3 498.8,100.9 499.3,98.6 C508.7,98.4 512.9,97.2 511.6,94.2 L502.0,72.6 C501.5,71.2 500.4,70.3 499.2,70.1 C498.1,69.9 496.9,70.3 496.0,71.2 L480.2,87.5 Z" fill="rgb(255,255,255)"/></g><g><path d="M604.9,57.6 C636.5,43.6 672.4,57.6 684.7,87.8 C698.1,120.9 678.6,158.1 641.5,167.0 C613.4,173.8 583.7,159.9 572.7,133.9 C560.3,104.6 574.9,70.8 604.9,57.6 Z" fill="rgb(233,108,76)" opacity="0.1"/><path d="M608.2,70.7 C603.7,72.8 601.0,78.8 598.1,84.9 C594.7,92.0 591.2,98.7 592.8,104.0 C595.6,113.7 610.7,117.4 626.1,111.3 C640.3,105.8 648.6,94.2 644.8,86.1 C642.7,81.7 636.2,79.3 629.8,76.4 C621.5,72.7 613.9,68.5 608.2,70.7 Z" fill="rgb(233,108,76)" opacity="0.5"/><path d="M609.4,73.1 C605.7,74.8 603.8,80.7 601.6,86.8 C599.2,93.2 596.4,99.3 598.1,103.5 C600.8,110.4 612.5,111.8 624.6,107.1 C635.0,103.0 642.1,95.8 640.2,89.9 C639.0,86.0 633.3,83.3 627.8,80.1 C620.5,76.0 614.0,71.4 609.4,73.1 Z" fill="rgb(233,108,76)" opacity="0.5"/><path d="M603.0,100.1 C602.1,103.8 607.1,104.3 617.7,102.7 C618.7,105.0 620.8,106.0 622.8,105.2 C624.9,104.5 625.7,102.4 625.0,100.1 C633.1,95.3 636.2,92.1 633.5,90.2 L614.4,76.2 C613.2,75.4 611.9,75.1 610.7,75.5 C609.7,75.9 608.8,76.8 608.5,78.1 L603.0,100.1 Z" fill="rgb(255,255,255)"/></g><g><path d="M727.8,46.0 C762.1,49.6 786.3,79.7 781.8,112.0 C776.9,147.4 741.4,169.8 704.8,159.0 C677.1,150.8 658.3,124.0 661.8,96.0 C665.7,64.4 695.2,42.4 727.8,46.0 Z" fill="rgb(139,188,199)" opacity="0.1"/><path d="M724.1,59.0 C719.2,58.5 713.8,62.3 708.2,66.2 C701.8,70.6 695.4,74.7 694.1,80.1 C691.7,89.9 703.0,100.6 719.3,103.1 C734.4,105.4 747.4,99.5 748.1,90.6 C748.5,85.7 744.1,80.4 739.9,74.7 C734.7,67.3 730.1,59.9 724.1,59.0 Z" fill="rgb(139,188,199)" opacity="0.5"/><path d="M724.0,61.6 C719.8,61.3 715.3,65.5 710.4,69.6 C705.1,73.9 699.6,77.8 698.9,82.3 C697.9,89.7 707.3,96.7 720.2,98.7 C731.2,100.3 740.9,97.7 742.3,91.6 C743.2,87.6 739.6,82.4 736.3,76.9 C732.1,69.7 728.8,62.4 724.0,61.6 Z" fill="rgb(139,188,199)" opacity="0.5"/><path d="M704.9,81.8 C702.3,84.6 706.3,87.5 716.4,91.4 C716.1,93.9 717.3,95.8 719.5,96.2 C721.7,96.5 723.5,95.2 724.0,92.8 C733.4,92.7 737.6,91.5 736.3,88.5 L726.7,66.8 C726.1,65.5 725.1,64.6 723.9,64.4 C722.8,64.2 721.6,64.6 720.7,65.5 L704.9,81.8 Z" fill="rgb(255,255,255)"/></g><g><path d="M821.6,11.7 C853.2,-2.2 889.1,11.6 901.4,41.8 C914.8,74.9 895.3,112.1 858.2,121.1 C830.1,127.8 800.5,114.0 789.5,88.0 C777.0,58.6 791.6,24.8 821.6,11.7 Z" fill="rgb(233,108,76)" opacity="0.1"/><path d="M824.9,24.8 C820.4,26.8 817.7,32.8 814.8,39.0 C811.4,46.0 807.9,52.8 809.5,58.1 C812.3,67.8 827.4,71.4 842.8,65.4 C857.0,59.8 865.3,48.3 861.5,40.2 C859.4,35.7 852.9,33.3 846.5,30.4 C838.3,26.7 830.6,22.6 824.9,24.8 Z" fill="rgb(233,108,76)" opacity="0.5"/><path d="M826.1,27.1 C822.4,28.9 820.5,34.8 818.3,40.8 C815.9,47.3 813.1,53.4 814.8,57.6 C817.5,64.5 829.2,65.8 841.3,61.1 C851.7,57.1 858.8,49.9 857.0,43.9 C855.7,40.0 850.0,37.4 844.5,34.2 C837.2,30.0 830.7,25.4 826.1,27.1 Z" fill="rgb(233,108,76)" opacity="0.5"/><path d="M819.7,54.2 C818.8,57.8 823.8,58.4 834.4,56.7 C835.4,59.0 837.5,60.1 839.5,59.3 C841.6,58.5 842.5,56.5 841.7,54.2 C849.8,49.3 852.9,46.2 850.2,44.2 L831.1,30.3 C829.9,29.4 828.6,29.1 827.4,29.5 C826.4,29.9 825.5,30.9 825.2,32.1 L819.7,54.2 Z" fill="rgb(255,255,255)"/></g><g><path d="M960.2,19.5 C994.5,23.1 1018.6,53.2 1014.2,85.5 C1009.3,120.9 973.7,143.3 937.2,132.5 C909.4,124.3 890.7,97.5 894.2,69.5 C898.1,37.9 927.6,15.9 960.2,19.5 Z" fill="rgb(139,188,199)" opacity="0.1"/><path d="M956.5,32.5 C951.6,32.0 946.2,35.8 940.6,39.7 C934.2,44.1 927.8,48.2 926.5,53.6 C924.1,63.4 935.4,74.1 951.7,76.6 C966.8,78.9 979.7,73.0 980.5,64.1 C980.9,59.2 976.5,53.9 972.3,48.2 C967.1,40.8 962.5,33.4 956.5,32.5 Z" fill="rgb(139,188,199)" opacity="0.5"/><path d="M956.3,35.1 C952.2,34.8 947.7,39.0 942.8,43.1 C937.4,47.4 932.0,51.3 931.3,55.8 C930.3,63.2 939.7,70.2 952.6,72.1 C963.5,73.8 973.3,71.2 974.7,65.1 C975.6,61.1 972.0,55.9 968.7,50.4 C964.5,43.2 961.2,35.9 956.3,35.1 Z" fill="rgb(139,188,199)" opacity="0.5"/><path d="M937.3,55.3 C934.7,58.0 938.7,61.0 948.7,64.9 C948.5,67.4 949.7,69.3 951.9,69.7 C954.0,70.0 955.8,68.7 956.4,66.3 C965.8,66.2 970.0,65.0 968.7,62.0 L959.1,40.3 C958.5,39.0 957.5,38.1 956.3,37.9 C955.2,37.7 954.0,38.1 953.1,39.0 L937.3,55.3 Z" fill="rgb(255,255,255)"/></g><g><path d="M279.8,60.2 C314.1,63.9 338.3,93.9 333.8,126.2 C328.9,161.6 293.4,184.1 256.8,173.2 C229.1,165.0 210.3,138.3 213.8,110.2 C217.7,78.6 247.2,56.6 279.8,60.2 Z" fill="rgb(139,188,199)" opacity="0.1"/><path d="M276.1,73.2 C271.2,72.7 265.8,76.6 260.2,80.4 C253.8,84.9 247.4,89.0 246.1,94.3 C243.7,104.2 255.0,114.9 271.3,117.3 C286.4,119.6 299.4,113.8 300.1,104.9 C300.5,100.0 296.1,94.6 291.9,88.9 C286.7,81.6 282.1,74.2 276.1,73.2 Z" fill="rgb(139,188,199)" opacity="0.5"/><path d="M276.0,75.9 C271.8,75.5 267.3,79.7 262.4,83.8 C257.1,88.2 251.6,92.1 250.9,96.6 C249.9,103.9 259.3,110.9 272.2,112.9 C283.2,114.6 292.9,111.9 294.3,105.8 C295.2,101.8 291.6,96.7 288.3,91.1 C284.1,83.9 280.8,76.7 276.0,75.9 Z" fill="rgb(139,188,199)" opacity="0.5"/><path d="M256.9,96.1 C254.3,98.8 258.3,101.8 268.4,105.6 C268.1,108.1 269.3,110.1 271.5,110.4 C273.7,110.8 275.5,109.4 276.0,107.1 C285.4,107.0 289.6,105.7 288.3,102.7 L278.7,81.1 C278.1,79.8 277.1,78.8 275.9,78.6 C274.8,78.4 273.6,78.8 272.7,79.7 L256.9,96.1 Z" fill="rgb(255,255,255)"/></g></g></svg>