<svg xmlns="http://www.w3.org/2000/svg" width="34" viewBox="0 0 44 28" fill="none">
    <defs>
        <linearGradient id="pie-gradient" x1="0" x2="1" y1="0" y2="1">
            <stop offset="14%" stop-color="#ad4abb" />
            <stop offset="58%" stop-color="#696af6" />
            <stop offset="100%" stop-color="#38b4a8" />
        </linearGradient>
    </defs>
    <path fill="url(#pie-gradient)" d="M35.8517 22.1316C39.2821 22.1316 42.6094 20.4054 42.6094 18.4731C42.6094 17.7002 42.0935 17.3137 41.4487 17.3137C40.3912 17.3137 39.2821 18.37 37.554 18.37C35.2327 18.37 33.1693 16.5923 33.1693 13.9901C33.1693 12.032 34.3299 10.4346 35.9549 10.4346C37.1671 10.4346 38.2504 11.3363 38.2504 12.1608C38.2504 13.011 37.1155 13.0626 36.6771 13.0626C36.058 13.0626 36.0065 12.9595 35.6712 12.9595C34.8458 12.9595 34.3815 13.7067 34.3815 14.4538C34.3815 15.3556 35.0779 16.0512 35.9807 16.0512H41.7066C42.8415 16.0512 43.5379 15.1237 43.5379 13.5778C43.5379 10.1254 40.1333 6.87909 35.7743 6.87909C31.2606 6.87909 27.7012 10.2285 27.7012 14.5569C27.7012 18.7565 30.9511 22.1316 35.8517 22.1316ZM3.99785 27.1299C1.7539 27.1299 0 26.1251 0 24.6823C0 23.4714 1.26384 23.3168 1.26384 21.436V12.8564C1.26384 10.9756 0 10.7695 0 9.55859C0 8.09002 1.83127 7.1625 3.63675 7.1625C5.33907 7.1625 6.47394 7.98696 6.70607 9.09483C7.91833 7.70355 9.62064 6.87909 11.5293 6.87909C15.3466 6.87909 18.3385 10.2285 18.3385 14.4796C18.3385 18.7823 15.295 22.1316 11.684 22.1316C9.25954 22.1316 7.76357 20.6115 7.76357 18.9626C7.76357 17.9578 8.30522 17.2622 9.15637 17.2622C9.49168 17.2622 9.7496 17.3652 10.1623 17.3652C11.6325 17.3652 12.7157 16.077 12.7157 14.5827C12.7157 12.9595 11.4003 11.7743 9.72381 11.7743C8.04729 11.7743 6.73187 12.9853 6.73187 14.5054V21.436C6.73187 23.3168 7.9957 23.4714 7.9957 24.6823C7.9957 26.1251 6.24181 27.1299 3.99785 27.1299ZM22.7749 6.28651C24.5288 6.28651 25.9216 4.89523 25.9216 3.14324C25.9216 1.39126 24.5288 -1.90735e-05 22.7749 -1.90735e-05C21.021 -1.90735e-05 19.6282 1.39126 19.6282 3.14324C19.6282 4.89523 21.021 6.28651 22.7749 6.28651ZM23.0844 21.9771C25.3283 21.9771 27.0822 20.9722 27.0822 19.5294C27.0822 18.3185 25.8184 18.1639 25.8184 16.2831V9.45553C25.8184 8.19308 24.6061 7.1625 22.7233 7.1625C20.9178 7.1625 19.0865 8.09002 19.0865 9.55859C19.0865 10.7695 20.3504 10.9756 20.3504 12.8564V16.2831C20.3504 18.1639 19.0865 18.3185 19.0865 19.5294C19.0865 20.9722 20.8404 21.9771 23.0844 21.9771Z" />
</svg>
