<svg viewBox="0 0 424 512" xmlns="http://www.w3.org/2000/svg"><defs><linearGradient x1="176.9" y1="152.0" x2="175.7" y2="246.2" id="gradient908" gradientUnits="userSpaceOnUse"><stop offset="0%" stop-color="rgb(20,30,36)"/><stop offset="100%" stop-color="rgb(233,108,76)"/></linearGradient><linearGradient x1="325.2" y1="157.8" x2="326.3" y2="246.6" id="gradient909" gradientUnits="userSpaceOnUse"><stop offset="0%" stop-color="rgb(20,30,36)"/><stop offset="100%" stop-color="rgb(233,108,76)"/></linearGradient></defs><g><path d="M223.2,282.8 C250.2,287.9 276.1,298.2 297.4,314.9 C316.6,329.9 331.8,349.7 341.0,373.1 C365.9,384.7 377.5,408.0 373.5,432.3 C368.1,465.0 337.0,488.5 295.7,488.5 L79.9,488.5 C51.5,488.5 28.7,468.0 20.3,439.1 C15.4,421.8 16.0,403.2 21.8,385.0 C32.4,351.5 58.8,321.9 92.1,303.2 C131.6,281.1 177.6,274.3 223.2,282.8 Z" fill="rgb(233,108,76)"/><path d="M236.3,284.5 C279.0,288.5 318.8,303.9 339.8,334.4 C355.4,357.0 359.2,386.4 354.4,415.2 C347.7,455.7 326.4,487.6 294.4,488.1 L100.5,491.1 C60.9,491.7 40.7,451.3 61.5,424.1 C69.3,413.8 82.2,409.7 81.5,407.1 C81.0,405.6 76.2,404.9 70.8,405.5 C64.8,406.2 59.1,408.5 54.2,412.1 C50.4,414.9 47.1,418.5 45.5,418.1 C41.6,417.1 45.7,398.8 55.9,376.0 C62.5,361.2 70.4,347.3 82.0,335.0 C115.7,299.4 175.7,278.9 236.3,284.5 Z" fill="rgb(20,30,36)"/><path d="M177.9,421.8 C200.1,424.1 217.6,440.2 219.2,461.0 C220.3,476.2 212.3,490.6 199.0,495.4 C190.7,498.5 180.7,497.0 170.5,495.4 C159.4,493.8 148.5,492.2 140.8,486.4 C130.1,478.3 126.2,463.7 130.2,450.4 C136.1,431.2 156.2,419.6 177.9,421.8 Z" fill="rgb(139,188,199)"/><path d="M333.7,421.9 C354.7,424.1 371.2,439.3 372.7,458.9 C373.8,473.3 366.2,486.9 353.7,491.5 C345.8,494.4 336.4,492.9 326.7,491.5 C316.2,489.9 306.0,488.4 298.7,482.9 C288.6,475.3 284.9,461.5 288.7,448.9 C294.3,430.7 313.2,419.8 333.7,421.9 Z" fill="rgb(255,255,255)"/><path d="M228.9,449.6 C229.6,440.0 229.5,430.9 224.8,426.9 C219.4,422.5 209.0,425.3 198.1,429.1 C186.8,433.1 176.1,437.8 170.5,446.2 C166.2,452.6 165.2,460.8 167.3,468.5 C168.5,473.2 170.8,477.6 174.8,480.4 C181.9,485.5 193.8,485.3 205.8,485.1 C210.0,485.0 214.1,485.1 217.4,483.0 C224.8,478.4 228.1,464.6 228.9,449.6 Z" fill="rgb(225,160,121)"/><path d="M129.5,123.5 C112.8,137.9 101.7,157.0 98.5,179.5 C85.4,182.4 76.1,190.5 73.5,202.5 C70.6,215.6 76.6,227.7 88.5,236.5 C82.7,254.8 84.5,273.3 92.5,289.5 C103.4,311.8 124.9,328.0 151.5,337.5 C169.9,345.8 189.5,350.1 209.5,351.5 C239.4,353.7 270.3,349.2 300.5,340.5 C336.0,328.8 360.7,305.6 363.5,274.5 C365.7,250.2 353.6,228.7 330.5,215.5 C347.2,195.3 350.0,170.4 339.5,148.5 C323.6,115.4 281.1,96.5 233.5,93.5 C194.6,91.2 156.2,100.6 129.5,123.5 Z" fill="rgb(225,160,121)"/><path d="M82.5,205.7 L88.5,206.7 C87.7,212.5 89.0,217.3 91.5,217.7 C94.0,218.1 96.7,214.0 96.5,208.7 C96.3,204.3 94.0,200.5 90.5,199.7 C86.8,198.9 83.2,201.3 82.5,205.7 Z" fill="rgb(20,30,36)"/><path d="M109.5,103.5 C105.2,79.6 113.1,57.2 128.5,40.5 C151.5,15.7 190.5,5.8 230.5,8.5 C254.9,10.3 279.0,16.7 303.5,22.5 C339.9,31.2 372.2,37.1 371.5,43.5 C370.9,49.1 346.0,54.2 314.5,55.5 C320.7,60.3 325.1,66.5 326.5,73.5 C327.7,79.6 326.7,85.9 323.5,91.5 C289.8,89.1 256.1,88.8 222.5,90.5 C184.6,92.5 146.9,96.9 109.5,103.5 Z" fill="rgb(233,108,76)"/><path d="M145.5,94.1 C142.3,76.9 147.8,60.8 159.2,48.8 C177.5,29.4 209.9,22.4 243.1,25.4 C260.7,27.0 278.0,31.4 295.6,35.5 C321.5,41.5 344.7,46.0 344.5,50.6 C344.2,55.1 322.6,58.8 295.5,59.1 C298.4,63.0 300.2,67.5 300.6,72.1 C301.1,76.5 300.4,80.9 298.5,85.1 C278.1,83.6 257.7,83.5 237.3,84.4 C206.7,85.7 176.0,89.2 145.5,94.1 Z" fill="rgb(20,30,36)"/><path d="M94.4,189.5 C99.4,189.8 105.0,181.5 113.4,174.5 C132.1,158.9 163.3,151.0 195.4,147.5 C235.3,143.2 275.7,146.0 316.4,149.5 C324.2,150.2 332.1,150.8 337.5,154.5 C341.1,157.1 343.9,160.9 344.5,165.5 C351.8,162.2 357.4,156.4 360.4,149.5 C363.2,143.2 363.6,135.9 363.4,128.5 C363.0,110.7 359.3,93.6 348.4,84.5 C335.9,74.0 315.0,75.0 293.4,76.5 C274.4,77.9 255.5,79.7 236.4,80.5 C213.5,81.4 190.5,80.7 167.4,80.5 C143.6,80.3 120.2,80.8 102.4,90.5 C90.2,97.2 81.2,107.9 77.4,120.5 C73.4,134.1 76.2,149.4 80.4,164.5 C84.1,177.7 88.4,189.2 94.4,189.5 Z" fill="rgb(139,188,199)"/><path d="M101.5,138.5 C99.2,130.4 97.8,122.2 99.5,114.5 C101.6,104.9 108.2,96.6 117.5,91.5 C131.0,84.2 149.0,84.2 167.5,84.5 C186.8,84.9 206.2,85.6 225.5,84.5 C256.3,82.9 287.3,77.3 314.5,78.5 C328.7,79.2 341.6,81.5 349.5,89.5 C356.8,97.0 359.0,109.1 359.5,121.5 C359.8,130.5 359.3,139.3 354.5,143.5 C345.7,151.3 324.2,143.3 300.5,138.5 C275.7,133.6 250.0,132.7 224.5,133.5 C192.2,134.7 159.9,138.6 137.5,150.5 C127.9,155.6 120.4,161.9 114.5,160.5 C108.1,159.0 104.3,149.2 101.5,138.5 Z" fill="rgb(255,255,255)"/><path d="M94.5,225.5 C98.6,226.6 100.4,240.9 104.5,255.5 C109.7,274.0 117.8,290.9 131.5,300.5 C146.4,311.1 165.5,312.0 177.5,302.5 C184.4,297.1 188.2,288.4 194.5,281.5 C199.4,276.3 205.6,272.2 212.5,271.5 C224.2,270.4 237.3,279.4 250.5,279.5 C266.1,279.8 281.3,268.1 291.5,271.5 C302.6,275.3 306.2,296.0 317.5,299.5 C325.9,302.2 337.2,295.6 346.5,285.5 C355.8,275.4 361.6,263.1 364.5,263.5 C368.1,264.1 367.0,280.8 362.5,301.5 C355.4,334.1 341.6,363.9 317.5,377.5 C299.1,388.0 275.5,388.1 251.5,388.5 C220.7,389.2 190.0,390.1 167.5,377.5 C152.2,369.0 141.0,354.3 126.5,344.5 C109.8,333.3 89.0,328.8 80.5,315.5 C72.9,303.8 75.0,286.2 78.5,268.5 C83.5,243.6 89.7,224.5 94.5,225.5 Z" fill="rgb(139,188,199)"/><path d="M201.5,287.5 C205.9,283.1 210.9,279.2 216.5,278.5 C226.6,277.4 238.5,287.1 250.5,287.5 C266.1,288.1 280.9,273.7 289.5,277.5 C295.4,280.2 297.7,291.5 304.5,298.5 C311.5,305.8 322.6,308.1 333.5,306.5 C348.4,304.4 360.1,295.7 361.5,297.5 C362.6,299.0 356.4,307.0 350.5,316.5 C336.8,338.8 329.0,364.2 312.5,371.5 C297.1,378.4 274.8,369.0 252.5,369.5 C231.8,370.1 211.4,379.3 192.5,376.5 C167.3,372.9 145.7,348.2 120.5,327.5 C109.2,318.4 97.4,310.1 91.5,298.5 C86.4,288.6 85.8,276.6 86.5,264.5 C87.7,243.8 91.6,228.7 94.5,229.5 C96.3,230.0 97.1,237.8 98.7,246.0 C100.4,255.2 103.1,264.2 106.3,272.9 C109.1,280.2 112.3,287.3 116.7,293.5 C126.6,308.0 141.4,317.7 156.5,317.5 C166.7,317.5 176.5,312.7 184.5,305.5 C190.6,300.1 195.4,293.2 201.5,287.5 Z" fill="rgb(255,255,255)"/><path d="M352.6,31.4 C371.0,27.2 391.2,39.8 399.6,61.4 C406.7,79.8 402.9,100.1 389.6,110.4 C371.1,124.8 343.7,117.2 330.6,95.4 C314.8,69.1 326.3,37.5 352.6,31.4 Z" fill="rgb(139,188,199)"/><path d="M356.6,38.4 C370.7,33.0 386.6,41.4 393.6,56.4 C403.0,76.6 393.6,98.4 375.6,102.4 C357.5,106.5 339.6,90.8 339.6,67.4 C339.5,54.7 346.0,42.7 356.6,38.4 Z" fill="rgb(255,255,255)"/><path d="M206.5,306.5 C214.6,311.6 223.7,314.2 232.5,313.5 C239.3,313.0 245.9,310.4 252.5,310.5 C258.1,310.7 263.6,312.7 269.5,313.5 C279.0,314.9 289.5,313.1 299.5,309.5 C292.2,317.3 283.1,322.5 273.5,323.5 C266.3,324.3 258.9,322.7 251.5,322.5 C242.9,322.4 234.3,324.3 226.5,322.5 C218.1,320.7 210.6,315.0 206.5,306.5 Z" fill="rgb(139,188,199)"/><path d="M146.1,482.2 C141.1,483.6 135.2,476.5 132.4,466.3 C129.4,455.8 131.1,444.7 137.6,436.6 C144.9,427.6 157.3,423.6 170.5,423.9 C177.9,424.1 184.0,425.6 184.2,427.1 C184.5,429.1 173.4,430.6 165.3,437.9 C160.5,442.2 157.2,448.3 155.7,455.0 C154.6,459.8 154.3,464.7 153.4,469.5 C152.1,475.7 149.7,481.2 146.1,482.2 Z" fill="rgb(255,255,255)"/><g><path d="M225.3,177.0 C232.4,174.2 239.8,172.8 247.2,172.7 C255.3,172.6 263.4,174.1 271.1,177.0 C288.1,155.8 313.2,148.0 337.5,152.3 C371.7,158.3 396.6,185.1 398.3,217.1 C400.2,251.8 375.6,282.1 339.4,288.2 C315.8,292.2 291.1,283.9 275.6,265.3 C263.5,250.9 258.2,231.7 263.3,211.8 C260.3,210.5 257.0,209.8 253.8,209.7 C249.3,209.5 244.9,210.3 240.5,211.9 C244.2,236.0 235.4,258.0 218.8,272.8 C197.9,291.5 168.5,296.5 142.6,285.9 C119.7,276.4 102.9,255.9 99.1,231.5 C95.4,208.5 103.8,184.9 120.8,168.3 C137.7,152.0 161.2,144.4 183.9,148.7 C200.7,151.9 215.7,161.5 225.3,177.0 Z" fill="rgb(233,108,76)" opacity="0.2"/><path d="M223.1,183.6 C231.4,179.4 240.4,177.3 249.4,177.0 C259.3,176.8 269.2,178.8 278.5,182.9 C293.6,161.6 317.6,153.4 340.6,158.2 C369.3,164.1 390.2,187.8 392.3,215.9 C394.8,249.6 371.5,278.7 337.0,283.4 C316.7,286.1 295.5,278.6 281.6,262.9 C268.6,248.2 263.4,227.8 269.2,207.1 C264.4,204.6 259.1,203.3 253.8,203.2 C247.1,203.0 240.4,204.6 234.0,207.5 C238.8,231.4 230.8,253.6 214.4,268.5 C196.0,285.1 170.0,290.2 146.9,281.5 C125.4,273.4 109.5,254.3 105.6,231.5 C101.9,210.0 109.3,187.9 125.2,172.7 C140.2,158.3 161.2,151.7 181.8,155.3 C198.5,158.2 213.6,167.9 223.1,183.6 Z" fill="rgb(233,108,76)" opacity="0.2"/><path d="M334.1,163.7 C364.0,166.0 387.5,191.8 386.3,222.7 C385.1,251.4 362.6,274.9 334.1,277.2 C302.3,279.7 275.3,255.9 272.8,225.0 C270.0,189.6 298.7,160.8 334.1,163.7 Z" fill="rgb(255,255,255)"/><path d="M170.2,160.5 C203.5,160.4 230.2,187.8 229.0,221.5 C227.8,252.9 201.9,278.0 170.2,278.0 C138.4,278.0 112.6,252.9 111.4,221.5 C110.2,187.8 136.9,160.4 170.2,160.5 Z" fill="rgb(255,255,255)"/><path d="M251.6,187.7 C264.0,187.6 276.1,191.1 287.0,198.0 L282.1,212.7 C273.4,206.7 263.5,203.4 253.3,203.1 C242.3,202.7 231.5,205.7 221.6,211.5 L214.6,199.3 C226.0,191.9 238.6,187.8 251.6,187.7 Z" fill="rgb(255,255,255)"/><path d="M170.4,175.9 C194.3,175.9 214.0,193.3 216.1,215.4 C218.8,243.1 195.2,265.7 166.3,263.1 C141.4,260.9 122.4,239.8 124.8,215.4 C126.9,193.1 146.6,175.9 170.4,175.9 Z" fill="url(#gradient908)"/><path d="M334.4,179.6 C357.1,181.7 374.6,200.7 373.5,223.1 C372.4,243.5 355.5,260.1 334.4,262.2 C309.1,264.6 287.8,246.5 286.6,223.1 C285.3,197.5 307.5,177.0 334.4,179.6 Z" fill="url(#gradient909)"/><path d="M191.4,198.3 C200.6,197.9 209.1,201.8 215.7,209.1 L201.2,205.8 C201.2,217.4 195.3,225.9 187.7,225.5 C180.9,225.1 176.0,217.7 176.7,207.8 L165.6,212.6 C172.3,203.9 181.3,198.6 191.4,198.3 Z" fill="rgb(20,30,36)" opacity="0.1"/><path d="M307.1,196.9 C316.0,196.8 324.2,200.9 330.2,208.4 L316.8,203.9 C317.5,214.7 312.4,223.0 305.1,223.0 C298.4,223.0 293.4,216.0 293.6,206.5 L281.2,211.3 C287.9,202.4 297.0,197.0 307.1,196.9 Z" fill="rgb(20,30,36)" opacity="0.1"/><path d="M135.5,247.3 L150.1,208.8 C151.7,204.7 154.5,202.1 158.1,202.1 L211.3,202.1 C204.9,189.2 193.7,181.1 180.7,178.2 C163.0,174.3 145.1,180.2 134.2,194.2 C127.9,202.2 124.7,212.5 125.3,222.9 C125.9,231.8 129.3,240.4 135.5,247.3 Z" fill="rgb(20,30,36)" opacity="0.5"/><path d="M297.3,247.8 L311.5,212.9 C313.2,208.7 316.1,206.0 319.8,206.0 L369.6,206.1 C364.4,192.6 353.4,184.0 340.4,181.1 C320.5,176.6 301.2,184.9 291.7,201.9 C283.8,216.4 285.3,233.9 297.3,247.8 Z" fill="rgb(20,30,36)" opacity="0.5"/></g></g><g><path d="M212.8,496.4 C196.4,496.4 189.3,477.9 197.2,458.4 L251.8,324.3 C263.0,296.7 287.5,281.0 318.1,281.0 L385.4,281.0 C400.1,281.0 405.2,299.7 397.3,319.5 L329.9,486.9 C327.5,492.9 322.6,496.4 316.4,496.4 L212.8,496.4 Z" fill="rgb(139,188,199)" opacity="0.2"/><path d="M224.1,496.4 C207.7,496.4 200.7,477.7 208.6,458.2 L263.1,324.3 C272.5,301.2 291.8,287.5 316.0,287.5 L383.4,287.5 C397.6,287.5 403.9,303.1 397.3,319.5 L329.9,486.9 C327.5,492.9 322.6,496.4 316.4,496.4 L224.1,496.4 Z" fill="rgb(139,188,199)" opacity="0.4"/><path d="M235.5,496.4 C219.1,496.4 212.2,477.6 220.2,457.9 L274.5,324.3 C281.8,306.3 295.8,295.3 313.4,295.3 L380.8,295.3 C394.3,295.3 402.3,307.0 397.3,319.5 L329.9,486.9 C327.5,492.9 322.6,496.4 316.4,496.4 L235.5,496.4 Z" fill="rgb(255,255,255)"/><path d="M285.4,325.4 C291.1,311.8 302.7,303.8 317.1,303.7 L383.8,303.3 C395.3,303.2 401.8,313.9 397.3,325.2 L332.8,486.3 C329.6,494.4 320.6,497.9 309.2,497.9 L239.9,497.9 C225.8,497.9 221.7,478.4 230.2,457.9 L285.4,325.4 Z" fill="rgb(20,30,36)"/><path d="M334.1,370.4 C337.2,374.8 342.3,376.4 348.0,375.1 C347.7,376.7 346.9,378.2 346.0,379.6 C342.1,385.6 336.1,389.6 329.3,390.2 C324.9,390.6 320.4,389.5 317.2,386.8 C312.1,382.3 310.7,374.6 313.4,367.6 C316.0,361.1 321.9,356.4 329.2,354.4 C331.1,353.9 333.0,353.6 335.0,353.8 C331.3,359.4 330.7,365.5 334.1,370.4 Z" fill="rgb(49,110,125)"/><path d="M331.1,372.3 C333.6,376.0 337.7,378.2 342.6,378.3 C339.3,383.3 334.7,386.6 329.7,387.2 C325.8,387.7 321.9,386.7 319.2,384.1 C315.2,380.4 314.2,374.2 316.3,368.5 C318.4,362.9 323.4,358.8 330.0,357.5 C328.0,362.8 328.3,368.1 331.1,372.3 Z" fill="rgb(139,188,199)"/></g><g><path d="M236.8,420.7 C238.9,423.8 241.3,425.3 244.3,425.3 L279.9,425.3 C285.3,425.3 289.8,427.8 291.8,432.0 C293.5,435.3 293.4,439.4 291.7,442.8 C289.4,447.8 284.3,450.9 278.2,450.9 L243.4,450.9 C248.2,453.6 253.3,455.0 258.6,455.0 L272.2,455.0 C277.5,455.0 281.6,458.9 282.4,464.2 C283.0,467.6 282.0,471.2 279.7,474.0 C276.5,478.0 271.0,479.8 264.9,479.7 C267.7,481.5 269.0,484.4 268.9,487.5 C268.8,493.6 264.4,498.2 258.2,498.2 L231.9,498.0 C214.1,497.8 199.1,495.0 192.1,485.5 C186.6,478.2 186.4,467.4 188.0,456.5 C190.0,443.2 195.1,430.6 202.3,419.1 C207.5,410.9 213.8,403.5 221.2,398.1 C225.3,395.1 229.7,392.7 234.5,391.2 C239.1,389.6 244.1,388.8 249.1,388.9 L236.8,420.7 Z" fill="rgb(225,160,121)"/><path d="M361.6,425.3 L321.7,425.3 C316.3,425.3 311.8,427.8 309.8,432.0 C308.1,435.3 308.2,439.4 309.9,442.8 C312.2,447.8 317.3,450.9 323.3,450.9 L338.9,450.9 C332.4,453.6 325.9,455.0 319.1,455.0 L305.5,455.0 C300.2,455.0 296.0,458.4 294.6,463.6 C294.1,465.6 294.1,467.9 294.6,470.0 C295.1,472.4 296.2,474.6 297.7,476.6 C293.2,478.8 290.9,483.0 291.1,487.5 C291.5,493.6 295.7,498.2 301.8,498.2 L328.1,498.0 C337.4,497.9 344.9,491.3 350.5,482.7 C356.6,473.5 359.8,462.6 360.4,451.0 C367.8,449.9 372.6,444.7 372.9,438.0 C373.2,431.1 368.7,425.3 361.6,425.3 Z" fill="rgb(225,160,121)"/></g></svg>