<svg width="256" height="164" viewBox="0 0 256 164" fill="none" xmlns="http://www.w3.org/2000/svg">
<g clip-path="url(#clip0)">
<rect width="256" height="164" fill="#2B7670"/>
<path opacity="0.5" d="M36.7959 141.445C76.1596 107.409 138.911 120.794 117.19 91.903C98.1947 66.6426 36.7959 141.445 36.7959 141.445Z" fill="#274F4C"/>
<path opacity="0.5" d="M210 40C213.866 40 217 36.866 217 33C217 29.134 213.866 26 210 26C206.134 26 203 29.134 203 33C203 36.866 206.134 40 210 40Z" fill="#274F4C"/>
<path opacity="0.5" d="M118.747 169.384C120.871 169.384 122.592 167.662 122.592 165.539C122.592 163.415 120.871 161.694 118.747 161.694C116.624 161.694 114.902 163.415 114.902 165.539C114.902 167.662 116.624 169.384 118.747 169.384Z" fill="#274F4C"/>
<path opacity="0.5" d="M233.709 63.7399C235.918 63.7399 237.708 61.949 237.708 59.7399C237.708 57.5307 235.918 55.7399 233.709 55.7399C231.499 55.7399 229.708 57.5307 229.708 59.7399C229.708 61.949 231.499 63.7399 233.709 63.7399Z" fill="#274F4C"/>
<path opacity="0.5" d="M87.5065 80.9483C89.8955 80.9483 91.8321 79.2269 91.8321 77.1033C91.8321 74.9798 89.8955 73.2583 87.5065 73.2583C85.1175 73.2583 83.1808 74.9798 83.1808 77.1033C83.1808 79.2269 85.1175 80.9483 87.5065 80.9483Z" fill="#274F4C"/>
<path opacity="0.5" d="M92.6943 -92.0639C87.5106 -74.1321 77.9146 -52.4576 67.9395 -33.5821C72.7681 -26.1814 86.7353 -3.19006 82.5549 9.39998C78.6278 21.2283 60.8074 41.0778 55.3093 46.0449C51.9269 36.0464 44.0257 20.2911 37.1967 14.6729C43.4253 29.6012 46.5675 43.3237 46.3459 51.2199C46.1516 58.1802 16.2355 78.7627 9.42499 77.3167C7.59514 70.0073 5.24781 61.8015 1.6946 56.6822C-1.85859 51.5629 4.90611 71.5598 0.184233 77.8713C-11.0708 87.3572 -28.4158 84.225 -36.1548 90.4858C-39.5 88.8318 -40.4843 84.022 -40.4843 84.022C-40.4843 84.022 -42.2769 85.057 -42.2583 89.2292C-47.3962 88.6102 -49.9144 85.2836 -55.7406 88.6473C-49.1617 66.9221 18.5121 27.8506 28.1589 3.15907C34.0037 3.96751 44.381 -0.828684 44.381 -0.828684C44.381 -0.828684 38.8643 -0.03385 35.191 -3.29114C48.6869 -14.0708 45.078 -31.7067 61.4129 -36.4409C72.6566 -51.2146 85.5607 -79.5795 88.9702 -92.3041C88.9702 -92.3041 90.6936 -94.4942 92.6943 -92.0639Z" fill="#274F4C"/>
<path opacity="0.5" d="M43.2381 138.236C56.3593 105.159 95.1224 86.4586 66.5667 79.1134C35.4956 71.125 43.2381 138.236 43.2381 138.236Z" fill="#274F4C"/>
<path opacity="0.5" d="M36.0443 135.91C57.9782 145.848 119.21 153.906 105.717 136.201C89.7705 115.278 36.0443 135.91 36.0443 135.91Z" fill="#274F4C"/>
<path d="M41.3073 206.939C24.7504 250.288 81.1615 329.525 186.743 344.061C278.702 356.72 352.433 276.775 374.189 239.092C417.306 168.678 385.777 93.9051 322.317 70.7971C258.856 47.6892 251.404 122.955 183.557 120.02C91.2787 112.689 57.8643 163.589 41.3073 206.939Z" fill="#3EA39A"/>
<g filter="url(#filter0_d)">
<g clip-path="url(#clip1)">
<rect x="18" y="52.5756" width="141.783" height="94.611" rx="2.21938" fill="#f1f1f1"/>
<rect x="18" y="52.5756" width="155.356" height="23.9693" fill="#EBEBEB"/>
<rect opacity="0.5" x="18" y="62.3408" width="155.356" height="14.204" fill="#CDCDCD"/>
<path opacity="0.5" d="M40.8597 54.7949C40.8597 53.5692 41.8534 52.5756 43.0791 52.5756H58.3928C59.6185 52.5756 60.6122 53.5692 60.6122 54.7949V62.3408H40.8597V54.7949Z" fill="#CDCDCD"/>
<path opacity="0.5" d="M33.3137 58.346C33.3137 57.1202 34.3074 56.1266 35.5331 56.1266H38.6402C39.866 56.1266 40.8596 57.1202 40.8596 58.346V62.3408H33.3137V58.346Z" fill="#CDCDCD"/>
<path d="M18 54.7949C18 53.5692 18.9936 52.5756 20.2194 52.5756H38.6402C39.8659 52.5756 40.8596 53.5692 40.8596 54.7949V60.1214C40.8596 61.3472 39.8659 62.3408 38.6402 62.3408H20.2194C18.9936 62.3408 18 61.3472 18 60.1214V54.7949Z" fill="#EBEBEB"/>
<path opacity="0.5" d="M60.6121 58.346C60.6121 57.1202 61.6058 56.1266 62.8315 56.1266H65.9386C67.1644 56.1266 68.158 57.1202 68.158 58.346V62.3408H60.6121V58.346Z" fill="#CDCDCD"/>
<path d="M60.6121 54.7949C60.6121 53.5692 61.6058 52.5756 62.8315 52.5756H81.2523C82.4781 52.5756 83.4717 53.5692 83.4717 54.7949V60.1214C83.4717 61.3472 82.4781 62.3408 81.2523 62.3408H62.8315C61.6058 62.3408 60.6121 61.3472 60.6121 60.1214V54.7949Z" fill="#EBEBEB"/>
<circle cx="23.3264" cy="57.9021" r="1.7755" fill="#D7323E"/>
<circle cx="28.653" cy="57.9021" r="1.7755" fill="#F8C06D"/>
<rect x="51.0396" y="111.772" width="23.198" height="8.78713" fill="#CFECF5"/>
<rect x="72.3163" y="83.6718" width="23.198" height="8.78713" fill="#CFECF5"/>
<rect x="105.023" y="121.051" width="15.7693" height="8.7607" fill="#CFECF5"/>
<rect x="40.7779" y="93.0165" width="15.7693" height="8.7607" fill="#CFECF5"/>
<rect x="25.5927" y="86.592" width="42.6354" height="3.50428" rx="1.75214" fill="#EBEBEB"/>
<rect x="98.0144" y="86.592" width="48.4759" height="3.50428" rx="1.75214" fill="#EBEBEB"/>
<rect x="25.5927" y="95.9367" width="12.265" height="3.50428" rx="1.75214" fill="#EBEBEB"/>
<rect x="59.4673" y="95.9367" width="87.023" height="3.50428" rx="1.75214" fill="#EBEBEB"/>
<rect x="25.5927" y="105.281" width="120.898" height="3.50428" rx="1.75214" fill="#EBEBEB"/>
<rect x="25.5927" y="114.626" width="22.1938" height="3.50428" rx="1.75214" fill="#EBEBEB"/>
<rect x="53.0428" y="114.626" width="18.6895" height="3.50428" rx="1.75214" fill="#83C2D6"/>
<rect x="74.3197" y="86.5259" width="18.6895" height="3.50428" rx="1.75214" fill="#83C2D6"/>
<rect x="106.191" y="123.971" width="13.4331" height="3.50428" rx="1.75214" fill="#83C2D6"/>
<rect x="42.5299" y="95.9367" width="12.265" height="3.50428" rx="1.75214" fill="#83C2D6"/>
<rect x="77.5728" y="114.626" width="68.9175" height="3.50428" rx="1.75214" fill="#EBEBEB"/>
<rect x="25.5927" y="123.971" width="76.5101" height="3.50428" rx="1.75214" fill="#EBEBEB"/>
<rect x="25.4623" y="133.328" width="125.793" height="3.46463" rx="1.73231" fill="#EBEBEB"/>
<rect x="123.271" y="124" width="27.4505" height="3.46463" rx="1.73231" fill="#EBEBEB"/>
<circle cx="33.9794" cy="57.9021" r="1.7755" fill="#7EC49C"/>
<rect x="21.4646" y="65.9011" width="134.321" height="7.19577" rx="3.59788" fill="#EBEBEB"/>
</g>
</g>
<path d="M220.225 124.5C214.829 132.857 212.814 140.997 217.291 143.893C221.768 146.789 228.502 141.386 233.898 133.028C239.295 124.671 243.589 115.275 239.112 112.379C234.641 109.483 225.621 116.148 220.225 124.5Z" fill="#323C46"/>
<path d="M225.445 131.813C220.048 140.171 218.033 148.311 222.511 151.207C226.988 154.103 233.722 148.7 239.118 140.342C244.514 131.985 248.809 122.589 244.332 119.693C239.854 116.797 230.835 123.456 225.445 131.813Z" fill="#335267"/>
<path d="M163.611 130.84C160.86 134.963 152.465 145.191 150.845 153.837C149.649 160.213 152.1 166.223 154.379 166.223C155.899 166.223 154.379 161.505 158.374 158.066C158.173 162.543 158.327 174.086 164.394 181.559C172.053 190.996 177.355 192.175 179.122 191.586C180.89 190.996 183.246 186.277 183.246 186.277L183.205 185.982C186.392 186.938 189.768 187.457 193.261 187.457C196.978 187.457 200.56 186.873 203.924 185.799C204.313 186.531 206.775 191.043 208.401 191.586C210.169 192.175 215.471 190.996 223.129 181.559C226.316 177.631 232.732 166.223 232.732 166.223C231.719 164.873 230.517 161.021 229.674 157.966C232.249 161.576 235.006 164.908 238.623 165.634C241.569 166.223 244.337 165.687 243.925 160.325C243.36 153 230.858 137.051 222.128 129.655C214.469 123.167 222.128 123.757 221.539 103.703C221.097 88.7273 206.801 73.1413 191.831 73.1413C176.862 73.1413 149.478 98.2528 161.449 107.242C163.805 109.011 166.109 110.792 166.751 114.319C167.929 120.807 166.362 126.723 163.611 130.84Z" fill="#3F7494"/>
<path d="M206.811 116.679C205.226 127.006 208.578 161.505 179.711 160.325C170.286 159.942 162.627 152.669 162.627 143.221C162.627 133.772 172.155 128.545 167.929 116.089C166.15 109.849 157.378 105.861 159.682 104.882C165.844 102.264 179.466 69.1703 191.313 71.329C197.794 72.5087 214.057 79.3609 216.237 91.9064C218.593 105.472 207.989 109.011 206.811 116.679Z" fill="white"/>
<path d="M217.415 95.1504C217.415 105.738 210.905 113.14 200.331 113.14C182.77 113.14 182.511 95.1504 174.744 94.1119C174.744 83.5246 179.947 68.5968 190.316 70.6729C202.098 73.0322 217.415 82.4693 217.415 95.1504Z" fill="#CFECF5"/>
<path d="M173.231 98.9842C173.231 101.102 168.607 106.652 161.449 106.652C130.815 94.8555 110.196 100.754 109.607 99.574C107.487 95.3298 134.186 92.175 140.829 92.0407C148.034 92.0407 156.111 91.8533 162.038 93.6759C164.165 94.3306 171.552 90.8506 173.82 91.9064C176.088 92.9622 173.231 98.5419 173.231 98.9842Z" fill="#E07A15"/>
<path d="M128.588 66.615C114.579 71.4338 101.263 82.6756 103.03 91.5229C104.049 96.6189 133.843 86.2029 159.469 93.6759C162.827 94.655 168.518 95.4453 174.409 94.2657C166.718 100.843 149.89 94.4172 137.295 93.6759C124.7 92.9346 107.221 94.7965 109.607 99.574C110.196 100.754 130.815 94.8555 161.449 106.652C165.52 106.652 170.286 106.062 173.231 100.164C176 94.6137 177.355 88.3675 190.316 70.673C167.34 62.4155 147.027 60.2745 128.588 66.615Z" fill="#F8C06D"/>
<path d="M128.402 91.1863C116.619 92.3659 101.359 95.8758 101.359 91.3165C101.359 86.7572 104.894 74.2118 130.815 65.9543C123.156 73.622 117.209 81.7492 128.402 91.1863Z" fill="#AB5930"/>
<path d="M193.167 98.3C196.746 98.3 199.647 95.3953 199.647 91.812C199.647 88.2288 196.746 85.324 193.167 85.324C189.588 85.324 186.687 88.2288 186.687 91.812C186.687 95.3953 189.588 98.3 193.167 98.3Z" fill="#161616"/>
<path d="M190.516 92.9916C191.817 92.9916 192.872 91.9353 192.872 90.6323C192.872 89.3294 191.817 88.2731 190.516 88.2731C189.214 88.2731 188.159 89.3294 188.159 90.6323C188.159 91.9353 189.214 92.9916 190.516 92.9916Z" fill="white"/>
<g transform="translate(-60, -5) scale(1.5)">
<path d="M93.9873 29.2133C93.9873 29.629 94.1152 29.9249 94.3711 30.1008C94.6429 30.2767 95.0187 30.3646 95.4984 30.3646C95.7383 30.3646 95.9861 30.3486 96.242 30.3166C96.4978 30.2687 96.7217 30.2127 96.9136 30.1487C97.0575 30.3246 97.1774 30.5245 97.2734 30.7484C97.3853 30.9563 97.4413 31.2121 97.4413 31.5159C97.4413 32.1236 97.2094 32.6193 96.7457 33.0031C96.298 33.3868 95.4984 33.5787 94.3471 33.5787C92.9399 33.5787 91.8526 33.2589 91.085 32.6193C90.3335 31.9797 89.9577 30.9403 89.9577 29.5011V19.2352C90.1336 19.1872 90.3814 19.1392 90.7013 19.0912C91.0371 19.0273 91.3888 18.9953 91.7566 18.9953C92.4602 18.9953 93.0039 19.1232 93.3877 19.3791C93.7874 19.6189 93.9873 20.1386 93.9873 20.9382V22.4733H97.1295C97.2254 22.6492 97.3134 22.873 97.3933 23.1449C97.4893 23.4007 97.5372 23.6885 97.5372 24.0084C97.5372 24.568 97.4093 24.9758 97.1535 25.2316C96.9136 25.4715 96.5858 25.5914 96.17 25.5914H93.9873V29.2133Z" fill="white"/>
<path d="M111.438 27.3904C111.438 28.3818 111.286 29.2693 110.982 30.0528C110.678 30.8203 110.247 31.468 109.687 31.9957C109.143 32.5233 108.488 32.9231 107.72 33.195C106.952 33.4668 106.097 33.6027 105.154 33.6027C104.21 33.6027 103.355 33.4588 102.587 33.171C101.819 32.8831 101.156 32.4754 100.596 31.9477C100.053 31.404 99.6288 30.7484 99.3249 29.9808C99.0211 29.2133 98.8692 28.3498 98.8692 27.3904C98.8692 26.4469 99.0211 25.5914 99.3249 24.8239C99.6288 24.0563 100.053 23.4087 100.596 22.881C101.156 22.3373 101.819 21.9216 102.587 21.6337C103.355 21.3459 104.21 21.202 105.154 21.202C106.097 21.202 106.952 21.3539 107.72 21.6577C108.488 21.9456 109.143 22.3613 109.687 22.905C110.247 23.4327 110.678 24.0803 110.982 24.8479C111.286 25.6154 111.438 26.4629 111.438 27.3904ZM103.043 27.3904C103.043 28.3658 103.227 29.1173 103.594 29.645C103.978 30.1567 104.506 30.4126 105.177 30.4126C105.849 30.4126 106.361 30.1487 106.713 29.6211C107.08 29.0934 107.264 28.3498 107.264 27.3904C107.264 26.4309 107.08 25.6954 106.713 25.1837C106.345 24.656 105.825 24.3921 105.154 24.3921C104.482 24.3921 103.962 24.656 103.594 25.1837C103.227 25.6954 103.043 26.4309 103.043 27.3904Z" fill="white"/>
<path d="M113.427 21.7297C113.587 21.6817 113.835 21.6337 114.171 21.5858C114.522 21.5378 114.882 21.5138 115.25 21.5138C115.602 21.5138 115.914 21.5378 116.186 21.5858C116.473 21.6337 116.713 21.7297 116.905 21.8736C117.097 22.0175 117.241 22.2174 117.337 22.4733C117.449 22.7131 117.505 23.0329 117.505 23.4327V28.5897C117.505 29.2453 117.665 29.717 117.984 30.0048C118.304 30.2767 118.768 30.4126 119.376 30.4126C119.743 30.4126 120.039 30.3806 120.263 30.3166C120.503 30.2527 120.687 30.1887 120.815 30.1248V21.7297C120.975 21.6817 121.223 21.6337 121.558 21.5858C121.91 21.5378 122.27 21.5138 122.638 21.5138C122.99 21.5138 123.301 21.5378 123.573 21.5858C123.861 21.6337 124.101 21.7297 124.293 21.8736C124.485 22.0175 124.629 22.2174 124.724 22.4733C124.836 22.7131 124.892 23.0329 124.892 23.4327V30.7244C124.892 31.5239 124.557 32.1236 123.885 32.5233C123.325 32.8751 122.654 33.139 121.87 33.3149C121.103 33.5068 120.263 33.6027 119.352 33.6027C118.488 33.6027 117.689 33.5068 116.953 33.3149C116.233 33.123 115.61 32.8272 115.082 32.4274C114.554 32.0276 114.147 31.5159 113.859 30.8923C113.571 30.2527 113.427 29.4851 113.427 28.5897V21.7297Z" fill="white"/>
<path d="M133.96 24.4161C133.56 24.4161 133.176 24.4801 132.808 24.608C132.457 24.7359 132.145 24.9278 131.873 25.1837C131.617 25.4235 131.409 25.7273 131.249 26.0951C131.09 26.4629 131.01 26.8947 131.01 27.3904C131.01 28.3818 131.289 29.1253 131.849 29.6211C132.425 30.1168 133.12 30.3646 133.936 30.3646C134.416 30.3646 134.831 30.3086 135.183 30.1967C135.535 30.0848 135.847 29.9648 136.119 29.8369C136.438 30.0608 136.678 30.3086 136.838 30.5805C136.998 30.8363 137.078 31.1482 137.078 31.5159C137.078 32.1716 136.766 32.6833 136.143 33.051C135.519 33.4028 134.655 33.5787 133.552 33.5787C132.545 33.5787 131.633 33.4348 130.818 33.147C130.002 32.8432 129.299 32.4274 128.707 31.8997C128.131 31.356 127.684 30.7084 127.364 29.9569C127.044 29.2053 126.884 28.3738 126.884 27.4623C126.884 26.4069 127.052 25.4875 127.388 24.7039C127.739 23.9044 128.211 23.2488 128.803 22.7371C129.395 22.2254 130.074 21.8416 130.842 21.5858C131.625 21.3299 132.449 21.202 133.312 21.202C134.464 21.202 135.351 21.4099 135.975 21.8256C136.598 22.2414 136.91 22.7771 136.91 23.4327C136.91 23.7365 136.838 24.0243 136.694 24.2962C136.55 24.552 136.382 24.7759 136.191 24.9678C135.919 24.8399 135.591 24.7199 135.207 24.608C134.823 24.4801 134.408 24.4161 133.96 24.4161Z" fill="white"/>
<path d="M144.112 30.6285C144.384 30.6285 144.68 30.6045 145 30.5565C145.335 30.4925 145.583 30.4126 145.743 30.3166V28.3978L144.016 28.5417C143.568 28.5737 143.201 28.6696 142.913 28.8295C142.625 28.9894 142.481 29.2293 142.481 29.5491C142.481 29.8689 142.601 30.1328 142.841 30.3406C143.097 30.5325 143.52 30.6285 144.112 30.6285ZM143.92 21.202C144.784 21.202 145.567 21.29 146.271 21.4658C146.99 21.6417 147.598 21.9136 148.094 22.2814C148.605 22.6332 148.997 23.0889 149.269 23.6486C149.541 24.1922 149.677 24.8399 149.677 25.5914V30.9643C149.677 31.38 149.557 31.7238 149.317 31.9957C149.093 32.2515 148.821 32.4754 148.501 32.6673C147.462 33.2909 145.999 33.6027 144.112 33.6027C143.265 33.6027 142.497 33.5228 141.809 33.3629C141.138 33.2029 140.554 32.9631 140.058 32.6433C139.579 32.3235 139.203 31.9157 138.931 31.42C138.675 30.9243 138.547 30.3486 138.547 29.693C138.547 28.5897 138.875 27.7422 139.531 27.1505C140.186 26.5589 141.202 26.1911 142.577 26.0472L145.719 25.7114V25.5435C145.719 25.0797 145.511 24.7519 145.095 24.56C144.696 24.3521 144.112 24.2482 143.344 24.2482C142.737 24.2482 142.145 24.3122 141.57 24.4401C140.994 24.568 140.474 24.7279 140.01 24.9198C139.803 24.7759 139.627 24.56 139.483 24.2722C139.339 23.9684 139.267 23.6566 139.267 23.3367C139.267 22.921 139.363 22.5932 139.555 22.3533C139.763 22.0975 140.074 21.8816 140.49 21.7057C140.954 21.5298 141.498 21.4019 142.121 21.3219C142.761 21.242 143.36 21.202 143.92 21.202Z" fill="white"/>
<path d="M159.558 25.8313C159.558 25.3356 159.414 24.9758 159.126 24.7519C158.854 24.5121 158.478 24.3921 157.999 24.3921C157.679 24.3921 157.359 24.4321 157.039 24.5121C156.735 24.592 156.471 24.7119 156.248 24.8718V33.195C156.088 33.2429 155.832 33.2909 155.48 33.3389C155.144 33.3868 154.792 33.4108 154.425 33.4108C154.073 33.4108 153.753 33.3868 153.465 33.3389C153.193 33.2909 152.962 33.195 152.77 33.051C152.578 32.9071 152.426 32.7152 152.314 32.4754C152.218 32.2195 152.17 31.8917 152.17 31.492V24.2962C152.17 23.8644 152.258 23.5126 152.434 23.2408C152.626 22.969 152.882 22.7211 153.201 22.4972C153.745 22.1135 154.425 21.8017 155.24 21.5618C156.072 21.3219 156.991 21.202 157.999 21.202C159.805 21.202 161.197 21.6018 162.172 22.4013C163.148 23.1848 163.635 24.2802 163.635 25.6874V33.195C163.475 33.2429 163.219 33.2909 162.868 33.3389C162.532 33.3868 162.18 33.4108 161.812 33.4108C161.461 33.4108 161.141 33.3868 160.853 33.3389C160.581 33.2909 160.349 33.195 160.157 33.051C159.965 32.9071 159.813 32.7152 159.702 32.4754C159.606 32.2195 159.558 31.8917 159.558 31.492V25.8313Z" fill="white"/>
</g>
</g>
<defs>
<filter id="filter0_d" filterUnits="userSpaceOnUse">
<feColorMatrix in="SourceGraphic" type="matrix" values="0.15 -0.6 -0.6 0 0.9 -0.6 0.2 -0.6 0 0.9 -0.6 -0.6 0.2 0 0.9 0 0 0 1 0"/>
</filter>
<clipPath id="clip0">
<rect width="256" height="164" fill="white"/>
</clipPath>
<clipPath id="clip1">
<rect x="18" y="52.5756" width="141.783" height="94.611" rx="2.21938" fill="white"/>
</clipPath>
</defs>
</svg>
