<svg width="160" height="160" viewBox="0 0 160 160" fill="none" xmlns="http://www.w3.org/2000/svg">
<path d="M80.0002 150C41.3378 150 10.0002 118.662 10.0002 80C10.0002 41.3376 41.3378 10 80.0002 10C118.663 10 150 41.3376 150 80C150 118.657 118.663 150 80.0002 150Z" fill="white"/>
<rect x="0" y="0" width="160" height="160" fill="#D7323E"/>
<path d="M167.5 45H-7.4998V115H167.5V45Z" fill="#F8C06D"/>
<path d="M56.9029 89.8184H38.5068V73.1396C38.5068 69.9326 41.1023 67.3372 44.3093 67.3372H56.9029V89.8184Z" fill="#D7323E"/>
<path d="M56.903 89.8184H75.2991V73.1396C75.2991 69.9327 72.7037 67.3372 69.4967 67.3372H56.903V89.8184Z" fill="white"/>
<path d="M56.903 89.8184V93.3832C56.903 99.5694 61.0207 104.578 66.1011 104.578C71.1815 104.578 75.2991 99.5629 75.2991 93.3832V89.8184H56.903Z" fill="#D7323E"/>
<path d="M38.507 89.8184V93.3832C38.507 99.5694 42.6247 104.578 47.7051 104.578C52.7855 104.578 56.9032 99.5629 56.9032 93.3832V89.8184H38.507Z" fill="#FFE1A8"/>
<path d="M45.6105 89.8184H42.6507V104.285H45.6105V89.8184Z" fill="#D7323E"/>
<path d="M52.7335 89.8184H49.7737V104.285H52.7335V89.8184Z" fill="#D7323E"/>
<path d="M86.3042 87.2814C86.3042 89.0638 84.8601 90.5079 83.0778 90.5079C81.2954 90.5079 79.8513 89.0638 79.8513 87.2814C79.8513 85.499 81.2954 84.0549 83.0778 84.0549C84.8601 84.0549 86.3042 85.499 86.3042 87.2814Z" fill="white"/>
<path d="M33.9532 87.2814C33.9532 89.0638 32.509 90.5079 30.7267 90.5079C28.9443 90.5079 27.5002 89.0638 27.5002 87.2814C27.5002 85.499 28.9443 84.0549 30.7267 84.0549C32.509 84.0549 33.9532 85.499 33.9532 87.2814Z" fill="white"/>
<path d="M31.7868 87.2814H29.6662V100.252H31.7868V87.2814Z" fill="white"/>
<path d="M84.139 87.2814H82.0184V100.252H84.139V87.2814Z" fill="white"/>
<path d="M33.3352 103.414H28.1117C27.7734 103.414 27.5002 103.141 27.5002 102.802V100.87C27.5002 100.532 27.7734 100.259 28.1117 100.259H33.3352C33.6734 100.259 33.9466 100.532 33.9466 100.87V102.802C33.9532 103.141 33.6734 103.414 33.3352 103.414Z" fill="#323232"/>
<path d="M85.6872 103.414H80.4637C80.1254 103.414 79.8457 103.141 79.8457 102.802V100.87C79.8457 100.532 80.1189 100.259 80.4637 100.259H85.6872C86.0255 100.259 86.2987 100.532 86.2987 100.87V102.802C86.3052 103.141 86.0255 103.414 85.6872 103.414Z" fill="#323232"/>
<path d="M61.2157 89.7274C61.2157 87.3465 59.2837 85.4146 56.9029 85.4146C54.5221 85.4146 52.5836 87.3465 52.5836 89.7274C52.5836 92.1082 54.5156 94.0402 56.9029 94.0402C59.2837 94.0402 61.2157 92.1082 61.2157 89.7274Z" fill="#323232"/>
<path d="M73.4573 64.6636H40.3403C40.0281 64.6636 39.7549 64.4229 39.6833 64.0781L38.7011 59.375C38.6035 58.9001 38.9223 58.4383 39.3581 58.4383H74.446C74.8819 58.4383 75.2006 58.8936 75.103 59.375L74.1208 64.0781C74.0427 64.4229 73.7695 64.6636 73.4573 64.6636Z" fill="#FFE1A8"/>
<path d="M54.2747 55.1793C54.2747 52.2586 55.4456 49.8907 56.8962 49.8907C58.3469 49.8907 59.5178 52.2586 59.5178 55.1793C59.5178 58.1 58.3469 60.4679 56.8962 60.4679C55.4521 60.4679 54.2747 58.1 54.2747 55.1793Z" fill="#FFE1A8"/>
<path d="M49.376 58.4383H44.751V64.6636H49.376V58.4383Z" fill="#D7323E"/>
<path d="M59.219 58.4383H54.5874V64.6636H59.219V58.4383Z" fill="#D7323E"/>
<path d="M69.0416 58.4383H64.4166V64.6636H69.0416V58.4383Z" fill="#D7323E"/>
</svg>
