<svg width="1200" height="675" viewBox="0 0 1200 675" fill="none" xmlns="http://www.w3.org/2000/svg">
<g clip-path="url(#clip0_2683_128015)">
<rect width="1200" height="675" fill="white"/>
<rect width="1200" height="675" fill="url(#paint0_linear_2683_128015)"/>
<g opacity="0.5">
<path d="M649.754 1092.01C626.26 1087.85 604.934 1070.1 591.629 1032.12C583.521 1008.97 576.329 980.071 562.082 963.107C546.009 943.968 525.429 944.84 510.217 962.885C495.468 980.377 482.529 1000.92 468.097 1018.97C453.665 1037.02 437.299 1052.84 418.588 1058.62C375.775 1071.84 347.526 1021.96 335.171 966.085C317.73 887.196 329.048 802.002 343.038 725.592C357.045 649.14 379.624 575.626 413.839 515.15C428.693 488.9 450.765 459.523 476.549 469.959C498.625 478.893 511.494 512.109 532.867 523.204C549.8 532 568.157 524.343 584.103 513.802C637.329 478.596 679.581 411.908 735.837 387.928C757.266 378.799 780.619 376.377 802.464 385.932C829.145 397.59 851.381 425.859 870.813 455.822C887.783 481.975 902.58 498.747 925.748 481.176C963.493 452.562 998.447 416.723 1036.35 388.55C1069.54 363.902 1105.93 344.848 1144.01 344.153C1177.35 343.548 1212.65 370.5 1236.49 405.426C1260.49 440.609 1275.96 486.771 1285.47 534.23C1300.06 607.081 1307.74 683.716 1304.13 758.662C1300.5 833.722 1286.84 935.007 1238.93 974.144C1215.99 992.884 1191.71 987.041 1170.96 963.125C1154.3 943.926 1138.89 917.994 1116.22 920.062C1093.43 922.137 1073.23 940.357 1055.43 960.588C1024.5 995.738 992.917 1040.63 949.778 1033.26C901.636 1025.04 857.742 950.553 807.321 970.017C777.408 981.568 762.161 1030.95 737.763 1055.58C712.951 1080.62 679.606 1097.28 649.763 1091.99L649.754 1092.01Z" fill="url(#paint1_linear_2683_128015)"/>
<path d="M649.754 1092.01C626.26 1087.85 604.934 1070.1 591.629 1032.12C583.521 1008.97 576.329 980.071 562.082 963.107C546.009 943.968 525.429 944.84 510.217 962.885C495.468 980.377 482.529 1000.92 468.097 1018.97C453.665 1037.02 437.299 1052.84 418.588 1058.62C375.775 1071.84 347.526 1021.96 335.171 966.085C317.73 887.196 329.048 802.002 343.038 725.592C357.045 649.14 379.624 575.626 413.839 515.15C428.693 488.9 450.765 459.523 476.549 469.959C498.625 478.893 511.494 512.109 532.867 523.204C549.8 532 568.157 524.343 584.103 513.802C637.329 478.596 679.581 411.908 735.837 387.928C757.266 378.799 780.619 376.377 802.464 385.932C829.145 397.59 851.381 425.859 870.813 455.822C887.783 481.975 902.58 498.747 925.748 481.176C963.493 452.562 998.447 416.723 1036.35 388.55C1069.54 363.902 1105.93 344.848 1144.01 344.153C1177.35 343.548 1212.65 370.5 1236.49 405.426C1260.49 440.609 1275.96 486.771 1285.47 534.23C1300.06 607.081 1307.74 683.716 1304.13 758.662C1300.5 833.722 1286.84 935.007 1238.93 974.144C1215.99 992.884 1191.71 987.041 1170.96 963.125C1154.3 943.926 1138.89 917.994 1116.22 920.062C1093.43 922.137 1073.23 940.357 1055.43 960.588C1024.5 995.738 992.917 1040.63 949.778 1033.26C901.636 1025.04 857.742 950.553 807.321 970.017C777.408 981.568 762.161 1030.95 737.763 1055.58C712.951 1080.62 679.606 1097.28 649.763 1091.99L649.754 1092.01Z" fill="url(#paint2_radial_2683_128015)" fill-opacity="0.2"/>
</g>
<path opacity="0.2" d="M785.491 632.59H692.999L692.737 633.623C692.737 633.716 692.65 633.716 692.65 633.716C692.65 633.716 692.562 633.716 692.475 633.623L692.213 632.59H659.985C657.539 632.59 655.443 634.749 655.443 637.471V666.385C655.443 669.013 657.452 671.266 659.985 671.266H785.491C787.936 671.266 790.032 669.107 790.032 666.385V637.471C789.945 634.749 787.936 632.59 785.491 632.59Z" fill="#85C3D8"/>
<path opacity="0.2" d="M785.491 632.59H692.999L692.737 633.623C692.737 633.716 692.65 633.716 692.65 633.716C692.65 633.716 692.562 633.716 692.475 633.623L692.213 632.59H659.985C657.539 632.59 655.443 634.749 655.443 637.471V666.385C655.443 669.013 657.452 671.266 659.985 671.266H785.491C787.936 671.266 790.032 669.107 790.032 666.385V637.471C789.945 634.749 787.936 632.59 785.491 632.59Z" fill="#C9E3EC"/>
<path d="M1141.83 465.962L1142.62 466.337L1142.88 467.464C1142.88 467.464 1142.88 467.557 1142.97 467.557C1143.05 467.557 1143.05 467.557 1143.05 467.464L1143.32 466.337L1144.1 465.962L1144.19 465.868C1144.19 465.868 1144.19 465.774 1144.1 465.774L1143.32 465.398L1143.05 464.272C1143.05 464.272 1143.05 464.178 1142.97 464.178C1142.88 464.178 1142.88 464.178 1142.88 464.272L1142.62 465.398L1141.83 465.774C1141.83 465.774 1141.83 465.868 1141.83 465.962Z" fill="white"/>
<path d="M804.443 471.594C804.181 471.688 804.094 471.876 804.094 472.157C804.094 472.439 804.268 472.627 804.443 472.721C807.325 473.847 809.508 476.476 810.382 479.573L810.731 480.888C810.819 481.076 810.993 481.263 811.255 481.263C811.517 481.263 811.692 481.076 811.779 480.888L812.129 479.573C813.002 476.382 815.186 473.847 818.068 472.721C818.242 472.627 818.417 472.439 818.417 472.157C818.417 471.876 818.242 471.688 818.068 471.594H817.98C815.098 470.468 812.915 467.933 812.041 464.741L811.692 463.615C811.605 463.427 811.43 463.239 811.168 463.239C810.906 463.239 810.731 463.427 810.644 463.615L810.295 464.741C809.508 467.933 807.325 470.468 804.443 471.594Z" fill="url(#paint3_linear_2683_128015)"/>
<path opacity="0.6" d="M804.443 471.594C804.181 471.688 804.094 471.876 804.094 472.157C804.094 472.439 804.268 472.627 804.443 472.721C807.325 473.847 809.508 476.476 810.382 479.573L810.731 480.888C810.819 481.076 810.993 481.263 811.255 481.263C811.517 481.263 811.692 481.076 811.779 480.888L812.129 479.573C813.002 476.382 815.186 473.847 818.068 472.721C818.242 472.627 818.417 472.439 818.417 472.157C818.417 471.876 818.242 471.688 818.068 471.594H817.98C815.098 470.468 812.915 467.933 812.041 464.741L811.692 463.615C811.605 463.427 811.43 463.239 811.168 463.239C810.906 463.239 810.731 463.427 810.644 463.615L810.295 464.741C809.508 467.933 807.325 470.468 804.443 471.594Z" fill="white"/>
<path d="M774.486 586.685V586.873C774.486 586.873 774.486 586.873 774.573 586.873C774.66 586.873 774.66 586.873 774.66 586.873V586.685C774.748 586.31 775.01 586.028 775.359 585.934C775.359 585.934 775.359 585.934 775.359 585.84C775.359 585.746 775.359 585.84 775.359 585.746C775.01 585.652 774.748 585.277 774.66 584.995V584.901C774.66 584.901 774.66 584.901 774.573 584.901C774.486 584.901 774.486 584.901 774.486 584.901V584.995C774.398 585.371 774.136 585.652 773.787 585.746C773.787 585.746 773.787 585.746 773.787 585.84C773.787 585.934 773.787 585.84 773.787 585.934C774.136 586.028 774.311 586.31 774.486 586.685Z" fill="url(#paint4_linear_2683_128015)"/>
<path opacity="0.6" d="M774.486 586.685V586.873C774.486 586.873 774.486 586.873 774.573 586.873C774.66 586.873 774.66 586.873 774.66 586.873V586.685C774.748 586.31 775.01 586.028 775.359 585.934C775.359 585.934 775.359 585.934 775.359 585.84C775.359 585.746 775.359 585.84 775.359 585.746C775.01 585.652 774.748 585.277 774.66 584.995V584.901C774.66 584.901 774.66 584.901 774.573 584.901C774.486 584.901 774.486 584.901 774.486 584.901V584.995C774.398 585.371 774.136 585.652 773.787 585.746C773.787 585.746 773.787 585.746 773.787 585.84C773.787 585.934 773.787 585.84 773.787 585.934C774.136 586.028 774.311 586.31 774.486 586.685Z" fill="white"/>
<path d="M692.562 633.716C692.649 633.716 692.649 633.717 692.649 633.623L692.911 632.59L693.086 631.933L694.309 631.464C694.396 631.464 694.396 631.37 694.396 631.276C694.396 631.182 694.396 631.182 694.309 631.088L693.086 630.619L692.649 628.929C692.649 628.835 692.562 628.835 692.562 628.835C692.562 628.835 692.475 628.835 692.387 628.929L691.951 630.619L690.728 631.088C690.641 631.088 690.641 631.182 690.641 631.276C690.641 631.37 690.641 631.37 690.728 631.464L691.951 631.933L692.125 632.59L692.387 633.623C692.475 633.717 692.562 633.716 692.562 633.716Z" fill="white"/>
<path d="M690.466 537.682L690.641 538.433C690.641 538.433 690.641 538.433 690.728 538.433H690.815L690.99 537.682L691.514 537.494C691.514 537.494 691.514 537.494 691.514 537.401C691.514 537.307 691.514 537.307 691.514 537.307L690.99 537.119L690.815 536.368C690.815 536.368 690.815 536.368 690.728 536.368H690.641L690.466 537.119L689.942 537.307C689.942 537.307 689.942 537.307 689.942 537.401C689.942 537.494 689.942 537.494 689.942 537.494L690.466 537.682Z" fill="white"/>
<path d="M1138.6 480.419C1138.51 480.419 1138.51 480.512 1138.51 480.606C1138.51 480.7 1138.51 480.794 1138.6 480.794L1140 481.357L1140.52 483.235C1140.52 483.329 1140.61 483.329 1140.7 483.329C1140.78 483.329 1140.87 483.329 1140.87 483.235L1141.4 481.357L1142.79 480.794C1142.88 480.794 1142.88 480.7 1142.88 480.606C1142.88 480.512 1142.88 480.419 1142.79 480.419L1141.4 479.855L1140.96 478.166L1140.87 477.884C1140.87 477.79 1140.78 477.79 1140.7 477.79C1140.61 477.79 1140.52 477.79 1140.52 477.884L1140.43 478.072L1140 479.855L1138.6 480.419Z" fill="white"/>
<path d="M1181.75 472.533L1181.57 471.97C1181.57 471.97 1181.57 471.97 1181.48 471.97C1181.4 471.97 1181.48 471.97 1181.4 471.97L1181.22 472.533L1180.87 472.721L1181.22 472.908L1181.4 473.472C1181.4 473.472 1181.4 473.472 1181.48 473.472C1181.57 473.472 1181.48 473.472 1181.57 473.472L1181.75 472.908L1182.09 472.721L1181.75 472.533Z" fill="white"/>
<path d="M1177.73 477.038L1177.81 477.32L1177.9 477.038L1178.08 476.945L1177.9 476.851L1177.81 476.57L1177.73 476.851L1177.55 476.945L1177.73 477.038Z" fill="white"/>
<path d="M822.347 427.942C822.347 428.881 823.046 429.632 823.919 429.632C824.793 429.632 825.491 428.881 825.491 427.942C825.491 427.003 824.793 426.252 823.919 426.252C823.046 426.252 822.347 427.003 822.347 427.942Z" fill="url(#paint5_linear_2683_128015)"/>
<path d="M822.347 427.942C822.347 428.881 823.046 429.632 823.919 429.632C824.793 429.632 825.491 428.881 825.491 427.942C825.491 427.003 824.793 426.252 823.919 426.252C823.046 426.252 822.347 427.003 822.347 427.942Z" fill="url(#paint6_linear_2683_128015)"/>
<path d="M1157.64 483.141C1157.98 483.141 1158.25 482.847 1158.25 482.484C1158.25 482.121 1157.98 481.827 1157.64 481.827C1157.3 481.827 1157.03 482.121 1157.03 482.484C1157.03 482.847 1157.3 483.141 1157.64 483.141Z" fill="#E7ECE4"/>
<path d="M714.659 582.179L712.737 583.024C711.34 583.587 710.641 585.371 711.253 586.873L712.039 588.938C712.563 590.44 714.222 591.191 715.62 590.534L717.541 589.689C718.939 589.126 719.637 587.342 719.026 585.84L718.24 583.775C717.628 582.367 716.056 581.616 714.659 582.179Z" fill="white"/>
<path d="M916.891 507.077C913.66 507.077 910.516 507.734 907.633 508.954C901.52 497.877 889.729 490.742 876.454 492.338C862.305 494.028 850.863 505.95 848.68 520.97C848.68 521.064 848.68 521.158 848.68 521.252C848.156 524.913 850.863 528.105 854.27 528.105H956.63C957.504 528.105 958.29 527.354 958.29 526.321C958.29 518.717 953.836 511.77 947.11 509.517C941.346 507.546 935.844 508.954 931.826 512.24C927.634 509.048 922.481 507.077 916.891 507.077Z" fill="url(#paint7_linear_2683_128015)"/>
<path opacity="0.2" d="M451.843 618.321V589.407C451.843 586.779 449.835 584.526 447.302 584.526H375.859C371.754 597.105 367.824 610.06 364.417 623.109H447.389C449.835 623.109 451.843 620.949 451.843 618.321Z" fill="#C9E3EC"/>
<path d="M1352.26 88.3258C1275.94 63.2014 707.348 -40.0879 646.213 300.058C575.689 690.023 369.31 776.348 369.31 776.348C365.514 940.838 491.779 1070.97 637.023 1052.5L724.53 1041.34C724.53 1041.34 1035.2 1080.63 1118.71 609.496C1167.46 334.201 1451.35 276.007 1573.22 276.651C1573.22 276.651 1445.36 119.033 1352.26 88.3258Z" fill="url(#paint8_linear_2683_128015)"/>
<g clip-path="url(#clip1_2683_128015)">
<path d="M686.357 385.45C681.624 391.15 427.105 700.244 427.105 700.244L489.434 697.996L750.418 369.486L686.351 385.45H686.357Z" fill="#B4B4B4"/>
<path d="M807.363 358.247L895.183 388.216L891.712 325.423L807.031 290.513L807.363 358.247Z" fill="#F5F5F5"/>
<path d="M699.033 383.521L807.363 357.386L807.454 290.351L700.149 320.258L699.033 383.521Z" fill="#B4B4B4"/>
<path d="M825.122 712.351L569.498 697.526L769.922 364.683L807.364 357.386L825.122 712.351Z" fill="#E6E6E6"/>
<path d="M893.734 387.354L918.639 396.477L930.512 426.988L943.912 433.532L960.035 445.042L965.642 462.759L980.853 467.996L999.414 496.367L1012.36 499.838L1029.75 528.191L1042.78 533.922L1059.41 558.406L1077.55 563.963L1088.77 591.472L1103.27 595.371L1122.85 617.704L1145.28 628.521L1158.82 653.053L1189.12 671.295L1188.68 688.674L823.672 712.351L805.914 357.386L893.734 387.354Z" fill="#F5F5F5"/>
<path d="M854.035 377.82L862.956 380.568L862.238 360.284L854.481 357.386L854.035 377.82Z" fill="#707070"/>
<path d="M827.301 364.683L895.099 387.836L919.991 396.953C923.191 398.123 927.832 417.087 929.148 420.461C930.295 423.408 930.356 424.933 932.468 426.849C935.565 429.645 941.48 432.363 945.156 434.575C950.643 437.871 956.136 441.927 961.399 445.53L967.007 463.241L982.218 468.478L1000.77 496.849L1013.73 500.32L1031.11 528.673L1044.15 534.404L1060.78 558.888L1078.92 564.445L1090.13 591.96L1104.63 595.853L1124.21 618.186L1146.64 629.003L1160.19 653.535L1190.48 671.776L1190.04 689.156L1050.59 698.201" fill="#E6E6E6"/>
<path d="M827.3 364.683L1090.22 696.689L1005.48 700.244L1002.17 659.381L986.068 650.769V622.892L964.188 615.42V581.842L936.838 573.231V544.402L914.118 535.79V505.436L890.45 496.825V471.226L865.322 462.614L866.776 439.299L843.954 428.735L843.109 400.527L829.853 391.916L827.3 364.683Z" fill="#B4B4B4"/>
<path d="M753.805 371.39L492.809 696.454L569.498 697.526L769.922 364.683L753.805 371.39Z" fill="#E6E6E6"/>
<path d="M699.034 383.521C694.301 389.222 439.782 698.316 439.782 698.316L502.111 696.068L763.095 367.558L699.028 383.521H699.034Z" fill="#B4B4B4"/>
<path d="M432.218 697.526L377.482 696.96L390.158 658.181H413.337L425.651 628.955L448.105 626.773L462.954 596.678H482.149L496.273 563.089H514.744L528.144 531.102H549.874L561.102 497.657L585.729 493.728L598.405 465.814L620.859 458.396L629.913 432.658L653.092 422.191L658.887 394.272L686.357 385.449L432.218 697.526Z" fill="#707070"/>
</g>
<path opacity="0.77" d="M1018.58 341.304C1017.04 327.423 1006.59 316.847 993.672 316.517C989.367 316.517 985.063 317.508 981.373 319.491C975.531 313.212 967.229 309.576 958.312 309.576C944.475 309.576 932.791 318.5 927.564 331.389C926.334 331.058 924.797 330.728 923.259 330.728C917.11 330.728 910.96 335.024 908.5 340.973C906.963 344.939 909.73 349.566 913.727 349.566H1011.51C1015.5 349.566 1018.89 345.6 1018.58 341.304Z" fill="url(#paint9_linear_2683_128015)"/>
<path d="M640.868 431.087C642.116 430.531 642.709 428.992 642.192 427.65C641.675 426.308 640.243 425.671 638.994 426.227C637.746 426.782 637.153 428.321 637.67 429.663C638.187 431.006 639.619 431.643 640.868 431.087Z" fill="white"/>
<path opacity="0.6" d="M401.865 541.19C400.753 540.792 399.937 539.835 399.641 538.64L399.492 538.241C399.492 538.161 399.418 538.082 399.344 538.082C399.27 538.082 399.196 538.161 399.196 538.241L399.047 538.64C398.751 539.835 397.935 540.792 396.823 541.19C396.748 541.19 396.674 541.35 396.674 541.429C396.674 541.509 396.748 541.589 396.823 541.589C397.861 541.987 398.751 543.024 399.047 544.139L399.196 544.618C399.196 544.697 399.27 544.777 399.344 544.777C399.418 544.777 399.492 544.697 399.492 544.618L399.641 544.139C399.937 542.944 400.753 541.987 401.865 541.589C401.94 541.589 402.014 541.509 402.014 541.429C402.014 541.35 402.014 541.27 401.865 541.19Z" fill="white"/>
<path opacity="0.6" d="M487.742 506.676C485.295 505.72 483.441 503.567 482.699 500.857L482.402 499.901C482.328 499.741 482.18 499.582 481.957 499.582C481.735 499.582 481.587 499.741 481.513 499.901L481.216 500.857C480.474 503.488 478.62 505.64 476.173 506.676C476.025 506.756 475.876 506.915 475.876 507.154C475.876 507.394 475.951 507.553 476.173 507.633C478.62 508.589 480.474 510.821 481.216 513.451L481.513 514.567C481.587 514.727 481.735 514.886 481.957 514.886C482.18 514.886 482.328 514.727 482.402 514.567L482.699 513.451C483.441 510.741 485.295 508.589 487.742 507.633C487.89 507.553 488.039 507.394 488.039 507.154C488.039 506.915 487.89 506.756 487.742 506.676Z" fill="white"/>
<path d="M746.785 167.446C758.07 167.905 767.459 171.25 768.273 177.164C769.088 183.079 760.207 185.763 748.935 185.304C737.65 184.844 725.817 182.734 725.002 176.82C724.254 170.92 735.499 166.987 746.785 167.432V167.446Z" fill="#163B4B"/>
<path d="M752.648 159.666C761.703 164.058 769.275 168.838 767.178 174.078C765.095 179.246 756.574 178.298 747.519 173.906C738.464 169.527 729.77 163.484 731.853 158.302C733.977 152.991 743.606 155.216 752.648 159.666V159.666Z" fill="#1F576F"/>
<path fill-rule="evenodd" clip-rule="evenodd" d="M769.128 146.646C769.128 146.646 763.038 153.12 761.916 156.349L774.217 158.488L769.128 146.66V146.646Z" fill="#1F576F"/>
<path fill-rule="evenodd" clip-rule="evenodd" d="M834.903 186.179C829.014 208.558 807.351 221.578 786.53 215.233C765.709 208.903 753.596 185.619 759.499 163.24C760.193 160.613 761.102 158.115 762.197 155.776L771.746 157.053L764.067 152.23C765.963 149 768.233 146.115 770.798 143.588C780.48 134.114 794.356 130.052 807.885 134.171C828.706 140.502 840.82 163.786 834.917 186.165L834.903 186.179Z" fill="#276A86"/>
<path d="M841.968 172.887C846.188 176.36 849.728 177.724 854.803 180.193C859.116 182.346 862.415 190.586 873.954 199.055C891.303 211.774 900.919 211.3 899.73 215.822C897.687 223.559 824.82 226.258 814.95 190.17C813.081 183.509 830.696 163.656 841.968 172.887V172.887Z" fill="#276A86"/>
<path d="M842.182 179.318C858.155 184.169 874.769 174.193 879.283 157.024C883.797 139.856 874.515 121.999 858.542 117.147C842.569 112.295 825.955 122.271 821.441 139.44C816.927 156.608 826.209 174.466 842.182 179.318V179.318Z" fill="#276A86"/>
<path d="M849.501 180.552C840.526 181.858 837.855 186.997 830.643 196.629C824.927 189.581 811.945 145.756 807.899 134.1C816.339 136.597 820.827 138.808 825.287 130.396C821.641 145.009 830.509 169.886 849.514 180.552H849.501Z" fill="#276A86"/>
<path d="M830.963 167.963C833.087 170.805 835.037 171.681 837.775 173.432C840.099 174.982 846.923 168.996 852.84 175.757C861.734 185.906 839.337 187.457 838.149 191.978C836.105 199.716 814.75 220.071 813.107 188.045C812.72 181.83 825.274 160.441 830.95 167.977L830.963 167.963Z" fill="#1F576F"/>
<path d="M816.459 158.388C796.694 162.364 785.942 171.91 785.983 189.782C786.049 204.323 804.293 224.607 821.882 208.142C830.629 199.96 830.362 190.184 845.975 179.978C857.554 181.801 866.235 177.853 870.923 171.838C902.668 138.363 851.223 99.4754 834.048 136.181C826.796 152.459 827.331 156.163 816.473 158.388H816.459Z" fill="white"/>
<path d="M828.118 134.874C826.195 142.152 828.613 151.038 838.429 154.024C848.739 157.168 854.749 148.368 870.442 149.588C888.805 148.942 885.48 122.989 858.489 116.902C844.946 112.998 831.805 120.893 828.118 134.86V134.874Z" fill="#C9E3EC"/>
<path d="M846.215 138.966C849.514 139.971 853.013 137.918 853.962 134.315C854.91 130.712 852.987 127.008 849.634 125.989C846.282 124.97 842.837 127.037 841.888 130.64C840.94 134.243 842.863 137.946 846.215 138.966Z" fill="#161616"/>
<path d="M845.788 133.095C847.003 133.468 848.259 132.722 848.606 131.401C848.953 130.081 848.245 128.746 847.03 128.372C845.814 127.999 844.559 128.76 844.212 130.066C843.865 131.372 844.572 132.722 845.788 133.095Z" fill="white"/>
<path d="M946.634 163.872C945.472 167.69 941.586 164.03 926.762 164.92C911.95 165.795 875.263 173.403 868.399 171.853C861.587 170.317 856.325 155.847 856.967 150.694C857.608 145.541 887.911 155.345 904.966 155.89C922.074 156.465 945.606 159.364 946.634 163.886V163.872Z" fill="#F2B661"/>
<path d="M868.946 122.228C897.794 113.012 933.212 120.448 948.45 130.611C964.423 141.277 969.979 160.742 965.826 165.723C961.699 170.633 947.168 156.22 918.481 156.565C889.794 156.909 856.953 157.469 856.325 151.828C855.484 144.765 862.976 128.846 868.933 122.228H868.946Z" fill="#F2B661"/>
<path d="M941.359 126.75C944.057 127.999 946.42 129.276 948.45 130.611C964.423 141.277 969.979 160.742 965.826 165.723C962.754 169.398 954.046 162.422 938.087 158.704C937.098 158.474 936.097 158.244 935.028 158.058C940.504 148.526 947.863 138.09 941.359 126.764V126.75Z" fill="#844400"/>
<path d="M935.041 158.043C930.928 157.096 921.379 156.005 915.609 155.187C898.261 152.718 879.443 152.473 874.008 151.885C862.415 150.622 860.398 147.751 860.398 147.751C860.398 147.751 861.868 156.895 892.558 156.737C923.182 156.565 919.603 155.388 935.055 158.043H935.041Z" fill="#D5801C"/>
<path d="M809.715 134.659C762.731 120.362 753.996 83.7141 748.347 79.867C743.98 77.4123 726.124 120.994 758.591 148.368C759.606 149.244 760.714 150.077 761.809 150.909C762.41 151.383 763.025 151.77 763.692 152.259C766.59 154.268 769.796 156.106 773.308 157.8C790.069 153.479 809.715 134.659 809.715 134.659V134.659Z" fill="#276A86"/>
<path d="M853.103 143.153C853.675 140.979 850.854 138.217 846.801 136.985C842.749 135.752 838.999 136.515 838.427 138.689C837.855 140.864 840.676 143.625 844.728 144.858C848.781 146.09 852.53 145.327 853.103 143.153Z" fill="#C9E3EC"/>
<path d="M767.215 193.796C764.091 193.667 752.796 206.259 754.658 209.875C756.821 214.138 774.124 209.682 774.905 205.549C775.686 201.351 770.7 193.925 767.215 193.796Z" fill="#276A87"/>
<path d="M776.288 201.352C774.305 202.127 765.714 215.042 767.516 218.464C769.319 221.887 782.176 215.494 784.759 211.103C788.064 205.484 784.759 198.058 776.288 201.352Z" fill="#276A87"/>
<path d="M1044.4 478.463C1019.28 560.841 979.561 634.875 926.127 689.28C919.451 696.075 916.116 698.827 921.648 698.186C932.689 696.911 943.825 698.186 954.919 698.186C965.043 698.186 975.476 701.032 985.575 699.426C1000.31 697.076 1001.98 687.565 1004.42 672.079C1012.92 618.215 1055.73 597.606 1101.57 597.606C1150.78 597.606 1198.31 618.683 1203.11 678.853C1203.48 683.443 1203.67 688.22 1205.6 692.313C1214.72 711.69 1265.5 698.186 1281.49 698.186C1290.4 698.186 1293.66 685.208 1286.07 680.006C1220.9 635.401 1180.56 554.356 1155.64 468.044M1047.49 468.044C1046.48 471.524 1045.45 475.005 1044.4 478.463ZM1155.64 468.044C1116.21 331.42 1115.42 181.594 1115.98 142.156C1116.06 136.68 1112.08 132.205 1107.16 132.205H1095.98C1091.05 132.205 1087.08 136.68 1087.16 142.156C1087.72 181.594 1086.92 331.42 1047.49 468.044M1100.45 342.546L1112.76 462.553C1113.29 468.339 1109.21 459.519 1103.98 459.519H1099.14C1093.91 459.519 1088.2 471.387 1088.73 465.601L1100.44 342.538L1100.45 342.546ZM1101.56 566.923C1101.56 566.923 1071.62 566.923 1071.57 566.923C1068.25 566.93 1065.08 572.306 1061.84 571.665C1057.04 570.721 1059.23 564.308 1060.54 560.243C1065.65 544.297 1068.48 527.19 1073.63 511.438C1077.57 499.375 1090.97 495.325 1101.57 495.325C1115.64 495.325 1127.65 502.438 1129.96 512.144L1140.08 554.601C1150.22 583.598 1137.35 566.923 1131.56 566.923H1101.57H1101.56Z" fill="#F3B761"/>
<path d="M1202.66 407.306C1205.11 407.306 1207.04 404.699 1206.67 401.733C1206.67 401.643 1206.67 401.643 1206.67 401.553C1205.19 389.956 1197.61 380.697 1188.1 378.719L1188.47 380.337L1189.66 380.877C1189.73 380.877 1189.73 380.967 1189.73 381.057C1189.73 381.146 1189.73 381.146 1189.66 381.236L1188.47 381.776L1188.03 383.574C1188.03 383.664 1187.95 383.664 1187.88 383.664C1187.8 383.664 1187.8 383.664 1187.73 383.574L1187.28 381.776L1186.09 381.236C1186.02 381.236 1186.02 381.146 1186.02 381.057C1186.02 380.967 1186.02 380.967 1186.09 380.877L1187.28 380.337L1187.65 378.629C1187.36 378.539 1187.06 378.539 1186.69 378.45C1177.25 377.191 1168.86 382.854 1164.48 391.844C1162.4 390.855 1160.17 390.316 1157.86 390.316C1153.85 390.316 1150.21 391.934 1147.24 394.631C1144.57 392.114 1140.93 390.945 1137.06 392.114C1138.25 397.148 1139.51 402.272 1140.85 407.306H1202.66V407.306Z" fill="url(#paint10_linear_2683_128015)"/>
<path d="M1081.5 145.839C1080.46 145.839 1079.62 146.775 1079.62 147.936V162.881C1079.62 165.705 1082.89 167.997 1086.93 167.997H1116.19C1120.23 167.997 1123.51 165.705 1123.51 162.881V147.936C1123.51 146.775 1122.66 145.839 1121.62 145.839H1081.5H1081.5Z" fill="#D6801C"/>
<path d="M1028.41 459.519V462.654C1028.41 465.63 1031.86 468.044 1036.12 468.044H1167.01C1171.27 468.044 1174.72 465.63 1174.72 462.654V459.519H1028.41Z" fill="#F5D8AF"/>
<path d="M1159.55 468.044H1043.58C1039.69 468.044 1036.54 471.861 1036.54 476.569C1036.54 481.277 1039.69 485.093 1043.58 485.093H1159.55C1163.44 485.093 1166.6 481.277 1166.6 476.569C1166.6 471.861 1163.44 468.044 1159.55 468.044Z" fill="#D6801C"/>
<path d="M984.516 566.916V568.624C984.516 572.393 988.881 575.441 994.27 575.441H1208.86C1214.25 575.441 1218.62 572.385 1218.62 568.624V566.916H984.516Z" fill="#F5D8AF"/>
<path d="M1204.1 575.441H999.035C995.144 575.441 991.99 579.258 991.99 583.966C991.99 588.674 995.144 592.49 999.035 592.49H1204.1C1207.99 592.49 1211.15 588.674 1211.15 583.966C1211.15 579.258 1207.99 575.441 1204.1 575.441Z" fill="#D6801C"/>
<path d="M1108.43 121.972H1094.7C1094.45 121.972 1094.25 122.218 1094.25 122.52V131.65C1094.25 131.952 1094.45 132.198 1094.7 132.198H1108.43C1108.68 132.198 1108.88 131.952 1108.88 131.65V122.52C1108.88 122.218 1108.68 121.972 1108.43 121.972Z" fill="#D6801C"/>
<path d="M1103.32 79.7676H1099.81C1099.43 79.7676 1099.12 80.1386 1099.12 80.5963V124.97C1099.12 125.428 1099.43 125.799 1099.81 125.799H1103.32C1103.7 125.799 1104 125.428 1104 124.97V80.5963C1104 80.1386 1103.7 79.7676 1103.32 79.7676Z" fill="#D6801C"/>
<path d="M795.408 538.596H930.004C930.004 544.25 925.735 548.839 920.474 548.839H804.938C799.678 548.839 795.408 544.25 795.408 538.596V538.596Z" fill="#D6801C"/>
<path d="M828.161 667.899H812.678L813.868 552.677H826.971L828.161 667.899Z" fill="#C93C33"/>
<path d="M926.733 567.402H798.68C796.873 567.402 795.408 568.976 795.408 570.918V574.129C795.408 576.071 796.873 577.645 798.68 577.645H926.733C928.54 577.645 930.004 576.071 930.004 574.129V570.918C930.004 568.976 928.54 567.402 926.733 567.402Z" fill="#C93C33"/>
<path d="M930.121 538.596H795.546C791.755 538.596 788.23 536.497 786.221 533.042L783.495 528.354H941.913L939.052 533.275C937.127 536.585 933.751 538.596 930.118 538.596H930.121Z" fill="#D6801C"/>
<path d="M949.261 526.639C948.759 527.715 947.794 528.452 946.683 528.604C938.585 529.713 903.829 534.115 862.705 534.115C821.582 534.115 786.826 529.713 778.725 528.604C777.614 528.452 776.649 527.715 776.147 526.639C774.96 524.086 776.872 521.129 779.513 521.442C792.798 523.011 825.982 526.433 862.703 526.433C899.424 526.433 932.377 522.972 945.918 521.415C948.555 521.112 950.461 524.064 949.274 526.615L949.261 526.642V526.639Z" fill="#854400"/>
<path d="M871.043 571.243L870.572 571.056C865.488 569.042 859.9 569.044 854.817 571.061L854.366 571.24V545.637L856.463 546.514C860.341 548.135 864.636 548.176 868.539 546.63L871.04 545.639V571.245L871.043 571.243Z" fill="#854400"/>
<path d="M828.756 548.836H812.08V552.677H828.756V548.836Z" fill="#A33029"/>
<path d="M826.97 606.447H813.867C812.223 606.447 810.89 607.879 810.89 609.646V609.649C810.89 611.416 812.223 612.849 813.867 612.849H826.97C828.614 612.849 829.947 611.416 829.947 609.649V609.646C829.947 607.879 828.614 606.447 826.97 606.447Z" fill="#A33029"/>
<path d="M831.141 676.862H809.107L810.297 641.014H829.95L831.141 676.862Z" fill="#A33029"/>
<path d="M912.727 667.899H897.241L898.434 552.677H911.534L912.727 667.899Z" fill="#C93C33"/>
<path d="M911.536 606.447H898.433C896.789 606.447 895.456 607.88 895.456 609.647V609.65C895.456 611.417 896.789 612.849 898.433 612.849H911.536C913.18 612.849 914.513 611.417 914.513 609.65V609.647C914.513 607.88 913.18 606.447 911.536 606.447Z" fill="#A33029"/>
<path d="M913.327 548.837H896.651V552.678H913.327V548.837Z" fill="#A33029"/>
<path d="M916.015 676.863H893.979L895.172 639.674H914.825L916.015 676.863Z" fill="#A33029"/>
<mask id="mask0_2683_128015" style="mask-type:alpha" maskUnits="userSpaceOnUse" x="1017" y="355" width="31" height="30">
<rect width="30" height="30" transform="matrix(-1 0 0 1 1047.05 355)" fill="#C4C4C4"/>
</mask>
<g mask="url(#mask0_2683_128015)">
<path d="M1017.62 369.049L1025.26 366.218L1028.11 356.858C1028.22 356.497 1028.55 356.25 1028.93 356.25C1029.31 356.25 1029.64 356.497 1029.75 356.858L1032.6 366.218L1040.24 369.049C1040.58 369.174 1040.8 369.495 1040.8 369.855C1040.8 370.214 1040.58 370.536 1040.24 370.661L1032.61 373.491L1029.75 383.136C1029.64 383.5 1029.31 383.75 1028.93 383.75C1028.55 383.75 1028.21 383.5 1028.11 383.135L1025.25 373.49L1017.61 370.66C1017.28 370.536 1017.05 370.215 1017.05 369.855C1017.05 369.496 1017.28 369.174 1017.62 369.049Z" fill="#F5F5F5"/>
<path d="M1035.93 378.245L1037.86 377.532L1038.61 374.782C1038.71 374.418 1039.04 374.167 1039.41 374.167C1039.79 374.167 1040.12 374.418 1040.22 374.781L1040.97 377.531L1042.9 378.244C1043.22 378.365 1043.44 378.677 1043.44 379.026C1043.44 379.374 1043.22 379.687 1042.9 379.807L1040.98 380.518L1040.22 383.537C1040.13 383.907 1039.8 384.167 1039.41 384.167C1039.03 384.167 1038.7 383.907 1038.61 383.536L1037.85 380.517L1035.93 379.807C1035.6 379.687 1035.39 379.374 1035.39 379.026C1035.39 378.677 1035.6 378.365 1035.93 378.245ZM1039.55 360.192L1041.52 359.463L1042.25 357.492C1042.37 357.165 1042.68 356.948 1043.03 356.948C1043.38 356.948 1043.69 357.165 1043.81 357.492L1044.54 359.463L1046.51 360.192C1046.84 360.314 1047.05 360.626 1047.05 360.974C1047.05 361.322 1046.84 361.635 1046.51 361.756L1044.54 362.485L1043.81 364.456C1043.69 364.783 1043.38 365 1043.03 365C1042.68 365 1042.37 364.783 1042.25 364.456L1041.52 362.485L1039.55 361.756C1039.22 361.634 1039 361.322 1039 360.974C1039 360.626 1039.22 360.314 1039.55 360.192Z" fill="white"/>
</g>
<mask id="mask1_2683_128015" style="mask-type:alpha" maskUnits="userSpaceOnUse" x="1073" y="54" width="21" height="20">
<rect width="20" height="20" transform="matrix(-1 0 0 1 1093.05 54)" fill="#C4C4C4"/>
</mask>
<g mask="url(#mask1_2683_128015)">
<path d="M1073.43 63.3657L1078.52 61.4785L1080.42 55.2389C1080.5 54.9983 1080.72 54.8333 1080.97 54.8333C1081.22 54.8333 1081.45 54.9983 1081.52 55.2389L1083.42 61.4785L1088.51 63.3657C1088.74 63.4493 1088.89 63.663 1088.89 63.9031C1088.89 64.1426 1088.74 64.3574 1088.51 64.4405L1083.42 66.3271L1081.52 72.7569C1081.45 72.9999 1081.23 73.1666 1080.97 73.1666C1080.72 73.1666 1080.49 72.9999 1080.42 72.7564L1078.52 66.3265L1073.43 64.4399C1073.2 64.3574 1073.05 64.1431 1073.05 63.9031C1073.05 63.6636 1073.2 63.4493 1073.43 63.3657Z" fill="white"/>
<path d="M1085.64 69.4966L1086.93 69.021L1087.43 67.1877C1087.49 66.9455 1087.71 66.7777 1087.96 66.7777C1088.21 66.7777 1088.43 66.9455 1088.5 67.1872L1089 69.0205L1090.28 69.496C1090.5 69.5766 1090.64 69.7849 1090.64 70.0172C1090.64 70.2494 1090.5 70.4577 1090.28 70.5383L1089 71.0122L1088.5 73.0244C1088.44 73.271 1088.22 73.4444 1087.96 73.4444C1087.71 73.4444 1087.48 73.271 1087.42 73.0238L1086.92 71.0116L1085.64 70.5377C1085.42 70.4577 1085.28 70.2494 1085.28 70.0172C1085.28 69.7849 1085.42 69.5766 1085.64 69.4966ZM1088.05 57.4616L1089.36 56.9755L1089.85 55.6616C1089.93 55.4433 1090.14 55.2988 1090.37 55.2988C1090.6 55.2988 1090.81 55.4433 1090.89 55.6616L1091.38 56.9755L1092.69 57.4616C1092.91 57.5427 1093.05 57.7505 1093.05 57.9827C1093.05 58.2149 1092.91 58.4233 1092.69 58.5038L1091.38 58.9899L1090.89 60.3038C1090.81 60.5222 1090.6 60.6666 1090.37 60.6666C1090.14 60.6666 1089.93 60.5222 1089.85 60.3038L1089.36 58.9899L1088.05 58.5038C1087.83 58.4227 1087.69 58.2149 1087.69 57.9827C1087.69 57.7505 1087.83 57.5427 1088.05 57.4616Z" fill="#F5F5F5"/>
</g>
<path fill-rule="evenodd" clip-rule="evenodd" d="M103.199 823.275C138.867 841.136 177.958 844.683 213.94 836.09C226.01 849.944 240.929 861.723 258.377 870.46C330.039 906.345 417.223 877.343 453.109 805.681C488.994 734.019 459.992 646.834 388.33 610.949C365.442 599.488 340.972 594.645 317.095 595.698C301.699 569.138 278.636 546.622 249.134 531.849C201.086 507.789 146.824 509.704 102.319 532.282C89.5056 514.609 72.3725 499.668 51.5049 489.219C-17.9083 454.459 -102.357 482.552 -137.116 551.965C-171.876 621.378 -143.783 705.827 -74.37 740.586C-40.7148 757.439 -3.52511 759.517 29.8218 749.274C44.9632 780.231 70.0062 806.654 103.199 823.275Z" fill="white"/>
<rect x="79.0005" y="496" width="326.398" height="84.1989" rx="13.5995" fill="#FAEDDA"/>
<path d="M113.423 524.958H117.054V551.599H112.24V530.711C111.519 531.037 110.812 531.289 110.119 531.465C109.425 531.642 108.731 531.731 108.038 531.731V527.12C108.963 527.025 109.86 526.814 110.731 526.488C111.601 526.148 112.499 525.638 113.423 524.958ZM132.95 552.171C130.774 552.171 128.856 551.667 127.197 550.661C125.552 549.655 124.26 548.132 123.321 546.092C122.397 544.052 121.934 541.481 121.934 538.381C121.934 535.266 122.397 532.689 123.321 530.649C124.26 528.609 125.552 527.093 127.197 526.1C128.856 525.094 130.774 524.591 132.95 524.591C135.099 524.591 136.996 525.094 138.641 526.1C140.3 527.093 141.592 528.609 142.517 530.649C143.455 532.689 143.925 535.266 143.925 538.381C143.925 541.481 143.455 544.052 142.517 546.092C141.592 548.132 140.3 549.655 138.641 550.661C136.996 551.667 135.099 552.171 132.95 552.171ZM132.95 547.764C134.854 547.764 136.329 546.962 137.377 545.357C138.424 543.739 138.947 541.413 138.947 538.381C138.947 535.348 138.424 533.023 137.377 531.404C136.329 529.772 134.854 528.956 132.95 528.956C131.032 528.956 129.543 529.772 128.482 531.404C127.435 533.023 126.912 535.348 126.912 538.381C126.912 541.413 127.435 543.739 128.482 545.357C129.543 546.962 131.032 547.764 132.95 547.764ZM149.309 551.599L167.26 525.121H172.115L154.205 551.599H149.309ZM168.444 552.048C167.464 552.048 166.553 551.824 165.71 551.375C164.867 550.913 164.187 550.226 163.67 549.315C163.153 548.39 162.895 547.234 162.895 545.847C162.895 544.46 163.153 543.31 163.67 542.399C164.187 541.475 164.867 540.788 165.71 540.339C166.553 539.877 167.464 539.645 168.444 539.645C169.45 539.645 170.382 539.877 171.238 540.339C172.095 540.788 172.782 541.475 173.299 542.399C173.815 543.31 174.074 544.46 174.074 545.847C174.074 547.234 173.815 548.39 173.299 549.315C172.782 550.226 172.095 550.913 171.238 551.375C170.382 551.824 169.45 552.048 168.444 552.048ZM168.444 548.947C169.042 548.947 169.525 548.716 169.892 548.254C170.259 547.792 170.443 546.989 170.443 545.847C170.443 544.718 170.259 543.916 169.892 543.44C169.525 542.95 169.042 542.705 168.444 542.705C167.859 542.705 167.383 542.95 167.016 543.44C166.662 543.916 166.485 544.718 166.485 545.847C166.485 546.989 166.662 547.792 167.016 548.254C167.383 548.716 167.859 548.947 168.444 548.947ZM153.022 536.953C152.043 536.953 151.132 536.728 150.288 536.28C149.445 535.817 148.765 535.13 148.248 534.219C147.732 533.294 147.473 532.139 147.473 530.751C147.473 529.378 147.732 528.235 148.248 527.324C148.765 526.413 149.445 525.733 150.288 525.284C151.132 524.822 152.043 524.591 153.022 524.591C154.028 524.591 154.96 524.822 155.817 525.284C156.673 525.733 157.36 526.413 157.877 527.324C158.394 528.235 158.652 529.378 158.652 530.751C158.652 532.139 158.394 533.294 157.877 534.219C157.36 535.13 156.673 535.817 155.817 536.28C154.96 536.728 154.028 536.953 153.022 536.953ZM153.022 533.893C153.607 533.893 154.083 533.655 154.45 533.179C154.831 532.703 155.021 531.894 155.021 530.751C155.021 529.623 154.831 528.827 154.45 528.365C154.083 527.889 153.607 527.651 153.022 527.651C152.437 527.651 151.961 527.889 151.594 528.365C151.24 528.827 151.064 529.623 151.064 530.751C151.064 531.894 151.24 532.703 151.594 533.179C151.961 533.655 152.437 533.893 153.022 533.893ZM196.387 552.171C194.578 552.171 192.939 551.783 191.471 551.008C190.016 550.233 188.86 549.077 188.003 547.54C187.146 545.99 186.718 544.052 186.718 541.726C186.718 539.36 187.146 537.402 188.003 535.851C188.86 534.301 190.016 533.145 191.471 532.383C192.939 531.622 194.578 531.241 196.387 531.241C198.168 531.241 199.78 531.622 201.222 532.383C202.677 533.145 203.833 534.301 204.689 535.851C205.546 537.402 205.975 539.36 205.975 541.726C205.975 544.052 205.546 545.99 204.689 547.54C203.833 549.077 202.677 550.233 201.222 551.008C199.78 551.783 198.168 552.171 196.387 552.171ZM196.224 547.968C197.176 547.968 198.019 547.737 198.753 547.275C199.501 546.799 200.086 546.098 200.508 545.174C200.943 544.249 201.16 543.1 201.16 541.726C201.16 539.632 200.746 538.054 199.916 536.994C199.1 535.933 197.978 535.402 196.55 535.402C195.585 535.402 194.728 535.64 193.98 536.116C193.232 536.579 192.64 537.279 192.205 538.217C191.784 539.156 191.573 540.325 191.573 541.726C191.573 543.793 191.987 545.35 192.817 546.398C193.66 547.445 194.796 547.968 196.224 547.968ZM211.995 551.599V529.405C211.995 527.977 212.274 526.814 212.832 525.917C213.389 525.019 214.124 524.36 215.035 523.938C215.96 523.503 216.959 523.285 218.033 523.285C218.7 523.285 219.387 523.333 220.094 523.428C220.801 523.523 221.488 523.639 222.154 523.775L221.216 527.488C220.876 527.365 220.522 527.27 220.155 527.202C219.788 527.12 219.434 527.08 219.094 527.08C218.713 527.08 218.353 527.154 218.013 527.304C217.673 527.44 217.394 527.685 217.177 528.038C216.959 528.392 216.85 528.875 216.85 529.487V551.599H211.995ZM209.058 534.994V531.812H220.481V534.994H209.058ZM226.126 551.599V529.405C226.126 527.977 226.405 526.814 226.962 525.917C227.52 525.019 228.254 524.36 229.165 523.938C230.09 523.503 231.09 523.285 232.164 523.285C232.831 523.285 233.517 523.333 234.224 523.428C234.932 523.523 235.618 523.639 236.285 523.775L235.346 527.488C235.006 527.365 234.653 527.27 234.286 527.202C233.918 527.12 233.565 527.08 233.225 527.08C232.844 527.08 232.484 527.154 232.144 527.304C231.804 527.44 231.525 527.685 231.307 528.038C231.09 528.392 230.981 528.875 230.981 529.487V551.599H226.126ZM223.188 534.994V531.812H234.612V534.994H223.188ZM245.034 529.283V525.121H266.249V529.283H256.968L258.049 528.181V551.599H253.234V528.181L254.316 529.283H245.034ZM273.495 552.171C271.686 552.171 270.047 551.783 268.579 551.008C267.123 550.233 265.968 549.077 265.111 547.54C264.254 545.99 263.826 544.052 263.826 541.726C263.826 539.36 264.254 537.402 265.111 535.851C265.968 534.301 267.123 533.145 268.579 532.383C270.047 531.622 271.686 531.241 273.495 531.241C275.276 531.241 276.888 531.622 278.329 532.383C279.785 533.145 280.941 534.301 281.797 535.851C282.654 537.402 283.082 539.36 283.082 541.726C283.082 544.052 282.654 545.99 281.797 547.54C280.941 549.077 279.785 550.233 278.329 551.008C276.888 551.783 275.276 552.171 273.495 552.171ZM273.332 547.968C274.284 547.968 275.127 547.737 275.861 547.275C276.609 546.799 277.194 546.098 277.615 545.174C278.051 544.249 278.268 543.1 278.268 541.726C278.268 539.632 277.853 538.054 277.024 536.994C276.208 535.933 275.086 535.402 273.658 535.402C272.692 535.402 271.836 535.64 271.088 536.116C270.34 536.579 269.748 537.279 269.313 538.217C268.891 539.156 268.681 540.325 268.681 541.726C268.681 543.793 269.095 545.35 269.925 546.398C270.768 547.445 271.904 547.968 273.332 547.968ZM301.139 531.731H305.953V551.599H301.139V531.731ZM287.553 531.731H292.367V543.888C292.367 545.18 292.687 546.153 293.326 546.806C293.965 547.445 294.842 547.764 295.957 547.764C296.909 547.764 297.773 547.52 298.548 547.03C299.337 546.527 299.962 545.792 300.425 544.827C300.901 543.848 301.139 542.637 301.139 541.196H302.444C302.444 543.616 302.131 545.622 301.506 547.214C300.88 548.805 300.017 549.995 298.915 550.783C297.814 551.572 296.542 551.967 295.101 551.967C293.686 551.967 292.408 551.715 291.265 551.212C290.123 550.709 289.219 549.899 288.552 548.784C287.886 547.669 287.553 546.2 287.553 544.378V531.731ZM320.196 552.171C318.537 552.171 316.994 551.742 315.566 550.885C314.151 550.015 313.002 548.798 312.118 547.234C311.248 545.656 310.813 543.807 310.813 541.685C310.813 539.441 311.248 537.544 312.118 535.994C313.002 534.43 314.151 533.247 315.566 532.445C316.994 531.642 318.537 531.241 320.196 531.241C321.488 531.241 322.624 531.452 323.603 531.873C324.596 532.281 325.439 532.839 326.133 533.546C326.826 534.24 327.37 535.015 327.765 535.872C328.159 536.728 328.41 537.592 328.519 538.462L323.664 538.585C323.447 537.714 323.039 536.994 322.44 536.422C321.856 535.851 321.094 535.566 320.156 535.566C319.38 535.566 318.653 535.783 317.973 536.218C317.293 536.64 316.735 537.3 316.3 538.197C315.879 539.095 315.668 540.257 315.668 541.685C315.668 543.045 315.865 544.181 316.259 545.092C316.667 545.99 317.211 546.67 317.891 547.132C318.571 547.581 319.326 547.805 320.156 547.805C321.38 547.805 322.27 547.513 322.828 546.928C323.385 546.33 323.664 545.534 323.664 544.541H328.519C328.519 545.942 328.2 547.22 327.561 548.376C326.921 549.532 325.983 550.457 324.745 551.151C323.508 551.831 321.992 552.171 320.196 552.171ZM346.041 551.599L345.429 546.785V538.829C345.429 537.442 345.143 536.416 344.572 535.749C344.014 535.083 343.062 534.75 341.716 534.75C340.941 534.75 340.268 534.865 339.697 535.096C339.125 535.328 338.683 535.661 338.371 536.096C338.071 536.518 337.922 537.034 337.922 537.646H332.659C332.659 536.15 333.019 534.933 333.74 533.995C334.461 533.043 335.494 532.349 336.841 531.914C338.201 531.465 339.826 531.241 341.716 531.241C343.43 531.241 344.926 531.52 346.204 532.077C347.482 532.621 348.475 533.464 349.182 534.607C349.889 535.749 350.243 537.211 350.243 538.993V551.599H346.041ZM339.554 552.171C337.854 552.171 336.433 551.878 335.29 551.293C334.162 550.695 333.312 549.913 332.74 548.947C332.169 547.982 331.884 546.935 331.884 545.806C331.884 544.555 332.21 543.508 332.863 542.665C333.529 541.808 334.468 541.169 335.678 540.747C336.888 540.312 338.316 540.094 339.962 540.094C341.036 540.094 342.049 540.176 343.001 540.339C343.967 540.502 344.926 540.72 345.877 540.992V543.807C345.13 543.562 344.314 543.372 343.43 543.236C342.546 543.1 341.716 543.032 340.941 543.032C339.799 543.032 338.86 543.242 338.126 543.664C337.391 544.086 337.024 544.8 337.024 545.806C337.024 546.54 337.323 547.173 337.922 547.703C338.52 548.233 339.472 548.499 340.778 548.499C341.77 548.499 342.614 548.281 343.307 547.846C344.001 547.411 344.524 546.867 344.878 546.214C345.245 545.561 345.429 544.908 345.429 544.256H346.571C346.571 545.684 346.306 547.003 345.776 548.213C345.245 549.41 344.456 550.369 343.409 551.089C342.376 551.81 341.09 552.171 339.554 552.171ZM370.035 551.599V540.013C370.035 538.544 369.682 537.436 368.975 536.688C368.267 535.94 367.343 535.566 366.2 535.566C365.235 535.566 364.378 535.831 363.63 536.361C362.896 536.892 362.318 537.694 361.896 538.768C361.474 539.829 361.264 541.155 361.264 542.746H359.673C359.673 540.176 359.992 538.041 360.631 536.341C361.271 534.627 362.175 533.349 363.344 532.506C364.514 531.663 365.888 531.241 367.465 531.241C369.097 531.241 370.457 531.608 371.545 532.343C372.646 533.063 373.469 534.083 374.013 535.402C374.571 536.722 374.85 538.258 374.85 540.013V551.599H370.035ZM356.449 551.599V531.812H360.652L361.264 535.729V551.599H356.449Z" fill="#854400"/>
<mask id="mask2_2683_128015" style="mask-type:alpha" maskUnits="userSpaceOnUse" x="38" y="468" width="69" height="69">
<rect x="38.2021" y="468.801" width="67.9973" height="67.9973" fill="#C4C4C4"/>
</mask>
<g mask="url(#mask2_2683_128015)">
<path d="M104.929 500.644L87.6108 494.228L81.1442 473.014C80.8951 472.195 80.1381 471.635 79.2838 471.635C78.4295 471.635 77.6724 472.195 77.4234 473.014L70.9586 494.228L53.6389 500.644C52.8741 500.928 52.3682 501.655 52.3682 502.471C52.3682 503.285 52.8741 504.015 53.6389 504.298L70.9489 510.712L77.4175 532.573C77.6627 533.399 78.4217 533.965 79.2838 533.965C80.1439 533.965 80.9048 533.399 81.15 532.571L87.6186 510.71L104.931 504.296C105.691 504.015 106.199 503.287 106.199 502.471C106.199 501.657 105.691 500.928 104.929 500.644Z" fill="#F3B761"/>
<path d="M63.4121 521.488L59.0414 519.871L57.3415 513.638C57.1186 512.814 56.3725 512.244 55.5207 512.244C54.6688 512.244 53.9227 512.814 53.698 513.636L51.998 519.869L47.6292 521.486C46.8869 521.76 46.3958 522.468 46.3958 523.257C46.3958 524.047 46.8869 524.755 47.6292 525.029L51.9754 526.64L53.6885 533.482C53.9001 534.32 54.6537 534.909 55.5207 534.909C56.3876 534.909 57.1413 534.32 57.3528 533.48L59.066 526.638L63.4121 525.027C64.1545 524.755 64.6455 524.047 64.6455 523.257C64.6455 522.468 64.1545 521.76 63.4121 521.488ZM55.2185 480.57L50.7533 478.917L49.0987 474.45C48.8248 473.708 48.1184 473.217 47.327 473.217C46.5375 473.217 45.8311 473.708 45.5553 474.45L43.9026 478.917L39.4355 480.57C38.6932 480.846 38.2021 481.552 38.2021 482.342C38.2021 483.131 38.6932 483.84 39.4355 484.114L43.9026 485.766L45.5553 490.233C45.8311 490.976 46.5375 491.467 47.327 491.467C48.1165 491.467 48.8229 490.976 49.0987 490.233L50.7514 485.766L55.2185 484.114C55.9608 483.838 56.4519 483.131 56.4519 482.342C56.4519 481.552 55.9608 480.846 55.2185 480.57Z" fill="#F5D8AF"/>
</g>
<path d="M79.5081 109.688C79.5081 110.377 79.7187 110.867 80.1401 111.159C80.5877 111.45 81.2066 111.596 81.9966 111.596C82.3916 111.596 82.7997 111.569 83.2211 111.516C83.6424 111.437 84.0111 111.344 84.3271 111.238C84.5641 111.53 84.7616 111.861 84.9196 112.232C85.1039 112.576 85.1961 113 85.1961 113.504C85.1961 114.511 84.8142 115.332 84.0506 115.968C83.3132 116.604 81.9966 116.922 80.1006 116.922C77.7832 116.922 75.9926 116.392 74.7286 115.332C73.4909 114.272 72.8721 112.55 72.8721 110.165V93.1519C73.1617 93.0724 73.5699 92.9929 74.0966 92.9134C74.6496 92.8074 75.2289 92.7544 75.8346 92.7544C76.9932 92.7544 77.8886 92.9664 78.5206 93.3904C79.1789 93.7879 79.5081 94.6491 79.5081 95.9741V98.5181H84.6826C84.8406 98.8096 84.9854 99.1806 85.1171 99.6311C85.2751 100.055 85.3541 100.532 85.3541 101.062C85.3541 101.99 85.1434 102.665 84.7221 103.089C84.3271 103.487 83.7872 103.686 83.1026 103.686H79.5081V109.688Z" fill="#00857C"/>
<path d="M108.246 106.667C108.246 108.31 107.995 109.781 107.495 111.079C106.995 112.351 106.284 113.424 105.362 114.299C104.467 115.173 103.387 115.836 102.123 116.286C100.859 116.737 99.4502 116.962 97.8966 116.962C96.3429 116.962 94.9341 116.724 93.6701 116.247C92.4061 115.77 91.3132 115.094 90.3916 114.219C89.4962 113.318 88.7984 112.232 88.2981 110.96C87.7977 109.688 87.5476 108.257 87.5476 106.667C87.5476 105.103 87.7977 103.686 88.2981 102.414C88.7984 101.142 89.4962 100.068 90.3916 99.1939C91.3132 98.2929 92.4061 97.6039 93.6701 97.1269C94.9341 96.6499 96.3429 96.4114 97.8966 96.4114C99.4502 96.4114 100.859 96.6631 102.123 97.1666C103.387 97.6436 104.467 98.3326 105.362 99.2336C106.284 100.108 106.995 101.181 107.495 102.453C107.995 103.725 108.246 105.13 108.246 106.667ZM94.4206 106.667C94.4206 108.283 94.7234 109.529 95.3291 110.403C95.9611 111.251 96.8301 111.675 97.9361 111.675C99.0421 111.675 99.8847 111.238 100.464 110.364C101.07 109.489 101.373 108.257 101.373 106.667C101.373 105.077 101.07 103.858 100.464 103.01C99.8584 102.135 99.0026 101.698 97.8966 101.698C96.7906 101.698 95.9347 102.135 95.3291 103.01C94.7234 103.858 94.4206 105.077 94.4206 106.667Z" fill="#00857C"/>
<path d="M111.522 97.2859C111.785 97.2064 112.193 97.1269 112.746 97.0474C113.325 96.9679 113.918 96.9281 114.524 96.9281C115.103 96.9281 115.616 96.9679 116.064 97.0474C116.538 97.1269 116.933 97.2859 117.249 97.5244C117.565 97.7629 117.802 98.0941 117.96 98.5181C118.144 98.9156 118.237 99.4456 118.237 100.108V108.654C118.237 109.741 118.5 110.523 119.027 111C119.553 111.45 120.317 111.675 121.318 111.675C121.923 111.675 122.41 111.622 122.779 111.516C123.174 111.41 123.477 111.304 123.688 111.198V97.2859C123.951 97.2064 124.359 97.1269 124.912 97.0474C125.491 96.9679 126.084 96.9281 126.69 96.9281C127.269 96.9281 127.782 96.9679 128.23 97.0474C128.704 97.1269 129.099 97.2859 129.415 97.5244C129.731 97.7629 129.968 98.0941 130.126 98.5181C130.31 98.9156 130.403 99.4456 130.403 100.108V112.192C130.403 113.517 129.85 114.511 128.744 115.173C127.822 115.756 126.716 116.194 125.426 116.485C124.162 116.803 122.779 116.962 121.278 116.962C119.856 116.962 118.539 116.803 117.328 116.485C116.143 116.167 115.116 115.677 114.247 115.014C113.378 114.352 112.707 113.504 112.233 112.47C111.759 111.41 111.522 110.138 111.522 108.654V97.2859Z" fill="#00857C"/>
<path d="M145.335 101.738C144.676 101.738 144.044 101.844 143.439 102.056C142.859 102.268 142.346 102.586 141.898 103.01C141.477 103.407 141.135 103.911 140.871 104.52C140.608 105.13 140.476 105.845 140.476 106.667C140.476 108.31 140.937 109.542 141.859 110.364C142.807 111.185 143.952 111.596 145.295 111.596C146.085 111.596 146.77 111.503 147.349 111.318C147.929 111.132 148.442 110.933 148.89 110.721C149.416 111.092 149.811 111.503 150.075 111.954C150.338 112.378 150.47 112.894 150.47 113.504C150.47 114.59 149.956 115.438 148.929 116.048C147.902 116.631 146.48 116.922 144.663 116.922C143.004 116.922 141.503 116.684 140.16 116.207C138.817 115.703 137.659 115.014 136.684 114.14C135.736 113.239 134.999 112.166 134.472 110.92C133.946 109.675 133.682 108.297 133.682 106.786C133.682 105.037 133.959 103.513 134.512 102.215C135.091 100.89 135.868 99.8034 136.842 98.9554C137.817 98.1074 138.936 97.4714 140.2 97.0474C141.49 96.6234 142.846 96.4114 144.268 96.4114C146.164 96.4114 147.626 96.7559 148.653 97.4449C149.68 98.1339 150.193 99.0216 150.193 100.108C150.193 100.612 150.075 101.089 149.838 101.539C149.601 101.963 149.324 102.334 149.008 102.652C148.561 102.44 148.021 102.241 147.389 102.056C146.757 101.844 146.072 101.738 145.335 101.738Z" fill="#00857C"/>
<path d="M162.054 112.033C162.501 112.033 162.988 111.993 163.515 111.914C164.068 111.808 164.476 111.675 164.74 111.516V108.336L161.896 108.575C161.158 108.628 160.553 108.787 160.079 109.052C159.605 109.317 159.368 109.714 159.368 110.244C159.368 110.774 159.565 111.212 159.96 111.556C160.381 111.874 161.079 112.033 162.054 112.033ZM161.737 96.4114C163.159 96.4114 164.45 96.5571 165.609 96.8486C166.794 97.1401 167.794 97.5906 168.611 98.2001C169.453 98.7831 170.098 99.5384 170.546 100.466C170.994 101.367 171.218 102.44 171.218 103.686V112.59C171.218 113.279 171.02 113.848 170.625 114.299C170.256 114.723 169.809 115.094 169.282 115.412C167.57 116.445 165.161 116.962 162.054 116.962C160.658 116.962 159.394 116.83 158.261 116.565C157.155 116.3 156.194 115.902 155.378 115.372C154.588 114.842 153.969 114.166 153.522 113.345C153.1 112.523 152.89 111.569 152.89 110.483C152.89 108.654 153.429 107.25 154.509 106.269C155.589 105.289 157.261 104.679 159.526 104.441L164.7 103.884V103.606C164.7 102.838 164.358 102.294 163.673 101.976C163.015 101.632 162.054 101.46 160.79 101.46C159.789 101.46 158.815 101.566 157.867 101.778C156.919 101.99 156.063 102.255 155.299 102.573C154.957 102.334 154.667 101.976 154.43 101.499C154.193 100.996 154.075 100.479 154.075 99.9491C154.075 99.2601 154.233 98.7169 154.549 98.3194C154.891 97.8954 155.404 97.5376 156.089 97.2461C156.853 96.9546 157.748 96.7426 158.775 96.6101C159.828 96.4776 160.816 96.4114 161.737 96.4114Z" fill="#00857C"/>
<path d="M187.489 104.083C187.489 103.262 187.252 102.665 186.778 102.294C186.331 101.897 185.712 101.698 184.922 101.698C184.395 101.698 183.869 101.764 183.342 101.897C182.842 102.029 182.407 102.228 182.038 102.493V116.286C181.775 116.366 181.354 116.445 180.774 116.525C180.221 116.604 179.642 116.644 179.036 116.644C178.457 116.644 177.93 116.604 177.456 116.525C177.009 116.445 176.627 116.286 176.311 116.048C175.995 115.809 175.745 115.491 175.56 115.094C175.402 114.67 175.323 114.127 175.323 113.464V101.539C175.323 100.824 175.468 100.241 175.758 99.7901C176.074 99.3396 176.495 98.9289 177.022 98.5579C177.917 97.9219 179.036 97.4051 180.379 97.0076C181.749 96.6101 183.263 96.4114 184.922 96.4114C187.898 96.4114 190.189 97.0739 191.795 98.3989C193.401 99.6974 194.204 101.513 194.204 103.845V116.286C193.941 116.366 193.52 116.445 192.94 116.525C192.387 116.604 191.808 116.644 191.202 116.644C190.623 116.644 190.096 116.604 189.622 116.525C189.175 116.445 188.793 116.286 188.477 116.048C188.161 115.809 187.911 115.491 187.726 115.094C187.568 114.67 187.489 114.127 187.489 113.464V104.083Z" fill="#00857C"/>
<path d="M81.4281 148.915V184.593H98.4609V194H70.6776V148.915H81.4281ZM118.111 195.075C115.333 195.075 112.724 194.358 110.283 192.925C107.842 191.492 105.86 189.442 104.337 186.777C102.836 184.112 102.086 180.954 102.086 177.303C102.086 173.652 102.836 170.528 104.337 167.93C105.837 165.31 107.808 163.305 110.249 161.916C112.691 160.528 115.311 159.834 118.111 159.834C120.888 159.834 123.307 160.393 125.367 161.513C127.428 162.611 129.085 164.1 130.339 165.982C131.616 167.863 132.445 169.991 132.825 172.365C133.229 174.716 133.15 177.146 132.59 179.655H110.585V174.212H124.729L123.184 175.22C123.251 174.436 123.217 173.641 123.083 172.835C122.971 172.029 122.736 171.29 122.377 170.618C122.019 169.923 121.504 169.375 120.832 168.971C120.182 168.546 119.342 168.333 118.312 168.333C117.17 168.333 116.173 168.613 115.322 169.173C114.494 169.711 113.844 170.506 113.374 171.558C112.926 172.589 112.702 173.854 112.702 175.355V179.588C112.702 180.999 112.903 182.219 113.307 183.25C113.71 184.28 114.303 185.086 115.087 185.668C115.893 186.228 116.901 186.508 118.111 186.508C119.096 186.508 119.958 186.307 120.697 185.904C121.437 185.5 121.952 184.862 122.243 183.989H132.926C132.59 186.049 131.762 187.919 130.44 189.599C129.141 191.279 127.439 192.611 125.334 193.597C123.251 194.582 120.843 195.075 118.111 195.075ZM162.479 194L161.102 185.164V172.768C161.102 171.11 160.799 169.823 160.195 168.904C159.59 167.986 158.302 167.527 156.331 167.527C155.167 167.527 154.215 167.706 153.476 168.064C152.759 168.4 152.221 168.86 151.863 169.442C151.527 170.002 151.359 170.618 151.359 171.29H139.735C139.735 168.692 140.351 166.553 141.583 164.873C142.815 163.171 144.662 161.905 147.126 161.077C149.59 160.248 152.658 159.834 156.331 159.834C159.534 159.834 162.289 160.326 164.596 161.312C166.925 162.297 168.717 163.775 169.971 165.746C171.225 167.717 171.852 170.192 171.852 173.171V194H162.479ZM152.065 195.075C149.108 195.075 146.611 194.582 144.573 193.597C142.557 192.589 141.034 191.234 140.004 189.532C138.974 187.83 138.459 185.948 138.459 183.888C138.459 181.939 138.996 180.26 140.071 178.849C141.146 177.415 142.736 176.306 144.842 175.523C146.969 174.739 149.579 174.347 152.669 174.347C154.551 174.347 156.208 174.448 157.641 174.649C159.097 174.851 160.587 175.097 162.11 175.388V181.435C160.99 181.189 159.825 180.999 158.616 180.864C157.429 180.73 156.264 180.663 155.122 180.663C153.532 180.663 152.266 180.92 151.326 181.435C150.407 181.928 149.948 182.746 149.948 183.888C149.948 184.716 150.362 185.444 151.191 186.072C152.02 186.676 153.33 186.979 155.122 186.979C156.645 186.979 157.843 186.676 158.716 186.072C159.59 185.467 160.206 184.705 160.564 183.787C160.923 182.869 161.102 181.962 161.102 181.066H163.621C163.621 183.619 163.218 185.96 162.412 188.087C161.606 190.215 160.351 191.917 158.649 193.194C156.947 194.448 154.752 195.075 152.065 195.075ZM181.6 194V160.707H192.351V194H181.6ZM190.066 179.89C190.066 175.388 190.637 171.693 191.78 168.804C192.922 165.914 194.366 163.775 196.113 162.387C197.86 160.998 199.641 160.304 201.455 160.304C201.813 160.304 202.172 160.326 202.53 160.371C202.888 160.393 203.224 160.438 203.538 160.505L203.639 171.323C203.079 171.256 202.508 171.211 201.925 171.189C201.343 171.144 200.794 171.122 200.279 171.122C198.711 171.122 197.323 171.413 196.113 171.995C194.926 172.577 193.997 173.507 193.325 174.783C192.676 176.06 192.351 177.762 192.351 179.89H190.066ZM231.139 194V174.716C231.139 172.969 230.714 171.682 229.863 170.853C229.012 170.002 227.981 169.576 226.772 169.576C225.54 169.576 224.409 169.923 223.379 170.618C222.349 171.312 221.52 172.432 220.893 173.977C220.288 175.5 219.986 177.527 219.986 180.058H216.727C216.727 175.31 217.287 171.446 218.407 168.468C219.549 165.489 221.094 163.305 223.043 161.916C225.014 160.528 227.242 159.834 229.728 159.834C232.573 159.834 234.891 160.472 236.683 161.749C238.497 163.025 239.829 164.783 240.68 167.023C241.531 169.263 241.957 171.827 241.957 174.716V194H231.139ZM209.235 194V160.909H218.709L219.986 166.385V194H209.235ZM290.473 194L289.095 185.164V172.768C289.095 171.11 288.793 169.823 288.188 168.904C287.583 167.986 286.296 167.527 284.325 167.527C283.16 167.527 282.208 167.706 281.469 168.064C280.752 168.4 280.215 168.86 279.856 169.442C279.521 170.002 279.353 170.618 279.353 171.29H267.729C267.729 168.692 268.344 166.553 269.576 164.873C270.808 163.171 272.656 161.905 275.12 161.077C277.583 160.248 280.652 159.834 284.325 159.834C287.527 159.834 290.282 160.326 292.589 161.312C294.918 162.297 296.71 163.775 297.964 165.746C299.219 167.717 299.846 170.192 299.846 173.171V194H290.473ZM280.058 195.075C277.102 195.075 274.604 194.582 272.566 193.597C270.551 192.589 269.028 191.234 267.997 189.532C266.967 187.83 266.452 185.948 266.452 183.888C266.452 181.939 266.989 180.26 268.065 178.849C269.14 177.415 270.73 176.306 272.835 175.523C274.963 174.739 277.572 174.347 280.663 174.347C282.544 174.347 284.201 174.448 285.635 174.649C287.091 174.851 288.58 175.097 290.103 175.388V181.435C288.983 181.189 287.819 180.999 286.609 180.864C285.422 180.73 284.257 180.663 283.115 180.663C281.525 180.663 280.26 180.92 279.319 181.435C278.401 181.928 277.942 182.746 277.942 183.888C277.942 184.716 278.356 185.444 279.185 186.072C280.013 186.676 281.323 186.979 283.115 186.979C284.638 186.979 285.836 186.676 286.71 186.072C287.583 185.467 288.199 184.705 288.558 183.787C288.916 182.869 289.095 181.962 289.095 181.066H291.615C291.615 183.619 291.212 185.96 290.405 188.087C289.599 190.215 288.345 191.917 286.643 193.194C284.941 194.448 282.746 195.075 280.058 195.075ZM348.7 194V174.716C348.7 172.969 348.274 171.682 347.423 170.853C346.572 170.002 345.542 169.576 344.332 169.576C343.101 169.576 341.97 169.923 340.939 170.618C339.909 171.312 339.08 172.432 338.453 173.977C337.849 175.5 337.546 177.527 337.546 180.058H334.287C334.287 175.31 334.847 171.446 335.967 168.468C337.109 165.489 338.655 163.305 340.603 161.916C342.574 160.528 344.803 159.834 347.289 159.834C350.133 159.834 352.451 160.472 354.243 161.749C356.057 163.025 357.39 164.783 358.241 167.023C359.092 169.263 359.518 171.827 359.518 174.716V194H348.7ZM326.796 194V160.909H336.27L337.546 166.385V194H326.796ZM382.365 195.075C379.588 195.075 376.979 194.358 374.537 192.925C372.096 191.492 370.114 189.442 368.591 186.777C367.09 184.112 366.34 180.954 366.34 177.303C366.34 173.652 367.09 170.528 368.591 167.93C370.092 165.31 372.063 163.305 374.504 161.916C376.945 160.528 379.565 159.834 382.365 159.834C385.142 159.834 387.561 160.393 389.622 161.513C391.682 162.611 393.34 164.1 394.594 165.982C395.87 167.863 396.699 169.991 397.08 172.365C397.483 174.716 397.405 177.146 396.845 179.655H374.84V174.212H388.983L387.438 175.22C387.505 174.436 387.472 173.641 387.337 172.835C387.225 172.029 386.99 171.29 386.632 170.618C386.273 169.923 385.758 169.375 385.086 168.971C384.437 168.546 383.597 168.333 382.567 168.333C381.424 168.333 380.428 168.613 379.577 169.173C378.748 169.711 378.098 170.506 377.628 171.558C377.18 172.589 376.956 173.854 376.956 175.355V179.588C376.956 180.999 377.158 182.219 377.561 183.25C377.964 184.28 378.558 185.086 379.342 185.668C380.148 186.228 381.156 186.508 382.365 186.508C383.351 186.508 384.213 186.307 384.952 185.904C385.691 185.5 386.206 184.862 386.497 183.989H397.181C396.845 186.049 396.016 187.919 394.695 189.599C393.396 191.279 391.693 192.611 389.588 193.597C387.505 194.582 385.098 195.075 382.365 195.075ZM399.723 160.909H410.977L416.823 183.451H415.882L421.123 162.891H431.269L436.577 183.518H435.569L441.415 160.909H452.165L441.213 194H430.597L425.121 174.548H426.767L421.526 194H410.776L399.723 160.909ZM70.6776 271V224.638H81.4281V271H70.6776ZM113.65 271L112.273 262.164V249.768C112.273 248.11 111.971 246.823 111.366 245.904C110.761 244.986 109.473 244.527 107.502 244.527C106.338 244.527 105.386 244.706 104.647 245.064C103.93 245.4 103.393 245.86 103.034 246.442C102.698 247.002 102.53 247.618 102.53 248.29H90.9063C90.9063 245.692 91.5222 243.553 92.7541 241.873C93.9859 240.171 95.8336 238.905 98.2973 238.077C100.761 237.248 103.829 236.834 107.502 236.834C110.705 236.834 113.46 237.326 115.767 238.312C118.096 239.297 119.888 240.775 121.142 242.746C122.396 244.717 123.023 247.192 123.023 250.171V271H113.65ZM103.236 272.075C100.279 272.075 97.7822 271.582 95.744 270.597C93.7283 269.589 92.2053 268.234 91.1751 266.532C90.1448 264.83 89.6297 262.948 89.6297 260.888C89.6297 258.939 90.1672 257.26 91.2423 255.849C92.3173 254.415 93.9075 253.306 96.0128 252.523C98.1405 251.739 100.75 251.347 103.841 251.347C105.722 251.347 107.379 251.448 108.813 251.649C110.268 251.851 111.758 252.097 113.281 252.388V258.435C112.161 258.189 110.996 257.999 109.787 257.864C108.6 257.73 107.435 257.663 106.293 257.663C104.703 257.663 103.437 257.92 102.497 258.435C101.578 258.928 101.119 259.746 101.119 260.888C101.119 261.716 101.534 262.444 102.362 263.072C103.191 263.676 104.501 263.979 106.293 263.979C107.816 263.979 109.014 263.676 109.888 263.072C110.761 262.467 111.377 261.705 111.735 260.787C112.094 259.869 112.273 258.962 112.273 258.066H114.793C114.793 260.619 114.389 262.96 113.583 265.087C112.777 267.215 111.523 268.917 109.82 270.194C108.118 271.448 105.923 272.075 103.236 272.075ZM154.676 271V251.716C154.676 249.969 154.25 248.682 153.399 247.853C152.548 247.002 151.518 246.576 150.308 246.576C149.076 246.576 147.945 246.923 146.915 247.618C145.885 248.312 145.056 249.432 144.429 250.977C143.824 252.5 143.522 254.527 143.522 257.058H140.263C140.263 252.31 140.823 248.446 141.943 245.468C143.085 242.489 144.631 240.305 146.579 238.916C148.55 237.528 150.779 236.834 153.265 236.834C156.109 236.834 158.427 237.472 160.219 238.749C162.033 240.025 163.366 241.783 164.217 244.023C165.068 246.263 165.493 248.827 165.493 251.716V271H154.676ZM132.771 271V237.909H142.245L143.522 243.385V271H132.771ZM188.946 288.234C184.735 288.234 181.174 287.663 178.262 286.521C175.373 285.401 173.178 283.934 171.678 282.12C170.199 280.328 169.46 278.425 169.46 276.409C169.46 274.281 170.222 272.613 171.745 271.403C173.268 270.194 175.127 269.589 177.322 269.589L186.157 272.109C184.209 272.109 182.708 272.422 181.655 273.049C180.603 273.699 180.076 274.617 180.076 275.804C180.076 277.148 180.905 278.133 182.562 278.761C184.242 279.388 186.37 279.701 188.946 279.701C190.76 279.701 192.305 279.41 193.582 278.828C194.858 278.268 195.821 277.54 196.471 276.644C197.143 275.748 197.479 274.819 197.479 273.856C197.479 273.273 197.311 272.837 196.975 272.545C196.661 272.254 196.157 272.109 195.463 272.109H186.157C183.94 272.109 181.812 271.728 179.774 270.966C177.736 270.205 176.067 269.163 174.768 267.842C173.492 266.498 172.853 264.986 172.853 263.307C172.853 261.918 173.234 260.697 173.996 259.645C174.757 258.592 175.832 257.775 177.221 257.192C178.632 256.61 180.267 256.319 182.126 256.319L185.216 259.645C184.589 259.645 184.018 259.746 183.503 259.947C183.01 260.149 182.618 260.451 182.327 260.854C182.036 261.235 181.891 261.716 181.891 262.299C181.891 263.06 182.227 263.654 182.898 264.079C183.57 264.483 184.657 264.684 186.157 264.684H195.463C199.405 264.684 202.496 265.322 204.735 266.599C206.975 267.853 208.095 270.003 208.095 273.049C208.095 275.647 207.3 278.1 205.71 280.407C204.119 282.736 201.891 284.617 199.024 286.051C196.157 287.506 192.798 288.234 188.946 288.234ZM188.778 260.216C186.09 260.216 183.593 259.746 181.286 258.805C179.001 257.842 177.154 256.498 175.743 254.773C174.332 253.027 173.626 250.966 173.626 248.592C173.626 246.151 174.332 244.057 175.743 242.31C177.154 240.54 179.001 239.185 181.286 238.245C183.593 237.304 186.09 236.834 188.778 236.834C191.42 236.834 193.895 237.304 196.202 238.245C198.509 239.185 200.379 240.54 201.813 242.31C203.246 244.057 203.963 246.151 203.963 248.592C203.963 250.966 203.246 253.027 201.813 254.773C200.379 256.498 198.509 257.842 196.202 258.805C193.895 259.746 191.42 260.216 188.778 260.216ZM188.912 252.859C190.547 252.859 191.7 252.444 192.372 251.616C193.067 250.787 193.414 249.779 193.414 248.592C193.414 247.203 193.067 246.117 192.372 245.333C191.678 244.527 190.48 244.124 188.778 244.124C187.232 244.124 186.09 244.527 185.351 245.333C184.612 246.117 184.242 247.203 184.242 248.592C184.242 249.779 184.612 250.787 185.351 251.616C186.112 252.444 187.299 252.859 188.912 252.859ZM201.409 242.209L196.572 239.017C196.572 236.979 197.109 235.21 198.184 233.709C199.259 232.209 200.637 231.044 202.317 230.215C203.996 229.387 205.721 228.972 207.49 228.972L207.087 239.118C205.228 239.118 203.817 239.376 202.854 239.891C201.891 240.383 201.409 241.156 201.409 242.209ZM236.118 237.707H246.869V271H236.118V237.707ZM214.181 237.707H224.931V257.73C224.931 259.253 225.312 260.384 226.073 261.123C226.857 261.84 227.854 262.198 229.063 262.198C230.161 262.198 231.247 261.929 232.322 261.392C233.419 260.854 234.326 259.936 235.043 258.637C235.76 257.338 236.118 255.535 236.118 253.228H238.47C238.47 257.618 237.966 261.168 236.958 263.878C235.95 266.565 234.573 268.525 232.826 269.757C231.101 270.989 229.142 271.605 226.947 271.605C224.729 271.605 222.647 271.224 220.698 270.462C218.749 269.701 217.17 268.402 215.961 266.565C214.774 264.729 214.181 262.198 214.181 258.973V237.707ZM278.979 271L277.602 262.164V249.768C277.602 248.11 277.299 246.823 276.695 245.904C276.09 244.986 274.802 244.527 272.831 244.527C271.667 244.527 270.715 244.706 269.976 245.064C269.259 245.4 268.721 245.86 268.363 246.442C268.027 247.002 267.859 247.618 267.859 248.29H256.235C256.235 245.692 256.851 243.553 258.083 241.873C259.315 240.171 261.162 238.905 263.626 238.077C266.09 237.248 269.158 236.834 272.831 236.834C276.034 236.834 278.789 237.326 281.096 238.312C283.425 239.297 285.217 240.775 286.471 242.746C287.725 244.717 288.352 247.192 288.352 250.171V271H278.979ZM268.565 272.075C265.608 272.075 263.111 271.582 261.073 270.597C259.057 269.589 257.534 268.234 256.504 266.532C255.474 264.83 254.959 262.948 254.959 260.888C254.959 258.939 255.496 257.26 256.571 255.849C257.646 254.415 259.236 253.306 261.342 252.523C263.469 251.739 266.079 251.347 269.169 251.347C271.051 251.347 272.708 251.448 274.141 251.649C275.597 251.851 277.087 252.097 278.61 252.388V258.435C277.49 258.189 276.325 257.999 275.116 257.864C273.929 257.73 272.764 257.663 271.622 257.663C270.032 257.663 268.766 257.92 267.826 258.435C266.907 258.928 266.448 259.746 266.448 260.888C266.448 261.716 266.862 262.444 267.691 263.072C268.52 263.676 269.83 263.979 271.622 263.979C273.145 263.979 274.343 263.676 275.216 263.072C276.09 262.467 276.706 261.705 277.064 260.787C277.423 259.869 277.602 258.962 277.602 258.066H280.121C280.121 260.619 279.718 262.96 278.912 265.087C278.106 267.215 276.851 268.917 275.149 270.194C273.447 271.448 271.252 272.075 268.565 272.075ZM311.942 288.234C307.731 288.234 304.17 287.663 301.258 286.521C298.369 285.401 296.174 283.934 294.674 282.12C293.195 280.328 292.456 278.425 292.456 276.409C292.456 274.281 293.218 272.613 294.741 271.403C296.264 270.194 298.123 269.589 300.318 269.589L309.153 272.109C307.205 272.109 305.704 272.422 304.651 273.049C303.599 273.699 303.072 274.617 303.072 275.804C303.072 277.148 303.901 278.133 305.558 278.761C307.238 279.388 309.366 279.701 311.942 279.701C313.756 279.701 315.301 279.41 316.578 278.828C317.854 278.268 318.817 277.54 319.467 276.644C320.139 275.748 320.475 274.819 320.475 273.856C320.475 273.273 320.307 272.837 319.971 272.545C319.657 272.254 319.153 272.109 318.459 272.109H309.153C306.936 272.109 304.808 271.728 302.77 270.966C300.732 270.205 299.063 269.163 297.764 267.842C296.488 266.498 295.849 264.986 295.849 263.307C295.849 261.918 296.23 260.697 296.992 259.645C297.753 258.592 298.828 257.775 300.217 257.192C301.628 256.61 303.263 256.319 305.122 256.319L308.212 259.645C307.585 259.645 307.014 259.746 306.499 259.947C306.006 260.149 305.614 260.451 305.323 260.854C305.032 261.235 304.887 261.716 304.887 262.299C304.887 263.06 305.222 263.654 305.894 264.079C306.566 264.483 307.653 264.684 309.153 264.684H318.459C322.401 264.684 325.492 265.322 327.731 266.599C329.971 267.853 331.091 270.003 331.091 273.049C331.091 275.647 330.296 278.1 328.706 280.407C327.115 282.736 324.887 284.617 322.02 286.051C319.153 287.506 315.794 288.234 311.942 288.234ZM311.774 260.216C309.086 260.216 306.589 259.746 304.282 258.805C301.997 257.842 300.15 256.498 298.739 254.773C297.328 253.027 296.622 250.966 296.622 248.592C296.622 246.151 297.328 244.057 298.739 242.31C300.15 240.54 301.997 239.185 304.282 238.245C306.589 237.304 309.086 236.834 311.774 236.834C314.416 236.834 316.891 237.304 319.198 238.245C321.505 239.185 323.375 240.54 324.809 242.31C326.242 244.057 326.959 246.151 326.959 248.592C326.959 250.966 326.242 253.027 324.809 254.773C323.375 256.498 321.505 257.842 319.198 258.805C316.891 259.746 314.416 260.216 311.774 260.216ZM311.908 252.859C313.543 252.859 314.696 252.444 315.368 251.616C316.063 250.787 316.41 249.779 316.41 248.592C316.41 247.203 316.063 246.117 315.368 245.333C314.674 244.527 313.476 244.124 311.774 244.124C310.228 244.124 309.086 244.527 308.347 245.333C307.608 246.117 307.238 247.203 307.238 248.592C307.238 249.779 307.608 250.787 308.347 251.616C309.108 252.444 310.295 252.859 311.908 252.859ZM324.405 242.209L319.568 239.017C319.568 236.979 320.105 235.21 321.18 233.709C322.255 232.209 323.633 231.044 325.312 230.215C326.992 229.387 328.717 228.972 330.486 228.972L330.083 239.118C328.224 239.118 326.813 239.376 325.85 239.891C324.887 240.383 324.405 241.156 324.405 242.209ZM350.783 272.075C348.005 272.075 345.396 271.358 342.955 269.925C340.514 268.492 338.532 266.442 337.009 263.777C335.508 261.112 334.758 257.954 334.758 254.303C334.758 250.652 335.508 247.528 337.009 244.93C338.509 242.31 340.48 240.305 342.921 238.916C345.363 237.528 347.983 236.834 350.783 236.834C353.56 236.834 355.979 237.393 358.039 238.513C360.1 239.611 361.757 241.1 363.011 242.982C364.288 244.863 365.117 246.991 365.497 249.365C365.9 251.716 365.822 254.146 365.262 256.655H343.257V251.212H357.401L355.855 252.22C355.923 251.436 355.889 250.641 355.755 249.835C355.643 249.029 355.408 248.29 355.049 247.618C354.691 246.923 354.176 246.375 353.504 245.971C352.854 245.546 352.014 245.333 350.984 245.333C349.842 245.333 348.845 245.613 347.994 246.173C347.166 246.711 346.516 247.506 346.046 248.558C345.598 249.589 345.374 250.854 345.374 252.355V256.588C345.374 257.999 345.575 259.219 345.978 260.25C346.382 261.28 346.975 262.086 347.759 262.668C348.565 263.228 349.573 263.508 350.783 263.508C351.768 263.508 352.63 263.307 353.369 262.904C354.109 262.5 354.624 261.862 354.915 260.989H365.598C365.262 263.049 364.433 264.919 363.112 266.599C361.813 268.279 360.111 269.611 358.006 270.597C355.923 271.582 353.515 272.075 350.783 272.075ZM82.9063 349.075C80.801 349.075 78.8301 348.694 76.9935 347.933C75.1794 347.171 73.7124 345.984 72.5925 344.372C71.4951 342.737 70.9464 340.643 70.9464 338.089V306.543H81.7641V337.686C81.7641 339.702 82.7607 340.71 84.754 340.71C85.3812 340.71 86.0419 340.643 86.7362 340.508C87.4529 340.351 88.2815 340.105 89.2222 339.769L90.8012 347.261C89.435 347.754 88.1248 348.179 86.8705 348.538C85.6387 348.896 84.3173 349.075 82.9063 349.075ZM67.0157 321.863V314.909H89.2894V321.863H67.0157ZM119.495 348V328.716C119.495 326.969 119.069 325.682 118.218 324.853C117.367 324.002 116.337 323.576 115.127 323.576C113.896 323.576 112.765 323.923 111.734 324.618C110.704 325.312 109.875 326.432 109.248 327.977C108.644 329.5 108.341 331.527 108.341 334.058H105.082C105.082 329.31 105.642 325.446 106.762 322.468C107.904 319.489 109.45 317.305 111.398 315.916C113.369 314.528 115.598 313.834 118.084 313.834C120.928 313.834 123.246 314.472 125.038 315.749C126.852 317.025 128.185 318.783 129.036 321.023C129.887 323.263 130.313 325.827 130.313 328.716V348H119.495ZM97.5907 348V301.638H108.341V348H97.5907ZM153.16 349.075C150.383 349.075 147.774 348.358 145.332 346.925C142.891 345.492 140.909 343.442 139.386 340.777C137.885 338.112 137.135 334.954 137.135 331.303C137.135 327.652 137.885 324.528 139.386 321.93C140.887 319.31 142.858 317.305 145.299 315.916C147.74 314.528 150.361 313.834 153.16 313.834C155.937 313.834 158.356 314.393 160.417 315.513C162.477 316.611 164.135 318.1 165.389 319.982C166.665 321.863 167.494 323.991 167.875 326.365C168.278 328.716 168.2 331.146 167.64 333.655H145.635V328.212H159.778L158.233 329.22C158.3 328.436 158.267 327.641 158.132 326.835C158.02 326.029 157.785 325.29 157.427 324.618C157.068 323.923 156.553 323.375 155.881 322.971C155.232 322.546 154.392 322.333 153.362 322.333C152.219 322.333 151.223 322.613 150.372 323.173C149.543 323.711 148.894 324.506 148.423 325.558C147.975 326.589 147.751 327.854 147.751 329.355V333.588C147.751 334.999 147.953 336.219 148.356 337.25C148.759 338.28 149.353 339.086 150.137 339.668C150.943 340.228 151.951 340.508 153.16 340.508C154.146 340.508 155.008 340.307 155.747 339.904C156.486 339.5 157.001 338.862 157.292 337.989H167.976C167.64 340.049 166.811 341.919 165.49 343.599C164.191 345.279 162.488 346.611 160.383 347.597C158.3 348.582 155.893 349.075 153.16 349.075ZM214.932 348V328.716C214.932 326.969 214.507 325.682 213.656 324.853C212.805 324.002 211.774 323.576 210.565 323.576C209.333 323.576 208.202 323.923 207.172 324.618C206.141 325.312 205.313 326.432 204.686 327.977C204.081 329.5 203.779 331.527 203.779 334.058H200.52C200.52 329.31 201.08 325.446 202.2 322.468C203.342 319.489 204.887 317.305 206.836 315.916C208.807 314.528 211.035 313.834 213.521 313.834C216.366 313.834 218.684 314.472 220.475 315.749C222.29 317.025 223.622 318.783 224.473 321.023C225.324 323.263 225.75 325.827 225.75 328.716V348H214.932ZM193.028 348V314.909H202.502L203.779 320.385V348H193.028ZM257.063 348L255.686 339.164V326.768C255.686 325.11 255.384 323.823 254.779 322.904C254.174 321.986 252.886 321.527 250.916 321.527C249.751 321.527 248.799 321.706 248.06 322.064C247.343 322.4 246.806 322.86 246.447 323.442C246.111 324.002 245.943 324.618 245.943 325.29H234.319C234.319 322.692 234.935 320.553 236.167 318.873C237.399 317.171 239.247 315.905 241.71 315.077C244.174 314.248 247.242 313.834 250.916 313.834C254.118 313.834 256.873 314.326 259.18 315.312C261.509 316.297 263.301 317.775 264.555 319.746C265.809 321.717 266.437 324.192 266.437 327.171V348H257.063ZM246.649 349.075C243.693 349.075 241.195 348.582 239.157 347.597C237.141 346.589 235.618 345.234 234.588 343.532C233.558 341.83 233.043 339.948 233.043 337.888C233.043 335.939 233.58 334.26 234.655 332.849C235.73 331.415 237.321 330.306 239.426 329.523C241.554 328.739 244.163 328.347 247.254 328.347C249.135 328.347 250.792 328.448 252.226 328.649C253.682 328.851 255.171 329.097 256.694 329.388V335.435C255.574 335.189 254.409 334.999 253.2 334.864C252.013 334.73 250.848 334.663 249.706 334.663C248.116 334.663 246.851 334.92 245.91 335.435C244.992 335.928 244.532 336.746 244.532 337.888C244.532 338.716 244.947 339.444 245.775 340.072C246.604 340.676 247.914 340.979 249.706 340.979C251.229 340.979 252.427 340.676 253.301 340.072C254.174 339.467 254.79 338.705 255.149 337.787C255.507 336.869 255.686 335.962 255.686 335.066H258.206C258.206 337.619 257.803 339.96 256.996 342.087C256.19 344.215 254.936 345.917 253.234 347.194C251.531 348.448 249.337 349.075 246.649 349.075ZM288.413 349.075C286.308 349.075 284.337 348.694 282.501 347.933C280.686 347.171 279.219 345.984 278.1 344.372C277.002 342.737 276.453 340.643 276.453 338.089V306.543H287.271V337.686C287.271 339.702 288.268 340.71 290.261 340.71C290.888 340.71 291.549 340.643 292.243 340.508C292.96 340.351 293.789 340.105 294.729 339.769L296.308 347.261C294.942 347.754 293.632 348.179 292.378 348.538C291.146 348.896 289.824 349.075 288.413 349.075ZM272.523 321.863V314.909H294.796V321.863H272.523ZM324.666 314.707H335.416V348H324.666V314.707ZM302.728 314.707H313.479V334.73C313.479 336.253 313.859 337.384 314.621 338.123C315.405 338.84 316.401 339.198 317.611 339.198C318.708 339.198 319.795 338.929 320.87 338.392C321.967 337.854 322.874 336.936 323.591 335.637C324.308 334.338 324.666 332.535 324.666 330.228H327.018C327.018 334.618 326.514 338.168 325.506 340.878C324.498 343.565 323.121 345.525 321.374 346.757C319.649 347.989 317.689 348.605 315.494 348.605C313.277 348.605 311.194 348.224 309.246 347.462C307.297 346.701 305.718 345.402 304.509 343.565C303.322 341.729 302.728 339.198 302.728 335.973V314.707ZM345.824 348V314.707H356.575V348H345.824ZM354.29 333.89C354.29 329.388 354.861 325.693 356.004 322.804C357.146 319.914 358.59 317.775 360.337 316.387C362.084 314.998 363.865 314.304 365.679 314.304C366.037 314.304 366.396 314.326 366.754 314.371C367.112 314.393 367.448 314.438 367.762 314.505L367.863 325.323C367.303 325.256 366.732 325.211 366.149 325.189C365.567 325.144 365.018 325.122 364.503 325.122C362.935 325.122 361.547 325.413 360.337 325.995C359.15 326.577 358.221 327.507 357.549 328.783C356.9 330.06 356.575 331.762 356.575 333.89H354.29ZM395.162 348L393.784 339.164V326.768C393.784 325.11 393.482 323.823 392.877 322.904C392.273 321.986 390.985 321.527 389.014 321.527C387.849 321.527 386.897 321.706 386.158 322.064C385.442 322.4 384.904 322.86 384.546 323.442C384.21 324.002 384.042 324.618 384.042 325.29H372.418C372.418 322.692 373.034 320.553 374.265 318.873C375.497 317.171 377.345 315.905 379.809 315.077C382.272 314.248 385.341 313.834 389.014 313.834C392.217 313.834 394.971 314.326 397.278 315.312C399.608 316.297 401.399 317.775 402.654 319.746C403.908 321.717 404.535 324.192 404.535 327.171V348H395.162ZM384.747 349.075C381.791 349.075 379.294 348.582 377.255 347.597C375.24 346.589 373.717 345.234 372.687 343.532C371.656 341.83 371.141 339.948 371.141 337.888C371.141 335.939 371.679 334.26 372.754 332.849C373.829 331.415 375.419 330.306 377.524 329.523C379.652 328.739 382.261 328.347 385.352 328.347C387.233 328.347 388.891 328.448 390.324 328.649C391.78 328.851 393.269 329.097 394.792 329.388V335.435C393.672 335.189 392.508 334.999 391.298 334.864C390.111 334.73 388.947 334.663 387.804 334.663C386.214 334.663 384.949 334.92 384.008 335.435C383.09 335.928 382.631 336.746 382.631 337.888C382.631 338.716 383.045 339.444 383.874 340.072C384.702 340.676 386.013 340.979 387.804 340.979C389.327 340.979 390.526 340.676 391.399 340.072C392.273 339.467 392.888 338.705 393.247 337.787C393.605 336.869 393.784 335.962 393.784 335.066H396.304C396.304 337.619 395.901 339.96 395.095 342.087C394.288 344.215 393.034 345.917 391.332 347.194C389.63 348.448 387.435 349.075 384.747 349.075ZM414.283 348V301.638H425.033V348H414.283ZM65.3695 391.909H76.624L82.4696 414.451H81.5289L86.7698 393.891H96.9155L102.224 414.518H101.216L107.061 391.909H117.812L106.86 425H96.2436L90.7676 405.548H92.4138L87.1729 425H76.4224L65.3695 391.909ZM144.752 425L143.375 416.164V403.768C143.375 402.11 143.072 400.823 142.468 399.904C141.863 398.986 140.575 398.527 138.604 398.527C137.44 398.527 136.488 398.706 135.749 399.064C135.032 399.4 134.494 399.86 134.136 400.442C133.8 401.002 133.632 401.618 133.632 402.29H122.008C122.008 399.692 122.624 397.553 123.856 395.873C125.088 394.171 126.936 392.905 129.399 392.077C131.863 391.248 134.931 390.834 138.604 390.834C141.807 390.834 144.562 391.326 146.869 392.312C149.198 393.297 150.99 394.775 152.244 396.746C153.498 398.717 154.125 401.192 154.125 404.171V425H144.752ZM134.338 426.075C131.381 426.075 128.884 425.582 126.846 424.597C124.83 423.589 123.307 422.234 122.277 420.532C121.247 418.83 120.732 416.948 120.732 414.888C120.732 412.939 121.269 411.26 122.344 409.849C123.419 408.415 125.009 407.306 127.115 406.523C129.242 405.739 131.852 405.347 134.942 405.347C136.824 405.347 138.481 405.448 139.915 405.649C141.37 405.851 142.86 406.097 144.383 406.388V412.435C143.263 412.189 142.098 411.999 140.889 411.864C139.702 411.73 138.537 411.663 137.395 411.663C135.805 411.663 134.539 411.92 133.599 412.435C132.68 412.928 132.221 413.746 132.221 414.888C132.221 415.716 132.636 416.444 133.464 417.072C134.293 417.676 135.603 417.979 137.395 417.979C138.918 417.979 140.116 417.676 140.99 417.072C141.863 416.467 142.479 415.705 142.837 414.787C143.196 413.869 143.375 412.962 143.375 412.066H145.894C145.894 414.619 145.491 416.96 144.685 419.087C143.879 421.215 142.625 422.917 140.922 424.194C139.22 425.448 137.025 426.075 134.338 426.075ZM159.271 391.909H171.567L178.353 415.593H176.707L183.459 391.909H194.344L181.444 430.342C179.876 434.866 178.051 437.979 175.968 439.681C173.907 441.383 171.499 442.234 168.745 442.234C167.065 442.234 165.374 442.078 163.672 441.764C161.992 441.473 160.312 440.98 158.632 440.286V431.047C159.887 431.629 161.107 432.066 162.294 432.357C163.504 432.671 164.68 432.828 165.822 432.828C166.583 432.828 167.3 432.682 167.972 432.391C168.644 432.122 169.26 431.641 169.82 430.946C170.38 430.252 170.85 429.3 171.231 428.091L172.306 425L159.271 391.909ZM223.132 387.642C221.094 387.642 219.515 387.127 218.395 386.097C217.298 385.044 216.749 383.566 216.749 381.662C216.749 379.803 217.298 378.325 218.395 377.227C219.515 376.108 221.094 375.548 223.132 375.548C225.103 375.548 226.66 376.108 227.802 377.227C228.944 378.325 229.515 379.803 229.515 381.662C229.515 383.566 228.944 385.044 227.802 386.097C226.66 387.127 225.103 387.642 223.132 387.642ZM217.757 425V391.707H228.507V425H217.757ZM261.858 425V405.716C261.858 403.969 261.433 402.682 260.582 401.853C259.73 401.002 258.7 400.576 257.491 400.576C256.259 400.576 255.128 400.923 254.098 401.618C253.067 402.312 252.239 403.432 251.612 404.977C251.007 406.5 250.705 408.527 250.705 411.058H247.446C247.446 406.31 248.006 402.446 249.126 399.468C250.268 396.489 251.813 394.305 253.762 392.916C255.733 391.528 257.961 390.834 260.447 390.834C263.292 390.834 265.61 391.472 267.401 392.749C269.216 394.025 270.548 395.783 271.399 398.023C272.25 400.263 272.676 402.827 272.676 405.716V425H261.858ZM239.954 425V391.909H249.428L250.705 397.385V425H239.954ZM297.574 425V416.265C297.574 413.824 297.91 411.719 298.582 409.949C299.254 408.158 300.34 406.623 301.841 405.347C303.341 404.07 305.323 402.973 307.787 402.054L317.362 398.493C319.086 397.821 320.34 397.026 321.124 396.108C321.908 395.19 322.3 394.081 322.3 392.782C322.3 391.595 321.83 390.542 320.889 389.624C319.948 388.683 318.56 388.213 316.723 388.213C315.021 388.213 313.554 388.728 312.322 389.759C311.09 390.789 310.385 392.256 310.206 394.16H298.313C298.291 390.621 299.108 387.732 300.765 385.492C302.445 383.23 304.674 381.572 307.451 380.52C310.228 379.445 313.252 378.907 316.522 378.907C319.702 378.907 322.591 379.49 325.189 380.654C327.81 381.819 329.893 383.465 331.438 385.593C333.006 387.698 333.79 390.206 333.79 393.118C333.79 395.425 333.375 397.474 332.547 399.266C331.718 401.058 330.385 402.659 328.549 404.07C326.712 405.459 324.271 406.724 321.225 407.866L311.718 411.461C310.419 411.954 309.523 412.435 309.03 412.906C308.56 413.354 308.324 413.947 308.324 414.686V415.19H333.655V425H297.574ZM358.067 426.075C354.215 426.075 350.788 425.224 347.787 423.522C344.808 421.82 342.468 419.233 340.766 415.761C339.086 412.267 338.246 407.855 338.246 402.525C338.246 397.127 339.086 392.693 340.766 389.221C342.468 385.727 344.808 383.14 347.787 381.46C350.788 379.758 354.215 378.907 358.067 378.907C361.875 378.907 365.257 379.758 368.213 381.46C371.169 383.14 373.499 385.727 375.201 389.221C376.903 392.693 377.754 397.127 377.754 402.525C377.754 407.855 376.903 412.267 375.201 415.761C373.499 419.233 371.169 421.82 368.213 423.522C365.257 425.224 361.875 426.075 358.067 426.075ZM358.067 416.299C360.665 416.299 362.748 415.145 364.316 412.838C365.884 410.509 366.668 407.071 366.668 402.525C366.668 397.978 365.884 394.529 364.316 392.177C362.748 389.803 360.665 388.616 358.067 388.616C355.357 388.616 353.218 389.803 351.65 392.177C350.105 394.529 349.332 397.978 349.332 402.525C349.332 407.071 350.105 410.509 351.65 412.838C353.218 415.145 355.357 416.299 358.067 416.299ZM383.486 425V416.265C383.486 413.824 383.822 411.719 384.494 409.949C385.166 408.158 386.252 406.623 387.753 405.347C389.254 404.07 391.236 402.973 393.699 402.054L403.274 398.493C404.999 397.821 406.253 397.026 407.037 396.108C407.821 395.19 408.212 394.081 408.212 392.782C408.212 391.595 407.742 390.542 406.801 389.624C405.861 388.683 404.472 388.213 402.636 388.213C400.933 388.213 399.466 388.728 398.235 389.759C397.003 390.789 396.297 392.256 396.118 394.16H384.225C384.203 390.621 385.02 387.732 386.678 385.492C388.358 383.23 390.586 381.572 393.363 380.52C396.141 379.445 399.164 378.907 402.434 378.907C405.614 378.907 408.504 379.49 411.102 380.654C413.722 381.819 415.805 383.465 417.35 385.593C418.918 387.698 419.702 390.206 419.702 393.118C419.702 395.425 419.288 397.474 418.459 399.266C417.63 401.058 416.298 402.659 414.461 404.07C412.625 405.459 410.183 406.724 407.137 407.866L397.63 411.461C396.331 411.954 395.435 412.435 394.942 412.906C394.472 413.354 394.237 413.947 394.237 414.686V415.19H419.568V425H383.486ZM443.442 426.075C440.934 426.075 438.503 425.739 436.152 425.067C433.8 424.418 431.684 423.443 429.802 422.144C427.943 420.823 426.465 419.188 425.368 417.239C424.27 415.291 423.722 413.029 423.722 410.453H435.178C435.312 411.551 435.715 412.547 436.387 413.443C437.059 414.317 437.977 415.011 439.142 415.526C440.329 416.041 441.762 416.299 443.442 416.299C445.726 416.299 447.552 415.806 448.918 414.821C450.284 413.835 450.967 412.581 450.967 411.058C450.967 410.005 450.699 409.143 450.161 408.471C449.624 407.799 448.84 407.306 447.809 406.993C446.802 406.657 445.559 406.489 444.08 406.489H437.227V398.057H443.912C445.704 398.057 447.104 397.609 448.112 396.713C449.12 395.817 449.624 394.641 449.624 393.185C449.624 391.864 449.142 390.778 448.179 389.927C447.216 389.053 445.637 388.616 443.442 388.616C441.538 388.616 439.836 389.008 438.336 389.792C436.835 390.576 435.95 391.83 435.681 393.555H424.259C424.528 390.195 425.48 387.44 427.115 385.29C428.75 383.118 430.922 381.516 433.632 380.486C436.342 379.434 439.433 378.907 442.904 378.907C446.443 378.907 449.579 379.445 452.311 380.52C455.066 381.595 457.227 383.095 458.795 385.022C460.385 386.948 461.18 389.199 461.18 391.774C461.18 393.992 460.598 395.951 459.433 397.653C458.291 399.356 456.555 400.599 454.226 401.383C456.824 402.413 458.862 403.835 460.34 405.649C461.841 407.441 462.591 409.602 462.591 412.133C462.591 414.865 461.774 417.284 460.139 419.39C458.526 421.495 456.275 423.141 453.386 424.328C450.519 425.493 447.205 426.075 443.442 426.075Z" fill="#003936"/>
</g>
<defs>
<linearGradient id="paint0_linear_2683_128015" x1="600" y1="19.4667" x2="600" y2="675" gradientUnits="userSpaceOnUse">
<stop stop-color="#F5D8AF" stop-opacity="0.62"/>
<stop offset="1" stop-color="#CAE4ED"/>
</linearGradient>
<linearGradient id="paint1_linear_2683_128015" x1="1235.69" y1="1044.56" x2="326.853" y2="750.294" gradientUnits="userSpaceOnUse">
<stop offset="0.02" stop-color="#CAE4ED"/>
<stop offset="1" stop-color="#163B4B" stop-opacity="0.8"/>
</linearGradient>
<radialGradient id="paint2_radial_2683_128015" cx="0" cy="0" r="1" gradientUnits="userSpaceOnUse" gradientTransform="translate(811.617 724.606) rotate(86.7135) scale(357.767 494.142)">
<stop stop-color="white"/>
<stop offset="1" stop-color="white" stop-opacity="0.71"/>
</radialGradient>
<linearGradient id="paint3_linear_2683_128015" x1="1271.76" y1="758.104" x2="537.387" y2="363.632" gradientUnits="userSpaceOnUse">
<stop offset="0.02" stop-color="#CEE9E6"/>
<stop offset="0.25" stop-color="#CBE6E3"/>
<stop offset="0.35" stop-color="#B7D3D1"/>
<stop offset="0.55" stop-color="#85A1A4"/>
<stop offset="0.84" stop-color="#35535B"/>
<stop offset="1" stop-color="#052430"/>
</linearGradient>
<linearGradient id="paint4_linear_2683_128015" x1="1216.85" y1="860.321" x2="482.477" y2="465.855" gradientUnits="userSpaceOnUse">
<stop offset="0.02" stop-color="#CEE9E6"/>
<stop offset="0.25" stop-color="#CBE6E3"/>
<stop offset="0.35" stop-color="#B7D3D1"/>
<stop offset="0.55" stop-color="#85A1A4"/>
<stop offset="0.84" stop-color="#35535B"/>
<stop offset="1" stop-color="#052430"/>
</linearGradient>
<linearGradient id="paint5_linear_2683_128015" x1="1292.81" y1="718.92" x2="558.435" y2="324.441" gradientUnits="userSpaceOnUse">
<stop offset="0.02" stop-color="#CEE9E6"/>
<stop offset="0.25" stop-color="#CBE6E3"/>
<stop offset="0.35" stop-color="#B7D3D1"/>
<stop offset="0.55" stop-color="#85A1A4"/>
<stop offset="0.84" stop-color="#35535B"/>
<stop offset="1" stop-color="#052430"/>
</linearGradient>
<linearGradient id="paint6_linear_2683_128015" x1="822.321" y1="427.942" x2="825.518" y2="427.942" gradientUnits="userSpaceOnUse">
<stop stop-color="white" stop-opacity="0"/>
<stop offset="0.06" stop-color="white" stop-opacity="0.14"/>
<stop offset="0.16" stop-color="white" stop-opacity="0.36"/>
<stop offset="0.26" stop-color="white" stop-opacity="0.56"/>
<stop offset="0.36" stop-color="white" stop-opacity="0.72"/>
<stop offset="0.46" stop-color="white" stop-opacity="0.84"/>
<stop offset="0.56" stop-color="white" stop-opacity="0.93"/>
<stop offset="0.65" stop-color="white" stop-opacity="0.98"/>
<stop offset="0.73" stop-color="white"/>
<stop offset="1" stop-color="white"/>
</linearGradient>
<linearGradient id="paint7_linear_2683_128015" x1="903.438" y1="529.344" x2="903.438" y2="496.901" gradientUnits="userSpaceOnUse">
<stop stop-color="white" stop-opacity="0"/>
<stop offset="0.04" stop-color="white" stop-opacity="0.14"/>
<stop offset="0.13" stop-color="white" stop-opacity="0.36"/>
<stop offset="0.21" stop-color="white" stop-opacity="0.56"/>
<stop offset="0.29" stop-color="white" stop-opacity="0.72"/>
<stop offset="0.37" stop-color="white" stop-opacity="0.84"/>
<stop offset="0.44" stop-color="white" stop-opacity="0.93"/>
<stop offset="0.51" stop-color="white" stop-opacity="0.98"/>
<stop offset="0.58" stop-color="white"/>
<stop offset="1" stop-color="white"/>
</linearGradient>
<linearGradient id="paint8_linear_2683_128015" x1="430.565" y1="871.951" x2="1608.72" y2="82.4222" gradientUnits="userSpaceOnUse">
<stop stop-color="#C9E3EC" stop-opacity="0"/>
<stop offset="0.18" stop-color="#D7E5E6" stop-opacity="0.15"/>
<stop offset="0.42" stop-color="#E9E9DF" stop-opacity="0.33"/>
<stop offset="0.61" stop-color="#F3EBDB" stop-opacity="0.44"/>
<stop offset="0.72" stop-color="#F8ECDA" stop-opacity="0.49"/>
<stop offset="0.77" stop-color="#F6EBDA" stop-opacity="0.47"/>
<stop offset="0.82" stop-color="#F1EADC" stop-opacity="0.42"/>
<stop offset="0.87" stop-color="#EAE9DF" stop-opacity="0.34"/>
<stop offset="0.92" stop-color="#DFE7E3" stop-opacity="0.23"/>
<stop offset="0.97" stop-color="#D1E4E8" stop-opacity="0.09"/>
<stop offset="1" stop-color="#C9E3EC" stop-opacity="0"/>
</linearGradient>
<linearGradient id="paint9_linear_2683_128015" x1="963.28" y1="349.467" x2="963.28" y2="309.609" gradientUnits="userSpaceOnUse">
<stop stop-color="white" stop-opacity="0"/>
<stop offset="0.06" stop-color="white" stop-opacity="0.14"/>
<stop offset="0.16" stop-color="white" stop-opacity="0.36"/>
<stop offset="0.26" stop-color="white" stop-opacity="0.56"/>
<stop offset="0.36" stop-color="white" stop-opacity="0.72"/>
<stop offset="0.46" stop-color="white" stop-opacity="0.84"/>
<stop offset="0.56" stop-color="white" stop-opacity="0.93"/>
<stop offset="0.65" stop-color="white" stop-opacity="0.98"/>
<stop offset="0.73" stop-color="white"/>
<stop offset="1" stop-color="white"/>
</linearGradient>
<linearGradient id="paint10_linear_2683_128015" x1="1171.96" y1="408.196" x2="1171.96" y2="382.117" gradientUnits="userSpaceOnUse">
<stop stop-color="white" stop-opacity="0"/>
<stop offset="0.04" stop-color="white" stop-opacity="0.14"/>
<stop offset="0.13" stop-color="white" stop-opacity="0.36"/>
<stop offset="0.21" stop-color="white" stop-opacity="0.56"/>
<stop offset="0.29" stop-color="white" stop-opacity="0.72"/>
<stop offset="0.37" stop-color="white" stop-opacity="0.84"/>
<stop offset="0.44" stop-color="white" stop-opacity="0.93"/>
<stop offset="0.51" stop-color="white" stop-opacity="0.98"/>
<stop offset="0.58" stop-color="white"/>
<stop offset="1" stop-color="white"/>
</linearGradient>
<clipPath id="clip0_2683_128015">
<rect width="1200" height="675" fill="white"/>
</clipPath>
<clipPath id="clip1_2683_128015">
<rect width="813" height="422" fill="white" transform="matrix(-1 0 0 1 1190.48 290.351)"/>
</clipPath>
</defs>
</svg>
