<svg width="256" height="164" viewBox="0 0 256 164" fill="none" xmlns="http://www.w3.org/2000/svg">
<g clip-path="url(#clip0)">
<rect width="256" height="164" fill="url(#paint0_linear)"/>
<path opacity="0.5" d="M-11.9715 165.073C37.7188 121.82 116.933 138.83 89.5135 102.116C65.5347 70.0151 -11.9715 165.073 -11.9715 165.073Z" fill="#274F4C"/>
<path opacity="0.5" d="M118.691 9.95713C123.832 9.95713 128 5.8925 128 0.878542C128 -4.13541 123.832 -8.20001 118.691 -8.20001C113.55 -8.20001 109.382 -4.13541 109.382 0.878542C109.382 5.8925 113.55 9.95713 118.691 9.95713Z" fill="#274F4C"/>
<path opacity="0.5" d="M97.439 168.293C100.161 168.293 102.367 166.072 102.367 163.332C102.367 160.592 100.161 158.37 97.439 158.37C94.7171 158.37 92.5105 160.592 92.5105 163.332C92.5105 166.072 94.7171 168.293 97.439 168.293Z" fill="#274F4C"/>
<path opacity="0.5" d="M52.0557 88.4086C54.7776 88.4086 56.9842 86.1873 56.9842 83.4472C56.9842 80.707 54.7776 78.4857 52.0557 78.4857C49.3338 78.4857 47.1273 80.707 47.1273 83.4472C47.1273 86.1873 49.3338 88.4086 52.0557 88.4086Z" fill="#274F4C"/>
<path opacity="0.5" d="M73.7393 -130.792C67.1958 -108.156 55.0823 -80.7957 42.4904 -56.9683C48.5857 -47.6262 66.217 -18.6033 60.9399 -2.71037C55.9827 12.2209 33.4873 37.2779 26.5468 43.548C22.2771 30.9265 12.303 11.0379 3.68245 3.94582C11.5451 22.7904 15.5116 40.1129 15.2319 50.0806C14.9866 58.8668 -22.7777 84.849 -31.3749 83.0236C-33.6848 73.7967 -36.6479 63.4382 -41.1332 56.9759C-45.6186 50.5136 -37.0792 75.7565 -43.0399 83.7238C-57.2475 95.6983 -79.1428 91.7443 -88.9121 99.6476C-93.1349 97.5596 -94.3773 91.488 -94.3773 91.488C-94.3773 91.488 -96.6403 92.7946 -96.6169 98.0613C-103.103 97.2799 -106.281 93.0806 -113.636 97.3268C-105.331 69.9022 -19.9038 20.5806 -7.72625 -10.5885C-0.348118 -9.56799 12.7515 -15.6224 12.7515 -15.6224C12.7515 -15.6224 5.78755 -14.6191 1.15062 -18.7309C18.187 -32.3385 13.6313 -54.601 34.2516 -60.5771C48.445 -79.2266 64.7343 -115.033 69.0383 -131.096C69.0383 -131.096 71.2138 -133.86 73.7393 -130.792Z" fill="#274F4C"/>
<path opacity="0.5" d="M-3.83934 160.995C12.7241 118.961 61.6564 95.1971 25.6093 85.8628C-13.6129 75.7112 -3.83934 160.995 -3.83934 160.995Z" fill="#274F4C"/>
<path opacity="0.5" d="M-12.9203 161.04C14.7677 173.669 92.063 183.909 75.0301 161.409C54.9005 134.821 -12.9203 161.04 -12.9203 161.04Z" fill="#274F4C"/>
<path d="M-6.27658 246.651C-27.177 301.372 44.0329 401.397 177.313 419.745C293.396 435.726 386.47 334.808 413.933 287.24C468.362 198.353 428.561 103.964 348.453 74.7938C268.345 45.6237 258.937 140.634 173.29 136.93C56.8044 127.676 14.6239 191.929 -6.27658 246.651Z" fill="#3EA39A"/>
<path d="M242.364 112.914C234.091 125.726 231.003 138.204 237.866 142.643C244.73 147.083 255.052 138.8 263.325 125.988C271.597 113.176 278.181 98.7721 271.317 94.3326C264.463 89.893 250.636 100.11 242.364 112.914Z" fill="#323C46"/>
<path d="M250.365 124.125C242.093 136.938 239.004 149.415 245.868 153.855C252.731 158.294 263.054 150.012 271.326 137.2C279.599 124.388 286.183 109.984 279.319 105.544C272.455 101.105 258.629 111.313 250.365 124.125Z" fill="#335267"/>
<path d="M155.575 122.633C151.358 128.954 138.489 144.632 136.005 157.888C134.172 167.662 137.929 176.875 141.424 176.875C143.754 176.875 141.424 169.642 147.547 164.371C147.24 171.233 147.474 188.928 156.776 200.384C168.517 214.851 176.645 216.659 179.354 215.755C182.063 214.851 185.676 207.618 185.676 207.618L185.613 207.166C190.498 208.63 195.673 209.426 201.029 209.426C206.727 209.426 212.218 208.531 217.375 206.885C217.971 208.006 221.746 214.923 224.238 215.755C226.948 216.659 235.076 214.851 246.816 200.384C251.702 194.362 261.537 176.875 261.537 176.875C259.983 174.805 258.141 168.901 256.85 164.217C260.796 169.75 265.023 174.859 270.568 175.971C275.083 176.875 279.328 176.053 278.696 167.834C277.829 156.604 258.665 132.155 245.281 120.816C233.54 110.87 245.281 111.774 244.378 81.032C243.7 58.0748 221.784 34.1818 198.836 34.1818C175.888 34.1818 133.91 72.6774 152.261 86.4571C155.873 89.1697 159.404 91.9003 160.389 97.3073C162.195 107.253 159.793 116.322 155.575 122.633Z" fill="#3F7494"/>
<path d="M221.8 100.924C219.371 116.756 224.509 169.642 180.257 167.834C165.808 167.246 154.067 156.097 154.067 141.612C154.067 127.127 168.673 119.115 162.195 100.02C159.468 90.4536 146.02 84.3414 149.552 82.8404C158.998 78.8259 179.881 28.0943 198.043 31.4036C207.977 33.212 232.908 43.7164 236.25 62.9484C239.862 83.7446 223.606 89.1697 221.8 100.924Z" fill="white"/>
<path d="M238.056 67.9215C238.056 84.1515 228.077 95.499 211.866 95.499C184.945 95.499 184.549 67.9215 172.642 66.3294C172.642 50.0993 180.618 27.2151 196.513 30.3979C214.575 34.0146 238.056 48.4815 238.056 67.9215Z" fill="#CFECF5"/>
<path d="M170.323 73.7986C170.323 77.0447 163.234 85.553 152.261 85.553C105.299 67.4694 73.6906 76.5112 72.7875 74.7028C69.5382 68.1964 110.467 63.3602 120.65 63.1543C131.695 63.1543 144.079 62.8671 153.164 65.661C156.424 66.6646 167.749 61.33 171.226 62.9484C174.703 64.5669 170.323 73.1205 170.323 73.7986Z" fill="#E07A15"/>
<path d="M101.886 24.1771C80.4097 31.5643 59.9962 48.7978 62.7055 62.3605C64.2679 70.1727 109.941 54.205 149.226 65.661C154.374 67.162 163.098 68.3736 172.129 66.5652C160.339 76.6483 134.541 66.7974 115.234 65.661C95.9258 64.5246 69.1299 67.379 72.7875 74.7028C73.6906 76.5112 105.299 67.4694 152.261 85.553C158.501 85.553 165.808 84.6489 170.323 75.607C174.568 67.0987 176.645 57.5234 196.513 30.3979C161.292 17.7393 130.153 14.4571 101.886 24.1771Z" fill="#F8C06D"/>
<path d="M101.6 61.8446C83.5379 63.653 60.144 69.0336 60.144 62.0442C60.144 55.0549 65.5627 35.8229 105.299 23.1644C93.559 34.9187 84.441 47.3777 101.6 61.8446Z" fill="#AB5930"/>
<path d="M200.884 72.7498C206.371 72.7498 210.818 68.2968 210.818 62.8037C210.818 57.3107 206.371 52.8577 200.884 52.8577C195.398 52.8577 190.95 57.3107 190.95 62.8037C190.95 68.2968 195.398 72.7498 200.884 72.7498Z" fill="#161616"/>
<path d="M196.82 64.6121C198.815 64.6121 200.433 62.9929 200.433 60.9954C200.433 58.9979 198.815 57.3787 196.82 57.3787C194.825 57.3787 193.208 58.9979 193.208 60.9954C193.208 62.9929 194.825 64.6121 196.82 64.6121Z" fill="white"/>
<path d="M27.592 119.281C27.592 119.881 27.7766 120.308 28.1459 120.561C28.5382 120.815 29.0806 120.942 29.773 120.942C30.1191 120.942 30.4769 120.919 30.8461 120.873C31.2154 120.804 31.5385 120.723 31.8154 120.631C32.0231 120.885 32.1962 121.173 32.3347 121.496C32.4963 121.796 32.577 122.165 32.577 122.604C32.577 123.481 32.2424 124.196 31.5731 124.75C30.9269 125.304 29.773 125.581 28.1113 125.581C26.0803 125.581 24.511 125.12 23.4032 124.196C22.3185 123.273 21.7762 121.773 21.7762 119.696V104.879C22.03 104.81 22.3877 104.741 22.8493 104.672C23.334 104.579 23.8417 104.533 24.3725 104.533C25.388 104.533 26.1727 104.718 26.7266 105.087C27.3035 105.433 27.592 106.183 27.592 107.337V109.553H32.127C32.2655 109.807 32.3924 110.13 32.5078 110.522C32.6463 110.891 32.7155 111.307 32.7155 111.768C32.7155 112.576 32.5309 113.165 32.1616 113.534C31.8154 113.88 31.3423 114.053 30.7423 114.053H27.592V119.281Z" fill="white"/>
<path d="M52.7778 116.65C52.7778 118.081 52.5586 119.361 52.1201 120.492C51.6816 121.6 51.0584 122.535 50.2507 123.296C49.466 124.058 48.5198 124.635 47.412 125.027C46.3042 125.42 45.0695 125.616 43.7079 125.616C42.3462 125.616 41.1115 125.408 40.0037 124.993C38.8959 124.577 37.9382 123.989 37.1304 123.227C36.3457 122.442 35.7341 121.496 35.2956 120.388C34.8571 119.281 34.6379 118.034 34.6379 116.65C34.6379 115.288 34.8571 114.053 35.2956 112.945C35.7341 111.838 36.3457 110.903 37.1304 110.141C37.9382 109.357 38.8959 108.757 40.0037 108.341C41.1115 107.926 42.3462 107.718 43.7079 107.718C45.0695 107.718 46.3042 107.937 47.412 108.376C48.5198 108.791 49.466 109.391 50.2507 110.176C51.0584 110.938 51.6816 111.872 52.1201 112.98C52.5586 114.088 52.7778 115.311 52.7778 116.65ZM40.6615 116.65C40.6615 118.057 40.9269 119.142 41.4577 119.904C42.0116 120.642 42.7732 121.012 43.7425 121.012C44.7118 121.012 45.4503 120.631 45.958 119.869C46.4888 119.108 46.7543 118.034 46.7543 116.65C46.7543 115.265 46.4888 114.203 45.958 113.465C45.4272 112.703 44.6772 112.322 43.7079 112.322C42.7385 112.322 41.9885 112.703 41.4577 113.465C40.9269 114.203 40.6615 115.265 40.6615 116.65Z" fill="white"/>
<path d="M55.649 108.48C55.8798 108.411 56.2375 108.341 56.7221 108.272C57.2299 108.203 57.7491 108.168 58.2799 108.168C58.7877 108.168 59.2377 108.203 59.6301 108.272C60.0455 108.341 60.3917 108.48 60.6686 108.687C60.9455 108.895 61.1533 109.184 61.2917 109.553C61.4533 109.899 61.5341 110.361 61.5341 110.938V118.381C61.5341 119.327 61.7648 120.008 62.2264 120.423C62.688 120.815 63.3573 121.012 64.2343 121.012C64.7651 121.012 65.192 120.965 65.5151 120.873C65.8613 120.781 66.1267 120.688 66.3114 120.596V108.48C66.5421 108.411 66.8999 108.341 67.3845 108.272C67.8923 108.203 68.4115 108.168 68.9423 108.168C69.4501 108.168 69.9001 108.203 70.2925 108.272C70.7079 108.341 71.054 108.48 71.331 108.687C71.6079 108.895 71.8157 109.184 71.9541 109.553C72.1157 109.899 72.1965 110.361 72.1965 110.938V121.462C72.1965 122.615 71.7118 123.481 70.7425 124.058C69.9347 124.566 68.9654 124.946 67.8346 125.2C66.7268 125.477 65.5151 125.616 64.1997 125.616C62.9534 125.616 61.7995 125.477 60.7378 125.2C59.6993 124.923 58.7992 124.496 58.0376 123.919C57.276 123.342 56.6875 122.604 56.2721 121.704C55.8567 120.781 55.649 119.673 55.649 118.381V108.48Z" fill="white"/>
<path d="M85.2832 112.357C84.7062 112.357 84.1523 112.449 83.6215 112.634C83.1138 112.819 82.6638 113.095 82.2714 113.465C81.9022 113.811 81.6021 114.249 81.3714 114.78C81.1406 115.311 81.0252 115.934 81.0252 116.65C81.0252 118.081 81.429 119.154 82.2368 119.869C83.0676 120.585 84.0716 120.942 85.2486 120.942C85.941 120.942 86.541 120.862 87.0487 120.7C87.5565 120.538 88.0065 120.365 88.3988 120.181C88.8604 120.504 89.2066 120.862 89.4374 121.254C89.6682 121.623 89.7836 122.073 89.7836 122.604C89.7836 123.55 89.3335 124.289 88.4335 124.82C87.5334 125.327 86.2871 125.581 84.6947 125.581C83.2407 125.581 81.9252 125.373 80.7482 124.958C79.5712 124.519 78.5557 123.919 77.7018 123.158C76.871 122.373 76.2248 121.438 75.7632 120.354C75.3016 119.269 75.0708 118.069 75.0708 116.753C75.0708 115.23 75.3132 113.903 75.7978 112.772C76.3056 111.618 76.9864 110.672 77.8403 109.934C78.6942 109.195 79.6751 108.641 80.7828 108.272C81.9137 107.903 83.1023 107.718 84.3485 107.718C86.0102 107.718 87.2911 108.018 88.1911 108.618C89.0912 109.218 89.5412 109.991 89.5412 110.938C89.5412 111.376 89.4374 111.792 89.2297 112.184C89.022 112.553 88.7796 112.876 88.5027 113.153C88.1104 112.969 87.6372 112.795 87.0834 112.634C86.5295 112.449 85.9294 112.357 85.2832 112.357Z" fill="white"/>
<path d="M99.9356 121.323C100.328 121.323 100.755 121.288 101.216 121.219C101.701 121.127 102.059 121.012 102.29 120.873V118.104L99.7971 118.311C99.1509 118.357 98.6201 118.496 98.2047 118.727C97.7893 118.958 97.5816 119.304 97.5816 119.765C97.5816 120.227 97.7547 120.608 98.1009 120.908C98.4701 121.185 99.0817 121.323 99.9356 121.323ZM99.6587 107.718C100.905 107.718 102.036 107.845 103.051 108.099C104.09 108.353 104.967 108.745 105.682 109.276C106.421 109.784 106.986 110.441 107.379 111.249C107.771 112.034 107.967 112.969 107.967 114.053V121.808C107.967 122.408 107.794 122.904 107.448 123.296C107.125 123.666 106.732 123.989 106.271 124.266C104.771 125.166 102.659 125.616 99.9356 125.616C98.7124 125.616 97.6047 125.5 96.6123 125.27C95.643 125.039 94.8006 124.693 94.0851 124.231C93.3928 123.769 92.8504 123.181 92.4581 122.465C92.0888 121.75 91.9042 120.919 91.9042 119.973C91.9042 118.381 92.3773 117.157 93.3235 116.303C94.2698 115.45 95.7353 114.919 97.7201 114.711L102.255 114.226V113.984C102.255 113.315 101.955 112.842 101.355 112.565C100.778 112.265 99.9356 112.115 98.8278 112.115C97.9508 112.115 97.0969 112.207 96.2661 112.392C95.4353 112.576 94.6852 112.807 94.0159 113.084C93.7159 112.876 93.462 112.565 93.2543 112.149C93.0466 111.711 92.9427 111.261 92.9427 110.799C92.9427 110.199 93.0812 109.726 93.3582 109.38C93.6582 109.011 94.1082 108.699 94.7083 108.445C95.3776 108.191 96.1622 108.007 97.0623 107.891C97.9855 107.776 98.8509 107.718 99.6587 107.718Z" fill="white"/>
<path d="M122.228 114.399C122.228 113.684 122.02 113.165 121.605 112.842C121.212 112.495 120.67 112.322 119.978 112.322C119.516 112.322 119.055 112.38 118.593 112.495C118.154 112.611 117.774 112.784 117.451 113.015V125.027C117.22 125.096 116.85 125.166 116.343 125.235C115.858 125.304 115.35 125.339 114.82 125.339C114.312 125.339 113.85 125.304 113.435 125.235C113.042 125.166 112.708 125.027 112.431 124.82C112.154 124.612 111.935 124.335 111.773 123.989C111.635 123.619 111.565 123.146 111.565 122.569V112.184C111.565 111.561 111.692 111.053 111.946 110.661C112.223 110.268 112.592 109.911 113.054 109.588C113.839 109.034 114.82 108.584 115.997 108.237C117.197 107.891 118.524 107.718 119.978 107.718C122.586 107.718 124.593 108.295 126.001 109.449C127.409 110.58 128.113 112.161 128.113 114.192V125.027C127.882 125.096 127.513 125.166 127.005 125.235C126.52 125.304 126.013 125.339 125.482 125.339C124.974 125.339 124.513 125.304 124.097 125.235C123.705 125.166 123.37 125.027 123.093 124.82C122.816 124.612 122.597 124.335 122.436 123.989C122.297 123.619 122.228 123.146 122.228 122.569V114.399Z" fill="white"/>
</g>
<defs>
<linearGradient id="paint0_linear" x1="-60.5091" y1="115.971" x2="453.818" y2="115.971" gradientUnits="userSpaceOnUse">
<stop stop-color="#2B7670"/>
<stop offset="1" stop-color="#3EA39A"/>
</linearGradient>
<clipPath id="clip0">
<rect width="256" height="164" fill="white"/>
</clipPath>
</defs>
</svg>
